<svg xmlns="http://www.w3.org/2000/svg" xmlns:xlink="http://www.w3.org/1999/xlink" width="64" height="64"><defs><linearGradient id="a"><stop offset="0" stop-color="#729fcf"/><stop offset="1" stop-color="#3465a4"/></linearGradient><linearGradient id="b"><stop offset="0" stop-color="#729fcf"/><stop offset="1" stop-color="#204a87"/></linearGradient><linearGradient id="d"><stop offset="0" stop-color="#729fcf"/><stop offset="1" stop-color="#3465a4"/></linearGradient><linearGradient id="c"><stop offset="0" stop-color="#3465a4"/><stop offset="1" stop-color="#729fcf"/></linearGradient><linearGradient id="e"><stop offset="0" stop-color="#729fcf"/><stop offset="1" stop-color="#3465a4"/></linearGradient><radialGradient xlink:href="#e" id="g" gradientUnits="userSpaceOnUse" gradientTransform="matrix(.91962 .91962 -2.34324 2.34323 17.548 -75.79)" cx="57.211" cy="24.628" fx="57.211" fy="24.628" r="19.571"/><radialGradient xlink:href="#d" id="f" gradientUnits="userSpaceOnUse" gradientTransform="matrix(1.05756 1.7013 -2.81438 1.74948 58.357 -108.95)" cx="46.534" cy="26.282" fx="46.534" fy="26.282" r="19.571"/></defs><g stroke-width="1.998"><path style="marker:none" d="M39.903 8.999c-7.892 0-14.481 5.359-16.452 12.627.086-.001.167-.028.253-.028 1.18 0 2.346.11 3.46.337 1.112.228 2.182.58 3.205 1.013a16.98 16.98 0 0 1 2.897 1.575c.91.614 1.757 1.307 2.53 2.08a17.142 17.142 0 0 1 2.082 2.532 16.98 16.98 0 0 1 1.575 2.896 16.972 16.972 0 0 1 1.012 3.206c.228 1.113.338 2.279.338 3.46 0 1.18-.11 2.345-.338 3.458-.072.35-.216.67-.31 1.013 9.325-.139 16.846-7.713 16.846-17.07 0-9.444-7.655-17.099-17.098-17.099z" fill="url(#f)" fill-rule="evenodd" stroke="#0b1521" stroke-linejoin="round" overflow="visible"/><path style="marker:none" d="M39.874 10.999c-6.221 0-11.552 3.752-13.875 9.12.537.062 1.09.06 1.613.167 1.216.249 2.413.612 3.531 1.084a18.611 18.611 0 0 1 5.923 4.004 18.61 18.61 0 0 1 4.004 5.923 18.767 18.767 0 0 1 1.084 3.531 18.65 18.65 0 0 1 .39 3.754c0 .831-.145 1.616-.25 2.42C49.494 39.84 55 33.652 55 26.124 55.001 17.771 48.23 11 39.874 11z" fill="none" stroke="#729fcf" overflow="visible"/><path style="marker:none" d="M22.097 57.001c7.892 0 14.482-5.359 16.452-12.627-.086.001-.167.028-.253.028-1.18 0-2.346-.11-3.46-.337a16.972 16.972 0 0 1-3.205-1.013 16.98 16.98 0 0 1-2.897-1.575 17.141 17.141 0 0 1-2.53-2.08 17.142 17.142 0 0 1-2.082-2.532 16.98 16.98 0 0 1-1.575-2.896 16.972 16.972 0 0 1-1.012-3.206 17.305 17.305 0 0 1-.337-3.46c0-1.18.11-2.345.337-3.458.072-.35.217-.67.31-1.013-9.325.139-16.846 7.713-16.846 17.07 0 9.444 7.655 17.099 17.098 17.099z" fill="url(#g)" fill-rule="evenodd" stroke="#0b1521" stroke-linejoin="round" overflow="visible"/><path style="marker:none" d="M22.126 55.001c6.221 0 11.552-3.752 13.875-9.12-.537-.062-1.09-.06-1.613-.167a18.768 18.768 0 0 1-3.531-1.084 18.611 18.611 0 0 1-5.923-4.004 18.61 18.61 0 0 1-4.004-5.923 18.767 18.767 0 0 1-1.084-3.531 18.65 18.65 0 0 1-.39-3.754c0-.831.145-1.616.25-2.42C12.506 26.16 7 32.348 7 39.876 6.999 48.229 13.77 55 22.126 55z" fill="none" stroke="#729fcf" overflow="visible"/></g></svg>