<svg xmlns="http://www.w3.org/2000/svg" xmlns:xlink="http://www.w3.org/1999/xlink" width="64" height="64"><defs><linearGradient id="c"><stop offset="0" stop-color="#3465a4"/><stop offset="1" stop-color="#204a87"/></linearGradient><linearGradient id="b"><stop offset="0" stop-color="#729fcf"/><stop offset="1" stop-color="#3465a4"/></linearGradient><linearGradient id="a"><stop offset="0" stop-color="#71b2f8"/><stop offset="1" stop-color="#002795"/></linearGradient><linearGradient xlink:href="#b" id="d" gradientUnits="userSpaceOnUse" x1="-35" y1="14" x2="-28" y2="56" gradientTransform="translate(80)"/><linearGradient xlink:href="#c" id="e" gradientUnits="userSpaceOnUse" x1="-16" y1="12" x2="-13" y2="52" gradientTransform="translate(80)"/></defs><g stroke-width="2"><path d="M29 3l-12 8 24 2 10-8z" fill="#729fcf" stroke="#0b1521" stroke-linejoin="round"/><path d="M17 11v48l24 2V13z" fill="#729fcf" stroke="#000" stroke-linejoin="round"/><path d="M51 5v48l-10 8V13z" fill="#3465a4" stroke="#0b1521" stroke-linejoin="round"/><path d="M39 13.1v44.1l20 1.7V14.8z" fill="url(#d)" stroke="#729fcf" transform="translate(-20)"/><path d="M63 14v42.8l6-4.8V9.2z" fill="url(#e)" stroke="#3465a4" transform="translate(-20)"/><path d="M53 36.156V37l-11 8-25-2v-5.813L3 47l42 4 16-14-8-.844zM53 18.156V19l-11 8-25-2v-5.813L3 29l42 4 16-14-8-.844z" fill="#ef2929" stroke="#a40000" stroke-linejoin="round"/></g></svg>