<svg xmlns="http://www.w3.org/2000/svg" xmlns:xlink="http://www.w3.org/1999/xlink" width="64" height="64"><defs><linearGradient id="a"><stop offset="0" stop-color="#71b2f8"/><stop offset="1" stop-color="#002795"/></linearGradient><linearGradient id="b"><stop offset="0" stop-color="#f87c71"/><stop offset="1" stop-color="red"/></linearGradient><linearGradient xlink:href="#c" id="i" x1="62" y1="34" x2="52" y2="34" gradientUnits="userSpaceOnUse" spreadMethod="reflect" gradientTransform="matrix(.87649 0 0 1.10681 .818 1.328)"/><linearGradient id="c"><stop offset="0" stop-color="#a40000"/><stop offset="1" stop-color="#ef2929"/></linearGradient><linearGradient gradientTransform="translate(0 -4)" xlink:href="#d" id="f" x1="53.897" y1="51.18" x2="47.502" y2="21.837" gradientUnits="userSpaceOnUse"/><linearGradient id="d"><stop offset="0" stop-color="#204a87"/><stop offset="1" stop-color="#3465a4"/></linearGradient><linearGradient gradientTransform="translate(0 -4)" xlink:href="#e" id="g" x1="22.117" y1="55.718" x2="17.329" y2="21.311" gradientUnits="userSpaceOnUse"/><linearGradient id="e"><stop offset="0" stop-color="#3465a4"/><stop offset="1" stop-color="#729fcf"/></linearGradient></defs><g stroke-width="2.867"><path d="M8.152 11.247l23.717 4.185 16.741-5.58-20.926-2.79z" fill="#729fcf" stroke="#0b1521" stroke-linejoin="round" stroke-width="1.99987585"/><path d="M61 11v36L37 57V19z" fill="url(#f)" stroke="#0b1521" stroke-linejoin="round" transform="translate(6.06 2.178) scale(.69755)"/><path style="marker:none" d="M3 13l34 6v38L3 51z" fill="url(#g)" fill-rule="evenodd" stroke="#0b1521" stroke-linejoin="round" overflow="visible" transform="translate(6.06 2.178) scale(.69755)"/><path d="M9.547 12.94l.006 23.66 20.933 3.676-.006-23.67z" fill="none" stroke="#729fcf" stroke-width="1.99987585"/><path d="M33.273 16.432l-.009 23.393 13.952-5.79v-22.23z" fill="none" stroke="#3465a4" stroke-width="1.99987585"/></g><g transform="matrix(1.30872 0 0 1.5357 -2.156 -33.977)" stroke-width="2"><g id="h" fill="none" stroke-linecap="round" stroke-linejoin="round"><path d="M10.351 24.494H4.653V50.42h5.698" stroke="#fff" stroke-width="4.938" stroke-opacity=".857"/><path d="M10.351 24.494H4.653V50.42h5.698" stroke="#000" stroke-width="1.411"/></g><use xlink:href="#h" transform="matrix(-1 0 0 1 46.557 0)" width="64" height="64"/></g><path d="M38.506 33.425v30.991s1.753 4.427 9.642 4.427c7.888 0 9.641-4.427 9.641-4.427v-30.99z" fill="url(#i)" stroke="#280000" stroke-width="2.202" stroke-linejoin="round" transform="matrix(.91274 0 0 .9035 6.535 -.919)"/><path d="M40.698 35.639v28.224s1.704 2.767 7.669 2.767 7.67-2.767 7.67-2.767V35.639z" fill="none" stroke="#ef2929" stroke-width="2.202" transform="matrix(.91274 0 0 .9035 6.535 -.919)"/><path transform="matrix(.7833 0 0 .9095 39.567 2.876)" d="M25.17 29.033c0 2.43-5.03 4.398-11.236 4.398-6.204 0-11.234-1.969-11.234-4.398 0-2.429 5.03-4.398 11.234-4.398 6.205 0 11.235 1.97 11.235 4.398z" fill="#c00" stroke="#280000" stroke-width="2.37" stroke-linecap="round" stroke-linejoin="round" stroke-dashoffset="6.8"/><path transform="matrix(.62307 0 0 .45475 42 16.078)" d="M25.17 29.033c0 2.43-5.03 4.398-11.236 4.398-6.204 0-11.234-1.969-11.234-4.398 0-2.429 5.03-4.398 11.234-4.398 6.205 0 11.235 1.97 11.235 4.398z" fill="none" stroke="#ef2929" stroke-width="3.757" stroke-linecap="round" stroke-linejoin="round" stroke-dashoffset="6.8"/><path d="M40.26 38.517s2.629 1.55 7.888 1.55 7.888-1.55 7.888-1.55" fill="none" stroke="#ef2929" stroke-width="2.202" transform="matrix(.91274 0 0 .9035 6.535 -.919)"/><path transform="matrix(1 0 0 1 -1.318 .281)" d="M52 28s-3.29-4.345-3-8c.29-3.655 2-5 2-5" fill="none" stroke="#2e3436" stroke-width="6" stroke-linecap="round" stroke-linejoin="round"/><path d="M48.367 32.319s-3.605-4.81-3.287-8.855c.318-4.046 2.191-5.534 2.191-5.534" fill="none" stroke="#d3d7cf" stroke-width="2.202" stroke-linecap="round" stroke-linejoin="round" transform="matrix(.91274 0 0 .9035 6.535 -.919)"/><path d="M38.506 17.93l-4.382 2.214" fill="none" stroke="#a40000" stroke-width="6.607" stroke-linecap="round" transform="matrix(.91274 0 0 .9035 6.535 -.919)"/><path d="M38.506 17.93l-4.382 2.214" fill="none" stroke="#ef2929" stroke-width="2.202" stroke-linecap="round" transform="matrix(.91274 0 0 .9035 6.535 -.919)"/><path d="M58.227 22.357l-4.382-2.213" fill="none" stroke="#a40000" stroke-width="6.607" stroke-linecap="round" transform="matrix(.91274 0 0 .9035 6.535 -.919)"/><path d="M58.227 22.357l-4.382-2.213" fill="none" stroke="#ef2929" stroke-width="2.202" stroke-linecap="round" transform="matrix(.91274 0 0 .9035 6.535 -.919)"/><path d="M53.845 6.862l-2.191 4.427" fill="none" stroke="#a40000" stroke-width="6.607" stroke-linecap="round" transform="matrix(.91274 0 0 .9035 6.535 -.919)"/><path d="M53.845 6.862l-2.191 4.427" fill="none" stroke="#ef2929" stroke-width="2.202" stroke-linecap="round" transform="matrix(.91274 0 0 .9035 6.535 -.919)"/><path d="M40.698 6.862l2.19 4.427" fill="none" stroke="#a40000" stroke-width="6.607" stroke-linecap="round" transform="matrix(.91274 0 0 .9035 6.535 -.919)"/><path d="M40.698 6.862l2.19 4.427" fill="none" stroke="#ef2929" stroke-width="2.202" stroke-linecap="round" transform="matrix(.91274 0 0 .9035 6.535 -.919)"/></svg>