<svg xmlns="http://www.w3.org/2000/svg" xmlns:xlink="http://www.w3.org/1999/xlink" width="64" height="64"><defs><linearGradient id="a"><stop offset="0" stop-color="#71b2f8"/><stop offset="1" stop-color="#002795"/></linearGradient><radialGradient xlink:href="#a" id="e" gradientUnits="userSpaceOnUse" gradientTransform="matrix(.98773 -.06325 .02642 1.2304 -216.688 -80.013)" cx="148.883" cy="81.87" fx="148.883" fy="81.87" r="19.467"/><radialGradient xlink:href="#a" id="f" gradientUnits="userSpaceOnUse" gradientTransform="matrix(.69474 .27708 -.32964 2.46456 -139.053 -247.097)" cx="135.383" cy="97.37" fx="135.383" fy="97.37" r="19.467"/><radialGradient xlink:href="#a" id="g" gradientUnits="userSpaceOnUse" gradientTransform="matrix(.71303 0 0 1.23125 -173.627 -89.499)" cx="45.883" cy="28.87" fx="45.883" fy="28.87" r="19.467"/></defs><g transform="translate(-.257 3.857)"><path d="M8.1 33.144l15.042 10.671.128 12.6c.477 4.113 20.356 3.17 20.313.514l-.128-12.985L59.783 32.63c1.324-.591 3.447-3.333 0-4.5-8.74-2.958-17.734-3.591-27.385-3.47-11.056.137-24.427 2.956-24.427 2.956-3.625 1.563-6.594 2.652.129 5.528z" fill="#ff8080"/><path d="M61.968 30.316c0 2.982-12.893 5.4-28.798 5.4-15.905 0-28.799-2.418-28.799-5.4s12.894-5.4 28.799-5.4 28.798 2.418 28.798 5.4z" fill-opacity=".204" stroke="#000" stroke-width="1.417" stroke-linecap="round" stroke-linejoin="round"/><path id="b" d="M61.197 31.345l-17.742 12.47v12.728" fill="none" stroke="#000" stroke-width="1" stroke-linecap="butt" stroke-linejoin="miter" stroke-opacity="1"/><use height="64" width="64" transform="matrix(-1 0 0 1 66.468 0)" xlink:href="#b"/><path id="c" d="M23.142 56.158c.004 4.178 19.985 4.725 20.313 0" fill="none" stroke="#000" stroke-width="1" stroke-linecap="butt" stroke-linejoin="miter" stroke-opacity="1"/><use height="64" width="64" transform="translate(0 -12.985)" xlink:href="#c"/></g><g transform="matrix(1.47621 0 0 1.00765 -1.646 -22.34)" stroke-width="2"><path id="d" d="M10.351 24.494H4.653V50.42h5.698" fill="none" stroke="#000" stroke-width="1.64" stroke-linecap="butt" stroke-linejoin="miter" stroke-miterlimit="4" stroke-opacity="1" stroke-dasharray="none"/><use height="64" width="64" transform="matrix(-1 0 0 1 47.082 0)" xlink:href="#d"/></g><g fill-rule="evenodd" stroke="#000137" stroke-width="1.316" stroke-linejoin="round"><path style="marker:none" d="M-65.878 4.797l-12.867 10.104 21.744 5.108.304 44.046 11.486-13.04.411-42.336z" fill="url(#e)" overflow="visible" transform="matrix(.90317 0 0 .50907 88.323 -1.846)"/><path style="marker:none" d="M-78.552 15.155l21.896 4.144v44.913l-22.192-6.236.296-42.82z" fill="url(#f)" overflow="visible" transform="matrix(.90317 0 0 .50907 88.323 -1.846)"/><path style="marker:none" d="M-56.823 19.355L-44.897 9" fill="url(#g)" overflow="visible" transform="matrix(.90317 0 0 .50907 88.323 -1.846)"/></g></svg>