<svg xmlns="http://www.w3.org/2000/svg" xmlns:xlink="http://www.w3.org/1999/xlink" width="64" height="64"><defs><linearGradient id="e"><stop offset="0" stop-color="#fce94f"/><stop offset="1" stop-color="#c4a000"/></linearGradient><linearGradient id="b"><stop offset="0" stop-color="#71b2f8"/><stop offset="1" stop-color="#002795"/></linearGradient><linearGradient id="a"><stop offset="0" stop-color="#71b2f8"/><stop offset="1" stop-color="#71b2f8" stop-opacity=".016"/></linearGradient><linearGradient id="c"><stop offset="0" stop-color="#faff2b"/><stop offset="1" stop-color="#fa0"/></linearGradient><linearGradient id="d"><stop offset="0" stop-color="#faff2b"/><stop offset="1" stop-color="#fa0"/></linearGradient><linearGradient xlink:href="#e" id="k" x1="10.203" y1="20.353" x2="29.541" y2="54.686" gradientUnits="userSpaceOnUse" spreadMethod="reflect"/><linearGradient id="f"><stop offset="0" stop-color="#a40000"/><stop offset="1" stop-color="#ef2929"/></linearGradient><linearGradient id="g"><stop offset="0" stop-color="#a40000"/><stop offset="1" stop-color="#ef2929"/></linearGradient><linearGradient id="h"><stop offset="0" stop-color="#a40000"/><stop offset="1" stop-color="#ef2929"/></linearGradient><linearGradient id="i"><stop offset="0" stop-color="#a40000"/><stop offset="1" stop-color="#ef2929"/></linearGradient><linearGradient id="j"><stop offset="0" stop-color="#a40000"/><stop offset="1" stop-color="#ef2929"/></linearGradient></defs><g stroke-width="2" stroke-linecap="round" stroke-linejoin="round" stroke-miterlimit="4.5" stroke-dashoffset="20.4"><path d="M32 13C15.984 13 3 22.85 3 35s12.984 22 29 22 29-9.85 29-22-12.984-22-29-22zm0 14c8.284 0 15 3.134 15 7s-6.716 7-15 7c-8.284 0-15-3.134-15-7s6.716-7 15-7z" fill="url(#k)" stroke="#302b00"/><path d="M32 15C17.088 15 5 23.954 5 35s12.088 20 27 20 27-8.954 27-20-12.088-20-27-20zm-.994 10.044c13.922-.179 17.882 5.367 17.882 8.881 0 3.515-4.103 9.253-17.03 9.11-11.639-.13-16.9-5.678-16.9-9.193 0-3.514 4.41-8.648 16.048-8.798z" fill="none" stroke="#fce94f"/></g></svg>