<svg xmlns="http://www.w3.org/2000/svg" xmlns:xlink="http://www.w3.org/1999/xlink" width="64" height="64"><defs><linearGradient id="i"><stop offset="0" stop-color="#ef2929"/><stop offset="1" stop-color="#a40000"/></linearGradient><linearGradient id="h"><stop offset="0" stop-color="#8ae234"/><stop offset="1" stop-color="#4e9a06"/></linearGradient><linearGradient id="f"><stop offset="0" stop-color="#babdb6"/><stop offset="1" stop-color="#d3d7cf"/></linearGradient><linearGradient id="e"><stop offset="0" stop-color="#babdb6"/><stop offset="1" stop-color="#555753"/></linearGradient><linearGradient id="a"><stop offset="0"/><stop offset="1" stop-color="#f6f6f6" stop-opacity="0"/></linearGradient><linearGradient id="c"><stop offset="0" stop-color="#e3d328"/><stop offset="1" stop-color="#e1dec3"/></linearGradient><linearGradient id="d"><stop offset="0" stop-color="#ada9a9"/><stop offset="1" stop-color="#ada9a9" stop-opacity="0"/></linearGradient><linearGradient id="b"><stop offset="0" stop-color="#ada9a9"/><stop offset="1" stop-color="#ada9a9" stop-opacity="0"/></linearGradient><linearGradient xlink:href="#e" id="k" x1="214.709" y1="80.887" x2="218.709" y2="104.887" gradientUnits="userSpaceOnUse" gradientTransform="translate(80)"/><linearGradient xlink:href="#f" id="j" x1="196.709" y1="106.887" x2="190.709" y2="80.887" gradientUnits="userSpaceOnUse" gradientTransform="translate(80)"/><linearGradient id="g"><stop offset="0" stop-color="#babdb6"/><stop offset="1" stop-color="#555753"/></linearGradient><linearGradient xlink:href="#i" id="l" gradientUnits="userSpaceOnUse" x1="266.082" y1="90.401" x2="301.709" y2="119.887"/></defs><path d="M29 11L3 7c0 11 0 26 2 36l30 12v-6l-2-4c8-12 0-24-4-34z" fill="#babdb6" stroke="#2e3436" stroke-width="2" stroke-linejoin="round"/><path d="M35 55l12-4v-6l-12 4z" fill="#555753" stroke="#2e3436" stroke-width="2" stroke-linejoin="round"/><path d="M45 41l-12 4 2 4 12-4z" fill="#d3d7cf" stroke="#2e3436" stroke-width="2" stroke-linejoin="round"/><path d="M29 11c4 10 12 22 4 34l12-4c8-12 0-24-4-34z" fill="#888a85" stroke="#2e3436" stroke-width="2" stroke-linejoin="round"/><path d="M3 7l12-4 26 4-12 4z" fill="#d3d7cf" stroke="#2e3436" stroke-width="2" stroke-linejoin="round"/><path d="M284.31 79.787l-22.6-3.9c0 10.043-.013 23.47 1.8 32.6l26.2 10.4v-2.5l-2.2-4.5c8-12 1.2-22-3.2-32.1z" fill="url(#j)" stroke="#d3d7cf" stroke-width="2" transform="translate(-256.71 -66.887)"/><path d="M288.31 79.087c4 10 9.4 18.3 5.4 29.3l6.6-2.2c6-9 1.4-19.3-3.8-29.9z" fill="url(#k)" stroke="#babdb6" stroke-width="2" transform="translate(-256.71 -66.887)"/><path d="M-78 39c0 8.284-6.716 15-15 15-8.284 0-15-6.716-15-15 0-8.284 6.716-15 15-15 8.284 0 15 6.716 15 15z" transform="matrix(.8 .19608 0 .9804 93.4 8)" fill="#555753" stroke="#2e3436" stroke-width="2.258" stroke-linecap="round" stroke-dashoffset="1.6"/><path d="M31 30.941L7 25.06s-.822-14.095 12-11.765c11.123 2.022 12 17.647 12 17.647z" fill="#edd400" stroke="#302b00" stroke-width="2" stroke-linecap="round" stroke-linejoin="round" stroke-dashoffset="1.6"/><path d="M38 24c2 4 3 11 1 15l4-1c2-4 2-11 0-15zM37 51l8-3 16 5-6 4z" fill="#edd400" stroke="#302b00" stroke-width="2" stroke-linejoin="round"/><path d="M61 53v4l-6 4v-4z" fill="#d3d7cf" stroke="#2e3436" stroke-width="2" stroke-linejoin="round"/><g fill="none" stroke-linecap="round" stroke-linejoin="round"><path d="M6.059 31.172L31.172 6.059l26.77 26.77L32.827 57.94" stroke="#280000" stroke-width="8"/><path d="M265.538 120.887V85.372h37.857v35.515" stroke="url(#l)" stroke-width="4" transform="rotate(45 244.094 -237.19)"/><path d="M5.281 30.535l25.89-25.89 26.77 26.77-25.89 25.89" stroke="#ef2929" stroke-width="2"/></g></svg>