<svg xmlns="http://www.w3.org/2000/svg" xmlns:xlink="http://www.w3.org/1999/xlink" width="64" height="64"><defs><linearGradient id="e"><stop offset="0" stop-color="#71b2f8"/><stop offset="1" stop-color="#002795"/></linearGradient><linearGradient id="a"><stop offset="0" stop-color="#4bff54"/><stop offset="1" stop-color="#00b800"/></linearGradient><linearGradient id="b"><stop offset="0" stop-color="#71b2f8"/><stop offset="1" stop-color="#002795"/></linearGradient><linearGradient id="c"><stop offset="0" stop-color="#faff2b"/><stop offset="1" stop-color="#fa0"/></linearGradient><linearGradient id="d"><stop offset="0" stop-color="#faff2b"/><stop offset="1" stop-color="#fa0"/></linearGradient><linearGradient id="f"><stop offset="0" stop-color="#71b2f8"/><stop offset="1" stop-color="#002795"/></linearGradient><linearGradient xlink:href="#g" id="p" gradientUnits="userSpaceOnUse" gradientTransform="matrix(1.45 0 0 1.47059 -27.45 -15.059)" x1="45.953" y1="21.439" x2="29.906" y2="46.304"/><linearGradient id="g"><stop offset="0" stop-color="#729fcf"/><stop offset="1" stop-color="#204a87"/></linearGradient><linearGradient xlink:href="#h" id="o" x1="-19.364" y1="59.636" x2="-27" y2="32.909" gradientUnits="userSpaceOnUse"/><linearGradient id="h"><stop offset="0" stop-color="#204a87"/><stop offset="1" stop-color="#729fcf"/></linearGradient><linearGradient xlink:href="#i" id="n" x1="-35" y1="3" x2="-43" y2="-25" gradientUnits="userSpaceOnUse" gradientTransform="translate(82 32)"/><linearGradient id="i"><stop offset="0" stop-color="#204a87"/><stop offset="1" stop-color="#729fcf"/></linearGradient><linearGradient xlink:href="#j" id="m" x1="-21.273" y1="59.636" x2="-28.909" y2="34.818" gradientUnits="userSpaceOnUse"/><linearGradient id="j"><stop offset="0" stop-color="#204a87"/><stop offset="1" stop-color="#729fcf"/></linearGradient><linearGradient id="k"><stop offset="0" stop-color="#204a87"/><stop offset="1" stop-color="#729fcf"/></linearGradient><linearGradient y2="35" x2="-31" y1="61" x1="-23" gradientTransform="translate(40 2)" gradientUnits="userSpaceOnUse" id="l" xlink:href="#k"/></defs><path fill="url(#l)" stroke="#0b1521" stroke-width="2" stroke-linecap="round" stroke-linejoin="round" stroke-dashoffset="6.8" d="M5 43h18v18H5z"/><path fill="none" stroke="#729fcf" stroke-width="2" stroke-linecap="round" stroke-dashoffset="6.8" d="M5 45h16v14H5z"/><path d="M-6 41.5a10.5 10.5 0 1 1-21 0 10.5 10.5 0 1 1 21 0z" transform="matrix(1.04762 0 0 1.04762 39.286 .524)" fill="url(#m)" stroke="#0b1521" stroke-width="1.909" stroke-linecap="round" stroke-dashoffset="6.8"/><path d="M31 44a9 9 0 1 1-18 0 9 9 0 1 1 18 0z" fill="none" stroke="#729fcf" stroke-width="1.9997076200000001" stroke-linecap="round" stroke-dashoffset="6.8"/><path fill="none" stroke="#0b1521" stroke-width="2" stroke-linecap="round" stroke-linejoin="round" stroke-dashoffset="6.8" d="M5 43h18v18H5z"/><path fill="none" stroke="#729fcf" stroke-width="2" stroke-linecap="round" stroke-dashoffset="6.8" d="M7 45h14v14H7z"/><path d="M33 44a11 11 0 1 1-22 0 11 11 0 1 1 22 0z" fill="none" stroke="#0b1521" stroke-width="1.99990658" stroke-linecap="round" stroke-dashoffset="6.8"/><path fill="url(#n)" stroke="#0b1521" stroke-width="2" stroke-linecap="round" stroke-linejoin="round" stroke-dashoffset="6.8" d="M33 15h18v18H33z"/><path d="M-26.972 40.738a10.5 10.5 0 1 1 10.718 11.26" transform="matrix(1.04762 0 0 1.04762 67.286 -27.476)" fill="url(#o)" stroke="#0b1521" stroke-width="1.909" stroke-linecap="round" stroke-dashoffset="6.8"/><path d="M41.05 16.941a9 9 0 1 1 8.3 8.036" fill="none" stroke="#729fcf" stroke-width="1.9997076200000001" stroke-linecap="round" stroke-dashoffset="6.8"/><path d="M51 27v6H33V15h6" fill="none" stroke="#0b1521" stroke-width="2" stroke-linecap="round" stroke-linejoin="round" stroke-dashoffset="6.8"/><path d="M49 25v6H35V17h6" fill="none" stroke="#729fcf" stroke-width="2" stroke-linecap="round" stroke-dashoffset="6.8"/><path d="M51.463 26.902a11 11 0 0 1-.19.024" fill="none" stroke="#0b1521" stroke-width="1.99990658" stroke-linecap="round" stroke-dashoffset="6.8"/><g stroke-width="4.701"><path d="M35.907 8.897V23H3v23.505h32.907v14.103l28.207-25.855z" fill="url(#p)" fill-rule="evenodd" stroke="#0b1521" stroke-linejoin="round" transform="scale(.42544) rotate(-45 33.675 29.711)"/><path d="M13.265 7.407l2.543 2.543-9.9 9.9 4.243 4.242 9.9-9.9 2.426 2.427.402-9.498z" fill="none" stroke="#729fcf" stroke-width="1.9999934399999997"/></g></svg>