<svg xmlns="http://www.w3.org/2000/svg" xmlns:xlink="http://www.w3.org/1999/xlink" width="64" height="64"><defs><radialGradient xlink:href="#a" id="f" gradientUnits="userSpaceOnUse" gradientTransform="matrix(-1.4091 3.86364 -.97565 -.35583 355.446 -815.808)" cx="225.938" cy="91.957" fx="225.938" fy="91.957" r="22"/><linearGradient id="a"><stop offset="0" stop-color="#fce94f"/><stop offset="1" stop-color="#c4a000"/></linearGradient><linearGradient xlink:href="#b" id="d" gradientUnits="userSpaceOnUse" gradientTransform="matrix(.79109 0 0 .78517 69.038 5.114)" x1="53.897" y1="51.18" x2="47.502" y2="21.837"/><linearGradient id="b"><stop offset="0" stop-color="#c4a000"/><stop offset="1" stop-color="#edd400"/></linearGradient><linearGradient xlink:href="#c" id="e" gradientUnits="userSpaceOnUse" gradientTransform="matrix(.82353 0 0 .77273 68.53 5.864)" x1="22.117" y1="55.718" x2="17.329" y2="21.311"/><linearGradient id="c"><stop offset="0" stop-color="#edd400"/><stop offset="1" stop-color="#fce94f"/></linearGradient></defs><g stroke-width="2"><path d="M13 27l28 5 18-7-23.85-3.422z" fill="#fce94f" stroke="#302b00" stroke-linejoin="round"/><path d="M117 17v28l-18 8V23z" fill="url(#d)" stroke="#302b00" stroke-linejoin="round" transform="translate(-58 8)"/><path style="marker:none" d="M71 19l28 4v30l-28-4.636z" fill="url(#e)" fill-rule="evenodd" stroke="#302b00" stroke-linejoin="round" overflow="visible" transform="translate(-58 8)"/><path d="M14.993 29.368L15 54.6l24 4-.007-25.843z" fill="none" stroke="#fce94f"/><path d="M43 32.5v25.6l14-6.4V27.9z" fill="none" stroke="#edd400"/></g><g stroke-width="4.23"><path d="M-50.551 4.656L-71.7 55.412c0 8 42.296 8 42.296 0z" fill="url(#f)" stroke="#302b00" stroke-linejoin="round" transform="translate(42.903 .798) scale(.47285)"/><path d="M19 8l-7.7 18.7c3.2 1.3 12.7 1.3 15.9 0z" fill="none" stroke="#fce94f" stroke-width="2.0001555"/></g><g fill="none" stroke-linecap="round"><path d="M18 17.327c.812-3.859 3.512-7.274 7.08-8.954 3.567-1.681 7.919-1.589 11.412.241 3.492 1.83 6.045 5.357 6.693 9.247.648 3.89-.623 8.053-3.334 10.917-1.753 1.853-4.009 3.134-6.174 4.483-2.166 1.348-4.33 2.843-5.746 4.966-.39.586-.716 1.223-.9 1.904-.184.68-.212 1.393-.212 2.098v4" stroke="#042a2a" stroke-width="8"/><path d="M18 17.603c.64-4.041 3.315-7.707 6.968-9.551 3.653-1.844 8.19-1.818 11.822.066 3.632 1.885 6.265 5.58 6.86 9.63.595 4.047-.863 8.345-3.799 11.195-1.828 1.775-4.127 2.967-6.307 4.288-2.18 1.32-4.336 2.864-5.613 5.07-.708 1.223-1.115 2.61-1.26 4.017-.12 1.169-.061 2.356.174 3.508" stroke="#16d0d2" stroke-width="4"/><path d="M17.515 16.246c.863-3.822 3.581-7.179 7.14-8.816 3.56-1.637 7.877-1.517 11.34.314 3.463 1.832 5.992 5.334 6.641 9.198.65 3.863-.595 8-3.27 10.862-1.747 1.872-4.004 3.17-6.171 4.533-2.168 1.363-4.334 2.87-5.748 5.006a9.842 9.842 0 0 0-1.542 4.048 9.615 9.615 0 0 0 .174 3.576" stroke="#34e0e2" stroke-width="2"/></g><path d="M31 57a4 4 0 1 1-8 0 4 4 0 1 1 8 0z" fill="#34e0e2" stroke="#042a2a" stroke-width="2.00035542" stroke-linecap="round" stroke-dashoffset="20.4"/></svg>