<svg xmlns="http://www.w3.org/2000/svg" xmlns:xlink="http://www.w3.org/1999/xlink" width="64" height="64"><defs><linearGradient id="b"><stop offset="0" stop-color="#68ff00"/><stop offset="1" stop-color="#078b00"/></linearGradient><linearGradient id="a"><stop offset="0" stop-color="#ababab"/><stop offset="1" stop-color="#fff"/></linearGradient><linearGradient xlink:href="#c" id="e" gradientUnits="userSpaceOnUse" gradientTransform="translate(-1.629 -3.343)" x1="52.737" y1="49.864" x2="18.244" y2="17.305"/><linearGradient id="c"><stop offset="0" stop-color="#d3d7cf"/><stop offset="1" stop-color="#fff"/></linearGradient><linearGradient xlink:href="#d" id="f" gradientUnits="userSpaceOnUse" gradientTransform="matrix(1.45 0 0 1.47059 -27.45 -15.059)" x1="39.264" y1="20.978" x2="36.454" y2="42.077"/><linearGradient id="d"><stop offset="0" stop-color="#ef2929"/><stop offset="1" stop-color="#a40000"/></linearGradient></defs><path style="marker:none" d="M35.69 4.88L4.806 15.778l27.249 38.148 21.8-7.266 3.632-12.716z" transform="matrix(1.10096 0 0 1.10096 -2.292 -2.372)" fill="url(#e)" stroke="#2e3436" stroke-width="1.817" stroke-linejoin="round" overflow="visible"/><path d="M6.157 15.965L36.278 5.348l22.548 30.035-3.209 11.991-21.791 7.322z" fill="none" stroke="#fff" stroke-width="2"/><path style="marker:none" d="M61 35l-8 6 4 8z" fill="#888a85" stroke="#2e3436" stroke-width="2" stroke-linejoin="round" overflow="visible"/><g stroke-width="3.748"><path d="M35.907 8.897V23H3v23.505h32.907v14.103l28.207-25.855z" fill="url(#f)" fill-rule="evenodd" stroke="#280000" stroke-linejoin="round" transform="matrix(-.49089 0 0 .58014 34.473 15.839)"/><path d="M39.668 17.515v8.619H7.074v17.237h32.594v8.619l18.334-17.237z" fill="none" stroke="#ef2929" transform="matrix(-.49089 0 0 .58014 34.473 15.839)"/></g></svg>