<svg xmlns="http://www.w3.org/2000/svg" xmlns:xlink="http://www.w3.org/1999/xlink" dsy:text-version="18000" width="64" height="64"><defs><linearGradient xlink:href="#a" id="g" gradientUnits="userSpaceOnUse" x1="-18" y1="18" x2="-22" y2="5" gradientTransform="matrix(.76342 0 0 .7575 -4.596 2.753)"/><linearGradient id="a"><stop offset="0" stop-color="#a40000"/><stop offset="1" stop-color="#ef2929"/></linearGradient><linearGradient xlink:href="#b" id="h" gradientUnits="userSpaceOnUse" x1="-18" y1="18" x2="-22" y2="5" gradientTransform="matrix(.76342 0 0 .7575 -4.596 2.753)"/><linearGradient id="b"><stop offset="0" stop-color="#a40000"/><stop offset="1" stop-color="#ef2929"/></linearGradient><linearGradient xlink:href="#c" id="e" gradientUnits="userSpaceOnUse" x1="-18" y1="18" x2="-22" y2="5" gradientTransform="matrix(.76342 0 0 .7575 -4.596 2.753)"/><linearGradient id="c"><stop offset="0" stop-color="#a40000"/><stop offset="1" stop-color="#ef2929"/></linearGradient><linearGradient xlink:href="#d" id="f" gradientUnits="userSpaceOnUse" x1="-18" y1="18" x2="-22" y2="5" gradientTransform="matrix(.76342 0 0 .7575 -4.596 2.753)"/><linearGradient id="d"><stop offset="0" stop-color="#a40000"/><stop offset="1" stop-color="#ef2929"/></linearGradient></defs><g fill="none" stroke="#0b1521" stroke-width="2.402" stroke-linecap="round" stroke-linejoin="round"><path d="M581.55 424.77l.536.078.572-.023.598-.119.461-.147.466-.191.618-.315.619-.378.627-.442.619-.491 1.193-1.097 1.133-1.222 1.021-1.262.947-1.325.863-1.366.765-1.385.71-1.514.321-.811.264-.785.17-.616.121-.581.081-.771-.008-.336-.042-.295-.078-.249-.112-.198-.218-.185-.28-.068" transform="matrix(-1.11579 -2.37639 2.00616 -1.3217 -146.271 2002.406)"/><path d="M593.517 408.676l-.203.018-.221.062-.486.249-.525.399-.413.388-.42.451-.838 1.056-.81 1.213-.763 1.325-.828 1.681-.725 1.76-.601 1.806-.259.958-.215.955-.15.849-.106.836-.053.699-.015.681.044.871.124.815.212.739.162.38.193.345.304.4.358.324.407.242.417.147" transform="matrix(-1.11579 -2.37639 2.00616 -1.3217 -146.271 2002.406)"/><path d="M588.107 428.325l.536.078.572-.024.598-.118.46-.147.467-.192.618-.314.619-.378.626-.442.62-.492 1.193-1.096 1.133-1.223 1.021-1.262.947-1.325.862-1.366.766-1.384.71-1.514.321-.811.264-.785.17-.617.121-.58.081-.771-.008-.336-.042-.295-.078-.25-.113-.198-.217-.184-.28-.068" transform="matrix(-1.11579 -2.37639 2.00616 -1.3217 -146.271 2002.406)"/><path d="M600.074 412.231l-.203.017-.221.062-.486.25-.525.399-.413.388-.42.451-.838 1.056-.81 1.213-.763 1.325-.828 1.681-.725 1.76-.601 1.805-.259.958-.215.955-.15.849-.106.837-.053.698-.015.681.044.872.124.814.212.74.162.38.193.345.304.4.358.324.407.241.416.147" transform="matrix(-1.11579 -2.37639 2.00616 -1.3217 -146.271 2002.406)"/><path d="M594.663 431.879l.537.078.572-.023.598-.119.46-.146.467-.192.618-.315.619-.378.626-.441.62-.492 1.192-1.097 1.133-1.222 1.022-1.262.947-1.325.862-1.366.766-1.385.71-1.513" transform="matrix(-1.11579 -2.37639 2.00616 -1.3217 -146.271 2002.406)"/></g><g fill="none" stroke="#729fcf" stroke-width=".801" stroke-linecap="round" stroke-linejoin="round"><path d="M581.55 424.77l.536.078.572-.023.598-.119.461-.147.466-.191.618-.315.619-.378.627-.442.619-.491 1.193-1.097 1.133-1.222 1.021-1.262.947-1.325.863-1.366.765-1.385.71-1.514.321-.811.264-.785.17-.616.121-.581.081-.771-.008-.336-.042-.295-.078-.249-.112-.198-.218-.185-.28-.068" transform="matrix(-1.11579 -2.37639 2.00616 -1.3217 -146.271 2002.406)"/><path d="M593.517 408.676l-.203.018-.221.062-.486.249-.525.399-.413.388-.42.451-.838 1.056-.81 1.213-.763 1.325-.828 1.681-.725 1.76-.601 1.806-.259.958-.215.955-.15.849-.106.836-.053.699-.015.681.044.871.124.815.212.739.162.38.193.345.304.4.358.324.407.242.417.147" transform="matrix(-1.11579 -2.37639 2.00616 -1.3217 -146.271 2002.406)"/><path d="M588.107 428.325l.536.078.572-.024.598-.118.46-.147.467-.192.618-.314.619-.378.626-.442.62-.492 1.193-1.096 1.133-1.223 1.021-1.262.947-1.325.862-1.366.766-1.384.71-1.514.321-.811.264-.785.17-.617.121-.58.081-.771-.008-.336-.042-.295-.078-.25-.113-.198-.217-.184-.28-.068" transform="matrix(-1.11579 -2.37639 2.00616 -1.3217 -146.271 2002.406)"/><path d="M600.074 412.231l-.203.017-.221.062-.486.25-.525.399-.413.388-.42.451-.838 1.056-.81 1.213-.763 1.325-.828 1.681-.725 1.76-.601 1.805-.259.958-.215.955-.15.849-.106.837-.053.698-.015.681.044.872.124.814.212.74.162.38.193.345.304.4.358.324.407.241.416.147" transform="matrix(-1.11579 -2.37639 2.00616 -1.3217 -146.271 2002.406)"/><path d="M594.663 431.879l.537.078.572-.023.598-.119.46-.146.467-.192.618-.315.619-.378.626-.441.62-.492 1.192-1.097 1.133-1.222 1.022-1.262.947-1.325.862-1.366.766-1.385.71-1.513" transform="matrix(-1.11579 -2.37639 2.00616 -1.3217 -146.271 2002.406)"/></g><path d="M44.436 32.418l4.736-2.201 1.383-.864" fill="none" stroke="#0b1521" stroke-width="6" stroke-linecap="round" stroke-linejoin="round"/><path d="M581.55 424.77l.536.078.572-.023.598-.119.461-.147.466-.191.618-.315.619-.378.627-.442.619-.491 1.193-1.097 1.133-1.222 1.021-1.262.947-1.325.863-1.366.765-1.385.71-1.514.321-.811.264-.785.17-.616.121-.581.081-.771-.008-.336-.042-.295-.078-.249-.112-.198-.218-.185-.28-.068" transform="matrix(-1.11579 -2.37639 2.00616 -1.3217 -146.271 2002.406)" fill="none" stroke="#0b1521" stroke-width="2.402" stroke-linecap="round" stroke-linejoin="round"/><g fill="none" stroke="#729fcf" stroke-width=".801" stroke-linecap="round" stroke-linejoin="round"><path d="M581.55 424.77l.536.078.572-.023.598-.119.461-.147.466-.191.618-.315.619-.378.627-.442.619-.491 1.193-1.097 1.133-1.222 1.021-1.262.947-1.325.863-1.366.765-1.385.71-1.514.321-.811.264-.785.17-.616.121-.581.081-.771-.008-.336-.042-.295-.078-.249-.112-.198-.218-.185-.28-.068" transform="matrix(-1.11579 -2.37639 2.00616 -1.3217 -146.271 2002.406)"/><path d="M593.517 408.676l-.203.018-.221.062-.486.249-.525.399-.413.388-.42.451-.838 1.056-.81 1.213-.763 1.325-.828 1.681-.725 1.76-.601 1.806-.259.958-.215.955-.15.849-.106.836-.053.699-.015.681.044.871.124.815.212.739.162.38.193.345.304.4.358.324.407.242.417.147M600.074 412.231l-.203.017-.221.062-.486.25-.525.399-.413.388-.42.451-.838 1.056-.81 1.213-.763 1.325-.828 1.681-.725 1.76-.601 1.805-.259.958-.215.955-.15.849-.106.837-.053.698-.015.681.044.872.124.814.212.74.162.38.193.345.304.4.358.324.407.241.416.147" transform="matrix(-1.11579 -2.37639 2.00616 -1.3217 -146.271 2002.406)"/></g><path d="M44.622 52.697l4.737-2.2 1.383-.865" fill="none" stroke="#0b1521" stroke-width="6" stroke-linecap="round" stroke-linejoin="round"/><path d="M11.362 51.832l.26.46.372.443 1.044.825 1.386.72 1.24.468 1.373.402 3.053.596 3.337.322 3.51.062 4.296-.254 4.34-.604 4.292-.957 2.21-.65 2.156-.752 1.87-.766 1.798-.854 1.46-.797 1.383-.864 1.7-1.257 1.495-1.37 1.248-1.483.581-.887.477-.915.463-1.25.25-1.28.03-1.285-.17-1.183" fill="none" stroke="#729fcf" stroke-width="2" stroke-linecap="round" stroke-linejoin="round"/><g fill="none" stroke-linecap="round"><path d="M30 5v53.806" stroke="#280000" stroke-width="6"/><path d="M30 5v54" stroke="#ef2929" stroke-width="2"/></g><g fill="none" stroke="#0b1521" stroke-width="2.402" stroke-linecap="round" stroke-linejoin="round"><path d="M588.838 413.837l-.828 1.681M596.968 414.854l-.81 1.213-.763 1.325-.828 1.681" transform="matrix(-1.11579 -2.37639 2.00616 -1.3217 -145.75 2002.53)"/></g><g fill="none" stroke="#729fcf" stroke-width=".801" stroke-linecap="round" stroke-linejoin="round"><path d="M590.411 411.299l-.81 1.213-.763 1.325-.828 1.681-.725 1.76M599.164 412.56l-.525.399-.413.388-.42.451-.838 1.056-.81 1.213-.763 1.325-.828 1.681-.725 1.76" transform="matrix(-1.11579 -2.37639 2.00616 -1.3217 -146.346 2002.338)"/></g><g fill="none"><path d="M44 8L30 18" stroke="#280000" stroke-width="6"/><path d="M44 8L30 18" stroke="#ef2929" stroke-width="2"/></g><g stroke-width="3.549"><path d="M-26.118 5.664a8.938 8.868 0 1 1 13.577 11.537A8.938 8.868 0 1 1-26.118 5.664z" fill="#ef2929" stroke="#280000" transform="matrix(.56138 0 0 .56577 40.87 11.512)"/><path d="M-23.402 7.974a5.344 5.303 0 1 1 8.118 6.899 5.344 5.303 0 0 1-8.118-6.899z" fill="url(#e)" stroke="#ef2929" transform="matrix(.56138 0 0 .56577 40.87 11.512)"/></g><g stroke-width="3.549"><path d="M-26.118 5.664a8.938 8.868 0 1 1 13.577 11.537A8.938 8.868 0 1 1-26.118 5.664z" fill="#ef2929" stroke="#280000" transform="matrix(.56138 0 0 .56577 54.87 1.512)"/><path d="M-23.402 7.974a5.344 5.303 0 1 1 8.118 6.899 5.344 5.303 0 0 1-8.118-6.899z" fill="url(#f)" stroke="#ef2929" transform="matrix(.56138 0 0 .56577 54.87 1.512)"/></g><g fill="none"><path d="M10 30v21" stroke="#280000" stroke-width="6"/><path d="M10 30v21" stroke="#ef2929" stroke-width="2"/></g><g stroke-width="3.549"><path d="M-26.118 5.664a8.938 8.868 0 1 1 13.577 11.537A8.938 8.868 0 1 1-26.118 5.664z" fill="#ef2929" stroke="#280000" transform="matrix(.56138 0 0 .56577 20.87 43.512)"/><path d="M-23.402 7.974a5.344 5.303 0 1 1 8.118 6.899 5.344 5.303 0 0 1-8.118-6.899z" fill="url(#g)" stroke="#ef2929" transform="matrix(.56138 0 0 .56577 20.87 43.512)"/></g><g stroke-width="3.549"><path d="M-26.118 5.664a8.938 8.868 0 1 1 13.577 11.537A8.938 8.868 0 1 1-26.118 5.664z" fill="#ef2929" stroke="#280000" transform="matrix(.56138 0 0 .56577 20.87 23.512)"/><path d="M-23.402 7.974a5.344 5.303 0 1 1 8.118 6.899 5.344 5.303 0 0 1-8.118-6.899z" fill="url(#h)" stroke="#ef2929" transform="matrix(.56138 0 0 .56577 20.87 23.512)"/></g></svg>