<svg xmlns="http://www.w3.org/2000/svg" xmlns:xlink="http://www.w3.org/1999/xlink" width="64" height="64"><defs><linearGradient id="e"><stop offset="0" stop-color="#faff2b"/><stop offset="1" stop-color="#fa0"/></linearGradient><linearGradient id="b"><stop offset="0" stop-color="#faff2b"/><stop offset="1" stop-color="#fa0"/></linearGradient><linearGradient id="a"><stop offset="0" stop-color="#faff2b"/><stop offset="1" stop-color="#fa0"/></linearGradient><linearGradient id="c"><stop offset="0" stop-color="#c8ff43"/><stop offset="1" stop-color="#04aa00"/></linearGradient><linearGradient id="d"><stop offset="0" stop-color="#71b2f8"/><stop offset="1" stop-color="#002795"/></linearGradient><linearGradient xlink:href="#f" id="l" gradientUnits="userSpaceOnUse" gradientTransform="matrix(.79109 0 0 .78517 69.038 5.114)" x1="53.897" y1="51.18" x2="47.502" y2="21.837"/><linearGradient id="f"><stop offset="0" stop-color="#c4a000"/><stop offset="1" stop-color="#edd400"/></linearGradient><linearGradient xlink:href="#g" id="m" gradientUnits="userSpaceOnUse" gradientTransform="matrix(.82353 0 0 .77273 68.53 5.864)" x1="22.117" y1="55.718" x2="17.329" y2="21.311"/><linearGradient id="g"><stop offset="0" stop-color="#edd400"/><stop offset="1" stop-color="#fce94f"/></linearGradient><linearGradient xlink:href="#h" id="n" gradientUnits="userSpaceOnUse" gradientTransform="matrix(1.45 0 0 1.47059 -27.45 -15.059)" x1="41.936" y1="30.47" x2="44.42" y2="38.748"/><linearGradient id="h"><stop offset="0" stop-color="#ef2929"/><stop offset="1" stop-color="#a40000"/></linearGradient><linearGradient id="i"><stop offset="0" stop-color="#ef2929"/><stop offset="1" stop-color="#a40000"/></linearGradient><linearGradient xlink:href="#j" id="o" gradientUnits="userSpaceOnUse" gradientTransform="matrix(1.45 0 0 1.47059 -27.45 -15.059)" x1="36.454" y1="32.7" x2="50.503" y2="36.216"/><linearGradient id="j"><stop offset="0" stop-color="#ef2929"/><stop offset="1" stop-color="#a40000"/></linearGradient><linearGradient xlink:href="#k" id="p" gradientUnits="userSpaceOnUse" gradientTransform="matrix(1.45 0 0 1.47059 -27.45 -15.059)" x1="43.805" y1="41.291" x2="41.835" y2="31.413"/><linearGradient id="k"><stop offset="0" stop-color="#ef2929"/><stop offset="1" stop-color="#a40000"/></linearGradient></defs><g stroke-linecap="round"><path d="M10 17v10M5 22h10" fill="none" stroke="#2e3436" stroke-width="6"/><path d="M14 22a4 4 0 1 1-8 0 4 4 0 0 1 8 0z" fill="#d3d7cf" stroke="#2e3436" stroke-width="2" stroke-dashoffset="20.4"/><path d="M10 17v10M5 22h10" fill="none" stroke="#d3d7cf" stroke-width="2"/></g><path d="M37 5h22" fill="none" stroke="#2e3436" stroke-width="6" stroke-linecap="round"/><path d="M37 5h22" fill="none" stroke="#d3d7cf" stroke-width="2" stroke-linecap="round"/><path fill="none" stroke="#2e3436" stroke-width="6" stroke-linecap="round" stroke-linejoin="round" stroke-dashoffset="20.4" d="M45 27h14v14H45z"/><path fill="none" stroke="#d3d7cf" stroke-width="2" stroke-linecap="round" stroke-linejoin="round" stroke-dashoffset="20.4" d="M45 27h14v14H45z"/><g stroke-width="2.88"><path d="M3 37.389L21 41l14-4-16.618-3.376z" fill="#fce94f" stroke="#302b00" stroke-linejoin="round" stroke-width="1.9999871999999999"/><path d="M117.08 18.44v25.92L96.92 53V24.2z" fill="url(#l)" stroke="#302b00" stroke-linejoin="round" transform="matrix(.69444 0 0 .69444 -46.306 24.194)"/><path style="marker:none" d="M71 19l25.92 5.2V53L71 48.364z" fill="url(#m)" fill-rule="evenodd" stroke="#302b00" stroke-linejoin="round" overflow="visible" transform="matrix(.69444 0 0 .69444 -46.306 24.194)"/><path d="M5 40v16l14 2.5V43z" fill="none" stroke="#fce94f" stroke-width="1.9999871999999999"/><path d="M23 43v15l10-4V39.6z" fill="none" stroke="#edd400" stroke-width="1.9999871999999999"/></g><g stroke-width="3.748"><path d="M35.594 22.687v6.894H23.37v13.79h12.223v6.895l16.297-13.79z" fill="url(#n)" fill-rule="evenodd" stroke="#280000" stroke-linejoin="round" transform="matrix(-.42512 .24544 .29007 .50242 49.551 22.866)"/><path d="M39.668 31.305v1.724H27.445v6.895h12.223v1.723l6.112-5.17z" fill="none" stroke="#ef2929" transform="matrix(-.42512 .24544 .29007 .50242 49.551 22.866)"/></g><g stroke-width="3.748"><path d="M35.594 22.687v6.894H23.37v13.79h12.223v6.895l16.297-13.79z" fill="url(#o)" fill-rule="evenodd" stroke="#280000" stroke-linejoin="round" transform="matrix(0 .49089 .58014 0 29.839 -2.473)"/><path d="M39.668 31.305v1.724H27.445v6.895h12.223v1.723l6.112-5.17z" fill="none" stroke="#ef2929" transform="matrix(0 .49089 .58014 0 29.839 -2.473)"/></g><g stroke-width="3.748"><path d="M35.594 22.687v6.894H23.37v13.79h12.223v6.895l16.297-13.79z" fill="url(#p)" fill-rule="evenodd" stroke="#280000" stroke-linejoin="round" transform="matrix(.42512 -.24544 -.29007 -.50242 19.913 39.795)"/><path d="M39.668 31.305v1.724H27.445v6.895h12.223v1.723l6.112-5.17z" fill="none" stroke="#ef2929" transform="matrix(.42512 -.24544 -.29007 -.50242 19.913 39.795)"/></g></svg>