<svg xmlns="http://www.w3.org/2000/svg" xmlns:xlink="http://www.w3.org/1999/xlink" width="64" height="64"><defs><linearGradient id="e"><stop offset="0" stop-color="#faff2b"/><stop offset="1" stop-color="#fa0"/></linearGradient><linearGradient id="b"><stop offset="0" stop-color="#faff2b"/><stop offset="1" stop-color="#fa0"/></linearGradient><linearGradient id="a"><stop offset="0" stop-color="#faff2b"/><stop offset="1" stop-color="#fa0"/></linearGradient><linearGradient id="c"><stop offset="0" stop-color="#c8ff43"/><stop offset="1" stop-color="#04aa00"/></linearGradient><linearGradient id="d"><stop offset="0" stop-color="#71b2f8"/><stop offset="1" stop-color="#002795"/></linearGradient><linearGradient id="f"><stop offset="0" stop-color="#fce94f"/><stop offset="1" stop-color="#c4a000"/></linearGradient><linearGradient id="g"><stop offset="0" stop-color="#edd400"/><stop offset="1" stop-color="#fce94f"/></linearGradient><linearGradient id="h"><stop offset="0" stop-color="#c4a000"/><stop offset="1" stop-color="#edd400"/></linearGradient><radialGradient xlink:href="#i" id="l" gradientUnits="userSpaceOnUse" gradientTransform="matrix(-1.4091 3.86364 -.97565 -.35583 355.446 -815.808)" cx="225.938" cy="91.957" fx="225.938" fy="91.957" r="22"/><linearGradient id="i"><stop offset="0" stop-color="#fce94f"/><stop offset="1" stop-color="#c4a000"/></linearGradient><linearGradient xlink:href="#h" id="j" gradientUnits="userSpaceOnUse" gradientTransform="matrix(.79109 0 0 .78517 69.038 5.114)" x1="53.897" y1="51.18" x2="47.502" y2="21.837"/><linearGradient xlink:href="#g" id="k" gradientUnits="userSpaceOnUse" gradientTransform="matrix(.82353 0 0 .77273 68.53 5.864)" x1="22.117" y1="55.718" x2="17.329" y2="21.311"/></defs><g stroke-width="2"><path d="M9 27l28 5 18-7-23.85-3.422z" fill="#fce94f" stroke="#302b00" stroke-linejoin="round"/><path d="M117 17v28l-18 8V23z" fill="url(#j)" stroke="#302b00" stroke-linejoin="round" transform="translate(-62 8)"/><path style="marker:none" d="M71 19l28 4v30l-28-4.636z" fill="url(#k)" fill-rule="evenodd" stroke="#302b00" stroke-linejoin="round" overflow="visible" transform="translate(-62 8)"/><path d="M10.993 29.368L11 54.6l24 4-.007-25.843z" fill="none" stroke="#fce94f"/><path d="M39 32.5v25.6l14-6.4V27.9z" fill="none" stroke="#edd400"/></g><g stroke-width="4.23"><path d="M-50.551 4.656L-71.7 55.412c0 8 42.296 8 42.296 0z" fill="url(#l)" stroke="#302b00" stroke-linejoin="round" transform="translate(38.903 .798) scale(.47285)"/><path d="M15 8L7.3 26.7c3.2 1.3 12.7 1.3 15.9 0z" fill="none" stroke="#fce94f" stroke-width="2.0001555"/></g><g fill="none" stroke-linecap="round"><path transform="matrix(1.46815 0 0 1.47314 -116.31 -58.918)" d="M92 72c0-.802 1.081-.396 1.333 0 .683 1.073-.3 2.338-1.333 2.667-1.848.588-3.626-.905-4-2.667-.549-2.586 1.512-4.937 4-5.333 3.316-.528 6.257 2.119 6.667 5.333.515 4.045-2.727 7.582-6.667 8-4.772.506-8.909-3.333-9.333-8-.478-5.257 3.578-9.884 8.712-10.599" stroke="#2e3436" stroke-width="4.08"/><path transform="matrix(1.46815 0 0 1.47314 -116.31 -58.918)" d="M92 72c0-.802 1.081-.396 1.333 0 .683 1.073-.3 2.338-1.333 2.667-1.848.588-3.626-.905-4-2.667-.549-2.586 1.512-4.937 4-5.333 3.316-.528 6.257 2.119 6.667 5.333.515 4.045-2.727 7.582-6.667 8-4.772.506-8.909-3.333-9.333-8-.478-5.257 3.578-9.884 8.712-10.599" stroke="#d3d7cf" stroke-width="1.36"/></g><path d="M27 15h30" fill="none" stroke="#2e3436" stroke-width="6" stroke-linecap="round"/><path d="M27 15h30" fill="none" stroke="#d3d7cf" stroke-width="2" stroke-linecap="round"/><path d="M59 47a12 12 0 1 1-24 0 12 12 0 1 1 24 0z" fill="none" stroke="#2e3436" stroke-width="6" stroke-linecap="round" stroke-linejoin="round" stroke-miterlimit="4.5" stroke-dashoffset="20.4"/><path d="M59 47a12 12 0 1 1-24 0 12 12 0 1 1 24 0z" fill="none" stroke="#d3d7cf" stroke-width="2" stroke-linecap="round" stroke-linejoin="round" stroke-miterlimit="4.5" stroke-dashoffset="20.4"/></svg>