<svg xmlns="http://www.w3.org/2000/svg" xmlns:xlink="http://www.w3.org/1999/xlink" width="64" height="64"><defs><linearGradient id="c"><stop offset="0" stop-color="#71b2f8"/><stop offset="1" stop-color="#002795"/></linearGradient><linearGradient id="a"><stop offset="0" stop-color="#4bff54"/><stop offset="1" stop-color="#00b800"/></linearGradient><linearGradient id="b"><stop offset="0" stop-color="#faff2b"/><stop offset="1" stop-color="#fa0"/></linearGradient><linearGradient xlink:href="#d" id="g" gradientUnits="userSpaceOnUse" x1="-18" y1="18" x2="-22" y2="5" gradientTransform="matrix(.76342 0 0 .7575 -4.596 2.753)"/><linearGradient id="d"><stop offset="0" stop-color="#a40000"/><stop offset="1" stop-color="#ef2929"/></linearGradient><linearGradient xlink:href="#e" id="f" gradientUnits="userSpaceOnUse" x1="-18" y1="18" x2="-22" y2="5" gradientTransform="matrix(.76342 0 0 .7575 -4.596 2.753)"/><linearGradient id="e"><stop offset="0" stop-color="#a40000"/><stop offset="1" stop-color="#ef2929"/></linearGradient></defs><path d="M64.703 33.567a31.48 31.48 0 1 1-62.959 0 31.48 31.48 0 1 1 62.959 0z" transform="matrix(.8577 0 0 .8577 3.504 3.21)" fill="none" stroke="#204a87" stroke-width="6.995" stroke-linecap="round" stroke-linejoin="round" stroke-miterlimit="4.5" stroke-dashoffset="20.4"/><path d="M64.703 33.567a31.48 31.48 0 1 1-62.959 0 31.48 31.48 0 1 1 62.959 0z" transform="matrix(.8577 0 0 .8577 3.504 3.21)" fill="none" stroke="#729fcf" stroke-width="2.332" stroke-linecap="round" stroke-linejoin="round" stroke-miterlimit="4.5" stroke-dashoffset="20.4"/><g fill="none"><path d="M32 32l18-20" stroke="#280000" stroke-width="6"/><path d="M32 32l18-20" stroke="#ef2929" stroke-width="2"/></g><g stroke-width="3.549"><path d="M-26.118 5.664a8.938 8.868 0 1 1 13.577 11.537A8.938 8.868 0 1 1-26.118 5.664z" fill="#ef2929" stroke="#280000" transform="matrix(.56138 0 0 .56577 42.832 25.512)"/><path d="M-23.402 7.974a5.344 5.303 0 1 1 8.118 6.899 5.344 5.303 0 0 1-8.118-6.899z" fill="url(#f)" stroke="#ef2929" transform="matrix(.56138 0 0 .56577 42.832 25.512)"/></g><g stroke-width="3.549"><path d="M-26.118 5.664a8.938 8.868 0 1 1 13.577 11.537A8.938 8.868 0 1 1-26.118 5.664z" fill="#ef2929" stroke="#280000" transform="matrix(.56138 0 0 .56577 60.832 5.512)"/><path d="M-23.402 7.974a5.344 5.303 0 1 1 8.118 6.899 5.344 5.303 0 0 1-8.118-6.899z" fill="url(#g)" stroke="#ef2929" transform="matrix(.56138 0 0 .56577 60.832 5.512)"/></g></svg>