<svg xmlns="http://www.w3.org/2000/svg" xmlns:xlink="http://www.w3.org/1999/xlink" width="64" height="64"><defs><linearGradient id="d"><stop offset="0" stop-color="#3465a4"/><stop offset="1" stop-color="#204a87"/></linearGradient><linearGradient id="a"><stop offset="0" stop-color="#71b2f8"/><stop offset="1" stop-color="#002795"/></linearGradient><linearGradient id="b"><stop offset="0" stop-color="#c8e0f9"/><stop offset="1" stop-color="#637dca"/></linearGradient><linearGradient id="c"><stop offset="0" stop-color="#71b2f8"/><stop offset="1" stop-color="#002795"/></linearGradient><linearGradient xlink:href="#d" id="g" x1="-28" y1="22" x2="-26" y2="39" gradientUnits="userSpaceOnUse" gradientTransform="translate(64 8)"/><linearGradient id="e"><stop offset="0" stop-color="#3465a4"/><stop offset="1" stop-color="#204a87"/></linearGradient><linearGradient xlink:href="#e" id="f" gradientUnits="userSpaceOnUse" gradientTransform="translate(-16 22)" x1="-28" y1="22" x2="-26" y2="39"/></defs><g stroke-width="2"><path d="M37 15l4 36-32-4V31z" fill="#204a87" stroke="#0b1521" stroke-linejoin="round"/><path d="M-27 34.4v32.3l-28-3.5v-13z" fill="url(#f)" stroke="#3465a4" transform="translate(66 -18)"/></g><path d="M25 11L9 31l14 4 32-18z" fill="#729fcf" stroke="#0b1521" stroke-width="2" stroke-linejoin="round"/><path d="M55 17v38l-32-4V35z" fill="#204a87" stroke="#0b1521" stroke-width="2" stroke-linejoin="round"/><path d="M53 20.4v32.3l-28-3.5v-13z" fill="url(#g)" stroke="#3465a4" stroke-width="2"/><path d="M9 31v16l14 4V35z" fill="none" stroke="#a40000" stroke-width="6" stroke-linejoin="round"/><path d="M9 31v16l14 4V35z" fill="none" stroke="#ef2929" stroke-width="2" stroke-linejoin="round"/><path d="M25 11l30 6v38" fill="none" stroke="#a40000" stroke-width="6" stroke-linecap="round" stroke-linejoin="round"/><path d="M25 11l30 6v38" fill="none" stroke="#ef2929" stroke-width="2" stroke-linecap="round" stroke-linejoin="round"/></svg>