<svg xmlns="http://www.w3.org/2000/svg" xmlns:xlink="http://www.w3.org/1999/xlink" width="64" height="64"><defs><linearGradient id="c"><stop offset="0"/><stop offset="1" stop-opacity="0"/></linearGradient><linearGradient gradientTransform="translate(0 -4)" xlink:href="#a" id="f" x1="22.117" y1="55.718" x2="17.329" y2="21.311" gradientUnits="userSpaceOnUse"/><linearGradient id="a"><stop offset="0" stop-color="#3465a4"/><stop offset="1" stop-color="#729fcf"/></linearGradient><linearGradient gradientTransform="translate(0 -4)" xlink:href="#b" id="e" x1="53.897" y1="51.18" x2="47.502" y2="21.837" gradientUnits="userSpaceOnUse"/><linearGradient id="b"><stop offset="0" stop-color="#204a87"/><stop offset="1" stop-color="#3465a4"/></linearGradient><radialGradient xlink:href="#c" id="d" cx="1" cy="45" fx="1" fy="45" r="41" gradientTransform="matrix(.93348 0 0 .28688 .067 32.09)" gradientUnits="userSpaceOnUse"/><filter id="g" x="-.046" width="1.092" y="-.05" height="1.101" color-interpolation-filters="sRGB"><feGaussianBlur stdDeviation=".909"/></filter></defs><g opacity=".7"><ellipse transform="matrix(.7317 0 0 .8077 31.268 15.154)" cx="1" cy="45" rx="41" ry="13" fill="url(#d)"/><path d="M3 13l34 6 24-8-30-4z" fill="#729fcf" stroke="#0b1521" stroke-width="2" stroke-linejoin="round"/><path d="M61 11v36L37 57V19z" fill="url(#e)" stroke="#0b1521" stroke-width="2" stroke-linejoin="round"/><path d="M3 13l34 6v38L3 51z" style="marker:none" overflow="visible" fill="url(#f)" fill-rule="evenodd" stroke="#0b1521" stroke-width="2" stroke-linejoin="round" enable-background="accumulate"/><path d="M5 15.428l.009 33.919 30.008 5.269-.008-33.934z" fill="none" stroke="#729fcf" stroke-width="2"/><path d="M39.012 20.434L39 53.969l20.001-8.3V13.8z" fill="none" stroke="#3465a4" stroke-width="2"/></g><path d="M33.938 54.969L37.75 60.1C63.687 48.51 57.913 11.464 22.282 26.59l.434-9.88L6.274 33.016l22.365 8.414-4.17-7.998c25.262-12.442 31.689 9.192 9.47 21.536z" fill="none" stroke="#fff" stroke-width="4.913" stroke-linejoin="round" opacity=".8" filter="url(#g)"/><path d="M33.938 54.969L37.75 60.1C63.687 48.51 57.913 11.464 22.282 26.59l.434-9.88L6.274 33.016l22.365 8.414-4.17-7.998c25.262-12.442 31.689 9.192 9.47 21.536z" fill="red"/><path d="M33.938 54.969L37.75 60.1C63.687 48.51 57.913 11.464 22.282 26.59l.434-9.88L6.274 33.016l22.365 8.414-4.17-7.998c25.262-12.442 31.689 9.192 9.47 21.536z" fill="none" stroke="#000" stroke-width="1.89" stroke-linejoin="round"/></svg>