<svg xmlns="http://www.w3.org/2000/svg" xmlns:xlink="http://www.w3.org/1999/xlink" width="64" height="64"><defs><linearGradient id="a"><stop offset="0" stop-color="#71b2f8"/><stop offset="1" stop-color="#002795"/></linearGradient><linearGradient id="b"><stop offset="0" stop-color="#f87c71"/><stop offset="1" stop-color="red"/></linearGradient><linearGradient id="c"><stop offset="0" stop-color="#a40000"/><stop offset="1" stop-color="#ef2929"/></linearGradient><linearGradient gradientTransform="translate(0 -4)" xlink:href="#d" id="f" x1="53.897" y1="51.18" x2="47.502" y2="21.837" gradientUnits="userSpaceOnUse"/><linearGradient id="d"><stop offset="0" stop-color="#204a87"/><stop offset="1" stop-color="#3465a4"/></linearGradient><linearGradient gradientTransform="translate(0 -4)" xlink:href="#e" id="g" x1="22.117" y1="55.718" x2="17.329" y2="21.311" gradientUnits="userSpaceOnUse"/><linearGradient id="e"><stop offset="0" stop-color="#3465a4"/><stop offset="1" stop-color="#729fcf"/></linearGradient></defs><g stroke-width="2.515"><path d="M9.144 17.804l27.042 4.773 19.09-6.363-23.862-3.182z" fill="#729fcf" stroke="#0b1521" stroke-linejoin="round" stroke-width="2.00035555"/><path d="M61 11v36L37 57V19z" fill="url(#f)" stroke="#0b1521" stroke-linejoin="round" transform="matrix(.79537 0 0 .79537 6.757 7.464)"/><path style="marker:none" d="M3 13l34 6v38L3 51z" fill="url(#g)" fill-rule="evenodd" stroke="#0b1521" stroke-linejoin="round" overflow="visible" transform="matrix(.79537 0 0 .79537 6.757 7.464)"/><path d="M10.734 19.735l.007 26.979 23.868 4.19-.007-26.99z" fill="none" stroke="#729fcf" stroke-width="2.00035555"/><path d="M37.787 23.717l-.01 26.673 15.909-6.602V18.44z" fill="none" stroke="#3465a4" stroke-width="2.00035555"/></g><g transform="matrix(1.49225 0 0 1.75105 -2.61 -33.76)" stroke-width="2"><g id="h" fill="none" stroke-linecap="round" stroke-linejoin="round"><path d="M10.351 24.494H4.653V50.42h5.698" stroke="#fff" stroke-width="4.33" stroke-opacity=".857"/><path d="M10.351 24.494H4.653V50.42h5.698" stroke="#000" stroke-width="1.237"/></g><use xlink:href="#h" transform="matrix(-1 0 0 1 46.557 0)" width="64" height="64"/></g></svg>