<svg xmlns="http://www.w3.org/2000/svg" xmlns:xlink="http://www.w3.org/1999/xlink" width="64" height="64"><defs><linearGradient id="b"><stop offset="0" stop-color="#729fcf"/><stop offset="1" stop-color="#3465a4"/></linearGradient><linearGradient id="a"><stop offset="0" stop-color="#71b2f8"/><stop offset="1" stop-color="#002795"/></linearGradient><linearGradient xlink:href="#b" id="c" x1="22" y1="25" x2="18" y2="38" gradientUnits="userSpaceOnUse" spreadMethod="reflect"/></defs><g stroke-width="2"><path d="M3 37l28 10v12L3 49z" style="marker:none" fill="#3465a4" fill-rule="evenodd" stroke="#204a87" stroke-linejoin="round" overflow="visible"/><path d="M5 39.8l24 8.6v7.8L5 47.6z" style="marker:none" fill="none" stroke="#729fcf" overflow="visible"/><g fill="#729fcf" fill-rule="evenodd" stroke-linejoin="round"><path d="M35 5l26 10-10.145 3.949L23 9z" style="marker:none" stroke="#204a87" overflow="visible"/><path d="M51 19c-16 1-20 14-20 28L3 37c0-8 6-26 20-28z" style="marker:none" stroke="#0b1521" overflow="visible"/></g><path d="M43.8 18.5C37.8 18.2 29 30 29 44L5 35.6C7 22 14 12 23 11z" style="marker:none" fill="url(#c)" stroke="#729fcf" overflow="visible"/></g></svg>