<svg xmlns="http://www.w3.org/2000/svg" xmlns:xlink="http://www.w3.org/1999/xlink" width="64" height="64"><defs><linearGradient id="a"><stop offset="0" stop-color="#fff"/><stop offset="1" stop-color="#fff" stop-opacity="0"/></linearGradient><linearGradient id="b"><stop offset="0" stop-color="#fff"/><stop offset="1" stop-color="#fff" stop-opacity="0"/></linearGradient><linearGradient id="c"><stop offset="0" stop-color="#a40000"/><stop offset="1" stop-color="#ef2929"/></linearGradient><linearGradient xlink:href="#d" id="h" gradientUnits="userSpaceOnUse" x1="-18" y1="18" x2="-22" y2="5" gradientTransform="matrix(.76342 0 0 .7575 -4.596 2.753)"/><linearGradient id="d"><stop offset="0" stop-color="#a40000"/><stop offset="1" stop-color="#ef2929"/></linearGradient><linearGradient xlink:href="#e" id="i" gradientUnits="userSpaceOnUse" x1="-18" y1="18" x2="-22" y2="5" gradientTransform="matrix(.76342 0 0 .7575 -4.596 2.753)"/><linearGradient id="e"><stop offset="0" stop-color="#a40000"/><stop offset="1" stop-color="#ef2929"/></linearGradient><linearGradient xlink:href="#f" id="j" gradientUnits="userSpaceOnUse" x1="-18" y1="18" x2="-22" y2="5" gradientTransform="matrix(.76342 0 0 .7575 -4.596 2.753)"/><linearGradient id="f"><stop offset="0" stop-color="#a40000"/><stop offset="1" stop-color="#ef2929"/></linearGradient><linearGradient xlink:href="#g" id="k" gradientUnits="userSpaceOnUse" x1="-18" y1="18" x2="-22" y2="5" gradientTransform="matrix(.76342 0 0 .7575 -4.596 2.753)"/><linearGradient id="g"><stop offset="0" stop-color="#a40000"/><stop offset="1" stop-color="#ef2929"/></linearGradient></defs><path d="M61 61l-79.23 21.23-58-58L-55-55l79.23-21.23 58 58z" transform="matrix(.32613 -.07958 .08663 .30684 28.762 31.318)" fill="none" stroke="#0b1521" stroke-width="24.461" stroke-linecap="round" stroke-linejoin="round" stroke-miterlimit="1.9"/><path d="M61 61l-79.23 21.23-58-58L-55-55l79.23-21.23 58 58z" transform="matrix(.32613 -.07958 .08663 .30684 28.762 31.318)" fill="none" stroke="#3465a4" stroke-width="12.23" stroke-linecap="round" stroke-linejoin="round" stroke-miterlimit="1.9"/><path transform="matrix(.33972 -.08264 .09024 .31864 28.71 31.292)" d="M-76.23 24.23L-55-55l79.23-21.23 58 58" fill="none" stroke="#729fcf" stroke-width="5.88" stroke-linecap="round" stroke-linejoin="round" stroke-miterlimit="1.9"/><path transform="matrix(.31254 -.07652 .08302 .29504 28.813 31.344)" d="M82.23-18.23L61 61l-79.23 21.23-58-58" fill="none" stroke="#729fcf" stroke-width="6.37" stroke-linecap="round" stroke-linejoin="round" stroke-miterlimit="1.9"/><g fill="none"><path d="M54 18L30 32" stroke="#280000" stroke-width="8"/><path d="M54 18L30 32" stroke="#c00" stroke-width="4"/><path d="M52.809 17.566l-24 14" stroke="#ef2929" stroke-width="2"/></g><g stroke-width="3.549"><path d="M-26.118 5.664a8.938 8.868 0 1 1 13.577 11.537A8.938 8.868 0 1 1-26.118 5.664z" fill="#ef2929" stroke="#280000" transform="matrix(.56138 0 0 .56577 64.832 11.512)"/><path d="M-23.402 7.974a5.344 5.303 0 1 1 8.118 6.899 5.344 5.303 0 0 1-8.118-6.899z" fill="url(#h)" stroke="#ef2929" transform="matrix(.56138 0 0 .56577 64.832 11.512)"/></g><g stroke-width="3.549"><path d="M-26.118 5.664a8.938 8.868 0 1 1 13.577 11.537A8.938 8.868 0 1 1-26.118 5.664z" fill="#ef2929" stroke="#280000" transform="matrix(.56138 0 0 .56577 40.832 25.512)"/><path d="M-23.402 7.974a5.344 5.303 0 1 1 8.118 6.899 5.344 5.303 0 0 1-8.118-6.899z" fill="url(#i)" stroke="#ef2929" transform="matrix(.56138 0 0 .56577 40.832 25.512)"/></g><g fill="none"><path d="M30 58L8 46" stroke="#280000" stroke-width="8"/><path d="M30 58L8 46" stroke="#c00" stroke-width="4"/><path d="M30.27 57l-22-12" stroke="#ef2929" stroke-width="2"/></g><g stroke-width="3.549"><path d="M-26.118 5.664a8.938 8.868 0 1 1 13.577 11.537A8.938 8.868 0 1 1-26.118 5.664z" fill="#ef2929" stroke="#280000" transform="matrix(.56138 0 0 .56577 40.87 49.551)"/><path d="M-23.402 7.974a5.344 5.303 0 1 1 8.118 6.899 5.344 5.303 0 0 1-8.118-6.899z" fill="url(#j)" stroke="#ef2929" transform="matrix(.56138 0 0 .56577 40.87 49.551)"/></g><g stroke-width="3.549"><path d="M-26.118 5.664a8.938 8.868 0 1 1 13.577 11.537A8.938 8.868 0 1 1-26.118 5.664z" fill="#ef2929" stroke="#280000" transform="matrix(.56138 0 0 .56577 18.87 37.551)"/><path d="M-23.402 7.974a5.344 5.303 0 1 1 8.118 6.899 5.344 5.303 0 0 1-8.118-6.899z" fill="url(#k)" stroke="#ef2929" transform="matrix(.56138 0 0 .56577 18.87 37.551)"/></g></svg>