<svg xmlns="http://www.w3.org/2000/svg" xmlns:xlink="http://www.w3.org/1999/xlink" width="64" height="64"><defs><linearGradient id="a"><stop offset="0" stop-color="#0619c0"/><stop offset="1" stop-color="#379cfb"/></linearGradient><linearGradient xlink:href="#b" id="e" x1="29" y1="4" x2="44" y2="56" gradientUnits="userSpaceOnUse" gradientTransform="matrix(.35073 0 0 .35073 18.762 21.142)"/><linearGradient id="b"><stop offset="0" stop-color="#729fcf"/><stop offset="1" stop-color="#204a87"/></linearGradient><linearGradient xlink:href="#c" id="d" x1="29" y1="4" x2="44" y2="56" gradientUnits="userSpaceOnUse" gradientTransform="translate(1)"/><linearGradient id="c"><stop offset="0" stop-color="#729fcf"/><stop offset="1" stop-color="#204a87"/></linearGradient></defs><g fill="none" stroke-linecap="round" stroke-linejoin="round"><path d="M8 19L19 8h35v26c0 9-8 22-24 22" stroke="#0b1521" stroke-width="8"/><path d="M8 19L19 8h35v26c0 9-8 22-24 22" stroke="url(#d)" stroke-width="4"/><path d="M7.031 18.594L18.688 6.937 54.353 7M53 11v22c0 9-7 22-23 22" stroke="#729fcf" stroke-width="2"/><path d="M21 28l4.075-4.052L38 24v9c0 3.157-3.388 8-9 8" stroke="#0b1521" stroke-width="8"/><path d="M21 28l4.075-4.052L38 24v9.119C38 36.275 34.612 41 29 41" stroke="url(#e)" stroke-width="4"/><path d="M20.159 27.447L25 23h13m-1 4.097V32c0 4-3 8-8 8" stroke="#729fcf" stroke-width="2"/></g></svg>