<svg xmlns="http://www.w3.org/2000/svg" xmlns:xlink="http://www.w3.org/1999/xlink" width="64" height="64"><defs><linearGradient id="o"><stop offset="0" stop-color="#3465a4"/><stop offset="1" stop-color="#729fcf"/></linearGradient><linearGradient id="p"><stop offset="0" stop-color="#a40000"/><stop offset="1" stop-color="#ef2929"/></linearGradient><linearGradient id="q"><stop offset="0" stop-color="#a40000"/><stop offset="1" stop-color="#ef2929"/></linearGradient><linearGradient id="r"><stop offset="0" stop-color="#a40000"/><stop offset="1" stop-color="#ef2929"/></linearGradient><linearGradient id="h"><stop offset="0" stop-color="#ef2929"/><stop offset="1" stop-color="#a40000"/></linearGradient><linearGradient id="f"><stop offset="0" stop-color="#babdb6"/><stop offset="1" stop-color="#d3d7cf"/></linearGradient><linearGradient id="e"><stop offset="0" stop-color="#babdb6"/><stop offset="1" stop-color="#555753"/></linearGradient><linearGradient id="a"><stop offset="0"/><stop offset="1" stop-color="#f6f6f6" stop-opacity="0"/></linearGradient><linearGradient id="c"><stop offset="0" stop-color="#e3d328"/><stop offset="1" stop-color="#e1dec3"/></linearGradient><linearGradient id="d"><stop offset="0" stop-color="#ada9a9"/><stop offset="1" stop-color="#ada9a9" stop-opacity="0"/></linearGradient><linearGradient id="b"><stop offset="0" stop-color="#ada9a9"/><stop offset="1" stop-color="#ada9a9" stop-opacity="0"/></linearGradient><linearGradient xlink:href="#e" id="t" x1="214.709" y1="80.887" x2="218.709" y2="104.887" gradientUnits="userSpaceOnUse" gradientTransform="translate(80)"/><linearGradient xlink:href="#f" id="s" x1="196.709" y1="106.887" x2="190.709" y2="80.887" gradientUnits="userSpaceOnUse" gradientTransform="translate(80)"/><linearGradient id="g"><stop offset="0" stop-color="#babdb6"/><stop offset="1" stop-color="#555753"/></linearGradient><linearGradient id="i"><stop offset="0" stop-color="#c4a000"/><stop offset="1" stop-color="#fce94f"/></linearGradient><linearGradient id="j"><stop offset="0" stop-color="#c4a000"/><stop offset="1" stop-color="#fce94f"/></linearGradient><linearGradient id="k"><stop offset="0" stop-color="#c4a000"/><stop offset="1" stop-color="#fce94f"/></linearGradient><linearGradient id="l"><stop offset="0" stop-color="#c4a000"/><stop offset="1" stop-color="#fce94f"/></linearGradient><linearGradient id="m"><stop offset="0" stop-color="#d3d7cf"/><stop offset="1" stop-color="#fff"/></linearGradient><linearGradient id="n"><stop offset="0" stop-color="#c4a000"/><stop offset="1" stop-color="#fce94f"/></linearGradient><linearGradient xlink:href="#o" id="u" gradientUnits="userSpaceOnUse" gradientTransform="rotate(-15.815 94.319 -165.395)" x1="34.094" y1="49.73" x2="33.892" y2="16.104"/><linearGradient xlink:href="#p" id="v" gradientUnits="userSpaceOnUse" gradientTransform="translate(196.71 48.887)" x1="9.918" y1="44.675" x2="33.111" y2="9.423"/><linearGradient xlink:href="#q" id="w" gradientUnits="userSpaceOnUse" gradientTransform="translate(196.71 48.887)" x1="9.918" y1="44.675" x2="33.624" y2="11.487"/><linearGradient xlink:href="#r" id="x" gradientUnits="userSpaceOnUse" gradientTransform="translate(196.71 48.887)" x1="9.918" y1="44.675" x2="33.624" y2="11.487"/></defs><path d="M29 11L3 7c0 11 0 26 2 36l30 12v-6l-2-4c8-12 0-24-4-34z" fill="#babdb6" stroke="#2e3436" stroke-width="2" stroke-linejoin="round"/><path d="M35 55l12-4v-6l-12 4z" fill="#555753" stroke="#2e3436" stroke-width="2" stroke-linejoin="round"/><path d="M45 41l-12 4 2 4 12-4z" fill="#d3d7cf" stroke="#2e3436" stroke-width="2" stroke-linejoin="round"/><path d="M29 11c4 10 12 22 4 34l12-4c8-12 0-24-4-34z" fill="#888a85" stroke="#2e3436" stroke-width="2" stroke-linejoin="round"/><path d="M3 7l12-4 26 4-12 4z" fill="#d3d7cf" stroke="#2e3436" stroke-width="2" stroke-linejoin="round"/><path d="M284.31 79.787l-22.6-3.9c0 10.043-.013 23.47 1.8 32.6l26.2 10.4v-2.5l-2.2-4.5c8-12 1.2-22-3.2-32.1z" fill="url(#s)" stroke="#d3d7cf" stroke-width="2" transform="translate(-256.71 -66.887)"/><path d="M288.31 79.087c4 10 9.4 18.3 5.4 29.3l6.6-2.2c6-9 1.4-19.3-3.8-29.9z" fill="url(#t)" stroke="#babdb6" stroke-width="2" transform="translate(-256.71 -66.887)"/><path d="M-78 39c0 8.284-6.716 15-15 15-8.284 0-15-6.716-15-15 0-8.284 6.716-15 15-15 8.284 0 15 6.716 15 15z" transform="matrix(.8 .19608 0 .9804 93.4 8)" fill="#555753" stroke="#2e3436" stroke-width="2.258" stroke-linecap="round" stroke-dashoffset="1.6"/><path d="M31 30.941L7 25.06s-.822-14.095 12-11.765c11.123 2.022 12 17.647 12 17.647z" fill="#edd400" stroke="#302b00" stroke-width="2" stroke-linecap="round" stroke-linejoin="round" stroke-dashoffset="1.6"/><path d="M38 24c2 4 3 11 1 15l4-1c2-4 2-11 0-15zM37 51l8-3 16 5-6 4z" fill="#edd400" stroke="#302b00" stroke-width="2" stroke-linejoin="round"/><path d="M61 53v4l-6 4v-4z" fill="#d3d7cf" stroke="#2e3436" stroke-width="2" stroke-linejoin="round"/><g stroke="#302b00" stroke-width="1.856"><path d="M84.507 34.69l2.047-3.437C92 34 97 43 91.825 50.853l-3.607-1.728c1.41 4.001 1.917 7.57 1.955 9.807l.038 2.235 1.766-1.372c1.766-1.371 4.866-3.213 8.867-4.623l-3.607-1.728C102.987 44.49 98 30 89.624 26.1l2.047-3.437c-4.112 1.042-7.713 1.225-9.943 1.061l-2.23-.164 1.206 1.882c1.207 1.883 2.76 5.136 3.803 9.25z" style="text-indent:0;text-align:start;line-height:normal;text-transform:none;block-progression:tb" font-weight="400" color="#000" fill="url(#u)" stroke="#0b1521" stroke-linejoin="round" overflow="visible" font-family="sans-serif" transform="matrix(.7418 -.83402 .79184 .6745 -65.44 64.204)"/><path d="M82.423 26.465l3.108 6.507M91.229 56.05l-.484-5.727" fill="none" stroke="#204a87" transform="matrix(.7418 -.83402 .79184 .6745 -65.44 64.204)"/><path d="M82.122 26.608c17.46 8.366 15.011 21.937 9.814 26.54" fill="none" stroke="#204a87" stroke-linecap="round" transform="matrix(.7418 -.83402 .79184 .6745 -65.44 64.204)"/><path d="M86.554 31.253L85 28M94.626 49.541l-4.46 9.396" fill="none" stroke="#204a87" transform="matrix(.7418 -.83402 .79184 .6745 -65.44 64.204)"/><path d="M84.507 34.69l2.047-3.437C92 34 97 43 91.825 50.853l-3.607-1.728c1.41 4.001 1.917 7.57 1.955 9.807l.038 2.235 1.766-1.372c1.766-1.371 4.866-3.213 8.867-4.623l-3.607-1.728C103.069 44.592 98 30 89.624 26.1l2.047-3.437c-4.112 1.042-7.713 1.225-9.943 1.061l-2.23-.164 1.206 1.882c1.207 1.883 2.76 5.136 3.803 9.25z" style="text-indent:0;text-align:start;line-height:normal;text-transform:none;block-progression:tb" font-weight="400" color="#000" fill="none" stroke="#0b1521" stroke-linejoin="round" overflow="visible" font-family="sans-serif" transform="matrix(.7418 -.83402 .79184 .6745 -65.44 64.204)"/></g><path d="M205.71 92.887L245.668 107M205.71 92.887l24.465-34.604" fill="none" stroke="#280000" stroke-width="7.657" stroke-linecap="round" transform="matrix(.69336 -.77956 .79659 .67854 -199.798 151.593)"/><path d="M205.71 92.887L245.668 107" fill="none" stroke="url(#v)" stroke-width="3.829" stroke-linecap="round" transform="matrix(.69336 -.77956 .79659 .67854 -199.798 151.593)"/><path d="M205.71 92.887l24.465-34.604" fill="url(#w)" stroke="url(#x)" stroke-width="3.829" stroke-linecap="round" transform="matrix(.69336 -.77956 .79659 .67854 -199.798 151.593)"/><path d="M207.533 92.313l38.663 13.85M207.386 92.238l23.55-33.583" fill="none" stroke="#ef2929" stroke-width="1.914" stroke-linecap="round" transform="matrix(.69336 -.77956 .79659 .67854 -199.798 151.593)"/></svg>