<svg xmlns="http://www.w3.org/2000/svg" xmlns:xlink="http://www.w3.org/1999/xlink" width="64" height="64"><defs><radialGradient r="19.571" fy="30.181" fx="56.832" cy="30.181" cx="56.832" gradientUnits="userSpaceOnUse" id="f" xlink:href="#a" gradientTransform="matrix(-.51095 -.61314 .25134 -.20945 57.452 81.167)"/><linearGradient id="a"><stop offset="0" stop-color="#3465a4"/><stop offset="1" stop-color="#729fcf"/></linearGradient><linearGradient id="b"><stop offset="0" stop-color="#fff"/><stop offset="1" stop-color="#d3d7cf"/></linearGradient><radialGradient r="19.571" fy="26.282" fx="46.534" cy="26.282" cx="46.534" gradientTransform="matrix(1.1486 1.84776 -3.05667 1.9001 73.258 -112.102)" gradientUnits="userSpaceOnUse" id="e" xlink:href="#b"/><linearGradient id="c"><stop offset="0" stop-color="#fff"/><stop offset="1" stop-color="#d3d7cf"/></linearGradient><radialGradient r="19.571" fy="26.282" fx="46.534" cy="26.282" cx="46.534" gradientTransform="matrix(1.1486 1.84776 -3.05667 1.9001 73.258 -112.102)" gradientUnits="userSpaceOnUse" id="d" xlink:href="#c"/></defs><path transform="matrix(1.0231 0 0 1.02308 -32.444 4.63)" d="M71.786 34.571a18.571 18.571 0 1 1-37.143 0 18.571 18.571 0 1 1 37.143 0z" style="marker:none" fill="url(#d)" fill-rule="evenodd" stroke="#2e3436" stroke-width="1.953" overflow="visible"/><path transform="matrix(1.02314 0 0 1.02314 -14.445 -9.372)" d="M71.786 34.571a18.571 18.571 0 1 1-37.143 0 18.571 18.571 0 1 1 37.143 0z" style="marker:none" fill="url(#e)" fill-rule="evenodd" stroke="#2e3436" stroke-width="1.953" overflow="visible"/><path style="marker:none" d="M22 21c-.117 0-.228.03-.344.031A19.05 19.05 0 0 0 21 26c0 10.494 8.506 19 19 19 .117 0 .228-.03.344-.031A19.05 19.05 0 0 0 41 40c0-10.494-8.506-19-19-19z" fill="url(#f)" fill-rule="evenodd" stroke="#0b1521" stroke-width="1.998" overflow="visible"/><path style="marker:none" d="M23.281 23.063C23.115 24.014 23 25 23 26c0 8.96 6.926 16.285 15.719 16.938C38.885 41.984 39 41 39 40c0-8.96-6.926-16.285-15.719-16.938z" fill="none" stroke="#729fcf" stroke-width="1.998" overflow="visible"/></svg>