<svg xmlns="http://www.w3.org/2000/svg" xmlns:xlink="http://www.w3.org/1999/xlink" width="64" height="64"><defs><linearGradient id="d"><stop offset="0" stop-color="#729fcf"/><stop offset="1" stop-color="#3465a4"/></linearGradient><linearGradient id="b"><stop offset="0" stop-color="#f17878"/><stop offset="1" stop-color="#870e0e"/></linearGradient><linearGradient id="a"><stop offset="0" stop-color="#71b2f8"/><stop offset="1" stop-color="#002795"/></linearGradient><linearGradient id="c"><stop offset="0" stop-color="#71b2f8"/><stop offset="1" stop-color="#002795"/></linearGradient><linearGradient xlink:href="#d" id="g" x1="2.857" y1="-221.381" x2="58.857" y2="-226.381" gradientUnits="userSpaceOnUse"/><linearGradient xlink:href="#e" id="h" x1="44.857" y1="-214.381" x2="42.857" y2="-228.381" gradientUnits="userSpaceOnUse"/><linearGradient id="e"><stop offset="0" stop-color="#729fcf"/><stop offset="1" stop-color="#3465a4"/></linearGradient><linearGradient id="f"><stop offset="0" stop-color="#3465a4"/><stop offset="1" stop-color="#002795"/></linearGradient></defs><g fill="#908c8c" stroke-width="2"><g transform="rotate(90 -97.762 -98.619)" stroke-linecap="round"><rect ry="0" y="-231.381" x="3.857" height="20" width="58" fill="url(#g)" stroke="#0b1521" stroke-linejoin="round"/><rect ry="0" y="-229.381" x="5.857" height="16" width="54" fill="none" stroke="#729fcf"/></g><g transform="rotate(180 32.428 -94.19)" stroke-linecap="round"><rect ry="0" y="-231.381" x="3.857" height="20" width="58" fill="url(#h)" stroke="#0b1521" stroke-linejoin="round"/><rect ry="0" y="-229.381" x="5.857" height="16" width="54" fill="none" stroke="#729fcf"/></g><path fill="#ef2929" stroke="#0b1521" stroke-linecap="round" stroke-linejoin="round" d="M15 23h20v20H15z"/><path d="M23 23l-8 8v8l16-16h4v4L19 43h8l8-8" fill="none" stroke="#3465a4" stroke-linejoin="round"/><path fill="none" stroke="#0b1521" stroke-linecap="round" stroke-linejoin="round" d="M15 23h20v20H15z"/></g></svg>