<svg xmlns="http://www.w3.org/2000/svg" xmlns:xlink="http://www.w3.org/1999/xlink" width="64" height="64"><defs><linearGradient id="d"><stop offset="0" stop-color="#204a87"/><stop offset="1" stop-color="#729fcf"/></linearGradient><linearGradient id="c"><stop offset="0" stop-color="#729fcf"/><stop offset="1" stop-color="#204a87"/></linearGradient><linearGradient id="a"><stop offset="0" stop-color="#fff"/><stop offset="1" stop-color="#fff" stop-opacity="0"/></linearGradient><linearGradient id="b"><stop offset="0" stop-color="#004bed"/><stop offset="1" stop-color="#bbd7ff"/></linearGradient><linearGradient xlink:href="#c" id="e" gradientUnits="userSpaceOnUse" x1="-2.224" y1="759.33" x2="281.502" y2="728.49"/><linearGradient xlink:href="#d" id="f" x1="35.238" y1="33.039" x2="27.98" y2="20.136" gradientUnits="userSpaceOnUse"/></defs><g fill="none"><path d="M45 23c.09 8.2-4.709 14.567-12 20" stroke="#a40000" stroke-width="6"/><path d="M45 23c.09 8.2-4.709 14.567-12 20" stroke="#ef2929" stroke-width="2.00003568"/></g><g fill="none"><path d="M37 11c-8.2-.09-14.568 4.709-20 12" stroke="#a40000" stroke-width="6"/><path d="M37 11c-8.2-.09-14.568 4.709-20 12" stroke="#ef2929" stroke-width="2.00003568"/></g><path style="marker:none" d="M61 16a13 13 0 1 1-26 0 13 13 0 1 1 26 0z" color="#000" fill="#729fcf" stroke="#0b1521" stroke-width="2.0003392499999997" stroke-linejoin="round" overflow="visible"/><g stroke-width="12.137" stroke-linecap="round" stroke-miterlimit="4.5" stroke-dashoffset="20.4"><path fill="#729fcf" stroke="#0b1521" stroke-linejoin="round" d="M-20.728 709.986h320.734v61.68H-20.728z" transform="scale(.16673 .16287) rotate(45 751.615 506.454)"/><path fill="url(#e)" stroke="#729fcf" d="M-8.392 722.322H287.67v37.008H-8.392z" transform="scale(.16673 .16287) rotate(45 751.615 506.454)"/></g><path style="marker:none" d="M40.884 26.588a8.871 8.871 0 1 1-17.742 0 8.871 8.871 0 1 1 17.742 0z" transform="matrix(1.24 0 0 1.24 8.304 -16.969)" color="#000" fill="url(#f)" stroke="#729fcf" stroke-width="1.613" stroke-linejoin="round" overflow="visible"/><g fill="none" stroke-linecap="round"><path d="M53 22c.09 8.2-2.709 21.567-10 27" stroke="#a40000" stroke-width="6"/><path d="M53 22c.09 8.2-2.709 21.567-10 27" stroke="#ef2929" stroke-width="2.00003568"/></g><g fill="none" stroke-linecap="round"><path d="M23 29c4.744-6.69 10.908-11.886 20-12" stroke="#a40000" stroke-width="6"/><path d="M23 29c4.744-6.69 10.908-11.886 20-12" stroke="#ef2929" stroke-width="2.00003568"/></g></svg>