<svg xmlns="http://www.w3.org/2000/svg" xmlns:xlink="http://www.w3.org/1999/xlink" width="64" height="64"><defs><linearGradient id="c"><stop offset="0" stop-color="#71b2f8"/><stop offset="1" stop-color="#002795"/></linearGradient><linearGradient id="a"><stop offset="0" stop-color="#4bff54"/><stop offset="1" stop-color="#00b800"/></linearGradient><linearGradient id="b"><stop offset="0" stop-color="#faff2b"/><stop offset="1" stop-color="#fa0"/></linearGradient><linearGradient xlink:href="#d" id="f" gradientUnits="userSpaceOnUse" x1="-18" y1="18" x2="-22" y2="5" gradientTransform="matrix(.76342 0 0 .7575 -4.596 2.753)"/><linearGradient id="d"><stop offset="0" stop-color="#a40000"/><stop offset="1" stop-color="#ef2929"/></linearGradient><linearGradient xlink:href="#e" id="g" gradientUnits="userSpaceOnUse" x1="-18" y1="18" x2="-22" y2="5" gradientTransform="matrix(.76342 0 0 .7575 -4.596 2.753)"/><linearGradient id="e"><stop offset="0" stop-color="#a40000"/><stop offset="1" stop-color="#ef2929"/></linearGradient></defs><path d="M20.363 12.189c2.358.044 3.632 2.622 3.258 4.712-.6 3.344-4.268 5.03-7.372 4.242-4.329-1.098-6.448-5.923-5.227-10.03C12.6 5.798 18.606 3.239 23.712 4.9c6.303 2.05 9.304 9.246 7.197 15.349-2.518 7.292-10.91 10.737-18.009 8.182C4.618 25.45.728 15.858 3.733 7.764 7.177-1.508 17.972-5.845 27.06-2.388c.11.042.22.085.33.13" transform="matrix(1.87156 0 0 1.64384 -.098 10.886)" fill="none" stroke="#204a87" stroke-width="3.42"/><path d="M20.363 12.189c2.358.044 3.632 2.622 3.258 4.712-.6 3.344-4.268 5.03-7.372 4.242-4.329-1.098-6.448-5.923-5.227-10.03C12.6 5.798 18.606 3.239 23.712 4.9c6.303 2.05 9.304 9.246 7.197 15.349-2.518 7.292-10.91 10.737-18.009 8.182C4.618 25.45.728 15.858 3.733 7.764 7.177-1.508 17.972-5.845 27.06-2.388c.11.042.22.085.33.13" transform="matrix(1.87156 0 0 1.64384 -.098 10.886)" fill="none" stroke="#729fcf" stroke-width="1.14"/><g stroke-width="3.549"><path d="M-26.118 5.664a8.938 8.868 0 1 1 13.577 11.537A8.938 8.868 0 1 1-26.118 5.664z" fill="#ef2929" stroke="#280000" transform="matrix(.56138 0 0 .56577 64.87 1.512)"/><path d="M-23.402 7.974a5.344 5.303 0 1 1 8.118 6.899 5.344 5.303 0 0 1-8.118-6.899z" fill="url(#f)" stroke="#ef2929" transform="matrix(.56138 0 0 .56577 64.87 1.512)"/></g><g stroke-width="3.549"><path d="M-26.118 5.664a8.938 8.868 0 1 1 13.577 11.537A8.938 8.868 0 1 1-26.118 5.664z" fill="#ef2929" stroke="#280000" transform="matrix(.56138 0 0 .56577 48.87 23.512)"/><path d="M-23.402 7.974a5.344 5.303 0 1 1 8.118 6.899 5.344 5.303 0 0 1-8.118-6.899z" fill="url(#g)" stroke="#ef2929" transform="matrix(.56138 0 0 .56577 48.87 23.512)"/></g></svg>