<svg xmlns="http://www.w3.org/2000/svg" xmlns:xlink="http://www.w3.org/1999/xlink" width="64" height="64"><defs><linearGradient id="b"><stop offset="0" stop-color="#c4a000"/><stop offset="1" stop-color="#fce94f"/></linearGradient><linearGradient id="a"><stop offset="0" stop-color="#faff2b"/><stop offset="1" stop-color="#fa0"/></linearGradient><linearGradient xlink:href="#b" id="d" x1="110" y1="35" x2="85" y2="35" gradientUnits="userSpaceOnUse" spreadMethod="reflect" gradientTransform="translate(-62)"/><linearGradient id="c"><stop offset="0" stop-color="#c4a000"/><stop offset="1" stop-color="#fce94f"/></linearGradient></defs><g stroke-linecap="round" stroke-linejoin="round" stroke-miterlimit="4.5" stroke-dashoffset="20.4"><path d="M55 53c0 4.418-10.745 8-24 8S7 57.418 7 53V11h48z" fill="#fce94f" stroke="#302b00" stroke-width="2"/><path d="M53 51.727C53 55.744 43.15 59 31 59S9 55.744 9 51.727v-38h44z" fill="url(#d)" stroke="#fce94f" stroke-width="2"/><path d="M53 15.727C51 19 43.15 21 31 21s-19-2-22-5.273" fill="none" stroke="#fce94f" stroke-width="2"/><path d="M55 11a24 8 0 1 1-48 0 24 8 0 1 1 48 0z" fill="#fce94f" stroke="#302b00" stroke-width="2.000005"/></g></svg>