<svg xmlns="http://www.w3.org/2000/svg" xmlns:xlink="http://www.w3.org/1999/xlink" width="64" height="64"><defs><radialGradient r="19.571" fy="26.282" fx="46.534" cy="26.282" cx="46.534" gradientUnits="userSpaceOnUse" id="f" xlink:href="#a" gradientTransform="matrix(1.1486 1.84776 -3.05667 1.9001 73.258 -112.102)"/><linearGradient id="a"><stop offset="0" stop-color="#fff"/><stop offset="1" stop-color="#d3d7cf"/></linearGradient><radialGradient r="19.571" fy="25.149" fx="48.646" cy="25.149" cx="48.646" gradientTransform="matrix(.63294 .9309 -.82695 .56227 38.653 -34.275)" gradientUnits="userSpaceOnUse" id="e" xlink:href="#b"/><linearGradient id="b"><stop offset="0" stop-color="#729fcf"/><stop offset="1" stop-color="#3465a4"/></linearGradient><radialGradient xlink:href="#c" id="g" gradientUnits="userSpaceOnUse" gradientTransform="matrix(-.51095 -.61314 .25134 -.20945 57.452 81.167)" cx="56.832" cy="30.181" fx="56.832" fy="30.181" r="19.571"/><linearGradient id="c"><stop offset="0" stop-color="#3465a4"/><stop offset="1" stop-color="#729fcf"/></linearGradient><linearGradient xlink:href="#d" id="h" x1="62" y1="34" x2="52" y2="34" gradientUnits="userSpaceOnUse" spreadMethod="reflect" gradientTransform="matrix(.87649 0 0 1.10681 .818 1.328)"/><linearGradient id="d"><stop offset="0" stop-color="#a40000"/><stop offset="1" stop-color="#ef2929"/></linearGradient></defs><path transform="matrix(1.02314 0 0 1.02314 -32.445 4.629)" d="M71.786 34.571c0 10.257-8.315 18.572-18.572 18.572-10.256 0-18.571-8.315-18.571-18.572C34.643 24.315 42.958 16 53.214 16c10.257 0 18.572 8.315 18.572 18.571z" style="marker:none" fill="url(#e)" fill-rule="evenodd" stroke="#0b1521" stroke-width="1.953" overflow="visible"/><path transform="matrix(.91544 0 0 .91544 -26.715 8.352)" d="M71.786 34.571c0 10.257-8.315 18.572-18.572 18.572-10.256 0-18.571-8.315-18.571-18.572C34.643 24.315 42.958 16 53.214 16c10.257 0 18.572 8.315 18.572 18.571z" style="marker:none" fill="none" stroke="#729fcf" stroke-width="2.182" overflow="visible"/><path transform="matrix(1.02314 0 0 1.02314 -14.445 -9.371)" d="M71.786 34.571c0 10.257-8.315 18.572-18.572 18.572-10.256 0-18.571-8.315-18.571-18.572C34.643 24.315 42.958 16 53.214 16c10.257 0 18.572 8.315 18.572 18.571z" style="marker:none" fill="url(#f)" fill-rule="evenodd" stroke="#2e3436" stroke-width="1.953" overflow="visible"/><g stroke-width="2.482"><path d="M22 21c-.117 0-.228.03-.344.031A19.049 19.049 0 0 0 21 26c0 10.494 8.506 19 19 19 .117 0 .228-.03.344-.031C40.77 43.386 41 41.718 41 40c0-10.494-8.506-19-19-19z" style="marker:none" fill="url(#g)" fill-rule="evenodd" stroke="#0b1521" overflow="visible" transform="matrix(.7742 .20744 -.2092 .78075 18.446 -.431)"/><path d="M23.727 23.91c-.155.89-.263 1.809-.263 2.743 0 8.367 6.482 15.208 14.712 15.817.155-.89.263-1.809.263-2.743 0-8.367-6.482-15.207-14.712-15.817z" style="marker:none" fill="none" stroke="#729fcf" overflow="visible" transform="matrix(.7742 .20744 -.2092 .78075 18.446 -.431)"/></g><path d="M38.506 33.425v30.991s1.753 4.427 9.642 4.427c7.888 0 9.641-4.427 9.641-4.427v-30.99z" fill="url(#h)" stroke="#280000" stroke-width="2.202" stroke-linejoin="round" transform="matrix(.91274 0 0 .9035 7.79 .23)"/><path d="M40.698 35.639v28.224s1.704 2.767 7.669 2.767 7.67-2.767 7.67-2.767V35.639z" fill="none" stroke="#ef2929" stroke-width="2.202" transform="matrix(.91274 0 0 .9035 7.79 .23)"/><path transform="matrix(.7833 0 0 .9095 40.82 4.023)" d="M25.17 29.033c0 2.43-5.03 4.398-11.236 4.398-6.204 0-11.234-1.969-11.234-4.398 0-2.429 5.03-4.398 11.234-4.398 6.205 0 11.235 1.97 11.235 4.398z" fill="#c00" stroke="#280000" stroke-width="2.37" stroke-linecap="round" stroke-linejoin="round" stroke-dashoffset="6.8"/><path transform="matrix(.62307 0 0 .45475 43.253 17.226)" d="M25.17 29.033c0 2.43-5.03 4.398-11.236 4.398-6.204 0-11.234-1.969-11.234-4.398 0-2.429 5.03-4.398 11.234-4.398 6.205 0 11.235 1.97 11.235 4.398z" fill="none" stroke="#ef2929" stroke-width="3.757" stroke-linecap="round" stroke-linejoin="round" stroke-dashoffset="6.8"/><path d="M40.26 38.517s2.629 1.55 7.888 1.55 7.888-1.55 7.888-1.55" fill="none" stroke="#ef2929" stroke-width="2.202" transform="matrix(.91274 0 0 .9035 7.79 .23)"/><path transform="matrix(1 0 0 1 -.065 1.429)" d="M52 28s-3.29-4.345-3-8c.29-3.655 2-5 2-5" fill="none" stroke="#2e3436" stroke-width="6" stroke-linecap="round" stroke-linejoin="round"/><path d="M48.367 32.319s-3.605-4.81-3.287-8.855c.318-4.046 2.191-5.534 2.191-5.534" fill="none" stroke="#d3d7cf" stroke-width="2.202" stroke-linecap="round" stroke-linejoin="round" transform="matrix(.91274 0 0 .9035 7.79 .23)"/><path d="M38.506 17.93l-4.382 2.214" fill="none" stroke="#a40000" stroke-width="6.607" stroke-linecap="round" transform="matrix(.91274 0 0 .9035 7.79 .23)"/><path d="M38.506 17.93l-4.382 2.214" fill="none" stroke="#ef2929" stroke-width="2.202" stroke-linecap="round" transform="matrix(.91274 0 0 .9035 7.79 .23)"/><path d="M58.227 22.357l-4.382-2.213" fill="none" stroke="#a40000" stroke-width="6.607" stroke-linecap="round" transform="matrix(.91274 0 0 .9035 7.79 .23)"/><path d="M58.227 22.357l-4.382-2.213" fill="none" stroke="#ef2929" stroke-width="2.202" stroke-linecap="round" transform="matrix(.91274 0 0 .9035 7.79 .23)"/><path d="M53.845 6.862l-2.191 4.427" fill="none" stroke="#a40000" stroke-width="6.607" stroke-linecap="round" transform="matrix(.91274 0 0 .9035 7.79 .23)"/><path d="M53.845 6.862l-2.191 4.427" fill="none" stroke="#ef2929" stroke-width="2.202" stroke-linecap="round" transform="matrix(.91274 0 0 .9035 7.79 .23)"/><path d="M40.698 6.862l2.19 4.427" fill="none" stroke="#a40000" stroke-width="6.607" stroke-linecap="round" transform="matrix(.91274 0 0 .9035 7.79 .23)"/><path d="M40.698 6.862l2.19 4.427" fill="none" stroke="#ef2929" stroke-width="2.202" stroke-linecap="round" transform="matrix(.91274 0 0 .9035 7.79 .23)"/></svg>