<svg xmlns="http://www.w3.org/2000/svg" xmlns:xlink="http://www.w3.org/1999/xlink" width="64" height="64"><defs><linearGradient id="c"><stop offset="0" stop-color="#3465a4"/><stop offset="1" stop-color="#3465a4" stop-opacity="0"/></linearGradient><linearGradient id="a"><stop offset="0" stop-color="#729fcf"/><stop offset="1" stop-color="#3465a4"/></linearGradient><linearGradient id="b"><stop offset="0" stop-color="#729fcf"/><stop offset="1" stop-color="#204a87"/></linearGradient><radialGradient xlink:href="#a" id="d" gradientUnits="userSpaceOnUse" gradientTransform="matrix(1.17518 1.89051 -3.12739 1.94405 60.507 -124.066)" cx="46.534" cy="26.282" fx="46.534" fy="26.282" r="19.571"/><radialGradient xlink:href="#c" id="e" cx="22.626" cy="32.827" fx="22.626" fy="32.827" r="13" gradientTransform="matrix(.22188 -.16641 .6923 .92308 3.254 7.464)" gradientUnits="userSpaceOnUse"/></defs><path style="marker:none" d="M40 7c-8.776 0-16.16 5.945-18.344 14.031C11.323 21.217 3 29.623 3 40c0 10.494 8.506 19 19 19 8.776 0 16.16-5.945 18.344-14.031C50.677 44.783 59 36.377 59 26c0-10.494-8.506-19-19-19z" fill="url(#d)" fill-rule="evenodd" stroke="#0b1521" stroke-width="1.998" overflow="visible"/><path d="M21 25c5.8 2.615 10.296 7.639 16 20" fill="none" stroke="url(#e)" stroke-width="10"/><path style="marker:none" d="M40 9c-8.39 0-15.329 6.071-16.719 14.063A17.334 17.334 0 0 0 22 23c-9.39 0-17 7.61-17 17s7.61 17 17 17c8.39 0 15.329-6.071 16.719-14.063.421.032.851.063 1.281.063 9.39 0 17-7.61 17-17S49.39 9 40 9z" fill="none" stroke="#729fcf" stroke-width="1.998" overflow="visible"/></svg>