<svg xmlns="http://www.w3.org/2000/svg" xmlns:xlink="http://www.w3.org/1999/xlink" width="64" height="64"><defs><linearGradient id="c"><stop offset="0"/><stop offset="1" stop-opacity="0"/></linearGradient><linearGradient gradientTransform="translate(0 -4)" xlink:href="#a" id="f" x1="22.117" y1="55.718" x2="17.329" y2="21.311" gradientUnits="userSpaceOnUse"/><linearGradient id="a"><stop offset="0" stop-color="#3465a4"/><stop offset="1" stop-color="#729fcf"/></linearGradient><linearGradient gradientTransform="translate(0 -4)" xlink:href="#b" id="e" x1="53.897" y1="51.18" x2="47.502" y2="21.837" gradientUnits="userSpaceOnUse"/><linearGradient id="b"><stop offset="0" stop-color="#204a87"/><stop offset="1" stop-color="#3465a4"/></linearGradient><radialGradient xlink:href="#c" id="d" cx="1" cy="45" fx="1" fy="45" r="41" gradientTransform="matrix(.93348 0 0 .28688 .067 32.09)" gradientUnits="userSpaceOnUse"/></defs><path d="M42 45a41 13 0 1 1-82 0 41 13 0 1 1 82 0z" transform="matrix(.7317 0 0 .8077 31.268 15.154)" fill="url(#d)"/><path d="M3 13l34 6 24-8-30-4z" fill="#729fcf" stroke="#0b1521" stroke-width="2" stroke-linejoin="round"/><path d="M61 11v36L37 57V19z" fill="url(#e)" stroke="#0b1521" stroke-width="2" stroke-linejoin="round"/><path d="M3 13l34 6v38L3 51z" style="marker:none" fill="url(#f)" fill-rule="evenodd" stroke="#0b1521" stroke-width="2" stroke-linejoin="round" overflow="visible"/><path d="M5 15.428l.009 33.919 30.008 5.269-.008-33.934z" fill="none" stroke="#729fcf" stroke-width="2"/><path d="M39.012 20.434L39 53.969l20.001-8.3V13.8z" fill="none" stroke="#3465a4" stroke-width="2"/></svg>