<svg xmlns="http://www.w3.org/2000/svg" xmlns:xlink="http://www.w3.org/1999/xlink" width="64" height="64"><defs><radialGradient r="19.571" fy="26.282" fx="46.534" cy="26.282" cx="46.534" gradientUnits="userSpaceOnUse" id="e" xlink:href="#a" gradientTransform="matrix(1.1486 1.84776 -3.05667 1.9001 73.258 -112.102)"/><linearGradient id="a"><stop offset="0" stop-color="#fff"/><stop offset="1" stop-color="#d3d7cf"/></linearGradient><radialGradient r="19.571" fy="25.149" fx="48.646" cy="25.149" cx="48.646" gradientTransform="matrix(.63294 .9309 -.82695 .56227 38.653 -34.275)" gradientUnits="userSpaceOnUse" id="d" xlink:href="#b"/><linearGradient id="b"><stop offset="0" stop-color="#729fcf"/><stop offset="1" stop-color="#3465a4"/></linearGradient><radialGradient xlink:href="#c" id="f" gradientUnits="userSpaceOnUse" gradientTransform="matrix(-.51095 -.61314 .25134 -.20945 57.452 81.167)" cx="56.832" cy="30.181" fx="56.832" fy="30.181" r="19.571"/><linearGradient id="c"><stop offset="0" stop-color="#3465a4"/><stop offset="1" stop-color="#729fcf"/></linearGradient></defs><path transform="matrix(1.02314 0 0 1.02314 -32.445 4.629)" d="M71.786 34.571c0 10.257-8.315 18.572-18.572 18.572-10.256 0-18.571-8.315-18.571-18.572C34.643 24.315 42.958 16 53.214 16c10.257 0 18.572 8.315 18.572 18.571z" style="marker:none" fill="url(#d)" fill-rule="evenodd" stroke="#0b1521" stroke-width="1.953" overflow="visible"/><path transform="matrix(.91544 0 0 .91544 -26.715 8.352)" d="M71.786 34.571c0 10.257-8.315 18.572-18.572 18.572-10.256 0-18.571-8.315-18.571-18.572C34.643 24.315 42.958 16 53.214 16c10.257 0 18.572 8.315 18.572 18.571z" style="marker:none" fill="none" stroke="#729fcf" stroke-width="2.182" overflow="visible"/><path transform="matrix(1.02314 0 0 1.02314 -14.445 -9.371)" d="M71.786 34.571c0 10.257-8.315 18.572-18.572 18.572-10.256 0-18.571-8.315-18.571-18.572C34.643 24.315 42.958 16 53.214 16c10.257 0 18.572 8.315 18.572 18.571z" style="marker:none" fill="url(#e)" fill-rule="evenodd" stroke="#2e3436" stroke-width="1.953" overflow="visible"/><g stroke-width="2.482"><path d="M22 21c-.117 0-.228.03-.344.031A19.049 19.049 0 0 0 21 26c0 10.494 8.506 19 19 19 .117 0 .228-.03.344-.031C40.77 43.386 41 41.718 41 40c0-10.494-8.506-19-19-19z" style="marker:none" fill="url(#f)" fill-rule="evenodd" stroke="#0b1521" overflow="visible" transform="matrix(.7742 .20744 -.2092 .78075 18.446 -.431)"/><path d="M23.727 23.91c-.155.89-.263 1.809-.263 2.743 0 8.367 6.482 15.208 14.712 15.817.155-.89.263-1.809.263-2.743 0-8.367-6.482-15.207-14.712-15.817z" style="marker:none" fill="none" stroke="#729fcf" overflow="visible" transform="matrix(.7742 .20744 -.2092 .78075 18.446 -.431)"/></g></svg>