<svg xmlns="http://www.w3.org/2000/svg" xmlns:xlink="http://www.w3.org/1999/xlink" width="64" height="64" viewBox="0 0 18.062 18.062"><defs><linearGradient id="c"><stop offset="0" stop-color="#729fcf"/><stop offset="1" stop-color="#3465a4"/></linearGradient><linearGradient id="b"><stop offset="0" stop-color="#729fcf"/><stop offset="1" stop-color="#3465a4"/></linearGradient><linearGradient id="a"><stop offset="0" stop-color="#71b2f8"/><stop offset="1" stop-color="#002795"/></linearGradient><linearGradient xlink:href="#b" id="d" x1="3.387" y1="1.411" x2="5.362" y2="16.651" gradientUnits="userSpaceOnUse"/><linearGradient xlink:href="#c" id="e" x1="12.982" y1="6.773" x2="14.676" y2="11.853" gradientUnits="userSpaceOnUse" gradientTransform="matrix(1.5 0 0 1 -8.326 0)"/></defs><path fill="#729fcf" stroke="#0b1521" stroke-width=".564" stroke-linecap="round" stroke-linejoin="round" stroke-miterlimit="4.5" stroke-dashoffset="20.4" d="M.847.847h7.338v16.369H.847z"/><path fill="url(#d)" stroke="#729fcf" stroke-width=".564" stroke-linecap="round" stroke-miterlimit="4.5" stroke-dashoffset="20.4" d="M1.411 1.411H7.62v15.24H1.411z"/><path fill="#729fcf" stroke="#0b1521" stroke-width=".564" stroke-linecap="round" stroke-linejoin="round" stroke-miterlimit="4.5" stroke-dashoffset="20.4" d="M4.233 5.927h12.982V12.7H4.233z"/><path fill="url(#e)" stroke="#729fcf" stroke-width=".564" stroke-linecap="round" stroke-miterlimit="4.5" stroke-dashoffset="20.4" d="M4.798 6.491h11.853v5.644H4.798z"/><path d="M1.411 1.411v15.24" fill="none" stroke="#a40000" stroke-width="1.693" stroke-linecap="round"/><path d="M1.411 1.411v15.24" fill="none" stroke="#ef2929" stroke-width=".564" stroke-linecap="round"/><path d="M7.62 1.411v5.08h9.031M7.62 6.491H4.798" fill="none" stroke="#a40000" stroke-width="1.693" stroke-linecap="round"/><path d="M7.62 1.411v5.08h9.031" fill="none" stroke="#ef2929" stroke-width=".564" stroke-linecap="round"/><path d="M7.62 12.136H4.798" fill="none" stroke="#a40000" stroke-width="1.6933200000000002" stroke-linecap="round"/><g fill="none" stroke-linecap="round"><path d="M7.62 16.651v-4.515h9.031" stroke="#a40000" stroke-width="1.693"/><path d="M7.62 16.651v-4.515h9.031" stroke="#ef2929" stroke-width=".564"/></g><path d="M7.62 12.136H4.798M7.62 6.491H4.798" fill="none" stroke="#ef2929" stroke-width=".564" stroke-linecap="round"/></svg>