<svg xmlns="http://www.w3.org/2000/svg" xmlns:xlink="http://www.w3.org/1999/xlink" width="64" height="64"><defs><linearGradient id="e"><stop offset="0" stop-color="#3465a4"/><stop offset="1" stop-color="#729fcf"/></linearGradient><linearGradient id="c"><stop offset="0" stop-color="#71b2f8"/><stop offset="1" stop-color="#002795"/></linearGradient><linearGradient id="a"><stop offset="0" stop-color="#4bff54"/><stop offset="1" stop-color="#00b800"/></linearGradient><linearGradient id="b"><stop offset="0" stop-color="#faff2b"/><stop offset="1" stop-color="#fa0"/></linearGradient><linearGradient xlink:href="#d" id="g" gradientUnits="userSpaceOnUse" x1="-18" y1="18" x2="-22" y2="5" gradientTransform="matrix(.76342 0 0 .7575 -.988 -32.551)"/><linearGradient id="d"><stop offset="0" stop-color="#a40000"/><stop offset="1" stop-color="#ef2929"/></linearGradient><linearGradient xlink:href="#e" id="f" x1="31.168" y1="59.009" x2="26.57" y2="44.008" gradientUnits="userSpaceOnUse"/></defs><path d="M38.065 52.085a8.046 8.077 0 1 1-16.093 0 8.046 8.077 0 1 1 16.093 0z" transform="matrix(.86997 0 0 .86664 5.91 -13.113)" fill="none" stroke="#204a87" stroke-width="6.91" stroke-linecap="round" stroke-linejoin="round" stroke-miterlimit="4.5" stroke-dashoffset="20.4"/><path d="M38.065 52.085a8.046 8.077 0 1 1-16.093 0 8.046 8.077 0 1 1 16.093 0z" transform="matrix(.86997 0 0 .86664 5.91 -13.113)" fill="none" stroke="url(#f)" stroke-width="2.303" stroke-linecap="round" stroke-linejoin="round" stroke-miterlimit="4.5" stroke-dashoffset="20.4"/><g stroke-width="3.549"><path d="M-22.51-29.64A8.938 8.868 0 1 1-8.932-18.103 8.938 8.868 0 1 1-22.51-29.64z" fill="#ef2929" stroke="#a40000" transform="matrix(.56138 0 0 .56577 40.832 45.512)"/><path d="M-19.794-27.33a5.344 5.303 0 1 1 8.118 6.899 5.344 5.303 0 0 1-8.118-6.898z" fill="url(#g)" stroke="#ef2929" transform="matrix(.56138 0 0 .56577 40.832 45.512)"/></g></svg>