<svg xmlns:osb="http://www.openswatchbook.org/uri/2009/osb" xmlns="http://www.w3.org/2000/svg" width="64" height="64"><defs><linearGradient id="a" osb:paint="gradient"><stop offset="0" stop-color="#71b2f8" stop-opacity=".443"/><stop offset="1" stop-color="#002795"/></linearGradient><linearGradient id="b"><stop offset="0" stop-color="#c8e0f9"/><stop offset="1" stop-color="#637dca"/></linearGradient><linearGradient id="c"><stop offset="0" stop-color="#71b2f8"/><stop offset="1" stop-color="#002795"/></linearGradient></defs><path d="M59 39c-7 10-25 18-38 18L5 51c13 0 23-8 30-18z" fill="#729fcf" stroke="#0b1521" stroke-width="2" stroke-linejoin="round"/><path d="M21 57V41c12-1 22-16 26-28l12 26c-7 10-25 18-38 18z" fill="#204a87" stroke="#0b1521" stroke-width="2" stroke-linejoin="round"/><path d="M59 39c-7 10-25 18-38 18L5 51c13 0 23-8 30-18z" opacity=".6" fill="#729fcf" stroke="#0b1521" stroke-width="2" stroke-linejoin="round"/><path d="M5 51V35c12-1 14-16 18-28l12 26C28 43 18 51 5 51z" fill="#204a87" stroke="#0b1521" stroke-width="2" stroke-linejoin="round"/><g fill="none" stroke-linejoin="round"><path d="M5 35l16 6v16L5 51z" stroke="#a40000" stroke-width="6"/><path d="M5 35l16 6v16L5 51z" stroke="#ef2929" stroke-width="2"/></g><g fill="none" stroke-linecap="round" stroke-dasharray="8,16" stroke-dashoffset="1.6"><path d="M6 48c26 0 41-4 52-42" stroke="#280000" stroke-width="8"/><path d="M6 48c26 0 41-4 52-42" stroke="#c00" stroke-width="4"/><path d="M6 47c26 0 40.258-3.372 51.258-41.372" stroke="#ef2929" stroke-width="2"/></g><path d="M21 57V41c12-1 22-16 26-28l12 26c-7 10-25 18-38 18z" opacity=".6" fill="#204a87" stroke="#0b1521" stroke-width="2" stroke-linejoin="round"/><path d="M47 13c-4 12-14 28-26 28L5 35c12-1 14-16 18-28z" fill="#729fcf" stroke="#0b1521" stroke-width="2" stroke-linejoin="round"/><path d="M23 7l24 6 12 26" fill="none" stroke="#a40000" stroke-width="6" stroke-linecap="round" stroke-linejoin="round"/><path d="M23 7l24 6 12 26" fill="none" stroke="#ef2929" stroke-width="2" stroke-linecap="round" stroke-linejoin="round"/><path d="M5 35l16 6v16" fill="none" stroke="#a40000" stroke-width="6" stroke-linecap="round" stroke-linejoin="round"/><path d="M5 41v-6l16 6v16l-9-3.4" fill="none" stroke="#ef2929" stroke-width="2" stroke-linecap="round" stroke-linejoin="round"/></svg>