<svg xmlns="http://www.w3.org/2000/svg" xmlns:xlink="http://www.w3.org/1999/xlink" width="64" height="64"><defs><linearGradient id="a"><stop offset="0" stop-color="#c8e0f9"/><stop offset="1" stop-color="#637dca"/></linearGradient><linearGradient id="b"><stop offset="0" stop-color="#71b2f8"/><stop offset="1" stop-color="#002795"/></linearGradient><linearGradient xlink:href="#c" id="h" gradientUnits="userSpaceOnUse" gradientTransform="rotate(89.863 12.036 -12.11)" x1="51.974" y1="35.978" x2="33.986" y2="30.935"/><linearGradient id="c"><stop offset="0" stop-color="#729fcf"/><stop offset="1" stop-color="#204a87"/></linearGradient><linearGradient xlink:href="#d" id="f" gradientUnits="userSpaceOnUse" x1="80" y1="58" x2="79" y2="42"/><linearGradient id="d"><stop offset="0" stop-color="#3465a4"/><stop offset="1" stop-color="#729fcf"/></linearGradient><linearGradient xlink:href="#e" id="g" gradientUnits="userSpaceOnUse" x1="109" y1="51" x2="105" y2="38"/><linearGradient id="e"><stop offset="0" stop-color="#204a87"/><stop offset="1" stop-color="#3465a4"/></linearGradient></defs><g stroke-width="2"><path d="M63 39v20l32 2V41z" fill="url(#f)" stroke="#0b1521" stroke-linejoin="round" transform="translate(-58)"/><path d="M95 61l20-10V31L95 41z" fill="url(#g)" stroke="#0b1521" stroke-linejoin="round" transform="translate(-58)"/><path d="M5 39l20-10 32 2-20 10z" fill="#729fcf" stroke="#0b1521" stroke-linejoin="round"/><path d="M7 41v16.1L35 59V42.836z" fill="none" stroke="#729fcf"/><path d="M39 57.8l16-8.033V34.2L39 42z" fill="none" stroke="#3465a4"/><g><path d="M-14.957 18.943h-10v-14h-14v14h-10l17 18z" fill="url(#h)" fill-rule="evenodd" stroke="#0b1521" stroke-linejoin="round" transform="matrix(1 .05882 0 -1 61.957 41.822)"/><path d="M-19.638 20.943h-7.319v-14h-10v14h-7.395l12.395 13z" fill="none" stroke="#729fcf" transform="matrix(1 .05882 0 -1 61.957 41.822)"/></g></g></svg>