<svg xmlns="http://www.w3.org/2000/svg" xmlns:xlink="http://www.w3.org/1999/xlink" width="64" height="64"><defs><linearGradient id="d"><stop offset="0" stop-color="#3465a4"/><stop offset="1" stop-color="#729fcf"/></linearGradient><linearGradient id="c"><stop offset="0" stop-color="#3465a4"/><stop offset="1" stop-color="#729fcf"/></linearGradient><linearGradient id="a"><stop offset="0" stop-color="#c8e0f9"/><stop offset="1" stop-color="#637dca"/></linearGradient><linearGradient id="b"><stop offset="0" stop-color="#71b2f8"/><stop offset="1" stop-color="#002795"/></linearGradient><linearGradient xlink:href="#c" id="e" x1="18.365" y1="40.034" x2="15.981" y2="10.809" gradientUnits="userSpaceOnUse"/><linearGradient xlink:href="#d" id="f" x1="55.512" y1="39.156" x2="46.665" y2="9.608" gradientUnits="userSpaceOnUse"/></defs><path style="marker:none" d="M32.99 3.1C16.45 3.354 3.1 16.207 3.1 32c0 15.952 13.612 28.9 30.383 28.9 7.442 0 14.232-2.56 19.517-6.79L41.22 41.433a12.956 12.956 0 0 1-7.737 2.542c-6.949 0-12.59-5.365-12.59-11.975 0-6.486 5.433-11.747 12.203-11.941L32.991 3.1z" color="#000" fill="#729fcf" fill-rule="evenodd" stroke="#0b1521" stroke-width="2" stroke-linejoin="round" overflow="visible"/><path style="marker:none" d="M32.992 3C16.45 3.256 3.1 16.22 3.1 32.15c0 8.175 3.521 15.555 9.179 20.85l11.64-12.99c-1.884-2.11-3.025-4.865-3.025-7.86 0-6.543 5.433-11.848 12.203-12.045L32.992 3z" fill="url(#e)" fill-rule="evenodd" stroke="#0b1521" stroke-width="2" stroke-linejoin="round" overflow="visible"/><path style="marker:none" d="M43 7l-.431 16.923 5.696-4.404c3.2 2.98 4.682 6.62 4.563 9.938-.12 3.355-.504 7.605-3.828 11.543l6 6c3.25-4.503 6.079-9.9 6.009-15.708-.076-6.293-2.41-12.055-6.298-16.681l5.174-3.956z" fill="url(#f)" fill-rule="evenodd" stroke="#0b1521" stroke-width="1.979" stroke-linejoin="round" overflow="visible"/><path style="marker:none" d="M35.87 32.823a2.25 2.25 0 1 1-4.5 0 2.25 2.25 0 1 1 4.5 0z" transform="matrix(1.77787 0 0 1.77787 -26.771 -26.355)" fill="#729fcf" fill-rule="evenodd" stroke="#0b1521" stroke-width="1.125" overflow="visible"/><path style="marker:none" d="M30.909 5C19 5 5 17 5 31.818 5 39.338 9 47 12 50l9.327-10.047C19.975 38.011 18.392 34.58 19 30c.526-3.965 4.065-10.177 12-11.72z" fill="none" stroke="#729fcf" stroke-width="2" overflow="visible"/><path style="marker:none" d="M35.87 32.823a2.25 2.25 0 1 1-4.5 0 2.25 2.25 0 1 1 4.5 0z" transform="matrix(.88893 0 0 .88893 3.114 2.822)" fill="#3465a4" fill-rule="evenodd" stroke="#729fcf" stroke-width="2.25" overflow="visible"/><path style="marker:none" d="M44.9 9.4l-.3 10.7 3.83-3.064c2.738 3.013 6.074 7.154 6.272 10.972.175 3.353-.27 8.46-3.132 12.728l3.166 3.198C57.126 40.258 58.868 36.806 59 31c.155-6.822-3.044-12.209-6.931-16.835L55.4 11.6z" fill="none" stroke="#729fcf" stroke-width="1.979" overflow="visible"/></svg>