<svg xmlns="http://www.w3.org/2000/svg" xmlns:xlink="http://www.w3.org/1999/xlink" width="64" height="64"><defs><linearGradient id="b"><stop offset="0" stop-color="#729fcf"/><stop offset="1" stop-color="#204a87"/></linearGradient><linearGradient id="a"><stop offset="0" stop-color="#fce94f"/><stop offset="1" stop-color="#c4a000"/></linearGradient><radialGradient r="22" fy="91.957" fx="225.938" cy="91.957" cx="225.938" gradientTransform="matrix(-1.4091 3.86364 -.97565 -.35583 693.794 -749.333)" gradientUnits="userSpaceOnUse" id="d" xlink:href="#b"/><radialGradient xlink:href="#c" id="e" cx="43.783" cy="41.446" fx="43.783" fy="41.446" r="12.458" gradientUnits="userSpaceOnUse" gradientTransform="matrix(.38462 .38462 -.84615 .84615 61.897 -11.243)"/><linearGradient id="c"><stop offset="0" stop-color="#fff"/><stop offset="1" stop-color="#d3d7cf" stop-opacity=".4"/></linearGradient></defs><path d="M288.71 69.887l-21 52c0 8 42 8 42 0z" fill="url(#d)" stroke="#0b1521" stroke-width="2" stroke-linejoin="round" transform="translate(-256.71 -66.887)"/><path d="M32 8L13 55c3 6 35 6 38 0z" fill="none" stroke="#729fcf" stroke-width="2"/><path d="M37 25l4-4 10 10-4 4z" fill="#c17d11" stroke="#271903" stroke-width="2" stroke-linecap="round" stroke-linejoin="round" stroke-dashoffset="2.04"/><path d="M48.9 31.7l-10-10" fill="none" stroke="#e9b96e" stroke-width="2"/><path d="M59 44.5a11.5 11.5 0 1 1-23 0 11.5 11.5 0 1 1 23 0z" transform="matrix(1.04348 0 0 1.04348 -18.565 -31.435)" fill="url(#e)" stroke="#2e3436" stroke-width="1.917" stroke-linecap="round" stroke-linejoin="round" stroke-dashoffset="2.04"/><path d="M59 44.5a11.5 11.5 0 1 1-23 0 11.5 11.5 0 1 1 23 0z" transform="matrix(.86957 0 0 .86957 -10.304 -23.696)" fill="none" stroke="#d3d7cf" stroke-width="2.3" stroke-linecap="round" stroke-linejoin="round" stroke-dashoffset="2.04"/></svg>