<svg xmlns="http://www.w3.org/2000/svg" xmlns:xlink="http://www.w3.org/1999/xlink" width="64" height="64"><defs><linearGradient id="o"><stop offset="0" stop-color="#8ae234"/><stop offset="1" stop-color="#4e9a06"/></linearGradient><linearGradient id="m"><stop offset="0"/><stop offset="1" stop-opacity="0"/></linearGradient><linearGradient id="n"><stop offset="0" stop-color="#fff"/><stop offset="1" stop-color="#fff" stop-opacity="0"/></linearGradient><linearGradient id="a"><stop offset="0" stop-color="#c4a000"/><stop offset="1" stop-color="#fce94f"/></linearGradient><linearGradient id="d"><stop offset="0" stop-color="#fff"/><stop offset="1" stop-color="#fff" stop-opacity="0"/></linearGradient><linearGradient id="c"><stop offset="0" stop-color="#7b7f7a"/><stop offset="1" stop-color="#7b7f7a" stop-opacity="0"/></linearGradient><linearGradient id="l"><stop offset="0" stop-color="#909090"/><stop offset="1" stop-color="#bebebe" stop-opacity="0"/></linearGradient><linearGradient id="e"><stop offset="0" stop-color="#585956"/><stop offset="1" stop-color="#bbbeb8"/></linearGradient><linearGradient id="i"><stop offset="0"/><stop offset="1" stop-opacity="0"/></linearGradient><linearGradient id="h"><stop offset="0" stop-color="#5b5b97"/><stop offset="1" stop-color="#1b1b43"/></linearGradient><linearGradient id="k"><stop offset="0" stop-color="#fff"/><stop offset="1" stop-color="#fcfcff" stop-opacity="0"/></linearGradient><linearGradient id="b"><stop offset="0"/><stop offset="1" stop-opacity="0"/></linearGradient><linearGradient id="j"><stop offset="0" stop-color="#fff"/><stop offset="1" stop-color="#fff" stop-opacity="0"/></linearGradient><linearGradient id="g"><stop offset="0" stop-color="#8f8f8f"/><stop offset="1" stop-color="#494949"/></linearGradient><linearGradient id="f"><stop offset="0" stop-color="#dde1d9"/><stop offset="1" stop-color="#cacdc6"/></linearGradient><filter x="-.223" width="1.446" y="-1.253" height="3.506" id="I" color-interpolation-filters="sRGB"><feGaussianBlur stdDeviation="2.215"/></filter><radialGradient xlink:href="#b" id="p" gradientUnits="userSpaceOnUse" gradientTransform="scale(1.9258 .51926)" cx="12.576" cy="67.502" fx="12.576" fy="67.502" r="8.766"/><linearGradient xlink:href="#c" id="q" gradientUnits="userSpaceOnUse" x1="-35.658" y1="33.416" x2="-35.658" y2="28.206"/><linearGradient xlink:href="#d" id="r" gradientUnits="userSpaceOnUse" x1="-35.123" y1="34.242" x2="-35.075" y2="30.962"/><linearGradient xlink:href="#l" id="z" gradientUnits="userSpaceOnUse" x1="34.301" y1="3.938" x2="35.521" y2="3.845"/><linearGradient xlink:href="#l" id="A" gradientUnits="userSpaceOnUse" x1="34.301" y1="3.938" x2="35.521" y2="3.845"/><linearGradient xlink:href="#l" id="B" gradientUnits="userSpaceOnUse" x1="34.301" y1="3.938" x2="35.521" y2="3.845"/><linearGradient xlink:href="#l" id="C" gradientUnits="userSpaceOnUse" x1="34.301" y1="3.938" x2="35.521" y2="3.845"/><linearGradient xlink:href="#l" id="D" gradientUnits="userSpaceOnUse" x1="34.301" y1="3.938" x2="35.521" y2="3.845"/><radialGradient xlink:href="#m" id="F" gradientUnits="userSpaceOnUse" gradientTransform="matrix(1 0 0 .32526 0 28.086)" cx="25.188" cy="41.625" fx="25.188" fy="41.625" r="18.063"/><linearGradient xlink:href="#n" id="H" gradientUnits="userSpaceOnUse" gradientTransform="matrix(.53803 0 0 .4796 27.638 -1.667)" x1="28.835" y1="11.914" x2="52.132" y2="70.073"/><linearGradient xlink:href="#a" id="G" gradientUnits="userSpaceOnUse" gradientTransform="matrix(.53803 0 0 .4796 55.004 -11.39)" x1="42.426" y1="58.076" x2="32.35" y2="16.357"/><linearGradient xlink:href="#k" id="y" gradientUnits="userSpaceOnUse" gradientTransform="matrix(1.80577 0 0 1.24098 4.163 -16.418)" x1="11.492" y1="1.654" x2="17.199" y2="26.729"/><linearGradient xlink:href="#j" id="x" gradientUnits="userSpaceOnUse" gradientTransform="matrix(1.58858 0 0 1.25888 4.94 -13.327)" x1="17.698" y1="13.005" x2="34.975" y2="55.201"/><linearGradient xlink:href="#i" id="w" gradientUnits="userSpaceOnUse" gradientTransform="matrix(8.43183 0 0 .2516 4.104 -16.687)" x1="3.707" y1="171.291" x2="3.707" y2="162.451"/><linearGradient xlink:href="#h" id="v" gradientUnits="userSpaceOnUse" gradientTransform="matrix(1.74357 0 0 1.32946 3.367 -16.927)" x1="19.15" y1="32.622" x2="16.316" y2="8.867"/><linearGradient xlink:href="#f" id="t" gradientUnits="userSpaceOnUse" gradientTransform="matrix(1.65523 0 0 1.28181 .503 -17.345)" x1="8.612" y1="7.229" x2="34.784" y2="33.34"/><linearGradient xlink:href="#g" id="u" gradientUnits="userSpaceOnUse" gradientTransform="matrix(1.61793 0 0 1.31137 2.883 -15.456)" x1="10.391" y1="5.382" x2="32.537" y2="31.246"/><linearGradient xlink:href="#e" id="s" gradientUnits="userSpaceOnUse" gradientTransform="matrix(2.68443 0 0 1.83575 -.33 -77.605)" x1="12.207" y1="53.535" x2="12.128" y2="64.893"/><linearGradient xlink:href="#o" id="E" x1="30" y1="-3" x2="32" y2="10" gradientUnits="userSpaceOnUse" gradientTransform="matrix(.93922 0 0 .93066 2.62 1.204)"/></defs><g transform="translate(0 16)"><path style="marker:none" d="M41.1 35.051c0 2.514-7.558 4.552-16.882 4.552-9.323 0-16.882-2.038-16.882-4.552S14.895 30.5 24.218 30.5c9.324 0 16.883 2.038 16.883 4.552z" transform="matrix(1.5522 0 0 2.68114 -5.422 -60.181)" opacity=".509" color="#000" fill="url(#p)" fill-rule="evenodd" overflow="visible"/><path style="marker:none" d="M-26.264 29.716c0 2.176-4.206 3.94-9.394 3.94-5.189 0-9.395-1.764-9.395-3.94s4.206-3.94 9.395-3.94c5.188 0 9.394 1.764 9.394 3.94z" transform="matrix(1.47793 0 0 1.43538 84.7 -8.243)" color="#000" fill="#adb0aa" fill-rule="evenodd" stroke="#4b4d4a" stroke-width="1.373" overflow="visible"/><path transform="matrix(1.33364 0 0 1.188 79.556 -1.368)" d="M-26.264 29.716c0 2.176-4.206 3.94-9.394 3.94-5.189 0-9.395-1.764-9.395-3.94s4.206-3.94 9.395-3.94c5.188 0 9.394 1.764 9.394 3.94z" style="marker:none" color="#000" fill="none" stroke="url(#q)" stroke-width=".794" overflow="visible"/><path style="marker:none" d="M-26.264 29.716c0 2.176-4.206 3.94-9.394 3.94-5.189 0-9.395-1.764-9.395-3.94s4.206-3.94 9.395-3.94c5.188 0 9.394 1.764 9.394 3.94z" transform="matrix(1.23784 0 0 1.22389 76.047 -4.04)" color="#000" fill="none" stroke="url(#r)" stroke-width=".812" overflow="visible"/><path style="marker:none" color="#000" fill="url(#s)" fill-rule="evenodd" overflow="visible" d="M25.493 24.771h13.36v9.136h-13.36z"/><path style="marker:none" d="M7.397-13h49.206c1.335 0 2.38.845 2.442 2.03l1.951 37.044c.086 1.619-1.32 2.926-2.96 2.926H5.964c-1.64 0-3.045-1.307-2.96-2.926L4.956-10.97c.06-1.12.802-2.03 2.442-2.03z" color="#000" fill="url(#t)" fill-rule="evenodd" stroke="url(#u)" stroke-width="2" overflow="visible"/><path d="M8.845-9L7 22h47L52.018-8.869 8.845-9z" fill="url(#v)" fill-rule="evenodd" stroke="#000079" stroke-width="2" stroke-linejoin="round"/><path d="M5.844 25.535h52.361" fill="none" stroke="url(#w)" stroke-width=".996" stroke-linecap="round" stroke-opacity=".248"/><path d="M7.685-10.947L56.207-11c.407 0 .802.33.835.91l1.952 34.599c.084 1.474-.773 2.491-2.291 2.491H7.208c-1.518 0-2.284-1.017-2.202-2.491L6.904-9.66c.056-.998.239-1.288.781-1.288z" style="marker:none" color="#000" fill="none" stroke="url(#x)" stroke-width="2" stroke-opacity=".701" overflow="visible"/><path d="M10.17-8L9 16.752C25.097 13.427 31.476 2.22 51.491-1.458l-.235-6.45L10.17-8z" opacity=".531" fill="url(#y)" fill-rule="evenodd"/><path transform="matrix(1.96748 0 0 .94513 -12.773 -11.615)" d="M35.62 3.938a.84.84 0 1 1-1.679 0 .84.84 0 0 1 1.68 0z" style="marker:none" color="#000" fill="url(#z)" fill-rule="evenodd" overflow="visible"/><path style="marker:none" d="M35.62 3.938a.84.84 0 1 1-1.679 0 .84.84 0 0 1 1.68 0z" transform="matrix(1.96748 0 0 .94513 -12.605 -8.593)" color="#000" fill="url(#A)" fill-rule="evenodd" overflow="visible"/><path transform="matrix(1.96748 0 0 .94513 -12.437 -5.722)" d="M35.62 3.938a.84.84 0 1 1-1.679 0 .84.84 0 0 1 1.68 0z" style="marker:none" color="#000" fill="url(#B)" fill-rule="evenodd" overflow="visible"/><path style="marker:none" d="M35.62 3.938a.84.84 0 1 1-1.679 0 .84.84 0 0 1 1.68 0z" transform="matrix(1.96748 0 0 .94513 -12.27 -2.851)" color="#000" fill="url(#C)" fill-rule="evenodd" overflow="visible"/><path transform="matrix(1.96748 0 0 .94513 -12.101 .02)" d="M35.62 3.938a.84.84 0 1 1-1.679 0 .84.84 0 0 1 1.68 0z" style="marker:none" color="#000" fill="url(#D)" fill-rule="evenodd" overflow="visible"/><path d="M29.229 23.5h.416c.124 0 .219.027.285.08.066.053.1.13.1.228 0 .1-.034.175-.1.23a.445.445 0 0 1-.285.079h-.165v.328h-.251V23.5m.25.176v.264h.14a.167.167 0 0 0 .112-.034.123.123 0 0 0 .04-.098.122.122 0 0 0-.04-.097.168.168 0 0 0-.112-.035h-.14m1.172-.017a.211.211 0 0 0-.178.083.373.373 0 0 0-.063.231c0 .1.02.176.063.231a.211.211 0 0 0 .178.082.212.212 0 0 0 .178-.082.372.372 0 0 0 .063-.23c0-.1-.02-.178-.063-.232a.212.212 0 0 0-.178-.083m0-.176c.156 0 .278.043.367.13a.481.481 0 0 1 .133.36.48.48 0 0 1-.133.36.502.502 0 0 1-.367.13.504.504 0 0 1-.368-.13.48.48 0 0 1-.133-.36c0-.153.045-.273.133-.36a.504.504 0 0 1 .368-.13m.689.017h.28l.354.648V23.5h.238v.945h-.28l-.354-.648v.648h-.238V23.5m.98 0h.274l.222.336.221-.336h.275l-.37.547v.398h-.251v-.398l-.371-.547" font-size=".903" font-weight="700" fill="#4a4a4a" font-family="Bitstream Vera Sans"/><path d="M39.38 6.666C41.257 3.322 46.707.39 39.483-7l.228.202c-5.324 5.242-12.05 4.847-20.8 4.759-5.313-.054-7.027 2.468-7.88 5.919L11 4.003c7.494 2.745 17.83 6.918 14.638 13.362 1.958-.822 3.81-2.14 5.522-4.218 2.738-3.326 5.397-5.417 8.22-6.481z" fill="url(#E)" fill-rule="evenodd" stroke="#172a04" stroke-width="2" stroke-linejoin="round"/><path transform="matrix(.52127 0 0 .22311 30.918 10.276)" d="M43.25 41.625c0 3.245-8.087 5.875-18.063 5.875-9.975 0-18.062-2.63-18.062-5.875s8.087-5.875 18.063-5.875c9.975 0 18.062 2.63 18.062 5.875z" style="marker:none" opacity=".267" color="#000" fill="url(#F)" fill-rule="evenodd" overflow="visible"/><path d="M51.564.101L36.482 19.66h15.082V.1zm-3.195 9.502v6.715h-4.86l4.86-6.715z" fill="url(#G)" fill-rule="evenodd" stroke="#c4a000" stroke-width=".358"/><path d="M51.042 19.195V1.615l-13.518 17.55 13.518.03z" opacity=".639" fill="none" stroke="url(#H)" stroke-width=".349"/><path d="M51.046 17.812h-.408M51.046 15.894h-.408M51.046 13.975h-.408M51.046 12.057h-.408M51.046 10.139h-.408M51.046 8.22h-.408M51.046 6.302h-.408M51.046 4.384h-.408" fill="#2e3436" fill-opacity=".75" fill-rule="evenodd" stroke="#c4a000" stroke-width=".349" stroke-linecap="square"/><rect width="23.865" height="4.243" x="8.485" y="12.821" ry="0" transform="matrix(.69778 -.49788 .58429 -.08283 9.444 15.297)" fill="#fbf8fe" fill-rule="evenodd" filter="url(#I)"/></g></svg>