<svg xmlns="http://www.w3.org/2000/svg" xmlns:xlink="http://www.w3.org/1999/xlink" width="64" height="64"><defs><linearGradient id="d"><stop offset="0" stop-color="#729fcf"/><stop offset="1" stop-color="#204a87"/></linearGradient><linearGradient id="a"><stop offset="0" stop-color="#71b2f8"/><stop offset="1" stop-color="#002795"/></linearGradient><linearGradient id="b"><stop offset="0" stop-color="#faff2b"/><stop offset="1" stop-color="#fa0"/></linearGradient><linearGradient id="c"><stop offset="0" stop-color="#faff2b"/><stop offset="1" stop-color="#fa0"/></linearGradient><radialGradient xlink:href="#d" id="h" gradientUnits="userSpaceOnUse" gradientTransform="matrix(1.10898 .01165 -.00396 .51526 -3.786 21.884)" cx="35.713" cy="26.797" fx="35.713" fy="26.797" r="33"/><linearGradient xlink:href="#e" id="k" gradientUnits="userSpaceOnUse" x1="-18" y1="18" x2="-22" y2="5" gradientTransform="matrix(.76342 0 0 .7575 -4.596 2.753)"/><linearGradient id="e"><stop offset="0" stop-color="#a40000"/><stop offset="1" stop-color="#ef2929"/></linearGradient><linearGradient xlink:href="#f" id="i" gradientUnits="userSpaceOnUse" x1="-18" y1="18" x2="-22" y2="5" gradientTransform="matrix(.76342 0 0 .7575 -4.596 2.753)"/><linearGradient id="f"><stop offset="0" stop-color="#a40000"/><stop offset="1" stop-color="#ef2929"/></linearGradient><linearGradient xlink:href="#g" id="j" gradientUnits="userSpaceOnUse" x1="-18" y1="18" x2="-22" y2="5" gradientTransform="matrix(.76342 0 0 .7575 -4.596 2.753)"/><linearGradient id="g"><stop offset="0" stop-color="#a40000"/><stop offset="1" stop-color="#ef2929"/></linearGradient></defs><g stroke-linecap="round" stroke-linejoin="round" stroke-miterlimit="4.5" stroke-dashoffset="20.4"><path transform="matrix(.84197 -.47313 .48611 .8195 -21.622 12.307)" d="M68 46c0 8.837-14.327 16-32 16-17.673 0-32-7.163-32-16s14.327-16 32-16c17.673 0 32 7.163 32 16z" fill="url(#h)" stroke="#0b1521" stroke-width="2.085"/><path transform="matrix(.78433 -.43745 .42264 .70717 -16.645 16.172)" d="M68.137 46c0 8.837-14.388 16-32.137 16-17.749 0-32.137-7.163-32.137-16S18.25 30 36 30c17.749 0 32.137 7.163 32.137 16z" fill="none" stroke="#729fcf" stroke-width="2.326"/></g><g fill="none"><path d="M30.033 31.954l26-14" stroke="#280000" stroke-width="6"/><path d="M30.033 31.954l26-14" stroke="#ef2929" stroke-width="2"/></g><g fill="none"><path d="M30.033 31.954l10 14" stroke="#280000" stroke-width="6"/><path d="M30.033 31.954l10 14" stroke="#ef2929" stroke-width="2"/></g><g stroke-width="3.549"><path d="M-26.118 5.664a8.938 8.868 0 1 1 13.577 11.537A8.938 8.868 0 1 1-26.118 5.664z" fill="#ef2929" stroke="#280000" transform="matrix(.56138 0 0 .56577 40.903 25.466)"/><path d="M-23.402 7.974a5.344 5.303 0 1 1 8.118 6.899 5.344 5.303 0 0 1-8.118-6.899z" fill="url(#i)" stroke="#ef2929" transform="matrix(.56138 0 0 .56577 40.903 25.466)"/></g><g stroke-width="3.549"><path d="M-26.118 5.664a8.938 8.868 0 1 1 13.577 11.537A8.938 8.868 0 1 1-26.118 5.664z" fill="#ef2929" stroke="#280000" transform="matrix(.56138 0 0 .56577 50.903 39.505)"/><path d="M-23.402 7.974a5.344 5.303 0 1 1 8.118 6.899 5.344 5.303 0 0 1-8.118-6.899z" fill="url(#j)" stroke="#ef2929" transform="matrix(.56138 0 0 .56577 50.903 39.505)"/></g><g stroke-width="3.549"><path d="M-26.118 5.664a8.938 8.868 0 1 1 13.577 11.537A8.938 8.868 0 1 1-26.118 5.664z" fill="#ef2929" stroke="#280000" transform="matrix(.56138 0 0 .56577 66.903 11.505)"/><path d="M-23.402 7.974a5.344 5.303 0 1 1 8.118 6.899 5.344 5.303 0 0 1-8.118-6.899z" fill="url(#k)" stroke="#ef2929" transform="matrix(.56138 0 0 .56577 66.903 11.505)"/></g></svg>