<svg xmlns="http://www.w3.org/2000/svg" xmlns:xlink="http://www.w3.org/1999/xlink" width="64" height="64"><defs><linearGradient id="a"><stop offset="0" stop-color="#faff2b"/><stop offset="1" stop-color="#fa0"/></linearGradient><linearGradient xlink:href="#b" id="h" x1="53.897" y1="51.18" x2="47.502" y2="21.837" gradientUnits="userSpaceOnUse" gradientTransform="translate(0 -8)"/><linearGradient id="b"><stop offset="0" stop-color="#204a87"/><stop offset="1" stop-color="#3465a4"/></linearGradient><linearGradient xlink:href="#c" id="i" x1="22.117" y1="55.718" x2="17.329" y2="21.311" gradientUnits="userSpaceOnUse" gradientTransform="translate(0 -8)"/><linearGradient id="c"><stop offset="0" stop-color="#3465a4"/><stop offset="1" stop-color="#729fcf"/></linearGradient><linearGradient xlink:href="#d" id="j" gradientUnits="userSpaceOnUse" x1="-18" y1="18" x2="-22" y2="5" gradientTransform="matrix(.76342 0 0 .7575 -4.596 2.753)"/><linearGradient id="d"><stop offset="0" stop-color="#a40000"/><stop offset="1" stop-color="#ef2929"/></linearGradient><linearGradient xlink:href="#e" id="k" gradientUnits="userSpaceOnUse" x1="-18" y1="18" x2="-22" y2="5" gradientTransform="matrix(.76342 0 0 .7575 -4.596 2.753)"/><linearGradient id="e"><stop offset="0" stop-color="#a40000"/><stop offset="1" stop-color="#ef2929"/></linearGradient><linearGradient xlink:href="#f" id="l" gradientUnits="userSpaceOnUse" x1="-18" y1="18" x2="-22" y2="5" gradientTransform="matrix(.76342 0 0 .7575 -4.596 2.753)"/><linearGradient id="f"><stop offset="0" stop-color="#a40000"/><stop offset="1" stop-color="#ef2929"/></linearGradient><linearGradient xlink:href="#g" id="m" gradientUnits="userSpaceOnUse" x1="-18" y1="18" x2="-22" y2="5" gradientTransform="matrix(.76342 0 0 .7575 -4.596 2.753)"/><linearGradient id="g"><stop offset="0" stop-color="#a40000"/><stop offset="1" stop-color="#ef2929"/></linearGradient></defs><path d="M7 17l30 4 20-10-16-2z" fill="#729fcf" stroke="#0b1521" stroke-width="2" stroke-linejoin="round"/><path d="M57 11v18L37 53V21z" fill="url(#h)" stroke="#0b1521" stroke-width="2" stroke-linejoin="round"/><path d="M7 17l30 4v32L7 49z" style="marker:none" fill="url(#i)" fill-rule="evenodd" stroke="#0b1521" stroke-width="2" stroke-linejoin="round" overflow="visible"/><path d="M9 19.428l.009 27.919 26.008 3.269-.008-27.934z" fill="none" stroke="#729fcf" stroke-width="2"/><path d="M39.012 22.434L39 49.969l16.001-22.3V14.3z" fill="none" stroke="#3465a4" stroke-width="2"/><g fill="none"><path d="M8 48l29 4" stroke="#280000" stroke-width="6"/><path d="M8 48l29 4" stroke="#ef2929" stroke-width="2"/></g><g fill="none"><path d="M37 52l19-24" stroke="#280000" stroke-width="6"/><path d="M37 52l19-24" stroke="#ef2929" stroke-width="2"/></g><g fill="none"><path d="M37 23v29" stroke="#280000" stroke-width="6"/><path d="M37 23v29" stroke="#ef2929" stroke-width="2"/></g><g stroke-width="3.549"><path d="M-26.118 5.664a8.938 8.868 0 1 1 13.577 11.537A8.938 8.868 0 1 1-26.118 5.664z" fill="#ef2929" stroke="#280000" transform="matrix(.56138 0 0 .56577 47.832 45.512)"/><path d="M-23.402 7.974a5.344 5.303 0 1 1 8.118 6.899 5.344 5.303 0 0 1-8.118-6.899z" fill="url(#j)" stroke="#ef2929" transform="matrix(.56138 0 0 .56577 47.832 45.512)"/></g><g stroke-width="3.549"><path d="M-26.118 5.664a8.938 8.868 0 1 1 13.577 11.537A8.938 8.868 0 1 1-26.118 5.664z" fill="#ef2929" stroke="#280000" transform="matrix(.56138 0 0 .56577 66.832 21.512)"/><path d="M-23.402 7.974a5.344 5.303 0 1 1 8.118 6.899 5.344 5.303 0 0 1-8.118-6.899z" fill="url(#k)" stroke="#ef2929" transform="matrix(.56138 0 0 .56577 66.832 21.512)"/></g><g stroke-width="3.549"><path d="M-26.118 5.664a8.938 8.868 0 1 1 13.577 11.537A8.938 8.868 0 1 1-26.118 5.664z" fill="#ef2929" stroke="#280000" transform="matrix(.56138 0 0 .56577 18.832 41.512)"/><path d="M-23.402 7.974a5.344 5.303 0 1 1 8.118 6.899 5.344 5.303 0 0 1-8.118-6.899z" fill="url(#l)" stroke="#ef2929" transform="matrix(.56138 0 0 .56577 18.832 41.512)"/></g><g stroke-width="3.549"><path d="M-26.118 5.664a8.938 8.868 0 1 1 13.577 11.537A8.938 8.868 0 1 1-26.118 5.664z" fill="#ef2929" stroke="#280000" transform="matrix(.56138 0 0 .56577 47.832 16.512)"/><path d="M-23.402 7.974a5.344 5.303 0 1 1 8.118 6.899 5.344 5.303 0 0 1-8.118-6.899z" fill="url(#m)" stroke="#ef2929" transform="matrix(.56138 0 0 .56577 47.832 16.512)"/></g></svg>