<svg xmlns="http://www.w3.org/2000/svg" xmlns:xlink="http://www.w3.org/1999/xlink" width="64" height="64"><defs><linearGradient id="e"><stop offset="0" stop-color="#729fcf"/><stop offset="1" stop-color="#204a87"/></linearGradient><linearGradient id="b"><stop offset="0" stop-color="#71b2f8"/><stop offset="1" stop-color="#002795"/></linearGradient><linearGradient id="a"><stop offset="0" stop-color="#71b2f8"/><stop offset="1" stop-color="#71b2f8" stop-opacity=".016"/></linearGradient><linearGradient id="c"><stop offset="0" stop-color="#faff2b"/><stop offset="1" stop-color="#fa0"/></linearGradient><linearGradient id="d"><stop offset="0" stop-color="#faff2b"/><stop offset="1" stop-color="#fa0"/></linearGradient><linearGradient xlink:href="#e" id="k" x1="10.203" y1="20.353" x2="29.541" y2="54.686" gradientUnits="userSpaceOnUse" spreadMethod="reflect"/><linearGradient xlink:href="#f" id="l" gradientUnits="userSpaceOnUse" x1="-18" y1="18" x2="-22" y2="5" gradientTransform="matrix(.76342 0 0 .7575 -4.596 2.753)"/><linearGradient id="f"><stop offset="0" stop-color="#a40000"/><stop offset="1" stop-color="#ef2929"/></linearGradient><linearGradient xlink:href="#g" id="m" gradientUnits="userSpaceOnUse" x1="-18" y1="18" x2="-22" y2="5" gradientTransform="matrix(.76342 0 0 .7575 -4.596 2.753)"/><linearGradient id="g"><stop offset="0" stop-color="#a40000"/><stop offset="1" stop-color="#ef2929"/></linearGradient><linearGradient xlink:href="#h" id="n" gradientUnits="userSpaceOnUse" x1="-18" y1="18" x2="-22" y2="5" gradientTransform="matrix(.76342 0 0 .7575 -4.596 2.753)"/><linearGradient id="h"><stop offset="0" stop-color="#a40000"/><stop offset="1" stop-color="#ef2929"/></linearGradient><linearGradient xlink:href="#i" id="o" gradientUnits="userSpaceOnUse" x1="-18" y1="18" x2="-22" y2="5" gradientTransform="matrix(.76342 0 0 .7575 -4.596 2.753)"/><linearGradient id="i"><stop offset="0" stop-color="#a40000"/><stop offset="1" stop-color="#ef2929"/></linearGradient><linearGradient xlink:href="#j" id="p" gradientUnits="userSpaceOnUse" x1="-18" y1="18" x2="-22" y2="5" gradientTransform="matrix(.76342 0 0 .7575 -4.596 2.753)"/><linearGradient id="j"><stop offset="0" stop-color="#a40000"/><stop offset="1" stop-color="#ef2929"/></linearGradient></defs><path d="M32 13C15.984 13 3 22.85 3 35s12.984 22 29 22 29-9.85 29-22-12.984-22-29-22zm0 14c8.284 0 15 3.134 15 7s-6.716 7-15 7c-8.284 0-15-3.134-15-7s6.716-7 15-7z" fill="url(#k)" stroke="#0b1521" stroke-width="2" stroke-linecap="round" stroke-linejoin="round" stroke-miterlimit="4.5" stroke-dashoffset="20.4"/><path d="M32 15C17.088 15 5 23.954 5 35s12.088 20 27 20 27-8.954 27-20-12.088-20-27-20zm-.994 10.044c13.922-.179 17.882 5.367 17.882 8.881 0 3.515-4.103 9.253-17.03 9.11-11.639-.13-16.9-5.678-16.9-9.193 0-3.514 4.41-8.648 16.048-8.798z" fill="none" stroke="#729fcf" stroke-width="2" stroke-linecap="round" stroke-linejoin="round" stroke-miterlimit="4.5" stroke-dashoffset="20.4"/><g fill="none"><path d="M10 57l19 21" stroke="#280000" stroke-width="20.381" transform="matrix(.3035 0 0 -.28557 7.302 68.054)"/><path d="M10 57l19 21" stroke="#ef2929" stroke-width="6.794" transform="matrix(.3035 0 0 -.28557 7.302 68.054)"/></g><g stroke-width="3.549"><path d="M-26.118 5.664a8.938 8.868 0 1 1 13.577 11.537A8.938 8.868 0 1 1-26.118 5.664z" fill="#ef2929" stroke="#280000" transform="matrix(.56138 0 0 .56577 28.832 37.551)"/><path d="M-23.402 7.974a5.344 5.303 0 1 1 8.118 6.899 5.344 5.303 0 0 1-8.118-6.899z" fill="url(#l)" stroke="#ef2929" transform="matrix(.56138 0 0 .56577 28.832 37.551)"/></g><g stroke-width="3.549"><path d="M-26.118 5.664a8.938 8.868 0 1 1 13.577 11.537A8.938 8.868 0 1 1-26.118 5.664z" fill="#ef2929" stroke="#280000" transform="matrix(.56138 0 0 .56577 20.832 45.551)"/><path d="M-23.402 7.974a5.344 5.303 0 1 1 8.118 6.899 5.344 5.303 0 0 1-8.118-6.899z" fill="url(#m)" stroke="#ef2929" transform="matrix(.56138 0 0 .56577 20.832 45.551)"/></g><g fill="none"><path d="M-80.074-6.816v77.04" stroke="#280000" stroke-width="20.381" transform="matrix(.3035 0 0 -.28557 56.302 32.054)"/><path d="M-80.074-6.816v77.04" stroke="#ef2929" stroke-width="6.794" transform="matrix(.3035 0 0 -.28557 56.302 32.054)"/></g><g fill="none"><path d="M-20.765-13.82l-79.08 42.022" stroke="#280000" stroke-width="20.381" transform="matrix(.3035 0 0 -.28557 62.302 42.054)"/><path d="M-20.765-13.82l-79.08 42.022" stroke="#ef2929" stroke-width="6.794" transform="matrix(.3035 0 0 -.28557 62.302 42.054)"/></g><g stroke-width="3.549"><path d="M-26.118 5.664a8.938 8.868 0 1 1 13.577 11.537A8.938 8.868 0 1 1-26.118 5.664z" fill="#ef2929" stroke="#280000" transform="matrix(.56138 0 0 .56577 42.832 27.551)"/><path d="M-23.402 7.974a5.344 5.303 0 1 1 8.118 6.899 5.344 5.303 0 0 1-8.118-6.899z" fill="url(#n)" stroke="#ef2929" transform="matrix(.56138 0 0 .56577 42.832 27.551)"/></g><g stroke-width="3.549"><path d="M-26.118 5.664a8.938 8.868 0 1 1 13.577 11.537A8.938 8.868 0 1 1-26.118 5.664z" fill="#ef2929" stroke="#280000" transform="matrix(.56138 0 0 .56577 42.832 5.551)"/><path d="M-23.402 7.974a5.344 5.303 0 1 1 8.118 6.899 5.344 5.303 0 0 1-8.118-6.899z" fill="url(#o)" stroke="#ef2929" transform="matrix(.56138 0 0 .56577 42.832 5.551)"/></g><g stroke-width="3.549"><path d="M-26.118 5.664a8.938 8.868 0 1 1 13.577 11.537A8.938 8.868 0 1 1-26.118 5.664z" fill="#ef2929" stroke="#280000" transform="matrix(.56138 0 0 .56577 66.832 39.551)"/><path d="M-23.402 7.974a5.344 5.303 0 1 1 8.118 6.899 5.344 5.303 0 0 1-8.118-6.899z" fill="url(#p)" stroke="#ef2929" transform="matrix(.56138 0 0 .56577 66.832 39.551)"/></g></svg>