<svg xmlns="http://www.w3.org/2000/svg" xmlns:xlink="http://www.w3.org/1999/xlink" width="64" height="64"><defs><linearGradient id="b"><stop offset="0" stop-color="#729fcf"/><stop offset="1" stop-color="#204a87"/></linearGradient><linearGradient id="a"><stop offset="0" stop-color="#fce94f"/><stop offset="1" stop-color="#c4a000"/></linearGradient><radialGradient r="22" fy="91.957" fx="225.938" cy="91.957" cx="225.938" gradientTransform="matrix(-1.4091 3.86364 -.97565 -.35583 439.085 -816.22)" gradientUnits="userSpaceOnUse" id="f" xlink:href="#b"/><linearGradient xlink:href="#c" id="h" gradientUnits="userSpaceOnUse" x1="-18" y1="18" x2="-22" y2="5" gradientTransform="matrix(.76342 0 0 .7575 -4.596 2.753)"/><linearGradient id="c"><stop offset="0" stop-color="#a40000"/><stop offset="1" stop-color="#ef2929"/></linearGradient><linearGradient xlink:href="#d" id="g" gradientUnits="userSpaceOnUse" x1="-18" y1="18" x2="-22" y2="5" gradientTransform="matrix(.76342 0 0 .7575 -4.596 2.753)"/><linearGradient id="d"><stop offset="0" stop-color="#a40000"/><stop offset="1" stop-color="#ef2929"/></linearGradient><linearGradient xlink:href="#e" id="i" gradientUnits="userSpaceOnUse" x1="-18" y1="18" x2="-22" y2="5" gradientTransform="matrix(.76342 0 0 .7575 -4.596 2.753)"/><linearGradient id="e"><stop offset="0" stop-color="#a40000"/><stop offset="1" stop-color="#ef2929"/></linearGradient></defs><path d="M34 3L13 55c0 8 42 8 42 0z" fill="url(#f)" stroke="#0b1521" stroke-width="2" stroke-linejoin="round"/><path d="M34 8L15 55c3 6 35 6 38 0z" fill="none" stroke="#729fcf" stroke-width="2"/><g fill="none"><path d="M14 52h20" stroke="#280000" stroke-width="6"/><path d="M14 52h20" stroke="#ef2929" stroke-width="2"/></g><g fill="none"><path d="M22 36v37" stroke="#280000" stroke-width="5.564" transform="matrix(1 0 0 1.1628 12 -33.372)"/><path d="M22 36v37" stroke="#ef2929" stroke-width="1.855" transform="matrix(1 0 0 1.1628 12 -33.372)"/></g><g stroke-width="3.549"><path d="M-26.118 5.664a8.938 8.868 0 1 1 13.577 11.537A8.938 8.868 0 1 1-26.118 5.664z" fill="#ef2929" stroke="#280000" transform="matrix(.56138 0 0 .56577 44.832 45.512)"/><path d="M-23.402 7.974a5.344 5.303 0 1 1 8.118 6.899 5.344 5.303 0 0 1-8.118-6.899z" fill="url(#g)" stroke="#ef2929" transform="matrix(.56138 0 0 .56577 44.832 45.512)"/></g><g stroke-width="3.549"><path d="M-26.118 5.664a8.938 8.868 0 1 1 13.577 11.537A8.938 8.868 0 1 1-26.118 5.664z" fill="#ef2929" stroke="#280000" transform="matrix(.56138 0 0 .56577 24.832 45.512)"/><path d="M-23.402 7.974a5.344 5.303 0 1 1 8.118 6.899 5.344 5.303 0 0 1-8.118-6.899z" fill="url(#h)" stroke="#ef2929" transform="matrix(.56138 0 0 .56577 24.832 45.512)"/></g><g stroke-width="3.549"><path d="M-26.118 5.664a8.938 8.868 0 1 1 13.577 11.537A8.938 8.868 0 1 1-26.118 5.664z" fill="#ef2929" stroke="#280000" transform="matrix(.56138 0 0 .56577 44.832 1.512)"/><path d="M-23.402 7.974a5.344 5.303 0 1 1 8.118 6.899 5.344 5.303 0 0 1-8.118-6.899z" fill="url(#i)" stroke="#ef2929" transform="matrix(.56138 0 0 .56577 44.832 1.512)"/></g></svg>