<svg xmlns="http://www.w3.org/2000/svg" xmlns:xlink="http://www.w3.org/1999/xlink" width="64" height="64"><defs><linearGradient id="g"><stop offset="0" stop-color="#3465a4"/><stop offset="1" stop-color="#204a87"/></linearGradient><linearGradient id="f"><stop offset="0" stop-color="#729fcf"/><stop offset="1" stop-color="#3465a4"/></linearGradient><linearGradient id="a"><stop offset="0" stop-color="#faff2b"/><stop offset="1" stop-color="#fa0"/></linearGradient><linearGradient id="b"><stop offset="0" stop-color="#71b2f8"/><stop offset="1" stop-color="#002795"/></linearGradient><linearGradient id="c"><stop offset="0" stop-color="#71b2f8"/><stop offset="1" stop-color="#002795"/></linearGradient><linearGradient id="d"><stop offset="0" stop-color="#71b2f8"/><stop offset="1" stop-color="#002795"/></linearGradient><linearGradient id="e"><stop offset="0" stop-color="#faff2b"/><stop offset="1" stop-color="#fa0"/></linearGradient><linearGradient xlink:href="#f" id="m" x1="-62" y1="23" x2="-60" y2="53" gradientUnits="userSpaceOnUse" gradientTransform="translate(82)"/><linearGradient xlink:href="#g" id="l" x1="-44" y1="25" x2="-40" y2="55" gradientUnits="userSpaceOnUse" gradientTransform="translate(82)"/><linearGradient xlink:href="#h" id="n" gradientUnits="userSpaceOnUse" x1="-18" y1="18" x2="-22" y2="5" gradientTransform="matrix(.76342 0 0 .7575 -4.596 2.753)"/><linearGradient id="h"><stop offset="0" stop-color="#a40000"/><stop offset="1" stop-color="#ef2929"/></linearGradient><linearGradient xlink:href="#i" id="o" gradientUnits="userSpaceOnUse" x1="-18" y1="18" x2="-22" y2="5" gradientTransform="matrix(.76342 0 0 .7575 -4.596 2.753)"/><linearGradient id="i"><stop offset="0" stop-color="#a40000"/><stop offset="1" stop-color="#ef2929"/></linearGradient><linearGradient xlink:href="#j" id="p" gradientUnits="userSpaceOnUse" x1="-18" y1="18" x2="-22" y2="5" gradientTransform="matrix(.76342 0 0 .7575 -4.596 2.753)"/><linearGradient id="j"><stop offset="0" stop-color="#a40000"/><stop offset="1" stop-color="#ef2929"/></linearGradient><linearGradient id="k"><stop offset="0" stop-color="#a40000"/><stop offset="1" stop-color="#ef2929"/></linearGradient></defs><path d="M-10.974 29.026l-25.99 6.964-19.026-19.026 6.964-25.99 25.99-6.964L-4.01 3.036z" transform="matrix(.76951 0 0 .42305 58.085 9.765)" fill="#729fcf" stroke="#0b1521" stroke-width="3.505" stroke-linecap="round" stroke-linejoin="round" stroke-miterlimit="4.5" stroke-dashoffset="20.4"/><path d="M15 17v34l14 8V25z" fill="#729fcf" stroke="#0b1521" stroke-width="2" stroke-linejoin="round"/><path d="M49 22v34l-20 3V25z" fill="url(#l)" stroke="#0b1521" stroke-width="2" stroke-linejoin="round"/><path d="M55 11l-6 11v34l6-11z" fill="#3465a4" stroke="#0b1521" stroke-width="2" stroke-linejoin="round"/><path d="M17 20.4v29.5l10 5.7V26.1z" fill="url(#m)" stroke="#729fcf" stroke-width="2"/><path d="M47 24.3v30l-16 2.4v-30z" fill="none" stroke="#3465a4" stroke-width="2"/><g fill="none"><path d="M29 56V25" stroke="#280000" stroke-width="6"/><path d="M29 56V25" stroke="#ef2929" stroke-width="2"/></g><g fill="none"><path d="M29 56l-14-5" stroke="#280000" stroke-width="6"/><path d="M29 56l-14-5" stroke="#ef2929" stroke-width="2"/></g><g stroke-width="3.549"><path d="M-26.118 5.664a8.938 8.868 0 1 1 13.577 11.537A8.938 8.868 0 1 1-26.118 5.664z" fill="#ef2929" stroke="#280000" transform="matrix(.56138 0 0 .56577 39.832 49.512)"/><path d="M-23.402 7.974a5.344 5.303 0 1 1 8.118 6.899 5.344 5.303 0 0 1-8.118-6.899z" fill="url(#n)" stroke="#ef2929" transform="matrix(.56138 0 0 .56577 39.832 49.512)"/></g><g stroke-width="3.549"><path d="M-26.118 5.664a8.938 8.868 0 1 1 13.577 11.537A8.938 8.868 0 1 1-26.118 5.664z" fill="#ef2929" stroke="#280000" transform="matrix(.56138 0 0 .56577 39.832 18.512)"/><path d="M-23.402 7.974a5.344 5.303 0 1 1 8.118 6.899 5.344 5.303 0 0 1-8.118-6.899z" fill="url(#o)" stroke="#ef2929" transform="matrix(.56138 0 0 .56577 39.832 18.512)"/></g><g stroke-width="3.549"><path d="M-26.118 5.664a8.938 8.868 0 1 1 13.577 11.537A8.938 8.868 0 1 1-26.118 5.664z" fill="#ef2929" stroke="#280000" transform="matrix(.56138 0 0 .56577 24.87 43.551)"/><path d="M-23.402 7.974a5.344 5.303 0 1 1 8.118 6.899 5.344 5.303 0 0 1-8.118-6.899z" fill="url(#p)" stroke="#ef2929" transform="matrix(.56138 0 0 .56577 24.87 43.551)"/></g></svg>