<svg xmlns="http://www.w3.org/2000/svg" xmlns:xlink="http://www.w3.org/1999/xlink" width="64" height="64"><defs><linearGradient id="c"><stop offset="0" stop-color="#729fcf"/><stop offset="1" stop-color="#204a87"/></linearGradient><linearGradient xlink:href="#a" id="f" gradientUnits="userSpaceOnUse" x1="-18" y1="18" x2="-22" y2="5" gradientTransform="matrix(.76342 0 0 .7575 -4.596 2.753)"/><linearGradient id="a"><stop offset="0" stop-color="#a40000"/><stop offset="1" stop-color="#ef2929"/></linearGradient><linearGradient xlink:href="#b" id="e" gradientUnits="userSpaceOnUse" x1="-18" y1="18" x2="-22" y2="5" gradientTransform="matrix(.76342 0 0 .7575 -4.596 2.753)"/><linearGradient id="b"><stop offset="0" stop-color="#a40000"/><stop offset="1" stop-color="#ef2929"/></linearGradient><radialGradient xlink:href="#c" id="d" cx="20.803" cy="18.627" fx="20.803" fy="18.627" r="27.085" gradientUnits="userSpaceOnUse" gradientTransform="matrix(.66667 .7 -1.35108 1.28674 32.1 -19.903)"/></defs><path style="marker:none" d="M57.818 30.364a26.182 26.182 0 1 1-52.363 0 26.182 26.182 0 1 1 52.363 0z" transform="matrix(1.10764 0 0 1.10764 -3.042 -1.632)" color="#000" fill="url(#d)" fill-rule="evenodd" stroke="#0b1521" stroke-width="1.806" overflow="visible"/><path style="marker:none" d="M59 32a27 27 0 1 1-54 0 27 27 0 1 1 54 0z" color="#000" fill="none" stroke="#729fcf" stroke-width="1.99959375" overflow="visible"/><path style="marker:none" d="M61 32a29 29 0 1 1-58 0 29 29 0 1 1 58 0z" color="#000" fill="none" stroke="#0b1521" stroke-width="2.0003978399999998" overflow="visible"/><g fill="none"><path d="M32 32l19-21" stroke="#280000" stroke-width="6"/><path d="M32 32l19-21" stroke="#ef2929" stroke-width="2"/></g><g stroke-width="3.549"><path d="M-26.118 5.664a8.938 8.868 0 1 1 13.577 11.537A8.938 8.868 0 1 1-26.118 5.664z" fill="#ef2929" stroke="#280000" transform="matrix(.56138 0 0 .56577 42.832 25.512)"/><path d="M-23.402 7.974a5.344 5.303 0 1 1 8.118 6.899 5.344 5.303 0 0 1-8.118-6.899z" fill="url(#e)" stroke="#ef2929" transform="matrix(.56138 0 0 .56577 42.832 25.512)"/></g><g stroke-width="3.549"><path d="M-26.118 5.664a8.938 8.868 0 1 1 13.577 11.537A8.938 8.868 0 1 1-26.118 5.664z" fill="#ef2929" stroke="#280000" transform="matrix(.56138 0 0 .56577 62.832 3.512)"/><path d="M-23.402 7.974a5.344 5.303 0 1 1 8.118 6.899 5.344 5.303 0 0 1-8.118-6.899z" fill="url(#f)" stroke="#ef2929" transform="matrix(.56138 0 0 .56577 62.832 3.512)"/></g></svg>