<svg xmlns="http://www.w3.org/2000/svg" width="210mm" height="297mm" viewBox="0 0 210 297"><defs><marker id="d" refX="0" refY="0" orient="auto" overflow="visible"><path d="M-10 0l-4 4L0 0l-14-4 4 4z" fill-rule="evenodd" stroke="#000" stroke-width=".8pt"/></marker><marker id="c" refX="0" refY="0" orient="auto" overflow="visible"><path d="M10 0l4-4L0 0l14 4-4-4z" fill-rule="evenodd" stroke="#000" stroke-width=".8pt"/></marker><marker id="e" refX="0" refY="0" orient="auto" overflow="visible"><path d="M10 0l4-4L0 0l14 4-4-4z" fill-rule="evenodd" stroke="#000" stroke-width=".8pt"/></marker><marker orient="auto" refY="0" refX="0" id="b" overflow="visible"><path d="M-10 0l-4 4L0 0l-14-4 4 4z" fill-rule="evenodd" stroke="#000" stroke-width=".8pt"/></marker><marker orient="auto" refY="0" refX="0" id="a" overflow="visible"><path d="M10 0l4-4L0 0l14 4-4-4z" fill-rule="evenodd" stroke="#000" stroke-width=".8pt"/></marker><marker id="f" refX="0" refY="0" orient="auto" overflow="visible"><path d="M-10 0l-4 4L0 0l-14-4z" fill-rule="evenodd" stroke="#000" stroke-width="1.0664"/></marker></defs><path d="M60 37v220l20 20 20-20V37z" fill="none" stroke="#000" stroke-width="3"/><path d="M60 77v180l20 20 20-20V77z" fill-opacity=".137" stroke="#000"/><path d="M120 237v0l10-10-50 50-50-50v0" fill="none" stroke="#000"/><path d="M38.12 234.034a60 60 0 0 1 84.2.434" fill="none" stroke="#000" marker-start="url(#a)" marker-end="url(#b)"/><path d="M60 37V17v0M100 37V17M100 77h50M80 277h70" fill="none" stroke="#000"/><path d="M140 77v200" fill="none" stroke="#000" marker-start="url(#c)" marker-end="url(#d)"/><path d="M100 27h30" fill="none" stroke="#000" marker-start="url(#e)"/><text style="line-height:1.25;-inkscape-font-specification:'URW Bookman L, Normal';font-variant-ligatures:normal;font-variant-caps:normal;font-variant-numeric:normal;font-feature-settings:normal;text-align:start" x="145.482" y="195.478" font-weight="400" font-size="34.925" font-family="URW Bookman L" letter-spacing="0" word-spacing="0" stroke-width=".265"><tspan x="145.482" y="195.478" style="-inkscape-font-specification:'URW Bookman L, Normal';font-variant-ligatures:normal;font-variant-caps:normal;font-variant-numeric:normal;font-feature-settings:normal;text-align:start">H</tspan></text><text style="line-height:1.25;-inkscape-font-specification:'URW Bookman L, Normal';font-variant-ligatures:normal;font-variant-caps:normal;font-variant-numeric:normal;font-feature-settings:normal;text-align:start" x="138.631" y="40.097" font-weight="400" font-size="34.925" font-family="URW Bookman L" letter-spacing="0" word-spacing="0" stroke-width=".265"><tspan x="138.631" y="40.097" style="-inkscape-font-specification:'URW Bookman L, Normal';font-variant-ligatures:normal;font-variant-caps:normal;font-variant-numeric:normal;font-feature-settings:normal;text-align:start">D</tspan></text><text style="line-height:1.25;-inkscape-font-specification:'URW Bookman L, Normal';font-variant-ligatures:normal;font-variant-caps:normal;font-variant-numeric:normal;font-feature-settings:normal;text-align:start" x="70.101" y="243.599" font-weight="400" font-size="34.925" font-family="URW Bookman L" letter-spacing="0" word-spacing="0" stroke-width=".265"><tspan x="70.101" y="243.599" style="-inkscape-font-specification:'URW Bookman L, Normal';font-variant-ligatures:normal;font-variant-caps:normal;font-variant-numeric:normal;font-feature-settings:normal;text-align:start">α</tspan></text><path d="M30 27h30" fill="none" stroke="#000" marker-end="url(#f)"/></svg>