<svg xmlns="http://www.w3.org/2000/svg" width="210mm" height="297mm" viewBox="0 0 210 297"><defs><marker orient="auto" refY="0" refX="0" id="b" overflow="visible"><path d="M-10.69-4.437L1.328-.017-10.69 4.401c1.92-2.61 1.909-6.18 0-8.84z" fill-rule="evenodd" stroke="#000" stroke-width=".6875" stroke-linejoin="round"/></marker><marker orient="auto" refY="0" refX="0" id="a" overflow="visible"><path d="M10.69 4.437L-1.328.017 10.69-4.401c-1.92 2.61-1.909 6.18 0 8.84z" fill-rule="evenodd" stroke="#000" stroke-width=".6875" stroke-linejoin="round"/></marker><marker orient="auto" refY="0" refX="0" id="d" overflow="visible"><path d="M-10.69-4.437L1.328-.017-10.69 4.401c1.92-2.61 1.909-6.18 0-8.84z" fill-rule="evenodd" stroke="#000" stroke-width=".6875" stroke-linejoin="round"/></marker><marker orient="auto" refY="0" refX="0" id="c" overflow="visible"><path d="M10.69 4.437L-1.328.017 10.69-4.401c-1.92 2.61-1.909 6.18 0 8.84z" fill-rule="evenodd" stroke="#000" stroke-width=".6875" stroke-linejoin="round"/></marker><marker orient="auto" refY="0" refX="0" id="f" overflow="visible"><path d="M-10.69-4.437L1.328-.017-10.69 4.401c1.92-2.61 1.909-6.18 0-8.84z" fill-rule="evenodd" stroke="#000" stroke-width=".6875" stroke-linejoin="round"/></marker><marker orient="auto" refY="0" refX="0" id="e" overflow="visible"><path d="M10.69 4.437L-1.328.017 10.69-4.401c-1.92 2.61-1.909 6.18 0 8.84z" fill-rule="evenodd" stroke="#000" stroke-width=".6875" stroke-linejoin="round"/></marker></defs><path d="M50.128 59.739v91.343H13.195v78.293h147.733v-78.293h-36.933V59.739z" fill="none" stroke="#000" stroke-width="3.354"/><path d="M87.062 46.69v195.734" fill="none" stroke="#000" stroke-width="1.267" stroke-dasharray="10.13973638,2.53493409,1.26746704,2.53493409"/><path d="M50.128 59.739V20.592M123.995 59.739V20.592M160.928 268.522v-39.147" fill="none" stroke="#000" stroke-width=".824"/><path d="M49.933-48.54H123.8" fill="none" stroke="#000" stroke-width=".824" marker-start="url(#a)" marker-end="url(#b)" transform="translate(.195 82.182)"/><path d="M13 173.292h147.733" fill="none" stroke="#000" stroke-width=".824" marker-start="url(#c)" marker-end="url(#d)" transform="translate(.195 82.182)"/><text style="line-height:1.25;-inkscape-font-specification:'URW Bookman L, Normal';font-variant-ligatures:normal;font-variant-caps:normal;font-variant-numeric:normal;font-feature-settings:normal;text-align:start" x="78.952" y="-51.439" transform="matrix(.97132 0 0 1.02953 .195 82.182)" font-weight="400" font-size="35.771" font-family="URW Bookman L" letter-spacing="0" word-spacing="0" stroke-width="3.354"><tspan x="78.952" y="-51.439" style="-inkscape-font-specification:'URW Bookman L, Normal';font-variant-ligatures:normal;font-variant-caps:normal;font-variant-numeric:normal;font-feature-settings:normal;text-align:start">S</tspan></text><text style="line-height:1.25;-inkscape-font-specification:'URW Bookman L, Normal';font-variant-ligatures:normal;font-variant-caps:normal;font-variant-numeric:normal;font-feature-settings:normal;text-align:start" x="76.055" y="200.458" transform="matrix(.97132 0 0 1.02953 .195 82.182)" font-weight="400" font-size="35.771" font-family="URW Bookman L" letter-spacing="0" word-spacing="0" stroke-width="3.354"><tspan x="76.055" y="200.458" style="-inkscape-font-specification:'URW Bookman L, Normal';font-variant-ligatures:normal;font-variant-caps:normal;font-variant-numeric:normal;font-feature-settings:normal;text-align:start">D</tspan></text><text style="line-height:1.25;-inkscape-font-specification:'URW Bookman L, Normal';font-variant-ligatures:normal;font-variant-caps:normal;font-variant-numeric:normal;font-feature-settings:normal;text-align:start" x="185.942" y="119.315" transform="matrix(.97132 0 0 1.02953 .195 82.182)" font-weight="400" font-size="35.771" font-family="URW Bookman L" letter-spacing="0" word-spacing="0" stroke-width="3.354"><tspan x="185.942" y="119.315">H</tspan></text><path d="M13.195 268.522v-39.147" fill="none" stroke="#000" stroke-width=".824"/><path d="M173.044 68.9v78.294" fill="none" stroke="#000" stroke-width=".824" marker-start="url(#e)" marker-end="url(#f)" transform="translate(.195 82.182)"/><path d="M160.928 151.082h24.623M160.928 229.375h24.623" fill="none" stroke="#000" stroke-width=".824"/><path fill-opacity=".137" stroke="#000025" stroke-width=".824" d="M13.195 151.082h147.733v78.294H13.195z"/></svg>