<svg xmlns="http://www.w3.org/2000/svg" width="210mm" height="297mm" viewBox="0 0 210 297"><defs><marker id="i" refX="0" refY="0" orient="auto" overflow="visible"><path d="M10.69 4.437L-1.328.017 10.69-4.401c-1.92 2.61-1.909 6.18 0 8.84z" fill-rule="evenodd" stroke="#000" stroke-width=".6875" stroke-linejoin="round"/></marker><marker orient="auto" refY="0" refX="0" id="h" overflow="visible"><path d="M-10.69-4.437L1.328-.017-10.69 4.401c1.92-2.61 1.909-6.18 0-8.84z" fill-rule="evenodd" stroke="#000" stroke-width=".6875" stroke-linejoin="round"/></marker><marker orient="auto" refY="0" refX="0" id="c" overflow="visible"><path d="M10.69 4.437L-1.328.017 10.69-4.401c-1.92 2.61-1.909 6.18 0 8.84z" fill-rule="evenodd" stroke="#000" stroke-width=".6875" stroke-linejoin="round"/></marker><marker id="b" refX="0" refY="0" orient="auto" overflow="visible"><path d="M-10.69-4.437L1.328-.017-10.69 4.401c1.92-2.61 1.909-6.18 0-8.84z" fill-rule="evenodd" stroke="#000" stroke-width=".6875" stroke-linejoin="round"/></marker><marker orient="auto" refY="0" refX="0" id="e" overflow="visible"><path d="M-10.69-4.437L1.328-.017-10.69 4.401c1.92-2.61 1.909-6.18 0-8.84z" fill-rule="evenodd" stroke="#000" stroke-width=".6875" stroke-linejoin="round"/></marker><marker id="a" refX="0" refY="0" orient="auto" overflow="visible"><path d="M10.69 4.437L-1.328.017 10.69-4.401c-1.92 2.61-1.909 6.18 0 8.84z" fill-rule="evenodd" stroke="#000" stroke-width=".6875" stroke-linejoin="round"/></marker><marker orient="auto" refY="0" refX="0" id="d" overflow="visible"><path d="M10.69 4.437L-1.328.017 10.69-4.401c-1.92 2.61-1.909 6.18 0 8.84z" fill-rule="evenodd" stroke="#000" stroke-width=".6875" stroke-linejoin="round"/></marker><marker orient="auto" refY="0" refX="0" id="g" overflow="visible"><path d="M-10.69-4.437L1.328-.017-10.69 4.401c1.92-2.61 1.909-6.18 0-8.84z" fill="#000025" fill-rule="evenodd" stroke="#000025" stroke-width=".6875" stroke-linejoin="round"/></marker><marker orient="auto" refY="0" refX="0" id="f" overflow="visible"><path d="M10.69 4.437L-1.328.017 10.69-4.401c-1.92 2.61-1.909 6.18 0 8.84z" fill="#000025" fill-rule="evenodd" stroke="#000025" stroke-width=".6875" stroke-linejoin="round"/></marker><marker id="j" refX="0" refY="0" orient="auto" overflow="visible"><path d="M-10 0l-4 4L0 0l-14-4z" fill-rule="evenodd" stroke="#000" stroke-width="1.0664"/></marker></defs><path d="M13.51 153.52h144.602l-60.25 63.91h-24.1z" fill-opacity=".137" stroke="#000" stroke-width=".807"/><path d="M49.661 64.049v89.472h-36.15l60.25 63.908h24.1l60.251-63.908h-36.15V64.049z" fill="none" stroke="#000" stroke-width="3.284"/><path d="M85.811 51.267v178.944" fill="none" stroke="#000" stroke-width="1.241" stroke-dasharray="9.9284259,2.48210647,1.24105325,2.48210647"/><path d="M49.661 64.049V25.704M121.962 64.049V25.704" fill="none" stroke="#000" stroke-width=".807"/><path d="M8 16v2" fill="none" stroke="#000" stroke-width=".065" transform="matrix(12.05013 0 0 12.7817 1.46 12.922)"/><path d="M158.112 268.556V153.521" fill="none" stroke="#000" stroke-width=".807"/><path d="M52.633-150.569h72.3" fill="none" stroke="#000" stroke-width=".807" marker-start="url(#a)" marker-end="url(#b)" transform="translate(-2.972 189.054)"/><path d="M100.833 44.467v0h24.1" fill="none" stroke="#000" stroke-width=".659" marker-start="url(#c)" transform="translate(-2.972 189.054)"/><path d="M16.482 66.72h144.602" fill="none" stroke="#000" stroke-width=".807" marker-start="url(#d)" marker-end="url(#e)" transform="translate(-2.972 189.054)"/><text style="line-height:1.25;-inkscape-font-specification:'URW Bookman L, Normal';font-variant-ligatures:normal;font-variant-caps:normal;font-variant-numeric:normal;font-feature-settings:normal;text-align:start" x="81.177" y="-150.398" transform="matrix(.97096 0 0 1.0299 -2.972 189.054)" font-weight="400" font-size="35.025" font-family="URW Bookman L" letter-spacing="0" word-spacing="0" stroke-width="3.284"><tspan x="81.177" y="-150.398" style="-inkscape-font-specification:'URW Bookman L, Normal';font-variant-ligatures:normal;font-variant-caps:normal;font-variant-numeric:normal;font-feature-settings:normal;text-align:start">S</tspan></text><text style="line-height:1.25;-inkscape-font-specification:'URW Bookman L, Normal';font-variant-ligatures:normal;font-variant-caps:normal;font-variant-numeric:normal;font-feature-settings:normal;text-align:start" x="78.34" y="96.25" transform="matrix(.97096 0 0 1.0299 -2.972 189.054)" font-weight="400" font-size="35.025" font-family="URW Bookman L" letter-spacing="0" word-spacing="0" stroke-width="3.284"><tspan x="78.34" y="96.25" style="-inkscape-font-specification:'URW Bookman L, Normal';font-variant-ligatures:normal;font-variant-caps:normal;font-variant-numeric:normal;font-feature-settings:normal;text-align:start">D</tspan></text><path d="M13.451 38.457a76.689 72.377 0 0 1-1.029 101.181" transform="rotate(-90.428 92.337 96.002) skewX(.054)" fill="none" stroke="#000025" stroke-width=".807" marker-start="url(#f)" marker-end="url(#g)"/><text style="line-height:1.25;-inkscape-font-specification:'URW Bookman L, Normal';font-variant-ligatures:normal;font-variant-caps:normal;font-variant-numeric:normal;font-feature-settings:normal;text-align:start" x="95.739" y="-39.443" transform="matrix(.97096 0 0 1.0299 -2.972 189.054)" font-weight="400" font-size="35.025" font-family="URW Bookman L" letter-spacing="0" word-spacing="0" stroke-width="3.284"><tspan x="95.739" y="-39.443">α</tspan></text><text style="line-height:1.25;-inkscape-font-specification:'URW Bookman L, Normal';font-variant-ligatures:normal;font-variant-caps:normal;font-variant-numeric:normal;font-feature-settings:normal;text-align:start" x="28.921" y="51.168" transform="matrix(.97096 0 0 1.0299 -2.972 189.054)" font-weight="400" font-size="35.025" font-family="URW Bookman L" letter-spacing="0" word-spacing="0" stroke-width="3.284"><tspan x="28.921" y="51.168">d</tspan></text><path d="M50.833 44.467v0h24.1" fill="none" stroke="#000" stroke-width=".659" marker-end="url(#h)" transform="translate(-2.972 189.054)"/><path d="M8 16v2" fill="none" stroke="#000" stroke-width=".065" transform="matrix(12.05013 0 0 12.7817 -22.64 12.922)"/><path d="M13.51 268.556V153.521" fill="none" stroke="#000" stroke-width=".807"/><path d="M157.36 153.52h24.602" fill="none" stroke="#000" stroke-width=".686"/><path d="M97.962 217.52h84" fill="none" stroke="#000" stroke-width=".758"/><path d="M174.933 28.467v-64" fill="none" stroke="#000" stroke-width=".807" marker-start="url(#i)" marker-end="url(#j)" transform="translate(-2.972 189.054)"/><text style="line-height:1.25;-inkscape-font-specification:'URW Bookman L, Normal';font-variant-ligatures:normal;font-variant-caps:normal;font-variant-numeric:normal;font-feature-settings:normal;text-align:start" x="185.582" y="9.055" transform="matrix(.97096 0 0 1.0299 -2.972 189.054)" font-weight="400" font-size="35.025" font-family="URW Bookman L" letter-spacing="0" word-spacing="0" stroke-width="3.284"><tspan x="185.582" y="9.055">H</tspan></text></svg>