<svg xmlns="http://www.w3.org/2000/svg" width="64" height="64"><g fill="none" stroke="#000" stroke-width=".5"><path d="M7.484 60.64a1.949 1.949 0 1 0-3.897 0 1.949 1.949 0 1 0 3.897 0zM20.214 55.833a4.676 4.676 0 1 0-9.353 0 4.676 4.676 0 1 0 9.353 0zM21.253 20.76a1.04 1.04 0 1 0-2.078 0 1.04 1.04 0 1 0 2.078 0zM41.258 42.193a3.248 3.248 0 1 0-6.495 0 3.248 3.248 0 1 0 6.495 0zM8.783 36.543a.714.714 0 1 0-1.43 0 .714.714 0 1 0 1.43 0zM50.22 25.715a.39.63 0 1 0-.779 0 .39.63 0 1 0 .78 0zM58.145 52.13a.195.325 0 1 0-.39 0 .195.325 0 1 0 .39 0zM59.314 9.394a.325.325 0 1 0-.65 0 .325.325 0 1 0 .65 0zM45.025 6.73a5.716 5.716 0 1 0-11.432 0 5.716 5.716 0 1 0 11.432 0zM32.035 10.108a2.338 2.338 0 1 0-4.677 0 2.338 2.338 0 1 0 4.677 0zM60.743 48.818a1.299 1.299 0 1 0-2.598 0 1.299 1.299 0 1 0 2.598 0zM52.17 28.294a.52.52 0 1 0-1.04 0 .52.52 0 1 0 1.04 0zM8.783 3.223a.91.91 0 1 0-1.819 0 .91.91 0 1 0 1.819 0zM24.89 36.738a1.949 1.949 0 1 0-3.897 0 1.949 1.949 0 1 0 3.897 0zM17.096 39.336a.65.65 0 1 0-1.299 0 .65.65 0 1 0 1.3 0zM23.851 54.274a.78.78 0 1 0-1.559 0 .78.78 0 1 0 1.559 0z" stroke-width=".72744"/></g></svg>