<svg xmlns="http://www.w3.org/2000/svg" width="64" height="64"><g fill="none" stroke="#000" stroke-width=".378"><path d="M64 2l-2-2M60 0l4 4M64 6l-6-6M56 0l8 8M64 10L54 0M52 0l12 12M64 14L50 0M48 0l16 16M64 18L46 0M44 0l20 20M64 22L42 0M40 0l24 24M64 26L38 0M36 0l28 28M64 30L34 0M32 0l32 32M64 34L30 0M28 0l36 36M64 38L26 0M24 0l40 40M64 42L22 0M20 0l44 44M64 46L18 0M16 0l48 48M64 50L14 0M12 0l52 52M64 54L10 0M8 0l56 56M64 58L6 0M4 0l60 60M64 62L2 0M0 0l64 64M62 64L0 2M0 4l60 60M58 64L0 6M0 8l56 56M54 64L0 10M0 12l52 52M50 64L0 14M0 16l48 48M46 64L0 18M0 20l44 44M42 64L0 22M0 24l40 40M38 64L0 26M0 28l36 36M34 64L0 30M0 32l32 32M30 64L0 34M0 36l28 28M26 64L0 38M0 40l24 24M22 64L0 42M0 44l20 20M18 64L0 46M0 48l16 16M14 64L0 50M0 52l12 12M10 64L0 54M0 56l8 8M6 64l-6-6M4 64l-4-4M2 64l-2-2"/></g></svg>