<svg xmlns="http://www.w3.org/2000/svg" width="64" height="64"><g fill="none" stroke="#000" stroke-width=".378"><path d="M0 2l2-2M4 0L0 4M0 6l6-6M8 0L0 8M0 10L10 0M12 0L0 12M0 14L14 0M16 0L0 16M0 18L18 0M20 0L0 20M0 22L22 0M24 0L0 24M0 26L26 0M28 0L0 28M0 30L30 0M32 0L0 32M0 34L34 0M36 0L0 36M0 38L38 0M40 0L0 40M0 42L42 0M44 0L0 44M0 46L46 0M48 0L0 48M0 50L50 0M52 0L0 52M0 54L54 0M56 0L0 56M0 58L58 0M60 0L0 60M0 62L62 0M64 0L0 64M2 64L64 2M64 4L4 64M6 64L64 6M64 8L8 64M10 64l54-54M64 12L12 64M14 64l50-50M64 16L16 64M18 64l46-46M64 20L20 64M22 64l42-42M64 24L24 64M26 64l38-38M64 28L28 64M30 64l34-34M64 32L32 64M34 64l30-30M64 36L36 64M38 64l26-26M64 40L40 64M42 64l22-22M64 44L44 64M46 64l18-18M64 48L48 64M50 64l14-14M64 52L52 64M54 64l10-10M64 56l-8 8M58 64l6-6M60 64l4-4M62 64l2-2"/></g></svg>