<svg xmlns="http://www.w3.org/2000/svg" width="64" height="64"><path fill="none" d="M-.125-.5h64.969v65.313H-.125z"/><path stroke="#000" stroke-width=".916" d="M36.014 49.589l10.435-5.184M26.509 56.912l9.505-7.323M18.325 43.803l4.504-7.215M10.452 52.415l7.873-8.612M60.742 45.402l3.709 5.769M54.284 38.169l6.458 7.233M46.965 31.994l7.319 6.175M53.595 58.921l2.928 5.616M48.17 50.483l5.425 8.438M41.541 42.991l6.629 7.492M34.652 36.533l6.889 6.458M39.302 57.026l5.51 7.511M30.175 46.005l9.127 11.021M20.617 38.169l9.558 7.836M12.868 34.294l7.749 3.875M2.88 31.994l9.988 2.3M31.122 59.437l3.96 5.1M25.008 52.721l6.114 6.716M16.914 45.918l8.094 6.803M7.271 40.752l9.643 5.166M.095 38.772l7.176 1.98M19.412 58.663l4.391 5.874M15.365 54.271l4.047 4.392M9.854 49.966l5.511 4.305M4.515 47.038l5.339 2.928M.095 45.746l4.42 1.292M12.437 62.71l1.033 1.827M8.734 58.06l3.703 4.65M4.085 54.702l4.649 3.358M.095 53.41l3.99 1.292"/><path stroke="#000" stroke-width=".923" d="M35.923 17.814l10.433-5.264M26.418 25.251l9.505-7.437M18.235 11.938l4.504-7.327M10.363 20.685l7.872-8.747M60.648 13.562l3.708 5.86M54.191 6.217l6.457 7.345M46.873-.055l7.318 6.272M53.501 27.292l2.928 5.703M48.078 18.722l5.423 8.57M41.449 11.114l6.629 7.608M34.561 4.555l6.888 6.559M27.76-.055l6.801 4.61M30.084 14.175l9.126 11.193M20.528 6.217l9.556 7.958M12.779 2.281l7.749 3.936M2.792-.055l9.987 2.336M24.918 20.995l6.113 6.822M16.825 14.087l8.093 6.908M7.183 8.84l9.642 5.247M.007 6.829L7.183 8.84M15.276 22.57l4.046 4.46M9.765 18.198l5.511 4.372M4.427 15.224l5.338 2.974M.007 13.912l4.42 1.312M12.348 31.14l1.033 1.855M8.646 26.418l3.702 4.722M3.997 23.007l4.649 3.411M.007 21.695l3.99 1.312"/><path d="M19.182 26.773l15.727 9.818M56.455 32.773l3.09 8M39.045 25.182l8.091 6.909M40.182 38.545l12.545-2.727 11.818-6.363" fill="none" stroke="#000"/></svg>