<svg xmlns="http://www.w3.org/2000/svg" xmlns:xlink="http://www.w3.org/1999/xlink" width="200" height="187"><defs><linearGradient id="b"><stop offset="0" stop-color="#71b2f8"/><stop offset="1" stop-color="#002795"/></linearGradient><linearGradient id="c"><stop offset="0" stop-color="#ff6d0f"/><stop offset="1" stop-color="#ff1000"/></linearGradient><linearGradient id="a"><stop offset="0" stop-color="#ff390f"/><stop offset="1" stop-color="#ff1000"/></linearGradient><radialGradient r="19.571" fy="29.149" fx="282.646" cy="29.149" cx="282.646" gradientTransform="matrix(5.72885 8.9513 -9.568 6.1235 58.311 -2259.79)" gradientUnits="userSpaceOnUse" id="e" xlink:href="#b"/><radialGradient r="19.571" fy="33.9" fx="270.583" cy="33.9" cx="270.583" gradientTransform="matrix(10.32427 2.52089 -6.95171 28.47072 -1273.383 -1264.218)" gradientUnits="userSpaceOnUse" id="d" xlink:href="#c"/></defs><g opacity=".2" fill-rule="evenodd"><path d="M1087.473 176.65v513.936h114.593V489.468h81.026v-79.29h-81.026v-85.58h199.603V176.94z" style="marker:none" overflow="visible" fill="url(#d)" transform="translate(-361.11 -58.528) scale(.33206)"/><path d="M1597.572 329.82l-66.657 38.243-29.435-10.215-28.083-71.772-44.177 2.321-20.15 74.218-28.202 13.505-70.339-30.77-29.709 33.014 38.243 66.657-10.45 29.348-71.773 28.084 2.558 44.263 74.217 20.15 13.505 28.201-31.006 70.253 33.014 29.71 66.657-38.244 29.585 10.537 27.847 71.686 44.499-2.471 19.914-74.303 28.201-13.506 70.49 31.092 29.708-33.014-38.243-66.656 10.301-29.671 71.686-27.848-2.235-44.412-74.303-19.915-13.505-28.2 30.855-70.576zm-99.832 109.309l13.683 7.939 11.855 10.748 9.491 12.828 6.828 14.261 4.014 15.374.665 15.756-2.276 15.752-5.193 14.953-8.262 13.833-10.426 11.705-12.827 9.491-14.262 6.828-15.374 4.014-15.842.9-15.752-2.275-14.953-5.193-13.833-8.262-11.619-10.662-9.577-12.591-6.828-14.262-3.927-15.61-.901-15.842 2.275-15.751 5.194-14.954 8.175-13.597 10.512-11.941 12.828-9.491 14.261-6.827 15.61-3.928 15.756-.665 15.752 2.275 14.953 5.194z" style="marker:none" overflow="visible" fill="url(#e)" transform="translate(-361.11 -58.528) scale(.33206)"/></g></svg>