<svg xmlns="http://www.w3.org/2000/svg" width="14" height="14"><path style="line-height:normal;font-variant-ligatures:normal;font-variant-position:normal;font-variant-caps:normal;font-variant-numeric:normal;font-variant-alternates:normal;font-feature-settings:normal;text-indent:0;text-align:start;text-decoration-line:none;text-decoration-style:solid;text-decoration-color:#000;text-transform:none;text-orientation:mixed;white-space:normal;shape-padding:0;isolation:auto;mix-blend-mode:normal;solid-color:#000;solid-opacity:1" d="M2.99 1.99a1 1 0 0 0-.697 1.717L5.586 7l-3.293 3.293a1 1 0 1 0 1.414 1.414L7 8.414l3.293 3.293a1 1 0 1 0 1.414-1.414L8.414 7l3.293-3.293a1 1 0 0 0-.727-1.717 1 1 0 0 0-.687.303L7 5.586 3.707 2.293a1 1 0 0 0-.717-.303z" color="#000" font-weight="400" font-family="sans-serif" overflow="visible" fill="#fff" fill-opacity=".353"/></svg>