<svg xmlns="http://www.w3.org/2000/svg" width="14" height="14"><g color="#000" font-weight="400" font-family="sans-serif" fill-opacity=".353"><path style="line-height:normal;font-variant-ligatures:normal;font-variant-position:normal;font-variant-caps:normal;font-variant-numeric:normal;font-variant-alternates:normal;font-feature-settings:normal;text-indent:0;text-align:start;text-decoration-line:none;text-decoration-style:solid;text-decoration-color:#000;text-transform:none;text-orientation:mixed;white-space:normal;shape-padding:0;isolation:auto;mix-blend-mode:normal;solid-color:#000;solid-opacity:1" d="M2.494 1.996A.5.5 0 0 0 2 2.563V6h1V3.707l2.146 2.147a.5.5 0 1 0 .708-.708L3.707 3H6V2H2.557a.5.5 0 0 0-.063-.004zM12.004 2.494A.5.5 0 0 0 11.438 2H8v1h2.293L8.147 5.146a.5.5 0 1 0 .707.708L11 3.707V6h1V2.557a.5.5 0 0 0 0-.063zM2.494 12.004A.5.5 0 0 1 2 11.438V8h1v2.293l2.147-2.146a.5.5 0 1 1 .707.707L3.707 11H6v1H2.557a.5.5 0 0 1-.062.004zM12.004 11.506a.5.5 0 0 1-.566.494H8v-1h2.293L8.147 8.854a.5.5 0 1 1 .707-.707L11 10.293V8h1v3.443a.5.5 0 0 1 0 .063z" overflow="visible"/></g></svg>