<svg xmlns="http://www.w3.org/2000/svg" xmlns:xlink="http://www.w3.org/1999/xlink" width="48" height="48"><defs><radialGradient xlink:href="#a" id="j" gradientUnits="userSpaceOnUse" gradientTransform="matrix(-2.77439 0 0 1.9697 112.762 -872.885)" cx="605.714" cy="486.648" fx="605.714" fy="486.648" r="117.143"/><linearGradient id="a"><stop offset="0"/><stop offset="1" stop-opacity="0"/></linearGradient><radialGradient xlink:href="#a" id="i" gradientUnits="userSpaceOnUse" gradientTransform="matrix(2.77439 0 0 1.9697 -1891.633 -872.885)" cx="605.714" cy="486.648" fx="605.714" fy="486.648" r="117.143"/><linearGradient id="b"><stop offset="0" stop-opacity="0"/><stop offset=".5"/><stop offset="1" stop-opacity="0"/></linearGradient><linearGradient xlink:href="#b" id="h" gradientUnits="userSpaceOnUse" gradientTransform="matrix(2.77439 0 0 1.9697 -1892.179 -872.885)" x1="302.857" y1="366.648" x2="302.857" y2="609.505"/><linearGradient id="g"><stop offset="0" stop-color="#b8babc"/><stop offset=".374" stop-color="#5d6062"/><stop offset="1" stop-color="#585b5d"/></linearGradient><linearGradient id="f"><stop offset="0" stop-color="#8d8d8d"/><stop offset="1" stop-color="#747474"/></linearGradient><linearGradient id="e"><stop offset="0" stop-color="#858585"/><stop offset="1" stop-color="#5f5f5f"/></linearGradient><linearGradient id="d"><stop offset="0" stop-color="#fff"/><stop offset="1" stop-color="#fff" stop-opacity=".787"/></linearGradient><linearGradient id="c"><stop offset="0"/><stop offset="1" stop-opacity="0"/></linearGradient><linearGradient xlink:href="#d" id="l" x1="14.21" y1="5.889" x2="39.061" y2="40.626" gradientUnits="userSpaceOnUse" gradientTransform="matrix(1 0 0 1.02175 0 -.066)"/><linearGradient xlink:href="#e" id="q" x1="20.087" y1="22.048" x2="20.087" y2="25.849" gradientUnits="userSpaceOnUse"/><linearGradient xlink:href="#e" id="p" x1="20.087" y1="22.048" x2="20.087" y2="25.849" gradientUnits="userSpaceOnUse"/><linearGradient xlink:href="#e" id="o" x1="20.087" y1="22.048" x2="20.087" y2="25.849" gradientUnits="userSpaceOnUse"/><linearGradient xlink:href="#e" id="s" gradientUnits="userSpaceOnUse" x1="20.087" y1="29.031" x2="20.087" y2="32.964"/><linearGradient xlink:href="#e" id="r" gradientUnits="userSpaceOnUse" x1="20.087" y1="29.031" x2="20.087" y2="32.964"/><linearGradient xlink:href="#e" id="t" gradientUnits="userSpaceOnUse" x1="20.087" y1="29.031" x2="20.087" y2="32.964"/><linearGradient xlink:href="#e" id="v" gradientUnits="userSpaceOnUse" x1="20.087" y1="36.102" x2="20.087" y2="39.814"/><linearGradient xlink:href="#e" id="u" gradientUnits="userSpaceOnUse" x1="20.087" y1="36.102" x2="20.087" y2="39.814"/><linearGradient xlink:href="#e" id="w" gradientUnits="userSpaceOnUse" x1="20.087" y1="36.102" x2="20.087" y2="39.814"/><linearGradient xlink:href="#f" id="n" x1="36.357" y1="38.036" x2="36.357" y2="40.161" gradientUnits="userSpaceOnUse" gradientTransform="matrix(1.10293 0 0 1 -4.117 0)"/><linearGradient xlink:href="#f" id="y" gradientUnits="userSpaceOnUse" x1="36.357" y1="25.411" x2="36.357" y2="26.911" gradientTransform="matrix(1.10293 0 0 1 -4.117 0)"/><linearGradient xlink:href="#g" id="k" x1="19.76" y1="8.812" x2="25.865" y2="42.563" gradientUnits="userSpaceOnUse"/><linearGradient xlink:href="#f" id="m" gradientUnits="userSpaceOnUse" gradientTransform="matrix(1.10293 0 0 1 -3.492 .625)" x1="36.357" y1="38.036" x2="36.357" y2="40.161"/><linearGradient xlink:href="#f" id="x" gradientUnits="userSpaceOnUse" gradientTransform="matrix(1.10293 0 0 1 -3.492 .625)" x1="36.357" y1="25.411" x2="36.357" y2="26.911"/></defs><g color="#000"><path style="marker:none" opacity=".402" fill="url(#h)" overflow="visible" d="M-1559.252-150.697h1339.633V327.66h-1339.633z" transform="matrix(.0214 0 0 .02087 44.351 41.404)"/><path style="marker:none" d="M-219.619-150.68v478.33c142.874.9 345.4-107.17 345.4-239.196S-33.655-150.68-219.619-150.68z" opacity=".402" fill="url(#i)" overflow="visible" transform="matrix(.0214 0 0 .02087 44.351 41.404)"/><path d="M-1559.252-150.68v478.33c-142.875.9-345.4-107.17-345.4-239.196s159.436-239.134 345.4-239.134z" style="marker:none" opacity=".402" fill="url(#j)" overflow="visible" transform="matrix(.0214 0 0 .02087 44.351 41.404)"/></g><rect style="marker:none" width="36.98" height="42.104" x="6.51" y="2.51" rx="1.958" ry="1.959" color="#000" fill="url(#k)" stroke="#343434" display="block" overflow="visible"/><path d="M9.982 5.116h29.975C41.09 5.116 42 6.493 42 8.204v6.961c0 3.32-3.928 4.431-5.06 4.431H13c-1.132 0-5.06-1.506-5.06-4.43V8.203c0-1.71.91-3.088 2.042-3.088z" style="marker:none" color="#000" fill="#2e3436" display="block" overflow="visible"/><path style="marker:none" d="M10.92 6h28.16C40.145 6 41 6.856 41 7.92v4.326C41 14.31 37.31 15 36.246 15H13.754C12.69 15 9 14.064 9 12.246V7.92C9 6.856 9.856 6 10.92 6z" color="#000" fill="#babdb6" display="block" overflow="visible"/><rect style="marker:none" width="25.25" height="5" x="12.25" y="7" rx=".712" ry=".744" color="#000" fill="#777b5e" display="block" overflow="visible"/><rect ry=".962" rx=".941" y="3.524" x="7.374" height="40.077" width="34.988" style="marker:none" opacity=".487" color="#000" fill="none" stroke="url(#l)" display="block" overflow="visible"/><rect ry="1.383" rx="1.525" y="30.226" x="33.14" height="10.872" width="6.933" style="marker:none" color="#000" fill="url(#m)" stroke="#7d7d7d" display="block" overflow="visible" font-family="Bitstream Vera Sans"/><rect style="marker:none" width="6.933" height="10.872" x="32.515" y="29.601" rx="1.525" ry="1.383" color="#000" fill="url(#n)" stroke="#343434" display="block" overflow="visible" font-family="Bitstream Vera Sans"/><g transform="translate(.707 .707)" stroke="#707070" color="#000" fill="#737373" font-family="Bitstream Vera Sans"><rect style="marker:none" width="5.173" height="5.103" x="10.444" y="21.397" rx="1.003" ry="1.003" display="block" overflow="visible"/><rect ry="1.003" rx="1.003" y="21.397" x="17.5" height="5.103" width="5.173" style="marker:none" display="block" overflow="visible"/><rect style="marker:none" width="5.173" height="5.103" x="24.5" y="21.397" rx="1.003" ry="1.003" display="block" overflow="visible"/><rect ry="1.003" rx="1.003" y="28.315" x="10.444" height="5.103" width="5.173" style="marker:none" display="block" overflow="visible"/><rect style="marker:none" width="5.173" height="5.103" x="17.5" y="28.315" rx="1.003" ry="1.003" display="block" overflow="visible"/><rect ry="1.003" rx="1.003" y="28.315" x="24.5" height="5.103" width="5.173" style="marker:none" display="block" overflow="visible"/><rect style="marker:none" width="5.173" height="5.103" x="10.444" y="35.315" rx="1.003" ry="1.003" display="block" overflow="visible"/><rect ry="1.003" rx="1.003" y="35.315" x="17.5" height="5.103" width="5.173" style="marker:none" display="block" overflow="visible"/><rect style="marker:none" width="5.173" height="5.103" x="24.5" y="35.315" rx="1.003" ry="1.003" display="block" overflow="visible"/></g><rect style="marker:none" width="5.173" height="5.103" x="10.444" y="21.397" rx="1.003" ry="1.003" color="#000" fill="url(#o)" stroke="#343434" display="block" overflow="visible" font-family="Bitstream Vera Sans"/><rect ry="1.003" rx="1.003" y="21.397" x="17.5" height="5.103" width="5.173" style="marker:none" color="#000" fill="url(#p)" stroke="#343434" display="block" overflow="visible" font-family="Bitstream Vera Sans"/><rect style="marker:none" width="5.173" height="5.103" x="24.5" y="21.397" rx="1.003" ry="1.003" color="#000" fill="url(#q)" stroke="#343434" display="block" overflow="visible" font-family="Bitstream Vera Sans"/><rect ry="1.003" rx="1.003" y="28.315" x="10.444" height="5.103" width="5.173" style="marker:none" color="#000" fill="url(#r)" stroke="#343434" display="block" overflow="visible" font-family="Bitstream Vera Sans"/><rect style="marker:none" width="5.173" height="5.103" x="17.5" y="28.315" rx="1.003" ry="1.003" color="#000" fill="url(#s)" stroke="#343434" display="block" overflow="visible" font-family="Bitstream Vera Sans"/><rect ry="1.003" rx="1.003" y="28.315" x="24.5" height="5.103" width="5.173" style="marker:none" color="#000" fill="url(#t)" stroke="#343434" display="block" overflow="visible" font-family="Bitstream Vera Sans"/><rect style="marker:none" width="5.173" height="5.103" x="10.444" y="35.315" rx="1.003" ry="1.003" color="#000" fill="url(#u)" stroke="#343434" display="block" overflow="visible" font-family="Bitstream Vera Sans"/><rect ry="1.003" rx="1.003" y="35.315" x="17.5" height="5.103" width="5.173" style="marker:none" color="#000" fill="url(#v)" stroke="#343434" display="block" overflow="visible" font-family="Bitstream Vera Sans"/><rect style="marker:none" width="5.173" height="5.103" x="24.5" y="35.315" rx="1.003" ry="1.003" color="#000" fill="url(#w)" stroke="#343434" display="block" overflow="visible" font-family="Bitstream Vera Sans"/><rect style="marker:none" width="6.933" height="6.266" x="33.14" y="22.042" rx="1.339" ry="1.214" color="#000" fill="url(#x)" stroke="#7d7d7d" display="block" overflow="visible" font-family="Bitstream Vera Sans"/><rect ry="1.214" rx="1.339" y="21.417" x="32.515" height="6.266" width="6.933" style="marker:none" color="#000" fill="url(#y)" stroke="#343434" display="block" overflow="visible" font-family="Bitstream Vera Sans"/><path d="M28.408 9.562a.718.718 0 0 1 .395.235c.09.11.136.25.136.422 0 .255-.097.45-.293.583-.195.132-.48.198-.855.198a2.507 2.507 0 0 1-.791-.128v-.512c.124.063.247.11.369.142.123.03.244.046.362.046.176 0 .31-.03.403-.091a.294.294 0 0 0 .142-.262.293.293 0 0 0-.145-.266c-.096-.06-.237-.09-.424-.09h-.266V9.41h.28c.166 0 .29-.026.372-.078a.266.266 0 0 0 .122-.24.261.261 0 0 0-.119-.229.593.593 0 0 0-.336-.08c-.107 0-.215.011-.324.035a1.77 1.77 0 0 0-.326.107V8.44c.131-.037.261-.064.39-.083a2.68 2.68 0 0 1 .38-.027c.334 0 .584.055.75.165.166.11.249.274.249.495 0 .15-.04.274-.119.37a.646.646 0 0 1-.352.202m1.17.72h.621v.668h-.62v-.667m1.391.208h.586V8.828l-.601.124V8.5l.598-.124h.63v2.115h.587v.459h-1.8v-.459m3.34-1.568L33.584 10h.728V8.923m-.11-.547h.737V10h.368v.481h-.368v.469h-.627v-.469H33.17v-.569l1.03-1.536" font-size="3.53" font-weight="700" font-family="Bitstream Vera Sans"/><path d="M36.268 33.708v1.213h1.209v.546h-1.209v1.213h-.55v-1.213h-1.21v-.546h1.21v-1.213h.55M35.324 24.17h1.454v.674h-1.454v-.673" font-size="4.741" font-weight="700" fill="#b8b8b8" font-family="Bitstream Vera Sans"/></svg>