<svg xmlns="http://www.w3.org/2000/svg" xmlns:xlink="http://www.w3.org/1999/xlink" width="64" height="64"><defs><linearGradient id="l"><stop offset="0"/><stop offset="1" stop-color="#2e3436" stop-opacity="0"/></linearGradient><linearGradient id="d"><stop offset="0"/><stop offset="1"/></linearGradient><linearGradient id="c"><stop offset="0"/><stop offset="1"/></linearGradient><linearGradient id="b"><stop offset="0"/><stop offset="1"/></linearGradient><linearGradient id="a"><stop offset="0" stop-color="#73d216" stop-opacity="0"/><stop offset="1" stop-color="#73d216" stop-opacity="0"/></linearGradient><linearGradient id="e"><stop offset="0" stop-color="#2e3436"/><stop offset="1" stop-color="#2e3436" stop-opacity="0"/></linearGradient><linearGradient id="f"><stop offset="0" stop-color="#271903"/><stop offset="1" stop-color="#c17d11"/></linearGradient><linearGradient id="g"><stop offset="0" stop-color="#8f5902"/><stop offset="1" stop-color="#e9b96e"/></linearGradient><linearGradient xlink:href="#h" id="n" gradientUnits="userSpaceOnUse" x1="19" y1="22" x2="22" y2="48"/><linearGradient id="h"><stop offset="0" stop-color="#e9b96e"/><stop offset="1" stop-color="#c17d11"/></linearGradient><linearGradient id="i"><stop offset="0" stop-color="#e9b96e"/><stop offset="1" stop-color="#c17d11"/></linearGradient><linearGradient xlink:href="#j" id="o" gradientUnits="userSpaceOnUse" x1="47" y1="23" x2="53" y2="47"/><linearGradient id="j"><stop offset="0" stop-color="#c17d11"/><stop offset="1" stop-color="#8f5902"/></linearGradient><linearGradient id="k"><stop offset="0" stop-color="#8f5902"/><stop offset="1" stop-color="#c17d11"/></linearGradient><radialGradient r="28.5" fy="52" fx="32.5" cy="52" cx="32.5" gradientTransform="matrix(.96429 0 0 .24561 1.16 39.228)" gradientUnits="userSpaceOnUse" id="m" xlink:href="#l"/></defs><path d="M61 52a28.5 7 0 1 1-57 0 28.5 7 0 1 1 57 0z" transform="matrix(1.1228 0 0 1 -4.491 1)" fill="url(#m)"/><g stroke-width="2"><path d="M37 55L3 47V15l34 8z" fill="url(#n)" stroke="#271903" stroke-linejoin="round" transform="matrix(1 0 0 1 0 2)"/><path d="M5 17.6v27.9l30 6.9V24.5z" fill="none" stroke="#e9b96e" transform="matrix(1 0 0 1 0 2)"/></g><g stroke-width="2"><path d="M37 23l24-8v32l-24 8z" fill="url(#o)" stroke="#271903" stroke-linejoin="round" transform="matrix(1 0 0 1 0 2)"/><path d="M39 24.3V52l20-6.1V18z" fill="none" stroke="#c17d11" transform="matrix(1 0 0 1 0 2)"/></g><path d="M7.772 21.08l21.078-7.065 29.86 7.064-21.078 7.064z" fill="#e9b96e" stroke="#271903" stroke-width="1.761" stroke-linejoin="round" transform="matrix(1.13866 0 0 1.13249 -5.85 -6.872)"/><path d="M18.311 17.547l28.981 7.064" fill="none" stroke="#271903" stroke-width="1.761" stroke-linecap="round" transform="matrix(1.13866 0 0 1.13249 -5.85 -6.872)"/></svg>