<svg xmlns="http://www.w3.org/2000/svg" xmlns:xlink="http://www.w3.org/1999/xlink" width="64" height="64"><defs><linearGradient id="a"><stop offset="0" stop-color="#b8b8b8" stop-opacity=".498"/><stop offset="1" stop-color="#7f7f7f" stop-opacity="0"/></linearGradient><linearGradient xlink:href="#b" id="e" gradientUnits="userSpaceOnUse" gradientTransform="matrix(.30307 0 0 .306 -6.203 -4.426)" x1="150.961" y1="192.352" x2="112.031" y2="137.273"/><linearGradient id="b"><stop offset="0" stop-color="#ffd43b"/><stop offset="1" stop-color="#ffe873"/></linearGradient><linearGradient id="c"><stop offset="0" stop-color="#5a9fd4"/><stop offset="1" stop-color="#306998"/></linearGradient><linearGradient y2="114.398" x2="135.665" y1="20.604" x1="26.649" gradientTransform="matrix(.30307 0 0 .306 -6.203 -4.426)" gradientUnits="userSpaceOnUse" id="d" xlink:href="#c"/></defs><path d="M31.462 1.879c-2.47.011-4.828.222-6.903.59-6.113 1.08-7.223 3.34-7.223 7.508v5.506h14.445v1.835H11.915c-4.198 0-7.874 2.523-9.024 7.323-1.327 5.503-1.385 8.936 0 14.681 1.027 4.277 3.479 7.324 7.677 7.324h4.967v-6.6c0-4.768 4.125-8.973 9.024-8.973h14.428c4.017 0 7.223-3.307 7.223-7.34V9.976c0-3.915-3.303-6.855-7.223-7.509a45.055 45.055 0 0 0-7.525-.589zM23.65 6.307c1.492 0 2.71 1.238 2.71 2.761 0 1.517-1.218 2.744-2.71 2.744-1.498 0-2.711-1.227-2.711-2.744 0-1.523 1.213-2.761 2.71-2.761z" fill="url(#d)"/><path d="M48.011 17.318v6.414c0 4.973-4.216 9.159-9.024 9.159H24.56c-3.952 0-7.223 3.383-7.223 7.34v13.756c0 3.914 3.404 6.217 7.223 7.34 4.572 1.345 8.957 1.588 14.428 0 3.637-1.053 7.223-3.172 7.223-7.34V48.48H31.781v-1.835h21.652c4.198 0 5.762-2.928 7.222-7.324 1.508-4.525 1.444-8.876 0-14.68-1.037-4.18-3.019-7.324-7.222-7.324H48.01zM39.896 52.15c1.498 0 2.711 1.227 2.711 2.745 0 1.522-1.213 2.76-2.71 2.76-1.493 0-2.711-1.238-2.711-2.76 0-1.518 1.218-2.745 2.71-2.745z" fill="url(#e)"/></svg>