<svg xmlns="http://www.w3.org/2000/svg" xmlns:xlink="http://www.w3.org/1999/xlink" width="48" height="48" overflow="visible" version="1"><defs><linearGradient id="l"><stop offset="0" stop-color="#fff"/><stop offset="1" stop-color="#fff" stop-opacity="0"/></linearGradient><linearGradient id="k"><stop offset="0" stop-color="#c4a000"/><stop offset="1" stop-color="#fce94f"/></linearGradient><linearGradient y2="27.837" x2="74.587" y1="21.425" x1="68.175" gradientUnits="userSpaceOnUse" id="f"><stop offset="0" stop-color="#babdb6"/><stop offset="1" stop-color="#eeeeec"/></linearGradient><radialGradient gradientUnits="userSpaceOnUse" gradientTransform="matrix(1 0 0 1.0103 0 -.16)" r="7.285" cy="23.333" cx="165.061" id="e"><stop offset="0" stop-color="#ef3535"/><stop offset="0" stop-color="#c91a1a"/><stop offset="1" stop-color="#ff4c4c"/></radialGradient><linearGradient gradientTransform="matrix(2.051 0 .1672 -.989 -799.205 221.072)" y2="-79.574" x2="1420.654" y1="-50.919" x1="1420.547" gradientUnits="userSpaceOnUse" id="b"><stop offset="0" stop-color="#c4a000"/><stop offset="1" stop-color="#957a00"/></linearGradient><linearGradient gradientTransform="matrix(1.2138 0 .2825 -1.6712 46.726 447.944)" y2="175.789" x2="1679.599" y1="185.302" x1="1668.765" gradientUnits="userSpaceOnUse" id="a"><stop offset="0" stop-color="#fff"/><stop offset="1" stop-color="#cfcfcf"/></linearGradient><linearGradient y2="10.711" x2="296.94" y1="4.759" x1="292.972" gradientUnits="userSpaceOnUse" id="c"><stop offset="0" stop-color="#eeeeec"/><stop offset="1" stop-color="#fff"/></linearGradient><radialGradient id="i" cx="165.061" cy="23.333" r="7.285" gradientTransform="matrix(1 0 0 1.0103 0 -.16)" gradientUnits="userSpaceOnUse"><stop offset="0" stop-color="#ef3535"/><stop offset="1" stop-color="#a40000" stop-opacity="0"/></radialGradient><linearGradient id="d"><stop offset="0" stop-color="#e2e2e2"/><stop offset="1" stop-color="#d8d8d8"/></linearGradient><linearGradient id="g"><stop offset="0" stop-color="#df2a2a"/><stop offset="1" stop-color="#df2a2a" stop-opacity="0"/></linearGradient><linearGradient id="h"><stop offset="0" stop-color="#9a0c00"/><stop offset="1" stop-color="#9a0c00" stop-opacity="0"/></linearGradient><linearGradient id="j"><stop offset="0"/><stop offset="1" stop-opacity="0"/></linearGradient><linearGradient xlink:href="#c" id="p" gradientUnits="userSpaceOnUse" gradientTransform="matrix(-4.12776 0 0 4.1366 2003.489 504.25)" x1="292.972" y1="4.759" x2="296.94" y2="10.711"/><linearGradient xlink:href="#d" id="q" gradientUnits="userSpaceOnUse" gradientTransform="translate(759.024 516.155)" x1="20.288" y1="6.46" x2="24.326" y2="23.943"/><linearGradient xlink:href="#e" id="r" gradientUnits="userSpaceOnUse" x1="294.595" y1="12.188" x2="297.185" y2="13.34"/><linearGradient xlink:href="#e" id="s" gradientUnits="userSpaceOnUse" gradientTransform="matrix(3.6379 0 0 3.47038 -297.092 500.148)" x1="296.486" y1="15.507" x2="296.529" y2="9.877"/><linearGradient xlink:href="#c" id="t" gradientUnits="userSpaceOnUse" gradientTransform="matrix(4.05343 0 0 4.1366 -416.511 504.25)" x1="292.972" y1="4.759" x2="296.94" y2="10.711"/><linearGradient xlink:href="#d" id="u" gradientUnits="userSpaceOnUse" gradientTransform="translate(759.024 516.155)" x1="20.288" y1="6.46" x2="24.326" y2="23.943"/><linearGradient xlink:href="#f" id="v" gradientUnits="userSpaceOnUse" x1="22.225" y1="23.843" x2="24.19" y2="22.861"/><linearGradient xlink:href="#e" id="w" gradientUnits="userSpaceOnUse" gradientTransform="matrix(1.16188 0 0 .9925 756.593 516.42)" x1="7.185" y1="31.057" x2="25.152" y2="50.775"/><linearGradient xlink:href="#e" id="x" gradientUnits="userSpaceOnUse" gradientTransform="matrix(1.16188 0 0 .9925 756.357 516.219)" x1="13.825" y1="40.069" x2="7.67" y2="2.326"/><radialGradient xlink:href="#e" id="y" gradientUnits="userSpaceOnUse" gradientTransform="matrix(1 0 0 1.06038 759.024 513.856)" cx="34.376" cy="37.5" fx="34.376" fy="37.5" r="8.389"/><linearGradient xlink:href="#g" id="z" gradientUnits="userSpaceOnUse" x1="298.479" y1="13.6" x2="298.869" y2="13.803"/><linearGradient xlink:href="#h" id="A" gradientUnits="userSpaceOnUse" x1="298.479" y1="13.6" x2="298.869" y2="13.803"/><linearGradient xlink:href="#e" id="B" gradientUnits="userSpaceOnUse" gradientTransform="matrix(3.62444 0 0 3.62444 -294.155 499.308)" x1="296.762" y1="12.012" x2="297.798" y2="10.947"/><linearGradient xlink:href="#i" id="C" gradientUnits="userSpaceOnUse" gradientTransform="matrix(1.16188 0 0 .9925 753.912 516.219)" x1="39.62" y1="44.541" x2="-3.533" y2="-11.889"/><radialGradient xlink:href="#j" id="D" gradientUnits="userSpaceOnUse" gradientTransform="matrix(1 0 0 .32526 0 28.086)" cx="25.188" cy="41.625" fx="25.188" fy="41.625" r="18.063"/><linearGradient xlink:href="#k" id="n" x1="42.426" y1="58.076" x2="32.35" y2="16.357" gradientUnits="userSpaceOnUse"/><linearGradient xlink:href="#l" id="o" x1="28.835" y1="11.914" x2="52.132" y2="70.073" gradientUnits="userSpaceOnUse"/><radialGradient xlink:href="#j" id="m" gradientUnits="userSpaceOnUse" gradientTransform="matrix(1 0 0 .32526 0 28.086)" cx="25.188" cy="41.625" fx="25.188" fy="41.625" r="18.063"/></defs><path transform="matrix(.96886 0 0 .4652 6.097 24.903)" d="M43.25 41.625a18.063 5.875 0 1 1-36.125 0 18.063 5.875 0 1 1 36.125 0z" style="marker:none" opacity=".267" color="#000" fill="url(#m)" fill-rule="evenodd" overflow="visible"/><path d="M44.469 3.688l-28.032 40.78H44.47V3.689zM38.53 23.5v14H29.5l9.031-14z" fill="url(#n)" fill-rule="evenodd" stroke="#c4a000" stroke-width="1.027"/><path d="M43.5 43.5V6.844L18.375 43.437 43.5 43.5z" fill="none" stroke="url(#o)" opacity=".639"/><path d="M793.198 517.78c.212.069.417.145.624.217.651 2.197 3.671 4.42 2.523 6.607-3.826 6.38-7.624 12.846-11.422 19.276-.745.147-1.498.227-2.251.245-1.587.04-3.215-.195-4.72-.734 5.05-8.551 10.103-17.122 15.246-25.611z" fill="url(#p)" stroke="#888a85" stroke-width="1.208" stroke-linecap="round" stroke-linejoin="round" transform="matrix(.82793 0 0 .82793 -628.864 -425.078)"/><path d="M793.313 520.405c-.232.307-.45.87-.687 1.156-4.046 6.753-8.162 13.494-12.223 20.219-.06.253-.814 1.012-.012.943 1.111.198 2.271.35 3.38.057 3.758-6.217 7.445-12.482 11.196-18.702.342-.387.409-.925.05-1.312-.53-.816-1.068-1.675-1.61-2.455l-.071.071-.023.023z" fill="url(#q)" transform="matrix(.82793 0 0 .82793 -628.864 -425.078)"/><path transform="matrix(3.0119 0 0 2.87321 -874.834 -10.993)" fill="url(#r)" stroke="#9a0c00" stroke-width=".34" stroke-linecap="round" stroke-linejoin="round" d="M297.044 12.3l-.645 1.085-1.266 1.334-.4-1.046 1.014-1.713 1.297.34z"/><path d="M779.43 543.124c-1.222.486-1.214 2.035-1.925 2.964-.342.716-.944 1.346-1.2 2.098-.01.516.448 1.36 1.031.906a14.48 14.48 0 0 0 3.444-4.126c.233-.49.796-.895.869-1.405-.539-.57-1.513-.533-2.22-.437z" fill="url(#s)" transform="matrix(.82793 0 0 .82793 -628.864 -425.078)"/><path d="M771.984 517.78c-.208.069-.41.145-.613.217-.64 2.197-3.605 4.42-2.478 6.607 3.757 6.38 7.487 12.846 11.216 19.276.733.147 1.471.227 2.212.245 1.557.04 3.157-.195 4.635-.734-4.96-8.551-9.922-17.122-14.972-25.611z" fill="url(#t)" stroke="#888a85" stroke-width="1.208" stroke-linecap="round" stroke-linejoin="round" transform="matrix(.82793 0 0 .82793 -628.864 -425.078)"/><path d="M771.743 520.405c-.383 1.127-1.45 1.956-1.714 3.156 3.708 6.394 7.47 12.77 11.176 19.156 1.199.259 2.429.094 3.614-.156-.189-.74-.738-1.33-1.03-2.03-3.895-6.57-7.824-13.133-11.678-19.72-.015-.151-.217-.484-.368-.406z" fill="url(#u)" transform="matrix(.82793 0 0 .82793 -628.864 -425.078)"/><path transform="matrix(.81128 0 0 .82793 -.191 2.404)" d="M24.19 23.843a.983.983 0 1 1-1.965 0 .983.983 0 1 1 1.965 0z" style="marker:none" color="#000" fill="url(#v)" overflow="visible"/><path d="M776.724 546.442c3.235 1.727 3.496 6.613.578 10.914-2.918 4.304-7.904 6.395-11.14 4.676-3.237-1.726-3.497-6.61-.579-10.911 2.917-4.302 7.905-6.393 11.141-4.68zm-1.855 2.742c-1.437-.764-4.507.54-6.466 3.434-1.963 2.894-1.823 5.914-.388 6.675 1.435.768 4.509-.54 6.468-3.434 1.964-2.894 1.822-5.911.386-6.675z" fill="url(#w)" stroke="#a40000" transform="matrix(.82793 0 0 .82793 -628.864 -425.078)"/><path d="M773.35 546.738c-1.926.388-3.635 1.454-5.048 2.482-.751.694-1.243 1.45-1.915 2.254-1.709 2.352-2.425 5.443-1.073 8.07.62 1.453 2.642 2.047 4.368 1.679 1.452-.249 2.681-1.162 3.812-1.8.921-.79 1.554-1.626 2.333-2.59 1.81-2.475 2.792-5.75 1.298-8.513-.723-1.142-2.234-1.747-3.776-1.582zm.471.962c2.017.25 3.357 2.033 3.123 3.722.02 2.287-1.146 4.444-2.723 6.234-1.418 1.402-3.349 2.728-5.665 2.636-1.358-.003-2.432-.912-2.815-1.96-.617-2.532.194-5.266 1.966-7.338 1.358-1.524 3.195-2.887 5.467-3.242.216-.015.431-.043.647-.052z" fill="url(#x)" transform="matrix(.82793 0 0 .82793 -628.864 -425.078)"/><path d="M789.355 546.442c-3.235 1.727-3.495 6.613-.577 10.914 2.917 4.304 7.904 6.395 11.14 4.676 3.237-1.726 3.496-6.61.578-10.911-2.916-4.302-7.904-6.393-11.14-4.68zm1.856 2.742c1.436-.764 4.507.54 6.466 3.434 1.963 2.894 1.823 5.914.388 6.675-1.435.768-4.51-.54-6.468-3.434-1.964-2.894-1.823-5.911-.386-6.675z" fill="url(#y)" stroke="#a40000" transform="matrix(.82793 0 0 .82793 -628.864 -425.078)"/><path transform="matrix(3.00076 0 0 3.00076 -872.402 -11.689)" fill="url(#z)" stroke="url(#A)" stroke-width=".333" stroke-linecap="round" stroke-linejoin="round" d="M296.956 12.3l.644 1.085 1.267 1.334.401-1.046-1.014-1.713-1.298.34z"/><path d="M785.18 544.092c-.427.2-1.017.202-1.344.5.95 1.402 1.89 2.915 2.851 4.213.669.755 1.356 1.5 2.118 2.163.735-1.392.135-3.062-.813-4.188-.602-.9-.83-2.113-1.843-2.594-.304-.118-.65-.178-.97-.094z" fill="url(#B)" transform="matrix(.82793 0 0 .82793 -628.864 -425.078)"/><path d="M791.304 546.604c-1.52.23-2.895 1.086-3.24 2.388-1.132 2.396-.216 5.114 1.28 7.227 1.101 1.345 1.94 2.93 3.639 3.774 1.47.923 3.34 1.89 5.217 1.3 1.514-.433 2.371-1.68 2.68-2.971.605-2.31-.295-4.676-1.706-6.637-.66-.913-1.333-1.883-2.114-2.694-1.194-.904-2.638-1.652-4.089-2.233-.534-.11-1.115-.232-1.667-.154zm.435 1.21c1.758-.067 3.235.74 4.377 1.769 1.032.969 2.022 1.805 2.662 2.999 1.078 1.82 1.388 3.98.84 5.963-.528 1.325-2.226 1.972-3.79 1.617-1.983-.23-3.218-1.672-4.527-2.809-1.506-1.431-2.44-3.478-2.51-5.482.013-1.018-.027-2.179.697-3.034.413-.543 1.38-1.054 2.251-1.023z" fill="url(#C)" transform="matrix(.82793 0 0 .82793 -628.864 -425.078)"/><path transform="matrix(1.03992 0 0 .6782 -6.41 9.786)" d="M43.25 41.625a18.063 5.875 0 1 1-36.125 0 18.063 5.875 0 1 1 36.125 0z" style="marker:none" opacity=".267" color="#000" fill="url(#D)" fill-rule="evenodd" overflow="visible"/><path d="M43.506 40.616h-.758M43.506 36.616h-.758M43.506 32.616h-.758M43.506 28.616h-.758M43.506 24.616h-.758M43.506 20.616h-.758M43.506 16.616h-.758M43.506 12.616h-.758" fill="#2e3436" fill-opacity=".75" fill-rule="evenodd" stroke="#c4a000" stroke-linecap="square"/></svg>