<svg xmlns="http://www.w3.org/2000/svg" xmlns:xlink="http://www.w3.org/1999/xlink" width="48" height="48"><defs><linearGradient id="i"><stop offset="0" stop-color="#babdb6"/><stop offset="1" stop-color="#babdb6" stop-opacity="0"/></linearGradient><linearGradient id="h"><stop offset="0" stop-color="#fff"/><stop offset="1" stop-color="#fff" stop-opacity="0"/></linearGradient><linearGradient id="g"><stop offset="0" stop-color="#cecece"/><stop offset="1" stop-color="#9e9e9e"/></linearGradient><linearGradient id="f"><stop offset="0" stop-color="#fff"/><stop offset="1" stop-color="#fff" stop-opacity="0"/></linearGradient><linearGradient id="e"><stop offset="0" stop-color="#525252"/><stop offset="1" stop-color="#525252" stop-opacity="0"/></linearGradient><linearGradient id="d"><stop offset="0" stop-color="#4e4e4e"/><stop offset="1" stop-color="#616161" stop-opacity="0"/></linearGradient><linearGradient id="c"><stop offset="0" stop-color="#4e4e4e"/><stop offset="1" stop-color="#ababab"/></linearGradient><linearGradient id="b"><stop offset="0"/><stop offset="1" stop-opacity="0"/></linearGradient><linearGradient id="a"><stop offset="0" stop-color="#fff"/><stop offset="1" stop-color="#fff" stop-opacity="0"/></linearGradient><linearGradient gradientUnits="userSpaceOnUse" y2="27.759" x2="18.031" y1="19.804" x1="46.846" id="l" xlink:href="#c" gradientTransform="translate(-12.02)"/><radialGradient gradientUnits="userSpaceOnUse" gradientTransform="matrix(2.56582 0 0 1.40326 -49.804 -9.483)" r="9.723" fy="7.14" fx="27.884" cy="7.14" cx="27.884" id="m" xlink:href="#d"/><linearGradient gradientTransform="translate(-13.137)" gradientUnits="userSpaceOnUse" y2="24.765" x2="34.007" y1="19.108" x1="31.853" id="n" xlink:href="#e"/><linearGradient gradientUnits="userSpaceOnUse" y2="18.064" x2="33.711" y1="21.511" x1="31.079" id="o" xlink:href="#g" gradientTransform="translate(-12.02)"/><linearGradient xlink:href="#h" id="p" x1="40.25" y1="31.625" x2="40.25" y2="43.25" gradientUnits="userSpaceOnUse" gradientTransform="translate(-12.02)"/><filter x="-.142" width="1.283" y="-.104" height="1.208" id="q"><feGaussianBlur stdDeviation="2.07"/></filter><filter x="-.067" width="1.134" y="-.12" height="1.239" id="k"><feGaussianBlur stdDeviation=".769"/></filter><radialGradient xlink:href="#b" id="r" gradientUnits="userSpaceOnUse" gradientTransform="matrix(1 0 0 .53672 0 16.873)" cx="24.837" cy="36.421" fx="24.837" fy="36.421" r="15.645"/><radialGradient xlink:href="#a" id="s" gradientUnits="userSpaceOnUse" gradientTransform="matrix(1.25344 0 0 .9539 -15.48 11.277)" cx="19.701" cy="2.897" fx="19.701" fy="2.897" r="17.171"/><linearGradient xlink:href="#f" id="t" gradientUnits="userSpaceOnUse" x1="8.76" y1="13.663" x2="19.756" y2="43.45" gradientTransform="matrix(.96872 0 0 .96892 .362 .738)"/><linearGradient xlink:href="#i" id="j" x1="18.729" y1="44" x2="18.729" y2="29.068" gradientUnits="userSpaceOnUse"/></defs><rect ry=".707" rx=".707" y="2.569" x="1.481" height="41.942" width="31.996" style="marker:none" color="#000" fill="#eeeeec" fill-rule="evenodd" stroke="#555753" stroke-miterlimit="10" overflow="visible"/><path style="marker:none" color="#000" fill="url(#j)" fill-rule="evenodd" overflow="visible" d="M1.979 17.241h31V44h-31z"/><path d="M2.104 43.875L23.48 35s3.514-2.22.25-3.5c-3.415-1.34-7 .5-7 .5L2.104 43.875z" opacity=".554" fill-rule="evenodd" filter="url(#k)"/><path d="M2.017 43.945l-.039-40.89 19.942.044.045 29.92L2.017 43.944z" style="marker:none" color="#000" fill="url(#l)" fill-rule="evenodd" overflow="visible"/><path style="marker:none" d="M1.949 43.945l20.148-10.883L3.536 41.99V3.01h-1.57l-.017 40.935z" opacity=".422" color="#000" fill="#fff" display="block" overflow="visible"/><path style="marker:none" d="M2.024 43.757L1.979 3.055H21.92l-.179 30.626L2.024 43.757z" color="#000" fill="url(#m)" fill-rule="evenodd" overflow="visible"/><path d="M17.622 18.456l1.923 2.453-1.459 4.817s.265 1.503 1.039.486c.773-1.016 2.972-3.582 2.585-5.458-.287-1.392-1.083-2.055-1.083-2.055l-3.005-.243z" style="marker:none" color="#000" fill="url(#n)" fill-rule="evenodd" overflow="visible"/><path d="M19.456 17.351s2.164 1.002 2.232 1.879c.102 1.301-4.243 5.435-4.243 5.435-.508.62-1.347.067-.883-.53 0 0 3.466-4.118 3.248-4.441-.274-.406-1.967-1.039-1.967-1.039-1.016-.751.268-2.305 1.613-1.304z" style="marker:none" color="#000" fill="url(#o)" fill-rule="evenodd" overflow="visible"/><path d="M22.23 3.5l-.5 29.75-18 9.75 29.25.25-.25-39.75h-10.5z" fill="url(#p)" fill-rule="evenodd" filter="url(#q)" opacity=".874"/><g color="#000"><path transform="matrix(-.77849 0 0 .77849 55.781 1.55)" d="M40.482 36.421a15.645 8.397 0 1 1-31.29 0 15.645 8.397 0 1 1 31.29 0z" style="marker:none" opacity=".299" fill="url(#r)" fill-rule="evenodd" overflow="visible"/><path d="M46.47 17.546v12.762h-7.933v5.82L26.314 23.906 38.61 11.61v5.94l7.86-.003z" style="marker:none" fill="#c00" fill-rule="evenodd" stroke="#a40000" stroke-linecap="round" stroke-linejoin="round" stroke-miterlimit="10" overflow="visible"/><path d="M9.924 12.478v5.638h-7.85v6.415c10.259-3.827 9.881 3.243 19.22-.585L9.924 12.478z" style="marker:none" opacity=".508" fill="url(#s)" fill-rule="evenodd" overflow="visible" transform="matrix(-1 0 0 1 48.201 -.047)"/><path style="marker:none" d="M2.683 18.566v10.79h7.902v4.125l9.543-9.54-9.606-9.944v4.572l-7.839-.003z" opacity=".481" fill="none" stroke="url(#t)" stroke-miterlimit="10" overflow="visible" transform="matrix(-1 0 0 1 48.201 -.047)"/></g></svg>