<svg xmlns="http://www.w3.org/2000/svg" xmlns:xlink="http://www.w3.org/1999/xlink" width="64" height="64"><defs><linearGradient id="a"><stop offset="0" stop-color="#fff"/><stop offset="1" stop-color="#d3d7cf"/></linearGradient><radialGradient xlink:href="#a" id="b" cx="289.444" cy="468.01" fx="289.444" fy="468.01" r="70.982" gradientTransform="matrix(1.1588 1.08421 -1.4117 1.22498 614.73 -415.725)" gradientUnits="userSpaceOnUse"/></defs><g stroke-linejoin="round"><path d="M393.571 503.434a68.571 61.786 0 1 1-137.142 0 68.571 61.786 0 1 1 137.142 0z" transform="matrix(.42292 0 0 .46936 -105.448 -204.294)" fill="#729fcf" stroke="#0b1521" stroke-width="4.489" stroke-miterlimit="4.2"/><path d="M393.571 503.434a68.571 61.786 0 1 1-137.142 0 68.571 61.786 0 1 1 137.142 0z" transform="matrix(.39375 0 0 .437 -95.969 -187.998)" fill="url(#b)" stroke="#729fcf" stroke-width="4.821" stroke-miterlimit="4.2"/><g style="text-align:center;line-height:125%;-inkscape-font-specification:FreeSerif" font-size="35.821" font-weight="400" letter-spacing="0" word-spacing="0" text-anchor="middle" fill="#204a87" stroke="#3465a4" stroke-width="2" stroke-linecap="round" font-family="FreeSerif" font-style="italic"><path d="M11.396 44.83c0 .181-.042.35-.126.509-.105.18-.158.316-.158.407 0 .361.21.542.63.542 1.346 0 2.365-1.83 3.058-5.491l2.774-14.238h-2.837l.221-1.084h2.9c.273-.927.505-1.695.694-2.306.21-.61.504-1.344.882-2.203.4-.859.81-1.548 1.23-2.068.42-.52.945-.96 1.576-1.322A3.867 3.867 0 0 1 24.289 17c.778 0 1.419.215 1.923.644.525.407.788.927.788 1.56 0 .361-.137.677-.41.949a1.203 1.203 0 0 1-.914.406c-.357 0-.641-.124-.851-.373-.21-.248-.315-.576-.315-.983 0-.203.052-.418.157-.644.105-.226.158-.361.158-.406 0-.272-.231-.407-.694-.407-.882 0-1.628.621-2.238 1.864-.61 1.243-1.145 3.198-1.608 5.865h3.405l-.19 1.084h-3.435l-2.27 10.848c-.651 3.118-1.513 5.491-2.585 7.118C14.138 46.175 12.898 47 11.49 47c-.693 0-1.282-.203-1.765-.61-.483-.407-.725-.893-.725-1.458 0-.384.116-.712.347-.983a.99.99 0 0 1 .82-.407c.336 0 .63.125.882.373.231.249.347.554.347.916M28.626 47c-1.294-2.282-2.222-4.353-2.784-6.212-.561-1.859-.842-4.035-.842-6.53 0-2.117.293-4.105.88-5.964.61-1.859 1.452-3.494 2.527-4.906 1.074-1.435 1.99-2.54 2.747-3.317.781-.8 1.71-1.66 2.784-2.577.268-.235.464-.4.586-.494l.476.53c-1.197 1.223-2.137 2.329-2.82 3.317-.684.965-1.32 2.141-1.905 3.53-1.832 4.258-2.748 8.67-2.748 13.235 0 1.694.123 3.2.367 4.517.268 1.318.732 2.871 1.392 4.66l-.66.211M44.709 39.053c.126 0 .24-.012.342-.035a1.39 1.39 0 0 0 .341-.248 5.99 5.99 0 0 0 .38-.39c.127-.141.33-.377.608-.707l.911-.992.532.284c-1.089 1.58-1.95 2.654-2.582 3.22-.633.544-1.317.815-2.051.815-.608 0-1.063-.165-1.367-.496-.304-.33-.583-.955-.836-1.876l-1.139-4.247c-2.253 2.902-3.797 4.731-4.633 5.486-.81.755-1.582 1.133-2.316 1.133-.583 0-1.038-.13-1.367-.39A1.34 1.34 0 0 1 31 39.514c0-.354.127-.649.38-.885a1.29 1.29 0 0 1 .911-.354c.304 0 .696.118 1.177.354.481.213.823.319 1.026.319.43 0 1.076-.566 1.936-1.7l3.114-4.14-1.101-4.355c-.253-1.062-.481-1.734-.684-2.017-.202-.284-.544-.425-1.025-.425-.253 0-.962.13-2.126.39l-.152-.532.417-.141c2.228-.685 3.71-1.027 4.443-1.027.507 0 .887.224 1.14.673.278.424.557 1.239.835 2.442l.418 1.947c1.316-1.888 2.392-3.198 3.228-3.93.835-.754 1.67-1.132 2.506-1.132.456 0 .823.13 1.101.39.304.235.456.542.456.92 0 .377-.127.684-.38.92-.228.236-.544.354-.95.354-.252 0-.581-.094-.986-.283-.406-.212-.722-.319-.95-.319-.734 0-1.975 1.428-3.721 4.283 0 .543.506 2.655 1.519 6.337.253.967.645 1.451 1.177 1.451" style="-inkscape-font-specification:FreeSerif Italic"/><path d="M51.374 17c1.22 2.12 2.124 4.17 2.71 6.148.61 1.98.916 4.229.916 6.75 0 3.439-.794 6.49-2.381 9.151-1.587 2.639-3.968 5.289-7.143 7.951L45 46.47c2.002-2.026 3.468-4.04 4.396-6.042.903-1.885 1.636-4.123 2.197-6.714.586-2.591.88-5.018.88-7.28 0-3.415-.599-6.501-1.795-9.257l.696-.177" style="-inkscape-font-specification:FreeSerif Italic"/></g></g></svg>