<svg xmlns="http://www.w3.org/2000/svg" xmlns:xlink="http://www.w3.org/1999/xlink" width="64" height="64" version="1"><defs><linearGradient id="i"><stop offset="0" stop-color="#fff"/><stop offset="1" stop-color="#d3d7cf"/></linearGradient><linearGradient id="h"><stop offset="0" stop-color="#fce94f"/><stop offset="1" stop-color="#edd400"/></linearGradient><linearGradient id="f"><stop offset="0" stop-color="red" stop-opacity=".087"/><stop offset="1" stop-color="#d40000"/></linearGradient><linearGradient id="e"><stop offset="0"/><stop offset="1" stop-color="#fff" stop-opacity=".485"/></linearGradient><linearGradient id="b"><stop offset="0" stop-color="#babdb6"/><stop offset="1" stop-color="#555753"/></linearGradient><linearGradient id="a"><stop offset="0" stop-color="#f7f7f7"/><stop offset="1" stop-color="#ccd0c7"/></linearGradient><linearGradient id="c"><stop offset="0" stop-color="#fff"/><stop offset="1" stop-color="#fff" stop-opacity="0"/></linearGradient><linearGradient id="d"><stop offset="0"/><stop offset="1" stop-opacity="0"/></linearGradient><linearGradient id="g"><stop offset="0" stop-color="#ebf90a" stop-opacity="0"/><stop offset="1" stop-color="#ebf90a"/></linearGradient><radialGradient xlink:href="#h" id="k" cx="40.042" cy="10.743" fx="40.042" fy="10.743" r="19.596" gradientTransform="matrix(.6111 .72258 -1.29263 1.09432 29.46 -29.95)" gradientUnits="userSpaceOnUse"/><linearGradient xlink:href="#i" id="j" x1="25" y1="6" x2="37" y2="36" gradientUnits="userSpaceOnUse"/></defs><path d="M30.543 11L59 35.162 32.488 61 3 35.927z" fill="#34e0e2" stroke="#042a2a" stroke-width="2" stroke-linejoin="round"/><path d="M30.592-2L56 19.262 32.328 42 6 19.936z" fill="url(#j)" stroke="#34e0e2" stroke-width="2" stroke-linejoin="round" transform="translate(0 16)"/><path style="line-height:125%;-inkscape-font-specification:Nimbus Roman No9 L Bold" d="M23 34l2 17c5 3 9 3 14 0l2-17" font-size="40" font-weight="700" letter-spacing="0" word-spacing="0" fill="#888a85" stroke="#2e3436" stroke-width="2" stroke-linejoin="round" font-family="Nimbus Roman No9 L"/><path d="M24 35c4 4 10 4 16 4" fill="none" stroke="#2e3436" stroke-width="2"/><path d="M65.08 18.364a18.507 18.516 0 1 1-37.013 0 18.507 18.516 0 1 1 37.013 0z" transform="matrix(.91859 0 0 .91813 -10.782 3.14)" fill="url(#k)" stroke="#302b00" stroke-width="2.178" stroke-linecap="round" stroke-linejoin="round"/><path d="M65.08 18.364c0 10.226-8.285 18.516-18.506 18.516s-18.507-8.29-18.507-18.516c0-10.226 8.286-18.516 18.507-18.516 10.22 0 18.506 8.29 18.506 18.516z" transform="matrix(.81052 0 0 .81011 -5.75 5.123)" fill="none" stroke="#fce94f" stroke-width="2.468" stroke-linecap="round" stroke-linejoin="round"/><g style="line-height:125%;-inkscape-font-specification:Nimbus Roman No9 L Bold"><path d="M32 27.054c-1.84 0-3.36 1.56-3.36 3.36 0 1.92 1.44 3.4 3.32 3.4 1.92 0 3.44-1.48 3.44-3.32 0-1.88-1.52-3.44-3.4-3.44M33 24c.52-4.92.8-6.16 2-10 .56-1.76 1-3.08 1-4 0-2.6-1.88-4-4-4-2.16 0-4 1.48-4 4 0 1 .44 2.2 1 4 1.16 3.8 1.48 5.08 2 10h2" style="-inkscape-font-specification:Nimbus Roman No9 L Bold" font-size="40" font-weight="700" letter-spacing="0" word-spacing="0" font-family="Nimbus Roman No9 L"/></g><path d="M24 40c4 4 10 4 16 4M24.212 46c4 4 9.788 4 15.788 4" fill="none" stroke="#2e3436" stroke-width="2"/></svg>