<svg xmlns="http://www.w3.org/2000/svg" xmlns:xlink="http://www.w3.org/1999/xlink" width="64" height="64"><defs><linearGradient xlink:href="#a" id="h" x1="145.72" y1="158.352" x2="127.682" y2="117.972" gradientUnits="userSpaceOnUse"/><linearGradient id="a"><stop offset="0" stop-color="#a40000"/><stop offset="1" stop-color="#ef2929"/></linearGradient><linearGradient xlink:href="#a" id="i" gradientUnits="userSpaceOnUse" x1="145.72" y1="158.352" x2="127.682" y2="117.972"/><linearGradient xlink:href="#a" id="j" gradientUnits="userSpaceOnUse" x1="145.72" y1="158.352" x2="127.682" y2="117.972"/><linearGradient xlink:href="#b" id="e" x1="130.565" y1="118.313" x2="147.897" y2="157.057" gradientUnits="userSpaceOnUse"/><linearGradient id="b"><stop offset="0" stop-color="#a40000"/><stop offset="1" stop-color="#ef2929"/></linearGradient><linearGradient xlink:href="#b" id="f" gradientUnits="userSpaceOnUse" x1="130.565" y1="118.313" x2="147.897" y2="157.057"/><linearGradient xlink:href="#b" id="g" gradientUnits="userSpaceOnUse" x1="130.565" y1="118.313" x2="147.897" y2="157.057"/><linearGradient id="c"><stop offset="0" stop-color="#16d0d2"/><stop offset="1" stop-color="#34e0e2"/></linearGradient><linearGradient id="d"><stop offset="0" stop-color="#06989a"/><stop offset="1" stop-color="#16d0d2"/></linearGradient></defs><g fill="none"><g transform="matrix(1.20565 0 0 1.20565 -134.379 -134.379)" stroke="#280000" stroke-width="6.635"><circle transform="matrix(.17391 0 0 .17391 114 114)" r="124" cy="138" cx="138" stroke-width="38.154"/><path d="M121.826 121.826l32.348 32.348"/></g><g transform="matrix(1.20565 0 0 1.20565 -190.379 -114.379)" stroke="url(#e)" stroke-width="3.318"><circle transform="matrix(.17391 0 0 .17391 160.448 97.411)" r="124" cy="138" cx="138" stroke="url(#f)" stroke-width="19.077"/><path stroke="url(#g)" d="M168.274 105.237l32.348 32.348"/></g><g transform="matrix(1.25202 0 0 1.25202 -140.778 -140.778)" stroke="url(#h)" stroke-width="1.597"><circle transform="matrix(.17391 0 0 .17391 114 114)" r="124" cy="138" cx="138" stroke="url(#i)" stroke-width="9.185"/><path stroke="url(#j)" d="M125.081 123.51l27.296 27.269"/></g></g></svg>