<svg xmlns="http://www.w3.org/2000/svg" xmlns:xlink="http://www.w3.org/1999/xlink" height="48" width="48"><defs><radialGradient xlink:href="#a" id="q" gradientUnits="userSpaceOnUse" gradientTransform="matrix(-2.77439 0 0 1.9697 112.762 -872.885)" cx="605.714" cy="486.648" fx="605.714" fy="486.648" r="117.143"/><linearGradient id="a"><stop offset="0"/><stop offset="1" stop-opacity="0"/></linearGradient><radialGradient xlink:href="#a" id="p" gradientUnits="userSpaceOnUse" gradientTransform="matrix(2.77439 0 0 1.9697 -1891.633 -872.885)" cx="605.714" cy="486.648" fx="605.714" fy="486.648" r="117.143"/><linearGradient id="b"><stop offset="0" stop-opacity="0"/><stop offset=".5"/><stop offset="1" stop-opacity="0"/></linearGradient><linearGradient xlink:href="#b" id="o" gradientUnits="userSpaceOnUse" gradientTransform="matrix(2.77439 0 0 1.9697 -1892.179 -872.885)" x1="302.857" y1="366.648" x2="302.857" y2="609.505"/><linearGradient id="n"><stop offset="0" stop-color="#fff"/><stop offset="1" stop-color="#fff" stop-opacity="0"/></linearGradient><linearGradient id="k"><stop offset="0" stop-color="#fff"/><stop offset="1" stop-color="#fff" stop-opacity="0"/></linearGradient><linearGradient id="e"><stop offset="0" stop-color="#8b8b8b"/><stop offset=".5" stop-color="#d3d9da"/><stop offset="1" stop-color="#828282"/></linearGradient><linearGradient id="c"><stop offset="0"/><stop offset="1" stop-opacity="0"/></linearGradient><linearGradient id="g"><stop offset="0" stop-color="#010101"/><stop offset="1" stop-color="#959595"/></linearGradient><linearGradient id="d"><stop offset="0" stop-color="#363d40"/><stop offset=".5" stop-color="#818f95"/><stop offset="1" stop-color="#31383b"/></linearGradient><linearGradient id="m"><stop offset="0" stop-color="#353633"/><stop offset="1" stop-color="#676964"/></linearGradient><linearGradient id="l"><stop offset="0" stop-color="#555753"/><stop offset="1" stop-color="#313330"/></linearGradient><linearGradient id="j"><stop offset="0" stop-color="#555753"/><stop offset="1" stop-color="#141514"/></linearGradient><linearGradient id="i"><stop offset="0" stop-color="#eee"/><stop offset="1" stop-color="#a2a2a2"/></linearGradient><linearGradient id="h"><stop offset="0" stop-color="#fff"/><stop offset="1" stop-color="#cbcbcb"/></linearGradient><linearGradient id="f"><stop offset="0" stop-color="#7a7a7a"/><stop offset="1"/></linearGradient><radialGradient xlink:href="#c" id="r" gradientUnits="userSpaceOnUse" gradientTransform="matrix(1 0 0 .45357 0 20.115)" cx="25.375" cy="36.813" fx="25.375" fy="36.813" r="17.5"/><linearGradient xlink:href="#d" id="u" gradientUnits="userSpaceOnUse" x1="22.55" y1="39.052" x2="38.416" y2="30.566"/><linearGradient xlink:href="#e" id="v" gradientUnits="userSpaceOnUse" x1="23.661" y1="35.303" x2="33.904" y2="30.917"/><radialGradient xlink:href="#f" id="y" gradientUnits="userSpaceOnUse" gradientTransform="matrix(1 0 0 1.01351 0 -.305)" cx="16.875" cy="23.672" fx="16.875" fy="23.672" r="4.625"/><linearGradient xlink:href="#g" id="z" gradientUnits="userSpaceOnUse" x1="12.836" y1="18.849" x2="18.422" y2="27.073"/><linearGradient xlink:href="#h" id="E" gradientUnits="userSpaceOnUse" gradientTransform="matrix(.65524 0 0 1.89848 14.942 -35.552)" x1="6.56" y1="29.374" x2="6.56" y2="30.191"/><linearGradient xlink:href="#h" id="C" gradientUnits="userSpaceOnUse" gradientTransform="matrix(1.47778 0 0 1.98218 18.567 -51.608)" x1="6.56" y1="29.374" x2="6.56" y2="30.191"/><linearGradient xlink:href="#i" id="D" gradientUnits="userSpaceOnUse" gradientTransform="matrix(1.31842 0 0 .7732 18.707 -14.22)" x1="7.915" y1="30.817" x2="7.915" y2="24.701"/><linearGradient xlink:href="#j" id="B" gradientUnits="userSpaceOnUse" x1="29.395" y1="9.412" x2="29.395" y2="12.847"/><linearGradient xlink:href="#k" id="x" gradientUnits="userSpaceOnUse" x1="16.667" y1="16.125" x2="35.888" y2="57.125"/><linearGradient xlink:href="#l" id="w" gradientUnits="userSpaceOnUse" gradientTransform="matrix(1.025 0 0 1 -.068 0)" x1="7.871" y1="29.719" x2="14.844" y2="29.719"/><linearGradient xlink:href="#m" id="t" gradientUnits="userSpaceOnUse" x1="16.353" y1="26.093" x2="30.13" y2="26.093"/><linearGradient xlink:href="#l" id="s" gradientUnits="userSpaceOnUse" gradientTransform="matrix(1.03576 0 0 1 -.162 .202)" x1="7.871" y1="29.719" x2="14.844" y2="29.719"/><radialGradient xlink:href="#n" id="A" cx="14.75" cy="22.688" fx="14.75" fy="22.688" r="1.75" gradientTransform="matrix(1 0 0 1.03571 0 -.81)" gradientUnits="userSpaceOnUse"/></defs><g color="#000"><path style="marker:none" opacity=".402" fill="url(#o)" overflow="visible" d="M-1559.252-150.697h1339.633V327.66h-1339.633z" transform="matrix(.02453 0 0 .02087 45.15 37.315)"/><path style="marker:none" d="M-219.619-150.68v478.33c142.874.9 345.4-107.17 345.4-239.196S-33.655-150.68-219.619-150.68z" opacity=".402" fill="url(#p)" overflow="visible" transform="matrix(.02453 0 0 .02087 45.15 37.315)"/><path d="M-1559.252-150.68v478.33c-142.875.9-345.4-107.17-345.4-239.196s159.436-239.134 345.4-239.134z" style="marker:none" opacity=".402" fill="url(#q)" overflow="visible" transform="matrix(.02453 0 0 .02087 45.15 37.315)"/><path style="marker:none" d="M42.875 36.813a17.5 7.938 0 1 1-35 0 17.5 7.938 0 1 1 35 0z" transform="matrix(.6932 0 0 .81102 13.91 9.957)" opacity=".399" fill="url(#r)" display="block" overflow="visible"/><path style="marker:none" d="M8.933 18.92c-3.471 0-6.28 1.12-6.28 2.5 0 .158.158.29.227.438-.01.05-.097.041-.097.094 0 0-.13 16.312-.13 16.469 0 1.38 2.809 2.5 6.28 2.5s6.28-1.12 6.28-2.5l-.13-16.469c0-.053-.087-.044-.098-.094.07-.149.227-.28.227-.437 0-1.38-2.808-2.5-6.28-2.5z" fill="url(#s)" stroke="#282828" stroke-width="2" display="block" overflow="visible"/><path d="M2.143 38.648h40.143c1.11.1 2.22-1.15 2.22-1.857V19.143c-.102-1.111-3.97-2.424-4.879-2.525h-2.432l-2.924-3.085H23.714l-3.435 3.032s-6.727.211-11.941 1.167C3.123 18.687 2 20.319 2 21.532l.143 17.116z" style="marker:none" fill="url(#t)" stroke="#282828" display="block" overflow="visible"/><path d="M33.89 13.907l1.364 3.788 1.87-.454-3.233-3.334z" style="marker:none" fill="#3f413e" display="block" overflow="visible"/><path d="M42.528 32.595a2.476 2.476 0 1 1-4.951 0 2.476 2.476 0 1 1 4.951 0z" style="marker:none" fill="#585b57" stroke="#a7a7a7" stroke-width="1.00050036" display="block" overflow="visible"/><path transform="matrix(1.08292 0 0 1.08292 -3.32 -4.386)" d="M40.714 33.571a10.143 10.143 0 1 1-20.285 0 10.143 10.143 0 1 1 20.285 0z" style="marker:none" fill="url(#u)" display="block" overflow="visible"/><path style="marker:none" d="M40.714 33.571a10.143 10.143 0 1 1-20.285 0 10.143 10.143 0 1 1 20.285 0z" transform="matrix(1.08292 0 0 1.08292 -3.155 -2.496)" fill="url(#v)" display="block" overflow="visible"/><path d="M8.933 18.719c-3.435 0-6.214 1.12-6.214 2.5 0 .157.155.288.224.437-.01.05-.096.041-.096.094 0 0-.128 16.312-.128 16.469 0 1.38 2.779 2.5 6.214 2.5 3.435 0 6.214-1.12 6.214-2.5l-.128-16.469c0-.053-.086-.044-.096-.094.068-.149.224-.28.224-.437 0-1.38-2.779-2.5-6.214-2.5z" style="marker:none" fill="url(#w)" display="block" overflow="visible"/><path d="M24.244 14.16l-.758 3.636-.354 1.213-2.777-2.071 3.889-2.778z" style="marker:none" fill="#7b7e79" display="block" overflow="visible"/><path d="M19.03 27.995l4.91-8.582h11.213l4.839 7.115-4.738-8.732H23.436l-4.406 10.2z" style="marker:none" fill="#a7aba7" display="block" overflow="visible"/><path d="M20.313 16.875s-12.146.638-16.157 2.75c-.852.449-1.488.84-1.488 1.442 0 1.38 2.824 3.027 6.176 3.027 3.351 0 6-1.495 6-2.875 0-.315-.18-.63-.438-.907l8.625-1.812-2.718-1.625z" style="marker:none" fill="#888a85" display="block" overflow="visible"/><path d="M24.553 14.482l-3.917 2.793s-6.445.435-11.25 1.315c-4.804.88-6.22 1.834-6.344 3.013l.226 16.592c.296 1.16 3.23 2.073 6.228 2.073 2.999 0 5.502-1.6 5.798-2.76l26.488.124c1.461.03 1.731-.7 1.731-1.352V19.602c0-.712-2.841-1.864-3.679-1.957l-2.933.063-3.24-3.226h-9.108z" style="marker:none" opacity=".418" fill="none" stroke="url(#x)" display="block" overflow="visible"/><path d="M41.04 34.786a10.984 10.984 0 1 1-21.968 0 10.984 10.984 0 1 1 21.968 0z" style="marker:none" fill="#2e3436" display="block" overflow="visible"/><path style="marker:none" d="M19.875 22.563a4.125 4.188 0 1 1-8.25 0 4.125 4.188 0 1 1 8.25 0z" transform="matrix(1.67698 0 0 1.67698 3.488 -3.05)" fill="url(#y)" stroke="url(#z)" stroke-width=".596" overflow="visible" font-family="Bitstream Vera Sans"/><path style="marker:none" d="M33.17 34.851a2.935 3.04 0 1 1-5.87 0 2.935 3.04 0 1 1 5.87 0z" opacity=".608" fill="#fff" fill-opacity=".529" overflow="visible" font-family="Bitstream Vera Sans"/><path d="M30.942 32.961a2.928 3.033 0 1 1-5.856 0 2.928 3.033 0 1 1 5.856 0z" style="marker:none" opacity=".373" fill="#fff" overflow="visible" font-family="Bitstream Vera Sans"/><path style="marker:none" d="M16.5 22.688a1.75 1.813 0 1 1-3.5 0 1.75 1.813 0 1 1 3.5 0z" transform="translate(27.451 28.982) scale(.41273)" fill="url(#A)" overflow="visible" font-family="Bitstream Vera Sans"/><path d="M22.223 15.574l2.93-2.121.909-2.425h6.364l1.313 2.93 2.829 2.424-2.526-10.91h-9.9l-1.919 10.102z" style="marker:none" fill="url(#B)" display="block" overflow="visible"/><rect ry="1.504" rx="1.504" y="4.637" x="24.479" height="4.584" width="9.329" style="marker:none" fill="url(#C)" stroke="url(#D)" overflow="visible" font-family="Bitstream Vera Sans"/><path style="marker:none" d="M13.039 21.257a2.182 1.386 0 1 1-4.365 0 2.182 1.386 0 1 1 4.365 0z" fill="#2f302e" display="block" overflow="visible"/><path d="M2.703 21.25c-.135 1.786 2.444 3.88 6.196 3.882 3.814.001 5.85-2.184 6.051-4.103l4.546-1.717-5.152 1.01c.101 1.92-1.702 3.83-5.44 3.77-4.086-.065-5.576-1.654-6.2-2.841z" style="marker:none" fill="#c4c6c3" display="block" overflow="visible"/><rect style="marker:none" width="4.136" height="4.39" x="17.563" y="18.317" rx=".695" ry=".695" fill="url(#E)" stroke="#464646" overflow="visible" font-family="Bitstream Vera Sans"/><path style="marker:none" d="M10.885 21.231a.682.707 0 1 1-1.365 0 .682.707 0 1 1 1.365 0z" opacity=".43" fill="#fff" overflow="visible" font-family="Bitstream Vera Sans"/><path d="M27.829 31.741a.798.827 0 1 1-1.597 0 .798.827 0 1 1 1.597 0z" style="marker:none" fill="#fff" overflow="visible" font-family="Bitstream Vera Sans"/><path style="marker:none" d="M42.688 20.938a1.688 1.125 0 1 1-3.375 0 1.688 1.125 0 1 1 3.375 0z" fill="#c5c5c5" fill-opacity=".529" display="block" overflow="visible"/><path d="M42.75 21.313a1.688 1.125 0 1 1-3.375 0 1.688 1.125 0 1 1 3.375 0z" style="marker:none" fill="#565656" display="block" overflow="visible"/><path d="M23.271 28.422c2.603-3.367 8.756-4.193 12.275-1.041" style="marker:none" fill="none" stroke="#777" display="block" overflow="visible"/><path d="M30.22 31.818c-1.62 0-2.91 1.368-2.91 3.046 0 .384.246.643.372.981.127.018.207.136.338.136 1.617 0 2.91-1.338 2.91-3.012 0-.394-.274-.67-.405-1.016-.115-.014-.186-.135-.305-.135z" style="marker:none" opacity=".671" fill="#fff" overflow="visible" font-family="Bitstream Vera Sans"/></g></svg>