<svg xmlns="http://www.w3.org/2000/svg" xmlns:xlink="http://www.w3.org/1999/xlink" width="64" height="64"><defs><linearGradient id="f"><stop offset="0" stop-color="#4e9a06"/><stop offset="1" stop-color="#8ae234"/></linearGradient><linearGradient id="e"><stop offset="0" stop-color="#a40000"/><stop offset="1" stop-color="#ef2929"/></linearGradient><linearGradient id="d"><stop offset="0" stop-color="#204a87"/><stop offset="1" stop-color="#729fcf"/></linearGradient><linearGradient id="b"><stop offset="0" stop-color="#c17d11"/><stop offset="1" stop-color="#e9b96e"/></linearGradient><linearGradient id="a"><stop offset="0" stop-color="#fff"/><stop offset="1" stop-color="#fff" stop-opacity="0"/></linearGradient><linearGradient xlink:href="#b" id="g" x1="38" y1="56" x2="23" y2="11" gradientUnits="userSpaceOnUse"/><linearGradient id="c"><stop offset="0" stop-color="#8f5902"/><stop offset="1" stop-color="#e9b96e"/></linearGradient><linearGradient xlink:href="#d" id="j" x1="49" y1="40" x2="43" y2="29" gradientUnits="userSpaceOnUse"/><linearGradient xlink:href="#e" id="i" x1="42" y1="52" x2="36" y2="35" gradientUnits="userSpaceOnUse"/><linearGradient xlink:href="#f" id="h" x1="31" y1="48" x2="27" y2="36" gradientUnits="userSpaceOnUse"/></defs><path d="M14.372 5.054C7.87 5.947 2.742 13.492 3.01 21.942c.34 10.732 17.644 32.283 28.6 34.592 10.956 2.309 22.887-4.34 26.684-11.51 3.797-7.17 4.257-20.918-2.942-26.313-7.199-5.396-16.717-1.322-23.218-2.682-6.502-1.36-11.26-11.869-17.762-10.975zm3.993 13.595c3.446.071 6.845 3.445 6.785 7.01-.993 10.288-15.491 1.008-10.129-5.869a5.084 5.084 0 0 1 3.344-1.14z" fill="url(#g)" stroke="#271903" stroke-width="2"/><path d="M26.484 35.973c-3.43 1.493-1.427 5.521-.995 8.148.077 2.825 3.05 6.652 6.01 4.612 2.725-2.617 2.01-6.876.925-10.088-.847-2.557-3.463-3.682-5.94-2.672z" fill="url(#h)" stroke="#4e9a06"/><path d="M35.484 38.801c-.614 3.658-.589 7.645 1.246 10.97.527.878 1.098 1.828 2.014 2.34 1.295.687 3.045.543 4.06-.573 1.65-1.633 2.102-4.364 1.071-6.44-.76-1.233-2.036-2.003-3.126-2.915-1.35-1.04-2.73-2.328-2.998-4.1-.175-1.084.399-2.293-.294-3.274-.41-.71-1.462-1.306-2.193-.702-.733.819-.346 2.018-.156 2.971.142.57.306 1.138.376 1.723z" fill="url(#i)" stroke="#a40000"/><path d="M35.998 30.059c2.814.725 5.668 2.684 6.055 5.78-.324 2.843 2.643 3.395 4.816 3.565 2.438-.226 2.725 4.476 5.11 2.909 2.028-2.173 1.205-5.56-.18-7.836-1.509-2.057-2.408-5.463-5.709-4.058-3.157.57-5.221-3.684-8.469-2.397-.898.22-2.117.918-1.623 2.037z" fill="url(#j)" stroke="#204a87"/><path d="M14.406 7.322C9.079 7.238 4.76 14.84 5.009 22.64c.316 9.906 17.609 29.526 26.81 31.84 9.2 2.313 20.854-3.187 24.662-10.533s4.418-18.582-2.285-23.563C47.494 15.403 39.36 19.345 32.034 18 24.708 16.653 19.733 7.407 14.406 7.322zm5.092 9.449c4.848.483 9.009 6.33 7.12 11.58-5.455 9.658-19.822-1.8-12.933-10.109.99-.828 4.1-1.91 5.813-1.471z" fill="none" stroke="#e9b96e" stroke-width="2"/></svg>