<svg xmlns="http://www.w3.org/2000/svg" width="64" height="64"><g fill="none" stroke-linecap="round" stroke-linejoin="round"><g stroke="#a40000" stroke-width="5.656"><path d="M58.218 30.284s-10.06.022-12.718-.382c-4.838-.736-5.966-3.401-8.936-5.797-2.28-1.84-5.48-3.348-6.12-6.12-.473-2.052-2.73-7.709-2.73-7.709-1.422-.043-4.88 4.16-4.632 7.766.169 2.454 3.638 7.581 2.958 8.856-.68 1.274-14.922 1.008-16.975 3.162-2.053 2.155-1.362 5.065.063 6.274 1.425 1.21 3.356 1.534 7.3 1.218 1.365-.11 3.705-.18 5.743-.698 2.038-.518 3.746-1.838 3.586-2.155-1.21-2.394-2.986-2.483-4.238-2.65-1.251-.165-6.582.545-6.582.545" transform="matrix(1.06082 0 0 -1.06083 -2.746 65.914)"/><path d="M9.762 36.63s-2.421 1.143-2.464 3.112c-.044 1.97.808 3.261 3.66 3.838 2.85.578 12.124-1.114 14.057-1.86 1.933-.746 3.724-1.69 3.514-2.47-.523-1.948-3.916-3.35-3.916-3.35" transform="matrix(1.06082 0 0 -1.06083 -2.746 65.914)"/><path d="M13.699 43.644s-3.599.83-3.325 3.18c.274 2.352 3.244 2.54 5.85 2.306 8.49-.76 10.288-2.388 12.031-3.39 1.743-1 2.901-1.689 2.691-2.47-.524-1.947-3.6-2.522-3.6-2.522" transform="matrix(1.06082 0 0 -1.06083 -2.746 65.914)"/><path d="M16.565 49.093s-2.926.38-2.653 2.73c.274 2.352 2.892 1.88 5.493 1.585 5.004-.569 6.42-1.198 7.987-2.064 1.567-.866 3.493-2.495 3.283-2.894-.94-1.783-3.593-1.951-3.593-1.951" transform="matrix(1.06082 0 0 -1.06083 -2.746 65.914)"/><path d="M26.547 51.746s8.549.356 11.302-.532c2.753-.887 8.601-4.267 13.63-4.266 1.233 0 6.676-.105 6.676-.105" transform="matrix(1.06082 0 0 -1.06083 -2.746 65.914)"/></g><g stroke="#ef2929" stroke-width="1.885"><path d="M58.218 30.284s-10.06.022-12.718-.382c-4.838-.736-5.966-3.401-8.936-5.797-2.28-1.84-5.48-3.348-6.12-6.12-.473-2.052-2.73-7.709-2.73-7.709-1.422-.043-4.88 4.16-4.632 7.766.169 2.454 3.638 7.581 2.958 8.856-.68 1.274-14.922 1.008-16.975 3.162-2.053 2.155-1.362 5.065.063 6.274 1.425 1.21 3.356 1.534 7.3 1.218 1.365-.11 3.705-.18 5.743-.698 2.038-.518 3.746-1.838 3.586-2.155-1.21-2.394-2.986-2.483-4.238-2.65-1.251-.165-6.582.545-6.582.545" transform="matrix(1.06082 0 0 -1.06083 -2.746 65.914)"/><path d="M9.762 36.63s-2.421 1.143-2.464 3.112c-.044 1.97.808 3.261 3.66 3.838 2.85.578 12.124-1.114 14.057-1.86 1.933-.746 3.724-1.69 3.514-2.47-.523-1.948-3.916-3.35-3.916-3.35" transform="matrix(1.06082 0 0 -1.06083 -2.746 65.914)"/><path d="M13.699 43.644s-3.599.83-3.325 3.18c.274 2.352 3.244 2.54 5.85 2.306 8.49-.76 10.288-2.388 12.031-3.39 1.743-1 2.901-1.689 2.691-2.47-.524-1.947-3.6-2.522-3.6-2.522" transform="matrix(1.06082 0 0 -1.06083 -2.746 65.914)"/><path d="M16.565 49.093s-2.926.38-2.653 2.73c.274 2.352 2.892 1.88 5.493 1.585 5.004-.569 6.42-1.198 7.987-2.064 1.567-.866 3.493-2.495 3.283-2.894-.94-1.783-3.593-1.951-3.593-1.951" transform="matrix(1.06082 0 0 -1.06083 -2.746 65.914)"/><path d="M26.547 51.746s8.549.356 11.302-.532c2.753-.887 8.601-4.267 13.63-4.266 1.233 0 6.676-.105 6.676-.105" transform="matrix(1.06082 0 0 -1.06083 -2.746 65.914)"/></g></g></svg>