<svg xmlns="http://www.w3.org/2000/svg" xmlns:xlink="http://www.w3.org/1999/xlink" width="64" height="64"><defs><linearGradient id="c"><stop offset="0" stop-color="#729fcf"/><stop offset="1" stop-color="#204a87"/></linearGradient><linearGradient id="b"><stop offset="0" stop-color="#fff"/><stop offset="1" stop-color="#d3d7cf"/></linearGradient><linearGradient id="a"><stop offset="0" stop-color="#fff"/><stop offset="1" stop-color="#dde0dd" stop-opacity=".093"/></linearGradient><radialGradient xlink:href="#b" id="d" cx="20.946" cy="24.739" fx="20.946" fy="24.739" r="26.353" gradientTransform="matrix(.4969 1.37363 -1.23002 .4691 40.296 -13.66)" gradientUnits="userSpaceOnUse"/><radialGradient xlink:href="#c" id="e" cx="44.616" cy="44.709" fx="44.616" fy="44.709" r="16.079" gradientUnits="userSpaceOnUse" gradientTransform="matrix(1.0625 -1 .9107 .9676 -43.505 46.065)"/></defs><path d="M7.772 34.28c12.582 24.56 37.461 24.964 50.937.13C45.895 9.8 21.264 9.386 7.772 34.28z" fill="url(#d)" stroke="#2e3436" stroke-width="1.761" transform="matrix(1.13866 0 0 1.13249 -5.85 -6.872)"/><path d="M53.66 37.674a15.074 15.074 0 1 1-30.147 0 15.074 15.074 0 1 1 30.148 0z" transform="matrix(.99509 0 0 .99509 -6.397 -5.49)" fill="url(#e)" fill-rule="evenodd" stroke="#204a87" stroke-width="2.01"/><path d="M40.963 32.986a7.785 7.785 0 1 1-15.57 0 7.785 7.785 0 1 1 15.57 0z" transform="matrix(.89914 0 0 .89914 2.169 2.34)" fill="#2e3436" fill-rule="evenodd" stroke="#2e3436" stroke-width="2.224"/><path d="M9.529 34.284c11.714 22.22 34.877 22.586 47.424.117-11.93-22.264-34.863-22.639-47.424-.117z" fill="none" stroke="#888a85" stroke-width="1.761" transform="matrix(1.13866 0 0 1.13249 -5.85 -6.872)"/><path d="M53.66 37.674a15.074 15.074 0 1 1-30.147 0 15.074 15.074 0 1 1 30.148 0z" transform="matrix(.8624 0 0 .8624 -1.278 -.49)" fill="none" stroke="#729fcf" stroke-width="2.319"/></svg>