<svg xmlns="http://www.w3.org/2000/svg" xmlns:xlink="http://www.w3.org/1999/xlink" width="64" height="64"><defs><linearGradient id="g"><stop offset="0" stop-color="#c17d11"/><stop offset="1" stop-color="#8f5902"/></linearGradient><linearGradient id="f"><stop offset="0" stop-color="#e9b96e"/><stop offset="1" stop-color="#8f5902"/></linearGradient><linearGradient id="e"><stop offset="0" stop-color="#e9b96e"/><stop offset="1" stop-color="#8f5902"/></linearGradient><linearGradient id="c"><stop offset="0" stop-color="#e9b96e"/><stop offset="1" stop-color="#c17d11"/></linearGradient><linearGradient id="a"><stop offset="0" stop-color="#e3ad6b"/><stop offset="1" stop-color="#ac6f1a"/></linearGradient><linearGradient id="b"><stop offset="0" stop-color="#accbcb" stop-opacity=".9"/><stop offset="1" stop-color="#bed5d5" stop-opacity=".9"/></linearGradient><linearGradient id="d"><stop offset="0" stop-color="#e9b96e"/><stop offset="1" stop-color="#c17d11"/></linearGradient><linearGradient xlink:href="#f" id="h" gradientUnits="userSpaceOnUse" gradientTransform="matrix(1.31734 0 0 1.34775 -33.504 16.804)" x1="41.214" y1="28.997" x2="62.786" y2="28.997"/><linearGradient xlink:href="#e" id="i" gradientUnits="userSpaceOnUse" gradientTransform="matrix(1.31734 0 0 1.34775 -33.504 -23.629)" x1="40.667" y1="28.586" x2="60" y2="29.897"/><linearGradient xlink:href="#g" id="j" gradientUnits="userSpaceOnUse" x1="45.333" y1="27.448" x2="58.667" y2="30.724"/><linearGradient xlink:href="#c" id="k" gradientUnits="userSpaceOnUse" x1="46" y1="27.31" x2="55.333" y2="31.241"/><linearGradient xlink:href="#d" id="l" gradientUnits="userSpaceOnUse" x1="46" y1="27.31" x2="55.333" y2="31.241"/></defs><path d="M21.824 15.456c0 12.13 11.093 16.173 11.093 18.868 0 2.696-11.093 9.435-11.093 21.564 2.773-5.39 22.187-5.39 26.347 0 0-12.13-9.707-18.868-9.707-21.564 0-2.695 9.707-6.738 9.707-18.868z" fill="#fff" stroke="#2e3436" stroke-width="1.772" stroke-linejoin="round" transform="matrix(1.12527 0 0 1.13249 -7.378 -6.872)"/><path d="M48.17 55.888c0 2.233-5.897 4.044-13.173 4.044-7.275 0-13.173-1.81-13.173-4.044 0-2.233-2.635-3.903 13.173-4.043 15.808-.14 13.174 1.81 13.174 4.043z" fill="url(#h)" stroke="#271903" stroke-width="1.772" stroke-linecap="round" transform="matrix(1.12527 0 0 1.13249 -7.378 -6.872)"/><path d="M48.17 15.456c0 2.233-5.897 4.043-13.173 4.043-7.275 0-13.173-1.81-13.173-4.043s-1.757-3.997 13.173-4.043c14.93-.047 13.174 1.81 13.174 4.043z" fill="url(#i)" stroke="#271903" stroke-width="1.772" stroke-linecap="round" transform="matrix(1.12527 0 0 1.13249 -7.378 -6.872)"/><path transform="matrix(1.48236 0 0 1.52631 -45.08 9.105)" d="M62 29c0 1.657-4.477 3-10 3s-10-1.343-10-3 4.477-3 10-3 10 1.343 10 3z" fill="url(#j)" stroke="#271903" stroke-width="1.33" stroke-linecap="round"/><path transform="matrix(1.48236 0 0 1.52631 -45.08 -36.684)" d="M62 29c0 1.657-4.477 3-10 3s-10-1.343-10-3 4.477-3 10-3 10 1.343 10 3z" fill="url(#k)" stroke="#271903" stroke-width="1.33" stroke-linecap="round"/><path transform="matrix(1.28471 0 0 .83333 -34.802 -16.667)" d="M62 29c0 1.657-4.477 3-10 3s-10-1.343-10-3 4.477-3 10-3 10 1.343 10 3z" fill="url(#l)" stroke="#e9b96e" stroke-width="1.933" stroke-linecap="round"/></svg>