<svg xmlns="http://www.w3.org/2000/svg" xmlns:xlink="http://www.w3.org/1999/xlink" width="64" height="64"><defs><linearGradient id="f"><stop offset="0" stop-color="#a40000"/><stop offset="1" stop-color="#ef2929"/></linearGradient><linearGradient id="e"><stop offset="0" stop-color="#4e9a06"/><stop offset="1" stop-color="#8ae234"/></linearGradient><linearGradient id="b"><stop offset="0" stop-color="#fff"/><stop offset="1"/></linearGradient><linearGradient id="a"><stop offset="0" stop-color="#adb0a8"/><stop offset="1" stop-color="#464744"/></linearGradient><linearGradient id="d"><stop offset="0" stop-color="#f18383"/><stop offset=".381" stop-color="#ed6767"/><stop offset="1" stop-color="#e62323"/></linearGradient><linearGradient id="c"><stop offset="0" stop-color="#fff"/><stop offset="1" stop-color="#fff" stop-opacity="0"/></linearGradient><linearGradient xlink:href="#e" id="g" x1="23" y1="34" x2="15" y2="-4" gradientUnits="userSpaceOnUse"/><linearGradient xlink:href="#f" id="h" x1="35.6" y1="60.8" x2="27.2" y2="27.2" gradientUnits="userSpaceOnUse"/></defs><path d="M3 61V3l58 29z" fill="#8ae234" stroke="#172a04" stroke-width="2" stroke-linejoin="round"/><path d="M5 41.768V-9.768L56.576 16z" fill="url(#g)" stroke="#8ae234" stroke-width="2" transform="translate(0 16)"/><path d="M51 44a17 17 0 1 1-34 0 17 17 0 1 1 34 0z" fill="#ef2929" stroke="#280000" stroke-width="2.0003239199999996" stroke-linecap="square" stroke-dashoffset="6"/><path d="M50 44a18 18 0 1 1-36 0 18 18 0 1 1 36 0z" transform="matrix(.83333 0 0 .83333 7.333 7.333)" fill="url(#h)" stroke="#ef2929" stroke-width="2.4" stroke-linecap="square" stroke-dashoffset="6"/></svg>