<svg xmlns="http://www.w3.org/2000/svg" xmlns:xlink="http://www.w3.org/1999/xlink" height="48" width="48"><defs><radialGradient xlink:href="#a" id="t" gradientUnits="userSpaceOnUse" gradientTransform="matrix(-2.77439 0 0 1.9697 112.762 -872.885)" cx="605.714" cy="486.648" fx="605.714" fy="486.648" r="117.143"/><linearGradient id="a"><stop offset="0"/><stop offset="1" stop-opacity="0"/></linearGradient><radialGradient xlink:href="#a" id="s" gradientUnits="userSpaceOnUse" gradientTransform="matrix(2.77439 0 0 1.9697 -1891.633 -872.885)" cx="605.714" cy="486.648" fx="605.714" fy="486.648" r="117.143"/><linearGradient id="b"><stop offset="0" stop-opacity="0"/><stop offset=".5"/><stop offset="1" stop-opacity="0"/></linearGradient><linearGradient xlink:href="#b" id="r" gradientUnits="userSpaceOnUse" gradientTransform="matrix(2.77439 0 0 1.9697 -1892.179 -872.885)" x1="302.857" y1="366.648" x2="302.857" y2="609.505"/><linearGradient id="c"><stop offset="0" stop-color="#fff"/><stop offset="1" stop-color="#fff" stop-opacity=".248"/></linearGradient><radialGradient xlink:href="#c" id="H" gradientUnits="userSpaceOnUse" gradientTransform="matrix(2.59296 0 0 2.2521 -25.06 -18.941)" cx="15.414" cy="13.078" fx="15.414" fy="13.078" r="6.656"/><linearGradient id="d"><stop offset="0" stop-color="#729fcf" stop-opacity=".208"/><stop offset="1" stop-color="#729fcf" stop-opacity=".676"/></linearGradient><radialGradient xlink:href="#d" id="G" cx="18.241" cy="21.818" fx="18.241" fy="21.818" r="8.309" gradientUnits="userSpaceOnUse"/><linearGradient id="e"><stop offset="0" stop-color="#fff"/><stop offset=".5" stop-color="#fff" stop-opacity=".219"/><stop offset="1" stop-color="#fff"/></linearGradient><linearGradient gradientUnits="userSpaceOnUse" y2="25.743" x2="17.501" y1="13.602" x1="18.293" id="F" xlink:href="#e"/><linearGradient id="f"><stop offset="0" stop-color="#7d7d7d"/><stop offset=".5" stop-color="#b1b1b1"/><stop offset="1" stop-color="#686868"/></linearGradient><linearGradient xlink:href="#f" id="E" gradientUnits="userSpaceOnUse" gradientTransform="matrix(1.3346 0 0 1.2913 -6.974 -7.46)" x1="30.656" y1="34" x2="33.219" y2="31.063"/><linearGradient id="g"><stop offset="0" stop-color="#8a8a8a"/><stop offset="1" stop-color="#484848"/></linearGradient><linearGradient xlink:href="#g" id="D" gradientUnits="userSpaceOnUse" x1="27.366" y1="26.58" x2="31.336" y2="30.558"/><linearGradient id="h"><stop offset="0"/><stop offset="1" stop-opacity="0"/></linearGradient><linearGradient id="o"><stop offset="0" stop-color="#fff" stop-opacity=".124"/><stop offset=".103" stop-color="#fff"/><stop offset="1" stop-color="#fff" stop-opacity="0"/></linearGradient><linearGradient id="p"><stop offset="0" stop-color="#dcdcda"/><stop offset="1" stop-color="#bab9b7"/></linearGradient><linearGradient id="j"><stop offset="0" stop-opacity=".237"/><stop offset="1" stop-opacity="0"/></linearGradient><linearGradient id="i"><stop offset="0" stop-color="#fffffd"/><stop offset=".5" stop-color="#bbbbb9"/><stop offset="1"/></linearGradient><linearGradient id="l"><stop offset="0" stop-color="#666"/><stop offset="1" stop-opacity="0"/></linearGradient><linearGradient id="k"><stop offset="0" stop-color="#f7f6f5"/><stop offset="1" stop-color="#f7f6f5" stop-opacity="0"/></linearGradient><linearGradient id="q"><stop offset="0" stop-color="#8e8d87"/><stop offset=".276" stop-color="#cbc9c1"/><stop offset="1" stop-color="#8e8d87"/></linearGradient><linearGradient id="n"><stop offset="0" stop-color="#e0e0e0"/><stop offset=".405" stop-color="#fff"/><stop offset=".534" stop-color="#cdcdcd"/><stop offset="1" stop-color="#494949"/></linearGradient><linearGradient id="m"><stop offset="0" stop-color="#fff" stop-opacity="0"/><stop offset="1" stop-color="#f8f8f8"/></linearGradient><radialGradient r="2.123" fy="26.926" fx="9.13" cy="26.926" cx="9.13" gradientUnits="userSpaceOnUse" id="B" xlink:href="#i"/><linearGradient y2="72.064" x2="9.913" y1="57.228" x1="9.87" gradientTransform="matrix(2.77209 0 0 .36074 .619 2.884)" gradientUnits="userSpaceOnUse" id="C" xlink:href="#j"/><linearGradient y2="54.136" x2="10.338" y1="64.652" x1="10.338" gradientTransform="matrix(2.36984 0 0 .42197 0 2)" gradientUnits="userSpaceOnUse" id="z" xlink:href="#k"/><linearGradient y2="62.282" x2="9.705" y1="70.725" x1="9.732" gradientTransform="matrix(2.36984 0 0 .42197 0 2)" gradientUnits="userSpaceOnUse" id="A" xlink:href="#l"/><linearGradient y2="19.337" x2="20.718" y1="25.14" x1="20.771" gradientTransform="matrix(1.19655 0 0 .85357 -.122 2.035)" gradientUnits="userSpaceOnUse" id="y" xlink:href="#m"/><linearGradient y2="25.247" x2="24.79" y1="3.679" x1="25.057" gradientTransform="matrix(.94529 0 0 1.07548 .055 4.106)" gradientUnits="userSpaceOnUse" id="x" xlink:href="#n"/><linearGradient y2="58.831" x2="15.488" y1="32.539" x1="15.388" gradientTransform="matrix(1.49016 0 0 .66771 .089 2.058)" gradientUnits="userSpaceOnUse" id="w" xlink:href="#o"/><linearGradient y2="88.295" x2="18.972" y1="88.295" x1="1.846" gradientTransform="matrix(2.29182 0 0 .43427 .089 2)" gradientUnits="userSpaceOnUse" id="v" xlink:href="#p"/><linearGradient y2="88.295" x2="18.972" y1="88.295" x1="1.846" gradientTransform="matrix(2.30272 0 0 .43427 0 .875)" gradientUnits="userSpaceOnUse" id="u" xlink:href="#q"/></defs><g color="#000"><path style="marker:none" opacity=".402" fill="url(#r)" overflow="visible" d="M-1559.252-150.697h1339.633V327.66h-1339.633z" transform="matrix(.02411 0 0 .0193 45.49 39.752)"/><path d="M-219.619-150.68v478.33c142.874.9 345.4-107.17 345.4-239.196S-33.655-150.68-219.619-150.68z" style="marker:none" opacity=".402" fill="url(#s)" overflow="visible" transform="matrix(.02411 0 0 .0193 45.49 39.752)"/><path style="marker:none" d="M-1559.252-150.68v478.33c-142.875.9-345.4-107.17-345.4-239.196s159.436-239.134 345.4-239.134z" opacity=".402" fill="url(#t)" overflow="visible" transform="matrix(.02411 0 0 .0193 45.49 39.752)"/></g><rect ry="1.712" rx="1.712" y="36" x="4.75" height="6.438" width="38.438" fill="url(#u)" stroke="#595959"/><path d="M7.13 21.5h33.74c.386 0 .878.288 1.181.724.303.436 1.737 2.61 2.058 3.074.322.464.393.904.393 1.476v12.077c0 .914-.732 1.649-1.64 1.649H5.14c-.909 0-1.64-.735-1.64-1.649V26.774c0-.494.1-1.202.446-1.653.435-.57 1.604-2.548 1.912-2.968.308-.42.874-.653 1.273-.653z" style="marker:none" color="#000" fill="url(#v)" stroke="#676767" overflow="visible"/><path d="M7.747 22c-.493 0-1.127.131-1.387.533l-1.82 2.814c-.293.453.034 1.521.915 1.521h36.909c1.192 0 1.196-1.005.915-1.433l-1.733-2.638c-.315-.479-.429-.797-1.214-.797H7.747z" fill="#fbfbfb" fill-rule="evenodd"/><path style="marker:none" d="M7.6 22.473h32.775c.365 0 .831.272 1.119.684.288.412 1.294 2.027 1.6 2.466.305.438.434.854.434 1.395v11.264c0 .864-.133 1.247-.995 1.247H5.53c-.863 0-1.058-.383-1.058-1.247V27.018c0-.467.22-1.137.547-1.563.413-.538 1.081-1.968 1.373-2.365.293-.397.83-.617 1.207-.617z" color="#000" fill="none" stroke="url(#w)" stroke-width=".947" overflow="visible"/><path d="M11.672 4.51h24.641c.65 0 1.175.51 1.175 1.143v18.695h-26.99V5.653c0-.633.524-1.143 1.174-1.143z" style="marker:none" color="#000" fill="url(#x)" stroke="#898989" stroke-linecap="round" display="block" overflow="visible"/><rect style="marker:none" width="24.954" height="18.836" x="11.498" y="5.499" ry=".177" rx=".177" color="#000" fill="none" stroke="url(#y)" stroke-linecap="round" stroke-linejoin="round" display="block" overflow="visible"/><rect ry="1.712" rx="1.712" y="27.375" x="6.875" height="5.188" width="33.75" fill="url(#z)" stroke="url(#A)"/><path transform="translate(0 2)" d="M10.872 27.626a1.282 1.282 0 1 1-2.563 0 1.282 1.282 0 1 1 2.563 0z" fill="url(#B)"/><path d="M11.744 25.416l25.562.063c.688.001.988-.371.938-1l-.125-1.563h1.866c.812 0 .99.193 1.187.563l.5.937c.527.988 1.812 1.974.498 1.974-4.502 0-28.176-.349-30.426-.974z" fill="url(#C)" fill-rule="evenodd" opacity=".366"/><path d="M42.938 26.75H4.812" fill="none" stroke="#fff" stroke-linecap="round" stroke-linejoin="round"/><g opacity=".436" color="#000" fill-opacity=".292"><path style="marker:none" overflow="visible" d="M14 7h19v1H14zM14 9h19v1H14zM14 11h19v1H14zM14 13h19v1H14zM14 15h11v1H14zM14 19h19v1H14zM14 21h19v1H14z"/></g><g transform="matrix(.71568 0 0 .71568 4.078 4.714)" color="#000"><path d="M18.628 3.144c-8.14 0-14.745 6.605-14.745 14.744 0 8.14 6.605 14.745 14.745 14.745 3.48 0 6.55-1.384 9.073-3.402-.205 1.006-.078 2.035.756 2.76l10.965 9.527a2.942 2.942 0 0 0 4.158-.303 2.942 2.942 0 0 0-.302-4.158l-10.964-9.528c-.672-.583-1.493-.756-2.306-.643 1.986-2.512 3.364-5.548 3.364-8.998 0-8.139-6.605-14.744-14.744-14.744zm-.076 1.226c7.64 0 13.292 4.789 13.292 13.292 0 8.675-5.817 13.291-13.292 13.291-7.303 0-13.292-5.478-13.292-13.291 0-7.985 5.825-13.292 13.292-13.292z" style="marker:none" fill="#dcdcdc" fill-rule="evenodd" stroke="url(#D)" stroke-width="2.795" stroke-linecap="round" stroke-miterlimit="10" overflow="visible"/><path style="marker:none" d="M18.603 3.08C10.437 3.08 3.81 9.707 3.81 17.873c0 8.165 6.627 14.792 14.793 14.792 3.49 0 6.572-1.389 9.103-3.413-.206 1.01-.078 2.042.759 2.768l11 9.559a2.951 2.951 0 0 0 4.171-.304 2.951 2.951 0 0 0-.303-4.172l-11-9.558c-.673-.585-1.497-.759-2.313-.645 1.993-2.52 3.375-5.567 3.375-9.027 0-8.166-6.627-14.793-14.792-14.793zm-.076 3.186c6.281 0 11.379 5.098 11.379 11.38 0 6.28-5.098 11.378-11.379 11.378S7.148 23.926 7.148 17.645c0-6.28 5.098-11.379 11.379-11.379z" fill="#dcdcdc" fill-rule="evenodd" overflow="visible"/><path style="marker:none" d="M39.507 41.578c-.479-2.273 1.397-4.812 3.584-4.789l-10.76-9.258c-2.945-.057-4.27 2.273-3.777 4.6l10.953 9.447z" fill="url(#E)" fill-rule="evenodd" overflow="visible"/><path style="marker:none" d="M28.55 18.92a11.049 11.049 0 1 1-22.098 0 11.049 11.049 0 1 1 22.097 0z" transform="matrix(1.24574 0 0 1.24574 -3.425 -6.177)" fill="none" stroke="url(#F)" stroke-width="1.122" stroke-linecap="round" stroke-miterlimit="10" overflow="visible"/><rect style="marker:none" width="19.048" height="4.44" x="40.373" y=".141" rx="2.986" ry="2.638" transform="matrix(.75299 .65804 -.6489 .76087 0 0)" opacity=".433" fill="none" stroke="#fff" stroke-width="1.397" stroke-linecap="round" stroke-miterlimit="10" overflow="visible"/><path style="marker:none" d="M25.898 18.478a8.309 8.309 0 1 1-16.617 0 8.309 8.309 0 1 1 16.617 0z" transform="matrix(1.39861 0 0 1.39861 -6.224 -8.299)" fill="url(#G)" fill-rule="evenodd" stroke="#3063a3" stroke-width=".999" stroke-linecap="round" stroke-miterlimit="10"/><path style="marker:none" d="M18.157 7.397a9.421 9.421 0 0 0-9.425 9.424c0 1.504.42 2.888 1.048 4.15 1.252.462 2.582.776 3.994.776 6.171 0 11.1-4.862 11.48-10.937-1.73-2.046-4.21-3.413-7.097-3.413z" opacity=".834" fill="url(#H)" fill-rule="evenodd" overflow="visible"/></g></svg>