<svg xmlns="http://www.w3.org/2000/svg" xmlns:xlink="http://www.w3.org/1999/xlink" width="64" height="64" version="1"><defs><linearGradient id="u"><stop offset="0" stop-color="#ef2929"/><stop offset="1" stop-color="#a40000"/></linearGradient><linearGradient id="f"><stop offset="0" stop-color="red"/><stop offset="1" stop-color="#8e0000"/></linearGradient><linearGradient id="g"><stop offset="0" stop-color="red" stop-opacity=".087"/><stop offset="1" stop-color="#d40000"/></linearGradient><linearGradient id="e"><stop offset="0"/><stop offset="1" stop-color="#fff" stop-opacity=".485"/></linearGradient><linearGradient id="b"><stop offset="0" stop-color="#babdb6"/><stop offset="1" stop-color="#555753"/></linearGradient><linearGradient id="a"><stop offset="0" stop-color="#f7f7f7"/><stop offset="1" stop-color="#ccd0c7"/></linearGradient><linearGradient id="c"><stop offset="0" stop-color="#fff"/><stop offset="1" stop-color="#fff" stop-opacity="0"/></linearGradient><linearGradient id="d"><stop offset="0"/><stop offset="1" stop-opacity="0"/></linearGradient><linearGradient id="i"><stop offset="0" stop-color="#fafafa"/><stop offset="1" stop-color="#bbb"/></linearGradient><linearGradient id="j"><stop offset="0" stop-color="#a3a3a3"/><stop offset="1" stop-color="#4c4c4c"/></linearGradient><radialGradient id="l" cx="20.892" cy="114.568" r="5.256" fx="20.892" fy="114.568" gradientUnits="userSpaceOnUse"><stop offset="0" stop-color="#f0f0f0"/><stop offset="1" stop-color="#9a9a9a"/></radialGradient><radialGradient id="m" cx="20.892" cy="64.568" r="5.257" fx="20.892" fy="64.568" gradientUnits="userSpaceOnUse"><stop offset="0" stop-color="#f0f0f0"/><stop offset="1" stop-color="#9a9a9a"/></radialGradient><linearGradient id="k"><stop offset="0" stop-color="#fff"/><stop offset="1" stop-color="#f8f8f8"/></linearGradient><linearGradient id="h"><stop offset="0"/><stop offset="1" stop-opacity="0"/></linearGradient><linearGradient id="n"><stop offset="0" stop-opacity="0"/><stop offset=".5"/><stop offset="1" stop-opacity="0"/></linearGradient><linearGradient id="o"><stop offset="0"/><stop offset="1" stop-opacity="0"/></linearGradient><radialGradient xlink:href="#i" id="y" gradientUnits="userSpaceOnUse" gradientTransform="matrix(.988 0 0 1.08312 -1.188 -.147)" cx="33.967" cy="35.737" fx="33.967" fy="35.737" r="86.708"/><radialGradient xlink:href="#j" id="z" gradientUnits="userSpaceOnUse" gradientTransform="matrix(.996 0 0 1.07442 2.261 .525)" cx="8.824" cy="3.756" fx="8.824" fy="3.756" r="37.752"/><radialGradient xlink:href="#k" id="A" gradientUnits="userSpaceOnUse" gradientTransform="matrix(.97501 0 0 1.05103 2.697 1.107)" cx="8.144" cy="7.268" fx="8.144" fy="7.268" r="38.159"/><radialGradient xlink:href="#l" id="B" gradientUnits="userSpaceOnUse" gradientTransform="matrix(.2297 0 0 .2297 4.614 3.98)" cx="20.892" cy="114.568" fx="20.892" fy="114.568" r="5.256"/><radialGradient xlink:href="#m" id="C" gradientUnits="userSpaceOnUse" gradientTransform="matrix(.2297 0 0 .2297 4.614 3.98)" cx="20.892" cy="64.568" fx="20.892" fy="64.568" r="5.257"/><linearGradient xlink:href="#n" id="v" gradientUnits="userSpaceOnUse" gradientTransform="matrix(2.77439 0 0 1.9697 -1892.179 -872.885)" x1="302.857" y1="366.648" x2="302.857" y2="609.505"/><radialGradient xlink:href="#o" id="w" gradientUnits="userSpaceOnUse" gradientTransform="matrix(2.77439 0 0 1.9697 -1891.633 -872.885)" cx="605.714" cy="486.648" fx="605.714" fy="486.648" r="117.143"/><radialGradient xlink:href="#o" id="x" gradientUnits="userSpaceOnUse" gradientTransform="matrix(-2.77439 0 0 1.9697 112.762 -872.885)" cx="605.714" cy="486.648" fx="605.714" fy="486.648" r="117.143"/><linearGradient id="q"><stop offset="0" stop-color="#9dbcd2"/><stop offset="1" stop-color="#3647c0"/></linearGradient><linearGradient id="r"><stop offset="0" stop-color="#2ba6ff"/><stop offset="1" stop-color="#001ef4"/></linearGradient><linearGradient id="s"><stop offset="0" stop-color="#2ba6ff"/><stop offset="1" stop-color="#001ef4"/></linearGradient><linearGradient id="t"><stop offset="0" stop-color="#2ba6ff"/><stop offset="1" stop-color="#001ef4"/></linearGradient><radialGradient xlink:href="#u" id="D" gradientUnits="userSpaceOnUse" gradientTransform="matrix(1.03177 .79367 -.83333 1.08333 13.126 -25.508)" cx="30.364" cy="16.909" fx="30.364" fy="16.909" r="15.273"/></defs><g color="#000"><path style="marker:none" opacity=".402" fill="url(#v)" overflow="visible" d="M-1559.252-150.697h1339.633V327.66h-1339.633z" transform="matrix(.02912 0 0 .01998 57.35 56.221)"/><path d="M-219.619-150.68v478.33c142.874.9 345.4-107.17 345.4-239.196S-33.655-150.68-219.619-150.68z" style="marker:none" opacity=".402" fill="url(#w)" overflow="visible" transform="matrix(.02912 0 0 .01998 57.35 56.221)"/><path style="marker:none" d="M-1559.252-150.68v478.33c-142.875.9-345.4-107.17-345.4-239.196s159.436-239.134 345.4-239.134z" opacity=".402" fill="url(#x)" overflow="visible" transform="matrix(.02912 0 0 .01998 57.35 56.221)"/></g><g transform="matrix(1.39377 0 0 1.36243 -.811 -1.968)"><rect ry="1.195" y="3.646" x="5.605" height="42.571" width="35.874" style="marker:none" color="#000" fill="url(#y)" stroke="url(#z)" stroke-width="1.451" stroke-linecap="round" stroke-linejoin="round" display="block" overflow="visible"/><rect rx=".15" ry=".152" y="5.114" x="7.04" height="39.635" width="33.004" style="marker:none" color="#000" fill="none" stroke="url(#A)" stroke-width="1.451" stroke-linecap="round" stroke-linejoin="round" display="block" overflow="visible"/><g transform="matrix(.2297 0 0 .2297 5.614 4.207)" fill="#fff" stroke="#000" stroke-width=".976"><path d="M23.428 113.07a3.573 3.573 0 1 1-7.145-.001 3.573 3.573 0 0 1 7.145.001z" stroke="none"/><radialGradient gradientUnits="userSpaceOnUse" fy="64.568" fx="20.892" r="5.257" cy="64.568" cx="20.892" id="p"><stop offset="0" stop-color="#e74435"/><stop offset="1" stop-color="#9a0900"/></radialGradient><path d="M23.428 63.07a3.573 3.573 0 1 1-7.147 0 3.573 3.573 0 0 1 7.147 0z" stroke="none"/></g><path d="M9.995 29.952a.82.82 0 1 1-1.641 0 .82.82 0 0 1 1.641 0z" fill="url(#B)" transform="translate(.646 -.038)"/><path d="M9.995 18.467a.82.82 0 1 1-1.642 0 .82.82 0 0 1 1.642 0z" fill="url(#C)" transform="translate(.646 -.038)"/><path d="M11.506 5.494v37.907" fill="none" stroke="#000" stroke-width=".965" stroke-opacity=".018"/><path d="M12.5 5.02v38.018" fill="none" stroke="#fff" stroke-width=".976" stroke-opacity=".205"/></g><g stroke-linecap="round" stroke-linejoin="round" stroke-dashoffset="6"><path transform="translate(4.714 1.571) scale(.92857)" d="M52 22c0 7.732-6.268 14-14 14s-14-6.268-14-14S30.268 8 38 8s14 6.268 14 14z" fill="#ef2929" stroke="#280000" stroke-width="2.154"/><path transform="matrix(.78571 0 0 .78571 10.143 4.714)" d="M52 22c0 7.732-6.268 14-14 14s-14-6.268-14-14S30.268 8 38 8s14 6.268 14 14z" fill="url(#D)" stroke="#ef2929" stroke-width="2.545"/></g><g stroke-width="3.5"><path d="M43 29v20l-12 8V37z" fill="#204a87"/><path d="M163.876 121.795l19.383-18.166M181.768 110.896V74.564M181.768 78.197L163.876 92.73M166.858 85.464v36.331" fill="none" stroke="#3465a4" stroke-width="3.292" transform="matrix(.67067 0 0 .55048 -78.907 -12.046)"/><path d="M31 57l-16-8V29l16 8z" fill="#3465a4"/><path d="M160.894 89.097v32.698M140.02 107.263l23.856 14.532M143.001 110.896V78.197" fill="none" stroke="#729fcf" stroke-width="3.292" transform="matrix(.67067 0 0 .55048 -78.907 -12.046)"/><path d="M184.75 70.93v36.333l-20.874 18.165V89.097z" fill="none" stroke="#0b1521" stroke-width="3.292" stroke-linecap="round" stroke-linejoin="round" transform="matrix(.67067 0 0 .55048 -78.907 -12.046)"/><path d="M163.876 92.73l-23.857-14.533" fill="none" stroke="#729fcf" stroke-width="3.292" transform="matrix(.67067 0 0 .55048 -78.907 -12.046)"/><path d="M163.876 125.428l-23.857-14.532V74.564l23.857 14.533z" fill="none" stroke="#0b1521" stroke-width="3.292" stroke-linecap="round" stroke-linejoin="round" transform="matrix(.67067 0 0 .55048 -78.907 -12.046)"/><path d="M184.75 70.93l-20.874 18.167-23.857-14.533 20.875-18.166 23.857 14.533" fill="#729fcf" stroke="#0b1521" stroke-width="3.292" stroke-linecap="round" stroke-linejoin="round" transform="matrix(.67067 0 0 .55048 -78.907 -12.046)"/></g></svg>