<svg xmlns="http://www.w3.org/2000/svg" xmlns:xlink="http://www.w3.org/1999/xlink" height="48" width="48"><defs><radialGradient xlink:href="#a" id="r" gradientUnits="userSpaceOnUse" gradientTransform="matrix(-2.77439 0 0 1.9697 112.762 -872.885)" cx="605.714" cy="486.648" fx="605.714" fy="486.648" r="117.143"/><linearGradient id="a"><stop offset="0"/><stop offset="1" stop-opacity="0"/></linearGradient><radialGradient xlink:href="#a" id="q" gradientUnits="userSpaceOnUse" gradientTransform="matrix(2.77439 0 0 1.9697 -1891.633 -872.885)" cx="605.714" cy="486.648" fx="605.714" fy="486.648" r="117.143"/><linearGradient id="b"><stop offset="0" stop-opacity="0"/><stop offset=".5"/><stop offset="1" stop-opacity="0"/></linearGradient><linearGradient xlink:href="#b" id="p" gradientUnits="userSpaceOnUse" gradientTransform="matrix(2.77439 0 0 1.9697 -1892.179 -872.885)" x1="302.857" y1="366.648" x2="302.857" y2="609.505"/><linearGradient id="o"><stop offset="0" stop-color="#204a87"/><stop offset="1" stop-color="#204a87" stop-opacity="0"/></linearGradient><linearGradient id="n"><stop offset="0" stop-color="#3465a4"/><stop offset="1" stop-color="#3465a4" stop-opacity="0"/></linearGradient><linearGradient id="c"><stop offset="0" stop-color="#fff"/><stop offset="1" stop-color="#fff" stop-opacity="0"/></linearGradient><radialGradient xlink:href="#c" id="D" cx="23.447" cy="6.458" fx="23.447" fy="6.458" r="19.063" gradientTransform="matrix(-1.31447 -.01006 -.01023 1.33622 46.221 -4.91)" gradientUnits="userSpaceOnUse"/><linearGradient id="d"><stop offset="0" stop-color="#fff"/><stop offset="1" stop-color="#fff" stop-opacity="0"/></linearGradient><linearGradient xlink:href="#d" id="C" gradientUnits="userSpaceOnUse" gradientTransform="matrix(.91411 0 0 .91411 -3.869 -2.707)" x1="33.06" y1="27.394" x2="12.624" y2="12.584"/><linearGradient id="e"><stop offset="0"/><stop offset="1" stop-opacity="0"/></linearGradient><radialGradient xlink:href="#e" id="z" cx="24.837" cy="36.421" fx="24.837" fy="36.421" r="15.645" gradientTransform="matrix(1 0 0 .53672 0 16.873)" gradientUnits="userSpaceOnUse"/><linearGradient id="m"><stop offset="0" stop-color="#fff"/><stop offset=".5" stop-color="#e6e6e6"/><stop offset=".75" stop-color="#fff"/><stop offset=".842" stop-color="#e1e1e1"/><stop offset="1" stop-color="#fff"/></linearGradient><linearGradient id="l"><stop offset="0" stop-color="#fff" stop-opacity=".255"/><stop offset="1" stop-color="#fff"/></linearGradient><linearGradient id="k"><stop offset="0"/><stop offset="1" stop-opacity="0"/></linearGradient><linearGradient id="j"><stop offset="0" stop-color="#fff"/><stop offset="1" stop-color="#fff" stop-opacity="0"/></linearGradient><linearGradient id="i"><stop offset="0" stop-color="#e4e4e4"/><stop offset="1" stop-color="#d3d3d3"/></linearGradient><linearGradient id="h"><stop offset="0" stop-color="#eee"/><stop offset="1" stop-color="#eee" stop-opacity="0"/></linearGradient><linearGradient id="g"><stop offset="0" stop-color="#bbb"/><stop offset="1" stop-color="#9f9f9f"/></linearGradient><linearGradient id="f"><stop offset="0" stop-color="#838383"/><stop offset="1" stop-color="#bbb" stop-opacity="0"/></linearGradient><linearGradient gradientTransform="translate(.795 3.8)" y2="35.281" x2="24.688" y1="35.281" x1="7.063" gradientUnits="userSpaceOnUse" id="u" xlink:href="#f"/><linearGradient gradientUnits="userSpaceOnUse" y2="40.944" x2="36.183" y1="28.481" x1="7.605" id="s" xlink:href="#g" gradientTransform="translate(0 5.125)"/><linearGradient gradientUnits="userSpaceOnUse" y2="33.759" x2="12.222" y1="37.206" x1="12.277" id="v" xlink:href="#h" gradientTransform="translate(0 5.125)"/><radialGradient gradientUnits="userSpaceOnUse" gradientTransform="matrix(1.28624 .7817 -.71078 1.16955 -2.354 .248)" r="20.936" fy="2.959" fx="15.571" cy="2.959" cx="15.571" id="t" xlink:href="#i"/><linearGradient gradientUnits="userSpaceOnUse" y2="47.621" x2="44.096" y1="4.433" x1="12.378" id="x" xlink:href="#j" gradientTransform="translate(0 5.125)"/><linearGradient gradientUnits="userSpaceOnUse" y2="26.357" x2="23.688" y1="11.319" x1="23.688" id="w" xlink:href="#l" gradientTransform="translate(0 5.125)"/><linearGradient xlink:href="#m" id="y" x1="33.431" y1="31.965" x2="21.748" y2="11.781" gradientUnits="userSpaceOnUse"/><linearGradient xlink:href="#n" id="A" x1="14.752" y1="15.868" x2="8.895" y2="16.743" gradientUnits="userSpaceOnUse"/><linearGradient xlink:href="#o" id="B" x1="12.25" y1="18.25" x2="7" y2="21.118" gradientUnits="userSpaceOnUse"/></defs><g color="#000"><path style="marker:none" opacity=".402" fill="url(#p)" overflow="visible" d="M-1559.252-150.697h1339.633V327.66h-1339.633z" transform="matrix(.02411 0 0 .0193 45.49 41.752)"/><path d="M-219.619-150.68v478.33c142.874.9 345.4-107.17 345.4-239.196S-33.655-150.68-219.619-150.68z" style="marker:none" opacity=".402" fill="url(#q)" overflow="visible" transform="matrix(.02411 0 0 .0193 45.49 41.752)"/><path style="marker:none" d="M-1559.252-150.68v478.33c-142.875.9-345.4-107.17-345.4-239.196s159.436-239.134 345.4-239.134z" opacity=".402" fill="url(#r)" overflow="visible" transform="matrix(.02411 0 0 .0193 45.49 41.752)"/></g><path d="M11.286 13.088c-.625 0-1.032.29-1.282.843L3.536 31.035s-.25.671-.25 1.781v9.65c0 1.083.657 1.625 1.656 1.625h38.562c.985 0 1.594-.718 1.594-1.844v-9.65s.106-.77-.094-1.312l-6.718-17.197c-.185-.512-.637-.988-1.125-1H11.286z" fill="none" stroke="#535353" stroke-width="2" stroke-linecap="round" stroke-linejoin="round"/><path d="M3.274 32.122l.764-.692 37.61.062 3.462.317v10.439c0 1.125-.607 1.843-1.592 1.843H4.935c-.998 0-1.661-.542-1.661-1.624V32.122z" fill="url(#s)" fill-rule="evenodd"/><path d="M3.55 31.04c-.715 1.464-.002 2.392 1.035 2.392h39c1.119-.024 1.845-1.012 1.428-2.143L38.3 14.08c-.184-.512-.655-.988-1.143-1H11.3c-.625 0-1.036.303-1.286.857L3.55 31.039z" fill="url(#t)" fill-rule="evenodd"/><path style="marker:none" color="#000" fill="url(#u)" fill-rule="evenodd" overflow="visible" d="M7.858 36.299h17.625v5.563H7.858z"/><path d="M7.858 41.862V37.85c1.836 3.18 8.296 4.012 12.937 4.012H7.858z" opacity=".811" fill="url(#v)" fill-rule="evenodd"/><path d="M44.796 30.754c.064 1.25-.414 2.316-1.322 2.343H5.355c-1.289 0-1.867-.325-2.084-.868.092.945.826 1.65 2.084 1.65h38.119c1.076-.033 1.753-1.424 1.352-2.995l-.03-.13z" fill="#fff" fill-rule="evenodd"/><path d="M10.969 15.281c-.046.2-.188.387-.188.594 0 .949.591 1.79 1.344 2.594.24-.154.365-.355.625-.5-.94-.816-1.553-1.717-1.781-2.688zm26.656 0c-.229.97-.842 1.873-1.781 2.688.274.153.404.368.656.531.757-.807 1.313-1.673 1.313-2.625 0-.207-.142-.393-.188-.594zm2.188 8.438c-.614 4.04-7.3 7.25-15.532 7.25-8.212 0-14.86-3.193-15.5-7.219-.032.197-.125.392-.125.594 0 4.318 6.99 7.844 15.625 7.843 8.636 0 15.656-3.525 15.657-7.843 0-.213-.09-.418-.126-.625z" style="marker:none" opacity=".691" color="#000" fill="url(#w)" fill-rule="evenodd" overflow="visible"/><path d="M8.662 30.895a1.37 1.016 0 1 1-2.74 0 1.37 1.016 0 1 1 2.74 0zM42.54 30.807a1.37 1.016 0 1 1-2.74 0 1.37 1.016 0 1 1 2.74 0z" style="marker:none" color="#000" fill="#fff" fill-opacity=".458" fill-rule="evenodd" overflow="visible"/><path d="M11.643 13.54c-.602 0-.993.28-1.234.813l-6.415 16.59s-.24.647-.24 1.716v9.29c0 1.354.443 1.627 1.594 1.627h37.687c1.323 0 1.534-.317 1.534-1.838v-9.29s.102-.742-.09-1.264l-6.593-16.806c-.178-.492-.551-.826-1.02-.837H11.642z" fill="none" stroke="url(#x)" stroke-linecap="round" stroke-linejoin="round"/><path d="M40.5 36.554v5.021M38.5 36.614v5.02M36.5 36.614v5.02M34.5 36.614v5.02M32.5 36.614v5.02M30.5 36.614v5.02" fill="none" stroke="#fff" stroke-linecap="square" stroke-opacity=".424"/><path d="M39.5 36.604v5.021M37.5 36.664v5.02M35.5 36.664v5.02M33.5 36.664v5.02M31.5 36.664v5.02" opacity=".097" fill="none" stroke="#000" stroke-linecap="square"/><path d="M7.875 36.313v5.53h12.563L8.217 41.5l-.343-5.188z" opacity=".44" fill="#fff" fill-rule="evenodd"/><path style="marker:none" d="M39.875 19.563a14.875 6.688 0 1 1-29.75 0 14.875 6.688 0 1 1 29.75 0z" transform="matrix(1.03781 0 0 1.06075 -1.633 3.03)" opacity=".206" color="#000" fill="url(#y)" fill-rule="evenodd" overflow="visible"/><g color="#000"><path transform="matrix(1.13019 0 0 -.7596 -3.91 53.666)" d="M40.482 36.421a15.645 8.397 0 1 1-31.29 0 15.645 8.397 0 1 1 31.29 0z" style="marker:none" opacity=".141" fill="url(#z)" fill-rule="evenodd" overflow="visible"/><path style="marker:none" d="M3.203 25.835C2.173-5.385 28.742-.45 28.583 15.79h7.312L24.518 28.775 12.585 15.789h7.542C20.584 4.819 3.409 1.61 3.203 25.835z" fill="url(#A)" stroke="url(#B)" display="block" overflow="visible"/><path d="M7.664 9.104C12.406-.04 28.122 2.718 27.762 16.58h6.317l-9.566 10.958-10.096-10.958h6.456c.272-11.575-9.95-11.044-13.209-7.475z" style="marker:none" opacity=".472" fill="none" stroke="url(#C)" stroke-miterlimit="10" display="block" overflow="visible"/><path style="marker:none" d="M34.767 16.212l-1.984 2.545c-5.41-1.516-7.886 2.73-15.674 1.732l-3.861-4.409 7.186.083c.05-11.847-12.09-11.164-15.405-2.535C8.837-1.262 27.893.806 28.283 16.114l6.484.098z" opacity=".494" fill="url(#D)" overflow="visible"/></g></svg>