<svg xmlns="http://www.w3.org/2000/svg" xmlns:xlink="http://www.w3.org/1999/xlink" height="48" width="48"><defs><radialGradient xlink:href="#a" id="o" gradientUnits="userSpaceOnUse" gradientTransform="matrix(-2.77439 0 0 1.9697 112.762 -872.885)" cx="605.714" cy="486.648" fx="605.714" fy="486.648" r="117.143"/><linearGradient id="a"><stop offset="0"/><stop offset="1" stop-opacity="0"/></linearGradient><radialGradient xlink:href="#a" id="n" gradientUnits="userSpaceOnUse" gradientTransform="matrix(2.77439 0 0 1.9697 -1891.633 -872.885)" cx="605.714" cy="486.648" fx="605.714" fy="486.648" r="117.143"/><linearGradient id="b"><stop offset="0" stop-opacity="0"/><stop offset=".5"/><stop offset="1" stop-opacity="0"/></linearGradient><linearGradient xlink:href="#b" id="m" gradientUnits="userSpaceOnUse" gradientTransform="matrix(2.77439 0 0 1.9697 -1892.179 -872.885)" x1="302.857" y1="366.648" x2="302.857" y2="609.505"/><linearGradient id="c"><stop offset="0"/><stop offset="1" stop-opacity="0"/></linearGradient><linearGradient id="j"><stop offset="0" stop-color="#fff" stop-opacity=".124"/><stop offset=".103" stop-color="#fff"/><stop offset="1" stop-color="#fff" stop-opacity="0"/></linearGradient><linearGradient id="k"><stop offset="0" stop-color="#dcdcda"/><stop offset="1" stop-color="#bab9b7"/></linearGradient><linearGradient id="e"><stop offset="0" stop-opacity=".237"/><stop offset="1" stop-opacity="0"/></linearGradient><linearGradient id="d"><stop offset="0" stop-color="#fffffd"/><stop offset=".5" stop-color="#bbbbb9"/><stop offset="1"/></linearGradient><linearGradient id="g"><stop offset="0" stop-color="#666"/><stop offset="1" stop-opacity="0"/></linearGradient><linearGradient id="f"><stop offset="0" stop-color="#f7f6f5"/><stop offset="1" stop-color="#f7f6f5" stop-opacity="0"/></linearGradient><linearGradient id="l"><stop offset="0" stop-color="#8e8d87"/><stop offset=".276" stop-color="#cbc9c1"/><stop offset="1" stop-color="#8e8d87"/></linearGradient><linearGradient id="i"><stop offset="0" stop-color="#e0e0e0"/><stop offset=".405" stop-color="#fff"/><stop offset=".534" stop-color="#cdcdcd"/><stop offset="1" stop-color="#494949"/></linearGradient><linearGradient id="h"><stop offset="0" stop-color="#fff" stop-opacity="0"/><stop offset="1" stop-color="#f8f8f8"/></linearGradient><radialGradient r="2.123" fy="26.926" fx="9.13" cy="26.926" cx="9.13" gradientUnits="userSpaceOnUse" id="w" xlink:href="#d"/><linearGradient y2="72.064" x2="9.913" y1="57.228" x1="9.87" gradientTransform="matrix(2.77209 0 0 .36074 .619 2.884)" gradientUnits="userSpaceOnUse" id="x" xlink:href="#e"/><linearGradient y2="54.136" x2="10.338" y1="64.652" x1="10.338" gradientTransform="matrix(2.36984 0 0 .42197 0 2)" gradientUnits="userSpaceOnUse" id="u" xlink:href="#f"/><linearGradient y2="62.282" x2="9.705" y1="70.725" x1="9.732" gradientTransform="matrix(2.36984 0 0 .42197 0 2)" gradientUnits="userSpaceOnUse" id="v" xlink:href="#g"/><linearGradient y2="19.337" x2="20.718" y1="25.14" x1="20.771" gradientTransform="matrix(1.19877 0 0 .85357 -.143 2.035)" gradientUnits="userSpaceOnUse" id="t" xlink:href="#h"/><linearGradient y2="25.247" x2="24.79" y1="3.679" x1="25.057" gradientTransform="matrix(.94494 0 0 1.07615 .068 4.093)" gradientUnits="userSpaceOnUse" id="s" xlink:href="#i"/><linearGradient y2="58.831" x2="15.488" y1="32.539" x1="15.388" gradientTransform="matrix(1.49016 0 0 .66874 .089 2)" gradientUnits="userSpaceOnUse" id="r" xlink:href="#j"/><linearGradient y2="88.295" x2="18.972" y1="88.295" x1="1.846" gradientTransform="matrix(2.29182 0 0 .43427 .089 2)" gradientUnits="userSpaceOnUse" id="q" xlink:href="#k"/><linearGradient y2="88.295" x2="18.972" y1="88.295" x1="1.846" gradientTransform="matrix(2.30272 0 0 .43792 0 .584)" gradientUnits="userSpaceOnUse" id="p" xlink:href="#l"/></defs><g color="#000"><path style="marker:none" opacity=".402" fill="url(#m)" overflow="visible" d="M-1559.252-150.697h1339.633V327.66h-1339.633z" transform="matrix(.02411 0 0 .0193 45.49 39.752)"/><path d="M-219.619-150.68v478.33c142.874.9 345.4-107.17 345.4-239.196S-33.655-150.68-219.619-150.68z" style="marker:none" opacity=".402" fill="url(#n)" overflow="visible" transform="matrix(.02411 0 0 .0193 45.49 39.752)"/><path style="marker:none" d="M-1559.252-150.68v478.33c-142.875.9-345.4-107.17-345.4-239.196s159.436-239.134 345.4-239.134z" opacity=".402" fill="url(#o)" overflow="visible" transform="matrix(.02411 0 0 .0193 45.49 39.752)"/></g><rect ry="1.712" rx="1.712" y="36.004" x="4.75" height="6.492" width="38.438" fill="url(#p)" stroke="#595959"/><path d="M7.13 21.5h33.74c.386 0 .878.288 1.181.724.303.436 1.737 2.61 2.058 3.074.322.464.393.904.393 1.476v12.077c0 .914-.732 1.649-1.64 1.649H5.14c-.909 0-1.64-.735-1.64-1.649V26.774c0-.494.1-1.202.446-1.653.435-.57 1.604-2.548 1.912-2.968.308-.42.874-.653 1.273-.653z" style="marker:none" color="#000" fill="url(#q)" stroke="#676767" overflow="visible"/><path d="M7.705 21.976c-.498 0-1.138.131-1.4.535l-1.84 2.829c-.295.455.034 1.528.925 1.528h37.289c1.204 0 1.208-1.01.924-1.44l-1.751-2.652c-.318-.48-.433-.8-1.226-.8H7.706z" fill="#fbfbfb" fill-rule="evenodd"/><path style="marker:none" d="M7.6 22.446h32.775c.365 0 .831.273 1.119.685.288.413 1.294 2.03 1.6 2.47.305.439.434.855.434 1.397V38.28c0 .865-.133 1.25-.995 1.25H5.53c-.863 0-1.058-.385-1.058-1.25V27c0-.469.22-1.14.547-1.566.413-.54 1.081-1.971 1.373-2.369.293-.397.83-.618 1.207-.618z" color="#000" fill="none" stroke="url(#r)" stroke-width=".947" overflow="visible"/><path d="M11.682 4.498h24.632c.65 0 1.174.51 1.174 1.144v18.706h-26.98V5.642c0-.634.524-1.144 1.174-1.144z" style="marker:none" color="#000" fill="url(#s)" stroke="#898989" stroke-linecap="round" display="block" overflow="visible"/><rect style="marker:none" width="25.001" height="18.836" x="11.499" y="5.499" ry=".177" rx=".177" color="#000" fill="none" stroke="url(#t)" stroke-linecap="round" stroke-linejoin="round" display="block" overflow="visible"/><rect ry="1.712" rx="1.712" y="27.375" x="6.875" height="5.188" width="33.75" fill="url(#u)" stroke="url(#v)"/><path transform="translate(0 2)" d="M10.872 27.626a1.282 1.282 0 1 1-2.563 0 1.282 1.282 0 1 1 2.563 0z" fill="url(#w)"/><path d="M11.744 25.416l25.562.063c.688.001.988-.371.938-1l-.125-1.563h1.866c.812 0 .99.193 1.187.563l.5.937c.527.988 1.812 1.974.498 1.974-4.502 0-28.176-.349-30.426-.974z" fill="url(#x)" fill-rule="evenodd" opacity=".366"/><path d="M42.938 26.5H4.812" fill="none" stroke="#fff" stroke-linecap="round" stroke-linejoin="round"/><g opacity=".436" color="#000" fill-opacity=".292"><path style="marker:none" overflow="visible" d="M14 7h19v1H14zM14 9h19v1H14zM14 11h19v1H14zM14 13h19v1H14zM14 15h11v1H14z"/></g><g><path d="M21.022 20.99h6.967v-4.925H31L24.554 8l-7.118 7.987h3.588l-.002 5.002z" style="marker:none" color="#000" fill="#a7a7a7" fill-rule="evenodd" overflow="visible"/></g></svg>