<svg xmlns="http://www.w3.org/2000/svg" xmlns:xlink="http://www.w3.org/1999/xlink" width="48" height="48"><defs><radialGradient xlink:href="#a" id="n" gradientUnits="userSpaceOnUse" gradientTransform="matrix(-2.77439 0 0 1.9697 112.762 -872.885)" cx="605.714" cy="486.648" fx="605.714" fy="486.648" r="117.143"/><linearGradient id="a"><stop offset="0"/><stop offset="1" stop-opacity="0"/></linearGradient><radialGradient xlink:href="#a" id="m" gradientUnits="userSpaceOnUse" gradientTransform="matrix(2.77439 0 0 1.9697 -1891.633 -872.885)" cx="605.714" cy="486.648" fx="605.714" fy="486.648" r="117.143"/><linearGradient id="b"><stop offset="0" stop-opacity="0"/><stop offset=".5"/><stop offset="1" stop-opacity="0"/></linearGradient><linearGradient xlink:href="#b" id="l" gradientUnits="userSpaceOnUse" gradientTransform="matrix(2.77439 0 0 1.9697 -1892.179 -872.885)" x1="302.857" y1="366.648" x2="302.857" y2="609.505"/><linearGradient id="c"><stop offset="0" stop-color="#a3a3a3"/><stop offset="1" stop-color="#4c4c4c"/></linearGradient><radialGradient xlink:href="#c" id="r" gradientUnits="userSpaceOnUse" gradientTransform="matrix(.96827 0 0 1.04669 44.365 -17.007)" cx="8.824" cy="3.756" fx="8.824" fy="3.756" r="37.752"/><linearGradient id="d"><stop offset="0" stop-color="#fafafa"/><stop offset=".5" stop-color="#a8a8a8"/><stop offset="1" stop-color="#cdcdcd"/></linearGradient><linearGradient xlink:href="#d" id="q" x1="25.875" y1="10.625" x2="25.25" y2="30.875" gradientUnits="userSpaceOnUse" gradientTransform="matrix(1 0 0 1.2388 0 -7.88)"/><linearGradient id="j"><stop offset="0"/><stop offset="1" stop-opacity="0"/></linearGradient><linearGradient id="i"><stop offset="0" stop-color="#6194cb"/><stop offset="1" stop-color="#729fcf"/></linearGradient><linearGradient id="f"><stop offset="0" stop-color="#fff" stop-opacity=".134"/><stop offset="1" stop-color="#fff" stop-opacity=".052"/></linearGradient><linearGradient id="e"><stop offset="0" stop-color="#fff"/><stop offset="1" stop-color="#fff" stop-opacity="0"/></linearGradient><linearGradient id="h"><stop offset="0" stop-color="#a0a0a0"/><stop offset="1" stop-color="#a8a8a8"/></linearGradient><linearGradient id="g"><stop offset="0" stop-color="#fff" stop-opacity=".701"/><stop offset="1" stop-color="#fff" stop-opacity="0"/></linearGradient><linearGradient xlink:href="#e" id="u" gradientUnits="userSpaceOnUse" gradientTransform="scale(1.42154 .70346)" x1="19.116" y1="28.946" x2="19.427" y2="51.913"/><linearGradient xlink:href="#f" id="t" gradientUnits="userSpaceOnUse" gradientTransform="matrix(1.5353 0 0 .65134 3.451 2.448)" x1="14.899" y1="27.06" x2="22.715" y2="41.837"/><linearGradient xlink:href="#g" id="o" gradientUnits="userSpaceOnUse" gradientTransform="skewX(5.77) scale(1.4627 .68367)" x1="5.266" y1="18.726" x2="8.212" y2="52.626"/><radialGradient xlink:href="#h" id="k" gradientUnits="userSpaceOnUse" gradientTransform="matrix(1.01564 0 .1031 1.00051 0 -.084)" cx="26.107" cy="38.195" fx="26.107" fy="38.195" r="32.26"/><linearGradient xlink:href="#i" id="s" gradientUnits="userSpaceOnUse" gradientTransform="matrix(1 0 0 1.02212 52.057 -1.323)" x1="22.176" y1="36.988" x2="22.065" y2="32.05"/><linearGradient xlink:href="#j" id="p" x1="22.25" y1="37.625" x2="19.75" y2="14.875" gradientUnits="userSpaceOnUse"/></defs><path style="marker:none" d="M4.62 38.651c.042.42.497.84.911.84h31.136c.414 0 .786-.42.744-.84l-2.696-27.12c-.042-.42-.498-.84-.912-.84H21.08c-.59 0-1.209-.38-1.403-.96l-1.103-3.306c-.169-.508-.547-.736-1.314-.736H2.322c-.413 0-.785.42-.744.84L4.62 38.652z" color="#000" fill="url(#k)" stroke="#5a5a5a" stroke-linecap="round" stroke-linejoin="round" overflow="visible"/><path style="marker:none" d="M3.339 17.533h31.15M5.33 37.533h29.988M5.33 35.533h29.988" opacity=".114" color="#000" fill="#729fcf" stroke="#000" stroke-linecap="round" stroke-linejoin="round" overflow="visible"/><g color="#000"><path style="marker:none" opacity=".402" fill="url(#l)" overflow="visible" d="M-1559.252-150.697h1339.633V327.66h-1339.633z" transform="matrix(.02165 0 0 .01904 42.415 36.934)"/><path d="M-219.619-150.68v478.33c142.874.9 345.4-107.17 345.4-239.196S-33.655-150.68-219.619-150.68z" style="marker:none" opacity=".402" fill="url(#m)" overflow="visible" transform="matrix(.02165 0 0 .01904 42.415 36.934)"/><path style="marker:none" d="M-1559.252-150.68v478.33c-142.875.9-345.4-107.17-345.4-239.196s159.436-239.134 345.4-239.134z" opacity=".402" fill="url(#n)" overflow="visible" transform="matrix(.02165 0 0 .01904 42.415 36.934)"/></g><path d="M6.172 38.419c.031.31-.155.517-.476.413-.32-.103-.548-.31-.58-.62L2.086 6.845c-.03-.31.157-.498.468-.498l14.75-.092c.53-.003.739.054.88.518 0 0 1.085 3.112 1.246 3.698l-1.556-2.917c-.265-.498-.599-.414-.973-.414H3.771c-.31 0-.496.207-.464.517l2.979 30.865-.114-.103z" style="marker:none" color="#000" fill="url(#o)" display="block" overflow="visible"/><path d="M2.305 7.533H17.09M2.757 11.533h30.74" style="marker:none" opacity=".114" color="#000" fill="#729fcf" stroke="#000" stroke-linecap="round" stroke-linejoin="round" overflow="visible"/><path d="M34.136 11.98c-.04-.492-.06-.75-.513-.75l-12.988.01c-.31 0-.35-.149 0 0 .351.147 1.36.68 2.331.724 0 0 11.17.017 11.17.015z" stroke="none" fill="#fff" fill-opacity=".58" display="block"/><path d="M3.163 15.533h30.83M5.16 33.533h29.987M4.866 31.533h30.109M4.634 29.533h30.169M4.463 27.533h30.17M4.256 25.533H34.46M4.024 23.533h30.265M3.853 21.533h30.265" style="marker:none" opacity=".114" color="#000" fill="#729fcf" stroke="#000" stroke-linecap="round" stroke-linejoin="round" overflow="visible"/><path d="M34.136 11.98c-.04-.492-.06-.75-.513-.75l-12.988.01c-.31 0-.35-.149 0 0 .351.147 1.36.68 2.331.724 0 0 11.17.017 11.17.015z" stroke="none" fill="#fff" fill-opacity=".58" display="block"/><path style="marker:none" d="M2.964 13.533h31.027M3.651 19.533h30.296M2.524 9.533h15.281" opacity=".114" color="#000" fill="#729fcf" stroke="#000" stroke-linecap="round" stroke-linejoin="round" overflow="visible"/><path style="marker:none" d="M34.375 14.125L37 38.75l-31 .125-1.875-24.75h30.25z" opacity=".392" color="#000" fill="url(#p)" display="block" overflow="visible"/><path style="marker:none" d="M43.375 2.494c.5 16.88-9.075 18.529-6.013 29l-31.487.887C4 19.528 14.25 11.166 11.25 2.649l32.125-.155z" color="#000" fill="url(#q)" stroke="url(#r)" display="block" overflow="visible"/><path style="marker:none" d="M15.438 6.562H39" color="#000" fill="none" stroke="#a1a1a1" display="block" overflow="visible"/><path d="M5.779 39.066c.103.211.31.423.62.423h33.309c.207 0 .52-.126.708-.264.53-.392.655-.613.893-.974 2.448-3.715 5.805-19.277 5.805-19.277.103-.211-.104-.423-.414-.423H11.776c-.31 0-1.656 16.108-4.863 19.287l-1.238 1.228h.104z" style="marker:none" color="#000" fill="url(#s)" stroke="#3465a4" stroke-linejoin="round" display="block" overflow="visible"/><path d="M15.356 8.562h19.725" style="marker:none" color="#000" fill="none" stroke="#a1a1a1" display="block" overflow="visible"/><path d="M13.134 20.139c-.772 4.99-1.5 9.009-2.716 13.514 2.387-.708 7.117-3.205 17.117-3.205s16.723-9.249 17.651-10.354l-32.052.045z" fill="url(#t)" fill-rule="evenodd"/><path style="marker:none" d="M15.143 10.563h24.315" color="#000" fill="none" stroke="#a1a1a1" display="block" overflow="visible"/><path style="marker:none" d="M45.82 19.688H12.662s-2.148 16.02-4.723 18.24c8.121 0 31.572-.049 31.591-.049 1.752 0 4.908-12.636 6.29-18.191z" color="#000" fill="none" stroke="url(#u)" stroke-linecap="round" overflow="visible" opacity=".523"/><path d="M14.399 12.563h23.853M13.629 14.563h23.346M12.52 16.563h18.647" style="marker:none" color="#000" fill="none" stroke="#a1a1a1" display="block" overflow="visible"/><path style="marker:none" d="M6.375 31.75C5.134 19.512 13.563 12.687 12 3h30.875l-30 .625c1.25 9.563-6.196 14.646-6.5 28.125z" color="#000" fill="#fff" display="block" overflow="visible"/></svg>