<svg xmlns="http://www.w3.org/2000/svg" xmlns:xlink="http://www.w3.org/1999/xlink" width="48" height="48"><defs><radialGradient xlink:href="#a" id="l" gradientUnits="userSpaceOnUse" gradientTransform="matrix(-2.77439 0 0 1.9697 112.762 -872.885)" cx="605.714" cy="486.648" fx="605.714" fy="486.648" r="117.143"/><linearGradient id="a"><stop offset="0"/><stop offset="1" stop-opacity="0"/></linearGradient><radialGradient xlink:href="#a" id="k" gradientUnits="userSpaceOnUse" gradientTransform="matrix(2.77439 0 0 1.9697 -1891.633 -872.885)" cx="605.714" cy="486.648" fx="605.714" fy="486.648" r="117.143"/><linearGradient id="b"><stop offset="0" stop-opacity="0"/><stop offset=".5"/><stop offset="1" stop-opacity="0"/></linearGradient><linearGradient xlink:href="#b" id="j" gradientUnits="userSpaceOnUse" gradientTransform="matrix(2.77439 0 0 1.9697 -1892.179 -872.885)" x1="302.857" y1="366.648" x2="302.857" y2="609.505"/><linearGradient id="c"><stop offset="0"/><stop offset="1" stop-opacity="0"/></linearGradient><linearGradient id="g"><stop offset="0" stop-color="#fff"/><stop offset="1" stop-color="#f8f8f8"/></linearGradient><radialGradient gradientUnits="userSpaceOnUse" fy="64.568" fx="20.892" r="5.257" cy="64.568" cx="20.892" id="i"><stop offset="0" stop-color="#f0f0f0"/><stop offset="1" stop-color="#9a9a9a"/></radialGradient><radialGradient gradientUnits="userSpaceOnUse" fy="114.568" fx="20.892" r="5.256" cy="114.568" cx="20.892" id="h"><stop offset="0" stop-color="#f0f0f0"/><stop offset="1" stop-color="#9a9a9a"/></radialGradient><linearGradient id="e"><stop offset="0" stop-color="#a3a3a3"/><stop offset="1" stop-color="#4c4c4c"/></linearGradient><linearGradient id="f"><stop offset="0" stop-color="#fafafa"/><stop offset="1" stop-color="#bbb"/></linearGradient><linearGradient id="d"><stop offset="0" stop-color="#fff"/><stop offset=".5" stop-color="#fff520" stop-opacity=".891"/><stop offset="1" stop-color="#fff300" stop-opacity="0"/></linearGradient><radialGradient xlink:href="#d" id="r" gradientUnits="userSpaceOnUse" cx="55" cy="125" fx="55" fy="125" r="14.375"/><radialGradient r="37.752" fy="3.756" fx="8.824" cy="3.756" cx="8.824" gradientTransform="matrix(.96827 0 0 1.03277 3.354 .646)" gradientUnits="userSpaceOnUse" id="n" xlink:href="#e"/><radialGradient r="86.708" fy="35.737" fx="33.967" cy="35.737" cx="33.967" gradientTransform="scale(.9605 1.04113)" gradientUnits="userSpaceOnUse" id="m" xlink:href="#f"/><radialGradient r="38.159" fy="7.268" fx="8.144" cy="7.268" cx="8.144" gradientTransform="matrix(.96827 0 0 1.03277 3.354 .646)" gradientUnits="userSpaceOnUse" id="o" xlink:href="#g"/><radialGradient xlink:href="#h" id="p" gradientUnits="userSpaceOnUse" gradientTransform="matrix(.2297 0 0 .2297 4.614 3.98)" cx="20.892" cy="114.568" fx="20.892" fy="114.568" r="5.256"/><radialGradient xlink:href="#i" id="q" gradientUnits="userSpaceOnUse" gradientTransform="matrix(.2297 0 0 .2297 4.614 3.98)" cx="20.892" cy="64.568" fx="20.892" fy="64.568" r="5.257"/></defs><g color="#000"><path style="marker:none" opacity=".402" fill="url(#j)" overflow="visible" d="M-1559.252-150.697h1339.633V327.66h-1339.633z" transform="matrix(.02165 0 0 .01486 43.008 42.685)"/><path d="M-219.619-150.68v478.33c142.874.9 345.4-107.17 345.4-239.196S-33.655-150.68-219.619-150.68z" style="marker:none" opacity=".402" fill="url(#k)" overflow="visible" transform="matrix(.02165 0 0 .01486 43.008 42.685)"/><path style="marker:none" d="M-1559.252-150.68v478.33c-142.875.9-345.4-107.17-345.4-239.196s159.436-239.134 345.4-239.134z" opacity=".402" fill="url(#l)" overflow="visible" transform="matrix(.02165 0 0 .01486 43.008 42.685)"/></g><rect ry="1.149" y="3.646" x="6.604" height="40.92" width="34.875" style="marker:none" color="#000" fill="url(#m)" stroke="url(#n)" stroke-linecap="round" stroke-linejoin="round" display="block" overflow="visible"/><rect rx=".149" ry=".149" y="4.584" x="7.666" height="38.946" width="32.776" style="marker:none" color="#000" fill="none" stroke="url(#o)" stroke-linecap="round" stroke-linejoin="round" display="block" overflow="visible"/><g fill="#fff" stroke="none"><path d="M10.995 30.18a.82.82 0 1 1-1.641 0 .82.82 0 0 1 1.641 0zM10.995 18.694a.82.82 0 1 1-1.642 0 .82.82 0 0 1 1.642 0z"/></g><path d="M9.995 29.952a.82.82 0 1 1-1.641 0 .82.82 0 0 1 1.641 0z" fill="url(#p)" transform="translate(.646 -.038)"/><path d="M9.995 18.467a.82.82 0 1 1-1.642 0 .82.82 0 0 1 1.642 0z" fill="url(#q)" transform="translate(.646 -.038)"/><path d="M11.506 5.494v37.907" fill="none" stroke="#000" stroke-width=".989" stroke-opacity=".018"/><path d="M12.5 5.02v38.018" fill="none" stroke="#fff" stroke-opacity=".205"/><g><path style="marker:none" d="M69.375 125a14.375 14.375 0 1 1-28.75 0 14.375 14.375 0 1 1 28.75 0z" transform="matrix(.7833 0 0 .7833 -6.34 -86.652)" color="#000" fill="url(#r)" display="block"/></g></svg>