<svg xmlns="http://www.w3.org/2000/svg" xmlns:xlink="http://www.w3.org/1999/xlink" height="48" width="48"><defs><radialGradient xlink:href="#a" id="l" gradientUnits="userSpaceOnUse" gradientTransform="matrix(-2.77439 0 0 1.9697 112.762 -872.885)" cx="605.714" cy="486.648" fx="605.714" fy="486.648" r="117.143"/><linearGradient id="a"><stop offset="0"/><stop offset="1" stop-opacity="0"/></linearGradient><radialGradient xlink:href="#a" id="k" gradientUnits="userSpaceOnUse" gradientTransform="matrix(2.77439 0 0 1.9697 -1891.633 -872.885)" cx="605.714" cy="486.648" fx="605.714" fy="486.648" r="117.143"/><linearGradient id="b"><stop offset="0" stop-opacity="0"/><stop offset=".5"/><stop offset="1" stop-opacity="0"/></linearGradient><linearGradient xlink:href="#b" id="j" gradientUnits="userSpaceOnUse" gradientTransform="matrix(2.77439 0 0 1.9697 -1892.179 -872.885)" x1="302.857" y1="366.648" x2="302.857" y2="609.505"/><linearGradient id="i"><stop offset="0"/><stop offset="1" stop-opacity="0"/></linearGradient><linearGradient id="h"><stop offset="0"/><stop offset="1" stop-opacity="0"/></linearGradient><linearGradient id="e"><stop offset="0" stop-color="#fff"/><stop offset="1" stop-color="#f8f8f8"/></linearGradient><radialGradient id="g" cx="20.892" cy="64.568" r="5.257" fx="20.892" fy="64.568" gradientUnits="userSpaceOnUse"><stop offset="0" stop-color="#f0f0f0"/><stop offset="1" stop-color="#9a9a9a"/></radialGradient><radialGradient id="f" cx="20.892" cy="114.568" r="5.256" fx="20.892" fy="114.568" gradientUnits="userSpaceOnUse"><stop offset="0" stop-color="#f0f0f0"/><stop offset="1" stop-color="#9a9a9a"/></radialGradient><linearGradient id="c"><stop offset="0" stop-color="#a3a3a3"/><stop offset="1" stop-color="#4c4c4c"/></linearGradient><linearGradient id="d"><stop offset="0" stop-color="#fafafa"/><stop offset="1" stop-color="#bbb"/></linearGradient><radialGradient xlink:href="#c" id="n" gradientUnits="userSpaceOnUse" gradientTransform="matrix(.96827 0 0 1.03277 3.354 .646)" cx="8.824" cy="3.756" fx="8.824" fy="3.756" r="37.752"/><radialGradient xlink:href="#d" id="m" gradientUnits="userSpaceOnUse" gradientTransform="scale(.9605 1.04113)" cx="33.967" cy="35.737" fx="33.967" fy="35.737" r="86.708"/><radialGradient xlink:href="#e" id="o" gradientUnits="userSpaceOnUse" gradientTransform="matrix(.96827 0 0 1.03277 3.354 .646)" cx="8.144" cy="7.268" fx="8.144" fy="7.268" r="38.159"/><radialGradient r="5.256" fy="114.568" fx="20.892" cy="114.568" cx="20.892" gradientTransform="matrix(.2297 0 0 .2297 4.614 3.98)" gradientUnits="userSpaceOnUse" id="p" xlink:href="#f"/><radialGradient r="5.257" fy="64.568" fx="20.892" cy="64.568" cx="20.892" gradientTransform="matrix(.2297 0 0 .2297 4.614 3.98)" gradientUnits="userSpaceOnUse" id="q" xlink:href="#g"/><radialGradient xlink:href="#i" id="r" cx="26.03" cy="24.227" fx="26.03" fy="24.227" r="11.63" gradientTransform="matrix(2.11099 0 0 2.53493 -28.92 -38.044)" gradientUnits="userSpaceOnUse"/></defs><g color="#000"><path style="marker:none" opacity=".402" fill="url(#j)" overflow="visible" d="M-1559.252-150.697h1339.633V327.66h-1339.633z" transform="matrix(.02165 0 0 .01486 43.008 42.685)"/><path d="M-219.619-150.68v478.33c142.874.9 345.4-107.17 345.4-239.196S-33.655-150.68-219.619-150.68z" style="marker:none" opacity=".402" fill="url(#k)" overflow="visible" transform="matrix(.02165 0 0 .01486 43.008 42.685)"/><path style="marker:none" d="M-1559.252-150.68v478.33c-142.875.9-345.4-107.17-345.4-239.196s159.436-239.134 345.4-239.134z" opacity=".402" fill="url(#l)" overflow="visible" transform="matrix(.02165 0 0 .01486 43.008 42.685)"/></g><rect style="marker:none" width="34.875" height="40.92" x="6.604" y="3.646" ry="1.149" color="#000" fill="url(#m)" stroke="url(#n)" stroke-linecap="round" stroke-linejoin="round" display="block" overflow="visible"/><rect style="marker:none" width="32.776" height="38.946" x="7.666" y="4.584" ry=".149" rx=".149" color="#000" fill="none" stroke="url(#o)" stroke-linecap="round" stroke-linejoin="round" display="block" overflow="visible"/><g fill="#fff" stroke="none"><path d="M10.995 30.18a.82.82 0 1 1-1.641 0 .82.82 0 0 1 1.641 0zM10.995 18.694a.82.82 0 1 1-1.642 0 .82.82 0 0 1 1.642 0z"/></g><path d="M9.995 29.952a.82.82 0 1 1-1.641 0 .82.82 0 0 1 1.641 0z" fill="url(#p)" transform="translate(.646 -.038)"/><path d="M9.995 18.467a.82.82 0 1 1-1.642 0 .82.82 0 0 1 1.642 0z" fill="url(#q)" transform="translate(.646 -.038)"/><path d="M11.506 5.494v37.907" fill="none" stroke="#000" stroke-width=".989" stroke-opacity=".018"/><path d="M12.5 5.02v38.018" fill="none" stroke="#fff" stroke-opacity=".205"/><g color="#000"><g transform="matrix(.9091 0 0 1 2.364 0)" fill="#9b9b9b" fill-opacity=".55"><rect style="marker:none" width="22" height="1" x="15" y="9" rx=".152" ry=".065" display="block" overflow="visible"/><rect style="marker:none" width="22" height="1" x="15" y="11" rx=".152" ry=".065" display="block" overflow="visible"/><rect style="marker:none" width="22" height="1" x="15" y="13" rx=".152" ry=".065" display="block" overflow="visible"/><rect style="marker:none" width="22" height="1" x="15" y="15" rx=".152" ry=".065" display="block" overflow="visible"/><rect style="marker:none" width="22" height="1" x="15" y="17" rx=".152" ry=".065" display="block" overflow="visible"/><rect style="marker:none" width="22" height="1" x="15" y="19" rx=".152" ry=".065" display="block" overflow="visible"/><rect style="marker:none" width="22" height="1" x="15" y="21" rx=".152" ry=".065" display="block" overflow="visible"/><rect style="marker:none" width="22" height="1" x="15" y="23" rx=".152" ry=".065" display="block" overflow="visible"/><rect style="marker:none" width="9.9" height="1" x="15" y="25" rx=".068" ry=".065" display="block" overflow="visible"/><rect style="marker:none" width="22" height="1" x="15" y="29" rx=".152" ry=".065" display="block" overflow="visible"/><rect style="marker:none" width="22" height="1" x="15" y="31" rx=".152" ry=".065" display="block" overflow="visible"/><rect style="marker:none" width="22" height="1" x="15" y="33" rx=".152" ry=".065" display="block" overflow="visible"/><rect style="marker:none" width="22" height="1" x="15" y="35" rx=".152" ry=".065" display="block" overflow="visible"/><rect style="marker:none" width="15.4" height="1" x="15" y="37" rx=".106" ry=".065" display="block" overflow="visible"/></g><path style="marker:none" d="M25.969 14.555a8.344 8.344 0 0 0-.938.125l-1.281 1.156 3.969 3.75.218 3.282-2.968 2.687-3.5-.375-3.625-3.406-1.282 1.25c-.59 5.641 5.313 10.687 11.375 7.312l11.844 12.125V32.086l-6.562-7.03c2.127-5.91-1.849-10.92-7.25-10.5z" opacity=".409" fill="url(#r)" overflow="visible"/></g></svg>