<svg xmlns="http://www.w3.org/2000/svg" xmlns:xlink="http://www.w3.org/1999/xlink" width="64" height="64"><defs><linearGradient id="d"><stop offset="0" stop-color="#06989a"/><stop offset="1" stop-color="#16d0d2"/></linearGradient><linearGradient id="c"><stop offset="0" stop-color="#16d0d2"/><stop offset="1" stop-color="#34e0e2"/></linearGradient><linearGradient id="b"><stop offset="0" stop-color="#89d5f8"/><stop offset="1" stop-color="#00899e"/></linearGradient><linearGradient id="a"><stop offset="0"/><stop offset="1" stop-opacity="0"/></linearGradient><linearGradient xlink:href="#c" id="h" x1="14" y1="46" x2="10" y2="18" gradientUnits="userSpaceOnUse"/><linearGradient xlink:href="#d" id="g" x1="50" y1="44" x2="42" y2="24" gradientUnits="userSpaceOnUse"/><linearGradient id="e"><stop offset="0" stop-color="#a40000"/><stop offset="1" stop-color="#ef2929"/></linearGradient><linearGradient id="f"><stop offset="0" stop-color="#a40000"/><stop offset="1" stop-color="#ef2929"/></linearGradient><linearGradient xlink:href="#f" id="j" gradientUnits="userSpaceOnUse" x1="130.565" y1="118.313" x2="147.897" y2="157.057"/><linearGradient xlink:href="#f" id="k" gradientUnits="userSpaceOnUse" x1="130.565" y1="118.313" x2="147.897" y2="157.057"/><linearGradient xlink:href="#f" id="i" gradientUnits="userSpaceOnUse" x1="130.565" y1="118.313" x2="147.897" y2="157.057"/><linearGradient xlink:href="#e" id="m" gradientUnits="userSpaceOnUse" x1="145.72" y1="158.352" x2="127.682" y2="117.972"/><linearGradient xlink:href="#e" id="n" gradientUnits="userSpaceOnUse" x1="145.72" y1="158.352" x2="127.682" y2="117.972"/><linearGradient xlink:href="#e" id="l" gradientUnits="userSpaceOnUse" x1="145.72" y1="158.352" x2="127.682" y2="117.972"/></defs><path d="M59 45.308L32 59 5 45.308l27-15.693z" fill="none" stroke="#042a2a" stroke-width="6" stroke-linejoin="round"/><g fill="none" stroke-linecap="round" stroke-linejoin="round" stroke-dashoffset="6"><path d="M5 45.308l27-15.693V5L5 16.692z" stroke="#042a2a" stroke-width="6"/><path d="M5 45.308l27-15.693V5L5 16.692z" stroke="#16d0d2" stroke-width="2"/></g><path d="M59 45.308L32 59 5 45.308l27-15.693z" fill="none" stroke="#34e0e2" stroke-width="2" stroke-linejoin="round"/><path d="M32 59L5 45.308V16.692l27 13.693zM32 59l27-13.692V16.692L32 30.385z" fill="none" stroke="#042a2a" stroke-width="6" stroke-linejoin="round"/><path d="M59 16.692L32 30.385 5 16.692 32 5z" fill="none" stroke="#042a2a" stroke-width="6" stroke-linejoin="round"/><path d="M32 59l27-13.692V16.692L32 28.385z" fill="url(#g)" stroke="#16d0d2" stroke-width="2" stroke-linejoin="round"/><path d="M32 59L5 45.308V16.692l27 11.693z" fill="url(#h)" stroke="#34e0e2" stroke-width="2" stroke-linejoin="round"/><path d="M59 16.692L32 28.385 5 16.692 32 5z" fill="#34e0e2" stroke="#34e0e2" stroke-width="2" stroke-linejoin="round"/><g fill="none"><g transform="matrix(.88486 0 0 .88486 -91.11 -91.11)" stroke="#280000" stroke-width="9.041"><circle cx="138" cy="138" r="124" transform="matrix(.17391 0 0 .17391 114 114)" stroke-width="51.986"/><path d="M121.826 121.826l32.348 32.348"/></g><g transform="matrix(.88105 0 0 .88105 -90.585 -90.585)" stroke="url(#i)" stroke-width="4.54"><circle cx="138" cy="138" r="124" transform="matrix(.17391 0 0 .17391 114 114)" stroke="url(#j)" stroke-width="26.105"/><path stroke="url(#k)" d="M121.826 121.826l32.348 32.348"/></g><g transform="matrix(.92742 0 0 .92742 -96.984 -96.984)" stroke="url(#l)" stroke-width="2.157"><circle cx="138" cy="138" r="124" transform="matrix(.17391 0 0 .17391 114 114)" stroke="url(#m)" stroke-width="12.4"/><path stroke="url(#n)" d="M123.775 122.35l27.879 27.753"/></g></g></svg>