<svg xmlns="http://www.w3.org/2000/svg" width="64" height="64"><defs><linearGradient id="b"><stop offset="0" stop-color="#89d5f8"/><stop offset="1" stop-color="#00899e"/></linearGradient><linearGradient id="a"><stop offset="0"/><stop offset="1" stop-opacity="0"/></linearGradient></defs><g fill="none" stroke-linejoin="round"><g stroke-linecap="round" stroke-dashoffset="6.019"><path d="M-55 47.282l27-11.718V4.974l-27 11.718z" stroke="#042a2a" stroke-width="6.019" transform="matrix(-1 0 0 .99363 4 .038)"/><path d="M-55 47.282l27-11.718V4.974l-27 11.718z" stroke="#16d0d2" stroke-width="2.006" transform="matrix(-1 0 0 .99363 4 .038)"/></g><g stroke-linecap="round" stroke-dashoffset="6"><path d="M5 47.308l27-11.693V5L5 16.692z" stroke="#042a2a" stroke-width="6"/><path d="M5 47.308l27-11.693V5L5 16.692z" stroke="#16d0d2" stroke-width="2"/></g><path d="M32 59L5 47.308V16.692l27 11.693zM32 59l27-11.692V16.692L32 28.385z" stroke="#042a2a" stroke-width="6"/><path d="M59 16.692L32 28.385 5 16.692 32 5z" stroke="#042a2a" stroke-width="6"/><path d="M32 59L5 47.308V16.692l27 11.693zM32 59l27-11.692V16.692L32 28.385z" stroke="#16d0d2" stroke-width="2"/><path d="M59 16.692L32 28.385 5 16.692 32 5z" stroke="#34e0e2" stroke-width="2"/></g></svg>