<svg xmlns="http://www.w3.org/2000/svg" width="64" height="64"><defs><linearGradient id="b"><stop offset="0" stop-color="#89d5f8"/><stop offset="1" stop-color="#00899e"/></linearGradient><linearGradient id="a"><stop offset="0"/><stop offset="1" stop-opacity="0"/></linearGradient></defs><g stroke-linecap="round" stroke-linejoin="round" stroke-dashoffset="6"><path transform="matrix(2.59272 0 0 2.82843 -47 -106.02)" d="M32.013 57.636a1.543 1.414 0 1 1-3.086 0 1.543 1.414 0 1 1 3.086 0z" fill="#34e0e2" stroke="#042a2a" stroke-width=".739"/><path transform="matrix(1.29636 0 0 1.41421 -7.5 -24.51)" d="M32.013 57.636a1.543 1.414 0 1 1-3.086 0 1.543 1.414 0 1 1 3.086 0z" fill="#06989a" stroke="#34e0e2" stroke-width="1.477"/><path transform="matrix(2.59272 0 0 2.82843 -47 -126.02)" d="M32.013 57.636c0 .781-.691 1.414-1.543 1.414s-1.543-.633-1.543-1.414c0-.781.69-1.414 1.543-1.414.852 0 1.543.633 1.543 1.414z" fill="#34e0e2" stroke="#042a2a" stroke-width=".739"/><path transform="matrix(1.29636 0 0 1.41421 -7.5 -44.51)" d="M32.013 57.636c0 .781-.691 1.414-1.543 1.414s-1.543-.633-1.543-1.414c0-.781.69-1.414 1.543-1.414.852 0 1.543.633 1.543 1.414z" fill="#06989a" stroke="#34e0e2" stroke-width="1.477"/><path transform="matrix(2.59272 0 0 2.82843 -72 -116.02)" d="M32.013 57.636c0 .781-.691 1.414-1.543 1.414s-1.543-.633-1.543-1.414c0-.781.69-1.414 1.543-1.414.852 0 1.543.633 1.543 1.414z" fill="#34e0e2" stroke="#042a2a" stroke-width=".739"/><path transform="matrix(1.29636 0 0 1.41421 -32.5 -34.51)" d="M32.013 57.636c0 .781-.691 1.414-1.543 1.414s-1.543-.633-1.543-1.414c0-.781.69-1.414 1.543-1.414.852 0 1.543.633 1.543 1.414z" fill="#06989a" stroke="#34e0e2" stroke-width="1.477"/><path transform="matrix(2.59272 0 0 2.82843 -22 -116.02)" d="M32.013 57.636c0 .781-.691 1.414-1.543 1.414s-1.543-.633-1.543-1.414c0-.781.69-1.414 1.543-1.414.852 0 1.543.633 1.543 1.414z" fill="#34e0e2" stroke="#042a2a" stroke-width=".739"/><path transform="matrix(1.29636 0 0 1.41421 17.5 -34.51)" d="M32.013 57.636c0 .781-.691 1.414-1.543 1.414s-1.543-.633-1.543-1.414c0-.781.69-1.414 1.543-1.414.852 0 1.543.633 1.543 1.414z" fill="#06989a" stroke="#34e0e2" stroke-width="1.477"/><g><path transform="matrix(2.59272 0 0 2.82843 -47 -136.02)" d="M32.013 57.636c0 .781-.691 1.414-1.543 1.414s-1.543-.633-1.543-1.414c0-.781.69-1.414 1.543-1.414.852 0 1.543.633 1.543 1.414z" fill="#34e0e2" stroke="#042a2a" stroke-width=".739"/><path transform="matrix(1.29636 0 0 1.41421 -7.5 -54.51)" d="M32.013 57.636c0 .781-.691 1.414-1.543 1.414s-1.543-.633-1.543-1.414c0-.781.69-1.414 1.543-1.414.852 0 1.543.633 1.543 1.414z" fill="#06989a" stroke="#34e0e2" stroke-width="1.477"/></g><g><path transform="matrix(2.59272 0 0 2.82843 -22 -148.02)" d="M32.013 57.636c0 .781-.691 1.414-1.543 1.414s-1.543-.633-1.543-1.414c0-.781.69-1.414 1.543-1.414.852 0 1.543.633 1.543 1.414z" fill="#34e0e2" stroke="#042a2a" stroke-width=".739"/><path transform="matrix(1.29636 0 0 1.41421 17.5 -66.51)" d="M32.013 57.636c0 .781-.691 1.414-1.543 1.414s-1.543-.633-1.543-1.414c0-.781.69-1.414 1.543-1.414.852 0 1.543.633 1.543 1.414z" fill="#06989a" stroke="#34e0e2" stroke-width="1.477"/></g><g><path transform="matrix(2.59272 0 0 2.82843 -72 -148.02)" d="M32.013 57.636c0 .781-.691 1.414-1.543 1.414s-1.543-.633-1.543-1.414c0-.781.69-1.414 1.543-1.414.852 0 1.543.633 1.543 1.414z" fill="#34e0e2" stroke="#042a2a" stroke-width=".739"/><path transform="matrix(1.29636 0 0 1.41421 -32.5 -66.51)" d="M32.013 57.636c0 .781-.691 1.414-1.543 1.414s-1.543-.633-1.543-1.414c0-.781.69-1.414 1.543-1.414.852 0 1.543.633 1.543 1.414z" fill="#06989a" stroke="#34e0e2" stroke-width="1.477"/></g><g><path transform="matrix(2.59272 0 0 2.82843 -47 -156.02)" d="M32.013 57.636c0 .781-.691 1.414-1.543 1.414s-1.543-.633-1.543-1.414c0-.781.69-1.414 1.543-1.414.852 0 1.543.633 1.543 1.414z" fill="#34e0e2" stroke="#042a2a" stroke-width=".739"/><path transform="matrix(1.29636 0 0 1.41421 -7.5 -74.51)" d="M32.013 57.636c0 .781-.691 1.414-1.543 1.414s-1.543-.633-1.543-1.414c0-.781.69-1.414 1.543-1.414.852 0 1.543.633 1.543 1.414z" fill="#06989a" stroke="#34e0e2" stroke-width="1.477"/></g></g></svg>