<svg xmlns="http://www.w3.org/2000/svg" xmlns:xlink="http://www.w3.org/1999/xlink" width="64" height="64"><defs><linearGradient id="d"><stop offset="0" stop-color="#06989a"/><stop offset="1" stop-color="#16d0d2"/></linearGradient><linearGradient id="c"><stop offset="0" stop-color="#16d0d2"/><stop offset="1" stop-color="#34e0e2"/></linearGradient><linearGradient id="b"><stop offset="0" stop-color="#89d5f8"/><stop offset="1" stop-color="#00899e"/></linearGradient><linearGradient id="a"><stop offset="0"/><stop offset="1" stop-opacity="0"/></linearGradient><linearGradient xlink:href="#c" id="f" x1="14" y1="46" x2="10" y2="18" gradientUnits="userSpaceOnUse"/><linearGradient xlink:href="#d" id="e" x1="50" y1="44" x2="42" y2="24" gradientUnits="userSpaceOnUse"/></defs><g stroke-linejoin="round"><path d="M59 45.308L32 59 5 45.308l27-15.693z" fill="none" stroke="#042a2a" stroke-width="6"/><g fill="none" stroke-linecap="round" stroke-dashoffset="6"><path d="M5 45.308l27-15.693V5L5 16.692z" stroke="#042a2a" stroke-width="6"/><path d="M5 45.308l27-15.693V5L5 16.692z" stroke="#16d0d2" stroke-width="2"/></g><path d="M59 45.308L32 59 5 45.308l27-15.693z" fill="none" stroke="#34e0e2" stroke-width="2"/><path d="M32 59L5 45.308V16.692l27 13.693zM32 59l27-13.692V16.692L32 30.385z" fill="none" stroke="#042a2a" stroke-width="6"/><path d="M59 16.692L32 30.385 5 16.692 32 5z" fill="none" stroke="#042a2a" stroke-width="6"/><path d="M32 59l27-13.692V16.692L32 28.385z" fill="url(#e)" stroke="#16d0d2" stroke-width="2"/><path d="M32 59L5 45.308V16.692l27 11.693z" fill="url(#f)" stroke="#34e0e2" stroke-width="2"/><path d="M59 16.692L32 28.385 5 16.692 32 5z" fill="#34e0e2" stroke="#34e0e2" stroke-width="2"/></g></svg>