<svg xmlns="http://www.w3.org/2000/svg" xmlns:xlink="http://www.w3.org/1999/xlink" width="48" height="48"><defs><linearGradient id="k"><stop offset="0" stop-color="#fff"/><stop offset="1" stop-color="#fff" stop-opacity="0"/></linearGradient><linearGradient id="j"><stop offset="0" stop-color="#598bcb"/><stop offset=".757" stop-color="#2f5c96"/><stop offset="1" stop-color="#203e65"/></linearGradient><linearGradient id="i"><stop offset="0"/><stop offset="1" stop-opacity="0"/></linearGradient><linearGradient id="h"><stop offset="0"/><stop offset="1" stop-opacity="0"/></linearGradient><linearGradient id="g"><stop offset="0" stop-color="#a40000"/><stop offset="1" stop-color="#ffc4c4"/></linearGradient><linearGradient id="f"><stop offset="0" stop-color="#fff"/><stop offset="1" stop-color="#d3d3d3"/></linearGradient><linearGradient id="e"><stop offset="0" stop-color="#fff"/><stop offset="1" stop-color="#d5d5d5"/></linearGradient><linearGradient id="d"><stop offset="0"/><stop offset="1" stop-opacity="0"/></linearGradient><radialGradient xlink:href="#a" id="n" gradientUnits="userSpaceOnUse" gradientTransform="matrix(-2.77439 0 0 1.9697 112.762 -872.885)" cx="605.714" cy="486.648" fx="605.714" fy="486.648" r="117.143"/><linearGradient id="a"><stop offset="0"/><stop offset="1" stop-opacity="0"/></linearGradient><radialGradient xlink:href="#a" id="m" gradientUnits="userSpaceOnUse" gradientTransform="matrix(2.77439 0 0 1.9697 -1891.633 -872.885)" cx="605.714" cy="486.648" fx="605.714" fy="486.648" r="117.143"/><linearGradient id="b"><stop offset="0" stop-opacity="0"/><stop offset=".5"/><stop offset="1" stop-opacity="0"/></linearGradient><linearGradient xlink:href="#b" id="l" gradientUnits="userSpaceOnUse" gradientTransform="matrix(2.77439 0 0 1.9697 -1892.179 -872.885)" x1="302.857" y1="366.648" x2="302.857" y2="609.505"/><linearGradient id="c"><stop offset="0"/><stop offset="1" stop-opacity="0"/></linearGradient><linearGradient xlink:href="#c" id="p" gradientUnits="userSpaceOnUse" gradientTransform="matrix(3.52041 0 0 .34802 -3.038 1.544)" x1="7.374" y1="27.377" x2="7.529" y2="69.461"/><linearGradient xlink:href="#d" id="H" x1="27.5" y1="14" x2="27.625" y2="18.75" gradientUnits="userSpaceOnUse" gradientTransform="matrix(1 0 0 .8 0 -1.2)"/><radialGradient xlink:href="#e" id="s" cx="9.58" cy="33.588" fx="9.58" fy="33.588" r="2.553" gradientTransform="matrix(3.14671 .06925 -.0604 2.74461 -17.829 -61.797)" gradientUnits="userSpaceOnUse"/><radialGradient xlink:href="#e" id="A" gradientUnits="userSpaceOnUse" gradientTransform="matrix(3.14671 .06925 -.0604 2.74461 -16.182 -61.797)" cx="9.58" cy="33.588" fx="9.58" fy="33.588" r="2.553"/><radialGradient xlink:href="#e" id="C" gradientUnits="userSpaceOnUse" gradientTransform="matrix(3.14671 .06925 -.0604 2.74461 -14.333 -61.897)" cx="9.58" cy="33.588" fx="9.58" fy="33.588" r="2.553"/><radialGradient xlink:href="#e" id="D" gradientUnits="userSpaceOnUse" gradientTransform="matrix(3.14671 .06925 -.0604 2.74461 -12.68 -61.032)" cx="9.58" cy="33.588" fx="9.58" fy="33.588" r="2.553"/><radialGradient xlink:href="#e" id="B" gradientUnits="userSpaceOnUse" gradientTransform="matrix(3.14671 .06925 -.0604 2.74461 -10.785 -60.99)" cx="9.58" cy="33.588" fx="9.58" fy="33.588" r="2.553"/><radialGradient xlink:href="#e" id="r" gradientUnits="userSpaceOnUse" gradientTransform="matrix(3.14671 .06925 -.0604 2.74461 -19.584 -61.752)" cx="9.58" cy="33.588" fx="9.58" fy="33.588" r="2.553"/><linearGradient xlink:href="#f" id="I" gradientUnits="userSpaceOnUse" gradientTransform="matrix(.98453 0 0 1.20359 .972 -2.123)" x1="26.151" y1="-5.74" x2="27.5" y2="13.352"/><radialGradient xlink:href="#e" id="t" gradientUnits="userSpaceOnUse" gradientTransform="matrix(3.14671 .06925 -.0604 2.74461 -8.333 -61.897)" cx="9.58" cy="33.588" fx="9.58" fy="33.588" r="2.553"/><radialGradient xlink:href="#e" id="z" gradientUnits="userSpaceOnUse" gradientTransform="matrix(3.14671 .06925 -.0604 2.74461 -6.333 -61.897)" cx="9.58" cy="33.588" fx="9.58" fy="33.588" r="2.553"/><radialGradient xlink:href="#e" id="y" gradientUnits="userSpaceOnUse" gradientTransform="matrix(3.14671 .06925 -.0604 2.74461 -4.333 -61.897)" cx="9.58" cy="33.588" fx="9.58" fy="33.588" r="2.553"/><radialGradient xlink:href="#e" id="x" gradientUnits="userSpaceOnUse" gradientTransform="matrix(3.14671 .06925 -.0604 2.74461 -2.333 -61.897)" cx="9.58" cy="33.588" fx="9.58" fy="33.588" r="2.553"/><radialGradient xlink:href="#e" id="q" gradientUnits="userSpaceOnUse" gradientTransform="matrix(3.14671 .06925 -.0604 2.74461 -.333 -61.897)" cx="9.58" cy="33.588" fx="9.58" fy="33.588" r="2.553"/><radialGradient xlink:href="#e" id="v" gradientUnits="userSpaceOnUse" gradientTransform="matrix(3.14671 .06925 -.0604 2.74461 1.667 -61.897)" cx="9.58" cy="33.588" fx="9.58" fy="33.588" r="2.553"/><radialGradient xlink:href="#e" id="w" gradientUnits="userSpaceOnUse" gradientTransform="matrix(3.14671 .06925 -.0604 2.74461 3.667 -61.897)" cx="9.58" cy="33.588" fx="9.58" fy="33.588" r="2.553"/><radialGradient xlink:href="#e" id="u" gradientUnits="userSpaceOnUse" gradientTransform="matrix(3.14671 .06925 -.0604 2.74461 5.667 -61.897)" cx="9.58" cy="33.588" fx="9.58" fy="33.588" r="2.553"/><linearGradient xlink:href="#g" id="J" x1="40.5" y1="13.823" x2="40.5" y2="16.878" gradientUnits="userSpaceOnUse"/><linearGradient xlink:href="#h" id="K" x1="23.5" y1="12" x2="23.5" y2="6.688" gradientUnits="userSpaceOnUse"/><linearGradient xlink:href="#i" id="o" x1="25" y1="21" x2="25" y2="32.25" gradientUnits="userSpaceOnUse"/><linearGradient xlink:href="#j" id="E" gradientUnits="userSpaceOnUse" x1="24" y1="15.837" x2="24" y2="21"/><linearGradient xlink:href="#k" id="G" x1="21.678" y1="19.97" x2="22.334" y2="11.644" gradientUnits="userSpaceOnUse"/></defs><g color="#000"><path style="marker:none" opacity=".402" fill="url(#l)" overflow="visible" d="M-1559.252-150.697h1339.633V327.66h-1339.633z" transform="matrix(.02262 0 0 .01966 44.395 41.981)"/><path style="marker:none" d="M-219.619-150.68v478.33c142.874.9 345.4-107.17 345.4-239.196S-33.655-150.68-219.619-150.68z" opacity=".402" fill="url(#m)" overflow="visible" transform="matrix(.02262 0 0 .01966 44.395 41.981)"/><path d="M-1559.252-150.68v478.33c-142.875.9-345.4-107.17-345.4-239.196s159.436-239.134 345.4-239.134z" style="marker:none" opacity=".402" fill="url(#n)" overflow="visible" transform="matrix(.02262 0 0 .01966 44.395 41.981)"/></g><path style="marker:none" d="M4.75 21h38.5l-.875 11.25H5.625L4.75 21z" opacity=".387" color="#000" fill="url(#o)" overflow="visible"/><path d="M4 16.5c-.043-.035 1.728 25.506 1.728 25.513.166 2.551 1.56 3.483 3.122 3.487.056 0 29.284-.003 29.907-.006 2.628-.011 3.272-1.635 3.445-3.408.014-.035 1.784-25.551 1.798-25.586H4z" fill="#babdb6" fill-rule="evenodd" stroke="#555753" opacity=".5"/><path style="marker:none" d="M43.458 20.713l-36.25-.024c27.311.638 32.677 3.648 36.006 3.495l.244-3.471z" opacity=".237" color="#000" fill="url(#p)" display="block"/><g opacity=".129" stroke="#000" stroke-width="1.3" color="#000" fill-rule="evenodd"><path d="M29.252 19.702s1.116 3.722.354 6.734c-.763 3.013-.248 7.863-.248 7.863l1.615.424s-.767-4.606.047-8.11c.814-3.504-.354-6.91-.354-6.91h-1.414zM10 19.848s1.117 3.721.354 6.734c-.762 3.012-.247 7.862-.247 7.862l1.438-.548s-.59-3.634.224-7.138c.814-3.503-.354-6.91-.354-6.91h-1.414z" style="marker:none" overflow="visible"/><path style="marker:none" d="M11.756 19.802s1.116 3.722.353 6.734c-.762 3.013-3.403 5.317-3.403 5.317l1.208 1.966s2.796-3.602 3.61-7.106c.813-3.504-.354-6.91-.354-6.91h-1.414zM21.252 19.702s1.116 3.722.354 6.734c-.763 3.013-.248 7.863-.248 7.863l1.659.556s-.811-4.738.003-8.242c.814-3.504-.354-6.91-.354-6.91h-1.414zM35.252 19.702s1.116 3.722.354 6.734c-.763 3.013 1.033 7.155 1.033 7.155l1.527-1.21s-1.96-2.264-1.146-5.768c.814-3.504-.354-6.91-.354-6.91h-1.414zM31.252 19.702s1.116 3.722.354 6.734c-.763 3.013-.248 7.863-.248 7.863l1.526-.062s-.678-4.12.136-7.624c.814-3.504-.354-6.91-.354-6.91h-1.414z" overflow="visible"/><path d="M33.252 19.702s1.116 3.722.354 6.734c-.763 3.013-1.044 7.686-1.044 7.686l1.792.424s-.148-4.429.666-7.933c.814-3.504-.354-6.91-.354-6.91h-1.414zM27.252 19.702s1.116 3.722.354 6.734c-.763 3.013.547 7.642.547 7.642l1.66-.681s-1.607-3.28-.793-6.784-.354-6.91-.354-6.91h-1.414z" style="marker:none" overflow="visible"/><path d="M25.252 19.702s1.116 3.722.354 6.734c-.763 3.013-1.353 7.73-1.353 7.73l1.527.203s.426-4.252 1.24-7.756c.814-3.504-.354-6.91-.354-6.91h-1.414z" style="marker:none" overflow="visible"/><path style="marker:none" d="M23.252 19.702s1.116 3.722.354 6.734c-.763 3.013-.248 7.863-.248 7.863l1.438-.549s-.59-3.633.224-7.137c.814-3.504-.354-6.91-.354-6.91h-1.414zM13.402 19.802s1.116 3.722.354 6.734c-.763 3.013-.248 7.863-.248 7.863l1.58.388s-.732-4.57.082-8.074c.814-3.504-.354-6.91-.354-6.91h-1.414zM19.506 20.609s.198 3.61-.353 6.734c-.54 3.06 2.242 7.242 2.242 7.242l1.415-.632s-2.795-2.616-2.163-6.786c.558-3.68.274-6.557.274-6.557l-1.415-.001z" overflow="visible"/><path style="marker:none" d="M15.252 19.702s1.116 3.722.354 6.734c-.763 3.013-.248 7.863-.248 7.863l1.438-.549s-.59-3.633.224-7.137c.814-3.504-.354-6.91-.354-6.91h-1.414z" overflow="visible"/><path d="M16.905 20.568s1.116 3.721.353 6.734c-.762 3.012-2.443 4.59-2.443 4.59l1.238 1.136s1.806-2.046 2.62-5.55c.813-3.503-.354-6.91-.354-6.91h-1.414z" style="marker:none" overflow="visible"/></g><g color="#000" fill-rule="evenodd"><path style="marker:none" d="M29.163 19.614s1.116 3.721.354 6.734c-.762 3.013-.248 7.862-.248 7.862l1.615.424s-.767-4.605.047-8.11c.814-3.503-.353-6.909-.353-6.909h-1.415z" fill="url(#q)" overflow="visible"/><path style="marker:none" d="M9.912 19.76s1.116 3.72.354 6.733c-.762 3.013-.248 7.862-.248 7.862l1.439-.548s-.59-3.633.223-7.137c.814-3.504-.353-6.91-.353-6.91H9.912z" fill="url(#r)" overflow="visible"/><path d="M11.667 19.714s1.116 3.721.354 6.734c-.763 3.013-3.403 5.316-3.403 5.316l1.208 1.966s2.795-3.601 3.609-7.105c.814-3.504-.354-6.91-.354-6.91h-1.414z" style="marker:none" fill="url(#s)" overflow="visible"/><path style="marker:none" d="M21.163 19.614s1.116 3.721.354 6.734c-.762 3.013-.248 7.862-.248 7.862l1.66.557s-.812-4.738.002-8.242c.814-3.504-.353-6.91-.353-6.91h-1.415z" fill="url(#t)" overflow="visible"/><path d="M35.163 19.614s1.116 3.721.354 6.734c-.762 3.013 1.034 7.155 1.034 7.155l1.527-1.21s-1.96-2.264-1.147-5.768c.814-3.504-.353-6.91-.353-6.91h-1.415z" style="marker:none" fill="url(#u)" overflow="visible"/><path d="M31.163 19.614s1.116 3.721.354 6.734c-.762 3.013-.248 7.862-.248 7.862l1.527-.062s-.679-4.12.135-7.623c.814-3.504-.353-6.91-.353-6.91h-1.415z" style="marker:none" fill="url(#v)" overflow="visible"/><path style="marker:none" d="M33.163 19.614s1.116 3.721.354 6.734c-.762 3.013-1.043 7.685-1.043 7.685l1.792.425s-.149-4.43.665-7.933c.814-3.504-.353-6.91-.353-6.91h-1.415z" fill="url(#w)" overflow="visible"/><path d="M27.163 19.614s1.116 3.721.354 6.734c-.762 3.013.548 7.641.548 7.641l1.66-.68s-1.608-3.28-.794-6.784c.814-3.504-.353-6.91-.353-6.91h-1.415z" style="marker:none" fill="url(#x)" overflow="visible"/><path style="marker:none" d="M25.163 19.614s1.116 3.721.354 6.734c-.762 3.013-1.353 7.73-1.353 7.73l1.527.203s.426-4.252 1.24-7.756c.814-3.504-.353-6.91-.353-6.91h-1.415z" fill="url(#y)" overflow="visible"/><path d="M23.163 19.614s1.116 3.721.354 6.734c-.762 3.013-.248 7.862-.248 7.862l1.439-.548s-.59-3.633.223-7.137c.814-3.504-.353-6.91-.353-6.91h-1.415z" style="marker:none" fill="url(#z)" overflow="visible"/><path style="marker:none" d="M13.314 19.714s1.116 3.721.353 6.734c-.762 3.013-.248 7.862-.248 7.862l1.58.388s-.731-4.57.082-8.073c.814-3.504-.353-6.91-.353-6.91h-1.414z" fill="url(#A)" overflow="visible"/><path d="M19.418 20.52s.198 3.61-.353 6.734c-.54 3.06 2.241 7.243 2.241 7.243l1.415-.633s-2.794-2.615-2.162-6.785c.557-3.68.273-6.558.273-6.558h-1.414z" style="marker:none" fill="url(#B)" overflow="visible"/><path d="M15.163 19.614s1.116 3.721.354 6.734c-.762 3.013-.248 7.862-.248 7.862l1.439-.548s-.59-3.633.223-7.137c.814-3.504-.353-6.91-.353-6.91h-1.415z" style="marker:none" fill="url(#C)" overflow="visible"/><path style="marker:none" d="M16.816 20.48s1.116 3.72.354 6.733c-.763 3.013-2.443 4.591-2.443 4.591l1.238 1.136s1.805-2.046 2.619-5.55c.814-3.504-.354-6.91-.354-6.91h-1.414z" fill="url(#D)" overflow="visible"/></g><path d="M5.415 19.122c-.052 0 .836 12.817 1.542 21.806.182 2.307.552 3.246 1.985 3.246 11.817 0 28.61.087 29.183.084 2.766-.01 2.715-1.037 2.944-3.22.083-.794 1.532-21.827 1.518-21.827-9.9 0-24.94-.057-37.172-.09z" fill="none" stroke="#fff" opacity=".629"/><path d="M7.163 6.569c-1.067.002-1.96.027-2.446 1.043-.084.176-2.66 7.341-2.784 7.614-1.06 2.34-.083 5.286 1.965 5.267.39-.004 40.36.018 40.98 0 1.743-.05 1.966-3.463 1.215-4.998-.042-.087-3.526-7.981-3.615-8.12-.41-.625-1.33-.899-2.014-.873-.135.005-33.168.066-33.3.067z" id="F" fill="url(#E)" fill-rule="evenodd" stroke="#204a87"/><path style="marker:none" d="M4.792 20.902h2.5l.766 20.611-.763 3.073c-.606-.486-.878-1.224-1.016-2.062L4.792 20.902z" opacity=".149" color="#000" fill="#555753" fill-rule="evenodd" overflow="visible"/><path style="marker:none" d="M8.034 41.612L7.32 44.54c.423.224.736.312 1.192.466l30.025-.029c.58-.04 1.131-.065 1.515-.171l-2.046-3.436-29.973.24z" opacity=".428" color="#000" fill="#eeeeec" fill-rule="evenodd" overflow="visible"/><path style="marker:none" d="M38.007 41.37l2.012 3.446c.619-.263 1.33-.724 1.612-1.854l1.508-22.017-3.447-.002-1.685 20.428z" opacity=".371" color="#000" fill="#eeeeec" fill-rule="evenodd" overflow="visible"/><path xlink:href="#F" d="M40.375 7.531c-.067 0-.188.031-.313.032-.25 0-.604-.002-1.062 0-.917.002-2.222-.004-3.781 0-3.12.006-7.26.023-11.407.03-8.294.016-16.636 0-16.656 0-.52.002-.894.06-1.093.126-.2.066-.268.053-.407.343.068-.142.022-.026 0 .032l-.093.25c-.078.21-.186.526-.313.875-.255.697-.603 1.61-.938 2.531-.334.921-.645 1.85-.906 2.563-.13.356-.26.65-.344.874-.083.225-.099.275-.187.47-.412.907-.394 1.998-.125 2.75.269.75.638 1.067 1.156 1.062.137-.002.713 0 1.844 0h4.625c3.81.001 8.88-.002 13.938 0h18.625c1.152-.001 1.997-.003 1.906 0 .095-.003.1.006.218-.157.118-.162.241-.52.313-.937.143-.834.004-1.95-.219-2.406-.068-.14-.034-.093-.062-.156-.029-.064-.075-.138-.125-.25-.1-.225-.239-.56-.407-.938l-1.218-2.75c-.445-1.001-.88-1.99-1.219-2.75-.17-.38-.335-.711-.438-.938-.05-.113-.097-.19-.124-.25-.123-.154-.704-.42-1.063-.406-.1.004-.043 0-.063 0h-.062z" fill="none" stroke="url(#G)" opacity=".387"/><path style="marker:none" d="M8 10l-.625 2h32l-.782-1.925L8 10z" opacity=".83" color="#000" fill="url(#H)" fill-rule="evenodd" overflow="visible"/><path style="marker:none" d="M9.854 1.5h27.313c.196 0 .354.158.354.354V11.5H9.5V1.854c0-.196.158-.354.354-.354z" color="#000" fill="url(#I)" fill-rule="evenodd" stroke="#888a85" overflow="visible"/><path style="marker:none" d="M10.5 10.523V2.5h26.004v8.112" opacity=".629" color="#000" fill="none" stroke="#fff" stroke-linecap="square" overflow="visible"/><path transform="matrix(.81438 0 0 .79638 7.584 3.213)" d="M43 15a2.5 1.25 0 1 1-5 0 2.5 1.25 0 1 1 5 0z" style="marker:none" color="#000" fill="#c00" fill-rule="evenodd" stroke="#a40000" stroke-width="1.242" stroke-linecap="square" overflow="visible"/><path style="marker:none" d="M43 15a2.5 1.25 0 1 1-5 0 2.5 1.25 0 1 1 5 0z" transform="matrix(.81438 0 0 .79638 7.584 2.55)" color="#000" fill="#ef2929" fill-rule="evenodd" stroke="url(#J)" stroke-width="1.242" stroke-linecap="square" overflow="visible"/><path style="marker:none" opacity=".273" color="#000" fill="url(#K)" overflow="visible" d="M9 6.688h29v5.313H9z"/><rect style="marker:none" width="23" height="1" x="12" y="4" rx=".5" ry=".5" opacity=".139" color="#000" overflow="visible"/><rect y="6" x="12" height="1" width="15" style="marker:none" rx=".5" ry=".5" opacity=".139" color="#000" overflow="visible"/><rect style="marker:none" width="19" height="1" x="12" y="8" rx=".5" ry=".5" opacity=".139" color="#000" overflow="visible"/></svg>