<svg xmlns="http://www.w3.org/2000/svg" xmlns:xlink="http://www.w3.org/1999/xlink" width="48" height="48"><defs><linearGradient id="e"><stop offset="0" stop-color="#99b00b"/><stop offset="1" stop-color="#99b00b" stop-opacity="0"/></linearGradient><linearGradient id="d"><stop offset="0" stop-color="#788600"/><stop offset="1" stop-color="#788600" stop-opacity="0"/></linearGradient><linearGradient id="c"><stop offset="0" stop-color="#fff"/><stop offset="1" stop-color="#fff" stop-opacity="0"/></linearGradient><linearGradient id="a"><stop offset="0"/><stop offset="1" stop-opacity="0"/></linearGradient><radialGradient xlink:href="#a" id="f" cx="24.837" cy="36.421" fx="24.837" fy="36.421" r="15.645" gradientTransform="matrix(1 0 0 .53672 0 16.873)" gradientUnits="userSpaceOnUse"/><linearGradient id="b"><stop offset="0" stop-color="#fff"/><stop offset="1" stop-color="#fff" stop-opacity="0"/></linearGradient><linearGradient xlink:href="#b" id="i" gradientUnits="userSpaceOnUse" gradientTransform="matrix(0 -1.17193 1.17193 0 1.783 54.101)" x1="17.061" y1="11.395" x2="12.624" y2="12.584"/><radialGradient xlink:href="#c" id="j" cx="16.564" cy="11.132" fx="16.564" fy="11.132" r="19.063" gradientTransform="matrix(-.0129 1.6852 1.71308 .01311 -1.041 -10.116)" gradientUnits="userSpaceOnUse"/><linearGradient xlink:href="#d" id="h" x1="33" y1="35.75" x2="31.5" y2="42.5" gradientUnits="userSpaceOnUse"/><linearGradient xlink:href="#e" id="g" x1="33" y1="35.75" x2="31.5" y2="42.5" gradientUnits="userSpaceOnUse"/></defs><g color="#000"><path transform="matrix(1.48974 0 0 -1.00125 -12.647 75.313)" d="M40.482 36.421a15.645 8.397 0 1 1-31.29 0 15.645 8.397 0 1 1 31.29 0z" style="marker:none" opacity=".141" fill="url(#f)" fill-rule="evenodd" overflow="visible"/><path style="marker:none" d="M38.375 45.034c-40.026 1.322-33.7-32.74-12.88-32.536V3.122L42.143 17.71 25.495 33.006v-9.668c-14.063-.586-18.178 21.433 12.88 21.696z" fill="url(#g)" stroke="url(#h)" display="block" overflow="visible"/><path d="M16.925 39.316c-11.723-6.08-8.188-26.229 9.584-25.766v-8.1l14.047 12.265L26.51 30.659V22.38c-14.84-.348-14.16 12.758-9.584 16.935z" style="marker:none" opacity=".699" fill="none" stroke="url(#i)" stroke-miterlimit="10" display="block" overflow="visible"/><path style="marker:none" d="M26.037 4.569l10.687 10.23c-6.938 0-4.687 8.936-10.812 11.811l.062-3.666c-15.187-.063-14.312 15.5-3.25 19.75C3.636 37.812 6.287 13.38 25.912 12.88l.125-8.312z" opacity=".494" fill="url(#j)" overflow="visible"/></g></svg>