<svg xmlns="http://www.w3.org/2000/svg" xmlns:xlink="http://www.w3.org/1999/xlink" width="64" height="64"><defs><linearGradient id="c"><stop offset="0" stop-color="#204a87"/><stop offset="1" stop-color="#3465a4"/></linearGradient><linearGradient id="b"><stop offset="0" stop-color="#3465a4"/><stop offset="1" stop-color="#729fcf"/></linearGradient><linearGradient id="a"><stop offset="0" stop-color="#0044be"/><stop offset="1" stop-color="#2b90cc"/></linearGradient><linearGradient xlink:href="#b" id="d" x1="448.724" y1="115.006" x2="434.476" y2="78.006" gradientUnits="userSpaceOnUse"/><linearGradient xlink:href="#c" id="e" x1="444.654" y1="117.006" x2="429.388" y2="86.006" gradientUnits="userSpaceOnUse"/></defs><path d="M479.256 111.006l4.07 18-18.318-4-2.036-4 12.213-12z" fill="#fff" stroke="#0b1521" stroke-width="2.018" stroke-linejoin="round" transform="matrix(.9826 0 0 1 -413.913 -68.006)"/><path d="M17 3l-4 4 40 40c0-3 1-4 4-4z" fill="#729fcf"/><path d="M434.476 75.006l-6.106 6 40.709 40c0-3 3.053-6 6.106-6z" fill="url(#d)" transform="matrix(.9826 0 0 1 -413.913 -68.006)"/><path d="M428.37 81.006l-4.07 4 40.708 40c0-3 1.018-4 4.07-4z" fill="url(#e)" transform="matrix(.9826 0 0 1 -413.913 -68.006)"/><path d="M438.547 71.006l-4.07 4 40.708 40c0-3 1.018-4 4.071-4zM434.476 75.006l-6.106 6 40.709 40c0-3 3.053-6 6.106-6z" fill="none" stroke="#0b1521" stroke-width="2.018" stroke-linejoin="round" transform="matrix(.9826 0 0 1 -413.913 -68.006)"/><path d="M5 16l39 39.156" fill="none" stroke="#3465a4" stroke-width="2"/><path d="M428.37 81.006l-4.07 4 40.708 40c0-3 1.018-4 4.07-4z" fill="none" stroke="#0b1521" stroke-width="2.018" stroke-linejoin="round" transform="matrix(.9826 0 0 1 -413.913 -68.006)"/><path d="M479.256 122.006c-1.018 0-3.634 2.516-4.07 5l8.14 2-3.052-7h-1.018" fill="#0b1521" stroke="#0b1521" stroke-width="1.009" stroke-linejoin="round" transform="matrix(.9826 0 0 1 -413.913 -68.006)"/></svg>