<svg xmlns="http://www.w3.org/2000/svg" xmlns:xlink="http://www.w3.org/1999/xlink" width="64" height="64"><defs><filter id="g" x="-.153" width="1.305" y="-.147" height="1.295" color-interpolation-filters="sRGB"><feGaussianBlur stdDeviation="3.487"/></filter><filter id="h" x="-.133" width="1.266" y="-.172" height="1.344" color-interpolation-filters="sRGB"><feGaussianBlur stdDeviation="7.175"/></filter><linearGradient gradientTransform="translate(396.293 205.06) scale(.85064)" xlink:href="#a" id="f" x1="-206.699" y1="68.842" x2="-211.402" y2="7.711" gradientUnits="userSpaceOnUse"/><linearGradient id="a"><stop offset="0" stop-color="#a40000"/><stop offset="1" stop-color="#ef2929"/></linearGradient><linearGradient id="b"><stop offset="0" stop-color="#204a87"/><stop offset="1" stop-color="#729fcf"/></linearGradient><linearGradient y2="26.521" x2="-157.325" y1="58.262" x1="-146.745" gradientTransform="matrix(.85868 0 0 .85868 379.018 208.229)" gradientUnits="userSpaceOnUse" id="e" xlink:href="#b"/><linearGradient id="c"><stop offset="0" stop-color="#d3d7cf"/><stop offset="1" stop-color="#fff"/></linearGradient><linearGradient y2="993.362" x2="81" y1="1047.362" x1="98" gradientTransform="translate(-60 -540.362)" gradientUnits="userSpaceOnUse" id="d" xlink:href="#c"/></defs><path d="M11 451v58h42v-48l-10-10z" fill="url(#d)" stroke="#2e3436" stroke-width="2" stroke-linejoin="round" transform="translate(0 -448)"/><path d="M13 5v54h38V13.814L41.997 5z" fill="none" stroke="#fff" stroke-width="2"/><path d="M43 3v10h10z" fill="#2e3436" fill-opacity=".392" stroke="#2e3436" stroke-width="2" stroke-linejoin="round"/><path d="M260.916 228.675l-6.181 3.546-2.73-.947-2.604-6.655-4.096.215-1.869 6.882-2.615 1.253-6.522-2.854-2.755 3.062 3.546 6.18-.969 2.722-6.655 2.604.237 4.105 6.882 1.868 1.252 2.615-2.875 6.515 3.062 2.755 6.18-3.547 2.744.977 2.582 6.648 4.126-.23 1.847-6.89 2.615-1.252 6.536 2.883 2.755-3.06-3.546-6.182.955-2.751 6.648-2.583-.208-4.118-6.89-1.847-1.252-2.615 2.861-6.544-3.061-2.755zm-9.257 10.136l1.269.736 1.099.997.88 1.19.633 1.322.372 1.426.062 1.46-.211 1.461-.482 1.387-.766 1.283-.967 1.085-1.189.88-1.322.633-1.426.372-1.47.084-1.46-.21-1.386-.483-1.283-.766-1.077-.988-.889-1.168-.633-1.322-.364-1.448-.083-1.469.21-1.46.482-1.387.758-1.26.975-1.108 1.19-.88 1.322-.633 1.448-.365 1.46-.061 1.461.21 1.387.482z" style="marker:none" fill="url(#e)" fill-rule="evenodd" stroke="#000137" stroke-width="2" stroke-linecap="round" stroke-linejoin="round" overflow="visible" enable-background="accumulate" transform="translate(-110.433 -106.949) scale(.59317)"/><path d="M44.204 30.129l-3.422 1.96-2.58-.928-1.503-3.638-.726.039-1.045 3.827-2.519 1.149-3.567-1.55-.478.546 1.97 3.46-.987 2.528-3.6 1.436.041.773 3.798 1.041 1.178 2.519-1.572 3.563.528.458 3.384-1.932 2.72.954 1.339 3.615.727-.009 1.058-3.802 2.471-1.235 3.727 1.595.45-.48-1.97-3.374.846-2.65 3.7-1.471-.025-.761-3.755-.963-1.244-2.547 1.574-3.646z" style="marker:none" fill="none" stroke="#729fcf" stroke-width="1.18634" stroke-linecap="round" stroke-linejoin="round" overflow="visible" enable-background="accumulate"/><path d="M42.634 38.718a5.692 5.692 0 1 1-11.385 0 5.692 5.692 0 0 1 11.385 0z" fill="none" stroke="#729fcf" stroke-width="1.1863707600000002" stroke-linecap="round" stroke-linejoin="round" stroke-dashoffset="6"/><path d="M211.466 208.619v58h12v-24h12v-12h-12v-10h20v-12z" style="marker:none" fill="url(#f)" fill-rule="evenodd" stroke="#280000" stroke-width="2" overflow="visible" enable-background="accumulate" transform="translate(-110.433 -106.949) scale(.59317)"/><path d="M16.19 17.984v32.032h4.745V35.78h7.118v-4.746h-7.118V22.73h11.863v-4.746z" style="marker:none" fill="none" stroke="#ef2929" stroke-width="1.18634" overflow="visible" enable-background="accumulate"/></svg>