<svg xmlns="http://www.w3.org/2000/svg" xmlns:xlink="http://www.w3.org/1999/xlink" width="64" height="64"><defs><linearGradient id="c"><stop offset="0" stop-color="#204a87"/><stop offset="1" stop-color="#729fcf"/></linearGradient><linearGradient id="b"><stop offset="0" stop-color="#a40000"/><stop offset="1" stop-color="#ef2929"/></linearGradient><linearGradient id="a"><stop offset="0" stop-color="#ff390f"/><stop offset="1" stop-color="#ff1000"/></linearGradient><linearGradient xlink:href="#b" id="g" x1="-206.699" y1="68.842" x2="-211.402" y2="7.711" gradientUnits="userSpaceOnUse"/><linearGradient xlink:href="#c" id="f" x1="-146.745" y1="58.262" x2="-157.325" y2="26.521" gradientUnits="userSpaceOnUse" gradientTransform="matrix(1.00945 0 0 1.00945 -20.308 3.726)"/><linearGradient id="d"><stop offset="0" stop-color="#204a87"/><stop offset="1" stop-color="#729fcf"/></linearGradient><linearGradient id="e"><stop offset="0" stop-color="#204a87"/><stop offset="1" stop-color="#729fcf"/></linearGradient></defs><path style="marker:none" d="M-159.147 27.763l-7.266 4.168-3.209-1.113-3.061-7.824-4.816.253-2.197 8.09-3.074 1.473-7.667-3.354-3.24 3.598 4.17 7.267-1.14 3.199-7.823 3.061.278 4.826 8.09 2.196 1.473 3.074-3.38 7.659 3.599 3.238 7.266-4.169 3.225 1.149 3.036 7.815 4.85-.27 2.172-8.1 3.074-1.472 7.684 3.39 3.239-3.6-4.17-7.266 1.124-3.234 7.814-3.036-.243-4.841-8.1-2.171-1.473-3.074 3.364-7.694-3.599-3.238zm-10.882 11.915l1.491.866 1.292 1.172 1.035 1.398.744 1.555.438 1.675.072 1.718-.248 1.717-.566 1.63-.9 1.508-1.137 1.276-1.398 1.035-1.555.744-1.676.438-1.727.098-1.717-.248-1.63-.566-1.508-.901-1.267-1.162-1.044-1.373-.744-1.555-.428-1.701-.098-1.727.248-1.717.566-1.63.891-1.483 1.146-1.301 1.398-1.035 1.555-.744 1.702-.428 1.717-.073 1.717.248 1.63.566z" fill="url(#f)" fill-rule="evenodd" stroke="#000137" stroke-width="2.351" stroke-linecap="round" stroke-linejoin="round" overflow="visible" transform="translate(187.827 -.56) scale(.85064)"/><path style="marker:none" d="M52.229 25.474l-5.77 3.304-4.35-1.564-2.532-6.134-1.224.067-1.762 6.451-4.247 1.937-6.013-2.614-.806.922 3.322 5.833-1.665 4.262-6.07 2.42.07 1.304 6.404 1.755 1.985 4.246-2.65 6.006.89.773 5.704-3.256 4.588 1.607 2.256 6.094 1.226-.014 1.783-6.41 4.166-2.082 6.284 2.689.757-.81-3.321-5.688 1.426-4.466 6.24-2.48-.043-1.284-6.33-1.623-2.098-4.294 2.653-6.146z" fill="none" stroke="#729fcf" stroke-width="1.99985464" stroke-linecap="round" stroke-linejoin="round" overflow="visible"/><path d="M49.582 39.954a9.596 9.596 0 1 1-19.193 0 9.596 9.596 0 0 1 19.193 0z" fill="none" stroke="#729fcf" stroke-width="2.0000312399999998" stroke-linecap="round" stroke-linejoin="round" stroke-dashoffset="6"/><path style="marker:none" d="M-217.28 4.185v68.184h14.107V44.155h14.107V30.048h-14.107V18.292h23.512V4.185z" fill="url(#g)" fill-rule="evenodd" stroke="#280000" stroke-width="2.351" overflow="visible" transform="translate(187.827 -.56) scale(.85064)"/><path style="marker:none" d="M5 5v54h8V35h12v-8H13V13h20V5z" fill="none" stroke="#ef2929" stroke-width="1.99985464" overflow="visible"/></svg>