<svg xmlns="http://www.w3.org/2000/svg" xmlns:xlink="http://www.w3.org/1999/xlink" width="64" height="64"><defs><linearGradient id="b"><stop offset="0" stop-color="#c4a000"/><stop offset="1" stop-color="#edd400"/></linearGradient><linearGradient id="a"><stop offset="0" stop-color="#c4a000"/><stop offset="1" stop-color="#fce94f"/></linearGradient><linearGradient id="c"><stop offset="0" stop-color="#3465a4"/><stop offset="1" stop-color="#729fcf"/></linearGradient><linearGradient xlink:href="#a" id="e" x1="20.244" y1="37.588" x2="17.244" y2="27.588" gradientUnits="userSpaceOnUse" gradientTransform="translate(-1.244 -2.588)"/><linearGradient xlink:href="#b" id="g" x1="48.714" y1="45.586" x2="46.714" y2="34.586" gradientUnits="userSpaceOnUse" gradientTransform="translate(1.286 1.414)"/><linearGradient id="d"><stop offset="0" stop-color="#204a87"/><stop offset="1" stop-color="#3465a4"/></linearGradient><linearGradient xlink:href="#b" id="h" gradientUnits="userSpaceOnUse" gradientTransform="translate(-12.714 -17.586)" x1="48.714" y1="45.586" x2="46.714" y2="35.586"/><linearGradient xlink:href="#a" id="f" gradientUnits="userSpaceOnUse" gradientTransform="translate(-1.244 -2.588)" x1="27.244" y1="54.588" x2="22.244" y2="40.588"/></defs><g stroke-width="2"><path d="M9 35V21l14 5v14z" fill="url(#e)" stroke="#302b00" stroke-linejoin="round"/><path d="M9 49V35l28 10v14z" fill="url(#f)" stroke="#302b00" stroke-linejoin="round"/><path d="M37 59V45l18-17v13z" fill="url(#g)" stroke="#302b00" stroke-linejoin="round"/><path d="M9 21L29 5l13 5-19 16z" fill="#fce94f" stroke="#302b00" stroke-linejoin="round"/><path d="M11.008 47.606L11 38l24 8 .008 10.185z" fill="none" stroke="#fce94f"/><path d="M39.005 54.168L39 46l14-13.5.002 7.677z" fill="none" stroke="#edd400"/><path d="M23 40l19-17 13 5-18 17z" fill="#fce94f" stroke="#302b00" stroke-linejoin="round"/><path d="M23 40V26l19-16v13z" fill="url(#h)" stroke="#302b00" stroke-linejoin="round"/><path d="M25 36v-9l15-13v8z" fill="none" stroke="#edd400"/><path d="M11.008 33.606L11 24l10 3v10z" fill="none" stroke="#fce94f"/></g></svg>