<svg xmlns="http://www.w3.org/2000/svg" height="48" width="48" version="1" xmlns:xlink="http://www.w3.org/1999/xlink"><defs><radialGradient id="d" xlink:href="#a" gradientUnits="userSpaceOnUse" cy="486.65" cx="605.71" gradientTransform="matrix(-2.7744 0 0 1.9697 112.76 -872.89)" r="117.14"/><linearGradient id="a"><stop offset="0"/><stop stop-opacity="0" offset="1"/></linearGradient><radialGradient id="c" xlink:href="#a" gradientUnits="userSpaceOnUse" cy="486.65" cx="605.71" gradientTransform="matrix(2.7744 0 0 1.9697 -1891.6 -872.89)" r="117.14"/><linearGradient id="b" y2="609.51" gradientUnits="userSpaceOnUse" x2="302.86" gradientTransform="matrix(2.7744 0 0 1.9697 -1892.2 -872.89)" y1="366.65" x1="302.86"><stop stop-opacity="0" offset="0"/><stop offset=".5"/><stop stop-opacity="0" offset="1"/></linearGradient><radialGradient id="f" gradientUnits="userSpaceOnUse" cy="37.518" cx="20.706" gradientTransform="matrix(1.055 -.02735 .1777 1.1909 -3.572 -7.125)" r="30.905"><stop stop-color="#202020" offset="0"/><stop stop-color="#b9b9b9" offset="1"/></radialGradient><linearGradient id="g" y2="66.834" gradientUnits="userSpaceOnUse" x2="9.898" gradientTransform="matrix(1.5168 0 0 .70898 -.88 -1.318)" y1="13.773" x1="6.23"><stop stop-color="#fff" stop-opacity=".876" offset="0"/><stop stop-color="#fffffe" stop-opacity="0" offset="1"/></linearGradient><linearGradient id="i" y2="46.689" gradientUnits="userSpaceOnUse" x2="12.854" gradientTransform="matrix(1.3175 0 0 .81626 -.88 -1.318)" y1="32.567" x1="13.036"><stop stop-color="#fff" offset="0"/><stop stop-color="#fff" stop-opacity="0" offset="1"/></linearGradient><linearGradient id="e" y2="6.18" gradientUnits="userSpaceOnUse" x2="15.515" y1="31.368" x1="18.113"><stop stop-color="#424242" offset="0"/><stop stop-color="#777" offset="1"/></linearGradient><linearGradient id="h" y2="32.05" gradientUnits="userSpaceOnUse" x2="22.065" y1="36.988" x1="22.176"><stop stop-color="#6194cb" offset="0"/><stop stop-color="#729fcf" offset="1"/></linearGradient></defs><path opacity=".402" fill="url(#b)" d="M-1559.3-150.7h1339.6v478.36h-1339.6z" transform="matrix(.02262 0 0 .02087 43.383 36.37)"/><path opacity=".402" d="M-219.62-150.68v478.33c142.88.9 345.4-107.17 345.4-239.2 0-132.02-159.44-239.13-345.4-239.13z" fill="url(#c)" transform="matrix(.02262 0 0 .02087 43.383 36.37)"/><path opacity=".402" d="M-1559.3-150.68v478.33c-142.8.9-345.4-107.17-345.4-239.2 0-132.02 159.5-239.13 345.4-239.13z" fill="url(#d)" transform="matrix(.02262 0 0 .02087 43.383 36.37)"/><path stroke-linejoin="round" d="M4.522 38.687c.022.417.46.833.876.833h31.327c.416 0 .811-.416.789-.833l-.936-27.226c-.022-.417-.46-.833-.877-.833h-13.27c-.486 0-1.235-.316-1.402-1.107l-.612-2.893c-.155-.735-.882-1.038-1.298-1.038H4.34c-.416 0-.81.417-.789.833l.97 32.264z" stroke="url(#e)" stroke-linecap="round" fill="url(#f)"/><path opacity=".114" stroke-linejoin="round" d="M5.227 22.562h30.265M5.042 18.562H35.49M4.98 12.562h30.508M5.386 32.562h30.11M5.51 34.562h29.987M5.042 16.562H35.49M5.011 14.562H35.49M4.922 10.562h15.281M4.874 8.563h14.783M5.325 28.562h30.169M5.288 26.562h30.205M5.227 24.562h30.265M5.196 20.562h30.296M5.325 30.562h30.169M5.51 36.562h29.987" stroke="#000" stroke-linecap="round" fill="#729fcf"/><path opacity=".451" d="M6.068 38.864c.017.312-.18.52-.498.416-.318-.104-.537-.312-.553-.624L4.069 6.591c-.016-.312.165-.5.477-.5l14.422-.048c.313 0 .932.3 1.133 1.322l.574 2.816c-.427-.466-.419-.48-.638-1.157l-.406-1.26c-.219-.727-.698-.831-1.01-.831H5.733c-.312 0-.51.208-.493.52l.938 31.515-.11-.104z" display="block" fill="url(#g)"/><path fill-opacity=".508" d="M35.941 11.533c0-.1-.146-.257-.258-.257l-13.562-.002s.98.612 2.323.62l11.509.074c0-.22-.011-.266-.012-.435z" fill="#fff"/><path stroke-linejoin="round" d="M39.784 39.511c1.143-.044 1.963-1.097 2.047-2.321.791-11.549 1.659-21.232 1.659-21.232.072-.248-.168-.495-.48-.495H8.639L6.789 37.33c-.115.982-.467 1.804-1.55 2.183l34.545-.002z" display="block" stroke="#3465a4" fill="url(#h)"/><path opacity=".466" d="M9.62 16.464l32.791.065-1.574 20.002c-.084 1.071-.45 1.428-1.872 1.428-1.872 0-28.678-.032-31.395-.032.234-.321.334-.989.335-1.005L9.62 16.464z" stroke="url(#i)" stroke-linecap="round" fill="none"/><path d="M9.62 16.223L8.454 31.866s8.296-4.148 18.666-4.148 15.555-11.495 15.555-11.495H9.62z" fill-opacity=".089" fill-rule="evenodd" fill="#fff"/></svg>