<svg xmlns="http://www.w3.org/2000/svg" xmlns:xlink="http://www.w3.org/1999/xlink" width="64" height="64"><defs><linearGradient id="c"><stop offset="0" stop-color="#fff"/><stop offset="1" stop-color="#b8b8b8"/></linearGradient><linearGradient id="a"><stop offset="0"/><stop offset="1" stop-opacity="0"/></linearGradient><linearGradient id="b"><stop offset="0" stop-color="#9cbcde"/><stop offset="1" stop-color="#204a87"/></linearGradient><radialGradient xlink:href="#c" id="f" cx="-19.516" cy="16.856" fx="-19.516" fy="16.856" r="8.754" gradientTransform="matrix(4.446 0 0 6.8665 67.25 -104.668)" gradientUnits="userSpaceOnUse"/><linearGradient xlink:href="#d" id="e" x1="41.643" y1="58.786" x2="22.357" y2="7.357" gradientUnits="userSpaceOnUse"/><linearGradient id="d"><stop offset="0" stop-color="#3465a4"/><stop offset="1" stop-color="#729fcf" stop-opacity="0"/></linearGradient></defs><g stroke-linejoin="round"><path d="M61 32a29 29 0 1 1-58 0 29 29 0 1 1 58 0z" fill="#729fcf" stroke="#0b1521" stroke-width="2.00004023" stroke-linecap="round"/><path d="M62 32a30 30 0 1 1-60 0 30 30 0 1 1 60 0z" transform="matrix(.9 0 0 .9 3.2 3.2)" fill="url(#e)" stroke="#729fcf" stroke-width="2.222" stroke-linecap="round"/><path transform="matrix(1.68578 0 0 1.65664 66.554 1.644)" style="text-align:start;line-height:125%" d="M-20.25 5.662c-1.059 0-2.148.123-3.281.343-1.133.22-2.01.538-3.38 1a.135.135 0 0 0-.03 0 .135.135 0 0 0-.032.032.135.135 0 0 0-.031.03.136.136 0 0 0 0 .032.136.136 0 0 0 0 .031v5.157a.136.136 0 0 0 0 .03.136.136 0 0 0 0 .032c.008.012.019.023.031.031.009.012.02.023.031.032h.125c1.143-.72 1.863-1.268 2.91-1.625 1.049-.37 2.044-.563 2.938-.563.95 0 1.645.21 2.157.625.508.402.78.983.78 1.719 0 .48-.143.951-.437 1.437-.283.487-.74 1.244-1.375 1.807l-1.093.938c-1.202 1.08-1.78 1.991-2.166 2.719-.383.711-.36 1.231-.36 2.15v.812a.136.136 0 0 0 0 .031.136.136 0 0 0 0 .032c.01.012.02.022.032.03.008.013.019.023.031.032h.062l5.682-.028h.062a.135.135 0 0 0 .032-.031.135.135 0 0 0 .03-.032.136.136 0 0 0 0-.031.136.136 0 0 0 0-.031v-.75c0-.468.15-.577.376-.966.222-.39.708-.95 1.468-1.625l1.063-.937c1.067-.982 1.83-1.885 2.281-2.75.45-.874.688-2.087.688-3.182 0-2.126-.744-3.734-2.219-4.844-1.475-1.12-3.606-1.687-6.375-1.687z" font-size="34.153" font-weight="700" fill="url(#f)" stroke="#729fcf" stroke-width="1.197" font-family="Bitstream Vera Sans"/><path d="M27 43h10v10H27z" fill="#fff" stroke="#729fcf" stroke-width="2"/></g></svg>