<svg xmlns="http://www.w3.org/2000/svg" xmlns:xlink="http://www.w3.org/1999/xlink" width="64" height="64"><defs><linearGradient id="e"><stop offset="0" stop-color="#fff"/><stop offset=".379" stop-color="#fefefe"/><stop offset="1" stop-color="#1d1d1d"/></linearGradient><linearGradient id="d"><stop offset="0" stop-color="#fff"/><stop offset="1" stop-color="#fff" stop-opacity="0"/></linearGradient><linearGradient id="c"><stop offset="0" stop-color="#fff"/><stop offset="1" stop-color="#fff" stop-opacity=".165"/></linearGradient><linearGradient id="b"><stop offset="0"/><stop offset="1" stop-opacity="0"/></linearGradient><linearGradient id="a"><stop offset="0" stop-color="#d3e9ff"/><stop offset=".155" stop-color="#d3e9ff"/><stop offset=".75" stop-color="#4074ae"/><stop offset="1" stop-color="#36486c"/></linearGradient><linearGradient id="f"><stop offset="0"/><stop offset="1" stop-opacity="0"/></linearGradient><linearGradient id="g"><stop offset="0" stop-color="#d3e9ff"/><stop offset=".155" stop-color="#d3e9ff"/><stop offset=".75" stop-color="#4074ae"/><stop offset="1" stop-color="#36486c"/></linearGradient><linearGradient id="h"><stop offset="0" stop-color="#fff"/><stop offset="1" stop-color="#fff" stop-opacity="0"/></linearGradient><linearGradient id="i"><stop offset="0" stop-color="#4e9a06"/><stop offset="1" stop-color="#8ae234"/></linearGradient><linearGradient id="j"><stop offset="0" stop-color="#4e9a06"/><stop offset="1" stop-color="#8ae234"/></linearGradient><linearGradient id="k"><stop offset="0" stop-color="#fff"/><stop offset="1" stop-color="#fff" stop-opacity=".165"/></linearGradient><radialGradient xlink:href="#f" id="l" gradientUnits="userSpaceOnUse" gradientTransform="scale(1.64399 .60828)" cx="15.116" cy="63.965" fx="15.116" fy="63.965" r="12.289"/><radialGradient xlink:href="#g" id="m" gradientUnits="userSpaceOnUse" gradientTransform="matrix(1.3889 0 0 1.38893 -2.362 -18.302)" cx="18.248" cy="15.716" fx="18.248" fy="15.716" r="29.993"/><radialGradient xlink:href="#h" id="n" gradientUnits="userSpaceOnUse" gradientTransform="scale(1.17954 .8478)" cx="11.827" cy="10.476" fx="11.827" fy="10.476" r="32.665"/><linearGradient xlink:href="#i" id="r" gradientUnits="userSpaceOnUse" x1="31.576" y1="36.324" x2="14.566" y2="9.58"/><linearGradient xlink:href="#i" id="q" gradientUnits="userSpaceOnUse" x1="31.576" y1="36.324" x2="14.566" y2="9.58"/><linearGradient xlink:href="#i" id="p" gradientUnits="userSpaceOnUse" x1="31.576" y1="36.324" x2="14.566" y2="9.58"/><linearGradient xlink:href="#i" id="u" gradientUnits="userSpaceOnUse" x1="31.576" y1="36.324" x2="14.566" y2="9.58"/><linearGradient xlink:href="#i" id="t" gradientUnits="userSpaceOnUse" x1="31.576" y1="36.324" x2="14.566" y2="9.58"/><linearGradient xlink:href="#i" id="s" gradientUnits="userSpaceOnUse" x1="31.576" y1="36.324" x2="14.566" y2="9.58"/><linearGradient xlink:href="#i" id="x" gradientUnits="userSpaceOnUse" x1="31.576" y1="36.324" x2="14.566" y2="9.58"/><linearGradient xlink:href="#i" id="w" gradientUnits="userSpaceOnUse" x1="31.576" y1="36.324" x2="14.566" y2="9.58"/><linearGradient xlink:href="#i" id="v" gradientUnits="userSpaceOnUse" x1="31.576" y1="36.324" x2="14.566" y2="9.58"/><linearGradient xlink:href="#i" id="A" gradientUnits="userSpaceOnUse" x1="31.576" y1="36.324" x2="14.566" y2="9.58"/><linearGradient xlink:href="#i" id="z" gradientUnits="userSpaceOnUse" x1="31.576" y1="36.324" x2="14.566" y2="9.58"/><linearGradient xlink:href="#i" id="y" gradientUnits="userSpaceOnUse" x1="31.576" y1="36.324" x2="14.566" y2="9.58"/><linearGradient xlink:href="#i" id="D" gradientUnits="userSpaceOnUse" x1="31.576" y1="36.324" x2="14.566" y2="9.58"/><linearGradient xlink:href="#i" id="C" gradientUnits="userSpaceOnUse" x1="31.576" y1="36.324" x2="14.566" y2="9.58"/><linearGradient xlink:href="#i" id="B" gradientUnits="userSpaceOnUse" x1="31.576" y1="36.324" x2="14.566" y2="9.58"/><linearGradient xlink:href="#i" id="G" gradientUnits="userSpaceOnUse" x1="31.576" y1="36.324" x2="14.566" y2="9.58"/><linearGradient xlink:href="#i" id="F" gradientUnits="userSpaceOnUse" x1="31.576" y1="36.324" x2="14.566" y2="9.58"/><linearGradient xlink:href="#i" id="E" gradientUnits="userSpaceOnUse" x1="31.576" y1="36.324" x2="14.566" y2="9.58"/><linearGradient xlink:href="#i" id="J" gradientUnits="userSpaceOnUse" x1="31.576" y1="36.324" x2="14.566" y2="9.58"/><linearGradient xlink:href="#i" id="I" gradientUnits="userSpaceOnUse" x1="31.576" y1="36.324" x2="14.566" y2="9.58"/><linearGradient xlink:href="#i" id="H" gradientUnits="userSpaceOnUse" x1="31.576" y1="36.324" x2="14.566" y2="9.58"/><linearGradient xlink:href="#i" id="M" gradientUnits="userSpaceOnUse" x1="31.576" y1="36.324" x2="14.566" y2="9.58"/><linearGradient xlink:href="#i" id="L" gradientUnits="userSpaceOnUse" x1="31.576" y1="36.324" x2="14.566" y2="9.58"/><linearGradient xlink:href="#i" id="K" gradientUnits="userSpaceOnUse" x1="31.576" y1="36.324" x2="14.566" y2="9.58"/><linearGradient xlink:href="#i" id="P" gradientUnits="userSpaceOnUse" x1="31.576" y1="36.324" x2="14.566" y2="9.58"/><linearGradient xlink:href="#i" id="O" gradientUnits="userSpaceOnUse" x1="31.576" y1="36.324" x2="14.566" y2="9.58"/><linearGradient xlink:href="#i" id="R" gradientUnits="userSpaceOnUse" x1="31.576" y1="36.324" x2="14.566" y2="9.58"/><linearGradient xlink:href="#i" id="Q" gradientUnits="userSpaceOnUse" x1="31.576" y1="36.324" x2="14.566" y2="9.58"/><linearGradient xlink:href="#i" id="N" gradientUnits="userSpaceOnUse" x1="31.576" y1="36.324" x2="14.566" y2="9.58"/><linearGradient xlink:href="#i" id="U" gradientUnits="userSpaceOnUse" x1="31.576" y1="36.324" x2="14.566" y2="9.58"/><linearGradient xlink:href="#i" id="T" gradientUnits="userSpaceOnUse" x1="31.576" y1="36.324" x2="14.566" y2="9.58"/><linearGradient xlink:href="#i" id="W" gradientUnits="userSpaceOnUse" x1="31.576" y1="36.324" x2="14.566" y2="9.58"/><linearGradient xlink:href="#i" id="V" gradientUnits="userSpaceOnUse" x1="31.576" y1="36.324" x2="14.566" y2="9.58"/><linearGradient xlink:href="#i" id="S" gradientUnits="userSpaceOnUse" x1="31.576" y1="36.324" x2="14.566" y2="9.58"/><linearGradient xlink:href="#i" id="Z" gradientUnits="userSpaceOnUse" x1="31.576" y1="36.324" x2="14.566" y2="9.58"/><linearGradient xlink:href="#i" id="Y" gradientUnits="userSpaceOnUse" x1="31.576" y1="36.324" x2="14.566" y2="9.58"/><linearGradient xlink:href="#i" id="X" gradientUnits="userSpaceOnUse" x1="31.576" y1="36.324" x2="14.566" y2="9.58"/><linearGradient xlink:href="#i" id="ac" gradientUnits="userSpaceOnUse" x1="31.576" y1="36.324" x2="14.566" y2="9.58"/><linearGradient xlink:href="#i" id="ab" gradientUnits="userSpaceOnUse" x1="31.576" y1="36.324" x2="14.566" y2="9.58"/><linearGradient xlink:href="#i" id="aa" gradientUnits="userSpaceOnUse" x1="31.576" y1="36.324" x2="14.566" y2="9.58"/><linearGradient xlink:href="#i" id="o" gradientUnits="userSpaceOnUse" x1="31.576" y1="36.324" x2="14.566" y2="9.58"/><linearGradient xlink:href="#j" id="ag" gradientUnits="userSpaceOnUse" x1="29.358" y1="38.553" x2="21.962" y2="14.78"/><linearGradient xlink:href="#j" id="af" gradientUnits="userSpaceOnUse" x1="29.358" y1="38.553" x2="21.962" y2="14.78"/><linearGradient xlink:href="#j" id="ae" gradientUnits="userSpaceOnUse" x1="29.358" y1="38.553" x2="21.962" y2="14.78"/><linearGradient xlink:href="#j" id="aj" gradientUnits="userSpaceOnUse" x1="29.358" y1="38.553" x2="21.962" y2="14.78"/><linearGradient xlink:href="#j" id="ai" gradientUnits="userSpaceOnUse" x1="29.358" y1="38.553" x2="21.962" y2="14.78"/><linearGradient xlink:href="#j" id="ah" gradientUnits="userSpaceOnUse" x1="29.358" y1="38.553" x2="21.962" y2="14.78"/><linearGradient xlink:href="#j" id="am" gradientUnits="userSpaceOnUse" x1="29.358" y1="38.553" x2="21.962" y2="14.78"/><linearGradient xlink:href="#j" id="al" gradientUnits="userSpaceOnUse" x1="29.358" y1="38.553" x2="21.962" y2="14.78"/><linearGradient xlink:href="#j" id="ak" gradientUnits="userSpaceOnUse" x1="29.358" y1="38.553" x2="21.962" y2="14.78"/><linearGradient xlink:href="#j" id="ap" gradientUnits="userSpaceOnUse" x1="29.358" y1="38.553" x2="21.962" y2="14.78"/><linearGradient xlink:href="#j" id="ao" gradientUnits="userSpaceOnUse" x1="29.358" y1="38.553" x2="21.962" y2="14.78"/><linearGradient xlink:href="#j" id="an" gradientUnits="userSpaceOnUse" x1="29.358" y1="38.553" x2="21.962" y2="14.78"/><linearGradient xlink:href="#j" id="as" gradientUnits="userSpaceOnUse" x1="29.358" y1="38.553" x2="21.962" y2="14.78"/><linearGradient xlink:href="#j" id="ar" gradientUnits="userSpaceOnUse" x1="29.358" y1="38.553" x2="21.962" y2="14.78"/><linearGradient xlink:href="#j" id="aq" gradientUnits="userSpaceOnUse" x1="29.358" y1="38.553" x2="21.962" y2="14.78"/><linearGradient xlink:href="#j" id="av" gradientUnits="userSpaceOnUse" x1="29.358" y1="38.553" x2="21.962" y2="14.78"/><linearGradient xlink:href="#j" id="au" gradientUnits="userSpaceOnUse" x1="29.358" y1="38.553" x2="21.962" y2="14.78"/><linearGradient xlink:href="#j" id="at" gradientUnits="userSpaceOnUse" x1="29.358" y1="38.553" x2="21.962" y2="14.78"/><linearGradient xlink:href="#j" id="ay" gradientUnits="userSpaceOnUse" x1="29.358" y1="38.553" x2="21.962" y2="14.78"/><linearGradient xlink:href="#j" id="ax" gradientUnits="userSpaceOnUse" x1="29.358" y1="38.553" x2="21.962" y2="14.78"/><linearGradient xlink:href="#j" id="aw" gradientUnits="userSpaceOnUse" x1="29.358" y1="38.553" x2="21.962" y2="14.78"/><linearGradient xlink:href="#j" id="aB" gradientUnits="userSpaceOnUse" x1="29.358" y1="38.553" x2="21.962" y2="14.78"/><linearGradient xlink:href="#j" id="aA" gradientUnits="userSpaceOnUse" x1="29.358" y1="38.553" x2="21.962" y2="14.78"/><linearGradient xlink:href="#j" id="az" gradientUnits="userSpaceOnUse" x1="29.358" y1="38.553" x2="21.962" y2="14.78"/><linearGradient xlink:href="#j" id="aE" gradientUnits="userSpaceOnUse" x1="29.358" y1="38.553" x2="21.962" y2="14.78"/><linearGradient xlink:href="#j" id="aD" gradientUnits="userSpaceOnUse" x1="29.358" y1="38.553" x2="21.962" y2="14.78"/><linearGradient xlink:href="#j" id="aG" gradientUnits="userSpaceOnUse" x1="29.358" y1="38.553" x2="21.962" y2="14.78"/><linearGradient xlink:href="#j" id="aF" gradientUnits="userSpaceOnUse" x1="29.358" y1="38.553" x2="21.962" y2="14.78"/><linearGradient xlink:href="#j" id="aC" gradientUnits="userSpaceOnUse" x1="29.358" y1="38.553" x2="21.962" y2="14.78"/><linearGradient xlink:href="#j" id="aJ" gradientUnits="userSpaceOnUse" x1="29.358" y1="38.553" x2="21.962" y2="14.78"/><linearGradient xlink:href="#j" id="aI" gradientUnits="userSpaceOnUse" x1="29.358" y1="38.553" x2="21.962" y2="14.78"/><linearGradient xlink:href="#j" id="aL" gradientUnits="userSpaceOnUse" x1="29.358" y1="38.553" x2="21.962" y2="14.78"/><linearGradient xlink:href="#j" id="aK" gradientUnits="userSpaceOnUse" x1="29.358" y1="38.553" x2="21.962" y2="14.78"/><linearGradient xlink:href="#j" id="aH" gradientUnits="userSpaceOnUse" x1="29.358" y1="38.553" x2="21.962" y2="14.78"/><linearGradient xlink:href="#j" id="aO" gradientUnits="userSpaceOnUse" x1="29.358" y1="38.553" x2="21.962" y2="14.78"/><linearGradient xlink:href="#j" id="aN" gradientUnits="userSpaceOnUse" x1="29.358" y1="38.553" x2="21.962" y2="14.78"/><linearGradient xlink:href="#j" id="aM" gradientUnits="userSpaceOnUse" x1="29.358" y1="38.553" x2="21.962" y2="14.78"/><linearGradient xlink:href="#j" id="aR" gradientUnits="userSpaceOnUse" x1="29.358" y1="38.553" x2="21.962" y2="14.78"/><linearGradient xlink:href="#j" id="aQ" gradientUnits="userSpaceOnUse" x1="29.358" y1="38.553" x2="21.962" y2="14.78"/><linearGradient xlink:href="#j" id="aP" gradientUnits="userSpaceOnUse" x1="29.358" y1="38.553" x2="21.962" y2="14.78"/><linearGradient xlink:href="#j" id="ad" gradientUnits="userSpaceOnUse" x1="29.358" y1="38.553" x2="21.962" y2="14.78"/><radialGradient xlink:href="#k" id="aS" gradientUnits="userSpaceOnUse" gradientTransform="translate(-1.608 -17.514) scale(1.35825)" cx="15.601" cy="12.142" fx="15.601" fy="12.142" r="43.527"/></defs><path transform="matrix(1.38891 0 0 1.72676 -2.193 -16.955)" d="M45.053 38.909c0 4.128-9.045 7.475-20.203 7.475S4.647 43.037 4.647 38.909c0-4.129 9.045-7.476 20.203-7.476s20.203 3.347 20.203 7.476z" fill="url(#l)"/><path d="M58.695 14.317c0 14.875-12.059 26.933-26.932 26.933-14.874 0-26.932-12.058-26.932-26.933 0-14.874 12.058-26.932 26.932-26.932 14.873 0 26.932 12.058 26.932 26.932z" fill="url(#m)" stroke="#39396c" stroke-width="2" transform="translate(.169 15.615)"/><path transform="matrix(1.16105 0 0 1.38891 11.54 -2.688)" d="M30.709 15.271c0 5.133-5.79 9.293-12.93 9.293-7.141 0-12.93-4.16-12.93-9.293 0-5.133 5.789-9.293 12.93-9.293 7.14 0 12.93 4.16 12.93 9.293z" opacity=".422" fill="url(#n)"/><g transform="matrix(1.35214 0 0 1.3461 -1.764 -2.025)" style="marker:none" color="#000" fill="url(#o)" stroke="#172a04" stroke-width="1.466" stroke-linejoin="round" overflow="visible"><path style="marker:none" d="M44.071 20.714c0 .263 0 0 0 0l-.545.618c-.334-.394-.709-.725-1.09-1.07l-.835.122-.764-.863v1.068l.654.496.436.493.582-.658.436.823v.822l-.655.74-1.2.823-.907.907-.582-.66.29-.74-.58-.659-.982-2.098-.836-.945-.219.246.328 1.194.618.699c.352 1.017.7 1.99 1.164 2.963.718 0 1.394-.076 2.107-.166v.576l-.872 2.14-.8.903-.654 1.4v2.304l.219.906-.364.41-.8.494-.836.7.691.78-.945.825.181.533-1.418 1.606h-.944l-.8.494h-.51v-.659l-.216-1.318c-.282-.826-.574-1.646-.872-2.467 0-.605.036-1.205.072-1.81l.364-.823-.51-.988.038-1.357-.692-.782.346-1.13-.563-.639h-.982l-.327-.37-.982.618-.399-.454-.91.782c-.616-.7-1.235-1.399-1.853-2.098l-.726-1.729.654-.986-.363-.411.799-1.894c.656-.816 1.341-1.6 2.035-2.385l1.236-.33 1.381-.163.945.247 1.345 1.356.473-.534.653-.082 1.236.41h.946l.654-.575.29-.411-.654-.411-1.091-.082c-.303-.42-.584-.862-.944-1.235l-.364.164-.145 1.07-.655-.74-.144-.824-.727-.574h-.292l.728.822-.291.74-.581.165.363-.74-.655-.329-.58-.658-1.092.246-.145.328-.654.412-.363.906-.909.452-.4-.452h-.435v-1.482l.945-.494h.726l-.146-.575-.58-.576.98-.206.545-.617.436-.74h.8l-.218-.576.51-.33v.66l1.09.245 1.09-.904.072-.412.945-.658c-.342.043-.684.074-1.018.165v-.741l.363-.823h-.363l-.798.74-.22.412.22.576-.365.987-.58-.33-.509-.575-.8.576-.291-1.316 1.38-.905v-.494l.873-.576 1.381-.33.946.33 1.744.33-.436.492h-.945l.945.988.727-.823.22-.361s2.788 2.498 4.38 5.23c1.593 2.733 2.341 5.955 2.341 6.61z" fill="url(#r)" overflow="visible"/><path style="marker:none" d="M26.07 9.236l-.073.493.51.33.871-.576-.436-.494-.582.33-.29-.083" fill="url(#u)" overflow="visible"/><path style="marker:none" d="M26.87 5.863l-1.89-.74-2.18.246-2.69.74-.51.494 1.672 1.152v.658l-.654.658.873 1.73.58-.33.729-1.152c1.123-.347 2.13-.74 3.197-1.235l.873-2.22" fill="url(#x)" overflow="visible"/><path style="marker:none" d="M28.833 12.775l-.291-.741-.51.165.147.904.654-.328" fill="url(#A)" overflow="visible"/><path style="marker:none" d="M29.123 12.609l-.145.988.8-.165.58-.575-.508-.494c-.171-.455-.368-.88-.582-1.316h-.435v.493l.29.329v.74" fill="url(#D)" overflow="visible"/><path style="marker:none" d="M18.365 28.242l-.582-1.152-1.09-.247-.582-1.562-1.453.164-1.236-.904-1.309 1.151v.182c-.396-.115-.882-.13-1.235-.347l-.291-.822v-.906l-.872.082.218-1.727h-.51l-.507.658-.51.246-.727-.41-.073-.905.146-.988 1.09-.822h.873l.145-.494 1.09.246.8.988.145-1.646 1.382-1.152.508-1.234 1.018-.411.582-.822 1.308-.248.654-.987h-1.962l1.235-.576h.872l1.236-.412.146-.492-.437-.412-.509-.165.146-.493-.363-.74-.873.327.146-.657-1.018-.577-.8 1.398.073.494-.8.33-.509 1.07-.217-.987-1.382-.577-.218-.74 1.817-1.07.8-.74.073-.905-.436-.247-.582-.083-.363.906s-.608.119-.764.157c-1.996 1.84-6.03 5.81-6.966 13.307.037.173.679 1.181.679 1.181l1.526.904 1.527.413.654.823 1.018.74.581-.082.436.196v.133l-.581 1.563-.437.658.146.33-.363 1.233 1.308 2.386 1.308 1.153.582.822-.073 1.728.437.987-.437 1.892s-.034-.011.022.178c.056.19 2.329 1.451 2.473 1.344l.267-.205-.145-.41.581-.577.219-.576.945-.33.727-1.81-.218-.493.508-.74 1.09-.248.582-1.316-.145-1.645.872-1.234.146-1.235c-1.194-.591-2.378-1.2-3.562-1.81" fill="url(#G)" overflow="visible"/><path style="marker:none" d="M16.766 9.565l.726.494h.582v-.576l-.726-.33-.582.412" fill="url(#J)" overflow="visible"/><path style="marker:none" d="M14.876 8.907l-.364.905h.727l.364-.823c.314-.222.626-.445.945-.658l.727.247c.484.33.969.658 1.454.987l.727-.658-.8-.329-.364-.74-1.38-.165-.074-.412-.654.165-.29.576-.364-.74-.145.328.073.823-.582.494" fill="url(#M)" overflow="visible"/><path style="marker:none" d="M17.492 6.85l.364-.329.727-.165c.498-.242.998-.405 1.527-.576l-.29-.494-.939.135-.443.442-.731.106-.65.305-.316.153-.193.259.944.164" fill="url(#Z)" overflow="visible"/><path style="marker:none" d="M18.729 14.666l.436-.658-.655-.493.218 1.151" fill="url(#ac)" overflow="visible"/></g><g transform="matrix(1.35214 0 0 1.3461 -1.764 -1.896)" style="marker:none" color="#000" fill="url(#ad)" stroke-width="1.466" overflow="visible"><path style="marker:none" d="M44.071 20.714c0 .263 0 0 0 0l-.545.618c-.334-.394-.709-.725-1.09-1.07l-.835.122-.764-.863v1.068l.654.496.436.493.582-.658.436.823v.822l-.655.74-1.2.823-.907.907-.582-.66.29-.74-.58-.659-.982-2.098-.836-.945-.219.246.328 1.194.618.699c.352 1.017.7 1.99 1.164 2.963.718 0 1.394-.076 2.107-.166v.576l-.872 2.14-.8.903-.654 1.4v2.304l.219.906-.364.41-.8.494-.836.7.691.78-.945.825.181.533-1.418 1.606h-.944l-.8.494h-.51v-.659l-.216-1.318c-.282-.826-.574-1.646-.872-2.467 0-.605.036-1.205.072-1.81l.364-.823-.51-.988.038-1.357-.692-.782.346-1.13-.563-.639h-.982l-.327-.37-.982.618-.399-.454-.91.782c-.616-.7-1.235-1.399-1.853-2.098l-.726-1.729.654-.986-.363-.411.799-1.894c.656-.816 1.341-1.6 2.035-2.385l1.236-.33 1.381-.163.945.247 1.345 1.356.473-.534.653-.082 1.236.41h.946l.654-.575.29-.411-.654-.411-1.091-.082c-.303-.42-.584-.862-.944-1.235l-.364.164-.145 1.07-.655-.74-.144-.824-.727-.574h-.292l.728.822-.291.74-.581.165.363-.74-.655-.329-.58-.658-1.092.246-.145.328-.654.412-.363.906-.909.452-.4-.452h-.435v-1.482l.945-.494h.726l-.146-.575-.58-.576.98-.206.545-.617.436-.74h.8l-.218-.576.51-.33v.66l1.09.245 1.09-.904.072-.412.945-.658c-.342.043-.684.074-1.018.165v-.741l.363-.823h-.363l-.798.74-.22.412.22.576-.365.987-.58-.33-.509-.575-.8.576-.291-1.316 1.38-.905v-.494l.873-.576 1.381-.33.946.33 1.744.33-.436.492h-.945l.945.988.727-.823.22-.361s2.788 2.498 4.38 5.23c1.593 2.733 2.341 5.955 2.341 6.61z" fill="url(#ag)" overflow="visible"/><path style="marker:none" d="M26.07 9.236l-.073.493.51.33.871-.576-.436-.494-.582.33-.29-.083" fill="url(#aj)" overflow="visible"/><path style="marker:none" d="M26.87 5.863l-1.89-.74-2.18.246-2.69.74-.51.494 1.672 1.152v.658l-.654.658.873 1.73.58-.33.729-1.152c1.123-.347 2.13-.74 3.197-1.235l.873-2.22" fill="url(#am)" overflow="visible"/><path style="marker:none" d="M28.833 12.775l-.291-.741-.51.165.147.904.654-.328" fill="url(#ap)" overflow="visible"/><path style="marker:none" d="M29.123 12.609l-.145.988.8-.165.58-.575-.508-.494c-.171-.455-.368-.88-.582-1.316h-.435v.493l.29.329v.74" fill="url(#as)" overflow="visible"/><path style="marker:none" d="M18.365 28.242l-.582-1.152-1.09-.247-.582-1.562-1.453.164-1.236-.904-1.309 1.151v.182c-.396-.115-.882-.13-1.235-.347l-.291-.822v-.906l-.872.082.218-1.727h-.51l-.507.658-.51.246-.727-.41-.073-.905.146-.988 1.09-.822h.873l.145-.494 1.09.246.8.988.145-1.646 1.382-1.152.508-1.234 1.018-.411.582-.822 1.308-.248.654-.987h-1.962l1.235-.576h.872l1.236-.412.146-.492-.437-.412-.509-.165.146-.493-.363-.74-.873.327.146-.657-1.018-.577-.8 1.398.073.494-.8.33-.509 1.07-.217-.987-1.382-.577-.218-.74 1.817-1.07.8-.74.073-.905-.436-.247-.582-.083-.363.906s-.608.119-.764.157c-1.996 1.84-6.03 5.81-6.966 13.307.037.173.679 1.181.679 1.181l1.526.904 1.527.413.654.823 1.018.74.581-.082.436.196v.133l-.581 1.563-.437.658.146.33-.363 1.233 1.308 2.386 1.308 1.153.582.822-.073 1.728.437.987-.437 1.892s-.034-.011.022.178c.056.19 2.329 1.451 2.473 1.344l.267-.205-.145-.41.581-.577.219-.576.945-.33.727-1.81-.218-.493.508-.74 1.09-.248.582-1.316-.145-1.645.872-1.234.146-1.235c-1.194-.591-2.378-1.2-3.562-1.81" fill="url(#av)" overflow="visible"/><path style="marker:none" d="M16.766 9.565l.726.494h.582v-.576l-.726-.33-.582.412" fill="url(#ay)" overflow="visible"/><path style="marker:none" d="M14.876 8.907l-.364.905h.727l.364-.823c.314-.222.626-.445.945-.658l.727.247c.484.33.969.658 1.454.987l.727-.658-.8-.329-.364-.74-1.38-.165-.074-.412-.654.165-.29.576-.364-.74-.145.328.073.823-.582.494" fill="url(#aB)" overflow="visible"/><path style="marker:none" d="M17.492 6.85l.364-.329.727-.165c.498-.242.998-.405 1.527-.576l-.29-.494-.939.135-.443.442-.731.106-.65.305-.316.153-.193.259.944.164" fill="url(#aO)" overflow="visible"/><path style="marker:none" d="M18.729 14.666l.436-.658-.655-.493.218 1.151" fill="url(#aR)" overflow="visible"/></g><path d="M56.763 14.384c0 13.808-11.193 25.001-25 25.001s-25-11.193-25-25 11.193-25 25-25 25 11.193 25 25z" fill="none" stroke="url(#aS)" stroke-width="2" transform="translate(.169 15.615)"/><path d="M58.864 29.932c0 14.874-12.059 26.933-26.932 26.933C17.058 56.865 5 44.806 5 29.932 5 15.057 17.058 3 31.932 3c14.873 0 26.932 12.057 26.932 26.932z" fill="none" stroke="#39396c" stroke-width="2"/></svg>