<svg xmlns="http://www.w3.org/2000/svg" xmlns:xlink="http://www.w3.org/1999/xlink" width="64" height="64"><defs><linearGradient id="a"><stop offset="0" stop-color="#000f8a"/><stop offset="1" stop-color="#06f"/></linearGradient><linearGradient id="b"><stop offset="0" stop-color="#000f8a"/><stop offset="1" stop-color="#06f"/></linearGradient><linearGradient id="c"><stop offset="0"/><stop offset="1" stop-opacity="0"/></linearGradient><linearGradient xlink:href="#d" id="f" gradientUnits="userSpaceOnUse" gradientTransform="matrix(1.94554 0 0 1.94554 -47.998 -58.673)" x1="41.512" y1="26.272" x2="42.985" y2="49.46"/><linearGradient id="d"><stop offset="0" stop-color="#8ae234"/><stop offset="1" stop-color="#4e9a06"/></linearGradient><radialGradient r="10.319" fy="35.127" fx="23.071" cy="35.127" cx="23.071" gradientTransform="matrix(.91481 .01265 -.00822 .21356 2.254 27.189)" gradientUnits="userSpaceOnUse" id="e" xlink:href="#c"/></defs><path d="M33.278 34.94a10.32 2.32 0 1 1-20.638 0 10.32 2.32 0 1 1 20.638 0z" transform="matrix(2.90716 0 0 2.155 -34.745 -18.297)" opacity=".108" fill="url(#e)"/><g font-size="59.901" font-weight="700" stroke-width="1.876" font-family="Bitstream Vera Sans"><path d="M40.406 40.315V21.902H59.51V9.012H40.406V-9.402H27.034V9.012H7.93v12.89h19.104v18.413z" style="text-align:start;line-height:125%" fill="#8ae234" stroke="#172a04" stroke-linejoin="round" transform="matrix(1.04692 0 0 1.08615 -3.302 15.212)"/><path d="M38.496 38.474V20.06H57.6v-9.207H38.496V-7.56h-9.552v18.413H9.84v9.207h19.104v18.414h9.552z" style="text-align:start;line-height:125%" fill="url(#f)" stroke="#8ae234" transform="matrix(1.04692 0 0 1.08615 -3.302 15.212)"/></g></svg>