<svg xmlns="http://www.w3.org/2000/svg" xmlns:xlink="http://www.w3.org/1999/xlink" width="64" height="64"><defs><linearGradient id="a"><stop offset="0" stop-color="#555753"/><stop offset="1" stop-color="#d3d7cf"/></linearGradient><linearGradient xlink:href="#a" id="b" x1="32" y1="1046.362" x2="18" y2="994.362" gradientUnits="userSpaceOnUse"/></defs><g font-weight="400" letter-spacing="0" word-spacing="0" text-anchor="middle" stroke-width="2" font-family="sans-serif"><path style="text-align:center;line-height:125%" d="M31.697 1017.362c3.41 0 6.063-.46 7.958-1.382 2.977-1.447 4.466-4.089 4.466-7.853 0-3.79-1.583-6.343-4.75-7.66-1.787-.736-4.44-1.105-7.958-1.105H17v18zm2.72 24c4.954 0 8.486-1.395 10.597-4.185 1.326-1.763 1.841-2.707 1.841-5.207 0-4.212-1.787-7.857-5.657-9.384-2.057-.816-4.778-1.224-8.16-1.224H17v20zM9 991.362h25.619c6.983 0 11.95 2.027 14.9 6.08 1.732 2.396 2.598 5.16 2.598 8.292 0 3.659-1.069 6.66-3.207 9.002-1.11 1.237-2.707 2.369-4.79 3.395 3.058 1.132 5.345 2.409 6.86 3.83 2.68 2.527 4.02 6.015 4.02 10.463 0 3.738-1.204 7.12-3.613 10.147-3.6 4.527-9.325 6.791-17.174 6.791H9z" fill="url(#b)" stroke="#2e3436" transform="translate(0 -988.362)"/><path style="text-align:center;line-height:125%" d="M32 31c3.114 0 6-.144 10-2.5 3-2.644 4-4.996 4-8.5 0-3.53-1-7-4-9-1.631-.686-4.787-2-8-2H15v22zm-1.097 24c4.522 0 9.097 0 13.155-2.455C47 50 48.845 46.583 48.844 44.255c-.002-4.255-.844-9.77-7.75-12.25-1.879-.76-6.986-.89-10.073-1.008H15v24zM11 5h23.391c6.376 0 10.948 1.627 13.642 5.4 1.581 2.231 2 5.138 2 8.055 0 3.406-1.235 4.9-3.188 7.081-1.013 1.152-5.22 3.431-7.123 4.387 2.793 1.054 8.076 3.394 9.46 4.717C51.628 36.993 53 39.088 53 43.23c0 3.48-1.025 6.778-3.225 9.596C46.488 57.04 41.187 59 34.02 59H11z" fill="none" stroke="#d3d7cf"/></g></svg>