<svg xmlns="http://www.w3.org/2000/svg" xmlns:xlink="http://www.w3.org/1999/xlink" width="64" height="64"><defs><linearGradient id="a"><stop offset="0" stop-color="#555753"/><stop offset="1" stop-color="#d3d7cf"/></linearGradient><linearGradient xlink:href="#a" id="b" x1="34" y1="1046.362" x2="14" y2="994.362" gradientUnits="userSpaceOnUse"/></defs><g font-weight="400" letter-spacing="0" word-spacing="0" text-anchor="middle" stroke-width="2" font-family="sans-serif"><path style="text-align:center;line-height:125%" d="M17.031 991.362v34.923q0 6.154 2.386 10.231 3.538 6.154 11.927 6.154 10.059 0 13.677-6.654 1.948-3.615 1.948-9.73v-34.924H55v31.731q0 10.423-2.902 16.038-5.328 10.231-20.118 10.231t-20.078-10.23Q9 1033.515 9 1023.092v-31.73h8.031zm14.989 0z" fill="url(#b)" stroke="#2e3436" transform="translate(0 -988.362)"/><path style="text-align:center;line-height:125%" d="M15 5v32.515c0 3.82.548 7.954 2 10.485 3 6 7 8 15 8s13-3 15-8c1.186-2.244 2-6.69 2-10.485V5h4v29.542c0 6.47-.883 11.447-2.65 14.933C47.107 55.825 42 59 31.982 59 22 59 16.869 55.825 13.65 49.475 11.883 45.989 11 41.012 11 34.542V5z" fill="none" stroke="#d3d7cf"/></g></svg>