<svg xmlns="http://www.w3.org/2000/svg" xmlns:xlink="http://www.w3.org/1999/xlink" width="64" height="64"><defs><linearGradient id="f"><stop offset="0" stop-color="#956363"/><stop offset="1" stop-color="#ebe0a9"/></linearGradient><linearGradient id="e"><stop offset="0" stop-color="#956363"/><stop offset="1" stop-color="#d17878"/></linearGradient><linearGradient id="d"><stop offset="0"/><stop offset="1" stop-color="#f6f6f6" stop-opacity="0"/></linearGradient><linearGradient id="c"><stop offset="0" stop-color="#e3d328"/><stop offset="1" stop-color="#e1dec3"/></linearGradient><linearGradient id="b"><stop offset="0" stop-color="#ada9a9"/><stop offset="1" stop-color="#ada9a9" stop-opacity="0"/></linearGradient><linearGradient id="a"><stop offset="0" stop-color="#ada9a9"/><stop offset="1" stop-color="#ada9a9" stop-opacity="0"/></linearGradient><linearGradient id="g"><stop offset="0" stop-color="#ef2929"/><stop offset="1" stop-color="#a40000"/></linearGradient><linearGradient id="h"><stop offset="0" stop-color="#8ae234"/><stop offset="1" stop-color="#4e9a06"/></linearGradient><linearGradient id="i"><stop offset="0" stop-color="#babdb6"/><stop offset="1" stop-color="#555753"/></linearGradient><linearGradient id="j"><stop offset="0" stop-color="#babdb6"/><stop offset="1" stop-color="#d3d7cf"/></linearGradient><linearGradient xlink:href="#j" id="k" gradientUnits="userSpaceOnUse" gradientTransform="matrix(-.02478 1.15548 -1.23195 .36165 586.823 -278.334)" x1="196.709" y1="106.887" x2="190.709" y2="80.887"/><linearGradient xlink:href="#i" id="l" gradientUnits="userSpaceOnUse" gradientTransform="matrix(-.02478 1.15548 -1.23195 .36165 586.823 -278.334)" x1="214.709" y1="80.887" x2="218.709" y2="104.887"/></defs><g stroke="#271903"><path d="M485.773-12.474l5.573-31.489c-13.552 3.978-32.031 9.403-44.4 15.33l-15.527 39.005 7.392-2.17 4.977-3.758c14.585 4.904 29.567-8.68 41.985-16.918z" fill="#babdb6" stroke="#2e3436" stroke-width="2.379" stroke-linejoin="round" transform="matrix(.25567 -.81686 .87093 -.01752 -84.334 407.591)"/><path d="M431.419 10.372l4.63 12.419 7.392-2.17-4.63-12.42z" fill="#555753" stroke="#2e3436" stroke-width="2.379" stroke-linejoin="round" transform="matrix(.25567 -.81686 .87093 -.01752 -84.334 407.591)"/><path d="M448.418 16.863l-4.63-12.419-4.977 3.758 4.63 12.419z" fill="#d3d7cf" stroke="#2e3436" stroke-width="2.379" stroke-linejoin="round" transform="matrix(.25567 -.81686 .87093 -.01752 -84.334 407.591)"/><path d="M485.773-12.474c-12.418 8.239-27.4 21.822-41.985 16.918l4.63 12.42c14.586 4.903 29.567-8.68 41.986-16.919z" fill="#888a85" stroke="#2e3436" stroke-width="2.379" stroke-linejoin="round" transform="matrix(.25567 -.81686 .87093 -.01752 -84.334 407.591)"/><path d="M491.346-43.963l4.63 12.42-5.572 31.488-4.63-12.419z" fill="#d3d7cf" stroke="#2e3436" stroke-width="2.379" stroke-linejoin="round" transform="matrix(.25567 -.81686 .87093 -.01752 -84.334 407.591)"/><path d="M483.467-13.404l5.365-27.525c-12.373 3.633-28.913 8.474-40.206 13.87L435.164 6.976l3.08-.904 5.598-4.17c14.586 4.904 27.074-6.57 39.625-15.306z" fill="url(#k)" stroke="#d3d7cf" stroke-width="2.379" transform="matrix(.25567 -.81686 .87093 -.01752 -84.334 407.591)"/><path d="M484.23-9.036C471.813-.797 461.454 8.444 448 7.8l2.547 6.83c10.94 3.679 23.742-5.361 36.93-15.203z" fill="url(#l)" stroke="#babdb6" stroke-width="2.379" transform="matrix(.25567 -.81686 .87093 -.01752 -84.334 407.591)"/><path transform="matrix(.8 .19608 0 .9804 93.4 8)" d="M-78 39a15 15 0 0 1-15 15 15 15 0 0 1-15-15 15 15 0 0 1 15-15 15 15 0 0 1 15 15z" fill="#555753" stroke="#2e3436" stroke-width="2.258" stroke-linecap="round" stroke-dashoffset="1.6"/><path d="M461.157-2.951L469-32.81s17.385-6.048 14.196 9.611c-2.766 13.584-22.038 20.248-22.038 20.248z" fill="#edd400" stroke="#302b00" stroke-width="2.379" stroke-linecap="round" stroke-linejoin="round" stroke-dashoffset="1.6" transform="matrix(.25567 -.81686 .87093 -.01752 -84.334 407.591)"/><path d="M469.535 2.627c-4.977 3.757-13.626 7.444-18.504 6.58l1.133 4.26c4.878.865 13.502-1.667 18.48-5.424zM436.297 11.236l3.498 8.159-6.557 20.296-4.779-5.486z" fill="#edd400" stroke="#302b00" stroke-width="2.379" stroke-linejoin="round" transform="matrix(.25567 -.81686 .87093 -.01752 -84.334 407.591)"/><path d="M433.238 39.69l-4.927 1.447-4.78-5.486 4.928-1.446z" fill="#d3d7cf" stroke="#2e3436" stroke-width="2.379" stroke-linejoin="round" transform="matrix(.25567 -.81686 .87093 -.01752 -84.334 407.591)"/><g transform="matrix(1 0 0 1 -63.875 -32.736)" fill="#c00" stroke-width="2" stroke-linecap="round" stroke-linejoin="round"><rect transform="scale(-1 1) rotate(45)" ry="2" y="110.137" x="-19.971" height="6" width="36.77" stroke="#280000"/><rect transform="rotate(45)" ry="2" y="-4.586" x="94.752" height="6" width="36.77" stroke="#280000"/><rect transform="rotate(-45)" ry="0" y="112.147" x="-4.893" height="2" width="13" stroke="#c00"/></g><path d="M438.939 90.259l-11.52-7.525M455.304 101.058l-11.599-7.576M455.923 75.97l-1.782-1.17" fill="none" stroke="#ef2929" stroke-width="2.379" stroke-linecap="round" transform="matrix(.25567 -.81686 .87093 -.01752 -176.334 407.591)"/></g></svg>