<svg xmlns="http://www.w3.org/2000/svg" xmlns:xlink="http://www.w3.org/1999/xlink" width="48" height="48"><defs><linearGradient id="k"><stop offset="0" stop-color="#fff"/><stop offset="1" stop-color="#fff" stop-opacity="0"/></linearGradient><linearGradient id="j"><stop offset="0" stop-color="#7b7f7a"/><stop offset="1" stop-color="#7b7f7a" stop-opacity="0"/></linearGradient><linearGradient id="h"><stop offset="0" stop-color="#909090"/><stop offset="1" stop-color="#bebebe" stop-opacity="0"/></linearGradient><linearGradient id="g"><stop offset="0" stop-color="#585956"/><stop offset="1" stop-color="#bbbeb8"/></linearGradient><linearGradient id="f"><stop offset="0"/><stop offset="1" stop-opacity="0"/></linearGradient><linearGradient id="e"><stop offset="0" stop-color="#5b5b97"/><stop offset="1" stop-color="#1b1b43"/></linearGradient><linearGradient id="d"><stop offset="0" stop-color="#fff"/><stop offset="1" stop-color="#fcfcff" stop-opacity="0"/></linearGradient><linearGradient id="c"><stop offset="0"/><stop offset="1" stop-opacity="0"/></linearGradient><linearGradient id="b"><stop offset="0" stop-color="#fff"/><stop offset="1" stop-color="#fff" stop-opacity="0"/></linearGradient><linearGradient id="i"><stop offset="0" stop-color="#8f8f8f"/><stop offset="1" stop-color="#494949"/></linearGradient><linearGradient id="a"><stop offset="0" stop-color="#dde1d9"/><stop offset="1" stop-color="#cacdc6"/></linearGradient><linearGradient xlink:href="#a" id="p" gradientTransform="matrix(1.12986 0 0 .88506 2.875 1.57)" x1="8.612" y1="7.229" x2="34.784" y2="33.34" gradientUnits="userSpaceOnUse"/><linearGradient xlink:href="#b" id="t" gradientTransform="matrix(1.10807 0 0 .90247 5.5 3.875)" x1="17.698" y1="13.005" x2="34.975" y2="55.201" gradientUnits="userSpaceOnUse"/><radialGradient xlink:href="#c" id="l" gradientTransform="scale(1.9258 .51926)" cx="12.576" cy="67.502" fx="12.576" fy="67.502" r="8.766" gradientUnits="userSpaceOnUse"/><linearGradient gradientUnits="userSpaceOnUse" y2="26.729" x2="17.199" y1="1.654" x1="11.492" gradientTransform="matrix(1.23898 0 0 .89595 5.09 1.543)" id="u" xlink:href="#d"/><linearGradient gradientUnits="userSpaceOnUse" y2="8.867" x2="16.316" y1="32.622" x1="19.15" gradientTransform="matrix(1.17414 0 0 .94543 5.222 1.543)" id="r" xlink:href="#e"/><linearGradient gradientUnits="userSpaceOnUse" y2="162.451" x2="3.707" y1="171.291" x1="3.707" gradientTransform="matrix(5.70516 0 0 .17528 5.5 2.196)" id="s" xlink:href="#f"/><linearGradient gradientUnits="userSpaceOnUse" y2="64.893" x2="12.128" y1="53.535" x1="12.207" gradientTransform="matrix(1.81635 0 0 1.27893 2.5 -40.245)" id="o" xlink:href="#g"/><linearGradient gradientUnits="userSpaceOnUse" y2="3.845" x2="35.521" y1="3.938" x1="34.301" id="v" xlink:href="#h"/><linearGradient y2="3.845" x2="35.521" y1="3.938" x1="34.301" gradientUnits="userSpaceOnUse" id="w" xlink:href="#h"/><linearGradient y2="3.845" x2="35.521" y1="3.938" x1="34.301" gradientUnits="userSpaceOnUse" id="x" xlink:href="#h"/><linearGradient y2="3.845" x2="35.521" y1="3.938" x1="34.301" gradientUnits="userSpaceOnUse" id="y" xlink:href="#h"/><linearGradient y2="3.845" x2="35.521" y1="3.938" x1="34.301" gradientUnits="userSpaceOnUse" id="z" xlink:href="#h"/><linearGradient y2="31.246" x2="32.537" y1="5.382" x1="10.391" gradientTransform="matrix(1.1044 0 0 .90547 4.5 2.875)" gradientUnits="userSpaceOnUse" id="q" xlink:href="#i"/><linearGradient gradientUnits="userSpaceOnUse" y2="28.206" x2="-35.658" y1="33.416" x1="-35.658" id="m" xlink:href="#j"/><linearGradient gradientUnits="userSpaceOnUse" y2="30.962" x2="-35.075" y1="34.242" x1="-35.123" id="n" xlink:href="#k"/></defs><path style="marker:none" d="M41.1 35.051a16.882 4.552 0 1 1-33.764 0 16.882 4.552 0 1 1 33.765 0z" transform="matrix(1.05025 0 0 1.86789 -.946 -28.106)" opacity=".509" overflow="visible" fill-rule="evenodd" fill="url(#l)" color="#000"/><path style="marker:none" d="M33.77 37.795a9.394 3.94 0 1 1-18.79 0 9.394 3.94 0 1 1 18.79 0z" color="#000" fill="#adb0aa" fill-rule="evenodd" stroke="#4b4d4a" overflow="visible"/><path transform="matrix(.90237 0 0 .82765 56.552 12.868)" d="M-26.264 29.716a9.394 3.94 0 1 1-18.789 0 9.394 3.94 0 1 1 18.789 0z" style="marker:none" color="#000" fill="none" stroke="url(#m)" stroke-width="1.157" overflow="visible"/><path style="marker:none" d="M-26.264 29.716a9.394 3.94 0 1 1-18.789 0 9.394 3.94 0 1 1 18.789 0z" transform="matrix(.83755 0 0 .85266 54.178 11.006)" color="#000" fill="none" stroke="url(#n)" stroke-width="1.183" overflow="visible"/><path style="marker:none" color="#000" fill="url(#o)" fill-rule="evenodd" overflow="visible" d="M19.972 31.079h9.04v6.365h-9.04z"/><path style="marker:none" d="M7.58 4.57h33.59c.91 0 1.623.584 1.666 1.402l1.332 25.578c.058 1.118-.901 2.02-2.02 2.02H6.602c-1.119 0-2.078-.902-2.02-2.02L5.914 5.972c.04-.773.548-1.401 1.667-1.401z" color="#000" fill="url(#p)" fill-rule="evenodd" stroke="url(#q)" overflow="visible"/><path d="M8.91 7.18L7.669 29.227h31.65L37.985 7.274 8.91 7.181z" fill="url(#r)" fill-rule="evenodd" stroke="#000079" stroke-width=".5" stroke-linejoin="round"/><path d="M6.677 31.61h35.429" fill="none" stroke="url(#s)" stroke-width=".996" stroke-linecap="round" stroke-opacity=".248"/><path d="M7.415 5.581l33.845-.037c.284 0 .56.237.582.652L43.204 31c.058 1.057-.54 1.786-1.598 1.786H7.082c-1.059 0-1.593-.729-1.536-1.786L6.87 6.505c.039-.716.166-.923.545-.924z" style="marker:none" color="#000" fill="none" stroke="url(#t)" stroke-opacity=".701" overflow="visible"/><path d="M9.212 7.621l-.803 17.87C19.454 23.092 23.83 15 37.563 12.346l-.161-4.658-28.19-.066z" opacity=".531" fill="url(#u)" fill-rule="evenodd"/><path transform="matrix(1.33124 0 0 .65845 -5.92 5.729)" d="M35.62 3.938a.84.84 0 1 1-1.679 0 .84.84 0 1 1 1.68 0z" style="marker:none" color="#000" fill="url(#v)" fill-rule="evenodd" overflow="visible"/><path style="marker:none" d="M35.62 3.938a.84.84 0 1 1-1.679 0 .84.84 0 1 1 1.68 0z" transform="matrix(1.33124 0 0 .65845 -5.806 7.835)" color="#000" fill="url(#w)" fill-rule="evenodd" overflow="visible"/><path transform="matrix(1.33124 0 0 .65845 -5.692 9.835)" d="M35.62 3.938a.84.84 0 1 1-1.679 0 .84.84 0 1 1 1.68 0z" style="marker:none" color="#000" fill="url(#x)" fill-rule="evenodd" overflow="visible"/><path style="marker:none" d="M35.62 3.938a.84.84 0 1 1-1.679 0 .84.84 0 1 1 1.68 0z" transform="matrix(1.33124 0 0 .65845 -5.579 11.835)" color="#000" fill="url(#y)" fill-rule="evenodd" overflow="visible"/><path transform="matrix(1.33124 0 0 .65845 -5.465 13.835)" d="M35.62 3.938a.84.84 0 1 1-1.679 0 .84.84 0 1 1 1.68 0z" style="marker:none" color="#000" fill="url(#z)" fill-rule="evenodd" overflow="visible"/><path d="M22.5 30.193h.282c.083 0 .148.018.192.056.045.037.068.09.068.158 0 .07-.023.123-.068.16a.295.295 0 0 1-.192.056h-.112v.228h-.17v-.658m.17.123v.184h.094a.111.111 0 0 0 .076-.024.087.087 0 0 0 .027-.069c0-.029-.01-.052-.027-.068a.111.111 0 0 0-.076-.023h-.094m.792-.012a.141.141 0 0 0-.12.057.265.265 0 0 0-.043.161c0 .07.014.123.043.161a.141.141 0 0 0 .12.058c.052 0 .092-.02.12-.058a.265.265 0 0 0 .044-.16.265.265 0 0 0-.043-.162.142.142 0 0 0-.121-.057m0-.123c.106 0 .189.03.249.09.06.061.09.145.09.251a.34.34 0 0 1-.09.25.334.334 0 0 1-.249.092.335.335 0 0 1-.249-.091.34.34 0 0 1-.09-.25c0-.107.03-.19.09-.251s.143-.091.249-.091m.466.012h.19l.24.451v-.451h.16v.658h-.19l-.239-.452v.452h-.16v-.658m.662 0h.186l.15.234.15-.234h.186l-.25.38v.278h-.17v-.277l-.252-.381" font-size=".903" font-weight="700" fill="#4a4a4a" font-family="Bitstream Vera Sans"/></svg>