<svg xmlns="http://www.w3.org/2000/svg" xmlns:xlink="http://www.w3.org/1999/xlink" width="64" height="64"><defs><linearGradient id="c"><stop offset="0" stop-color="#f0f0ef"/><stop offset=".599" stop-color="#e8e8e8"/><stop offset=".828" stop-color="#fff"/><stop offset="1" stop-color="#d8d8d3"/></linearGradient><linearGradient id="d"><stop offset="0" stop-color="#fff"/><stop offset="1" stop-color="#fff" stop-opacity="0"/></linearGradient><linearGradient id="a"><stop offset="0" stop-color="#7c7c7c"/><stop offset="1" stop-color="#b8b8b8"/></linearGradient><linearGradient xlink:href="#a" id="v" x1="35.997" y1="40.458" x2="33.665" y2="37.771" gradientUnits="userSpaceOnUse" gradientTransform="translate(6.843 3.332)"/><linearGradient id="b"><stop offset="0" stop-color="#fff"/><stop offset="1" stop-color="#fff" stop-opacity="0"/></linearGradient><linearGradient xlink:href="#b" id="w" x1="33.396" y1="36.921" x2="34.17" y2="38.07" gradientUnits="userSpaceOnUse" gradientTransform="translate(6.939 3.13)"/><linearGradient xlink:href="#c" id="r" gradientUnits="userSpaceOnUse" gradientTransform="matrix(1.08428 0 0 .9876 -8.724 -4.892)" x1="22.308" y1="18.992" x2="35.785" y2="39.498"/><linearGradient xlink:href="#d" id="s" gradientUnits="userSpaceOnUse" gradientTransform="matrix(.982 0 0 .97002 -6.298 -4.179)" x1="26.076" y1="26.697" x2="30.811" y2="42.007"/><linearGradient xlink:href="#d" id="u" gradientUnits="userSpaceOnUse" gradientTransform="matrix(.96779 0 0 .97062 7.44 4.054)" x1="26.076" y1="26.697" x2="30.811" y2="42.007"/><linearGradient xlink:href="#c" id="t" gradientUnits="userSpaceOnUse" gradientTransform="matrix(1.06724 0 0 .98928 5.073 3.334)" x1="22.308" y1="18.992" x2="35.785" y2="39.498"/><linearGradient id="e"><stop offset="0" stop-color="#ff6d0f"/><stop offset="1" stop-color="#ff1000"/></linearGradient><linearGradient id="f"><stop offset="0" stop-color="#71b2f8"/><stop offset="1" stop-color="#002795"/></linearGradient><linearGradient id="k"><stop offset="0"/><stop offset="1" stop-opacity="0"/></linearGradient><linearGradient id="m"><stop offset="0" stop-color="#fff"/><stop offset="1" stop-color="#fff" stop-opacity="0"/></linearGradient><linearGradient id="o"><stop offset="0" stop-color="#3465a4"/><stop offset=".333" stop-color="#5b86be"/><stop offset="1" stop-color="#83a8d8" stop-opacity="0"/></linearGradient><linearGradient id="n"><stop offset="0" stop-color="#3465a4"/><stop offset="1" stop-color="#3465a4" stop-opacity="0"/></linearGradient><linearGradient id="l"><stop offset="0" stop-color="#3465a4"/><stop offset="1" stop-color="#3465a4"/></linearGradient><linearGradient id="j"><stop offset="0" stop-color="#b9cfe7"/><stop offset="1" stop-color="#729fcf"/></linearGradient><linearGradient id="i"><stop offset="0" stop-color="#729fcf"/><stop offset="1" stop-color="#528ac5"/></linearGradient><linearGradient id="h"><stop offset="0" stop-color="#3977c3"/><stop offset="1" stop-color="#89aedc" stop-opacity="0"/></linearGradient><linearGradient id="g"><stop offset="0" stop-color="#c4d7eb"/><stop offset="1" stop-color="#c4d7eb" stop-opacity="0"/></linearGradient><linearGradient xlink:href="#o" id="H" gradientUnits="userSpaceOnUse" gradientTransform="translate(-63.782 5.305)" x1="13.479" y1="10.612" x2="15.419" y2="19.115"/><linearGradient xlink:href="#n" id="I" gradientUnits="userSpaceOnUse" gradientTransform="rotate(180 -8.36 25.715)" x1="37.128" y1="29.73" x2="37.065" y2="26.194"/><linearGradient xlink:href="#j" id="K" gradientUnits="userSpaceOnUse" x1="62.514" y1="36.061" x2="15.985" y2="20.609"/><linearGradient xlink:href="#l" id="L" gradientUnits="userSpaceOnUse" x1="46.835" y1="45.264" x2="45.38" y2="50.94"/><linearGradient xlink:href="#j" id="J" gradientUnits="userSpaceOnUse" x1="62.514" y1="36.061" x2="15.985" y2="20.609"/><linearGradient xlink:href="#m" id="M" gradientUnits="userSpaceOnUse" x1="5.965" y1="26.048" x2="52.854" y2="26.048"/><radialGradient xlink:href="#k" id="z" gradientUnits="userSpaceOnUse" gradientTransform="matrix(1 0 0 .53672 0 16.873)" cx="24.837" cy="36.421" fx="24.837" fy="36.421" r="15.645"/><linearGradient xlink:href="#g" id="A" gradientUnits="userSpaceOnUse" gradientTransform="translate(-64.248 5.583)" x1="32.648" y1="30.749" x2="37.124" y2="24.842"/><linearGradient xlink:href="#h" id="B" gradientUnits="userSpaceOnUse" gradientTransform="translate(-64.248 5.583)" x1="36.714" y1="31.456" x2="37.124" y2="24.842"/><linearGradient xlink:href="#i" id="E" gradientUnits="userSpaceOnUse" x1="18.936" y1="23.668" x2="53.589" y2="26.649"/><linearGradient xlink:href="#l" id="F" gradientUnits="userSpaceOnUse" x1="46.835" y1="45.264" x2="45.38" y2="50.94"/><linearGradient xlink:href="#i" id="C" gradientUnits="userSpaceOnUse" x1="18.936" y1="23.668" x2="53.589" y2="26.649"/><linearGradient xlink:href="#l" id="D" gradientUnits="userSpaceOnUse" x1="46.835" y1="45.264" x2="45.38" y2="50.94"/><linearGradient xlink:href="#m" id="G" gradientUnits="userSpaceOnUse" x1="5.965" y1="26.048" x2="52.854" y2="26.048"/><linearGradient id="p"><stop offset="0" stop-color="#a40000"/><stop offset="1" stop-color="#ef2929"/></linearGradient><linearGradient id="q"><stop offset="0" stop-color="#204a87"/><stop offset="1" stop-color="#729fcf"/></linearGradient><linearGradient xlink:href="#q" id="x" gradientUnits="userSpaceOnUse" gradientTransform="matrix(.85868 0 0 .85868 80.923 8.357)" x1="-146.745" y1="58.262" x2="-157.325" y2="26.521"/><linearGradient xlink:href="#p" id="y" gradientUnits="userSpaceOnUse" gradientTransform="translate(98.198 5.187) scale(.85064)" x1="-206.699" y1="68.842" x2="-211.402" y2="7.711"/></defs><g transform="matrix(1.3337 0 0 1.33251 .935 .917)" opacity=".5"><path style="marker:none" opacity=".17" color="#000" fill-rule="evenodd" overflow="visible" d="M20.162 34.033h13v2h-13z"/><rect ry=".566" rx=".576" y="1.563" x="1.548" height="35.977" width="31.491" fill="url(#r)" fill-rule="evenodd" stroke="#888a85" stroke-width="1.5"/><rect ry="0" rx="0" y="3.064" x="3.048" height="33.02" width="28.492" fill="none" stroke="url(#s)" stroke-width="1.5"/><path style="marker:none" opacity=".17" color="#000" fill-rule="evenodd" overflow="visible" d="M7.016 10.033h21v2h-21zM7.016 14.033h20v2h-20zM7.016 18.033h18v2h-18zM7.016 22.033h21v2h-21zM7.016 26.033h13v2h-13z"/></g><g transform="matrix(1.3533 0 0 1.3317 -1.532 -.05)"><path d="M15.754 9.8H45.61c.316 0 .57.252.57.567v27.167c0 2.477-6.88 8.303-9.268 8.303H15.754a.567.567 0 0 1-.57-.567V10.367c0-.315.254-.568.57-.568z" fill="url(#t)" fill-rule="evenodd" stroke="#888a85" stroke-width="1.49"/><rect ry="0" rx="0" y="11.301" x="16.65" height="33.041" width="28.079" fill="none" stroke="url(#u)" stroke-width="1.49"/><path d="M36.902 45.835c2.03.33 9.589-4.53 9.284-8.497-1.563 2.423-4.758 1.286-8.867 1.445 0 0 .395 6.552-.417 7.052z" style="marker:none" color="#000" fill="url(#v)" fill-rule="evenodd" stroke="#868a84" stroke-width="1.49" overflow="visible"/><path style="marker:none" d="M38.448 43.817c1.37-.684 4.429-2.147 5.728-4.028-1.596.68-2.948.21-5.702.19 0 0 .162 3.063-.026 3.838z" opacity=".369" color="#000" fill="none" stroke="url(#w)" stroke-width=".745" overflow="visible"/></g><path d="M-37.179 28.803l-6.181 3.547-2.73-.948-2.604-6.655-4.096.215-1.869 6.882-2.615 1.253-6.522-2.854-2.755 3.062 3.546 6.18-.969 2.722-6.655 2.604.237 4.105 6.882 1.868 1.252 2.615-2.875 6.515 3.062 2.755 6.18-3.547 2.744.978 2.582 6.647 4.127-.23 1.846-6.89 2.615-1.252 6.537 2.884 2.754-3.062-3.546-6.18.955-2.752 6.648-2.582-.207-4.119-6.89-1.846-1.253-2.615 2.861-6.545-3.061-2.755zm-9.257 10.136l1.269.737 1.099.996.88 1.19.633 1.322.372 1.426.062 1.46-.211 1.461-.482 1.387-.766 1.283-.966 1.085-1.19.88-1.322.633-1.426.373-1.469.083-1.46-.21-1.387-.482-1.283-.767-1.077-.988-.888-1.168-.634-1.322-.364-1.448-.083-1.469.21-1.46.482-1.387.758-1.26.975-1.108 1.19-.88 1.322-.633 1.448-.365 1.46-.061 1.461.21 1.387.482z" style="marker:none" fill="url(#x)" fill-rule="evenodd" stroke="#000137" stroke-width="4.154" stroke-linecap="round" stroke-linejoin="round" overflow="visible" transform="translate(68.707 16.789) scale(.48144)"/><path d="M-37.4 31.22l-5.77 3.305-4.35-1.564-2.532-6.134-1.224.067-1.763 6.451-4.246 1.937-6.014-2.614-.805.922 3.321 5.833-1.664 4.262-6.07 2.42.07 1.304 6.404 1.755 1.984 4.246-2.65 6.006.89.773 5.705-3.256 4.588 1.607 2.256 6.094 1.226-.014 1.783-6.41 4.166-2.082 6.284 2.689.756-.81-3.32-5.688 1.426-4.466 6.24-2.48-.043-1.284-6.33-1.623-2.098-4.294 2.653-6.146z" style="marker:none" fill="none" stroke="#729fcf" stroke-width="4.154" stroke-linecap="round" stroke-linejoin="round" overflow="visible" transform="translate(68.707 16.789) scale(.48144)"/><path transform="translate(22.936 17.48) scale(.5314)" d="M49.851 40.103a8.694 8.694 0 1 1-17.388 0 8.694 8.694 0 0 1 17.388 0z" fill="none" stroke="#729fcf" stroke-width="3.764" stroke-linecap="round" stroke-linejoin="round" stroke-dashoffset="6"/><path d="M-86.63 8.747v58h12v-24h12v-12h-12v-10h20v-12z" style="marker:none" fill="url(#y)" fill-rule="evenodd" stroke="#280000" stroke-width="4.154" overflow="visible" transform="translate(68.707 16.789) scale(.48144)"/><path d="M-84.63 10.747v54h8v-24h12v-8h-12v-14h20v-8z" style="marker:none" fill="none" stroke="#ef2929" stroke-width="4.154" overflow="visible" transform="translate(68.707 16.789) scale(.48144)"/><g stroke-width="1.329"><path style="marker:none" d="M40.482 36.421c0 4.638-7.005 8.397-15.645 8.397s-15.645-3.76-15.645-8.397c0-4.637 7.005-8.397 15.645-8.397s15.645 3.76 15.645 8.397z" transform="matrix(-1.13145 0 0 -.76045 55.693 85.5)" opacity=".383" color="#000" fill="url(#z)" fill-rule="evenodd" overflow="visible"/><path style="marker:none" d="M-35.873 39.02s8.938.625 6.188-9.875h7.776c0 1.503-.589 11.875-13.964 9.875z" color="#000" fill="url(#A)" stroke="url(#B)" stroke-width=".998" display="block" overflow="visible" transform="matrix(.7595 0 0 .7595 58.001 24.084)"/><path d="M44.307 50.23c18.514-14.411 5.358-36.818-21.845-37.732L22.4 3.069 7.794 20.424l14.668 12.582v-9.668c18.83.999 32.982 14.072 21.845 26.892z" style="marker:none" fill="url(#E)" stroke="url(#F)" display="block" overflow="visible" transform="matrix(.43979 .37157 .37157 -.43979 3.19 51.516)" color="#000" stroke-width="1.317"/><path d="M14.57 57.327l.047-11.298 9.826-.284-3.334 3.933 2.937 1.802c-2.278 1.71-3.455 1.84-4.214 3.786l-2.14-1.603-3.123 3.664z" style="marker:none" opacity=".272" color="#000" fill="#fff" overflow="visible"/><path style="marker:none" d="M51.09 45.944c9.12-15.22-4.458-33.743-31.605-33.995l.028-8.246L6.534 19.297l12.834 10.972.055-9.007c17.528-.224 35.195 10.103 31.667 24.682z" color="#000" stroke="url(#G)" display="block" overflow="visible" transform="matrix(.38623 .32632 .32632 -.38623 6.188 51.52)" opacity=".5" fill="none" stroke-width="1.499"/></g><g stroke-width="1.213"><path d="M-44.095 15.992s-8.937-.625-6.187 9.875h-7.688s.5-11.875 13.875-9.875z" style="marker:none" color="#000" fill="url(#H)" stroke="url(#I)" stroke-width=".911" display="block" overflow="visible" transform="matrix(.83233 0 0 .83233 60.68 -3.929)"/><path style="marker:none" d="M44.307 50.23c18.514-14.411 5.358-36.818-21.845-37.732l-.348-9.346-14.49 17.345 15.09 12.722-.252-9.881c18.83.999 32.982 14.072 21.845 26.892z" color="#000" fill="url(#K)" stroke="url(#L)" display="block" overflow="visible" transform="matrix(-.48196 -.4072 -.4072 .48196 54.577 11.847)" stroke-width="1.201"/><path d="M51.39 46.506c9.12-15.22-4.34-34.074-31.762-34.436l-.285-8.02L6.34 19.38 19.81 30.764l-.182-9.454c18.245.382 34.784 10.926 31.763 25.195z" style="marker:none" color="#000" stroke="url(#M)" display="block" overflow="visible" transform="matrix(-.42327 -.35761 -.35761 .42327 51.358 11.842)" opacity=".5" fill="none" stroke-width="1.368"/><path d="M12.875 14.451c2.99-8.69 13.686-5.114 16.802-3.745 3.475.176 4.723-2.36 7.491-2.497C25.474.06 13.187 2.799 12.875 14.45z" style="marker:none" opacity=".272" color="#000" fill="#fff" overflow="visible"/></g></svg>