<svg xmlns="http://www.w3.org/2000/svg" xmlns:xlink="http://www.w3.org/1999/xlink" width="64" height="64"><defs><linearGradient id="e"><stop offset="0" stop-color="#ef2929"/><stop offset="1" stop-color="#a40000"/></linearGradient><linearGradient id="f"><stop offset="0" stop-color="#fff"/><stop offset="1" stop-color="#fff" stop-opacity="0"/></linearGradient><linearGradient id="g"><stop offset="0" stop-color="#fff"/><stop offset="1" stop-color="#dbdbdb"/></linearGradient><linearGradient id="a"><stop offset="0"/><stop offset="1" stop-opacity="0"/></linearGradient><radialGradient xlink:href="#a" id="h" cx="25.125" cy="36.75" fx="25.125" fy="36.75" r="15.75" gradientTransform="matrix(1 0 0 .59524 0 14.875)" gradientUnits="userSpaceOnUse"/><linearGradient id="c"><stop offset="0" stop-color="#fff"/><stop offset="1" stop-color="#fff" stop-opacity="0"/></linearGradient><linearGradient id="d"><stop offset="0" stop-color="#c00"/><stop offset="1" stop-color="#b30000"/></linearGradient><linearGradient id="b"><stop offset="0" stop-color="#fff"/><stop offset="1" stop-color="#fff" stop-opacity="0"/></linearGradient><linearGradient xlink:href="#e" id="i" gradientUnits="userSpaceOnUse" gradientTransform="matrix(.98638 0 0 .98633 .27 -1.73)" x1="22.513" y1="5.458" x2="31.41" y2="42.531"/><radialGradient xlink:href="#g" id="j" gradientUnits="userSpaceOnUse" gradientTransform="matrix(1.0106 .8917 -1.12077 1.27021 23.902 -32.435)" cx="19.77" cy="24.319" fx="19.77" fy="24.319" r="12.302"/></defs><path style="marker:none" d="M40.875 36.75c0 5.178-7.052 9.375-15.75 9.375s-15.75-4.197-15.75-9.375 7.052-9.375 15.75-9.375 15.75 4.197 15.75 9.375z" transform="matrix(1.90476 0 0 .64 -15.857 34.48)" opacity=".631" color="#000" fill="url(#h)" fill-rule="evenodd" overflow="visible"/><g stroke-width="1.463"><path d="M15.648.728h16.853l12.646 12.915v17.65L32.671 43.144H15.478L2.73 30.482v-16.96L15.648.728z" fill="url(#i)" fill-rule="evenodd" stroke="#860000" stroke-linejoin="round" transform="matrix(1.36737 0 0 1.36737 -.733 2.005)"/><path d="M21.484 5h21.38L59 21.366v22.548L43.377 59H21.286L5 42.823V21.265L21.484 5z" fill="none" stroke="#ef2929" stroke-width="2.00046231"/><path d="M16.625 10.235l-4.388 4.388 7.314 7.313-7.314 7.314 4.388 4.388 7.314-7.314 7.313 7.314 4.388-4.388-7.313-7.314 7.313-7.313-4.388-4.388-7.313 7.313z" fill="url(#j)" fill-rule="evenodd" stroke="#ef2929" stroke-linecap="round" stroke-linejoin="round" transform="matrix(1.36737 0 0 1.36737 -.733 2.005)"/></g></svg>