<svg xmlns="http://www.w3.org/2000/svg" width="64" height="64"><path d="M51.322 57.302c-.937.217.418 1.143.621 1.666 2.591.198 2.6.258 4.35 0 1.612-.46 1.239-.653 1.14-1.583-4.147-.501-3.936-.111-6.111-.082zM32.184 29.33c.52-.864 2.185-2.18 3.919-1.799 7.99 4.572-11.403 12.118-16.858 16.473l-2.78 2.87 1.15 5.328 6.805.41c2.344-1.15 4.47-1.396 4.697.328l.288 3.197.862 2.05 3.93 1.721 3.163-.082 1.534-.492c1.191.444.966 1.061.383 1.722-5.148 1.191-6.86.65-9.489-.246-1.233-.603-1.245-.661-2.396-1.804-1.784-1.126-2.304-1.095-4.697-.164-1.7 2.329-4.162 3.237-8.884 2.393-5.19-.971-6.686-8.061-4.616-12.385 2.7-6.216 11.306-10.996 15.3-12.958 2.225-1.372 7.16-4.057 7.69-6.561z" fill="#47e611"/><path d="M33.807 19.545c4.249-.236 13.558 7.12 12.015 9.667.312 6.094-18.522 14.446-24.03 17.75-1.195 1.042-.86 2.003.208 2.333 3.507-1.389 3.698-.752 6.628-.666 1.803.437 2.065.285 4.35 1.75 1.145 1.531 1.221 2.156 1.865 3.333.716.922 1.389 1.184 2.486-.082 1.993-2.04 5.354-4.39 7.81-5.001 2.448-1.041 4.162-.166 5.506.995 1.705 2.097 1.061 3.106 3.091 4.338 1.57.637 1.76-1.089 2.519-1.756 1.553-1.667 2.404-3.146 4.308-2.652.943-.216 1.115 1.513 1.505 2.408-1.533 4.164-2.97 3.54-3.981 4.76-1.394 1.3-2.322 1.38-3.978 1.412-3.482-.35-5.107-.91-5.933-2.756-.56-2.657-1.561-2.152-2.668-.417-.862 2.117-3.761 4.301-6.004 5.086-2.508 1.18-4.968-.123-6.94-.667-5.12-1.757-2.995-3.165-4.66-5-4.898-1.488-5.614 2.03-8.908 2.583-6.384.851-5.757-6.737-4.35-8.916 1.242-1.669 3.778-4.205 4.764-4.834 5.449-4.11 20.436-11.205 16.676-15.5 2.224-2.11.502-6.334-2.279-8.167z" fill="#909d32"/><path d="M31.745 32.133h1.852M25.24 36.557h2.796M19.562 40.212l2.383-.082M14.018 44.714h2.486M10.626 49.71l2.379.081M10.143 53.972h2.493M10.924 57.722l4.563-.082M16.054 60.062l2.796-.083" fill="#909d32" stroke="#909d32" stroke-width="1.049" stroke-linecap="round"/><path d="M32.923 26.378c5.038-4.713 2.804-8.2-3.521-7.416-6.142 1.235-9.736 5.744-13.258 5.416-3.694.581-7.444-.774-10.771-.082-1.048.584-1.84 2.584-.415 3.167 3.79.661 7.673 1.116 11.186.667 4.416-.553 7.866-3.746 11.394-5.75 1.663-.601 3.438-.2 2.693 1-1.69 1.819-7.308 5.402-14.19 7-2.8.931-6.557-.6-10.461-.334-.733.835-1.73 2.682-.31 3.084 3.421.767 7.16.783 11.185.5 4.686-.823 13.696-3.736 16.468-7.25z" fill="#47e611"/><path d="M32.923 19.295c1.018-2.217 1.571-3.227.104-4.333-.888-.051-1.238.265-2.175-.5 2.214-2.541 2.313-6.429.829-9.5-1.848-2.302-4.99-3.253-7.665-2.917-1.065.74-2.393 1.213-3.004 1.333-.73-.226-1.337-.366-2.278-1.167-1.527-.6-4.102-.95-5.046.241-.709.465-.17 1.327.796 1.833 1.118-.98 4.066-.55 4.768.26 1.027.667 1.473 1.464 1.864 1.75.693-.118.826-1.437 1.45-1.667 2.233-.643 5.261-.489 6.11 1.084 1.725 2.712 1.862 6.153-.828 8.25-3.666.907-4.563 1-6.11.417l-1.554-1.667-.932 1.167c-2.377.64-3.581.585-5.668-.572-1.236-.714.071 3.729-8.73 3.822-1.267.151-2.198 4.284.312 7.166l5.178.334c7.092 1.26 9.39-.71 11.393-2.25 2.112-1.416 6.828-3.19 11.186-3.084z" fill="#909d32"/><path d="M8.789 20.298a1.656 1.003 0 1 1-3.313 0 1.656 1.003 0 1 1 3.313 0zM14.28 20.542a1.656 1.003 0 1 1-3.312 0 1.656 1.003 0 1 1 3.312 0z" fill="#fff"/><path d="M28.366 9.503a3.366 4.125 0 1 1-6.732 0 3.366 4.125 0 1 1 6.732 0zM20.391 9.045a3.418 4.167 0 1 1-6.836 0 3.418 4.167 0 1 1 6.836 0z" fill="#faf468"/><path d="M19.148 9.003a2.02 2.542 0 1 1-4.04 0 2.02 2.542 0 1 1 4.04 0zM26.916 9.128a1.968 2.5 0 1 1-3.936 0 1.968 2.5 0 1 1 3.936 0z" fill="#0208ff"/><path d="M65.108 409.916a7.308 12.623 0 1 1-14.616 0 7.308 12.623 0 1 1 14.616 0z" transform="matrix(.07795 0 0 .06272 2.162 -.122)" fill="#909d32" stroke="#909d32"/><path d="M65.108 409.916a7.308 12.623 0 1 1-14.616 0 7.308 12.623 0 1 1 14.616 0z" transform="matrix(.07795 0 0 .06272 9.775 .753)" fill="#909d32" stroke="#909d32"/><path d="M65.108 409.916a7.308 12.623 0 1 1-14.616 0 7.308 12.623 0 1 1 14.616 0z" transform="matrix(.07795 0 0 .06272 5.632 .587)" fill="#909d32" stroke="#909d32"/><path d="M65.108 409.916a7.308 12.623 0 1 1-14.616 0 7.308 12.623 0 1 1 14.616 0z" transform="matrix(.07795 0 0 .06272 14.125 -.247)" fill="#909d32" stroke="#909d32"/><path d="M65.108 409.916a7.308 12.623 0 1 1-14.616 0 7.308 12.623 0 1 1 14.616 0z" transform="matrix(.07795 0 0 .06272 18.682 -2.83)" fill="#909d32" stroke="#909d32"/><path d="M65.108 409.916a7.308 12.623 0 1 1-14.616 0 7.308 12.623 0 1 1 14.616 0z" transform="matrix(.07795 0 0 .06272 22.514 -4.497)" fill="#909d32" stroke="#909d32"/><path d="M65.108 409.916a7.308 12.623 0 1 1-14.616 0 7.308 12.623 0 1 1 14.616 0z" transform="matrix(.07795 0 0 .06272 25.725 .336)" fill="#909d32" stroke="#909d32"/><path d="M65.108 409.916a7.308 12.623 0 1 1-14.616 0 7.308 12.623 0 1 1 14.616 0z" transform="matrix(.07795 0 0 .06272 21.582 2.503)" fill="#909d32" stroke="#909d32"/><path d="M65.108 409.916a7.308 12.623 0 1 1-14.616 0 7.308 12.623 0 1 1 14.616 0z" transform="matrix(.07795 0 0 .06272 17.025 4.42)" fill="#909d32" stroke="#909d32"/><path d="M65.108 409.916a7.308 12.623 0 1 1-14.616 0 7.308 12.623 0 1 1 14.616 0z" transform="matrix(.07795 0 0 .06272 11.846 6.17)" fill="#909d32" stroke="#909d32"/><path d="M65.108 409.916a7.308 12.623 0 1 1-14.616 0 7.308 12.623 0 1 1 14.616 0z" transform="matrix(.10023 0 0 .06272 2.746 6.087)" fill="#909d32" stroke="#909d32"/><path d="M14.59 28.212c1.224.16 4.756-1.441 6.526-1.5-2.176 2.138-6.326 3.61-7.147 6.333-.322 1.675.26 3.031.933 3.667-.471.37-1.118 1.267-2.383 1-.758-.64-1.679-2.066-1.346-3.584-1.494 1.124-2.338 4.154-3.004 4.167-.833-.321-2.722-1.973-1.657-2.583.28-.688 2.322-2.407 3.004-3.5 1.96-2.156 3.175-2.869 5.075-4z" fill="#fd1019"/></svg>