<svg xmlns="http://www.w3.org/2000/svg" xmlns:xlink="http://www.w3.org/1999/xlink" width="48" height="48"><defs><linearGradient id="f"><stop offset="0" stop-color="#2e3436" stop-opacity=".652"/><stop offset="1" stop-color="#2e3436" stop-opacity=".913"/></linearGradient><linearGradient id="e"><stop offset="0" stop-opacity=".791"/><stop offset="1"/></linearGradient><linearGradient id="d"><stop offset="0" stop-opacity=".791"/><stop offset="1"/></linearGradient><linearGradient id="c"><stop offset="0" stop-opacity=".652"/><stop offset="1" stop-opacity=".678"/></linearGradient><linearGradient id="b"><stop offset="0" stop-opacity=".617"/><stop offset="1" stop-opacity=".783"/></linearGradient><linearGradient id="a"><stop offset="0" stop-opacity=".539"/><stop offset="1"/></linearGradient><linearGradient xlink:href="#a" id="g" x1="5.357" y1="26.786" x2="47.357" y2="26.786" gradientUnits="userSpaceOnUse"/><linearGradient xlink:href="#b" id="h" x1="13.071" y1="14.929" x2="17.786" y2="14.929" gradientUnits="userSpaceOnUse"/><linearGradient xlink:href="#c" id="j" x1="13.071" y1="14.929" x2="17.786" y2="14.929" gradientUnits="userSpaceOnUse"/><linearGradient xlink:href="#d" id="i" x1="13.071" y1="14.929" x2="17.786" y2="14.929" gradientUnits="userSpaceOnUse"/><linearGradient xlink:href="#e" id="k" x1="13.071" y1="14.929" x2="17.786" y2="14.929" gradientUnits="userSpaceOnUse"/><linearGradient xlink:href="#f" id="l" x1="4.196" y1="23.954" x2="42.997" y2="23.954" gradientUnits="userSpaceOnUse"/></defs><path d="M46 23.643a21.857 20.929 0 1 1 0-.062l-21.857.062z" fill="none"/><path d="M46.857 26.786a20.5 20.357 0 1 1-41 0 20.5 20.357 0 1 1 41 0z" transform="matrix(.80784 .4664 -.54707 .94755 16.936 -13.71)" fill="none" stroke="url(#g)"/><path d="M17.286 14.929a1.857 3.071 0 1 1-3.715 0 1.857 3.071 0 1 1 3.715 0z" transform="matrix(.93967 .54252 -.61123 1.05868 16.954 -12.062)" fill="none" stroke="url(#h)"/><path transform="matrix(.93967 .54252 -.61123 1.05868 30.102 -4.47)" d="M17.286 14.929a1.857 3.071 0 1 1-3.715 0 1.857 3.071 0 1 1 3.715 0z" fill="none" stroke="url(#i)"/><path transform="matrix(.93967 .54252 -.61123 1.05868 7.624 4.367)" d="M17.286 14.929a1.857 3.071 0 1 1-3.715 0 1.857 3.071 0 1 1 3.715 0z" fill="none" stroke="url(#j)"/><path d="M17.286 14.929a1.857 3.071 0 1 1-3.715 0 1.857 3.071 0 1 1 3.715 0z" transform="matrix(.93967 .54252 -.61123 1.05868 20.771 11.958)" fill="none" stroke="url(#k)"/><path d="M17.92 44.629C10.903 43.36 5.673 37.657 4.448 29.936c-.317-1.995-.205-5.738.233-7.784 1.396-6.528 5.36-12.322 10.877-15.895 1.871-1.212 4.53-2.302 6.913-2.836 1.913-.428 5.303-.47 7-.089 1.298.292 3.215.945 4.102 1.397 2.717 1.387 5.188 3.744 6.798 6.485 1.909 3.251 2.841 7.653 2.477 11.697-.976 10.85-8.961 20.016-18.931 21.728-1.564.269-4.48.264-5.997-.01zm8.163-4.77c1.904-.864 3.642-4.215 3.176-6.126-.265-1.09-.84-1.59-1.824-1.59-.847 0-1.474.293-2.321 1.086-2.273 2.126-2.894 5.826-1.129 6.733.502.258 1.4.214 2.098-.103zm-13.189-7.57c1.416-.686 2.774-2.589 3.156-4.422.425-2.036-.275-3.296-1.83-3.296-1.159 0-2.216.72-3.243 2.21-1.46 2.117-1.51 5.079-.095 5.65.528.213 1.407.15 2.012-.143zm22.444-8.845c1.746-.793 3.348-3.39 3.348-5.429 0-.815-.498-1.87-1-2.12-.51-.252-1.512-.222-2.122.063-.71.333-2.01 1.67-2.484 2.557-.8 1.498-1.012 3.298-.5 4.273.464.887 1.636 1.166 2.758.656zM22.23 15.857c1.702-.773 3.304-3.439 3.305-5.5 0-.704-.421-1.67-.867-1.98-.415-.292-1.535-.306-2.2-.028-1.206.504-2.626 2.351-3.128 4.07-.777 2.659.71 4.427 2.89 3.438z" fill="url(#l)" stroke="#000" stroke-width=".143"/></svg>