<svg xmlns="http://www.w3.org/2000/svg" width="64" height="64" version="1"><defs><linearGradient id="f"><stop offset="0" stop-color="#cabd55"/><stop offset="1" stop-color="#e3d032" stop-opacity=".06"/></linearGradient><linearGradient id="e"><stop offset="0"/><stop offset="1" stop-color="#fff" stop-opacity=".485"/></linearGradient><linearGradient id="b"><stop offset="0" stop-color="#babdb6"/><stop offset="1" stop-color="#555753"/></linearGradient><linearGradient id="a"><stop offset="0" stop-color="#f7f7f7"/><stop offset="1" stop-color="#ccd0c7"/></linearGradient><linearGradient id="c"><stop offset="0" stop-color="#fff"/><stop offset="1" stop-color="#fff" stop-opacity="0"/></linearGradient><linearGradient id="d"><stop offset="0"/><stop offset="1" stop-opacity="0"/></linearGradient><linearGradient id="g"><stop offset="0" stop-color="#31d900"/><stop offset="1" stop-color="#6dff00" stop-opacity=".991"/></linearGradient></defs><path d="M44.698 26.49c0 3.799-6.577 6.878-14.69 6.878-8.114 0-14.692-3.08-14.692-6.877 0-3.798 6.578-6.877 14.691-6.877 8.085 0 14.65 3.058 14.691 6.842" transform="matrix(.85576 0 0 .57327 5.854 9.223)" fill-opacity=".808" stroke="#000" stroke-width="1.683" stroke-linecap="round" stroke-linejoin="round"/><path d="M44.567 38.774c-1.629-1.363-6.434-4.91-.263-10.336l-.133-3.854c-3.201 5.038-20.223 5.715-25.275 0l.131 3.854c4.224 3.955 4.588 9.2.395 11.387l.263 4.205c8.058 3.954 17.998 3.5 24.947-.526z" fill-opacity=".807" stroke="#000" stroke-width=".972" stroke-linecap="round" stroke-linejoin="round"/><path d="M19.685 40c6.068 5.855 22.958 2.862 24.749-1.226M18.896 28.64c6.067 5.855 23.484 3.738 25.274-.35" fill="none" stroke="#000" stroke-width=".972"/><path d="M12.19 23.365c12.487-11.624 27.88-9.78 38.76.469l-.156 1.875c2.935.52 4.355 1.989 6.876 3.751-.906-6.014-2.24-7.152-5-10.158l-.313.937C42.469 8.91 24.575 5 9.534 19.614l-.47-.625c-1.777 3.897-3.378 6.782-2.656 11.096 2.396-2.865 3.126-4.167 6.72-5.47z" fill="#0000bd" stroke="#0000bd"/></svg>