<svg xmlns="http://www.w3.org/2000/svg" xmlns:xlink="http://www.w3.org/1999/xlink" width="64" height="64"><defs><linearGradient xlink:href="#a" id="h" x1="48.625" y1="22.875" x2="43.313" y2="11.187" gradientUnits="userSpaceOnUse"/><linearGradient id="a"><stop offset="0" stop-color="#888a85"/><stop offset="1" stop-color="#d3d7cf"/></linearGradient><linearGradient gradientTransform="translate(0 986.362)" xlink:href="#b" id="g" x1="38.244" y1="11.473" x2="35.803" y2="6.653" gradientUnits="userSpaceOnUse"/><linearGradient id="b"><stop offset="0" stop-color="#888a85"/><stop offset="1" stop-color="#d3d7cf"/></linearGradient><linearGradient gradientTransform="translate(0 986.362)" xlink:href="#c" id="f" x1="52.818" y1="28.469" x2="51.8" y2="20.9" gradientUnits="userSpaceOnUse"/><linearGradient id="c"><stop offset="0" stop-color="#555753"/><stop offset="1" stop-color="#babdb6"/></linearGradient><linearGradient id="d"><stop offset="0" stop-color="#8f5902"/><stop offset="1" stop-color="#e9b96e"/></linearGradient><linearGradient gradientTransform="translate(0 986.362)" y2="18.185" x2="29.677" y1="56.069" x1="34.949" gradientUnits="userSpaceOnUse" id="e" xlink:href="#d"/></defs><path d="M3 1039.362l36-36 6 6-36 36z" fill="url(#e)" stroke="#271903" stroke-width="2" stroke-linejoin="round" transform="translate(0 -988.362)"/><path d="M5.848 51l33.228-33.266 3.393 2.981-33.45 33.456z" fill="none" stroke="#e9b96e" stroke-width="2"/><path d="M53 1005.362c1 1 3 1 4 0l4 4-10 10-4-4c1-1 1-3 0-4z" fill="url(#f)" stroke="#2e3436" stroke-width="2" stroke-linejoin="round" transform="translate(0 -988.362)"/><path d="M49 996.362c-13-7-19-7-32 3 11-3 15-3 20 1z" fill="url(#g)" stroke="#2e3436" stroke-width="2" stroke-linejoin="round" transform="translate(0 -988.362)"/><path d="M46 9c-7.178-4.848-15.442-4.836-19.734-1.924 8.81-1.57 12.213 4.872 15.163 5.556z" fill="none" stroke="#d3d7cf" stroke-width="2" stroke-miterlimit="58.8"/><path d="M51.993 18.678c1.188.92 2.745 1.456 4.631.778l1.537 1.53-7.134 7.162-1.53-1.477c.61-1.349-.014-3.597-.813-4.638z" fill="none" stroke="#d3d7cf" stroke-width="2"/><path d="M55 16.5a8.5 8.5 0 1 1-17 0 8.5 8.5 0 1 1 17 0z" transform="matrix(.94118 0 0 .94118 1.235 -.53)" fill="url(#h)" stroke="#2e3436" stroke-width="2.125" stroke-linecap="round" stroke-linejoin="round" stroke-dashoffset="2.04"/><path d="M55 16.5a8.5 8.5 0 1 1-17 0 8.5 8.5 0 1 1 17 0z" transform="translate(12.176 3.353) scale(.70588)" fill="none" stroke="#d3d7cf" stroke-width="2.833" stroke-linecap="round" stroke-linejoin="round" stroke-dashoffset="2.04"/><g style="line-height:125%"><path d="M62.937 37.935c-2.6 1.12-4.04 3.28-4.04 5.92 0 4.32 3.2 7.36 7.96 7.36 4.72 0 7.96-3 7.96-7.28 0-2.76-1.44-4.92-4.08-6 2.52-1.2 3.84-3.16 3.84-5.72 0-3.84-3.12-6.92-7.72-6.92s-7.72 2.96-7.72 6.92c0 2.56 1.24 4.44 3.8 5.72m-.64-5.72c0-2.52 1.84-4.36 4.56-4.36 2.76 0 4.56 1.92 4.56 4.32 0 2.64-1.92 4.44-4.56 4.44-2.68 0-4.56-1.84-4.56-4.4m-.2 11.72c0-2.8 1.96-4.56 4.76-4.56s4.76 1.8 4.76 4.56-1.88 4.56-4.76 4.56c-2.92 0-4.76-1.96-4.76-4.56" style="-inkscape-font-specification:Courier 10 Pitch" font-family="Courier 10 Pitch" transform="matrix(1.12563 0 0 1.08025 -23.296 5.675)" font-size="40" font-weight="400" letter-spacing="0" word-spacing="0" fill="#d3d7cf" stroke="#2e3436" stroke-width="1.814"/></g></svg>