<svg xmlns="http://www.w3.org/2000/svg" xmlns:xlink="http://www.w3.org/1999/xlink" width="64" height="64"><defs><linearGradient xlink:href="#a" id="h" x1="48.625" y1="22.875" x2="43.313" y2="11.187" gradientUnits="userSpaceOnUse"/><linearGradient id="a"><stop offset="0" stop-color="#888a85"/><stop offset="1" stop-color="#d3d7cf"/></linearGradient><linearGradient gradientTransform="translate(0 986.362)" xlink:href="#b" id="g" x1="38.244" y1="11.473" x2="35.803" y2="6.653" gradientUnits="userSpaceOnUse"/><linearGradient id="b"><stop offset="0" stop-color="#888a85"/><stop offset="1" stop-color="#d3d7cf"/></linearGradient><linearGradient gradientTransform="translate(0 986.362)" xlink:href="#c" id="f" x1="52.818" y1="28.469" x2="51.8" y2="20.9" gradientUnits="userSpaceOnUse"/><linearGradient id="c"><stop offset="0" stop-color="#555753"/><stop offset="1" stop-color="#babdb6"/></linearGradient><linearGradient id="d"><stop offset="0" stop-color="#8f5902"/><stop offset="1" stop-color="#e9b96e"/></linearGradient><linearGradient gradientTransform="translate(0 986.362)" y2="18.185" x2="29.677" y1="56.069" x1="34.949" gradientUnits="userSpaceOnUse" id="e" xlink:href="#d"/></defs><path d="M3 1039.362l36-36 6 6-36 36z" fill="url(#e)" stroke="#271903" stroke-width="2" stroke-linejoin="round" transform="translate(0 -988.362)"/><path d="M5.848 51l33.228-33.266 3.393 2.981-33.45 33.456z" fill="none" stroke="#e9b96e" stroke-width="2"/><path d="M53 1005.362c1 1 3 1 4 0l4 4-10 10-4-4c1-1 1-3 0-4z" fill="url(#f)" stroke="#2e3436" stroke-width="2" stroke-linejoin="round" transform="translate(0 -988.362)"/><path d="M49 996.362c-13-7-19-7-32 3 11-3 15-3 20 1z" fill="url(#g)" stroke="#2e3436" stroke-width="2" stroke-linejoin="round" transform="translate(0 -988.362)"/><path d="M46 9c-7.178-4.848-15.442-4.836-19.734-1.924 8.81-1.57 12.213 4.872 15.163 5.556z" fill="none" stroke="#d3d7cf" stroke-width="2" stroke-miterlimit="58.8"/><path d="M51.993 18.678c1.188.92 2.745 1.456 4.631.778l1.537 1.53-7.134 7.162-1.53-1.477c.61-1.349-.014-3.597-.813-4.638z" fill="none" stroke="#d3d7cf" stroke-width="2"/><path d="M55 16.5a8.5 8.5 0 1 1-17 0 8.5 8.5 0 1 1 17 0z" transform="matrix(.94118 0 0 .94118 1.235 -.53)" fill="url(#h)" stroke="#2e3436" stroke-width="2.125" stroke-linecap="round" stroke-linejoin="round" stroke-dashoffset="2.04"/><path d="M55 16.5a8.5 8.5 0 1 1-17 0 8.5 8.5 0 1 1 17 0z" transform="translate(12.176 3.353) scale(.70588)" fill="none" stroke="#d3d7cf" stroke-width="2.833" stroke-linecap="round" stroke-linejoin="round" stroke-dashoffset="2.04"/><g style="line-height:125%"><path d="M63.884 38.534c2.72-.96 3.96-2.72 3.96-5.44 0-3.48-2.88-6.4-7.08-6.4-3.96 0-7.04 2.24-7.04 3.56 0 .72.56 1.24 1.28 1.24 1.2 0 2.68-2.08 5.56-2.08 2.32 0 4.04 1.72 4.04 4.24 0 1.92-1.36 3.4-3.4 3.72-2.04.32-2.64.04-2.64 1.48 0 1.72 1.04 1.16 3.04 1.52 2.36.44 3.76 2.16 3.76 4.48 0 2.76-2.08 4.76-5.24 4.76-3.12 0-5.12-2-6.28-2-.8 0-1.44.56-1.44 1.36 0 1.76 3.44 3.64 7.6 3.64 5.24 0 8.68-3.32 8.68-7.76 0-3.16-1.72-5.48-4.8-6.32" style="-inkscape-font-specification:Courier 10 Pitch" font-family="Courier 10 Pitch" transform="matrix(1.10565 0 0 1.08025 -14.94 4.164)" font-size="40" font-weight="400" letter-spacing="0" word-spacing="0" fill="#d3d7cf" stroke="#2e3436" stroke-width="1.83"/></g></svg>