<svg xmlns="http://www.w3.org/2000/svg" xmlns:xlink="http://www.w3.org/1999/xlink" width="64" height="64"><defs><radialGradient xlink:href="#a" id="l" gradientUnits="userSpaceOnUse" gradientTransform="matrix(-2.77439 0 0 1.9697 112.762 -872.885)" cx="605.714" cy="486.648" fx="605.714" fy="486.648" r="117.143"/><linearGradient id="a"><stop offset="0"/><stop offset="1" stop-opacity="0"/></linearGradient><radialGradient xlink:href="#a" id="k" gradientUnits="userSpaceOnUse" gradientTransform="matrix(2.77439 0 0 1.9697 -1891.633 -872.885)" cx="605.714" cy="486.648" fx="605.714" fy="486.648" r="117.143"/><linearGradient id="b"><stop offset="0" stop-opacity="0"/><stop offset=".5"/><stop offset="1" stop-opacity="0"/></linearGradient><linearGradient xlink:href="#b" id="j" gradientUnits="userSpaceOnUse" gradientTransform="matrix(2.77439 0 0 1.9697 -1892.179 -872.885)" x1="302.857" y1="366.648" x2="302.857" y2="609.505"/><linearGradient id="g"><stop offset="0" stop-color="#fff"/><stop offset="1" stop-color="#fff" stop-opacity="0"/></linearGradient><linearGradient id="i"><stop offset="0" stop-color="#7c7c7c"/><stop offset="1" stop-color="#b8b8b8"/></linearGradient><linearGradient id="h"><stop offset="0" stop-color="#fff"/><stop offset="1" stop-color="#fff" stop-opacity="0"/></linearGradient><linearGradient id="d" gradientUnits="userSpaceOnUse" x1="21.933" y1="24.627" x2="21.933" y2="7.109"><stop offset="0" stop-color="#3465a4"/><stop offset="1" stop-color="#0b1521"/></linearGradient><linearGradient id="c"><stop offset="0"/><stop offset="1" stop-opacity="0"/></linearGradient><linearGradient y2="36.033" x2="31.081" y1="3.732" x1="12.487" gradientUnits="userSpaceOnUse" id="f"><stop offset="0" stop-color="#d2d2d2" stroke-width="1.217"/><stop offset="1" stop-color="#ededed" stroke-width="1.217"/></linearGradient><linearGradient y2="7.109" x2="21.933" y1="24.627" x1="21.933" gradientUnits="userSpaceOnUse" id="e"><stop offset="0" stop-color="#729fcf" stroke-width="1.217"/><stop offset="1" stop-color="#3465a4" stroke-width="1.217"/></linearGradient><linearGradient xlink:href="#d" id="n" gradientUnits="userSpaceOnUse" gradientTransform="matrix(1.09899 0 0 -.79776 -1.954 37.324)" x1="21.933" y1="24.627" x2="21.933" y2="7.109"/><linearGradient xlink:href="#e" id="o" gradientUnits="userSpaceOnUse" gradientTransform="matrix(1.09899 0 0 1.1067 -1.954 -4.922)" x1="21.933" y1="24.627" x2="21.933" y2="7.109"/><linearGradient xlink:href="#f" id="m" gradientUnits="userSpaceOnUse" gradientTransform="matrix(1.93821 0 0 1.37824 71.566 3.967)" x1="12.487" y1="3.732" x2="31.081" y2="36.033"/><radialGradient xlink:href="#g" id="r" cx="12.7" cy="10.405" fx="12.7" fy="10.405" r="19.969" gradientTransform="matrix(2.33988 0 0 1.54089 -15.403 3.127)" gradientUnits="userSpaceOnUse"/><linearGradient xlink:href="#h" id="q" gradientUnits="userSpaceOnUse" gradientTransform="matrix(1.36793 0 0 1.36986 7.154 -4.19)" x1="33.396" y1="36.921" x2="34.17" y2="38.07"/><linearGradient xlink:href="#i" id="p" gradientUnits="userSpaceOnUse" gradientTransform="matrix(1.39002 0 0 1.45837 6.8 -6.51)" x1="35.997" y1="40.458" x2="33.665" y2="37.771"/></defs><g color="#000"><path style="marker:none" opacity=".402" fill="url(#j)" overflow="visible" d="M-1559.252-150.697h1339.633V327.66h-1339.633z" transform="matrix(.02975 0 0 .03415 58.436 46.975)"/><path style="marker:none" d="M-219.619-150.68v478.33c142.874.9 345.4-107.17 345.4-239.196S-33.655-150.68-219.619-150.68z" opacity=".402" fill="url(#k)" overflow="visible" transform="matrix(.02975 0 0 .03415 58.436 46.975)"/><path d="M-1559.252-150.68v478.33c-142.875.9-345.4-107.17-345.4-239.196s159.436-239.134 345.4-239.134z" style="marker:none" opacity=".402" fill="url(#l)" overflow="visible" transform="matrix(.02975 0 0 .03415 58.436 46.975)"/></g><path style="marker:none" d="M4.52 9h54.96c.842 0 1.52.698 1.52 1.566v33.27C61 44.705 49.57 55 48.727 55H4.521C3.678 55 3 54.302 3 53.434V10.566C3 9.698 3.678 9 4.52 9z" color="#000" fill="url(#m)" stroke="#2e3436" stroke-width="2" overflow="visible"/><path d="M5.513 30h34.13V19.627H5.513V30z" fill="url(#n)" transform="matrix(1.40583 0 0 1.45425 .263 6.378)"/><path d="M5.513 5.238h34.13v14.39H5.513V5.237z" fill="url(#o)" transform="matrix(1.40583 0 0 1.45425 .263 6.378)"/><g stroke="none" stroke-width=".851"><path d="M26.069 23.507c0 3.805-3.01 7.09-6.855 7.09-3.678 0-6.854-3.112-6.854-7.09 0-3.805 3.009-7.09 6.854-7.09 3.678 0 6.855 3.112 6.855 7.09z" opacity=".05" fill="#e8f52f"/><path d="M25.4 23.507c0 3.459-2.675 6.399-6.186 6.399-3.343 0-6.186-2.767-6.186-6.399 0-3.459 2.675-6.399 6.186-6.399 3.344 0 6.186 2.767 6.186 6.399z" opacity=".208" fill="#ecf751"/><path d="M24.731 23.507c0 3.113-2.507 5.707-5.517 5.707-3.01 0-5.517-2.594-5.517-5.707s2.508-5.707 5.517-5.707c3.01 0 5.517 2.594 5.517 5.707z" opacity=".367" fill="#f0f972"/><path d="M24.063 23.507c0 2.767-2.174 5.015-4.849 5.015-2.675 0-4.848-2.248-4.848-5.015 0-2.767 2.173-5.015 4.848-5.015s4.849 2.248 4.849 5.015z" opacity=".525" fill="#f4fa95"/><path d="M23.394 23.507c0 2.421-1.84 4.324-4.18 4.324s-4.18-1.903-4.18-4.324 1.84-4.324 4.18-4.324 4.18 1.903 4.18 4.324z" opacity=".683" fill="#f7fcb7"/><path d="M22.725 23.507c0 2.075-1.672 3.632-3.51 3.632-1.84 0-3.512-1.73-3.512-3.632 0-1.902 1.672-3.632 3.511-3.632 1.84 0 3.511 1.73 3.511 3.632z" opacity=".842" fill="#fbfddb"/><path d="M22.056 23.507c0 1.73-1.337 3.113-3.009 3.113s-3.01-1.384-3.01-3.113c0-1.73 1.338-3.113 3.01-3.113 1.672 0 3.01 1.384 3.01 3.113z" fill="#fff"/></g><path d="M35.431 37.861h12.205l2.34.692h-4.012s4.012.346 6.018 2.94c2.007 2.421-2.34 5.361-2.34 5.361-.167-.519-1.17-4.67-3.177-6.399-1.504-1.383-3.176-1.73-3.176-1.73H35.43V37.862z" opacity=".3"/><path d="M43.456 38.899h-7.022l13.04 7.61-6.018-7.61z" opacity=".3"/><path d="M35.431 38.034h12.205l1.839-1.21h-4.013s3.678-.692 4.18-5.016c.501-4.323-5.685-9.166-5.685-9.166v.173c.168 1.038 1.84 8.301.67 11.068-.502 2.422-2.007 2.94-2.007 2.94h-7.69l.334 1.211h.167z" fill="#2e3436"/><path d="M42.787 36.132h-7.022l8.36-13.144-1.338 13.144z" fill="#2e3436"/><path style="marker:none" d="M5.358 11h53.284c.198 0 .358.164.358.367v32.059C59 44.706 49.638 53 49.44 53H5.357A.362.362 0 0 1 5 52.633V11.367c0-.203.16-.367.358-.367z" color="#000" fill="none" stroke="#fff" stroke-width="2" overflow="visible"/><path style="marker:none" opacity=".847" color="#000" fill="none" stroke="#4f4f4f" overflow="visible" d="M8.679 14.709h46.732v34.712H8.679z"/><path style="marker:none" d="M48.582 55.477c2.822.48 13.329-6.607 12.906-12.393-2.173 3.534-6.615 1.876-12.326 2.108 0 0 .55 9.556-.58 10.285z" color="#000" fill="url(#p)" fill-rule="evenodd" stroke="#2e3436" overflow="visible"/><path d="M50.257 51.546c1.874-.937 6.057-2.94 7.835-5.517-2.184.931-4.033.287-7.8.26 0 0 .221 4.195-.035 5.257z" style="marker:none" opacity=".369" color="#000" fill="none" stroke="url(#q)" overflow="visible"/><path style="marker:none" d="M4.611 11.617v30.222c30.54 1.217 33.955-17.893 54.632-17.893v-12.33H4.61z" opacity=".301" color="#000" fill="url(#r)" overflow="visible"/></svg>