<svg xmlns="http://www.w3.org/2000/svg" xmlns:xlink="http://www.w3.org/1999/xlink" width="64" height="64"><defs><linearGradient id="b"><stop offset="0" stop-color="#204a87"/><stop offset="1" stop-color="#729fcf"/></linearGradient><linearGradient id="a"><stop offset="0" stop-color="#d3d7cf"/><stop offset="1" stop-color="#fff"/></linearGradient><linearGradient xlink:href="#a" id="f" x1="49" y1="54" x2="43" y2="14" gradientUnits="userSpaceOnUse" gradientTransform="matrix(1 0 0 .90476 0 993.6)"/><linearGradient xlink:href="#b" id="e" x1="49" y1="16" x2="48" y2="4" gradientUnits="userSpaceOnUse"/><linearGradient xlink:href="#c" id="h" x1="49" y1="54" x2="43" y2="14" gradientUnits="userSpaceOnUse" gradientTransform="matrix(1 0 0 .90476 -30 993.6)"/><linearGradient id="c"><stop offset="0" stop-color="#d3d7cf"/><stop offset="1" stop-color="#fff"/></linearGradient><linearGradient gradientTransform="translate(-30 988.362)" xlink:href="#d" id="g" x1="49" y1="16" x2="48" y2="4" gradientUnits="userSpaceOnUse"/><linearGradient id="d"><stop offset="0" stop-color="#204a87"/><stop offset="1" stop-color="#729fcf"/></linearGradient></defs><path fill="none" stroke="#204a87" stroke-width="6" stroke-linecap="round" stroke-linejoin="round" stroke-dashoffset="6" d="M35 5h24v54H35z"/><path fill="none" stroke="#729fcf" stroke-width="2" stroke-linecap="round" stroke-linejoin="round" stroke-dashoffset="6" d="M35 5h24v54H35z"/><path fill="url(#e)" stroke="#729fcf" stroke-width="2" stroke-linecap="round" stroke-dashoffset="6" d="M35 5h24v8H35z"/><path fill="url(#f)" stroke="#fff" stroke-width="2" stroke-linecap="round" stroke-dashoffset="6" d="M39 1005.362h16v38H39z" transform="translate(0 -988.362)"/><path d="M36 15h22" fill="none" stroke="#204a87" stroke-width="2"/><path d="M36 9h8" fill="none" stroke="#fff" stroke-width="6"/><path fill="none" stroke="#204a87" stroke-width="6" stroke-linecap="round" stroke-linejoin="round" stroke-dashoffset="6" d="M5 5h24v54H5z"/><path fill="none" stroke="#729fcf" stroke-width="2" stroke-linecap="round" stroke-linejoin="round" stroke-dashoffset="6" d="M5 5h24v54H5z"/><path fill="url(#g)" stroke="#729fcf" stroke-width="2" stroke-linecap="round" stroke-dashoffset="6" d="M5 993.362h24v8H5z" transform="translate(0 -988.362)"/><path fill="url(#h)" stroke="#fff" stroke-width="2" stroke-linecap="round" stroke-dashoffset="6" d="M9 1005.362h16v38H9z" transform="translate(0 -988.362)"/><path d="M6 15h22" fill="none" stroke="#204a87" stroke-width="2"/><path d="M6 9h8" fill="none" stroke="#fff" stroke-width="6"/></svg>