<svg xmlns="http://www.w3.org/2000/svg" xmlns:xlink="http://www.w3.org/1999/xlink" width="64" height="64"><defs><linearGradient id="d"><stop offset="0" stop-color="#34e0e2"/><stop offset="1" stop-color="#06989a"/></linearGradient><linearGradient xlink:href="#a" id="e" gradientUnits="userSpaceOnUse" gradientTransform="matrix(1.41667 0 0 .75 14.417 1024.612)" x1="49" y1="16" x2="48" y2="4"/><linearGradient id="a"><stop offset="0" stop-color="#204a87"/><stop offset="1" stop-color="#729fcf"/></linearGradient><linearGradient xlink:href="#b" id="f" gradientUnits="userSpaceOnUse" gradientTransform="matrix(1.625 0 0 .28571 4.625 1034.648)" x1="44.538" y1="65.5" x2="43" y2="14"/><linearGradient id="b"><stop offset="0" stop-color="#d3d7cf"/><stop offset="1" stop-color="#fff"/></linearGradient><linearGradient id="c"><stop offset="0" stop-color="#729fcf"/><stop offset="1" stop-color="#204a87"/></linearGradient><linearGradient xlink:href="#d" id="g" gradientUnits="userSpaceOnUse" gradientTransform="matrix(1.45 0 0 1.47059 -27.45 983.303)" x1="45.828" y1="22.48" x2="41.69" y2="43.56"/></defs><path fill="none" stroke="#204a87" stroke-width="6" stroke-linecap="round" stroke-linejoin="round" stroke-dashoffset="6" d="M15 9h44v30H15z"/><path fill="none" stroke="#729fcf" stroke-width="2" stroke-linecap="round" stroke-linejoin="round" stroke-dashoffset="6" d="M15 9h44v30H15z"/><path fill="url(#e)" stroke="#729fcf" stroke-width="2" stroke-linecap="round" stroke-dashoffset="6" d="M64 1028.362h44v6H64z" transform="translate(-49 -1019.362)"/><path fill="url(#f)" stroke="#fff" stroke-width="2" stroke-linecap="round" stroke-dashoffset="6" d="M68 1038.362h36v16H68z" transform="translate(-49 -1019.362)"/><path d="M16 17h41" fill="none" stroke="#204a87" stroke-width="2"/><path d="M16 12h8" fill="none" stroke="#fff" stroke-width="4"/><g stroke-width="2"><path d="M37 1011.362v12H15v14h22v12l24-19z" fill="url(#g)" fill-rule="evenodd" stroke="#042a2a" stroke-linejoin="round" transform="matrix(-1 0 0 1 64 -988.362)"/><path d="M25 27.12V37h22v10H25v9.945L6 42.172z" fill="none" stroke="#34e0e2"/></g></svg>