<svg xmlns="http://www.w3.org/2000/svg" xmlns:xlink="http://www.w3.org/1999/xlink" width="64" height="64"><defs><linearGradient id="a"><stop offset="0" stop-color="#d3d7cf"/><stop offset="1" stop-color="#fff"/></linearGradient><linearGradient id="b"><stop offset="0" stop-color="#204a87"/><stop offset="1" stop-color="#729fcf"/></linearGradient><linearGradient xlink:href="#b" id="k" gradientUnits="userSpaceOnUse" gradientTransform="matrix(1.41667 0 0 .75 14.417 1024.612)" x1="49" y1="16" x2="48" y2="4"/><linearGradient xlink:href="#a" id="l" gradientUnits="userSpaceOnUse" gradientTransform="matrix(1.625 0 0 .28571 4.625 1034.648)" x1="43.923" y1="44.5" x2="43" y2="14"/><linearGradient id="c"><stop offset="0" stop-color="#204a87"/><stop offset="1" stop-color="#729fcf"/></linearGradient><linearGradient id="d"><stop offset="0" stop-color="#d3d7cf"/><stop offset="1" stop-color="#fff"/></linearGradient><linearGradient id="e"><stop offset="0" stop-color="#204a87"/><stop offset="1" stop-color="#729fcf"/></linearGradient><linearGradient id="f"><stop offset="0" stop-color="#d3d7cf"/><stop offset="1" stop-color="#fff"/></linearGradient><linearGradient xlink:href="#g" id="m" gradientUnits="userSpaceOnUse" gradientTransform="matrix(1.41667 0 0 .75 14.417 1024.612)" x1="49" y1="16" x2="48" y2="4"/><linearGradient id="g"><stop offset="0" stop-color="#204a87"/><stop offset="1" stop-color="#729fcf"/></linearGradient><linearGradient xlink:href="#h" id="n" gradientUnits="userSpaceOnUse" gradientTransform="matrix(1.625 0 0 .28571 4.625 1034.648)" x1="43.923" y1="44.5" x2="43" y2="14"/><linearGradient id="h"><stop offset="0" stop-color="#d3d7cf"/><stop offset="1" stop-color="#fff"/></linearGradient><linearGradient xlink:href="#i" id="o" gradientUnits="userSpaceOnUse" gradientTransform="matrix(1.41667 0 0 .75 14.417 1024.612)" x1="49" y1="16" x2="48" y2="4"/><linearGradient id="i"><stop offset="0" stop-color="#204a87"/><stop offset="1" stop-color="#729fcf"/></linearGradient><linearGradient xlink:href="#j" id="p" gradientUnits="userSpaceOnUse" gradientTransform="matrix(1.625 0 0 .28571 4.625 1034.648)" x1="43.923" y1="44.5" x2="43" y2="14"/><linearGradient id="j"><stop offset="0" stop-color="#d3d7cf"/><stop offset="1" stop-color="#fff"/></linearGradient></defs><path fill="none" stroke="#204a87" stroke-width="6" stroke-linecap="round" stroke-linejoin="round" stroke-dashoffset="6" d="M5 7h34v24H5z"/><path fill="none" stroke="#729fcf" stroke-width="2" stroke-linecap="round" stroke-linejoin="round" stroke-dashoffset="6" d="M5 7h34v24H5z"/><path fill="url(#k)" stroke="#729fcf" stroke-width="2" stroke-linecap="round" stroke-dashoffset="6" d="M64 1028.362h34v6H64z" transform="translate(-59 -1021.362)"/><path fill="url(#l)" stroke="#fff" stroke-width="2" stroke-linecap="round" stroke-dashoffset="6" d="M68 1038.362h26v10H68z" transform="translate(-59 -1021.362)"/><path d="M6 15h31" fill="none" stroke="#204a87" stroke-width="2"/><path d="M6 10h8" fill="none" stroke="#fff" stroke-width="4"/><g><path fill="none" stroke="#204a87" stroke-width="6" stroke-linecap="round" stroke-linejoin="round" stroke-dashoffset="6" d="M15 21h34v24H15z"/><path fill="none" stroke="#729fcf" stroke-width="2" stroke-linecap="round" stroke-linejoin="round" stroke-dashoffset="6" d="M15 21h34v24H15z"/><path fill="url(#m)" stroke="#729fcf" stroke-width="2" stroke-linecap="round" stroke-dashoffset="6" d="M64 1028.362h34v6H64z" transform="translate(-49 -1007.362)"/><path fill="url(#n)" stroke="#fff" stroke-width="2" stroke-linecap="round" stroke-dashoffset="6" d="M68 1038.362h26v10H68z" transform="translate(-49 -1007.362)"/><path d="M16 29h31" fill="none" stroke="#204a87" stroke-width="2"/><path d="M16 24h8" fill="none" stroke="#fff" stroke-width="4"/></g><g><path fill="none" stroke="#204a87" stroke-width="6" stroke-linecap="round" stroke-linejoin="round" stroke-dashoffset="6" d="M25 35h34v24H25z"/><path fill="none" stroke="#729fcf" stroke-width="2" stroke-linecap="round" stroke-linejoin="round" stroke-dashoffset="6" d="M25 35h34v24H25z"/><path fill="url(#o)" stroke="#729fcf" stroke-width="2" stroke-linecap="round" stroke-dashoffset="6" d="M64 1028.362h34v6H64z" transform="translate(-39 -993.362)"/><path fill="url(#p)" stroke="#fff" stroke-width="2" stroke-linecap="round" stroke-dashoffset="6" d="M68 1038.362h26v10H68z" transform="translate(-39 -993.362)"/><path d="M26 43h31" fill="none" stroke="#204a87" stroke-width="2"/><path d="M26 38h8" fill="none" stroke="#fff" stroke-width="4"/></g></svg>