<svg xmlns="http://www.w3.org/2000/svg" xmlns:xlink="http://www.w3.org/1999/xlink" height="48" width="48"><defs><linearGradient id="d"><stop offset="0" stop-color="#f0f0ef"/><stop offset=".599" stop-color="#e8e8e8"/><stop offset=".828" stop-color="#fff"/><stop offset="1" stop-color="#d8d8d3"/></linearGradient><linearGradient id="c"><stop offset="0" stop-color="#fff"/><stop offset="1" stop-color="#fff" stop-opacity="0"/></linearGradient><linearGradient id="a"><stop offset="0" stop-color="#7c7c7c"/><stop offset="1" stop-color="#b8b8b8"/></linearGradient><linearGradient gradientTransform="translate(6.162 4.033)" gradientUnits="userSpaceOnUse" y2="37.771" x2="33.665" y1="40.458" x1="35.997" id="g" xlink:href="#a"/><linearGradient id="b"><stop offset="0" stop-color="#fff"/><stop offset="1" stop-color="#fff" stop-opacity="0"/></linearGradient><linearGradient gradientTransform="translate(6.162 3.658)" gradientUnits="userSpaceOnUse" y2="38.07" x2="34.17" y1="36.921" x1="33.396" id="h" xlink:href="#b"/><linearGradient y2="42.007" x2="30.811" y1="26.697" x1="26.076" gradientTransform="matrix(.99942 0 0 1 5.991 4.033)" gradientUnits="userSpaceOnUse" id="f" xlink:href="#c"/><linearGradient y2="39.498" x2="35.785" y1="18.992" x1="22.308" gradientTransform="matrix(1.06724 0 0 .98928 4.392 4.035)" gradientUnits="userSpaceOnUse" id="e" xlink:href="#d"/></defs><g transform="matrix(1.12495 0 0 1.12495 -9.759 -8.094)"><path d="M15.073 10.5h29.856c.316 0 .57.254.57.568v27.168c0 2.476-6.88 8.303-9.268 8.303H15.073a.567.567 0 0 1-.57-.568V11.068c0-.314.254-.567.57-.567z" fill="url(#e)" fill-rule="evenodd" stroke="#888a85"/><rect width="28.997" height="34.041" x="15.503" y="11.5" rx="0" ry="0" fill="none" stroke="url(#f)"/><path style="marker:none" d="M36.22 46.537c2.031.33 9.59-4.53 9.285-8.498-1.563 2.423-4.758 1.287-8.867 1.446 0 0 .395 6.552-.417 7.052z" color="#000" overflow="visible" fill="url(#g)" fill-rule="evenodd" stroke="#868a84"/><path d="M37.671 44.345c1.37-.683 4.429-2.146 5.728-4.027-1.596.68-2.948.21-5.702.19 0 0 .162 3.062-.026 3.837z" style="marker:none" color="#000" overflow="visible" opacity=".369" fill="none" stroke="url(#h)"/><path style="marker:none" color="#000" overflow="visible" opacity=".82" fill="#888a85" fill-rule="evenodd" d="M20 19.033h21v2H20zM20 23.033h19.992v2H20zM20 27.033h17.977v2H20zM20 31.033h21v2H20z"/></g></svg>