<svg xmlns="http://www.w3.org/2000/svg" xmlns:xlink="http://www.w3.org/1999/xlink" width="64" height="64"><defs><linearGradient id="a"><stop offset="0" stop-color="#c4a000"/><stop offset="1" stop-color="#fce94f"/></linearGradient><linearGradient xlink:href="#a" id="b" gradientUnits="userSpaceOnUse" x1="168.903" y1="171.571" x2="161.025" y2="151.81"/></defs><path d="M132.386 160.323l17 29.445 32.043-18.5 6.259-15.16-7-12.125-16.259-2.16z" fill="url(#b)" fill-rule="evenodd" stroke="#302b00" stroke-width="3.975" stroke-linecap="round" stroke-linejoin="round" transform="matrix(1.01178 0 0 1.00106 -129.923 -133.971)"/><path d="M145.315 166.715l19.052-11m-14.052 19.66l19.052-11" fill="none" stroke="#302b00" stroke-width="3.975" stroke-linecap="round" transform="matrix(1.01178 0 0 1.00106 -129.923 -133.971)"/><path style="marker:none" d="M178.544 153.971a2.166 2.166 0 1 1-4.33 0 2.166 2.166 0 0 1 4.33 0z" transform="matrix(.9343 0 0 .9244 -117.117 -121.091)" fill="#302b00" fill-rule="evenodd" stroke="#302b00" stroke-width="4.304" stroke-linejoin="bevel" overflow="visible"/><path transform="matrix(.5059 .86694 -.87623 .50053 45.27 -10.91)" d="M24 8h10l8 10v32H16V18z" fill="none" stroke="#fce94f" stroke-width="3.975"/></svg>