<svg xmlns="http://www.w3.org/2000/svg" xmlns:xlink="http://www.w3.org/1999/xlink" width="64" height="64"><defs><linearGradient id="p"><stop offset="0" stop-color="#fce94f"/><stop offset="1" stop-color="#c4a000"/></linearGradient><linearGradient id="o"><stop offset="0" stop-color="#fff"/><stop offset="1" stop-color="#c4a000" stop-opacity="0"/></linearGradient><linearGradient id="n"><stop offset="0" stop-color="#c4a000"/><stop offset="1" stop-color="#fce94f"/></linearGradient><linearGradient id="l"><stop offset="0"/><stop offset="1" stop-opacity="0"/></linearGradient><linearGradient id="h"><stop offset="0"/><stop offset="1" stop-opacity="0"/></linearGradient><linearGradient id="f"><stop offset="0" stop-color="#fff110"/><stop offset="1" stop-color="#cf7008"/></linearGradient><pattern id="a" patternTransform="matrix(.66773 -1.0037 2.42619 2.31145 3.476 3.535)" height="1" width="2" patternUnits="userSpaceOnUse"><path d="M0-.5h1v2H0z"/></pattern><pattern id="b" patternTransform="matrix(.66773 -1.0037 2.42619 2.31145 3.476 3.535)" height="1" width="2" patternUnits="userSpaceOnUse"><path d="M0-.5h1v2H0z"/></pattern><pattern patternTransform="matrix(.66773 -1.0037 2.42619 2.31145 -26.336 10.887)" id="c" xlink:href="#d"/><pattern id="d" patternTransform="matrix(.66773 -1.0037 2.42619 2.31145 3.476 3.535)" height="1" width="2" patternUnits="userSpaceOnUse"><path d="M0-.5h1v2H0z"/></pattern><pattern id="e" patternTransform="matrix(.66773 -1.0037 2.42619 2.31145 3.476 3.535)" height="1" width="2" patternUnits="userSpaceOnUse"><path d="M0-.5h1v2H0z"/></pattern><linearGradient id="g"><stop offset="0" stop-color="#fff"/><stop offset=".5" stop-color="#fff520" stop-opacity=".891"/><stop offset="1" stop-color="#fff300" stop-opacity="0"/></linearGradient><linearGradient id="i"><stop offset="0" stop-color="#fff"/><stop offset=".5" stop-color="#fff520" stop-opacity=".891"/><stop offset="1" stop-color="#fff300" stop-opacity="0"/></linearGradient><linearGradient id="j"><stop offset="0" stop-color="#fff"/><stop offset=".5" stop-color="#fff520" stop-opacity=".891"/><stop offset="1" stop-color="#fff300" stop-opacity="0"/></linearGradient><linearGradient id="k"><stop offset="0"/><stop offset="1" stop-opacity="0"/></linearGradient><linearGradient id="m"><stop offset="0"/><stop offset="1" stop-opacity="0"/></linearGradient><linearGradient xlink:href="#n" id="r" x1="35.269" y1="31.615" x2="23.346" y2="6.577" gradientUnits="userSpaceOnUse"/><radialGradient xlink:href="#p" id="q" cx="22" cy="41.257" fx="22" fy="41.257" r="24" gradientTransform="matrix(1 .58333 -.78919 1.35289 34.56 -27.65)" gradientUnits="userSpaceOnUse"/></defs><path d="M32 26C17.364 26 9 56.882 9 56.882S13.182 61 32 61c18.818 0 23-4.118 23-4.118S46.636 26 32 26z" fill="url(#q)" stroke="#302b00" stroke-width="2" stroke-linejoin="round"/><path d="M32 28c-13 0-20.643 28-20.643 28S16 59 32 59s20.643-3 20.643-3S45 28 32 28z" fill="none" stroke="#fce94f" stroke-width="2"/><path d="M47 18a15 15 0 1 1-30 0 15 15 0 1 1 30 0z" fill="#fce94f" stroke="#302b00" stroke-width="2.00031858" stroke-linecap="round" stroke-linejoin="round" stroke-dashoffset="6"/><path d="M46 18.5a15.5 15.5 0 1 1-31 0 15.5 15.5 0 1 1 31 0z" transform="matrix(.83871 0 0 .83871 6.42 2.484)" fill="url(#r)" stroke="#fce94f" stroke-width="2.385" stroke-linecap="round" stroke-linejoin="round" stroke-dashoffset="6"/></svg>