<svg xmlns="http://www.w3.org/2000/svg" xmlns:xlink="http://www.w3.org/1999/xlink" width="64" height="64"><defs><radialGradient xlink:href="#a" id="n" gradientUnits="userSpaceOnUse" gradientTransform="matrix(-2.77439 0 0 1.9697 112.762 -872.885)" cx="605.714" cy="486.648" fx="605.714" fy="486.648" r="117.143"/><linearGradient id="a"><stop offset="0"/><stop offset="1" stop-opacity="0"/></linearGradient><radialGradient xlink:href="#a" id="m" gradientUnits="userSpaceOnUse" gradientTransform="matrix(2.77439 0 0 1.9697 -1891.633 -872.885)" cx="605.714" cy="486.648" fx="605.714" fy="486.648" r="117.143"/><linearGradient id="b"><stop offset="0" stop-opacity="0"/><stop offset=".5"/><stop offset="1" stop-opacity="0"/></linearGradient><linearGradient xlink:href="#b" id="l" gradientUnits="userSpaceOnUse" gradientTransform="matrix(2.77439 0 0 1.9697 -1892.179 -872.885)" x1="302.857" y1="366.648" x2="302.857" y2="609.505"/><linearGradient id="k"><stop offset="0" stop-color="#777973"/><stop offset="1" stop-color="#777973" stop-opacity="0"/></linearGradient><linearGradient id="i"><stop offset="0" stop-color="#616161"/><stop offset="1" stop-color="#a0a0a0"/></linearGradient><linearGradient id="f"><stop offset="0" stop-color="#a2a59c"/><stop offset="1" stop-color="#535750"/></linearGradient><linearGradient id="c"><stop offset="0" stop-color="#fff"/><stop offset="1" stop-color="#fcfcff" stop-opacity="0"/></linearGradient><linearGradient id="h"><stop offset="0" stop-color="#fff"/><stop offset="1" stop-color="#fff" stop-opacity="0"/></linearGradient><linearGradient id="g"><stop offset="0" stop-color="#32342f" stop-opacity=".546"/><stop offset="1" stop-color="#32342f" stop-opacity="0"/></linearGradient><linearGradient id="j"><stop offset="0" stop-color="#a9aaa7"/><stop offset="1" stop-color="#676964"/></linearGradient><linearGradient id="e"><stop offset="0" stop-color="#777973"/><stop offset="1" stop-color="#cbccca"/></linearGradient><linearGradient id="d"><stop offset="0" stop-color="#748f48"/><stop offset="1" stop-color="#1f2816"/></linearGradient><linearGradient xlink:href="#e" id="o" gradientUnits="userSpaceOnUse" gradientTransform="matrix(.94928 0 0 .93918 2.8 3.944)" x1="29.87" y1="32.286" x2="24.842" y2="14.158"/><linearGradient xlink:href="#f" id="p" gradientUnits="userSpaceOnUse" gradientTransform="matrix(.94928 0 0 .93918 2.8 3.944)" x1="8.653" y1="9.587" x2="21.305" y2="32.498"/><linearGradient xlink:href="#d" id="q" gradientUnits="userSpaceOnUse" gradientTransform="matrix(.92622 0 0 .9471 3.359 4.406)" x1="23.119" y1="9.583" x2="22.441" y2="34.226"/><linearGradient xlink:href="#i" id="r" gradientUnits="userSpaceOnUse" gradientTransform="matrix(.97253 0 0 .97091 2.248 4.224)" x1="11.048" y1="9.146" x2="26.178" y2="30.343"/><linearGradient xlink:href="#h" id="s" gradientUnits="userSpaceOnUse" gradientTransform="matrix(.92224 0 0 .90645 3.448 5.653)" x1="20.339" y1="19.637" x2="48.845" y2="49.731"/><linearGradient xlink:href="#c" id="t" gradientUnits="userSpaceOnUse" gradientTransform="matrix(1.21673 0 0 .87633 .87 6.825)" x1="11.492" y1="1.654" x2="17.199" y2="26.729"/><radialGradient xlink:href="#k" id="u" gradientUnits="userSpaceOnUse" gradientTransform="matrix(1 0 0 .57537 1.504 19.147)" cx="37.496" cy="39.51" fx="37.496" fy="39.51" r="2.51"/><linearGradient xlink:href="#j" id="v" gradientUnits="userSpaceOnUse" gradientTransform="matrix(1 0 0 .5808 1.504 18.932)" x1="40.253" y1="42.319" x2="36.452" y2="38"/></defs><g color="#000"><path style="marker:none" opacity=".402" fill="url(#l)" overflow="visible" d="M-1559.252-150.697h1339.633V327.66h-1339.633z" transform="matrix(.03152 0 0 .03345 60.035 53.04)"/><path d="M-219.619-150.68v478.33c142.874.9 345.4-107.17 345.4-239.196S-33.655-150.68-219.619-150.68z" style="marker:none" opacity=".402" fill="url(#m)" overflow="visible" transform="matrix(.03152 0 0 .03345 60.035 53.04)"/><path style="marker:none" d="M-1559.252-150.68v478.33c-142.875.9-345.4-107.17-345.4-239.196s159.436-239.134 345.4-239.134z" opacity=".402" fill="url(#n)" overflow="visible" transform="matrix(.03152 0 0 .03345 60.035 53.04)"/></g><g transform="translate(-1.258 -2.446) scale(1.30004)"><rect ry="4.785" rx="4.811" y="7.266" x="3.276" height="38.46" width="44.614" fill="url(#o)" fill-rule="evenodd" stroke="url(#p)" stroke-width="1.538" stroke-linecap="round" stroke-linejoin="round"/><rect ry="1.614" rx="1.604" y="11.494" x="7.504" height="28.465" width="36.157" fill="url(#q)" fill-rule="evenodd" stroke="url(#r)" stroke-width=".765" stroke-linecap="round" stroke-linejoin="round"/><g opacity=".256" fill="none" stroke="#181f10" stroke-width=".77"><path d="M9.519 14.995h31.979M9.519 16.995h31.979M9.519 18.995h31.979M9.519 20.995h31.979M9.519 22.995h31.979M9.519 24.995h31.979M9.519 26.995h31.979M9.519 28.995h31.979M9.519 30.995h31.979M9.519 32.995h31.979M9.519 34.995h31.979M9.519 36.995h31.979"/></g><rect ry="3.625" rx="3.667" y="8.804" x="4.814" height="35.383" width="41.537" opacity=".764" fill="none" stroke="url(#s)" stroke-width="1.538" stroke-linecap="round" stroke-linejoin="round"/><path d="M13.129 24.174V21.12l8.985 4.06v1.857l-8.985 4.087V28.08l6.964-1.854-6.964-2.05zM32.02 34.201v1.974H21.118V34.2H32.02" style="text-align:start;line-height:125%" font-size="18.585" font-weight="700" fill="#fff" stroke="#6ed66e" stroke-width="1.026" stroke-opacity=".279" font-family="Bitstream Vera Sans Mono"/><path d="M9.44 11.881c-.515 0-1.55.186-1.55 1.003l.117 16.153c17.394-.942 13.903-8.074 35.267-11.647l-.061-4.246c-.077-1.1-.531-1.205-1.585-1.198L9.44 11.88z" opacity=".531" fill="url(#t)" fill-rule="evenodd"/><rect ry=".118" rx=".117" y="12.65" x="8.66" height="26.153" width="33.845" opacity=".714" fill="none" stroke="#000" stroke-width="1.538" stroke-linecap="round" stroke-linejoin="round"/><rect ry=".437" rx=".358" y="40.726" x="36.989" height="2.308" width="4.02" fill="url(#u)" fill-rule="evenodd" stroke="url(#v)" stroke-width=".769" stroke-linecap="round"/><rect ry=".56" rx=".56" y="41.495" x="33.504" height="2" width="2" fill="#93d94c" fill-rule="evenodd"/><path d="M34.754 42.182a.563.563 0 1 1-1.125 0 .563.563 0 0 1 1.125 0z" style="marker:none" color="#000" fill="#fff" overflow="visible"/></g></svg>