<svg xmlns="http://www.w3.org/2000/svg" width="64" height="64"><defs><linearGradient id="b"><stop offset="0" stop-color="#89d5f8"/><stop offset="1" stop-color="#00899e"/></linearGradient><linearGradient id="a"><stop offset="0"/><stop offset="1" stop-opacity="0"/></linearGradient></defs><g stroke-linejoin="round"><path d="M59 39.308L32 59 5 39.308l27-9.693z" fill="none" stroke="#042a2a" stroke-width="6"/><path d="M59 39.308L32 59 5 41.308l27-11.693z" fill="none" stroke="#34e0e2" stroke-width="2"/><path d="M32 59L5 39.308V16.692l27 13.693zM32 59l27-19.692V16.692L32 30.385z" fill="none" stroke="#042a2a" stroke-width="6"/><path d="M59 16.692L32 30.385 5 16.692 32 11z" fill="none" stroke="#042a2a" stroke-width="6"/><path d="M32 59l27-19.692V16.692L32 30.385z" fill="#06989a" stroke="#16d0d2" stroke-width="2"/><path d="M32 59L5 39.308V16.692l27 13.693z" fill="#16d0d2" stroke="#34e0e2" stroke-width="2"/><path d="M59 16.692L32 30.385 5 16.692 32 11z" fill="#34e0e2" stroke="#34e0e2" stroke-width="2"/></g></svg>