<svg xmlns="http://www.w3.org/2000/svg" xmlns:xlink="http://www.w3.org/1999/xlink" width="64" height="64"><defs><linearGradient id="c"><stop offset="0" stop-color="#06989a"/><stop offset="1" stop-color="#16d0d2"/></linearGradient><linearGradient id="b"><stop offset="0" stop-color="#89d5f8"/><stop offset="1" stop-color="#00899e"/></linearGradient><linearGradient id="a"><stop offset="0"/><stop offset="1" stop-opacity="0"/></linearGradient><linearGradient xlink:href="#c" id="d" x1="20" y1="42" x2="14" y2="12" gradientUnits="userSpaceOnUse"/></defs><g stroke-linejoin="round"><path d="M25 5v34L5 53V17z" fill="none" stroke="#042a2a" stroke-width="6" stroke-linecap="round" stroke-dasharray="6,12" stroke-dashoffset="13.2"/><path d="M25 5v34L5 53V17z" fill="none" stroke="#34e0e2" stroke-width="2" stroke-linecap="round" stroke-dasharray="6,12" stroke-dashoffset="13.2"/><path d="M25 5l34 4v34l-34-4z" style="marker:none" fill="none" stroke="#042a2a" stroke-width="6" stroke-linecap="round" stroke-dasharray="6,12" overflow="visible"/><path d="M25 5l34 4v34l-34-4z" style="marker:none" fill="none" stroke="#34e0e2" stroke-width="2" stroke-linecap="round" stroke-dasharray="6,12" overflow="visible"/><path d="M27 4v37L6 54 4 16z" fill="url(#d)" stroke="#042a2a" stroke-width="2"/><path d="M5 17l36 6L59 9 25 5z" fill="none" stroke="#042a2a" stroke-width="6"/><path d="M59 9v34L41 59V23z" fill="none" stroke="#042a2a" stroke-width="6"/><path d="M5 17l36 6v36L5 53z" style="marker:none" fill="none" stroke="#042a2a" stroke-width="6" overflow="visible"/><path d="M59 9v34L41 59V23z" fill="none" stroke="#34e0e2" stroke-width="2"/><path d="M5 17l36 6v36L5 53z" style="marker:none" fill="none" stroke="#34e0e2" stroke-width="2" overflow="visible"/><path d="M5 17L25 5l34 4-18 14z" fill="none" stroke="#34e0e2" stroke-width="2"/></g></svg>