<svg xmlns="http://www.w3.org/2000/svg" xmlns:xlink="http://www.w3.org/1999/xlink" width="64" height="64"><defs><linearGradient id="f"><stop offset="0" stop-color="#729fcf"/><stop offset="1" stop-color="#204a87"/></linearGradient><linearGradient id="i"><stop offset="0" stop-color="#c4d7eb"/><stop offset="1" stop-color="#c4d7eb" stop-opacity="0"/></linearGradient><linearGradient id="h"><stop offset="0" stop-color="#3977c3"/><stop offset="1" stop-color="#89aedc" stop-opacity="0"/></linearGradient><linearGradient id="g"><stop offset="0" stop-color="#729fcf"/><stop offset="1" stop-color="#528ac5"/></linearGradient><linearGradient id="j"><stop offset="0" stop-color="#729fcf"/><stop offset="1" stop-color="#3465a4"/></linearGradient><linearGradient id="d"><stop offset="0" stop-color="#3465a4"/><stop offset="1" stop-color="#3465a4"/></linearGradient><linearGradient id="b"><stop offset="0" stop-color="#3465a4"/><stop offset="1" stop-color="#3465a4" stop-opacity="0"/></linearGradient><linearGradient id="a"><stop offset="0" stop-color="#3465a4"/><stop offset=".333" stop-color="#5b86be"/><stop offset="1" stop-color="#83a8d8" stop-opacity="0"/></linearGradient><linearGradient id="c"><stop offset="0" stop-color="#fff"/><stop offset="1" stop-color="#fff" stop-opacity="0"/></linearGradient><linearGradient id="e"><stop offset="0"/><stop offset="1" stop-opacity="0"/></linearGradient><linearGradient xlink:href="#a" id="t" gradientUnits="userSpaceOnUse" gradientTransform="matrix(1.37034 0 0 1.35891 .022 -18.215)" x1="13.479" y1="10.612" x2="15.419" y2="19.115"/><linearGradient xlink:href="#b" id="u" gradientUnits="userSpaceOnUse" gradientTransform="matrix(-1.37034 0 0 -1.35891 64.513 44.465)" x1="37.128" y1="29.73" x2="37.065" y2="26.194"/><radialGradient xlink:href="#e" id="s" gradientUnits="userSpaceOnUse" gradientTransform="matrix(1 0 0 .53672 0 16.873)" cx="24.837" cy="36.421" fx="24.837" fy="36.421" r="15.645"/><linearGradient xlink:href="#j" id="w" gradientUnits="userSpaceOnUse" x1="41.792" y1="20.135" x2="23.706" y2="34.083"/><linearGradient id="k"><stop offset="0" stop-color="#3465a4"/><stop offset=".333" stop-color="#5b86be"/><stop offset="1" stop-color="#83a8d8" stop-opacity="0"/></linearGradient><linearGradient id="l"><stop offset="0" stop-color="#3465a4"/><stop offset="1" stop-color="#3465a4" stop-opacity="0"/></linearGradient><linearGradient id="m"><stop offset="0" stop-color="#b9cfe7"/><stop offset="1" stop-color="#729fcf"/></linearGradient><linearGradient id="n"><stop offset="0" stop-color="#fff"/><stop offset="1" stop-color="#fff" stop-opacity="0"/></linearGradient><linearGradient xlink:href="#f" id="v" gradientUnits="userSpaceOnUse" x1="42.703" y1="20.547" x2="26.606" y2="33.634"/><linearGradient xlink:href="#o" id="x" gradientUnits="userSpaceOnUse" gradientTransform="matrix(1.37034 0 0 1.35891 .022 -18.215)" x1="13.479" y1="10.612" x2="15.419" y2="19.115"/><linearGradient id="o"><stop offset="0" stop-color="#3465a4"/><stop offset=".333" stop-color="#5b86be"/><stop offset="1" stop-color="#83a8d8" stop-opacity="0"/></linearGradient><linearGradient xlink:href="#p" id="y" gradientUnits="userSpaceOnUse" gradientTransform="matrix(-1.37034 0 0 -1.35891 64.513 44.465)" x1="37.128" y1="29.73" x2="37.065" y2="26.194"/><linearGradient id="p"><stop offset="0" stop-color="#3465a4"/><stop offset="1" stop-color="#3465a4" stop-opacity="0"/></linearGradient><linearGradient xlink:href="#q" id="z" gradientUnits="userSpaceOnUse" x1="42.703" y1="20.547" x2="26.606" y2="33.634"/><linearGradient id="q"><stop offset="0" stop-color="#729fcf"/><stop offset="1" stop-color="#204a87"/></linearGradient><linearGradient xlink:href="#r" id="A" gradientUnits="userSpaceOnUse" x1="26.222" y1="31.126" x2="46.731" y2="21.766"/><linearGradient id="r"><stop offset="0" stop-color="#729fcf"/><stop offset="1" stop-color="#3465a4"/></linearGradient></defs><path transform="matrix(-2.04144 0 0 -1.36061 83.543 101.353)" d="M40.482 36.421c0 4.638-7.005 8.397-15.645 8.397s-15.645-3.76-15.645-8.397c0-4.637 7.005-8.397 15.645-8.397s15.645 3.76 15.645 8.397z" style="marker:none" opacity=".383" color="#000" fill="url(#s)" fill-rule="evenodd" overflow="visible"/><path d="M27-3.692s-12.247-.849-8.479 13.42H7.987S8.672-6.41 27-3.692z" style="marker:none" color="#000" fill="url(#t)" stroke="url(#u)" stroke-width="2" display="block" overflow="visible" transform="translate(0 16)"/><path style="marker:none" d="M44.307 50.23c18.514-14.411 5.358-36.818-21.845-37.732l-.348-9.346-14.49 17.345 15.09 12.722-.252-9.881c18.83.999 32.982 14.072 21.845 26.892z" color="#000" fill="url(#w)" stroke-width="1.933" stroke-linejoin="round" display="block" overflow="visible" transform="matrix(-.7935 -.66482 -.6704 .78688 77.66 16.94)" stroke="#204a87"/><path d="M52.369 42.345c4.968-8.88-3.193-29.743-33.313-29.672l-.378-7.01-11.24 13.62 11.691 9.884-.321-8.612c18.245.382 33.804 9.458 33.56 21.79z" style="marker:none" color="#000" stroke-width="2.201" stroke-miterlimit="21" display="block" overflow="visible" transform="matrix(-.69687 -.58386 -.58877 .69106 72.35 17.013)" fill="none" stroke="#729fcf"/><g><path d="M27-3.692s-12.247-.849-8.479 13.42H7.987S8.672-6.41 27-3.692z" style="marker:none" color="#000" fill="url(#x)" stroke="url(#y)" stroke-width="2" display="block" overflow="visible" transform="rotate(180 32.993 22.5)"/><path style="marker:none" d="M44.307 50.23c18.514-14.411 5.358-36.818-21.845-37.732l-.348-9.346-14.49 17.345 15.09 12.722-.252-9.881c18.83.999 32.982 14.072 21.845 26.892z" color="#000" fill="url(#A)" stroke-width="1.933" stroke-linejoin="round" display="block" overflow="visible" transform="matrix(.7935 .66482 .6704 -.78688 -11.673 44.06)" stroke="#204a87"/><path d="M52.369 42.345c5.496-8.753-3.193-29.743-33.313-29.672l-.378-7.01-11.24 13.62 11.691 9.884-.321-8.612c18.245.382 33.804 9.458 33.56 21.79z" style="marker:none" color="#000" stroke-width="2.201" stroke-miterlimit="21" display="block" overflow="visible" transform="matrix(.69687 .58386 .58877 -.69106 -6.364 43.987)" fill="none" stroke="#729fcf"/></g></svg>