<svg xmlns="http://www.w3.org/2000/svg" xmlns:xlink="http://www.w3.org/1999/xlink" width="64" height="64"><defs><linearGradient id="a"><stop offset="0" stop-color="#06989a"/><stop offset="1" stop-color="#34e0e2"/></linearGradient><linearGradient xlink:href="#a" id="c" x1="1650.449" y1="1752.971" x2="2052.891" y2="1767.56" gradientUnits="userSpaceOnUse" gradientTransform="matrix(-.25535 -.95296 -.96517 .25862 3999.029 3042.73)"/><linearGradient id="b"><stop offset="0" stop-color="#003ddd"/><stop offset="1" stop-color="#639ef0"/></linearGradient></defs><g stroke-width="14.605" stroke-linecap="round"><path d="M1835.028 1902.914c-106.149-2.36-189.811-89.49-186.75-194.491 3.06-105.002 91.692-188.303 197.84-185.944 55.94 1.243 105.626 26.028 139.67 64.565l44.12-35.106 37.46 176.056-178.556-51.198 41.483-45.577c-22.104-24.014-53.73-39.38-89.234-40.168-69.123-1.536-126.831 52.701-128.824 121.078-1.993 68.376 52.478 125.137 121.601 126.673 19.778.44 38.604-3.703 55.475-11.423l31.395 57.775c-26.033 11.996-55.118 18.439-85.68 17.76z" style="marker:none" fill="url(#c)" fill-rule="evenodd" stroke="#042a2a" stroke-linejoin="round" overflow="visible" transform="matrix(.13694 0 0 .13694 -222.218 -203.365)"/><path d="M28.444 55.128C17.64 54.918 9.42 47.608 6.31 37.301 1.873 22.597 13.938 10.388 22.919 7.947c13.793-3.748 23.202 4.561 26.729 8.62l4.518-3.555 3.907 17.327-17.915-5.1 4.966-5.181c-8.082-7.655-13.967-8.656-20.958-6.893C17.013 14.97 7.97 23.92 10.69 35.692c2.364 10.232 11.358 14.396 18.477 14.595 2.383.293 4.647-.313 6.45-.85l2.407 4.41c-2.812.905-6.301 1.345-9.58 1.281z" style="marker:none" fill="none" stroke="#34e0e2" overflow="visible" stroke-width="2.0000087"/></g></svg>