<svg xmlns="http://www.w3.org/2000/svg" xmlns:xlink="http://www.w3.org/1999/xlink" width="64" height="64"><defs><linearGradient id="k"><stop offset="0" stop-color="#729fcf"/><stop offset="1" stop-color="#204a87"/></linearGradient><radialGradient xlink:href="#a" id="q" gradientUnits="userSpaceOnUse" gradientTransform="matrix(-2.77439 0 0 1.9697 112.762 -872.885)" cx="605.714" cy="486.648" fx="605.714" fy="486.648" r="117.143"/><linearGradient id="a"><stop offset="0"/><stop offset="1" stop-opacity="0"/></linearGradient><radialGradient xlink:href="#a" id="p" gradientUnits="userSpaceOnUse" gradientTransform="matrix(2.77439 0 0 1.9697 -1891.633 -872.885)" cx="605.714" cy="486.648" fx="605.714" fy="486.648" r="117.143"/><linearGradient id="b"><stop offset="0" stop-opacity="0"/><stop offset=".5"/><stop offset="1" stop-opacity="0"/></linearGradient><linearGradient xlink:href="#b" id="o" gradientUnits="userSpaceOnUse" gradientTransform="matrix(2.77439 0 0 1.9697 -1892.179 -872.885)" x1="302.857" y1="366.648" x2="302.857" y2="609.505"/><linearGradient id="j"><stop offset="0"/><stop offset="1" stop-opacity="0"/></linearGradient><linearGradient id="i"><stop offset="0" stop-color="#204a87"/><stop offset="1" stop-color="#204a87" stop-opacity="0"/></linearGradient><linearGradient id="h"><stop offset="0" stop-color="#fff"/><stop offset="1" stop-color="#d3d7cf"/></linearGradient><linearGradient id="g"><stop offset="0" stop-color="#fff"/><stop offset="1" stop-color="#dcdcdc"/></linearGradient><linearGradient id="f"><stop offset="0"/><stop offset="1" stop-opacity="0"/></linearGradient><linearGradient id="e"><stop offset="0" stop-color="#ef2929"/><stop offset="1" stop-color="#ef2929" stop-opacity="0"/></linearGradient><linearGradient id="c"><stop offset="0" stop-color="#204a87" stop-opacity="0"/><stop offset=".5" stop-color="#204a87"/><stop offset="1" stop-color="#204a87" stop-opacity="0"/></linearGradient><linearGradient id="d"><stop offset="0"/><stop offset="1" stop-opacity="0"/></linearGradient><linearGradient xlink:href="#h" id="r" gradientUnits="userSpaceOnUse" x1="15.664" y1="5.147" x2="27.112" y2="42.353" gradientTransform="translate(-1.892 -17.193) scale(1.39759)"/><linearGradient xlink:href="#k" id="t" gradientUnits="userSpaceOnUse" x1="44" y1="41" x2="53" y2="56"/><linearGradient xlink:href="#l" id="u" gradientUnits="userSpaceOnUse" x1="55" y1="41" x2="51" y2="56"/><linearGradient id="l"><stop offset="0" stop-color="#729fcf"/><stop offset="1" stop-color="#204a87"/></linearGradient><linearGradient xlink:href="#m" id="v" gradientUnits="userSpaceOnUse" x1="46" y1="56" x2="51" y2="39"/><linearGradient id="m"><stop offset="0" stop-color="#729fcf"/><stop offset="1" stop-color="#204a87"/></linearGradient><linearGradient xlink:href="#n" id="w" gradientUnits="userSpaceOnUse" x1="48" y1="54" x2="46" y2="42"/><linearGradient id="n"><stop offset="0" stop-color="#729fcf"/><stop offset="1" stop-color="#204a87"/></linearGradient></defs><g transform="translate(0 16)"><g color="#000"><path style="marker:none" opacity=".402" fill="url(#o)" overflow="visible" d="M-1559.252-150.697h1339.633V327.66h-1339.633z" transform="matrix(.03152 0 0 .03344 60.035 37.042)"/><path d="M-219.619-150.68v478.33c142.874.9 345.4-107.17 345.4-239.196S-33.655-150.68-219.619-150.68z" style="marker:none" opacity=".402" fill="url(#p)" overflow="visible" transform="matrix(.03152 0 0 .03344 60.035 37.042)"/><path style="marker:none" d="M-1559.252-150.68v478.33c-142.875.9-345.4-107.17-345.4-239.196s159.436-239.134 345.4-239.134z" opacity=".402" fill="url(#q)" overflow="visible" transform="matrix(.03152 0 0 .03344 60.035 37.042)"/></g><rect style="marker:none" id="s" width="58" height="58" x="3" y="-13" rx="2.59" ry="2.59" color="#000" fill="url(#r)" fill-rule="evenodd" stroke="#888a85" stroke-width="2" stroke-linecap="round" stroke-linejoin="round" overflow="visible"/><path xlink:href="#s" style="marker:none" d="M5.594-11.969c-.878 0-1.563.685-1.563 1.563v52.812c0 .878.685 1.563 1.563 1.563h52.812c.878 0 1.563-.685 1.563-1.563v-52.812c0-.878-.685-1.563-1.563-1.563H5.594z" transform="matrix(.96536 0 0 .96536 1.108 .554)" color="#000" fill="none" stroke="#fff" stroke-width="2.072" stroke-linecap="round" stroke-linejoin="round" overflow="visible"/><g stroke-width="2"><path transform="translate(0 -16)" d="M57 57V39l-6 6-8-8-6 6 8 8-6 6z" fill="url(#t)" stroke="#0b1521" stroke-linejoin="round"/><path d="M43.844 39H55V27.844l-4 3.984-8-8L39.828 27l8.016 8z" fill="none" stroke="#729fcf"/></g><g stroke-width="2"><path transform="matrix(-1 0 0 1 64 -16)" d="M57 57V39l-6 6-8-8-6 6 8 8-6 6z" fill="url(#u)" stroke="#0b1521" stroke-linejoin="round"/><path d="M20.156 39H9V27.844l4 3.984 8-8L24.172 27l-8.016 8z" fill="none" stroke="#729fcf"/></g><g stroke-width="2"><path transform="matrix(1 0 0 -1 0 48)" d="M57 57V39l-6 6-8-8-6 6 8 8-6 6z" fill="url(#v)" stroke="#0b1521" stroke-linejoin="round"/><path d="M43.844-7H55V4.156L51 .172l-8 8L39.828 5l8.016-8z" fill="none" stroke="#729fcf"/></g><g stroke-width="2"><path transform="rotate(180 32 24)" d="M57 57V39l-6 6-8-8-6 6 8 8-6 6z" fill="url(#w)" stroke="#0b1521" stroke-linejoin="round"/><path d="M20.156-7H9V4.156l4-3.984 8 8L24.172 5l-8.016-8z" fill="none" stroke="#729fcf"/></g></g></svg>