<svg xmlns="http://www.w3.org/2000/svg" xmlns:xlink="http://www.w3.org/1999/xlink" width="64" height="64"><defs><linearGradient id="h"><stop offset="0" stop-color="#34e0e2"/><stop offset="1" stop-color="#16d0d2"/></linearGradient><linearGradient id="b"><stop offset="0"/><stop offset="1" stop-opacity="0"/></linearGradient><linearGradient id="a"><stop offset="0" stop-color="#fff"/><stop offset="1" stop-color="#3465a4" stop-opacity="0"/></linearGradient><linearGradient id="c"><stop offset="0" stop-color="#89d5f8"/><stop offset="1" stop-color="#00899e"/></linearGradient><linearGradient id="d"><stop offset="0" stop-color="#89d5f8"/><stop offset="1" stop-color="#00899e"/></linearGradient><linearGradient id="e"><stop offset="0" stop-color="#89d5f8"/><stop offset="1" stop-color="#00899e"/></linearGradient><linearGradient id="f"><stop offset="0" stop-color="#89d5f8"/><stop offset="1" stop-color="#00899e"/></linearGradient><linearGradient id="g"><stop offset="0" stop-color="#89d5f8"/><stop offset="1" stop-color="#00899e"/></linearGradient><linearGradient xlink:href="#h" id="i" gradientUnits="userSpaceOnUse" x1="9.6" y1="34.76" x2="50.968" y2="23.022"/></defs><g stroke-linecap="round"><path d="M6.902 18.754h45.785V39.88H6.902z" fill="url(#i)" stroke="#042a2a" stroke-width="1.959" stroke-linejoin="round" stroke-dashoffset="6" transform="matrix(.78629 .78629 -.66265 .66265 24 -14.855)"/><path d="M8.701 20.888l42.155.034.086 16.826-42.132-.13z" fill="none" stroke="#34e0e2" stroke-width="1.959" stroke-dashoffset="6" transform="matrix(.78629 .78629 -.66265 .66265 24 -14.855)"/><path d="M15.895 23.022v6.403" fill="none" stroke="#34e0e2" stroke-width="5.878" transform="matrix(.78629 .78629 -.66265 .66265 24 -14.855)"/><path d="M15.895 18.754v10.67" fill="none" stroke="#042a2a" stroke-width="1.959" transform="matrix(.78629 .78629 -.66265 .66265 24 -14.855)"/><path d="M23.09 23.022v3.842" fill="none" stroke="#34e0e2" stroke-width="5.878" transform="matrix(.78629 .78629 -.66265 .66265 24 -14.855)"/><path d="M23.09 18.754v6.402" fill="none" stroke="#042a2a" stroke-width="1.959" transform="matrix(.78629 .78629 -.66265 .66265 24 -14.855)"/><path d="M30.284 23.022v6.403" fill="none" stroke="#34e0e2" stroke-width="5.878" transform="matrix(.78629 .78629 -.66265 .66265 24 -14.855)"/><path d="M30.284 18.754v10.67" fill="none" stroke="#042a2a" stroke-width="1.959" transform="matrix(.78629 .78629 -.66265 .66265 24 -14.855)"/><path d="M37.479 23.022v3.842" fill="none" stroke="#34e0e2" stroke-width="5.878" transform="matrix(.78629 .78629 -.66265 .66265 24 -14.855)"/><path d="M37.479 18.754v6.402" fill="none" stroke="#042a2a" stroke-width="1.959" transform="matrix(.78629 .78629 -.66265 .66265 24 -14.855)"/><path d="M44.673 23.022v6.403" fill="none" stroke="#34e0e2" stroke-width="5.878" transform="matrix(.78629 .78629 -.66265 .66265 24 -14.855)"/><path d="M44.673 18.754v10.67" fill="none" stroke="#042a2a" stroke-width="1.959" transform="matrix(.78629 .78629 -.66265 .66265 24 -14.855)"/></g><path d="M39 53v8c6-2 13-8 14-14v-8L39 53" fill="#06989a" stroke="#042a2a" stroke-width="2" stroke-linejoin="round"/><path d="M41 53.886v4.046C45 56 48.987 51.983 51 48v-4.114z" fill="none" stroke="#16d0d2" stroke-width="2"/></svg>