<svg xmlns="http://www.w3.org/2000/svg" xmlns:xlink="http://www.w3.org/1999/xlink" width="64" height="64"><defs><linearGradient id="d"><stop offset="0" stop-color="#555753"/><stop offset="1" stop-color="#888a85"/></linearGradient><linearGradient id="b"><stop offset="0" stop-color="#3465a4"/><stop offset="1" stop-color="#729fcf"/></linearGradient><linearGradient id="a"><stop offset="0" stop-color="#204a87"/><stop offset="1" stop-color="#729fcf"/></linearGradient><linearGradient xlink:href="#a" id="e" x1="45" y1="1029.362" x2="40" y2="993.362" gradientUnits="userSpaceOnUse" gradientTransform="translate(2)"/><linearGradient xlink:href="#b" id="f" x1="44" y1="1046.362" x2="43" y2="1039.362" gradientUnits="userSpaceOnUse" gradientTransform="translate(2)"/><linearGradient id="c"><stop offset="0" stop-color="#d3d7cf"/><stop offset="1" stop-color="#fff"/></linearGradient><linearGradient gradientTransform="rotate(-75 671.423 534.368)" y2="19.247" x2="49.929" y1="47.315" x1="10.862" gradientUnits="userSpaceOnUse" id="g" xlink:href="#d"/></defs><path d="M34 12.112C38.063 7.759 39.946 6.25 46.441 6c10.078.53 11.684 7.032 11.552 12.077-.352 6.704-6.754 8.7-12.021 10.27V39.34M46 52.438v3.507" fill="none" stroke="#0b1521" stroke-width="8" stroke-linecap="round"/><path d="M34 1000.474c4.063-4.352 5.946-5.862 12.441-6.112 10.078.53 11.684 7.032 11.552 12.077-.352 6.704-6.754 8.7-12.021 10.271v10.992" fill="none" stroke="url(#e)" stroke-width="4" stroke-linecap="round" transform="translate(0 -988.362)"/><path d="M46 1040.8v3.507" fill="none" stroke="url(#f)" stroke-width="4" stroke-linecap="round" transform="translate(0 -988.362)"/><path d="M33.111 11.384c4.063-4.352 5.946-5.862 12.441-6.111 10.078.53 11.684 7.032 11.552 12.077-.351 6.704-6.754 8.7-12.021 10.27v10.993M45.111 51.711v3.507" fill="none" stroke="#729fcf" stroke-width="2" stroke-linecap="round"/><path d="M30.628 1050.529l9.798-5.657-14.142-24.495 13.144-2.69L3 991.362l4.584 44.71 8.902-10.038z" fill="url(#g)" stroke="#2e3436" stroke-width="2" stroke-linejoin="round" transform="translate(0 -988.362)"/><path d="M31.357 59.445L16.742 34.258l-7.6 8.693-3.7-35.72 29.086 21.064-11.329 2.235 14.505 25.25z" fill="none" stroke="#888a85" stroke-width="2"/></svg>