<svg xmlns="http://www.w3.org/2000/svg" xmlns:xlink="http://www.w3.org/1999/xlink" version="1" width="64" height="64"><defs><radialGradient xlink:href="#a" id="i" gradientUnits="userSpaceOnUse" gradientTransform="matrix(-2.77439 0 0 1.9697 112.762 -872.885)" cx="605.714" cy="486.648" fx="605.714" fy="486.648" r="117.143"/><linearGradient id="a"><stop offset="0"/><stop offset="1" stop-opacity="0"/></linearGradient><radialGradient xlink:href="#a" id="h" gradientUnits="userSpaceOnUse" gradientTransform="matrix(2.77439 0 0 1.9697 -1891.633 -872.885)" cx="605.714" cy="486.648" fx="605.714" fy="486.648" r="117.143"/><linearGradient id="b"><stop offset="0" stop-opacity="0"/><stop offset=".5"/><stop offset="1" stop-opacity="0"/></linearGradient><linearGradient xlink:href="#b" id="g" gradientUnits="userSpaceOnUse" gradientTransform="matrix(2.77439 0 0 1.9697 -1892.179 -872.885)" x1="302.857" y1="366.648" x2="302.857" y2="609.505"/><linearGradient id="c"><stop offset="0" stop-color="#fff"/><stop offset=".5" stop-color="#fff520" stop-opacity=".891"/><stop offset="1" stop-color="#fff300" stop-opacity="0"/></linearGradient><linearGradient id="e"><stop offset="0" stop-color="#3465a4"/><stop offset="1" stop-color="#729fcf"/></linearGradient><linearGradient id="d"><stop offset="0"/><stop offset="1" stop-opacity="0"/></linearGradient><linearGradient id="f"><stop offset="0" stop-color="#fff"/><stop offset="1" stop-color="#d3d7cf"/></linearGradient><radialGradient xlink:href="#c" id="l" gradientUnits="userSpaceOnUse" cx="55" cy="125" fx="55" fy="125" r="14.375" gradientTransform="matrix(1.04348 0 0 1.04348 -8.391 -115.435)"/><linearGradient xlink:href="#e" id="k" gradientUnits="userSpaceOnUse" x1="13.009" y1="8.633" x2="13.269" y2="10.802" gradientTransform="matrix(3.84288 0 0 4.60956 -18.992 -33.793)"/><linearGradient xlink:href="#f" id="j" gradientUnits="userSpaceOnUse" gradientTransform="matrix(3.60547 0 0 3.65147 -16.83 -26.182)" x1="13.817" y1="8.665" x2="17.881" y2="21.768"/></defs><g color="#000"><path style="marker:none" opacity=".402" fill="url(#g)" overflow="visible" d="M-1559.252-150.697h1339.633V327.66h-1339.633z" transform="matrix(.03152 0 0 .0209 60.035 57.15)"/><path d="M-219.619-150.68v478.33c142.874.9 345.4-107.17 345.4-239.196S-33.655-150.68-219.619-150.68z" style="marker:none" opacity=".402" fill="url(#h)" overflow="visible" transform="matrix(.03152 0 0 .0209 60.035 57.15)"/><path style="marker:none" d="M-1559.252-150.68v478.33c-142.875.9-345.4-107.17-345.4-239.196s159.436-239.134 345.4-239.134z" opacity=".402" fill="url(#i)" overflow="visible" transform="matrix(.03152 0 0 .0209 60.035 57.15)"/></g><rect width="58" height="58" rx="1.426" ry="1.565" x="3" y="3" style="marker:none" color="#000" fill="url(#j)" fill-rule="evenodd" stroke="#8d8d8d" stroke-width="2" overflow="visible"/><rect width="53.603" height="9.992" rx=".291" ry=".366" x="5.928" y="6.008" style="marker:none" color="#000" fill="url(#k)" fill-rule="evenodd" overflow="visible"/><rect width="54" height="54" rx="0" ry="0" x="5" y="5" style="marker:none" color="#000" fill="none" stroke="#fff" stroke-width="2" overflow="visible"/><path style="marker:none" d="M64 15c0 8.284-6.716 15-15 15-8.284 0-15-6.716-15-15 0-8.284 6.716-15 15-15 8.284 0 15 6.716 15 15z" color="#000" fill="url(#l)" display="block"/></svg>