<svg xmlns="http://www.w3.org/2000/svg" xmlns:xlink="http://www.w3.org/1999/xlink" height="64" width="64"><defs><linearGradient id="a"><stop offset="0" stop-color="#89d5f8"/><stop offset="1" stop-color="#00899e"/></linearGradient><linearGradient id="h"><stop offset="0" stop-color="#729fcf"/><stop offset="1" stop-color="#5187d6"/></linearGradient><linearGradient id="g"><stop offset="0" stop-color="#fff"/><stop offset="1" stop-color="#fff" stop-opacity="0"/></linearGradient><linearGradient id="i"><stop offset="0" stop-color="#fff"/><stop offset="1" stop-color="#fff" stop-opacity="0"/></linearGradient><linearGradient id="e"><stop offset="0" stop-color="#729fcf"/><stop offset="1" stop-color="#528ac5"/></linearGradient><linearGradient id="d"><stop offset="0" stop-color="#3465a4"/><stop offset="1" stop-color="#3465a4"/></linearGradient><linearGradient id="j"><stop offset="0" stop-color="#c4d7eb"/><stop offset="1" stop-color="#c4d7eb" stop-opacity="0"/></linearGradient><linearGradient id="k"><stop offset="0" stop-color="#3977c3"/><stop offset="1" stop-color="#89aedc" stop-opacity="0"/></linearGradient><linearGradient id="f"><stop offset="0" stop-color="#b9cfe7"/><stop offset="1" stop-color="#729fcf"/></linearGradient><linearGradient id="l"><stop offset="0" stop-color="#3465a4"/><stop offset=".333" stop-color="#5b86be"/><stop offset="1" stop-color="#83a8d8" stop-opacity="0"/></linearGradient><linearGradient id="m"><stop offset="0" stop-color="#3465a4"/><stop offset="1" stop-color="#3465a4" stop-opacity="0"/></linearGradient><linearGradient id="n"><stop offset="0"/><stop offset="1" stop-opacity="0"/></linearGradient><linearGradient id="c"><stop offset="0" stop-color="#fff"/><stop offset="1" stop-color="#fff" stop-opacity=".34"/></linearGradient><linearGradient id="b"><stop offset="0"/><stop offset="1" stop-opacity="0"/></linearGradient><linearGradient id="o"><stop offset="0" stop-color="#34e0e2"/><stop offset="1" stop-color="#06989a"/></linearGradient><linearGradient id="p"><stop offset="0" stop-color="#555753"/><stop offset="1" stop-color="#babdb6"/></linearGradient><linearGradient id="q"><stop offset="0" stop-color="#d3d7cf"/><stop offset="1" stop-color="#fff"/></linearGradient><linearGradient id="r"><stop offset="0" stop-color="#555753"/><stop offset="1" stop-color="#babdb6"/></linearGradient><linearGradient xlink:href="#r" id="t" gradientUnits="userSpaceOnUse" gradientTransform="translate(20 20)" x1="56" y1="47" x2="53" y2="39"/><radialGradient xlink:href="#o" id="u" gradientUnits="userSpaceOnUse" gradientTransform="matrix(.38462 .38462 -.84615 .84615 61.897 -11.243)" cx="43.783" cy="41.446" fx="43.783" fy="41.446" r="12.458"/><linearGradient xlink:href="#q" id="s" gradientUnits="userSpaceOnUse" gradientTransform="translate(0 -16)" x1="37" y1="58" x2="27" y2="6"/></defs><path d="M9 3h46v58H19L9 51z" fill="#d3d7cf" stroke="#2e3436" stroke-width="2" stroke-linecap="round" stroke-linejoin="round"/><path d="M11-11h42v54H19l-8-9z" fill="url(#s)" stroke="#fff" stroke-width="2" stroke-linecap="round" transform="translate(0 16)"/><path style="marker:none" d="M81 63c0-1-4-4-8-4 0 0 2 10-2 14z" color="#000" fill="url(#t)" fill-rule="evenodd" stroke="#3f3f3f" stroke-width="1.951" stroke-linejoin="round" overflow="visible" transform="matrix(-1 0 0 1 90.024 -11.976)"/><path d="M16.939 56.149l-6.659-6.454" fill="none" stroke="#babdb6" stroke-width="2"/><path style="marker:none" d="M9.024 51.024c0-1 4-4 8-4 0 0-2 10 2 14z" color="#000" fill="none" stroke="#2e3436" stroke-width="1.951" stroke-linejoin="round" overflow="visible"/><g><path d="M32.059 36.78l4.721-4.721 14.164 14.164-4.721 4.72z" fill="#16d0d2" stroke="#042a2a" stroke-width="1.99946208" stroke-linecap="round" stroke-linejoin="round" stroke-dashoffset="2.04"/><path d="M48.793 46.94L36.99 35.135" fill="none" stroke="#34e0e2" stroke-width="1.99946208"/><path transform="matrix(1.2174 0 0 1.20984 -30.826 -26.925)" d="M59 44.5C59 50.851 53.851 56 47.5 56S36 50.851 36 44.5 41.149 33 47.5 33 59 38.149 59 44.5z" fill="url(#u)" stroke="#042a2a" stroke-width="1.648" stroke-linecap="round" stroke-linejoin="round" stroke-dashoffset="2.04"/><path transform="matrix(1.04348 0 0 1.04348 -22.565 -19.435)" d="M59 44.5C59 50.851 53.851 56 47.5 56S36 50.851 36 44.5 41.149 33 47.5 33 59 38.149 59 44.5z" fill="none" stroke="#34e0e2" stroke-width="1.917" stroke-linecap="round" stroke-linejoin="round" stroke-dashoffset="2.04"/></g></svg>