<svg xmlns="http://www.w3.org/2000/svg" width="64" height="64"><defs><linearGradient id="a"><stop offset="0" stop-color="#c51900"/><stop offset="1" stop-color="#ff5f00"/></linearGradient><linearGradient id="b"><stop offset="0" stop-color="#c51900"/><stop offset="1" stop-color="#ff5f00"/></linearGradient><linearGradient id="c"><stop offset="0" stop-color="#c51900"/><stop offset="1" stop-color="#ff5f00"/></linearGradient></defs><g fill="none" stroke-linecap="round"><path d="M32 32l18-18" stroke="#0b1521" stroke-width="8"/><path d="M58 32a26 26 0 1 1-52 0 26 26 0 1 1 52 0z" stroke="#0b1521" stroke-width="8.00023077" stroke-linejoin="round" stroke-dashoffset="10.8"/><path d="M58 32a26 26 0 1 1-52 0 26 26 0 1 1 52 0z" stroke="#3465a4" stroke-width="3.9996820500000005" stroke-linejoin="round" stroke-dashoffset="10.8"/><path d="M32 32l18-18" stroke="#3465a4" stroke-width="4"/><path d="M59 32a27 27 0 1 1-54 0 27 27 0 1 1 54 0z" stroke="#729fcf" stroke-width="1.9998" stroke-linejoin="round" stroke-dashoffset="10.8"/><path d="M31.269 31.338l18.477-18.504" stroke="#729fcf" stroke-width="2"/></g></svg>