<svg xmlns="http://www.w3.org/2000/svg" width="64" height="64"><defs><linearGradient id="a"><stop offset="0" stop-color="#c51900"/><stop offset="1" stop-color="#ff5f00"/></linearGradient><linearGradient id="b"><stop offset="0" stop-color="#c51900"/><stop offset="1" stop-color="#ff5f00"/></linearGradient><linearGradient id="c"><stop offset="0" stop-color="#c51900"/><stop offset="1" stop-color="#ff5f00"/></linearGradient><linearGradient id="d"><stop offset="0" stop-color="#ff2600"/><stop offset="1" stop-color="#ff5f00"/></linearGradient><linearGradient id="e"><stop offset="0" stop-color="#ff2600"/><stop offset="1" stop-color="#ff5f00"/></linearGradient><linearGradient id="f"><stop offset="0" stop-color="#ff2600"/><stop offset="1" stop-color="#ff5f00"/></linearGradient></defs><path d="M37 33v8L26 28l11-13v8c14 0 24 10 24 26H51c0-8-4-16-14-16z" fill="#c00" stroke="#280000" stroke-width="2" stroke-linejoin="round"/><path d="M35 20.5L28.6 28l6.4 7.5V31c9-1 17 5 18 16h6c0-11-8-23-24-22z" fill="none" stroke="#ef2929" stroke-width="2"/><g stroke-linecap="round" stroke-miterlimit="4.5"><path d="M27 29c0 6.627-5.373 12-12 12S3 35.627 3 29s5.373-12 12-12 12 5.373 12 12z" fill="#c00" stroke="#280000" stroke-width="2"/><path transform="matrix(.83333 0 0 .83333 -10.833 3.167)" d="M43 31c0 6.627-5.373 12-12 12s-12-5.373-12-12 5.373-12 12-12 12 5.373 12 12z" fill="none" stroke="#ef2929" stroke-width="2.4"/></g></svg>