<svg xmlns="http://www.w3.org/2000/svg" width="64" height="64"><defs><linearGradient id="a"><stop offset="0" stop-color="#ff2600"/><stop offset="1" stop-color="#ff5f00"/></linearGradient><linearGradient id="b"><stop offset="0" stop-color="#c51900"/><stop offset="1" stop-color="#ff5f00"/></linearGradient><linearGradient id="c"><stop offset="0" stop-color="#c51900"/><stop offset="1" stop-color="#ff5f00"/></linearGradient><linearGradient id="d"><stop offset="0" stop-color="#c51900"/><stop offset="1" stop-color="#ff5f00"/></linearGradient><linearGradient id="e"><stop offset="0" stop-color="#ff2600"/><stop offset="1" stop-color="#ff5f00"/></linearGradient><linearGradient id="f"><stop offset="0" stop-color="#ff2600"/><stop offset="1" stop-color="#ff5f00"/></linearGradient></defs><path d="M15 15l23 23" fill="none" stroke="#280000" stroke-width="6"/><path d="M15 15l23 23" fill="none" stroke="#ef2929" stroke-width="2"/><g stroke-linecap="round" stroke-miterlimit="4.5"><path d="M27 15c0 6.627-5.373 12-12 12S3 21.627 3 15 8.373 3 15 3s12 5.373 12 12z" fill="#c00" stroke="#280000" stroke-width="2"/><path transform="matrix(.83333 0 0 .83333 -10.833 -10.833)" d="M43 31c0 6.627-5.373 12-12 12s-12-5.373-12-12 5.373-12 12-12 12 5.373 12 12z" fill="none" stroke="#ef2929" stroke-width="2.4"/></g><g transform="rotate(-45 72.373 118.699)" color="#000" stroke-width="2" stroke-linecap="square"><rect transform="rotate(.041)" ry="0" rx="0" y="33.032" x="78.284" height="9.861" width="53.747" style="marker:none" fill="#c00" stroke="#280000" stroke-linejoin="round" overflow="visible"/><rect transform="rotate(.027) skewX(-.037)" ry="0" rx="0" y="35.02" x="80.3" height="5.907" width="49.745" style="marker:none" fill="none" stroke="#ef2929" overflow="visible"/></g></svg>