<svg xmlns="http://www.w3.org/2000/svg" width="64" height="64"><defs><linearGradient id="a"><stop offset="0" stop-color="#ff2600"/><stop offset="1" stop-color="#ff5f00"/></linearGradient><linearGradient id="b"><stop offset="0" stop-color="#c51900"/><stop offset="1" stop-color="#ff5f00"/></linearGradient><linearGradient id="c"><stop offset="0" stop-color="#c51900"/><stop offset="1" stop-color="#ff5f00"/></linearGradient><linearGradient id="d"><stop offset="0" stop-color="#c51900"/><stop offset="1" stop-color="#ff5f00"/></linearGradient><linearGradient id="e"><stop offset="0" stop-color="#ff2600"/><stop offset="1" stop-color="#ff5f00"/></linearGradient></defs><g stroke-width="2"><path d="M14.314 42.615l-5.657-5.657L3 61l24.042-5.657-5.657-5.657 28.284-28.284 5.657 5.657 5.657-24.042L36.94 8.674l5.657 5.657z" fill="#c00" stroke="#280000" stroke-linejoin="round"/><path d="M14.314 45.444l-4.526-4.526-4.101 17.395 17.395-4.101-4.526-4.526L49.67 18.574l4.526 4.525 4.1-17.395-17.394 4.101 4.525 4.526z" fill="none" stroke="#ef2929"/></g><g stroke-linecap="round" stroke-miterlimit="4.5"><path d="M44 32c0 6.627-5.373 12-12 12s-12-5.373-12-12 5.373-12 12-12 12 5.373 12 12z" fill="#c00" stroke="#280000" stroke-width="2"/><path transform="matrix(.83333 0 0 .83333 6.167 6.167)" d="M43 31c0 6.627-5.373 12-12 12s-12-5.373-12-12 5.373-12 12-12 12 5.373 12 12z" fill="none" stroke="#ef2929" stroke-width="2.4"/></g></svg>