<svg xmlns="http://www.w3.org/2000/svg" width="64" height="64"><defs><linearGradient id="a"><stop offset="0" stop-color="#c51900"/><stop offset="1" stop-color="#ff5f00"/></linearGradient><linearGradient id="b"><stop offset="0" stop-color="#c51900"/><stop offset="1" stop-color="#ff5f00"/></linearGradient><linearGradient id="c"><stop offset="0" stop-color="#c51900"/><stop offset="1" stop-color="#ff5f00"/></linearGradient></defs><g fill="none" stroke-linecap="round" stroke-linejoin="round"><path d="M35.84 28.36A42.2 42.2 0 0 1 48.192 57.42" stroke="#280000" stroke-width="7.9994548299999995" stroke-dashoffset="10.8"/><path d="M58 58H6L58 6" stroke="#280000" stroke-width="8"/><path d="M58 58H6L58 6" stroke="#c00" stroke-width="4"/><path d="M35.84 28.36a42.2 42.2 0 0 1 12.347 28.82" stroke="#c00" stroke-width="4.0004601" stroke-dashoffset="10.8"/><path d="M58.3 57.103H5.526l52-52" stroke="#ef2929" stroke-width="2"/><path d="M36.64 27.16A42.2 42.2 0 0 1 49 57" stroke="#ef2929" stroke-width="2.00023005" stroke-dashoffset="10.8"/><g stroke-dashoffset="10.8"><path transform="rotate(-45 32.416 23.365) scale(.94545 .94118)" d="M61 31c0 9.389-12.312 17-27.5 17S6 40.389 6 31s12.312-17 27.5-17S61 21.611 61 31z" stroke="#280000" stroke-width="8.481"/><path transform="rotate(-45 32.416 23.365) scale(.94545 .94118)" d="M61 31c0 9.389-12.312 17-27.5 17S6 40.389 6 31s12.312-17 27.5-17S61 21.611 61 31z" stroke="#c00" stroke-width="4.24"/><path transform="rotate(-45 30.824 25.747) scale(.98182 1)" d="M61 31c0 9.389-12.312 17-27.5 17S6 40.389 6 31s12.312-17 27.5-17S61 21.611 61 31z" stroke="#ef2929" stroke-width="2.018"/></g></g></svg>