<svg xmlns="http://www.w3.org/2000/svg" width="64" height="64"><defs><linearGradient id="a"><stop offset="0" stop-color="#c51900"/><stop offset="1" stop-color="#ff5f00"/></linearGradient><linearGradient id="b"><stop offset="0" stop-color="#c51900"/><stop offset="1" stop-color="#ff5f00"/></linearGradient><linearGradient id="c"><stop offset="0" stop-color="#c51900"/><stop offset="1" stop-color="#ff5f00"/></linearGradient></defs><g fill="none" stroke-linecap="round" stroke-linejoin="round"><path d="M62.557 20.443a29.326 29.326 0 0 1-.632 23.232" transform="matrix(1.2276 0 0 1.2276 -37.366 -7.804)" stroke="#0b1521" stroke-width="6.517" stroke-dashoffset="10.8"/><path d="M58 8L6 31l52 25" stroke="#0b1521" stroke-width="8"/><path d="M58 8L6 31l52 25" stroke="#3465a4" stroke-width="4"/><path d="M62.557 20.443a29.326 29.326 0 0 1-.632 23.232" transform="matrix(1.2276 0 0 1.2276 -37.366 -7.804)" stroke="#3465a4" stroke-width="3.258" stroke-dashoffset="10.8"/><path d="M58 7L6 30l52 25" stroke="#729fcf" stroke-width="2"/><path d="M62.316 19.857a29.326 29.326 0 0 1-.127 23.23" transform="matrix(1.2276 0 0 1.2276 -38.312 -7.67)" stroke="#729fcf" stroke-width="1.629" stroke-dashoffset="10.8"/></g></svg>