<svg xmlns="http://www.w3.org/2000/svg" width="64" height="64"><defs><linearGradient id="f"><stop offset="0" stop-color="#ef2929"/><stop offset="1" stop-color="#a40000"/></linearGradient><linearGradient id="a"><stop offset="0" stop-color="#c51900"/><stop offset="1" stop-color="#ff5f00"/></linearGradient><linearGradient id="b"><stop offset="0" stop-color="#c51900"/><stop offset="1" stop-color="#ff5f00"/></linearGradient><linearGradient id="c"><stop offset="0" stop-color="#c51900"/><stop offset="1" stop-color="#ff5f00"/></linearGradient><linearGradient id="d"><stop offset="0" stop-color="#ff2600"/><stop offset="1" stop-color="#ff5f00"/></linearGradient><linearGradient id="e"><stop offset="0" stop-color="#ff2600"/><stop offset="1" stop-color="#ff5f00"/></linearGradient></defs><g fill="none" stroke-linecap="round" stroke-linejoin="round" stroke-dashoffset="10.8"><path d="M58 32a26 26 0 1 1-52 0 26 26 0 1 1 52 0z" stroke="#280000" stroke-width="8.00023077"/><path d="M58 32a26 26 0 1 1-52 0 26 26 0 1 1 52 0z" stroke="#c00" stroke-width="3.9996820500000005"/><path d="M59 32a27 27 0 1 1-54 0 27 27 0 1 1 54 0z" stroke="#ef2929" stroke-width="1.9998"/><path d="M62 32a30 30 0 1 1-60 0 30 30 0 1 1 60 0z" transform="matrix(.4 0 0 .4 19.2 19.2)" stroke="#280000" stroke-width="20"/><path d="M62 32a30 30 0 1 1-60 0 30 30 0 1 1 60 0z" transform="matrix(.4 0 0 .4 19.2 19.2)" stroke="#c00" stroke-width="10"/><path d="M62 32a30 30 0 1 1-60 0 30 30 0 1 1 60 0z" transform="matrix(.43333 0 0 .43333 18.133 18.133)" stroke="#ef2929" stroke-width="4.615"/></g></svg>