<svg xmlns="http://www.w3.org/2000/svg" width="64" height="64"><defs><linearGradient id="a"><stop offset="0" stop-color="#c51900"/><stop offset="1" stop-color="#ff5f00"/></linearGradient><linearGradient id="b"><stop offset="0" stop-color="#c51900"/><stop offset="1" stop-color="#ff5f00"/></linearGradient><linearGradient id="c"><stop offset="0" stop-color="#c51900"/><stop offset="1" stop-color="#ff5f00"/></linearGradient></defs><g stroke-linecap="round" stroke-dashoffset="10.8"><path d="M61 31a27.5 17 0 1 1-55 0 27.5 17 0 1 1 55 0z" transform="rotate(-45 35.553 30.937) scale(.94545 .94118)" fill="none" stroke="#280000" stroke-width="8.481" stroke-linejoin="round"/><path d="M61 31a27.5 17 0 1 1-55 0 27.5 17 0 1 1 55 0z" transform="rotate(-45 35.553 30.937) scale(.94545 .94118)" fill="none" stroke="#c00" stroke-width="4.24" stroke-linejoin="round"/><path d="M61 31a27.5 17 0 1 1-55 0 27.5 17 0 1 1 55 0z" transform="rotate(-45 33.96 33.32) scale(.98182 1)" fill="none" stroke="#ef2929" stroke-width="2.018" stroke-linejoin="round"/><path transform="matrix(.76923 0 0 .66667 34.692 10.333)" d="M-10 47.5c0 4.142-2.91 7.5-6.5 7.5s-6.5-3.358-6.5-7.5c0-4.142 2.91-7.5 6.5-7.5s6.5 3.358 6.5 7.5z" fill="#3465a4" stroke="#0b1521" stroke-width="2.793"/><path transform="matrix(.46154 0 0 .4 29.615 23)" d="M-10 47.5c0 4.142-2.91 7.5-6.5 7.5s-6.5-3.358-6.5-7.5c0-4.142 2.91-7.5 6.5-7.5s6.5 3.358 6.5 7.5z" fill="none" stroke="#729fcf" stroke-width="4.655"/></g></svg>