<svg xmlns="http://www.w3.org/2000/svg" width="64" height="64"><defs><linearGradient id="a"><stop offset="0" stop-color="#c51900"/><stop offset="1" stop-color="#ff5f00"/></linearGradient><linearGradient id="b"><stop offset="0" stop-color="#c51900"/><stop offset="1" stop-color="#ff5f00"/></linearGradient><linearGradient id="c"><stop offset="0" stop-color="#c51900"/><stop offset="1" stop-color="#ff5f00"/></linearGradient><linearGradient id="d"><stop offset="0" stop-color="#ff2600"/><stop offset="1" stop-color="#ff5f00"/></linearGradient><linearGradient id="e"><stop offset="0" stop-color="#ff2600"/><stop offset="1" stop-color="#ff5f00"/></linearGradient><linearGradient id="f"><stop offset="0" stop-color="#ff2600"/><stop offset="1" stop-color="#ff5f00"/></linearGradient></defs><path d="M22 23v8L11 18 22 5v8c14 0 24 10 24 26H36c0-8-4-16-14-16z" fill="#c00" stroke="#280000" stroke-width="2" stroke-linejoin="round"/><path d="M20 10.5L13.6 18l6.4 7.5V21c9-1 17 5 18 16h6c0-11-8-23-24-22z" fill="none" stroke="#ef2929" stroke-width="2"/><g stroke-linecap="round" stroke-miterlimit="4.5"><path d="M53 49a12 12 0 1 1-24 0 12 12 0 1 1 24 0z" fill="#c00" stroke="#280000" stroke-width="2"/><path transform="matrix(.83333 0 0 .83333 15.167 23.167)" d="M43 31a12 12 0 1 1-24 0 12 12 0 1 1 24 0z" fill="none" stroke="#ef2929" stroke-width="2.4"/></g></svg>