<svg xmlns="http://www.w3.org/2000/svg" width="64" height="64"><defs><linearGradient id="a"><stop offset="0" stop-color="#c51900"/><stop offset="1" stop-color="#ff5f00"/></linearGradient><linearGradient id="b"><stop offset="0" stop-color="#c51900"/><stop offset="1" stop-color="#ff5f00"/></linearGradient><linearGradient id="c"><stop offset="0" stop-color="#c51900"/><stop offset="1" stop-color="#ff5f00"/></linearGradient><linearGradient id="d"><stop offset="0" stop-color="#ff2600"/><stop offset="1" stop-color="#ff5f00"/></linearGradient></defs><g style="-inkscape-font-specification:Arial;marker:none" font-size="54.215" font-weight="400" fill="#ff2600" stroke="#731200" font-family="Arial" color="#000" stroke-width="2" stroke-linecap="butt" stroke-linejoin="round"><path d="M5 11v14l12 8-12 8v14l22-16V27z" fill="#c00" stroke="#280000"/><path d="M7 15v9l13 9-13 9v9l18-13V28z" fill="none" stroke="#ef2929"/><path d="M6.768 37.675v-6.648 6.648l24.367-9.603v-7.388L6.768 11.081v6.648-6.648" style="marker:none;-inkscape-font-specification:Arial" fill="none" stroke="#ef2929" stroke-linejoin="miter" overflow="visible" transform="matrix(.73873 0 0 1.35368 2 0)"/><g style="marker:none;-inkscape-font-specification:Arial"><path d="M59 11v14l-12 8 12 8v14L37 39V27z" fill="#c00" stroke="#280000"/><path d="M57 15v9l-13 9 13 9v9L39 38V28z" fill="none" stroke="#ef2929"/><path d="M6.768 37.675v-6.648 6.648l24.367-9.603v-7.388L6.768 11.081v6.648-6.648" style="marker:none;-inkscape-font-specification:Arial" fill="none" stroke="#ef2929" stroke-linejoin="miter" overflow="visible" transform="matrix(-.73873 0 0 1.35368 62 0)"/></g></g></svg>