<svg xmlns="http://www.w3.org/2000/svg" width="64" height="64"><defs><linearGradient id="a"><stop offset="0" stop-color="#c51900"/><stop offset="1" stop-color="#ff5f00"/></linearGradient><linearGradient id="b"><stop offset="0" stop-color="#c51900"/><stop offset="1" stop-color="#ff5f00"/></linearGradient><linearGradient id="c"><stop offset="0" stop-color="#c51900"/><stop offset="1" stop-color="#ff5f00"/></linearGradient></defs><g fill="none" stroke-linecap="round"><path d="M31.974 32.846l18-18" stroke="#280000" stroke-width="8"/><path d="M61 31a27.5 17 0 1 1-55 0 27.5 17 0 1 1 55 0z" transform="rotate(-45 35.553 30.937) scale(.94545 .94118)" stroke="#280000" stroke-width="8.481" stroke-linejoin="round" stroke-dashoffset="10.8"/><path d="M31.974 32.846l18-18" stroke="#c00" stroke-width="4"/><path d="M61 31a27.5 17 0 1 1-55 0 27.5 17 0 1 1 55 0z" transform="rotate(-45 35.553 30.937) scale(.94545 .94118)" stroke="#c00" stroke-width="4.24" stroke-linejoin="round" stroke-dashoffset="10.8"/><path d="M61 31a27.5 17 0 1 1-55 0 27.5 17 0 1 1 55 0z" transform="rotate(-45 33.96 33.32) scale(.98182 1)" stroke="#ef2929" stroke-width="2.018" stroke-linejoin="round" stroke-dashoffset="10.8"/><path d="M31.156 32.293l18.486-18.509" stroke="#ef2929" stroke-width="2"/></g></svg>