<svg xmlns="http://www.w3.org/2000/svg" width="64" height="64"><defs><linearGradient id="a"><stop offset="0" stop-color="#c51900"/><stop offset="1" stop-color="#ff5f00"/></linearGradient><linearGradient id="b"><stop offset="0" stop-color="#c51900"/><stop offset="1" stop-color="#ff5f00"/></linearGradient><linearGradient id="c"><stop offset="0" stop-color="#c51900"/><stop offset="1" stop-color="#ff5f00"/></linearGradient><linearGradient id="d"><stop offset="0" stop-color="#ff2600"/><stop offset="1" stop-color="#ff5f00"/></linearGradient><linearGradient id="e"><stop offset="0" stop-color="#ff2600"/><stop offset="1" stop-color="#ff5f00"/></linearGradient><linearGradient id="f"><stop offset="0" stop-color="#ff2600"/><stop offset="1" stop-color="#ff5f00"/></linearGradient></defs><g stroke-linecap="round" stroke-miterlimit="4.5"><path d="M10.077 56.034A39 39 0 0 1 58 9.299" fill="none" stroke="#280000" stroke-width="8"/><path d="M10.077 56.034A39 39 0 0 1 58 9.299" fill="none" stroke="#c00" stroke-width="4"/><path d="M5.06 52.034A39 39 0 0 1 52.984 5.299" transform="matrix(1.02041 0 0 1.02011 3.935 2.92)" fill="none" stroke="#ef2929" stroke-width="1.96"/><path d="M31 19a12 12 0 1 1-24 0 12 12 0 1 1 24 0z" fill="#c00" stroke="#280000" stroke-width="2"/><path transform="matrix(.83333 0 0 .83333 -6.833 -6.833)" d="M43 31a12 12 0 1 1-24 0 12 12 0 1 1 24 0z" fill="none" stroke="#ef2929" stroke-width="2.4"/></g></svg>