<svg xmlns="http://www.w3.org/2000/svg" xmlns:xlink="http://www.w3.org/1999/xlink" width="64" height="64"><defs><linearGradient id="a"><stop offset="0" stop-color="#fff"/><stop offset="1" stop-color="#fff" stop-opacity="0"/></linearGradient><linearGradient xlink:href="#b" id="f" gradientUnits="userSpaceOnUse" x1="-18" y1="18" x2="-22" y2="5"/><linearGradient id="b"><stop offset="0" stop-color="#a40000"/><stop offset="1" stop-color="#ef2929"/></linearGradient><linearGradient xlink:href="#c" id="g" gradientUnits="userSpaceOnUse" x1="-18" y1="18" x2="-22" y2="5"/><linearGradient id="c"><stop offset="0" stop-color="#a40000"/><stop offset="1" stop-color="#ef2929"/></linearGradient><linearGradient xlink:href="#d" id="h" gradientUnits="userSpaceOnUse" x1="-18" y1="18" x2="-22" y2="5"/><linearGradient id="d"><stop offset="0" stop-color="#a40000"/><stop offset="1" stop-color="#ef2929"/></linearGradient><linearGradient xlink:href="#e" id="i" gradientUnits="userSpaceOnUse" x1="-18" y1="18" x2="-22" y2="5"/><linearGradient id="e"><stop offset="0" stop-color="#a40000"/><stop offset="1" stop-color="#ef2929"/></linearGradient></defs><path d="M40.069 50.757l-5.044 3.25-14.375-26.02 5.044-3.25z" fill="#d3d7cf" stroke="#2e3436" stroke-width="2.00035515"/><path d="M38 51L24.447 26.741" fill="none" stroke="#fff" stroke-width="2.00035515"/><path d="M14.586 55.453L8.791 53.9l9.615-28.128 5.795 1.553z" fill="#d3d7cf" stroke="#2e3436" stroke-width="2.00035515"/><path d="M11.06 53.158L20 27.549" fill="none" stroke="#fff" stroke-width="2.00035515"/><path d="M40.8 54.746l-5.795-1.553 15.4-44.97 5.796 1.552z" fill="#d3d7cf" stroke="#2e3436" stroke-width="2.00035515"/><path d="M37.275 52.45L52 10" fill="none" stroke="#fff" stroke-width="2.00035515"/><g stroke-width="2" stroke="#ef2929"><path d="M45.172 6.147a8.994 8.993.02 1 1 13.662 11.7 8.994 8.993.02 1 1-13.662-11.7z" fill="none" stroke="#280000"/><path d="M-24.634 6.894A7 7 0 1 1-14 16a7 7 0 0 1-10.634-9.106z" fill="url(#f)" transform="translate(71.328 .565)"/></g><g stroke-width="2"><path d="M31.172 46.153a8.994 8.993.02 1 1 13.662 11.7 8.994 8.993.02 1 1-13.662-11.7z" fill="none" stroke="#280000"/><path d="M-24.634 6.894A7 7 0 1 1-14 16a7 7 0 0 1-10.634-9.106z" fill="url(#g)" stroke="#ef2929" transform="translate(57.328 40.57)"/></g><g stroke-width="2" stroke="#ef2929"><path d="M15.172 20.153a8.994 8.993.02 1 1 13.662 11.7 8.994 8.993.02 1 1-13.662-11.7z" fill="none" stroke="#280000"/><path d="M-24.634 6.894A7 7 0 1 1-14 16a7 7 0 0 1-10.634-9.106z" fill="url(#h)" transform="translate(41.328 14.57)"/></g><g stroke-width="2" stroke="#ef2929"><path d="M5.166 46.153a8.994 8.993.02 1 1 13.662 11.7 8.994 8.993.02 1 1-13.662-11.7z" fill="none" stroke="#280000"/><path d="M-24.634 6.894A7 7 0 1 1-14 16a7 7 0 0 1-10.634-9.106z" fill="url(#i)" transform="translate(31.322 40.57)"/></g></svg>