<svg xmlns="http://www.w3.org/2000/svg" xmlns:xlink="http://www.w3.org/1999/xlink" width="64" height="64"><defs><linearGradient id="a"><stop offset="0" stop-color="#c51900"/><stop offset="1" stop-color="#ff5f00"/></linearGradient><linearGradient id="b"><stop offset="0" stop-color="#c51900"/><stop offset="1" stop-color="#ff5f00"/></linearGradient><linearGradient id="c"><stop offset="0" stop-color="#c51900"/><stop offset="1" stop-color="#ff5f00"/></linearGradient><linearGradient id="d"><stop offset="0" stop-color="#ff2600"/><stop offset="1" stop-color="#ff5f00"/></linearGradient><linearGradient xlink:href="#e" id="h" x1="2802.963" y1="538.362" x2="2859.726" y2="786.056" gradientUnits="userSpaceOnUse"/><linearGradient id="e"><stop offset="0" stop-color="#34e0e2"/><stop offset="1" stop-color="#06989a"/></linearGradient><linearGradient y2="786.056" x2="2859.726" y1="538.362" x1="2802.963" gradientUnits="userSpaceOnUse" id="i" xlink:href="#f"/><linearGradient id="f"><stop offset="0" stop-color="#ef2929"/><stop offset="1" stop-color="#a40000"/></linearGradient><linearGradient xlink:href="#g" id="j" gradientUnits="userSpaceOnUse" x1="2802.963" y1="626.087" x2="2849.406" y2="822.179"/><linearGradient id="g"><stop offset="0" stop-color="#ef2929"/><stop offset="1" stop-color="#a40000"/></linearGradient></defs><g style="-inkscape-font-specification:Arial;marker:none" font-size="54.215" font-weight="400" fill="#ff2600" stroke="#731200" font-family="Arial" color="#000" stroke-width="2.191" stroke-linecap="square" stroke-linejoin="round"><g transform="matrix(.19379 0 0 .19379 -516.18 -95.328)" style="marker:none;-inkscape-font-specification:Arial" fill="url(#h)" stroke="#042a2a" stroke-width="10.321" stroke-linecap="round"><path style="marker:none" d="M2751.36 595.126h0v46.442h30.962l-.248-47.174h-.05c.298-25.07 20.94-45.71 46.74-45.71 25.802 0 46.443 20.64 46.443 46.442h0v46.442h30.962v-46.442h0c0-41.283-25.801-77.405-77.404-77.405-51.603 0-77.405 36.122-77.405 77.405z" fill="url(#i)" fill-rule="evenodd" stroke="#280000" overflow="visible"/><path style="marker:none" fill="url(#j)" fill-rule="evenodd" stroke="#280000" overflow="visible" d="M2730.719 641.568h196.091v154.809h-196.091z"/><path style="marker:none" fill="none" stroke="#ef2929" stroke-linejoin="miter" overflow="visible" d="M2741.04 651.889h175.45v134.168h-175.45z"/></g><path style="marker:none;-inkscape-font-specification:Arial" d="M25.72 26.594h35.196M25.72 32.504h35.196M25.72 38.414h35.196" fill="none" stroke="#a40000" stroke-width="4" stroke-linecap="round" stroke-linejoin="miter" overflow="visible" transform="scale(.73873 1.35368)"/><path style="marker:none;-inkscape-font-specification:Arial" d="M25.72 20.684v-6.648c0-3.694 5.415-8.865 17.598-8.865s17.598 5.171 17.598 8.865v6.648" fill="none" stroke="#ef2929" stroke-width="2" stroke-linecap="butt" stroke-linejoin="miter" overflow="visible" transform="scale(.73873 1.35368)"/></g></svg>