<svg xmlns="http://www.w3.org/2000/svg" width="64" height="64"><defs><linearGradient id="b"><stop offset="0"/><stop offset="1" stop-opacity="0"/></linearGradient><linearGradient id="a"><stop offset="0" stop-color="#0019a3"/><stop offset="1" stop-color="#0069ff"/></linearGradient><linearGradient id="c"><stop offset="0" stop-color="#c00"/><stop offset="1" stop-color="#ef2929"/></linearGradient></defs><g color="#000" fill="none" stroke-linecap="round" stroke-linejoin="round"><path style="marker:none" stroke="#a40000" stroke-width="6.00015656" overflow="visible" d="M5 25h38v34H5z"/><path style="marker:none" d="M48.364 33.273c0 10.041-8.14 18.182-18.182 18.182C20.14 51.455 12 43.315 12 33.273 12 23.23 20.14 15.09 30.182 15.09c10.041 0 18.182 8.14 18.182 18.182z" transform="matrix(1.045 0 0 .99 8.46 -9.94)" stroke="#a40000" stroke-width="5.899" overflow="visible"/><path style="marker:none" stroke="#ef2929" stroke-width="2.00000659" overflow="visible" d="M5 25h38v34H5z"/><path style="marker:none" d="M48.364 33.273c0 10.041-8.14 18.182-18.182 18.182C20.14 51.455 12 43.315 12 33.273 12 23.23 20.14 15.09 30.182 15.09c10.041 0 18.182 8.14 18.182 18.182z" transform="matrix(1.045 0 0 .99 8.46 -9.94)" stroke="#ef2929" stroke-width="1.966" overflow="visible"/></g></svg>