<svg xmlns="http://www.w3.org/2000/svg" xmlns:xlink="http://www.w3.org/1999/xlink" width="64" height="64"><defs><linearGradient id="e"><stop offset="0" stop-color="#729fcf"/><stop offset="1" stop-color="#204a87"/></linearGradient><linearGradient id="b"><stop offset="0" stop-color="#898709"/><stop offset="1"/></linearGradient><linearGradient id="a"><stop offset="0" stop-color="#71b2f8"/><stop offset="1" stop-color="#002795"/></linearGradient><linearGradient id="c"><stop offset="0" stop-color="#fff"/><stop offset="1" stop-color="#fff" stop-opacity="0"/></linearGradient><linearGradient id="d"><stop offset="0" stop-color="#fff"/><stop offset="1" stop-color="#fff" stop-opacity="0"/></linearGradient><radialGradient xlink:href="#e" id="h" cx="225.938" cy="91.957" fx="225.938" fy="91.957" r="22" gradientTransform="matrix(-1.4091 3.86364 -.97565 -.35583 693.794 -749.333)" gradientUnits="userSpaceOnUse"/><linearGradient id="f"><stop offset="0" stop-color="#a40000"/><stop offset="1" stop-color="#ef2929"/></linearGradient><linearGradient y2="5" x2="-22" y1="18" x1="-18" gradientUnits="userSpaceOnUse" id="i" xlink:href="#f" gradientTransform="matrix(.90207 0 0 .90217 -1.906 1.108)"/><linearGradient id="g"><stop offset="0" stop-color="#a40000"/><stop offset="1" stop-color="#ef2929"/></linearGradient><linearGradient y2="5" x2="-22" y1="18" x1="-18" gradientUnits="userSpaceOnUse" id="j" xlink:href="#g" gradientTransform="matrix(.89263 0 0 .89258 72.894 1.218)"/></defs><path d="M289.71 69.887l-22 52c0 8 42 8 42 0z" fill="url(#h)" stroke="#0b1521" stroke-width="2" stroke-linejoin="round" transform="translate(-256.71 -66.887)"/><path d="M33 8L13 55c3 6 35 6 38 0z" fill="none" stroke="#729fcf" stroke-width="2"/><path d="M46 26c-5.57 18.747-16.696 22.144-32 14" fill="none" stroke="#2e3436" stroke-width="8"/><path d="M46 26c-5.57 18.747-16.696 22.144-32 14" fill="none" stroke="#d3d7cf" stroke-width="4"/><path d="M45 26c-5.57 18.747-16 20-31 13" fill="none" stroke="#fff" stroke-width="2"/><g stroke-width="2.526"><path d="M-26.04 5.684a8.838 8.837 89.991 1 1 13.423 11.497A8.838 8.837 89.991 1 1-26.04 5.684z" fill="#ef2929" stroke="#280000" transform="matrix(.79185 0 0 .79172 59.306 18.949)"/><path d="M-24.127 7.328a6.314 6.315 0 1 1 9.592 8.215 6.314 6.315 0 0 1-9.592-8.215z" fill="url(#i)" stroke="#ef2929" transform="matrix(.79185 0 0 .79172 59.306 18.949)"/></g><g stroke-width="2.499"><path d="M49.012 5.745A8.744 8.744.02 1 1 62.295 17.12 8.744 8.744.02 1 1 49.012 5.745z" fill="#ef2929" stroke="#280000" transform="matrix(.80023 0 0 .80022 -28.536 32.852)"/><path d="M50.905 7.37a6.248 6.248 0 1 1 9.492 8.129 6.248 6.248 0 0 1-9.492-8.128z" fill="url(#j)" stroke="#ef2929" transform="matrix(.80023 0 0 .80022 -28.536 32.852)"/></g></svg>