<svg xmlns="http://www.w3.org/2000/svg" xmlns:xlink="http://www.w3.org/1999/xlink" width="64" height="64"><defs><linearGradient id="a"><stop offset="0" stop-color="#fff"/><stop offset="1" stop-color="#fff" stop-opacity="0"/></linearGradient><linearGradient id="b"><stop offset="0" stop-color="#fff"/><stop offset="1" stop-color="#fff" stop-opacity="0"/></linearGradient><linearGradient id="c"><stop offset="0" stop-color="#fff"/><stop offset="1" stop-color="#fff" stop-opacity="0"/></linearGradient><linearGradient id="d"><stop offset="0" stop-color="#fff"/><stop offset="1" stop-color="#fff" stop-opacity="0"/></linearGradient><linearGradient id="e"><stop offset="0" stop-color="#fff"/><stop offset="1" stop-color="#fff" stop-opacity="0"/></linearGradient><linearGradient y2="5" x2="-22" y1="18" x1="-18" gradientUnits="userSpaceOnUse" id="j" xlink:href="#f" gradientTransform="matrix(.53559 0 0 .53557 -6.481 2.804)"/><linearGradient id="f"><stop offset="0" stop-color="#a40000"/><stop offset="1" stop-color="#ef2929"/></linearGradient><linearGradient y2="5" x2="-22" y1="18" x1="-18" gradientTransform="matrix(.53559 0 0 .53557 -6.481 2.804)" gradientUnits="userSpaceOnUse" id="k" xlink:href="#g"/><linearGradient id="g"><stop offset="0" stop-color="#a40000"/><stop offset="1" stop-color="#ef2929"/></linearGradient><linearGradient y2="5" x2="-22" y1="18" x1="-18" gradientTransform="matrix(.53559 0 0 .53557 -6.481 2.804)" gradientUnits="userSpaceOnUse" id="m" xlink:href="#h"/><linearGradient id="h"><stop offset="0" stop-color="#a40000"/><stop offset="1" stop-color="#ef2929"/></linearGradient><linearGradient y2="5" x2="-22" y1="18" x1="-18" gradientUnits="userSpaceOnUse" id="l" xlink:href="#i" gradientTransform="matrix(.53559 0 0 .53557 -6.481 2.804)"/><linearGradient id="i"><stop offset="0" stop-color="#a40000"/><stop offset="1" stop-color="#ef2929"/></linearGradient></defs><path transform="matrix(.41489 -.41429 .41429 .41488 -31.141 44.004)" style="marker:none" d="M78.59 32.671l53.065-.038.007 9.648-53.065.038z" color="#000" stroke-width="3.411" stroke-linecap="square" stroke-linejoin="round" overflow="visible" fill="#c00" stroke="#280000"/><path transform="matrix(.41489 -.41429 .41429 .41488 -23.537 51.603)" style="marker:none" d="M78.584 33.633l53.065-.038.007 9.648-53.065.038z" color="#000" stroke-width="3.411" stroke-linecap="square" stroke-linejoin="round" overflow="visible" fill="#c00" stroke="#280000"/><g stroke="#280000"><path d="M76.867 32.638l54.579-.04.007 10.234-54.579.04z" style="marker:none" transform="matrix(.00042 -.58631 .58631 .00042 21.831 106.055)" color="#000" stroke-width="3.411" stroke-linecap="square" stroke-linejoin="round" overflow="visible" fill="#c00"/><path d="M43 30v30" fill="none" stroke="#ef2929" stroke-width="1.99990341"/></g><g stroke="#172a04" fill="none"><path d="M8 10v46" stroke-width="8"/><path d="M8 10v46" stroke="#73d216" stroke-width="4"/><path d="M7 10v46" stroke="#8ae234" stroke-width="2"/></g><g stroke-width="2.499"><path d="M-21.57 4.87a6.246 6.246.017 1 1 9.488 8.126A6.246 6.246.017 1 1-21.57 4.87z" fill="#ef2929" stroke="#280000" transform="matrix(.80023 0 0 .80022 21.465 .852)"/><path d="M-19.675 6.496a3.75 3.749 0 1 1 5.695 4.877 3.75 3.749 0 0 1-5.695-4.877z" fill="url(#j)" stroke="#ef2929" transform="matrix(.80023 0 0 .80022 21.465 .852)"/></g><g stroke-width="2.499"><path d="M-21.57 4.87a6.246 6.246.017 1 1 9.488 8.126A6.246 6.246.017 1 1-21.57 4.87z" fill="#ef2929" stroke="#280000" transform="matrix(.80023 0 0 .80022 21.465 48.852)"/><path d="M-19.675 6.496a3.75 3.749 0 1 1 5.695 4.877 3.75 3.749 0 0 1-5.695-4.877z" fill="url(#k)" stroke="#ef2929" transform="matrix(.80023 0 0 .80022 21.465 48.852)"/></g><g stroke="#172a04" fill="none"><path d="M56 10v46" stroke-width="8"/><path d="M56 10v46" stroke="#73d216" stroke-width="4"/><path d="M55 10v46" stroke="#8ae234" stroke-width="2"/></g><g stroke-width="2.499"><path d="M-21.57 4.87a6.246 6.246.017 1 1 9.488 8.126A6.246 6.246.017 1 1-21.57 4.87z" fill="#ef2929" stroke="#280000" transform="matrix(.80023 0 0 .80022 69.465 .852)"/><path d="M-19.675 6.496a3.75 3.749 0 1 1 5.695 4.877 3.75 3.749 0 0 1-5.695-4.877z" fill="url(#l)" stroke="#ef2929" transform="matrix(.80023 0 0 .80022 69.465 .852)"/></g><g stroke-width="2.499"><path d="M-21.57 4.87a6.246 6.246.017 1 1 9.488 8.126A6.246 6.246.017 1 1-21.57 4.87z" fill="#ef2929" stroke="#280000" transform="matrix(.80023 0 0 .80022 69.465 48.852)"/><path d="M-19.675 6.496a3.75 3.749 0 1 1 5.695 4.877 3.75 3.749 0 0 1-5.695-4.877z" fill="url(#m)" stroke="#ef2929" transform="matrix(.80023 0 0 .80022 69.465 48.852)"/></g><path d="M37.7 5.1L17.1 25.7M45.7 13.1L25.1 33.7" fill="none" stroke="#ef2929" stroke-width="2"/></svg>