<svg xmlns="http://www.w3.org/2000/svg" xmlns:xlink="http://www.w3.org/1999/xlink" width="64" height="64"><defs><linearGradient id="a"><stop offset="0" stop-color="#fff"/><stop offset="1" stop-color="#fff" stop-opacity="0"/></linearGradient><linearGradient id="b"><stop offset="0" stop-color="#fff"/><stop offset="1" stop-color="#fff" stop-opacity="0"/></linearGradient><linearGradient id="c"><stop offset="0" stop-color="#a40000"/><stop offset="1" stop-color="#ef2929"/></linearGradient><linearGradient id="d"><stop offset="0" stop-color="#a40000"/><stop offset="1" stop-color="#ef2929"/></linearGradient><linearGradient id="e"><stop offset="0" stop-color="#a40000"/><stop offset="1" stop-color="#ef2929"/></linearGradient><linearGradient id="f"><stop offset="0" stop-color="#a40000"/><stop offset="1" stop-color="#ef2929"/></linearGradient><linearGradient xlink:href="#d" id="m" gradientUnits="userSpaceOnUse" gradientTransform="matrix(.8438 0 0 .84382 -3.173 1.913)" x1="-18" y1="18" x2="-22" y2="5"/><linearGradient id="g"><stop offset="0" stop-color="#a40000"/><stop offset="1" stop-color="#ef2929"/></linearGradient><linearGradient y2="5" x2="-22" y1="18" x1="-18" gradientTransform="matrix(.8438 0 0 .84382 -3.173 1.913)" gradientUnits="userSpaceOnUse" id="j" xlink:href="#g"/><linearGradient id="h"><stop offset="0" stop-color="#a40000"/><stop offset="1" stop-color="#ef2929"/></linearGradient><linearGradient y2="5" x2="-22" y1="18" x1="-18" gradientTransform="matrix(.8438 0 0 .84382 -3.173 1.913)" gradientUnits="userSpaceOnUse" id="l" xlink:href="#h"/><linearGradient id="i"><stop offset="0" stop-color="#a40000"/><stop offset="1" stop-color="#ef2929"/></linearGradient><linearGradient y2="5" x2="-22" y1="18" x1="-18" gradientTransform="matrix(.8438 0 0 .84382 -3.173 1.913)" gradientUnits="userSpaceOnUse" id="k" xlink:href="#i"/></defs><path d="M11 59c40 0 2-54 42-54" fill="none" stroke="#172a04" stroke-width="6"/><path d="M53 9H39" fill="none" stroke="#172a04" stroke-width="6" stroke-linecap="round"/><path d="M53 9H39" fill="none" stroke="#8ae234" stroke-width="2" stroke-linecap="round"/><path d="M51 15H35" fill="none" stroke="#172a04" stroke-width="6" stroke-linecap="round"/><path d="M51 15H35" fill="none" stroke="#8ae234" stroke-width="2" stroke-linecap="round"/><path d="M49 21H33" fill="none" stroke="#172a04" stroke-width="6" stroke-linecap="round"/><path d="M49 21H33" fill="none" stroke="#8ae234" stroke-width="2" stroke-linecap="round"/><path d="M47 27H33" fill="none" stroke="#172a04" stroke-width="6" stroke-linecap="round"/><path d="M47 27H33" fill="none" stroke="#8ae234" stroke-width="2" stroke-linecap="round"/><path d="M11 55h14" fill="none" stroke="#172a04" stroke-width="6" stroke-linecap="round"/><path d="M11 55h14" fill="none" stroke="#8ae234" stroke-width="2" stroke-linecap="round"/><path d="M13 49h16" fill="none" stroke="#172a04" stroke-width="6" stroke-linecap="round"/><path d="M13 49h16" fill="none" stroke="#8ae234" stroke-width="2" stroke-linecap="round"/><path d="M15 43h16" fill="none" stroke="#172a04" stroke-width="6" stroke-linecap="round"/><path d="M15 43h16" fill="none" stroke="#8ae234" stroke-width="2" stroke-linecap="round"/><path d="M17 37h14" fill="none" stroke="#172a04" stroke-width="6" stroke-linecap="round"/><path d="M17 37h14" fill="none" stroke="#8ae234" stroke-width="2" stroke-linecap="round"/><g stroke-width="2.953"><path d="M44.45 47.099a5.995 5.997-.002 1 1 9.107 7.802 5.995 5.997-.002 1 1-9.107-7.802z" fill="#ef2929" stroke="#280000" stroke-width="1.99991925"/><path d="M-23.96 7.73a5.907 5.907 0 1 1 8.974 7.684A5.907 5.907 0 0 1-23.96 7.73z" fill="url(#j)" stroke="#ef2929" transform="matrix(.67725 0 0 .67725 62.187 43.164)"/></g><g stroke-width="2.953"><path d="M8.443 9.099A5.995 5.997-.002 1 1 17.55 16.9a5.995 5.997-.002 1 1-9.107-7.802z" fill="#ef2929" stroke="#280000" stroke-width="1.99991925"/><path d="M-23.96 7.73a5.907 5.907 0 1 1 8.974 7.684A5.907 5.907 0 0 1-23.96 7.73z" fill="url(#k)" stroke="#ef2929" transform="matrix(.67725 0 0 .67725 26.18 5.164)"/></g><path d="M11 59c40 0 2-54 42-54" fill="none" stroke="#8ae234" stroke-width="2"/><path d="M52 12c-2 38-38 2-40 40" fill="none" stroke="#2e3436" stroke-width="8"/><path d="M52 12c-2 38-38 2-40 40" fill="none" stroke="#d3d7cf" stroke-width="4"/><path d="M51 12c-2 37-37 0-40 40" fill="none" stroke="#fff" stroke-width="2"/><g stroke-width="2.953"><path d="M48.443 5.099A5.995 5.997-.002 1 1 57.55 12.9a5.995 5.997-.002 1 1-9.107-7.802z" fill="#ef2929" stroke="#280000" stroke-width="1.99991925"/><path d="M-23.96 7.73a5.907 5.907 0 1 1 8.974 7.684A5.907 5.907 0 0 1-23.96 7.73z" fill="url(#l)" stroke="#ef2929" transform="matrix(.67725 0 0 .67725 66.18 1.164)"/></g><g stroke-width="2.953"><path d="M6.45 51.099a5.995 5.997-.002 1 1 9.106 7.802A5.995 5.997-.002 1 1 6.45 51.1z" fill="#ef2929" stroke="#280000" stroke-width="1.99991925"/><path d="M-23.96 7.73a5.907 5.907 0 1 1 8.974 7.684A5.907 5.907 0 0 1-23.96 7.73z" fill="url(#m)" stroke="#ef2929" transform="matrix(.67725 0 0 .67725 24.187 47.164)"/></g></svg>