<svg xmlns="http://www.w3.org/2000/svg" width="64" height="64"><defs><linearGradient id="b"><stop offset="0"/><stop offset="1" stop-opacity="0"/></linearGradient><linearGradient id="a"><stop offset="0" stop-color="#0019a3"/><stop offset="1" stop-color="#0069ff"/></linearGradient><linearGradient id="c"><stop offset="0" stop-color="#c00"/><stop offset="1" stop-color="#ef2929"/></linearGradient></defs><g fill="none" stroke-linecap="round"><path style="marker:none" color="#000" stroke="#a40000" stroke-width="6.00015656" stroke-linejoin="round" overflow="visible" d="M11 9h28v16H11z"/><path style="marker:none" d="M48.364 33.273c0 10.041-8.14 18.182-18.182 18.182C20.14 51.455 12 43.315 12 33.273 12 23.23 20.14 15.09 30.182 15.09c10.041 0 18.182 8.14 18.182 18.182z" transform="matrix(.605 0 0 .55 23.74 -3.3)" color="#000" stroke="#a40000" stroke-width="10.401" stroke-linejoin="round" overflow="visible"/><path style="marker:none" color="#000" stroke="#ef2929" stroke-width="2.00000659" stroke-linejoin="round" overflow="visible" d="M11 9h28v16H11z"/><path style="marker:none" d="M48.364 33.273c0 10.041-8.14 18.182-18.182 18.182C20.14 51.455 12 43.315 12 33.273 12 23.23 20.14 15.09 30.182 15.09c10.041 0 18.182 8.14 18.182 18.182z" transform="matrix(.605 0 0 .55 23.74 -3.3)" color="#000" stroke="#ef2929" stroke-width="3.467" stroke-linejoin="round" overflow="visible"/><g color="#000" stroke-linejoin="round"><path style="marker:none" stroke="#a40000" stroke-width="6.00015656" overflow="visible" d="M11 55h28V39H11z"/><path transform="matrix(.605 0 0 -.55 23.74 67.3)" d="M48.364 33.273c0 10.041-8.14 18.182-18.182 18.182C20.14 51.455 12 43.315 12 33.273 12 23.23 20.14 15.09 30.182 15.09c10.041 0 18.182 8.14 18.182 18.182z" style="marker:none" stroke="#a40000" stroke-width="10.401" overflow="visible"/><path style="marker:none" stroke="#ef2929" stroke-width="2.00000659" overflow="visible" d="M11 55h28V39H11z"/><path transform="matrix(.605 0 0 -.55 23.74 67.3)" d="M48.364 33.273c0 10.041-8.14 18.182-18.182 18.182C20.14 51.455 12 43.315 12 33.273 12 23.23 20.14 15.09 30.182 15.09c10.041 0 18.182 8.14 18.182 18.182z" style="marker:none" stroke="#ef2929" stroke-width="3.467" overflow="visible"/></g><path d="M5 32h54" stroke="#204a87" stroke-width="6" stroke-dasharray="5.9999999600000002,11.99999993" stroke-dashoffset="3"/><path d="M5 32h54" stroke="#729fcf" stroke-width="2.00000659" stroke-dasharray="43.864041649999997,87.728083369999979" stroke-dashoffset="21.932"/></g></svg>