<svg xmlns="http://www.w3.org/2000/svg" xmlns:xlink="http://www.w3.org/1999/xlink" width="64" height="64"><defs><linearGradient id="a"><stop offset="0" stop-color="#fff"/><stop offset="1" stop-color="#fff" stop-opacity="0"/></linearGradient><linearGradient id="b"><stop offset="0" stop-color="#fff"/><stop offset="1" stop-color="#fff" stop-opacity="0"/></linearGradient><linearGradient xlink:href="#c" id="g" gradientUnits="userSpaceOnUse" x1="-18" y1="18" x2="-22" y2="5"/><linearGradient id="c"><stop offset="0" stop-color="#a40000"/><stop offset="1" stop-color="#ef2929"/></linearGradient><linearGradient id="d"><stop offset="0" stop-color="#a40000"/><stop offset="1" stop-color="#ef2929"/></linearGradient><linearGradient xlink:href="#e" id="f" gradientUnits="userSpaceOnUse" x1="-18" y1="18" x2="-22" y2="5"/><linearGradient id="e"><stop offset="0" stop-color="#a40000"/><stop offset="1" stop-color="#ef2929"/></linearGradient></defs><path d="M61 61l-79.23 21.23-58-58L-55-55l79.23-21.23 58 58z" transform="matrix(.32613 -.07958 .08663 .30684 28.762 31.318)" fill="none" stroke="#172a04" stroke-width="24.461" stroke-linecap="round" stroke-linejoin="round" stroke-miterlimit="1.9"/><g stroke-width="2"><path d="M23.166 26.153a8.994 8.993.02 1 1 13.662 11.7 8.994 8.993.02 1 1-13.662-11.7z" fill="#ef2929" stroke="#280000"/><path d="M-24.634 6.894A7 7 0 1 1-14 16a7 7 0 0 1-10.634-9.106z" fill="url(#f)" stroke="#ef2929" transform="translate(49.322 20.57)"/></g><path d="M61 61l-79.23 21.23-58-58L-55-55l79.23-21.23 58 58z" transform="matrix(.32613 -.07958 .08663 .30684 28.762 31.318)" fill="none" stroke="#73d216" stroke-width="12.23" stroke-linecap="round" stroke-linejoin="round" stroke-miterlimit="1.9"/><path transform="matrix(.33972 -.08264 .09024 .31864 28.71 31.292)" d="M-76.23 24.23L-55-55l79.23-21.23 58 58" fill="none" stroke="#8ae234" stroke-width="5.88" stroke-linecap="round" stroke-linejoin="round" stroke-miterlimit="1.9"/><path transform="matrix(.31254 -.07652 .08302 .29504 28.813 31.344)" d="M82.23-18.23L61 61l-79.23 21.23-58-58" fill="none" stroke="#8ae234" stroke-width="6.37" stroke-linecap="round" stroke-linejoin="round" stroke-miterlimit="1.9"/><g stroke-width="2"><path d="M45.166 38.153a8.994 8.993.02 1 1 13.662 11.7 8.994 8.993.02 1 1-13.662-11.7z" fill="#ef2929" stroke="#280000"/><path d="M-24.634 6.894A7 7 0 1 1-14 16a7 7 0 0 1-10.634-9.106z" fill="url(#g)" stroke="#ef2929" transform="translate(71.322 32.57)"/></g></svg>