<svg xmlns="http://www.w3.org/2000/svg" xmlns:xlink="http://www.w3.org/1999/xlink" width="64" height="64"><defs><linearGradient xlink:href="#a" id="g" gradientUnits="userSpaceOnUse" x1="-18" y1="18" x2="-22" y2="5" gradientTransform="matrix(.76342 0 0 .7575 -4.596 2.753)"/><linearGradient id="a"><stop offset="0" stop-color="#a40000"/><stop offset="1" stop-color="#ef2929"/></linearGradient><linearGradient xlink:href="#b" id="h" gradientUnits="userSpaceOnUse" x1="-18" y1="18" x2="-22" y2="5" gradientTransform="matrix(.84957 0 0 .84301 -2.927 1.779)"/><linearGradient id="b"><stop offset="0" stop-color="#a40000"/><stop offset="1" stop-color="#ef2929"/></linearGradient><linearGradient xlink:href="#c" id="i" gradientUnits="userSpaceOnUse" x1="-18" y1="18" x2="-22" y2="5" gradientTransform="matrix(.84957 0 0 .84301 -2.927 1.779)"/><linearGradient id="c"><stop offset="0" stop-color="#a40000"/><stop offset="1" stop-color="#ef2929"/></linearGradient><linearGradient xlink:href="#d" id="j" gradientUnits="userSpaceOnUse" x1="-18" y1="18" x2="-22" y2="5" gradientTransform="matrix(.76342 0 0 .7575 -4.596 2.753)"/><linearGradient id="d"><stop offset="0" stop-color="#a40000"/><stop offset="1" stop-color="#ef2929"/></linearGradient><linearGradient xlink:href="#e" id="k" gradientUnits="userSpaceOnUse" x1="-18" y1="18" x2="-22" y2="5" gradientTransform="matrix(.76342 0 0 .7575 -4.596 2.753)"/><linearGradient id="e"><stop offset="0" stop-color="#a40000"/><stop offset="1" stop-color="#ef2929"/></linearGradient><linearGradient xlink:href="#f" id="l" gradientUnits="userSpaceOnUse" x1="-18" y1="18" x2="-22" y2="5" gradientTransform="matrix(.76342 0 0 .7575 -4.596 2.753)"/><linearGradient id="f"><stop offset="0" stop-color="#a40000"/><stop offset="1" stop-color="#ef2929"/></linearGradient></defs><path d="M104.82 809.42l83.258-13.677-248.616-321.255-83.257 13.677z" fill="#d3d7cf" stroke="#2e3436" stroke-width="26.377" transform="matrix(.05448 -.03594 .02142 .0914 29.04 -32.879)"/><path d="M124.757 754.342l-201.822-260.79" fill="none" stroke="#fff" stroke-width="26.377" transform="matrix(.05448 -.03594 .02142 .0914 29.04 -32.879)"/><path d="M-534.001 558.202l-51.639-66.726 400.847-65.85 51.639 66.726z" fill="#d3d7cf" stroke="#2e3436" stroke-width="26.377" transform="matrix(.05448 -.03594 .02142 .0914 29.04 -32.879)"/><path d="M-511.08 504.297l325.4-53.455" fill="none" stroke="#fff" stroke-width="26.377" transform="matrix(.05448 -.03594 .02142 .0914 29.04 -32.879)"/><g stroke-width="3.549"><path d="M-26.118 5.664a8.938 8.868 0 1 1 13.577 11.537A8.938 8.868 0 1 1-26.118 5.664z" fill="#ef2929" stroke="#280000" transform="matrix(.56138 0 0 .56577 18.858 29.538)"/><path d="M-23.402 7.974a5.344 5.303 0 1 1 8.118 6.899 5.344 5.303 0 0 1-8.118-6.899z" fill="url(#g)" stroke="#ef2929" transform="matrix(.56138 0 0 .56577 18.858 29.538)"/></g><g stroke-width="2.962"><path d="M-26.118 5.664a8.938 8.868 0 1 1 13.577 11.537A8.938 8.868 0 1 1-26.118 5.664z" fill="#ef2929" stroke="#280000" transform="matrix(.6726 0 0 .67786 45.015 3.236)"/><path d="M-23.855 7.59a5.947 5.901 0 1 1 9.034 7.677 5.947 5.901 0 0 1-9.034-7.677z" fill="url(#h)" stroke="#ef2929" transform="matrix(.6726 0 0 .67786 45.015 3.236)"/></g><g stroke-width="2.962"><path d="M-26.118 5.664a8.938 8.868 0 1 1 13.577 11.537A8.938 8.868 0 1 1-26.118 5.664z" fill="#ef2929" stroke="#280000" transform="matrix(.6726 0 0 .67786 45.015 43.236)"/><path d="M-23.855 7.59a5.947 5.901 0 1 1 9.034 7.677 5.947 5.901 0 0 1-9.034-7.677z" fill="url(#i)" stroke="#ef2929" transform="matrix(.6726 0 0 .67786 45.015 43.236)"/></g><g stroke-width="3.549"><path d="M-26.118 5.664a8.938 8.868 0 1 1 13.577 11.537A8.938 8.868 0 1 1-26.118 5.664z" fill="#ef2929" stroke="#280000" transform="matrix(.56138 0 0 .56577 66.832 29.512)"/><path d="M-23.402 7.974a5.344 5.303 0 1 1 8.118 6.899 5.344 5.303 0 0 1-8.118-6.899z" fill="url(#j)" stroke="#ef2929" transform="matrix(.56138 0 0 .56577 66.832 29.512)"/></g><g fill="none"><path d="M-464.51 538.947c173.777 7.743 377.963 88.04 535.987 210.781" stroke="#2e3436" stroke-width="107.834" stroke-miterlimit="0" transform="matrix(.05215 -.03594 .0205 .0914 29 -36.879)"/><path d="M-464.51 538.947c173.777 7.743 377.962 88.04 535.987 210.781" stroke="#d3d7cf" stroke-width="53.917" transform="matrix(.05215 -.03594 .0205 .0914 29 -36.879)"/><path d="M-461.011 530.224c173.777 7.743 377.963 88.04 535.987 210.78" stroke="#fff" stroke-width="26.958" transform="matrix(.05215 -.03594 .0205 .0914 29 -36.879)"/></g><g stroke-width="3.549"><path d="M-26.118 5.664a8.938 8.868 0 1 1 13.577 11.537A8.938 8.868 0 1 1-26.118 5.664z" fill="#ef2929" stroke="#280000" transform="matrix(.56138 0 0 .56577 56.832 21.512)"/><path d="M-23.402 7.974a5.344 5.303 0 1 1 8.118 6.899 5.344 5.303 0 0 1-8.118-6.899z" fill="url(#k)" stroke="#ef2929" transform="matrix(.56138 0 0 .56577 56.832 21.512)"/></g><g stroke-width="3.549"><path d="M-26.118 5.664a8.938 8.868 0 1 1 13.577 11.537A8.938 8.868 0 1 1-26.118 5.664z" fill="#ef2929" stroke="#280000" transform="matrix(.56138 0 0 .56577 28.832 21.512)"/><path d="M-23.402 7.974a5.344 5.303 0 1 1 8.118 6.899 5.344 5.303 0 0 1-8.118-6.899z" fill="url(#l)" stroke="#ef2929" transform="matrix(.56138 0 0 .56577 28.832 21.512)"/></g></svg>