<svg xmlns="http://www.w3.org/2000/svg" xmlns:xlink="http://www.w3.org/1999/xlink" width="64" height="64"><defs><linearGradient id="a"><stop offset="0" stop-color="#fff"/><stop offset="1" stop-color="#fff" stop-opacity="0"/></linearGradient><linearGradient id="b"><stop offset="0" stop-color="#fff"/><stop offset="1" stop-color="#fff" stop-opacity="0"/></linearGradient><linearGradient id="c"><stop offset="0" stop-color="#a40000"/><stop offset="1" stop-color="#ef2929"/></linearGradient><linearGradient id="d"><stop offset="0" stop-color="#a40000"/><stop offset="1" stop-color="#ef2929"/></linearGradient><linearGradient id="e"><stop offset="0" stop-color="#a40000"/><stop offset="1" stop-color="#ef2929"/></linearGradient><linearGradient id="f"><stop offset="0" stop-color="#a40000"/><stop offset="1" stop-color="#ef2929"/></linearGradient><linearGradient id="g"><stop offset="0" stop-color="#a40000"/><stop offset="1" stop-color="#ef2929"/></linearGradient><linearGradient id="h"><stop offset="0" stop-color="#a40000"/><stop offset="1" stop-color="#ef2929"/></linearGradient><linearGradient id="i"><stop offset="0" stop-color="#a40000"/><stop offset="1" stop-color="#ef2929"/></linearGradient><linearGradient id="j"><stop offset="0" stop-color="#a40000"/><stop offset="1" stop-color="#ef2929"/></linearGradient><linearGradient id="k"><stop offset="0" stop-color="#a40000"/><stop offset="1" stop-color="#ef2929"/></linearGradient><linearGradient id="l"><stop offset="0" stop-color="#a40000"/><stop offset="1" stop-color="#ef2929"/></linearGradient><linearGradient id="m"><stop offset="0" stop-color="#a40000"/><stop offset="1" stop-color="#ef2929"/></linearGradient><linearGradient xlink:href="#k" id="r" gradientUnits="userSpaceOnUse" gradientTransform="matrix(.71442 0 0 .71409 -5.531 3.26)" x1="-18" y1="18" x2="-22" y2="5"/><linearGradient id="n"><stop offset="0" stop-color="#a40000"/><stop offset="1" stop-color="#ef2929"/></linearGradient><linearGradient y2="5" x2="-22" y1="18" x1="-18" gradientTransform="matrix(.71442 0 0 .71409 -5.531 3.26)" gradientUnits="userSpaceOnUse" id="s" xlink:href="#n"/><linearGradient xlink:href="#o" id="t" gradientUnits="userSpaceOnUse" gradientTransform="matrix(.71442 0 0 .71409 -5.531 3.26)" x1="-18" y1="18" x2="-22" y2="5"/><linearGradient id="o"><stop offset="0" stop-color="#a40000"/><stop offset="1" stop-color="#ef2929"/></linearGradient><linearGradient xlink:href="#p" id="u" gradientUnits="userSpaceOnUse" gradientTransform="matrix(.71442 0 0 .71409 -5.531 3.26)" x1="-18" y1="18" x2="-22" y2="5"/><linearGradient id="p"><stop offset="0" stop-color="#a40000"/><stop offset="1" stop-color="#ef2929"/></linearGradient><linearGradient id="q"><stop offset="0" stop-color="#3465a4"/><stop offset="1" stop-color="#729fcf"/></linearGradient><linearGradient xlink:href="#q" id="v" gradientUnits="userSpaceOnUse" gradientTransform="translate(-188.444 -101.22)" x1="164.444" y1="161.22" x2="154.444" y2="131.22"/></defs><path d="M56 26c2 22-24 6-26 26" fill="none" stroke="#2e3436" stroke-width="8"/><path d="M56 26c0 22-24 6-26 26" fill="none" stroke="#d3d7cf" stroke-width="4"/><path d="M55 26c1 21-23 5-26 26" fill="none" stroke="#fff" stroke-width="2"/><g stroke-width="3.333"><path d="M-25.659 6.016A8.332 8.328 0 1 1-13 16.85 8.332 8.328 0 1 1-25.66 6.016z" fill="#ef2929" stroke="#280000" transform="matrix(.59988 0 0 .60016 41.596 49.139)"/><path d="M-23.13 8.183a5 4.999 0 1 1 7.597 6.503 5 4.999 0 0 1-7.597-6.503z" fill="url(#r)" stroke="#ef2929" transform="matrix(.59988 0 0 .60016 41.596 49.139)"/></g><g stroke-width="3.333"><path d="M-25.659 6.016A8.332 8.328 0 1 1-13 16.85 8.332 8.328 0 1 1-25.66 6.016z" fill="#ef2929" stroke="#280000" transform="matrix(.59988 0 0 .60016 67.596 19.139)"/><path d="M-23.13 8.183a5 4.999 0 1 1 7.597 6.503 5 4.999 0 0 1-7.597-6.503z" fill="url(#s)" stroke="#ef2929" transform="matrix(.59988 0 0 .60016 67.596 19.139)"/></g><g stroke-width="3.333"><path d="M-25.659 6.016A8.332 8.328 0 1 1-13 16.85 8.332 8.328 0 1 1-25.66 6.016z" fill="#ef2929" stroke="#280000" transform="matrix(.59988 0 0 .60016 43.596 25.139)"/><path d="M-23.13 8.183a5 4.999 0 1 1 7.597 6.503 5 4.999 0 0 1-7.597-6.503z" fill="url(#t)" stroke="#ef2929" transform="matrix(.59988 0 0 .60016 43.596 25.139)"/></g><g stroke-width="3.333"><path d="M-25.659 6.016A8.332 8.328 0 1 1-13 16.85 8.332 8.328 0 1 1-25.66 6.016z" fill="#ef2929" stroke="#280000" transform="matrix(.59988 0 0 .60016 67.596 41.139)"/><path d="M-23.13 8.183a5 4.999 0 1 1 7.597 6.503 5 4.999 0 0 1-7.597-6.503z" fill="url(#u)" stroke="#ef2929" transform="matrix(.59988 0 0 .60016 67.596 41.139)"/></g><path d="M31 44l4-38M6 33h38M17 6l-4 38m31-27H6" fill="none" stroke="#172a04" stroke-width="8" stroke-linecap="round" stroke-linejoin="round"/><path d="M17 6l-4 38m31-27H6M31 44l4-38M6 33h38" fill="none" stroke="#4e9a06" stroke-width="4" stroke-linecap="round" stroke-linejoin="round"/><path d="M30 44l4-38M6 32h38M16 6l-4 38m32-28H6" fill="none" stroke="#8ae234" stroke-width="2" stroke-linecap="round" stroke-linejoin="round"/><g stroke-width="2"><path d="M-34 30v10h-10v10h10v10h10V50h10V40h-10V30z" style="marker:none" color="#000" fill="url(#v)" fill-rule="evenodd" stroke="#0b1521" stroke-linejoin="round" overflow="visible" transform="translate(47 -27)"/><path d="M5 15h10V5h6v10h10v6H21v10h-6V21H5z" fill="none" stroke="#729fcf"/></g></svg>