<svg xmlns="http://www.w3.org/2000/svg" xmlns:xlink="http://www.w3.org/1999/xlink" width="64" height="64"><defs><linearGradient id="e"><stop offset="0" stop-color="#204a87"/><stop offset="1" stop-color="#3465a4"/></linearGradient><linearGradient id="f"><stop offset="0" stop-color="#3465a4"/><stop offset="1" stop-color="#729fcf"/></linearGradient><linearGradient id="a"><stop offset="0" stop-color="#840000"/><stop offset="1" stop-color="#ff2b1e"/></linearGradient><linearGradient id="c"><stop offset="0" stop-color="#00aff9"/><stop offset="1" stop-color="#001ccc"/></linearGradient><linearGradient id="b"><stop offset="0" stop-color="#c8e0f9"/><stop offset="1" stop-color="#637dca"/></linearGradient><linearGradient id="d"><stop offset="0" stop-color="#00aff9"/><stop offset="1" stop-color="#001ccc"/></linearGradient><linearGradient xlink:href="#e" id="k" gradientUnits="userSpaceOnUse" gradientTransform="translate(0 2.389)" x1="138.016" y1="42.93" x2="133.184" y2="13.068"/><linearGradient xlink:href="#f" id="l" gradientUnits="userSpaceOnUse" gradientTransform="translate(0 2.389)" x1="106.608" y1="46.513" x2="105.4" y2="9.484"/><linearGradient id="g"><stop offset="0" stop-color="#d3d7cf"/><stop offset="1" stop-color="#fff"/></linearGradient><linearGradient gradientTransform="matrix(.72698 .06132 0 .6352 -6.573 25.25)" xlink:href="#h" id="n" x1="56" y1="47" x2="53" y2="39" gradientUnits="userSpaceOnUse"/><linearGradient id="h"><stop offset="0" stop-color="#555753"/><stop offset="1" stop-color="#babdb6"/></linearGradient><linearGradient id="i"><stop offset="0" stop-color="#c00"/><stop offset="1" stop-color="#ef2929"/></linearGradient><linearGradient id="j"><stop offset="0" stop-color="#c00"/><stop offset="1" stop-color="#ef2929"/></linearGradient><linearGradient y2="20" x2="6" y1="38" x1="58" gradientTransform="matrix(0 .84135 .6765 .33288 1.897 -3.595)" gradientUnits="userSpaceOnUse" id="m" xlink:href="#g"/><linearGradient xlink:href="#i" id="o" gradientUnits="userSpaceOnUse" gradientTransform="matrix(.12862 0 0 .14302 -250.885 -7.36)" x1="1178.153" y1="1453.871" x2="1105.046" y2="1059.094"/><linearGradient xlink:href="#j" id="p" gradientUnits="userSpaceOnUse" x1="33.053" y1="73.677" x2="23.483" y2="19.131"/></defs><g stroke-width="2.402"><path d="M88.487-.072l33.825 16.723 24.16-9.556-33.824-14.334z" fill="#729fcf" stroke="#0b1521" stroke-linejoin="round" transform="matrix(.8278 0 0 .83717 -60.25 9.06)"/><path d="M122.312 16.651v45.39l24.16-11.944V7.095z" fill="url(#k)" stroke="#0b1521" stroke-linejoin="round" transform="matrix(.8278 0 0 .83717 -60.25 9.06)"/><path d="M122.312 16.651v45.39L88.487 42.93V-.072z" fill="url(#l)" stroke="#0b1521" stroke-linejoin="round" transform="matrix(.8278 0 0 .83717 -60.25 9.06)"/><path d="M119.896 18.102v39.879L90.904 41.56V3.751z" fill="none" stroke="#729fcf" transform="matrix(.8278 0 0 .83717 -60.25 9.06)"/><path d="M124.728 18.24V58.1l19.328-9.452V10.559z" fill="none" stroke="#3465a4" transform="matrix(.8278 0 0 .83717 -60.25 9.06)"/></g><path d="M3.926-.072l33.825 16.644v40.385l-7.249 5.085L3.926 48.727z" style="marker:none" color="#000" fill="url(#m)" fill-rule="evenodd" stroke="#3f3f3f" stroke-width="2.402" stroke-linejoin="round" overflow="visible" transform="matrix(.8278 0 0 .83717 -.25 9.06)"/><path d="M35.335 18.084L6.342 3.751v43.48l24.523 12.302 4.47-3.822z" fill="none" stroke="#fff" stroke-width="2.402" transform="matrix(.8278 0 0 .83717 -.25 9.06)"/><path d="M37.772 56.303c0-.635-2.908-2.786-5.816-3.031 0 0 1.454 6.474-1.454 8.77z" style="marker:none" color="#000" fill="url(#n)" fill-rule="evenodd" stroke="#3f3f3f" stroke-width="2.344" stroke-linejoin="round" overflow="visible" transform="matrix(.8278 0 0 .83717 -.25 9.06)"/><path d="M32.019 59.073l4.84-3.691" fill="none" stroke="#babdb6" stroke-width="2.402" transform="matrix(.8278 0 0 .83717 -.25 9.06)"/><path d="M37.772 56.303c0-.635-2.908-2.786-5.816-3.031 0 0 1.454 6.474-1.454 8.77z" style="marker:none" color="#000" fill="none" stroke="#3f3f3f" stroke-width="2.344" stroke-linejoin="round" overflow="visible" transform="matrix(.8278 0 0 .83717 -.25 9.06)"/><g color="#000" fill="none" stroke-linecap="round" stroke-linejoin="round"><path transform="matrix(.36455 .18108 0 .46598 55.558 -22.931)" style="marker:none" stroke="url(#o)" stroke-width="4.853" overflow="visible" d="M-133.202 159.794h34.791v34.504h-34.791z"/><path style="marker:none" d="M48.364 33.273c0 10.041-8.14 18.182-18.182 18.182C20.14 51.455 12 43.315 12 33.273 12 23.23 20.14 15.09 30.182 15.09c10.041 0 18.182 8.14 18.182 18.182z" transform="matrix(.3622 .1799 0 .43498 9.483 12.445)" stroke="url(#p)" stroke-width="5.039" overflow="visible"/></g></svg>