<svg xmlns="http://www.w3.org/2000/svg" xmlns:xlink="http://www.w3.org/1999/xlink" width="64" height="64"><defs><linearGradient id="a"><stop offset="0" stop-color="#fff"/><stop offset="1" stop-color="#fff" stop-opacity="0"/></linearGradient><linearGradient id="b"><stop offset="0" stop-color="#fff"/><stop offset="1" stop-color="#fff" stop-opacity="0"/></linearGradient><linearGradient id="c"><stop offset="0" stop-color="#fff"/><stop offset="1" stop-color="#fff" stop-opacity="0"/></linearGradient><linearGradient xlink:href="#d" id="h" gradientUnits="userSpaceOnUse" x1="30.203" y1="56.73" x2="35.014" y2="19.843"/><linearGradient id="d"><stop offset="0" stop-color="#d3d7cf"/><stop offset="1" stop-color="#fff"/></linearGradient><linearGradient xlink:href="#e" id="i" gradientUnits="userSpaceOnUse" x1="29.994" y1="54.847" x2="36.095" y2="20.854"/><linearGradient id="e"><stop offset="0" stop-color="#fff"/><stop offset="1" stop-color="#d3d7cf"/></linearGradient><linearGradient id="f"><stop offset="0" stop-color="#4e9a06"/><stop offset="1" stop-color="#73d216"/></linearGradient><linearGradient id="g"><stop offset="0" stop-color="#4e9a06"/><stop offset="1" stop-color="#73d216"/></linearGradient></defs><g fill="none" stroke-linecap="round"><g stroke-miterlimit="1.9"><path transform="matrix(.5986 -.5986 .5986 .5986 -10.438 28.601)" d="M68.461 38.286c0 9.901-16.052 17.927-35.853 17.927-19.8 0-35.853-8.026-35.853-17.927 0-9.9 16.052-17.926 35.853-17.926 19.801 0 35.853 8.026 35.853 17.926z" stroke="#2e3436" stroke-width="9.45"/><path transform="matrix(.62354 -.62354 .62354 .62354 -12.206 28.46)" d="M68.461 38.286c0 9.901-16.052 17.927-35.853 17.927-19.8 0-35.853-8.026-35.853-17.927 0-9.9 16.052-17.926 35.853-17.926 19.801 0 35.853 8.026 35.853 17.926z" stroke="url(#h)" stroke-width="2.268"/><path transform="matrix(.57366 -.57366 .57366 .57366 -8.67 28.743)" d="M69.38 38.286c0 9.432-16.463 17.079-36.772 17.079-20.308 0-36.772-7.647-36.772-17.079S12.3 21.208 32.608 21.208c20.309 0 36.772 7.646 36.772 17.078z" stroke="url(#i)" stroke-width="2.465"/></g><path d="M2287.834 762.123l258.33-246.517" stroke="#0b1521" stroke-width="45.883" transform="matrix(.17032 0 0 .17848 -379.653 -82.05)"/><path d="M2287.834 762.123l258.33-246.517" stroke="#3465a4" stroke-width="22.942" transform="matrix(.17032 0 0 .17848 -379.653 -82.05)"/><path d="M2286.21 754.918l255.44-244.753" stroke="#729fcf" stroke-width="11.471" transform="matrix(.17032 0 0 .17848 -379.653 -82.05)"/></g></svg>