<svg xmlns="http://www.w3.org/2000/svg" xmlns:xlink="http://www.w3.org/1999/xlink" width="64" height="64"><defs><linearGradient id="a"><stop offset="0" stop-color="#fff"/><stop offset="1" stop-color="#fff" stop-opacity="0"/></linearGradient><linearGradient id="b"><stop offset="0" stop-color="#fff"/><stop offset="1" stop-color="#fff" stop-opacity="0"/></linearGradient><linearGradient xlink:href="#c" id="e" gradientUnits="userSpaceOnUse" x1="-18" y1="18" x2="-22" y2="5"/><linearGradient id="c"><stop offset="0" stop-color="#a40000"/><stop offset="1" stop-color="#ef2929"/></linearGradient><linearGradient xlink:href="#d" id="f" gradientUnits="userSpaceOnUse" x1="-18" y1="18" x2="-22" y2="5"/><linearGradient id="d"><stop offset="0" stop-color="#a40000"/><stop offset="1" stop-color="#ef2929"/></linearGradient></defs><path d="M971.313 415.985V752.81h365.577V415.985zm43.87 44.364l274.023-.43v248.958l-274.023.065z" fill="#3465a4" stroke="#0b1521" stroke-width="16.551" stroke-linecap="round" stroke-linejoin="round" transform="matrix(.11218 .02998 -.03262 .12144 -81.404 -70.601)"/><path d="M55.83 11.068l-46.656-.133-.03 42.958" transform="matrix(.82022 .21921 -.23854 .88795 10.378 -.426)" fill="none" stroke="#729fcf" stroke-width="2.17"/><path d="M13 51l39.686.032-.07-36.129" transform="matrix(.82022 .21921 -.23854 .88795 10.378 -.426)" fill="none" stroke="#729fcf" stroke-width="2.264" stroke-linecap="round" stroke-linejoin="round"/><g><g stroke-width="2"><path d="M45.172 18.147a8.994 8.993.02 1 1 13.662 11.7 8.994 8.993.02 1 1-13.662-11.7z" fill="#ef2929" stroke="#280000"/><path d="M-24.634 6.894A7 7 0 1 1-14 16a7 7 0 0 1-10.634-9.106z" fill="url(#e)" stroke="#ef2929" transform="translate(71.328 12.565)"/></g></g><g><g stroke-width="2"><path d="M21.166 30.153a8.994 8.993.02 1 1 13.662 11.7 8.994 8.993.02 1 1-13.662-11.7z" fill="#ef2929" stroke="#280000"/><path d="M-24.634 6.894A7 7 0 1 1-14 16a7 7 0 0 1-10.634-9.106z" fill="url(#f)" stroke="#ef2929" transform="translate(47.322 24.57)"/></g></g></svg>