<svg xmlns="http://www.w3.org/2000/svg" width="64" height="64"><defs><linearGradient id="b"><stop offset="0"/><stop offset="1" stop-opacity="0"/></linearGradient><linearGradient id="a"><stop offset="0" stop-color="#0019a3"/><stop offset="1" stop-color="#0069ff"/></linearGradient><linearGradient id="c"><stop offset="0" stop-color="#c00"/><stop offset="1" stop-color="#ef2929"/></linearGradient><linearGradient id="d"><stop offset="0" stop-color="#c00"/><stop offset="1" stop-color="#ef2929"/></linearGradient></defs><g transform="matrix(.08511 0 0 .08403 -3.894 -76.995)"><path style="marker:none" color="#000" fill="none" stroke="#a40000" stroke-width="70.948" stroke-linecap="round" stroke-linejoin="round" overflow="visible" d="M456.975 1059.073h187.988v190.406H456.975z"/><path transform="matrix(5.184 0 0 5.23618 488.24 896.751)" d="M48.364 33.273a18.182 18.182 0 0 1-18.182 18.182A18.182 18.182 0 0 1 12 33.273 18.182 18.182 0 0 1 30.182 15.09a18.182 18.182 0 0 1 18.182 18.182z" style="marker:none" color="#000" fill="none" stroke="#a40000" stroke-width="13.618" stroke-linecap="round" stroke-linejoin="round" overflow="visible"/><path style="marker:none" color="#000" fill="none" stroke="#ef2929" stroke-width="23.649" stroke-linecap="round" stroke-linejoin="round" overflow="visible" d="M456.975 1059.073h187.988v190.406H456.975z"/><path transform="matrix(5.184 0 0 5.23618 488.24 896.751)" d="M48.364 33.273a18.182 18.182 0 0 1-18.182 18.182A18.182 18.182 0 0 1 12 33.273 18.182 18.182 0 0 1 30.182 15.09a18.182 18.182 0 0 1 18.182 18.182z" style="marker:none" color="#000" fill="none" stroke="#fff" stroke-width="4.539" stroke-linecap="round" stroke-linejoin="round" overflow="visible"/><path style="marker:none" color="#000" overflow="visible" fill="none" stroke="#a40000" stroke-width="70.948" stroke-linecap="round" stroke-linejoin="round" d="M127.995 1404.184h187.988v190.406H127.995z"/><ellipse style="marker:none" cx="315.723" cy="1416.084" rx="94.255" ry="95.203" color="#000" overflow="visible" fill="none" stroke="#a40000" stroke-width="70.948" stroke-linecap="round" stroke-linejoin="round"/><path style="marker:none" color="#000" overflow="visible" fill="none" stroke="#fff" stroke-width="23.649" stroke-linecap="round" stroke-linejoin="round" d="M127.995 1404.184h187.988v190.406H127.995z"/><ellipse style="marker:none" cx="315.723" cy="1416.084" rx="94.255" ry="95.203" color="#000" overflow="visible" fill="none" stroke="#ef2929" stroke-width="23.649" stroke-linecap="round" stroke-linejoin="round"/><path transform="matrix(0 11.9004 -11.74928 0 715.459 975.77)" d="M7 35c0 6 1 8 7 8" fill="none" stroke="#2e3436" stroke-width="6" stroke-linecap="round"/><path d="M198.49 1475.586v-95.203l70.496 47.602z" fill="#d3d7cf" stroke="#2e3436" stroke-width="23.649" stroke-linejoin="round" transform="matrix(0 1.01286 -.9873 0 1620.091 929.431)"/><path transform="matrix(0 11.9004 -11.74928 0 715.459 975.77)" d="M7 35c0 6 1 8 7 8" fill="none" stroke="#d3d7cf" stroke-width="2" stroke-linecap="round"/><g><path d="M644.963 1416.084c0 71.403-11.749 95.204-82.245 95.204" fill="none" stroke="#2e3436" stroke-width="70.948" stroke-linecap="round"/><path d="M574.468 1558.89v-95.204l-70.496 47.602z" fill="#d3d7cf" stroke="#2e3436" stroke-width="23.649" stroke-linejoin="round"/><path d="M644.963 1416.084c0 71.403-11.749 95.204-82.245 95.204" fill="none" stroke="#d3d7cf" stroke-width="23.649" stroke-linecap="round"/></g></g></svg>