<svg xmlns="http://www.w3.org/2000/svg" xmlns:xlink="http://www.w3.org/1999/xlink" width="64" height="64"><defs><linearGradient id="b"><stop offset="0" stop-color="#ef2929"/><stop offset="1" stop-color="#a40000"/></linearGradient><linearGradient id="a"><stop offset="0" stop-color="#fce94f"/><stop offset="1" stop-color="#c4a000"/></linearGradient><linearGradient gradientTransform="translate(12.127 12.127)" y2="1734.258" x2="4157.868" y1="1473.526" x1="4115.423" gradientUnits="userSpaceOnUse" id="c" xlink:href="#b"/></defs><g font-size="40" font-weight="700" stroke-width="12.127" stroke-linecap="round" stroke-linejoin="round" font-family="Copperplate Gothic Bold"><path d="M4163.931 1667.559h-109.144l-33.475 40.747c-3.515 5.209-2.385 4.766-2.906 7.761 0 6.064 3.924 9.914 12.127 12.127v12.127h-97.016v-12.127c5.469-1.042 14.935-3.46 18.19-6.063 3.256-2.605 6.064-6.064 12.127-12.128l139.462-200.096c4.426-6.51 5.282-8.22 6.063-12.127 1.302-5.99.968-9.523-6.063-12.127v-12.127h97.016v12.127c-12.127 0-17.15.595-18.19 6.063-.782 3.777-.654 6.304.91 11.122l60.35 205.468c2.604 8.724 2.834 10.57 5.438 13.825 2.604 3.125 6.919 5.022 12.127 6.063v12.127h-97.016v-12.127c8.984-1.432 10.825-5.486 12.127-12.127.52-2.734 1.562-6.788 0-12.127l-12.127-36.381m0-36.381l-24.254-97.017-72.763 97.017h97.017" style="-inkscape-font-specification:'Copperplate Gothic Bold, Bold'" fill="url(#c)" stroke="#302b00" transform="translate(-643.717 -232.014) scale(.16492)"/><path d="M44.277 41H24.148l-5.964 7.216c-1.48 1.914-1.084 2.915-1.253 3.125 0 .932 1.519 1.41 2.747 1.75l.204-.023L7 53l-.614.477c.819-.16 3.85-.895 4.336-1.295.487-.4 1.226-1.387 2.02-2.546L32.066 21.91c.663-1 2.61-3.695 3.135-4.704.559-.92 1.509-3.714.456-4.114L33.976 13h14.04l-2.158-.114c-1.815 0-1.771.865-1.904 1.523-.117.58.106 1.287.34 2.027l9.168 31.19c.39 1.34.402 1.601.632 2.465.594 1.64.217 2.044.997 2.204L58 53H44l2.068-1.023c.822-1.47.852-1.07 1.046-2.09.078-.42-.425-2.09-.659-2.91l-2.133-5.84m.736-3.037l-5.502-20.214-14.812 20.191 20.125.004" style="-inkscape-font-specification:'Copperplate Gothic Bold, Bold'" fill="none" stroke="#ef2929" stroke-width="1.9999848400000002"/><path d="M43 43H25l-5.52 6.72c-.58.86-.394.786-.48 1.28 0 1 .647 1.635 2 2v2H5v-2c.902-.172 2.463-.57 3-1 .537-.43 1-1 2-2l23-33c.73-1.074.871-1.356 1-2 .215-.988.16-1.57-1-2v-2h16v2c-2 0-2.828.098-3 1-.129.623-.108 1.04.15 1.834l9.953 33.886c.43 1.439.467 1.743.897 2.28.43.515 1.141.828 2 1v2H43v-2c1.482-.236 1.785-.905 2-2 .086-.45.258-1.12 0-2l-2-6m0-6l-4-16-12 16h16" style="-inkscape-font-specification:'Copperplate Gothic Bold, Bold'" fill="none" stroke="#280000" stroke-width="1.9999848400000002"/></g></svg>