<svg xmlns="http://www.w3.org/2000/svg" xmlns:xlink="http://www.w3.org/1999/xlink" width="64" height="64"><defs><linearGradient id="f"><stop offset="0" stop-color="#204a87"/><stop offset="1" stop-color="#729fcf"/></linearGradient><linearGradient id="d"><stop offset="0" stop-color="#4e9a06"/><stop offset="1" stop-color="#4e9a06"/></linearGradient><linearGradient id="a"><stop offset="0" stop-color="#c51900"/><stop offset="1" stop-color="#ff5f00"/></linearGradient><linearGradient id="b"><stop offset="0" stop-color="#c51900"/><stop offset="1" stop-color="#ff5f00"/></linearGradient><linearGradient id="c"><stop offset="0" stop-color="#c51900"/><stop offset="1" stop-color="#ff5f00"/></linearGradient><linearGradient xlink:href="#d" id="h" x1="18" y1="39" x2="12" y2="11" gradientUnits="userSpaceOnUse"/><linearGradient xlink:href="#e" id="g" x1="22" y1="27" x2="9" y2="30" gradientUnits="userSpaceOnUse"/><linearGradient id="e"><stop offset="0" stop-color="#a40000"/><stop offset="1" stop-color="#ef2929"/></linearGradient><linearGradient xlink:href="#f" id="i" x1="20.785" y1="58.825" x2="12.005" y2="36.248" gradientUnits="userSpaceOnUse"/></defs><g stroke-width="2"><path d="M21 51V17h6L15 3 3 17h6v34z" style="marker:none" color="#000" fill="url(#g)" stroke="#280000" stroke-linecap="round" stroke-linejoin="round" overflow="visible" transform="rotate(90 15 49)"/><path d="M25 45h24v-3.6l8.9 7.6-8.9 7.6V53H25" fill="none" stroke="#ef2929"/></g><g stroke-width="2"><path d="M21 51V17h6L15 3 3 17h6v34z" style="marker:none" color="#000" fill="url(#h)" stroke="#172a04" stroke-linecap="round" stroke-linejoin="round" overflow="visible"/><path d="M11 39V15H7.4L15 6.1l7.6 8.9H19v24" fill="none" stroke="#8ae234"/></g><path d="M29 48a13 13 0 1 1-26 0 13 13 0 1 1 26 0z" fill="#729fcf" stroke="#0b1521" stroke-width="2.00035429" stroke-linecap="round" stroke-linejoin="round" stroke-dashoffset="2.04"/><path d="M29.565 47.536a13.797 13.797 0 1 1-27.594 0 13.797 13.797 0 1 1 27.594 0z" transform="matrix(.79727 0 0 .79727 3.429 10.1)" fill="url(#i)" stroke="#729fcf" stroke-width="2.509" stroke-linecap="round" stroke-linejoin="round" stroke-dashoffset="2.04"/><path d="M39 5l-4 4 10 10v14h6V19L61 9l-4-4-9 9z" fill="#8ae234" stroke="#172a04" stroke-width="2" stroke-linejoin="round"/></svg>