<svg xmlns="http://www.w3.org/2000/svg" xmlns:xlink="http://www.w3.org/1999/xlink" width="64" height="64"><defs><linearGradient id="a"><stop offset="0" stop-color="#fff"/><stop offset="1" stop-color="#fff" stop-opacity="0"/></linearGradient><linearGradient id="b"><stop offset="0" stop-color="#fff"/><stop offset="1" stop-color="#fff" stop-opacity="0"/></linearGradient><linearGradient y2="5" x2="-22" y1="18" x1="-18" gradientUnits="userSpaceOnUse" id="g" xlink:href="#c"/><linearGradient id="c"><stop offset="0" stop-color="#a40000"/><stop offset="1" stop-color="#ef2929"/></linearGradient><linearGradient id="d"><stop offset="0" stop-color="#4e9a06"/><stop offset="1" stop-color="#8ae234"/></linearGradient><linearGradient id="e"><stop offset="0" stop-color="#a40000"/><stop offset="1" stop-color="#ef2929"/></linearGradient><linearGradient y2="5" x2="-22" y1="18" x1="-18" gradientUnits="userSpaceOnUse" id="i" xlink:href="#e"/><linearGradient id="f"><stop offset="0" stop-color="#4e9a06"/><stop offset="1" stop-color="#8ae234"/></linearGradient><linearGradient y2="5" x2="-22" y1="18" x1="-18" gradientUnits="userSpaceOnUse" id="h" xlink:href="#f"/></defs><path d="M12 12S6 52 31 52s21-40 21-40" fill="none" stroke="#2e3436" stroke-width="7.999815459999999"/><path d="M12 12S6 52 31 52s21-40 21-40" fill="none" stroke="#d3d7cf" stroke-width="3.9999077299999994"/><path d="M13 11S7 51 31 51s20-40 20-40" fill="none" stroke="#fff" stroke-width="1.99988085"/><g stroke-width="2"><path d="M45.166 6.147a8.994 8.993.02 1 1 13.662 11.7 8.994 8.993.02 1 1-13.662-11.7z" fill="#ef2929" stroke="#280000"/><path d="M-24.634 6.894A7 7 0 1 1-14 16a7 7 0 0 1-10.634-9.106z" fill="url(#g)" stroke="#ef2929" transform="translate(71.322 .565)"/></g><g stroke-width="2"><path d="M5.172 6.147a8.994 8.993.02 1 1 13.662 11.7 8.994 8.993.02 1 1-13.662-11.7z" fill="#8ae234" stroke="#172a04"/><path d="M-24.634 6.894A7 7 0 1 1-14 16a7 7 0 0 1-10.634-9.106z" fill="url(#h)" stroke="#8ae234" transform="translate(31.328 .565)"/></g><g stroke-width="2"><path d="M24.172 46.147a8.994 8.993.02 1 1 13.662 11.7 8.994 8.993.02 1 1-13.662-11.7z" fill="#ef2929" stroke="#280000"/><path d="M-24.634 6.894A7 7 0 1 1-14 16a7 7 0 0 1-10.634-9.106z" fill="url(#i)" stroke="#ef2929" transform="translate(50.328 40.565)"/></g></svg>