<svg xmlns="http://www.w3.org/2000/svg" xmlns:xlink="http://www.w3.org/1999/xlink" width="64" height="64"><defs><linearGradient id="a"><stop offset="0" stop-color="#fff"/><stop offset="1" stop-color="#fff" stop-opacity="0"/></linearGradient><linearGradient xlink:href="#b" id="d" gradientUnits="userSpaceOnUse" x1="-18" y1="18" x2="-22" y2="5"/><linearGradient id="b"><stop offset="0" stop-color="#a40000"/><stop offset="1" stop-color="#ef2929"/></linearGradient><linearGradient xlink:href="#c" id="e" gradientUnits="userSpaceOnUse" x1="-18" y1="18" x2="-22" y2="5"/><linearGradient id="c"><stop offset="0" stop-color="#a40000"/><stop offset="1" stop-color="#ef2929"/></linearGradient></defs><path d="M971.313 415.985V752.81h365.577V415.985zm43.87 44.364l274.023-.43v248.958l-274.023.065z" fill="#d3d7cf" stroke="#2e3436" stroke-width="15.257" stroke-linecap="round" stroke-linejoin="round" transform="matrix(.12583 0 0 .13657 -113.219 -47.81)"/><path d="M55.913 10.935H9.173V54" transform="matrix(.92 0 0 .99853 2.56 .08)" fill="none" stroke="#fff" stroke-width="2"/><path d="M13 51l39.686.032-.07-36.129" transform="matrix(.92 0 0 .99853 2.56 .08)" fill="none" stroke="#fff" stroke-width="2.087" stroke-linecap="round" stroke-linejoin="round"/><g><g stroke-width="2"><path d="M45.172 6.147a8.994 8.993.02 1 1 13.662 11.7 8.994 8.993.02 1 1-13.662-11.7z" fill="none" stroke="#280000"/><path d="M-24.634 6.894A7 7 0 1 1-14 16a7 7 0 0 1-10.634-9.106z" fill="url(#d)" stroke="#ef2929" transform="matrix(1 0 0 1 71.328 .565)"/></g></g><g><g stroke-width="2"><path d="M5.166 46.153a8.994 8.993.02 1 1 13.662 11.7 8.994 8.993.02 1 1-13.662-11.7z" fill="none" stroke="#280000"/><path d="M-24.634 6.894A7 7 0 1 1-14 16a7 7 0 0 1-10.634-9.106z" fill="url(#e)" stroke="#ef2929" transform="matrix(1 0 0 1 31.322 40.57)"/></g></g></svg>