<svg xmlns="http://www.w3.org/2000/svg" xmlns:xlink="http://www.w3.org/1999/xlink" width="64" height="64"><defs><linearGradient id="a"><stop offset="0" stop-color="#fff"/><stop offset="1" stop-color="#fff" stop-opacity="0"/></linearGradient><linearGradient id="b"><stop offset="0" stop-color="#fff"/><stop offset="1" stop-color="#fff" stop-opacity="0"/></linearGradient><linearGradient id="c"><stop offset="0" stop-color="#fff"/><stop offset="1" stop-color="#fff" stop-opacity="0"/></linearGradient><linearGradient y2="5" x2="-22" y1="18" x1="-18" gradientUnits="userSpaceOnUse" id="f" xlink:href="#d" gradientTransform="matrix(.53559 0 0 .53557 -6.481 2.804)"/><linearGradient id="d"><stop offset="0" stop-color="#a40000"/><stop offset="1" stop-color="#ef2929"/></linearGradient><linearGradient y2="5" x2="-22" y1="18" x1="-18" gradientTransform="matrix(.53559 0 0 .53557 -6.481 2.804)" gradientUnits="userSpaceOnUse" id="g" xlink:href="#e"/><linearGradient id="e"><stop offset="0" stop-color="#a40000"/><stop offset="1" stop-color="#ef2929"/></linearGradient></defs><g font-size="54.215" font-weight="400" color="#000" fill="#ff2600" stroke-width="3.167" stroke-linecap="butt" stroke-linejoin="round" font-family="Arial"><g style="marker:none;-inkscape-font-specification:Arial" stroke="#a40000"><path d="M3.994 8.078v10.373l16.448 5.927-16.448 5.927v10.373l30.155-11.855v-8.89z" fill="#73d216" stroke="#172a04" transform="matrix(-.46427 0 0 .8589 62.854 26.062)"/><path d="M6.132 16.766v6.462L19.591 33 6.113 42l.02 6.794L22.043 37.21v-8.58z" transform="matrix(-.62847 0 0 .63449 62.854 26.062)" fill="none" stroke="#8ae234"/><path style="marker:none;-inkscape-font-specification:Arial" d="M8.301 36.045l-.025-5.018.025 5.018 21.54-8.556v-6.338L8.3 12.386v4.773-4.773" fill="none" stroke="#8ae234" stroke-linejoin="miter" overflow="visible" transform="matrix(-.46427 0 0 .8589 62.854 26.062)"/></g><g style="marker:none;-inkscape-font-specification:Arial" stroke="#731200"><path d="M-69.24 8.078v10.373l16.448 5.927-16.448 5.927v10.373l30.155-11.855v-8.89z" fill="#73d216" stroke="#172a04" transform="matrix(.46427 0 0 .8589 59.146 26.062)"/><path d="M-64.932 12.386v4.773l18.218 7.219-18.244 6.649.026 5.018 21.54-8.556v-6.338z" fill="none" stroke="#8ae234" transform="matrix(.46427 0 0 .8589 59.146 26.062)"/><path style="marker:none;-inkscape-font-specification:Arial" d="M-64.932 36.045l-.026-5.018.026 5.018 21.54-8.556v-6.338l-21.54-8.765v4.773-4.773" fill="none" stroke="#8ae234" stroke-linejoin="miter" overflow="visible" transform="matrix(.46427 0 0 .8589 59.146 26.062)"/></g></g><path transform="matrix(.41489 -.41429 .41429 .41488 -19.141 44.004)" style="marker:none" d="M78.59 32.671l53.065-.038.007 9.648-53.065.038z" color="#000" fill="#73d216" stroke="#172a04" stroke-width="3.411" stroke-linecap="square" stroke-linejoin="round" overflow="visible"/><path transform="matrix(.41489 -.41429 .41429 .41488 -11.537 51.603)" style="marker:none" d="M78.584 33.633l53.065-.038.007 9.648-53.065.038z" color="#000" stroke="#172a04" stroke-width="3.411" stroke-linecap="square" stroke-linejoin="round" overflow="visible" fill="#73d216"/><path d="M76.867 32.638l54.579-.04.007 10.234-54.579.04z" style="marker:none" transform="matrix(.00042 -.58631 .58631 .00042 -2.169 94.055)" color="#000" fill="#73d216" stroke="#172a04" stroke-width="3.411" stroke-linecap="square" stroke-linejoin="round" overflow="visible"/><path d="M19 18v30" fill="none" stroke="#8ae234" stroke-width="1.99990341"/><g fill="none"><path d="M8 10v46" stroke="#2e3436" stroke-width="8"/><path d="M8 10v46" stroke="#d3d7cf" stroke-width="4"/><path d="M7 10v46" stroke="#fff" stroke-width="2"/></g><g stroke-width="2.499"><path d="M-21.57 4.87a6.246 6.246.017 1 1 9.488 8.126A6.246 6.246.017 1 1-21.57 4.87z" fill="#ef2929" stroke="#280000" transform="matrix(.80023 0 0 .80022 21.465 .852)"/><path d="M-19.675 6.496a3.75 3.749 0 1 1 5.695 4.877 3.75 3.749 0 0 1-5.695-4.877z" fill="url(#f)" stroke="#ef2929" transform="matrix(.80023 0 0 .80022 21.465 .852)"/></g><g stroke-width="2.499"><path d="M-21.57 4.87a6.246 6.246.017 1 1 9.488 8.126A6.246 6.246.017 1 1-21.57 4.87z" fill="#ef2929" stroke="#280000" transform="matrix(.80023 0 0 .80022 21.465 48.852)"/><path d="M-19.675 6.496a3.75 3.749 0 1 1 5.695 4.877 3.75 3.749 0 0 1-5.695-4.877z" fill="url(#g)" stroke="#ef2929" transform="matrix(.80023 0 0 .80022 21.465 48.852)"/></g><path d="M49.7 5.1L29.1 25.7M57.7 13.1L37.1 33.7" fill="none" stroke="#8ae234" stroke-width="2"/></svg>