<svg xmlns="http://www.w3.org/2000/svg" xmlns:xlink="http://www.w3.org/1999/xlink" width="64" height="64"><defs><linearGradient id="i"><stop offset="0" stop-color="#d3d7cf"/><stop offset="1" stop-color="#fff"/></linearGradient><linearGradient id="h"><stop offset="0" stop-color="#fff"/><stop offset="1" stop-color="#d3d7cf"/></linearGradient><linearGradient id="b"><stop offset="0" stop-color="#898709"/><stop offset="1"/></linearGradient><linearGradient id="a"><stop offset="0" stop-color="#71b2f8"/><stop offset="1" stop-color="#002795"/></linearGradient><linearGradient id="c"><stop offset="0" stop-color="#fff"/><stop offset="1" stop-color="#fff" stop-opacity="0"/></linearGradient><linearGradient id="d"><stop offset="0" stop-color="#fff"/><stop offset="1" stop-color="#fff" stop-opacity="0"/></linearGradient><linearGradient id="e"><stop offset="0" stop-color="#a40000"/><stop offset="1" stop-color="#ef2929"/></linearGradient><linearGradient id="f"><stop offset="0" stop-color="#a40000"/><stop offset="1" stop-color="#ef2929"/></linearGradient><linearGradient id="g"><stop offset="0" stop-color="#729fcf"/><stop offset="1" stop-color="#204a87"/></linearGradient><radialGradient r="22" fy="91.957" fx="225.938" cy="91.957" cx="225.938" gradientTransform="matrix(-1.70647 4.67317 -1.18156 -.43038 776.903 -933.083)" gradientUnits="userSpaceOnUse" id="p" xlink:href="#g"/><linearGradient xlink:href="#h" id="r" x1="-24.035" y1="16.851" x2="-23.821" y2="7.288" gradientUnits="userSpaceOnUse"/><linearGradient xlink:href="#i" id="q" x1="-23.071" y1="18.384" x2="-24.194" y2="6.534" gradientUnits="userSpaceOnUse"/><linearGradient id="j"><stop offset="0" stop-color="#a40000"/><stop offset="1" stop-color="#ef2929"/></linearGradient><linearGradient id="k"><stop offset="0" stop-color="#a40000"/><stop offset="1" stop-color="#ef2929"/></linearGradient><linearGradient id="l"><stop offset="0" stop-color="#a40000"/><stop offset="1" stop-color="#ef2929"/></linearGradient><linearGradient id="m"><stop offset="0" stop-color="#a40000"/><stop offset="1" stop-color="#ef2929"/></linearGradient><linearGradient xlink:href="#m" id="s" gradientUnits="userSpaceOnUse" gradientTransform="matrix(.7143 0 0 .71426 259.503 71.71)" x1="-18" y1="18" x2="-22" y2="5"/><linearGradient id="n"><stop offset="0" stop-color="#a40000"/><stop offset="1" stop-color="#ef2929"/></linearGradient><linearGradient y2="5" x2="-22" y1="18" x1="-18" gradientTransform="matrix(.7143 0 0 .71426 259.503 71.71)" gradientUnits="userSpaceOnUse" id="t" xlink:href="#n"/><linearGradient id="o"><stop offset="0" stop-color="#a40000"/><stop offset="1" stop-color="#ef2929"/></linearGradient><linearGradient y2="5" x2="-22" y1="18" x1="-18" gradientTransform="matrix(.7143 0 0 .71426 259.503 71.71)" gradientUnits="userSpaceOnUse" id="u" xlink:href="#o"/></defs><path d="M274.219 89.233l-13.321 31.448c0 9.676 50.863 9.676 50.863 0l-15.743-41.124z" fill="url(#p)" stroke="#0b1521" stroke-width="2" stroke-linejoin="round" transform="translate(-256.71 -66.887)"/><path d="M19.326 24.161L6.31 54.095c3.633 7.257 43.087 7.157 46.72-.1l-15.175-38.18z" fill="none" stroke="#729fcf" stroke-width="2"/><path d="M-12 12.5a11.5 5.5 0 1 1-23 0 11.5 5.5 0 1 1 23 0z" transform="matrix(.95227 -.61979 .52253 1.02027 43.83 -7.995)" fill="#729fcf" stroke="#0b1521" stroke-width="1.757" stroke-linecap="round" stroke-linejoin="round" stroke-miterlimit="4.5"/><path d="M-12 12.5a11.5 5.5 0 1 1-23 0 11.5 5.5 0 1 1 23 0z" transform="matrix(1.00905 -.61488 .55369 1.0122 44.792 -8.102)" fill="none" stroke="#2e3436" stroke-width="6.855" stroke-linecap="round" stroke-linejoin="round" stroke-miterlimit="4.5"/><path d="M-12.66 12.5a10.84 5.5 0 1 1-21.68 0 10.84 5.5 0 1 1 21.68 0z" transform="matrix(1.15508 -.70803 .63382 1.16554 47.222 -12.208)" fill="none" stroke="url(#q)" stroke-width="1.493" stroke-linecap="round" stroke-linejoin="round" stroke-miterlimit="4.5"/><path d="M-12.329 12.5a11.171 4.858 0 1 1-22.342 0 11.171 4.858 0 1 1 22.342 0z" transform="matrix(.96449 -.62261 .62746 .89086 42.822 -6.767)" fill="none" stroke="url(#r)" stroke-width="1.789" stroke-linecap="round" stroke-linejoin="round" stroke-miterlimit="4.5"/><g stroke-width="2"><path d="M8.687 23.452a6.997 6.997.015 1 1 10.63 9.103 6.997 6.997.015 0 1-10.63-9.103z" fill="#ef2929" stroke="#280000"/><path d="M241.907 76.634a5 5 0 1 1 7.596 6.504 5 5 0 0 1-7.596-6.504z" fill="url(#s)" stroke="#ef2929" transform="translate(-231.705 -51.88)"/></g><g stroke-width="2"><path d="M36.687 5.446a6.997 6.997.015 1 1 10.63 9.103 6.997 6.997.015 0 1-10.63-9.103z" fill="#ef2929" stroke="#280000"/><path d="M241.907 76.634a5 5 0 1 1 7.596 6.504 5 5 0 0 1-7.596-6.504z" fill="url(#t)" stroke="#ef2929" transform="translate(-203.705 -69.886)"/></g><g stroke-width="2"><path d="M18.682 7.452a6.997 6.997.015 1 1 10.63 9.103 6.997 6.997.015 0 1-10.63-9.103z" fill="#ef2929" stroke="#280000"/><path d="M241.907 76.634a5 5 0 1 1 7.596 6.504 5 5 0 0 1-7.596-6.504z" fill="url(#u)" stroke="#ef2929" transform="translate(-221.71 -67.88)"/></g></svg>