<svg xmlns="http://www.w3.org/2000/svg" width="64" height="64"><defs><linearGradient id="b"><stop offset="0"/><stop offset="1" stop-opacity="0"/></linearGradient><linearGradient id="a"><stop offset="0" stop-color="#0019a3"/><stop offset="1" stop-color="#0069ff"/></linearGradient><linearGradient id="c"><stop offset="0" stop-color="#c00"/><stop offset="1" stop-color="#ef2929"/></linearGradient><linearGradient id="d"><stop offset="0" stop-color="#c00"/><stop offset="1" stop-color="#ef2929"/></linearGradient></defs><path style="marker:none" color="#000" fill="none" stroke="#a40000" stroke-width="70.948" stroke-linecap="round" stroke-linejoin="round" overflow="visible" d="M104.497 1059.072h187.988v190.406H104.497z" transform="matrix(.08511 0 0 .08403 -3.894 -76.995)"/><path transform="matrix(.44122 0 0 .44 7.661 -1.64)" d="M48.364 33.273c0 10.041-8.14 18.182-18.182 18.182C20.14 51.455 12 43.315 12 33.273 12 23.23 20.14 15.09 30.182 15.09c10.041 0 18.182 8.14 18.182 18.182z" style="marker:none" color="#000" fill="none" stroke="#a40000" stroke-width="13.618" stroke-linecap="round" stroke-linejoin="round" overflow="visible"/><path style="marker:none" color="#000" fill="none" stroke="#ef2929" stroke-width="23.649" stroke-linecap="round" stroke-linejoin="round" overflow="visible" d="M104.497 1059.072h187.988v190.406H104.497z" transform="matrix(.08511 0 0 .08403 -3.894 -76.995)"/><path transform="matrix(.44122 0 0 .44 7.661 -1.64)" d="M48.364 33.273c0 10.041-8.14 18.182-18.182 18.182C20.14 51.455 12 43.315 12 33.273 12 23.23 20.14 15.09 30.182 15.09c10.041 0 18.182 8.14 18.182 18.182z" style="marker:none" color="#000" fill="none" stroke="#ef2929" stroke-width="4.539" stroke-linecap="round" stroke-linejoin="round" overflow="visible"/><path style="marker:none" color="#000" fill="none" stroke="#a40000" stroke-width="70.948" stroke-linecap="round" stroke-linejoin="round" overflow="visible" d="M456.975 1059.073h187.988v190.406H456.975z" transform="matrix(.08511 0 0 .08403 -3.894 -76.995)"/><path transform="matrix(.44122 0 0 .44 37.661 -1.64)" d="M48.364 33.273c0 10.041-8.14 18.182-18.182 18.182C20.14 51.455 12 43.315 12 33.273 12 23.23 20.14 15.09 30.182 15.09c10.041 0 18.182 8.14 18.182 18.182z" style="marker:none" color="#000" fill="none" stroke="#a40000" stroke-width="13.618" stroke-linecap="round" stroke-linejoin="round" overflow="visible"/><path style="marker:none" color="#000" fill="none" stroke="#ef2929" stroke-width="23.649" stroke-linecap="round" stroke-linejoin="round" overflow="visible" d="M456.975 1059.073h187.988v190.406H456.975z" transform="matrix(.08511 0 0 .08403 -3.894 -76.995)"/><path transform="matrix(.44122 0 0 .44 37.661 -1.64)" d="M48.364 33.273c0 10.041-8.14 18.182-18.182 18.182C20.14 51.455 12 43.315 12 33.273 12 23.23 20.14 15.09 30.182 15.09c10.041 0 18.182 8.14 18.182 18.182z" style="marker:none" color="#000" fill="none" stroke="#ef2929" stroke-width="4.539" stroke-linecap="round" stroke-linejoin="round" overflow="visible"/><path style="marker:none" color="#000" fill="none" stroke="#a40000" stroke-width="70.948" stroke-linecap="round" stroke-linejoin="round" overflow="visible" d="M268.986 1427.985h187.988v190.406H268.986z" transform="matrix(.08511 0 0 .08403 -3.894 -76.995)"/><path transform="matrix(.44122 0 0 .44 21.661 29.36)" d="M48.364 33.273c0 10.041-8.14 18.182-18.182 18.182C20.14 51.455 12 43.315 12 33.273 12 23.23 20.14 15.09 30.182 15.09c10.041 0 18.182 8.14 18.182 18.182z" style="marker:none" color="#000" fill="none" stroke="#a40000" stroke-width="13.618" stroke-linecap="round" stroke-linejoin="round" overflow="visible"/><path style="marker:none" color="#000" fill="none" stroke="#ef2929" stroke-width="23.649" stroke-linecap="round" stroke-linejoin="round" overflow="visible" d="M268.986 1427.985h187.988v190.406H268.986z" transform="matrix(.08511 0 0 .08403 -3.894 -76.995)"/><path transform="matrix(.44122 0 0 .44 21.661 29.36)" d="M48.364 33.273c0 10.041-8.14 18.182-18.182 18.182C20.14 51.455 12 43.315 12 33.273 12 23.23 20.14 15.09 30.182 15.09c10.041 0 18.182 8.14 18.182 18.182z" style="marker:none" color="#000" fill="none" stroke="#ef2929" stroke-width="4.539" stroke-linecap="round" stroke-linejoin="round" overflow="visible"/><path d="M7 35c0 6 1 8 7 8" fill="none" stroke="#2e3436" stroke-width="6" stroke-linecap="round"/><path d="M198.49 1475.586v-95.203l70.496 47.602z" fill="#d3d7cf" stroke="#2e3436" stroke-width="23.649" stroke-linejoin="round" transform="matrix(.08511 0 0 .08403 -3.894 -76.995)"/><path d="M7 35c0 6 1 8 7 8" fill="none" stroke="#d3d7cf" stroke-width="2" stroke-linecap="round"/><path d="M715.459 1344.682c0 71.402 11.75 95.203 82.245 95.203" fill="none" stroke="#2e3436" stroke-width="70.948" stroke-linecap="round" transform="matrix(-.08511 0 0 .08403 117.894 -77.995)"/><path d="M785.955 1487.487v-95.203l70.495 47.601z" fill="#d3d7cf" stroke="#2e3436" stroke-width="23.649" stroke-linejoin="round" transform="matrix(-.08511 0 0 .08403 117.894 -77.995)"/><path d="M715.459 1344.682c0 71.402 11.75 95.203 82.245 95.203" fill="none" stroke="#d3d7cf" stroke-width="23.649" stroke-linecap="round" transform="matrix(-.08511 0 0 .08403 117.894 -77.995)"/></svg>