<svg xmlns="http://www.w3.org/2000/svg" xmlns:xlink="http://www.w3.org/1999/xlink" width="64" height="64"><defs><linearGradient id="d"><stop offset="0" stop-color="#729fcf"/><stop offset="1" stop-color="#204a87"/></linearGradient><linearGradient xlink:href="#a" id="f" gradientUnits="userSpaceOnUse" x1="-18" y1="18" x2="-22" y2="5"/><linearGradient id="a"><stop offset="0" stop-color="#a40000"/><stop offset="1" stop-color="#ef2929"/></linearGradient><linearGradient id="b"><stop offset="0" stop-color="#a40000"/><stop offset="1" stop-color="#ef2929"/></linearGradient><linearGradient y2="5" x2="-22" y1="18" x1="-18" gradientUnits="userSpaceOnUse" id="g" xlink:href="#b"/><linearGradient id="c"><stop offset="0" stop-color="#a40000"/><stop offset="1" stop-color="#ef2929"/></linearGradient><linearGradient y2="5" x2="-22" y1="18" x1="-18" gradientUnits="userSpaceOnUse" id="h" xlink:href="#c"/><linearGradient xlink:href="#d" id="e" x1="-328.748" y1="758.12" x2="-485.673" y2="573.904" gradientUnits="userSpaceOnUse"/></defs><path style="marker:none" d="M-567.547 546.613v40.937c141.808 1.027 245.622 96.978 245.622 231.976 0 .155 8.933-.46 8.932-.313l32 .313c.01-.969.004.969.004 0 0-152.194-127.267-272.913-286.558-272.913z" fill="url(#e)" fill-rule="evenodd" stroke="#0b1521" stroke-width="13.646" overflow="visible" transform="matrix(.14657 0 0 .14657 94.184 -69.115)"/><path d="M13 13c21 0 38 19 38 35" fill="none" stroke="#729fcf" stroke-width="2"/><g stroke-width="2"><path d="M43.166 46.153a8.994 8.993.02 1 1 13.662 11.7 8.994 8.993.02 1 1-13.662-11.7z" fill="none" stroke="#280000"/><path d="M-24.634 6.894A7 7 0 1 1-14 16a7 7 0 0 1-10.634-9.106z" fill="url(#f)" stroke="#ef2929" transform="translate(69.322 40.57)"/></g><g stroke-width="2"><path d="M5.166 46.153a8.994 8.993.02 1 1 13.662 11.7 8.994 8.993.02 1 1-13.662-11.7z" fill="none" stroke="#280000"/><path d="M-24.634 6.894A7 7 0 1 1-14 16a7 7 0 0 1-10.634-9.106z" fill="url(#g)" stroke="#ef2929" transform="translate(31.322 40.57)"/></g><g stroke-width="2"><path d="M5.166 8.153a8.994 8.993.02 1 1 13.662 11.7 8.994 8.993.02 1 1-13.662-11.7z" fill="none" stroke="#280000"/><path d="M-24.634 6.894A7 7 0 1 1-14 16a7 7 0 0 1-10.634-9.106z" fill="url(#h)" stroke="#ef2929" transform="translate(31.322 2.57)"/></g></svg>