<svg xmlns="http://www.w3.org/2000/svg" xmlns:xlink="http://www.w3.org/1999/xlink" width="64" height="64"><defs><linearGradient id="g"><stop offset="0" stop-color="#34e0e2"/><stop offset="1" stop-color="#06989a"/></linearGradient><linearGradient id="d"><stop offset="0" stop-color="#c00"/><stop offset="1" stop-color="#ef2929"/></linearGradient><linearGradient id="c"><stop offset="0" stop-color="#c00"/><stop offset="1" stop-color="#ef2929"/></linearGradient><linearGradient id="b"><stop offset="0"/><stop offset="1" stop-opacity="0"/></linearGradient><linearGradient id="a"><stop offset="0" stop-color="#0019a3"/><stop offset="1" stop-color="#0069ff"/></linearGradient><linearGradient xlink:href="#c" id="j" x1="1178.153" y1="1453.871" x2="1105.046" y2="1059.094" gradientUnits="userSpaceOnUse" gradientTransform="matrix(.7027 0 0 .78788 315.884 269.85)"/><linearGradient xlink:href="#d" id="k" x1="33.053" y1="73.677" x2="23.483" y2="19.131" gradientUnits="userSpaceOnUse"/><linearGradient gradientTransform="matrix(7.31067 0 0 7.31067 841.862 1044.473)" xlink:href="#e" id="i" x1="56" y1="47" x2="53" y2="39" gradientUnits="userSpaceOnUse"/><linearGradient id="e"><stop offset="0" stop-color="#555753"/><stop offset="1" stop-color="#babdb6"/></linearGradient><linearGradient id="f"><stop offset="0" stop-color="#d3d7cf"/><stop offset="1" stop-color="#fff"/></linearGradient><linearGradient gradientTransform="matrix(0 7.31067 7.31067 0 900.347 985.988)" y2="20" x2="6" y1="38" x1="58" gradientUnits="userSpaceOnUse" id="h" xlink:href="#f"/><radialGradient xlink:href="#g" id="l" cx="43.783" cy="41.446" fx="43.783" fy="41.446" r="12.458" gradientUnits="userSpaceOnUse" gradientTransform="matrix(.38462 .38462 -.84615 .84615 61.897 -11.243)"/></defs><path d="M922.28 1007.92h365.533v350.912l-73.107 73.107H922.28z" style="marker:none" color="#000" fill="url(#h)" fill-rule="evenodd" stroke="#3f3f3f" stroke-width="14.621" stroke-linejoin="round" overflow="visible" transform="matrix(.13679 0 0 .13679 -119.155 -134.87)"/><path d="M55 5H9v54h37.1l8.9-9.1z" fill="none" stroke="#fff" stroke-width="2.00000659"/><path d="M1287.813 1358.832c0-7.31-29.243-29.243-58.485-29.243 0 0 14.621 73.107-14.622 102.35z" style="marker:none" color="#000" fill="url(#i)" fill-rule="evenodd" stroke="#3f3f3f" stroke-width="14.265" stroke-linejoin="round" overflow="visible" transform="matrix(.13679 0 0 .13679 -119.155 -134.87)"/><path d="M49.086 56.124l6.658-6.453" fill="none" stroke="#babdb6" stroke-width="2.00000659"/><path d="M57 51c0-1-4-4-8-4 0 0 2 10-2 14z" style="marker:none" color="#000" fill="none" stroke="#3f3f3f" stroke-width="1.95130935" stroke-linejoin="round" overflow="visible"/><path style="marker:none" color="#000" fill="none" stroke="url(#j)" stroke-width="29.243" stroke-linecap="round" stroke-linejoin="round" overflow="visible" d="M958.833 1190.687h190.077v190.078H958.833z" transform="matrix(.13679 0 0 .13679 -119.155 -134.87)"/><path style="marker:none" d="M48.364 33.273c0 10.041-8.14 18.182-18.182 18.182C20.14 51.455 12 43.315 12 33.273 12 23.23 20.14 15.09 30.182 15.09c10.041 0 18.182 8.14 18.182 18.182z" transform="matrix(.7425 0 0 .70342 17.09 1.806)" color="#000" fill="none" stroke="url(#k)" stroke-width="5.535" stroke-linecap="round" stroke-linejoin="round" overflow="visible"/><path d="M45 47l4-4 12 12-4 4z" fill="#16d0d2" stroke="#042a2a" stroke-width="2.00000659" stroke-linecap="round" stroke-linejoin="round" stroke-dashoffset="2.04"/><path d="M58.9 55.7l-10-10" fill="none" stroke="#34e0e2" stroke-width="2.00000659"/><path d="M59 44.5C59 50.851 53.851 56 47.5 56S36 50.851 36 44.5 41.149 33 47.5 33 59 38.149 59 44.5z" transform="matrix(1.04348 0 0 1.04348 -8.565 -7.435)" fill="url(#l)" stroke="#042a2a" stroke-width="1.917" stroke-linecap="round" stroke-linejoin="round" stroke-dashoffset="2.04"/><path d="M59 44.5C59 50.851 53.851 56 47.5 56S36 50.851 36 44.5 41.149 33 47.5 33 59 38.149 59 44.5z" transform="matrix(.86957 0 0 .86957 -.304 .304)" fill="none" stroke="#34e0e2" stroke-width="2.3" stroke-linecap="round" stroke-linejoin="round" stroke-dashoffset="2.04"/></svg>