<svg xmlns="http://www.w3.org/2000/svg" width="64" height="64"><g fill="none" stroke="#172a04" stroke-width="3.259" stroke-linecap="round"><path d="M6 6v52M58 6v52M58 28.09H6" stroke-width="7.999378449999999"/></g><g stroke="#73d216" stroke-width=".815" fill="none" stroke-linecap="round"><path d="M6 6v52M58 6v52M58 28H6" stroke-width="4.0009165"/><path d="M55 27H9M5 6v52M57 6v52" stroke="#8ae234" stroke-width="2.00045825"/></g><path d="M16 17h3V7h-2V5l2-2h4v14h2v4h-8v-4M28 17h5v4h-4v-4M43.414 11.97c0-2.168-.164-3.694-.494-4.577-.322-.891-.869-1.337-1.639-1.337s-1.32.446-1.648 1.337c-.33.883-.494 2.409-.494 4.578 0 2.192.164 3.738.494 4.636.329.9.878 1.348 1.648 1.348.764 0 1.31-.449 1.64-1.348.329-.898.493-2.444.493-4.636m3.586.035c0 2.874-.497 5.093-1.49 6.658C44.516 20.221 43.107 21 41.28 21c-1.832 0-3.244-.779-4.238-2.336-.993-1.565-1.49-3.784-1.49-6.658 0-2.882.497-5.102 1.49-6.659C38.037 3.782 39.45 3 41.281 3c1.826 0 3.235.782 4.229 2.347.993 1.557 1.49 3.777 1.49 6.659" style="-inkscape-font-specification:'Arial Black, Bold'" font-size="22.515" font-weight="700" fill="#fff" stroke="#2e3436" stroke-width="2" font-family="Arial Black"/></svg>