<svg xmlns="http://www.w3.org/2000/svg" width="64" height="64"><defs><linearGradient id="a"><stop offset="0" stop-color="#c51900"/><stop offset="1" stop-color="#ff5f00"/></linearGradient><linearGradient id="b"><stop offset="0" stop-color="#c51900"/><stop offset="1" stop-color="#ff5f00"/></linearGradient><linearGradient id="c"><stop offset="0" stop-color="#c51900"/><stop offset="1" stop-color="#ff5f00"/></linearGradient><linearGradient id="d"><stop offset="0" stop-color="#ff2600"/><stop offset="1" stop-color="#ff5f00"/></linearGradient></defs><g style="-inkscape-font-specification:Arial;marker:none" font-size="54.215" font-weight="400" fill="#ff2600" stroke="#731200" font-family="Arial" color="#000" stroke-width="2.191" stroke-linecap="square" stroke-linejoin="round"><path d="M69.038 20.715A27.75 15.544 0 0 1 41.3 36.26a27.75 15.544 0 0 1-27.764-15.528A27.75 15.544 0 0 1 41.246 5.17a27.75 15.544 0 0 1 27.792 15.513" style="-inkscape-font-specification:Arial;marker:none" overflow="visible" fill="none" stroke="#bfbfbf" stroke-width="3.03" transform="matrix(.93713 0 0 1.72056 -8.295 -4.487)"/><path d="M70.391 21.454a27.75 15.544 0 0 1-27.736 15.544A27.75 15.544 0 0 1 14.89 21.47 27.75 15.544 0 0 1 42.6 5.91 27.75 15.544 0 0 1 70.39 21.424" style="-inkscape-font-specification:Arial;marker:none" overflow="visible" fill="#c00" stroke="#000" stroke-width="3.03" transform="matrix(.93713 0 0 1.72056 -8.295 -4.487)"/><path d="M70.391 21.454a27.75 15.544 0 0 1-27.736 15.544A27.75 15.544 0 0 1 14.89 21.47 27.75 15.544 0 0 1 42.6 5.91 27.75 15.544 0 0 1 70.39 21.424" fill="#c00" stroke="#000" stroke-width="3.03" transform="matrix(.93713 0 0 1.72056 -8.295 -4.487)"/><path d="M56.45 28.87a19.893 10.383 0 0 1-25.828 1.26 19.893 10.383 0 0 1-6.256-13.14" style="-inkscape-font-specification:Arial;marker:none" overflow="visible" fill="#fff" stroke="#000" stroke-width="2.097" transform="matrix(.93713 0 0 1.72056 -8.295 -4.487)"/><path transform="matrix(-.93713 0 0 -1.72056 -8.295 -4.487)" d="M-28.06-14.232a19.893 10.383 0 0 1-25.806 1.348 19.893 10.383 0 0 1-6.428-13.115" style="-inkscape-font-specification:Arial;marker:none" overflow="visible" fill="#fff" stroke="#000" stroke-width="2.097"/><path d="M28.427 14.036l32.489 12.558v0M24.366 16.252L55.501 28.81v0" fill="none" stroke="#000" stroke-width="1" stroke-linecap="butt" stroke-linejoin="miter" transform="matrix(.93713 0 0 1.72056 -8.295 -4.487)"/><path d="M23.013 14.036L60.916 28.81" fill="none" stroke="#c00" stroke-width="2.8" stroke-linecap="butt" stroke-linejoin="miter" transform="matrix(.93713 0 0 1.72056 -8.295 -4.487)"/></g></svg>