<svg xmlns="http://www.w3.org/2000/svg" xmlns:xlink="http://www.w3.org/1999/xlink" width="64" height="64"><defs><linearGradient id="a"><stop offset="0" stop-color="#fff"/><stop offset="1" stop-color="#fff" stop-opacity="0"/></linearGradient><linearGradient id="b"><stop offset="0" stop-color="#fff"/><stop offset="1" stop-color="#fff" stop-opacity="0"/></linearGradient><linearGradient id="c"><stop offset="0" stop-color="#fff"/><stop offset="1" stop-color="#fff" stop-opacity="0"/></linearGradient><linearGradient id="d"><stop offset="0" stop-color="#a40000"/><stop offset="1" stop-color="#ef2929"/></linearGradient><linearGradient y2="5" x2="-22" y1="18" x1="-18" gradientUnits="userSpaceOnUse" id="e" xlink:href="#d"/></defs><g stroke-width="6.444"><path d="M16 58L40 6M56 58L29 30" fill="none" stroke="#2e3436" stroke-width="7.99994577" stroke-linecap="round"/><path d="M29 30L5 5" fill="none" stroke="#2e3436" stroke-width="5.99992635" stroke-linecap="round" stroke-dasharray="45.48545553,90.97091106" stroke-dashoffset="40.937"/><path d="M16 58L40 6M56 58L29 30" fill="none" stroke="#d3d7cf" stroke-width="4.00003884" stroke-linecap="round"/><path d="M15 58L39.4 5M57 57.6l-27-28" fill="none" stroke="#fff" stroke-width="2.00001942" stroke-linecap="round"/><path d="M29 30L5 5" fill="none" stroke="#d3d7cf" stroke-width="2.00001942" stroke-linecap="round" stroke-dasharray="45.485455379999998,90.970910750000002" stroke-dashoffset="40.937"/><g stroke-width="2"><path d="M23.166 22.147a8.994 8.993.02 1 1 13.662 11.7 8.994 8.993.02 1 1-13.662-11.7z" fill="#ef2929" stroke="#280000"/><path d="M-24.634 6.894A7 7 0 1 1-14 16a7 7 0 0 1-10.634-9.106z" fill="url(#e)" stroke="#ef2929" transform="translate(49.322 16.565)"/></g></g></svg>