<svg xmlns="http://www.w3.org/2000/svg" xmlns:xlink="http://www.w3.org/1999/xlink" width="64" height="64"><defs><linearGradient id="a"><stop offset="0" stop-color="#fff"/><stop offset="1" stop-color="#fff" stop-opacity="0"/></linearGradient><linearGradient id="b"><stop offset="0" stop-color="#fff"/><stop offset="1" stop-color="#fff" stop-opacity="0"/></linearGradient><linearGradient xlink:href="#c" id="g" gradientUnits="userSpaceOnUse" x1="-18" y1="18" x2="-22" y2="5"/><linearGradient id="c"><stop offset="0" stop-color="#a40000"/><stop offset="1" stop-color="#ef2929"/></linearGradient><linearGradient id="d"><stop offset="0" stop-color="#a40000"/><stop offset="1" stop-color="#ef2929"/></linearGradient><linearGradient xlink:href="#e" id="f" gradientUnits="userSpaceOnUse" x1="-18" y1="18" x2="-22" y2="5"/><linearGradient id="e"><stop offset="0" stop-color="#a40000"/><stop offset="1" stop-color="#ef2929"/></linearGradient></defs><path d="M61 61L3 85.024-55 61-79.024 3-55-55 3-79.024 61-55 85.024 3z" transform="matrix(.2675 -.18189 .18077 .24915 30.655 30.798)" fill="none" stroke="#0b1521" stroke-width="25.358" stroke-linecap="round" stroke-linejoin="round" stroke-miterlimit="1.9"/><g stroke-width="2"><path d="M25.166 24.153a8.994 8.993.02 1 1 13.662 11.7 8.994 8.993.02 1 1-13.662-11.7z" fill="#ef2929" stroke="#280000"/><path d="M-24.634 6.894A7 7 0 1 1-14 16a7 7 0 0 1-10.634-9.106z" fill="url(#f)" stroke="#ef2929" transform="translate(51.322 18.57)"/></g><path d="M61 61L3 85.024-55 61-79.024 3-55-55 3-79.024 61-55 85.024 3z" transform="matrix(.2675 -.18189 .18077 .24915 30.655 30.798)" fill="none" stroke="#3465a4" stroke-width="12.679" stroke-linecap="round" stroke-linejoin="round" stroke-miterlimit="1.9"/><path transform="matrix(.2778 -.18916 .18772 .25911 30.603 30.79)" d="M-79.024 3L-55-55 3-79.024 61-55 85.024 3" fill="none" stroke="#729fcf" stroke-width="6.1" stroke-linecap="round" stroke-linejoin="round" stroke-miterlimit="1.9"/><path transform="matrix(.25722 -.17461 .17382 .23918 30.707 30.806)" d="M85.024 3L61 61 3 85.024-55 61-79.024 3" fill="none" stroke="#729fcf" stroke-width="6.598" stroke-linecap="round" stroke-linejoin="round" stroke-miterlimit="1.9"/><g stroke-width="2"><path d="M45.166 10.153a8.994 8.993.02 1 1 13.662 11.7 8.994 8.993.02 1 1-13.662-11.7z" fill="#ef2929" stroke="#280000"/><path d="M-24.634 6.894A7 7 0 1 1-14 16a7 7 0 0 1-10.634-9.106z" fill="url(#g)" stroke="#ef2929" transform="translate(71.322 4.57)"/></g></svg>