<svg xmlns="http://www.w3.org/2000/svg" xmlns:xlink="http://www.w3.org/1999/xlink" width="64" height="64"><defs><linearGradient id="a"><stop offset="0" stop-color="#fff"/><stop offset="1" stop-color="#fff" stop-opacity="0"/></linearGradient><linearGradient id="b"><stop offset="0" stop-color="#fff"/><stop offset="1" stop-color="#fff" stop-opacity="0"/></linearGradient><linearGradient id="c"><stop offset="0" stop-color="#fff"/><stop offset="1" stop-color="#fff" stop-opacity="0"/></linearGradient><linearGradient id="d"><stop offset="0" stop-color="#a40000"/><stop offset="1" stop-color="#ef2929"/></linearGradient><linearGradient y2="5" x2="-22" y1="18" x1="-18" gradientUnits="userSpaceOnUse" id="q" xlink:href="#d" gradientTransform="matrix(.53559 0 0 .53557 -6.481 2.804)"/><linearGradient id="e"><stop offset="0" stop-color="#a40000"/><stop offset="1" stop-color="#ef2929"/></linearGradient><linearGradient id="f"><stop offset="0" stop-color="#a40000"/><stop offset="1" stop-color="#ef2929"/></linearGradient><linearGradient id="g"><stop offset="0" stop-color="#a40000"/><stop offset="1" stop-color="#ef2929"/></linearGradient><linearGradient id="h"><stop offset="0" stop-color="#a40000"/><stop offset="1" stop-color="#ef2929"/></linearGradient><linearGradient id="i"><stop offset="0" stop-color="#a40000"/><stop offset="1" stop-color="#ef2929"/></linearGradient><linearGradient id="j"><stop offset="0" stop-color="#a40000"/><stop offset="1" stop-color="#ef2929"/></linearGradient><linearGradient y2="5" x2="-22" y1="18" x1="-18" gradientTransform="matrix(.53559 0 0 .53557 -6.481 2.804)" gradientUnits="userSpaceOnUse" id="r" xlink:href="#j"/><linearGradient id="k"><stop offset="0" stop-color="#a40000"/><stop offset="1" stop-color="#ef2929"/></linearGradient><linearGradient y2="5" x2="-22" y1="18" x1="-18" gradientTransform="matrix(.53559 0 0 .53557 -6.481 2.804)" gradientUnits="userSpaceOnUse" id="s" xlink:href="#k"/><linearGradient id="l"><stop offset="0" stop-color="#a40000"/><stop offset="1" stop-color="#ef2929"/></linearGradient><linearGradient y2="5" x2="-22" y1="18" x1="-18" gradientTransform="matrix(.53559 0 0 .53557 -6.481 2.804)" gradientUnits="userSpaceOnUse" id="t" xlink:href="#l"/><linearGradient y2="5" x2="-22" y1="18" x1="-18" gradientTransform="matrix(.53559 0 0 .53557 -6.481 2.804)" gradientUnits="userSpaceOnUse" id="x" xlink:href="#m"/><linearGradient id="m"><stop offset="0" stop-color="#a40000"/><stop offset="1" stop-color="#ef2929"/></linearGradient><linearGradient y2="5" x2="-22" y1="18" x1="-18" gradientTransform="matrix(.53559 0 0 .53557 -6.481 2.804)" gradientUnits="userSpaceOnUse" id="w" xlink:href="#n"/><linearGradient id="n"><stop offset="0" stop-color="#a40000"/><stop offset="1" stop-color="#ef2929"/></linearGradient><linearGradient y2="5" x2="-22" y1="18" x1="-18" gradientTransform="matrix(.53559 0 0 .53557 -6.481 2.804)" gradientUnits="userSpaceOnUse" id="v" xlink:href="#o"/><linearGradient id="o"><stop offset="0" stop-color="#a40000"/><stop offset="1" stop-color="#ef2929"/></linearGradient><linearGradient id="p"><stop offset="0" stop-color="#a40000"/><stop offset="1" stop-color="#ef2929"/></linearGradient><linearGradient y2="5" x2="-22" y1="18" x1="-18" gradientTransform="matrix(.53559 0 0 .53557 -6.481 2.804)" gradientUnits="userSpaceOnUse" id="u" xlink:href="#p"/></defs><g fill="none"><path d="M8 32v24" stroke="#172a04" stroke-width="8"/><path d="M8 32v24" stroke="#73d216" stroke-width="4"/><path d="M7 32v24" stroke="#8ae234" stroke-width="2"/></g><g fill="none"><path d="M24 24v24" stroke="#2e3436" stroke-width="8"/><path d="M24 24v24" stroke="#d3d7cf" stroke-width="4"/><path d="M23 24v24" stroke="#fff" stroke-width="2"/></g><g fill="none"><path d="M40 16v24" stroke="#2e3436" stroke-width="8"/><path d="M40 16v24" stroke="#d3d7cf" stroke-width="4"/><path d="M39 16v24" stroke="#fff" stroke-width="2"/></g><g fill="none"><path d="M56 8v24" stroke="#2e3436" stroke-width="8"/><path d="M56 8v24" stroke="#d3d7cf" stroke-width="4"/><path d="M55 8v24" stroke="#fff" stroke-width="2"/></g><g stroke-width="2.499"><path d="M-21.57 4.87a6.246 6.246.017 1 1 9.488 8.126A6.246 6.246.017 1 1-21.57 4.87z" fill="#ef2929" stroke="#280000" transform="matrix(.80023 0 0 .80022 69.465 .852)"/><path d="M-19.675 6.496a3.75 3.749 0 1 1 5.695 4.877 3.75 3.749 0 0 1-5.695-4.877z" fill="url(#q)" stroke="#ef2929" transform="matrix(.80023 0 0 .80022 69.465 .852)"/></g><g stroke-width="2.499"><path d="M-21.57 4.87a6.246 6.246.017 1 1 9.488 8.126A6.246 6.246.017 1 1-21.57 4.87z" fill="#ef2929" stroke="#280000" transform="matrix(.80023 0 0 .80022 53.465 8.852)"/><path d="M-19.675 6.496a3.75 3.749 0 1 1 5.695 4.877 3.75 3.749 0 0 1-5.695-4.877z" fill="url(#r)" stroke="#ef2929" transform="matrix(.80023 0 0 .80022 53.465 8.852)"/></g><g stroke-width="2.499"><path d="M-21.57 4.87a6.246 6.246.017 1 1 9.488 8.126A6.246 6.246.017 1 1-21.57 4.87z" fill="#ef2929" stroke="#280000" transform="matrix(.80023 0 0 .80022 37.465 16.852)"/><path d="M-19.675 6.496a3.75 3.749 0 1 1 5.695 4.877 3.75 3.749 0 0 1-5.695-4.877z" fill="url(#s)" stroke="#ef2929" transform="matrix(.80023 0 0 .80022 37.465 16.852)"/></g><g stroke-width="2.499"><path d="M-21.57 4.87a6.246 6.246.017 1 1 9.488 8.126A6.246 6.246.017 1 1-21.57 4.87z" fill="#ef2929" stroke="#280000" transform="matrix(.80023 0 0 .80022 21.464 24.852)"/><path d="M-19.675 6.496a3.75 3.749 0 1 1 5.695 4.877 3.75 3.749 0 0 1-5.695-4.877z" fill="url(#t)" stroke="#ef2929" transform="matrix(.80023 0 0 .80022 21.464 24.852)"/></g><g stroke-width="2.499"><path d="M-21.57 4.87a6.246 6.246.017 1 1 9.488 8.126A6.246 6.246.017 1 1-21.57 4.87z" fill="#ef2929" stroke="#280000" transform="matrix(.80023 0 0 .80022 69.465 24.852)"/><path d="M-19.675 6.496a3.75 3.749 0 1 1 5.695 4.877 3.75 3.749 0 0 1-5.695-4.877z" fill="url(#u)" stroke="#ef2929" transform="matrix(.80023 0 0 .80022 69.465 24.852)"/></g><g stroke-width="2.499"><path d="M-21.57 4.87a6.246 6.246.017 1 1 9.488 8.126A6.246 6.246.017 1 1-21.57 4.87z" fill="#ef2929" stroke="#280000" transform="matrix(.80023 0 0 .80022 53.465 32.852)"/><path d="M-19.675 6.496a3.75 3.749 0 1 1 5.695 4.877 3.75 3.749 0 0 1-5.695-4.877z" fill="url(#v)" stroke="#ef2929" transform="matrix(.80023 0 0 .80022 53.465 32.852)"/></g><g stroke-width="2.499"><path d="M-21.57 4.87a6.246 6.246.017 1 1 9.488 8.126A6.246 6.246.017 1 1-21.57 4.87z" fill="#ef2929" stroke="#280000" transform="matrix(.80023 0 0 .80022 37.465 40.852)"/><path d="M-19.675 6.496a3.75 3.749 0 1 1 5.695 4.877 3.75 3.749 0 0 1-5.695-4.877z" fill="url(#w)" stroke="#ef2929" transform="matrix(.80023 0 0 .80022 37.465 40.852)"/></g><g stroke-width="2.499"><path d="M-21.57 4.87a6.246 6.246.017 1 1 9.488 8.126A6.246 6.246.017 1 1-21.57 4.87z" fill="#ef2929" stroke="#280000" transform="matrix(.80023 0 0 .80022 21.464 48.852)"/><path d="M-19.675 6.496a3.75 3.749 0 1 1 5.695 4.877 3.75 3.749 0 0 1-5.695-4.877z" fill="url(#x)" stroke="#ef2929" transform="matrix(.80023 0 0 .80022 21.464 48.852)"/></g></svg>