<svg xmlns="http://www.w3.org/2000/svg" xmlns:xlink="http://www.w3.org/1999/xlink" width="64" height="64"><defs><linearGradient id="a"><stop offset="0" stop-color="#fff"/><stop offset="1" stop-color="#fff" stop-opacity="0"/></linearGradient><linearGradient xlink:href="#b" id="g" x1="37.429" y1="41.591" x2="24.483" y2="4.91" gradientUnits="userSpaceOnUse"/><linearGradient id="b"><stop offset="0" stop-color="#fff"/><stop offset="1" stop-color="#fff" stop-opacity="0"/></linearGradient><linearGradient xlink:href="#c" id="h" x1="22.843" y1="4.824" x2="30.784" y2="28.645" gradientUnits="userSpaceOnUse"/><linearGradient id="c"><stop offset="0" stop-color="#fff"/><stop offset="1" stop-color="#fff" stop-opacity="0"/></linearGradient><linearGradient xlink:href="#d" id="i" gradientUnits="userSpaceOnUse" x1="-18" y1="18" x2="-22" y2="5"/><linearGradient id="d"><stop offset="0" stop-color="#a40000"/><stop offset="1" stop-color="#ef2929"/></linearGradient><linearGradient id="e"><stop offset="0" stop-color="#c4a000"/><stop offset="1" stop-color="#fce94f"/></linearGradient><linearGradient id="f"><stop offset="0" stop-color="#a40000"/><stop offset="1" stop-color="#ef2929"/></linearGradient><linearGradient y2="5" x2="-22" y1="18" x1="-18" gradientUnits="userSpaceOnUse" id="j" xlink:href="#f"/></defs><path d="M53.612 28.645c0 13.704-11.11 24.813-24.813 24.813-13.704 0-24.813-11.11-24.813-24.813 0-13.704 11.109-24.813 24.813-24.813 13.703 0 24.813 11.109 24.813 24.813z" transform="matrix(.96725 0 0 .96663 2.145 4.296)" fill="none" stroke="#2e3436" stroke-width="8.274" stroke-linecap="round" stroke-linejoin="round"/><path d="M53.612 28.645c0 13.704-11.11 24.813-24.813 24.813-13.704 0-24.813-11.11-24.813-24.813 0-13.704 11.109-24.813 24.813-24.813 13.703 0 24.813 11.109 24.813 24.813z" transform="matrix(.96725 0 0 .96663 2.145 4.296)" fill="none" stroke="#d3d7cf" stroke-width="4.137" stroke-linecap="round" stroke-linejoin="round"/><path d="M53.612 28.645c0 13.704-11.11 24.813-24.813 24.813-13.704 0-24.813-11.11-24.813-24.813 0-13.704 11.109-24.813 24.813-24.813 13.703 0 24.813 11.109 24.813 24.813z" transform="matrix(.92693 0 0 .92693 3.306 5.448)" fill="none" stroke="url(#g)" stroke-width="2.158" stroke-linecap="round" stroke-linejoin="round"/><path d="M53.612 28.645c0 13.704-11.11 24.813-24.813 24.813-13.704 0-24.813-11.11-24.813-24.813 0-13.704 11.109-24.813 24.813-24.813 13.703 0 24.813 11.109 24.813 24.813z" transform="matrix(1.00754 0 0 1.00754 .984 3.14)" fill="none" stroke="url(#h)" stroke-width="1.985" stroke-linecap="round" stroke-linejoin="round"/><g stroke-width="2"><path d="M45.172 26.153a8.994 8.993.02 1 1 13.662 11.7 8.994 8.993.02 1 1-13.662-11.7z" fill="none" stroke="#280000"/><path d="M-24.634 6.894A7 7 0 1 1-14 16a7 7 0 0 1-10.634-9.106z" fill="url(#i)" stroke="#ef2929" transform="translate(71.328 20.57)"/></g><g stroke-width="2"><path d="M23.172 26.153a8.994 8.993.02 1 1 13.662 11.7 8.994 8.993.02 1 1-13.662-11.7z" fill="none" stroke="#280000"/><path d="M-24.634 6.894A7 7 0 1 1-14 16a7 7 0 0 1-10.634-9.106z" fill="url(#j)" stroke="#ef2929" transform="translate(49.328 20.57)"/></g></svg>