<svg xmlns="http://www.w3.org/2000/svg" xmlns:xlink="http://www.w3.org/1999/xlink" width="64" height="64"><defs><linearGradient id="a"><stop offset="0" stop-color="#fff"/><stop offset="1" stop-color="#fff" stop-opacity="0"/></linearGradient><linearGradient id="b"><stop offset="0" stop-color="#fff"/><stop offset="1" stop-color="#fff" stop-opacity="0"/></linearGradient><linearGradient id="c"><stop offset="0" stop-color="#fff"/><stop offset="1" stop-color="#fff" stop-opacity="0"/></linearGradient><linearGradient id="d"><stop offset="0" stop-color="#4e9a06"/><stop offset="1" stop-color="#8ae234"/></linearGradient><linearGradient id="e"><stop offset="0" stop-color="#4e9a06"/><stop offset="1" stop-color="#8ae234"/></linearGradient><linearGradient xlink:href="#f" id="h" gradientUnits="userSpaceOnUse" x1="-24.89" y1="10.114" x2="-12.869" y2="13.65"/><linearGradient id="f"><stop offset="0" stop-color="#4e9a06"/><stop offset="1" stop-color="#8ae234"/></linearGradient><linearGradient xlink:href="#g" id="i" gradientUnits="userSpaceOnUse" x1="-25.074" y1="8.516" x2="-11.639" y2="13.466"/><linearGradient id="g"><stop offset="0" stop-color="#4e9a06"/><stop offset="1" stop-color="#8ae234"/></linearGradient></defs><path d="M52 12v40" fill="none" stroke="#2e3436" stroke-width="8"/><path d="M52 12v40" fill="none" stroke="#d3d7cf" stroke-width="4"/><path d="M51 12v40" fill="none" stroke="#fff" stroke-width="2"/><g stroke-width="2"><path d="M52.695 20.973a8.993 8.994-44.98 1 1-1.388-17.934 8.993 8.994-44.98 1 1 1.388 17.934z" fill="none" stroke="#172a04"/><path d="M-24.634 6.894A7 7 0 1 1-14 16a7 7 0 0 1-10.634-9.106z" fill="url(#h)" stroke="#8ae234" transform="rotate(-135 16.457 -3.053)"/></g><g stroke-width="2"><path d="M52.695 60.973a8.993 8.994-44.98 1 1-1.388-17.934 8.993 8.994-44.98 1 1 1.388 17.934z" fill="none" stroke="#172a04"/><path d="M-24.634 6.894A7 7 0 1 1-14 16a7 7 0 0 1-10.634-9.106z" fill="url(#i)" stroke="#8ae234" transform="rotate(-135 24.741 16.947)"/></g><g stroke-width="2"><path d="M43 42l-8-7v4H23v6h12v4z" fill="#c00" stroke="#280000" stroke-linejoin="round"/><path d="M40 42l-3-2.6V41H25" fill="none" stroke="#ef2929" stroke-linecap="round"/></g><g stroke-width="2"><path d="M43 22l-8-7v4H23v6h12v4z" fill="#c00" stroke="#280000" stroke-linejoin="round"/><path d="M40 22l-3-2.6V21H25" fill="none" stroke="#ef2929" stroke-linecap="round"/></g><text style="line-height:125%" x="1.442" y="18.981" font-weight="400" font-size="24" font-family="Sans" letter-spacing="0" word-spacing="0" fill="#282f9a" stroke="#0052fb"><tspan x="1.442" y="18.981">D</tspan></text><text style="line-height:125%" x="1.706" y="38.637" font-weight="400" font-size="24" font-family="Sans" letter-spacing="0" word-spacing="0" fill="#039" stroke="#36c"><tspan x="1.706" y="38.637">O</tspan></text><text style="line-height:125%" x="3.768" y="60.876" font-weight="400" font-size="24" font-family="Sans" letter-spacing="0" word-spacing="0" fill="#282f9a" stroke="#0052fb"><tspan x="3.768" y="60.876">F</tspan></text></svg>