<svg xmlns="http://www.w3.org/2000/svg" xmlns:xlink="http://www.w3.org/1999/xlink" width="64" height="64"><defs><linearGradient id="a"><stop offset="0" stop-color="#fff"/><stop offset="1" stop-color="#fff" stop-opacity="0"/></linearGradient><linearGradient id="b"><stop offset="0" stop-color="#fff"/><stop offset="1" stop-color="#fff" stop-opacity="0"/></linearGradient><linearGradient xlink:href="#c" id="g" gradientUnits="userSpaceOnUse" x1="-18" y1="18" x2="-22" y2="5"/><linearGradient id="c"><stop offset="0" stop-color="#a40000"/><stop offset="1" stop-color="#ef2929"/></linearGradient><linearGradient id="d"><stop offset="0" stop-color="#a40000"/><stop offset="1" stop-color="#ef2929"/></linearGradient><linearGradient xlink:href="#e" id="f" gradientUnits="userSpaceOnUse" x1="-18" y1="18" x2="-22" y2="5"/><linearGradient id="e"><stop offset="0" stop-color="#a40000"/><stop offset="1" stop-color="#ef2929"/></linearGradient></defs><path d="M61 61L-6.184 84.509l-60.268-37.87-7.97-70.73 50.331-50.33 70.73 7.969L84.51-6.184z" transform="matrix(.31414 .08604 -.08666 .3175 30.917 31.701)" fill="none" stroke="#2e3436" stroke-width="24.435" stroke-linecap="round" stroke-linejoin="round" stroke-miterlimit="1.9"/><g stroke-width="2"><path d="M25.166 26.153a8.994 8.993.02 1 1 13.662 11.7 8.994 8.993.02 1 1-13.662-11.7z" fill="#ef2929" stroke="#280000"/><path d="M-24.634 6.894A7 7 0 1 1-14 16a7 7 0 0 1-10.634-9.106z" fill="url(#f)" stroke="#ef2929" transform="translate(51.322 20.57)"/></g><path d="M61 61L-6.184 84.509l-60.268-37.87-7.97-70.73 50.331-50.33 70.73 7.969L84.51-6.184z" transform="matrix(.31414 .08604 -.08666 .3175 30.917 31.701)" fill="none" stroke="#d3d7cf" stroke-width="12.217" stroke-linecap="round" stroke-linejoin="round" stroke-miterlimit="1.9"/><path d="M5 41.13l3.766-24.033L29.714 5l22.356 8.947L59 37.202" fill="none" stroke="#fff" stroke-width="2" stroke-linecap="round" stroke-linejoin="round" stroke-miterlimit="1.9"/><path d="M57 36.817L44.3 55.382 22.05 57 7 40.453" fill="none" stroke="#fff" stroke-width="2" stroke-linecap="round" stroke-linejoin="round" stroke-miterlimit="1.9"/><g stroke-width="2"><path d="M45.166 8.153a8.994 8.993.02 1 1 13.662 11.7 8.994 8.993.02 1 1-13.662-11.7z" fill="#ef2929" stroke="#280000"/><path d="M-24.634 6.894A7 7 0 1 1-14 16a7 7 0 0 1-10.634-9.106z" fill="url(#g)" stroke="#ef2929" transform="translate(71.322 2.57)"/></g></svg>