<svg xmlns="http://www.w3.org/2000/svg" xmlns:xlink="http://www.w3.org/1999/xlink" width="64" height="64"><defs><linearGradient id="a"><stop offset="0" stop-color="#fff"/><stop offset="1" stop-color="#fff" stop-opacity="0"/></linearGradient><linearGradient id="c"><stop offset="0" stop-color="#fff"/><stop offset="1" stop-color="#fff" stop-opacity="0"/></linearGradient><linearGradient id="b"><stop offset="0" stop-color="#fff"/><stop offset="1" stop-color="#fff" stop-opacity="0"/></linearGradient><linearGradient id="e"><stop offset="0" stop-color="#a40000"/><stop offset="1" stop-color="#ef2929"/></linearGradient><linearGradient id="d"><stop offset="0" stop-color="#a40000"/><stop offset="1" stop-color="#ef2929"/></linearGradient><linearGradient xlink:href="#d" id="h" gradientUnits="userSpaceOnUse" x1="-24.89" y1="10.114" x2="-12.869" y2="13.65"/><linearGradient xlink:href="#e" id="i" gradientUnits="userSpaceOnUse" x1="-25.074" y1="8.516" x2="-11.639" y2="13.466"/><linearGradient xlink:href="#f" id="k" gradientUnits="userSpaceOnUse" x1="-25.074" y1="8.516" x2="-11.639" y2="13.466"/><linearGradient id="f"><stop offset="0" stop-color="#a40000"/><stop offset="1" stop-color="#ef2929"/></linearGradient><linearGradient xlink:href="#g" id="j" gradientUnits="userSpaceOnUse" x1="-24.89" y1="10.114" x2="-12.869" y2="13.65"/><linearGradient id="g"><stop offset="0" stop-color="#a40000"/><stop offset="1" stop-color="#ef2929"/></linearGradient></defs><path d="M-567.547 546.613v40.937c141.808 1.027 245.622 96.978 245.622 231.976 0 .155 8.933-.46 8.932-.313l32 .313c.01-.969.004.969.004 0 0-152.194-127.267-272.913-286.558-272.913z" style="marker:none" fill="#d3d7cf" fill-rule="evenodd" stroke="#2e3436" stroke-width="14.801" overflow="visible" transform="scale(-.14657 -.12458) rotate(45 759.933 292.04)"/><path transform="scale(-1 -.85001) rotate(45 74.043 -103.03)" d="M11 13c21 0 38 19 38 35" fill="none" stroke="#fff" stroke-width="2.169"/><g stroke-width="2"><path d="M52.695 20.96a8.993 8.994-44.98 1 1-1.388-17.933 8.993 8.994-44.98 1 1 1.388 17.934z" fill="none" stroke="#280000"/><path d="M-24.634 6.894A7 7 0 1 1-14 16a7 7 0 0 1-10.634-9.106z" fill="url(#h)" stroke="#ef2929" transform="rotate(-135 16.454 -3.059)"/></g><g stroke-width="2"><path d="M50.693 60.973a8.993 8.994-44.98 1 1-1.388-17.934 8.993 8.994-44.98 1 1 1.388 17.934z" fill="none" stroke="#280000"/><path d="M-24.634 6.894A7 7 0 1 1-14 16a7 7 0 0 1-10.634-9.106z" fill="url(#i)" stroke="#ef2929" transform="rotate(-135 23.74 17.362)"/></g><g stroke="#172a04" stroke-width="14.801" transform="scale(-.14657 -.12458) rotate(45 680.186 103.162)"><path d="M-351.209 328.764v40.937c141.808 1.027 245.622 96.978 245.622 231.976 0 .155 8.933-.46 8.932-.313l32 .313c.01-.97.004.969.004 0 0-152.195-127.267-272.913-286.558-272.913z" style="marker:none" fill="#73d216" fill-rule="evenodd" overflow="visible"/><path d="M-337.563 342.41c143.28 0 259.267 129.633 259.267 238.798" fill="none" stroke="#8ae234"/><rect style="marker:none" width="95.16" height="31.635" x="292.996" y="-426.196" rx="0" ry="0" transform="rotate(135)" color="#000" fill="#ef2929" stroke="#a40000" stroke-linecap="square" stroke-linejoin="round" overflow="visible"/><rect style="marker:none" width="95.16" height="31.692" x="292.996" y="-345.986" rx="0" ry="0" transform="rotate(135)" color="#000" fill="#ef2929" stroke="#a40000" stroke-linecap="square" stroke-linejoin="round" overflow="visible"/></g><g stroke-width="2"><path d="M30.695 20.96a8.993 8.994-44.98 1 1-1.388-17.933 8.993 8.994-44.98 1 1 1.388 17.934z" fill="none" stroke="#280000"/><path d="M-24.634 6.894A7 7 0 1 1-14 16a7 7 0 0 1-10.634-9.106z" fill="url(#j)" stroke="#ef2929" transform="rotate(-135 5.454 1.497)"/></g><g stroke-width="2"><path d="M28.693 60.973a8.993 8.994-44.98 1 1-1.388-17.934 8.993 8.994-44.98 1 1 1.388 17.934z" fill="none" stroke="#280000"/><path d="M-24.634 6.894A7 7 0 1 1-14 16a7 7 0 0 1-10.634-9.106z" fill="url(#k)" stroke="#ef2929" transform="rotate(-135 12.74 21.918)"/></g></svg>