<svg xmlns="http://www.w3.org/2000/svg" xmlns:xlink="http://www.w3.org/1999/xlink" width="64" height="64"><defs><linearGradient id="a"><stop offset="0" stop-color="#c4a000"/><stop offset="1" stop-color="#fce94f"/></linearGradient><linearGradient xlink:href="#a" id="b" x1="24.936" y1="25.862" x2="15.76" y2="-25.862" gradientUnits="userSpaceOnUse"/></defs><g font-size="82.304" font-weight="400" stroke-width="2.054" font-family="Bitstream Vera Sans"><path d="M15.76-21.724v20.69h10.195c3.778 0 6.673-.728 8.736-2.683 2.063-1.956 2.479-5.08 2.479-8.697 0-3.59.024-5.285-2.04-7.241-2.062-1.956-5.397-2.07-9.175-2.07H15.76M7.604-30H25.93c6.725 0 11.802 1.527 15.231 4.581 3.456 3.028 5.184 7.475 5.184 13.343 0 5.92-2.058 10.601-5.23 13.56-3.17 2.96-7.004 5.757-15.16 5.757H15.76L15.722 30H7.604v-60" fill="url(#b)" transform="matrix(.98088 0 0 .96667 7.541 32)" stroke="#302b00"/><path d="M13.721-23.793V1.034h14.273c3.101 0 7.899-2.558 8.972-4.137 2.087-3.071 2.243-6.207 2.243-9.31 0-3.104 0-7.035-3.059-9.104-3.058-2.07-6.417-2.276-10.195-2.276H13.721m-4.078-4.138h16.312c6.725 0 10.844 1.084 14.273 4.138 3.059 3.103 4.078 6.207 4.078 11.38C44.438-6.2 42.45-2.582 39.21.413c-3.059 2.69-6.117 4.758-13.254 4.758H13.721v22.759H9.643v-55.862" transform="matrix(.98088 0 0 .96667 7.541 32)" fill="none" stroke="#fce94f"/></g></svg>