<svg xmlns="http://www.w3.org/2000/svg" xmlns:xlink="http://www.w3.org/1999/xlink" width="64" height="64"><defs><linearGradient id="i"><stop offset="0" stop-color="#3465a4"/><stop offset="1" stop-color="#729fcf"/></linearGradient><linearGradient id="f"><stop offset="0" stop-color="#204a87"/><stop offset="1" stop-color="#3465a4"/></linearGradient><linearGradient id="e"><stop offset="0" stop-color="#3465a4"/><stop offset="1" stop-color="#729fcf"/></linearGradient><linearGradient id="b"><stop offset="0" stop-color="#c8e0f9"/><stop offset="1" stop-color="#637dca"/></linearGradient><linearGradient id="a"><stop offset="0" stop-color="#71b2f8"/><stop offset="1" stop-color="#002795"/></linearGradient><linearGradient id="c"><stop offset="0" stop-color="#fff"/><stop offset="1" stop-color="#fff" stop-opacity="0"/></linearGradient><linearGradient id="d"><stop offset="0" stop-color="#fff"/><stop offset="1" stop-color="#fff" stop-opacity="0"/></linearGradient><linearGradient xlink:href="#e" id="j" gradientUnits="userSpaceOnUse" x1="80" y1="58" x2="79" y2="42"/><linearGradient xlink:href="#f" id="k" gradientUnits="userSpaceOnUse" x1="109" y1="51" x2="105" y2="38"/><linearGradient id="g"><stop offset="0" stop-color="#a40000"/><stop offset="1" stop-color="#ef2929"/></linearGradient><linearGradient y2="5" x2="-22" y1="18" x1="-18" gradientUnits="userSpaceOnUse" id="m" xlink:href="#g" gradientTransform="matrix(.77115 0 0 .77114 -4.41 2.586)"/><linearGradient id="h"><stop offset="0" stop-color="#a40000"/><stop offset="1" stop-color="#ef2929"/></linearGradient><linearGradient y2="5" x2="-22" y1="18" x1="-18" gradientTransform="matrix(.77115 0 0 .77114 -4.41 2.586)" gradientUnits="userSpaceOnUse" id="l" xlink:href="#h"/><linearGradient xlink:href="#i" id="n" gradientUnits="userSpaceOnUse" x1="-15" y1="37" x2="-19" y2="37" gradientTransform="rotate(15 69.468 244.383)"/></defs><g stroke-width="2"><path d="M63 39v20l32 2V41z" fill="url(#j)" stroke="#0b1521" stroke-linejoin="round" transform="translate(-60)"/><path d="M95 61l20-10V31L95 41z" fill="url(#k)" stroke="#0b1521" stroke-linejoin="round" transform="translate(-60)"/><path d="M3 39l20-10 32 2-20 10z" fill="#729fcf" stroke="#0b1521" stroke-linejoin="round"/><path d="M5 41v16.1L33 59V42.836z" fill="none" stroke="#729fcf"/><path d="M37 57.8l16-8.033V34.2L37 42z" fill="none" stroke="#3465a4"/></g><path d="M22 8l34 2" fill="none" stroke="#0b1521" stroke-width="6" stroke-linecap="round" stroke-dasharray="6,6"/><path d="M22 8l34 2" fill="none" stroke="#729fcf" stroke-width="2" stroke-linecap="round" stroke-dasharray="6,6"/><g stroke-width="3.599"><path d="M-26.134 5.561a8.993 8.993.02 1 1 13.662 11.7 8.993 8.993.02 1 1-13.662-11.7z" fill="#ef2929" stroke="#280000" transform="matrix(.55576 0 0 .55575 32.728 1.658)"/><path d="M-23.405 7.902a5.398 5.398 0 1 1 8.2 7.022 5.398 5.398 0 0 1-8.2-7.022z" fill="url(#l)" stroke="#ef2929" transform="matrix(.55576 0 0 .55575 32.728 1.658)"/></g><g stroke-width="3.599"><path d="M-26.134 5.561a8.993 8.993.02 1 1 13.662 11.7 8.993 8.993.02 1 1-13.662-11.7z" fill="#ef2929" stroke="#280000" transform="matrix(.55576 0 0 .55575 66.728 3.659)"/><path d="M-23.405 7.902a5.398 5.398 0 1 1 8.2 7.022 5.398 5.398 0 0 1-8.2-7.022z" fill="url(#m)" stroke="#ef2929" transform="matrix(.55576 0 0 .55575 66.728 3.659)"/></g><path d="M40 28l-3.864-1.035 2.07-7.728-3.863-1.035 7.607-5.209 3.984 8.315-3.863-1.035z" fill="url(#n)" stroke="#0b1521" stroke-width="2" stroke-linejoin="round"/></svg>