<svg xmlns="http://www.w3.org/2000/svg" width="64" height="64"><defs><linearGradient id="a"><stop offset="0" stop-color="#fff"/><stop offset="1" stop-color="#fff" stop-opacity="0"/></linearGradient><linearGradient id="b"><stop offset="0" stop-color="#fff"/><stop offset="1" stop-color="#fff" stop-opacity="0"/></linearGradient><linearGradient id="c"><stop offset="0" stop-color="#fff"/><stop offset="1" stop-color="#fff" stop-opacity="0"/></linearGradient></defs><g font-size="54.215" font-weight="400" color="#000" fill="#ff2600" stroke-width="3.167" stroke-linecap="butt" stroke-linejoin="round" font-family="Arial"><g style="marker:none;-inkscape-font-specification:Arial" stroke="#a40000"><path d="M3.994 8.078v10.373l16.448 5.927-16.448 5.927v10.373l30.155-11.855v-8.89z" fill="#73d216" stroke="#ce5c00" transform="matrix(-.46427 0 0 .8589 56.854 26.062)"/><path d="M6.132 16.766v6.462L19.591 33 6.113 42.63l.02 6.164L22.043 37.21v-8.58z" transform="matrix(-.62847 0 0 .63449 56.854 26.062)" fill="none" stroke="#8ae234"/><path style="marker:none;-inkscape-font-specification:Arial" d="M8.301 36.045l-.025-4.553.025 4.553 21.54-8.556v-6.338L8.3 12.386v4.773-4.773" fill="none" stroke="#8ae234" stroke-linejoin="miter" overflow="visible" transform="matrix(-.46427 0 0 .8589 56.854 26.062)"/></g><g style="marker:none;-inkscape-font-specification:Arial" stroke="#731200"><path d="M-82.164 8.078v10.373l16.449 5.927-16.449 5.927v10.373l30.155-11.855v-8.89z" fill="#73d216" stroke="#ce5c00" transform="matrix(.46427 0 0 .8589 59.146 26.062)"/><path d="M-77.856 12.386v4.773l18.218 7.219-18.244 7.23.026 4.437 21.54-8.556v-6.338z" fill="none" stroke="#8ae234" transform="matrix(.46427 0 0 .8589 59.146 26.062)"/><path style="marker:none;-inkscape-font-specification:Arial" d="M-77.856 36.045l-.026-5.018.026 5.018 21.54-8.556v-6.338l-21.54-8.765v4.773-4.773" fill="none" stroke="#8ae234" stroke-linejoin="miter" overflow="visible" transform="matrix(.46427 0 0 .8589 59.146 26.062)"/></g></g><path transform="matrix(.41489 -.41429 .41429 .41488 -19.141 44.004)" style="marker:none" d="M78.59 32.671l53.065-.038.007 9.648-53.065.038z" color="#000" fill="#73d216" stroke="#ce5c00" stroke-width="3.411" stroke-linecap="square" stroke-linejoin="round" overflow="visible"/><path transform="matrix(.41489 -.41429 .41429 .41488 -11.537 51.603)" style="marker:none" d="M78.584 33.633l53.065-.038.007 9.648-53.065.038z" color="#000" stroke="#ce5c00" stroke-width="3.411" stroke-linecap="square" stroke-linejoin="round" overflow="visible" fill="#73d216"/><path d="M76.867 32.638l54.579-.04.007 10.234-54.579.04z" style="marker:none" transform="matrix(.00042 -.58631 .58631 .00042 -14.169 94.055)" color="#000" fill="#73d216" stroke-width="3.411" stroke-linecap="square" stroke-linejoin="round" overflow="visible" stroke="#ce5c00"/><path d="M7 18v30" fill="none" stroke="#8ae234" stroke-width="1.99990341"/><path d="M49.7 5.1L29.1 25.7M57.7 13.1L37.1 33.7" fill="none" stroke="#8ae234" stroke-width="2"/></svg>