<svg xmlns="http://www.w3.org/2000/svg" xmlns:xlink="http://www.w3.org/1999/xlink" width="64" height="64"><defs><linearGradient id="a"><stop offset="0" stop-color="#fff"/><stop offset="1" stop-color="#fff" stop-opacity="0"/></linearGradient><linearGradient id="b"><stop offset="0" stop-color="#fff"/><stop offset="1" stop-color="#fff" stop-opacity="0"/></linearGradient><linearGradient xlink:href="#c" id="e" gradientUnits="userSpaceOnUse" x1="-18" y1="18" x2="-22" y2="5"/><linearGradient id="c"><stop offset="0" stop-color="#a40000"/><stop offset="1" stop-color="#ef2929"/></linearGradient><linearGradient xlink:href="#d" id="f" gradientUnits="userSpaceOnUse" x1="-18" y1="18" x2="-22" y2="5"/><linearGradient id="d"><stop offset="0" stop-color="#a40000"/><stop offset="1" stop-color="#ef2929"/></linearGradient></defs><path d="M30 34L.785 30.211-4.639 1.255l25.862-14.107L42.631 7.386z" transform="matrix(1.03014 .03861 -.03909 1.01767 10.684 19.6)" fill="none" stroke="#0b1521" stroke-width="7.808" stroke-linecap="round" stroke-linejoin="round"/><path d="M30 34L.785 30.211-4.639 1.255l25.862-14.107L42.631 7.386z" transform="matrix(1.03014 .03861 -.03909 1.01767 10.684 19.6)" fill="none" stroke="#3465a4" stroke-width="3.904" stroke-linecap="round" stroke-linejoin="round"/><path d="M5 20L33.24 6.106l22.179 22.369" fill="none" stroke="#729fcf" stroke-width="2" stroke-linecap="round" stroke-linejoin="round" stroke-miterlimit="18.9"/><path d="M7.215 22.99l3.976 26.521 28.523 4.743 12.598-23.88" fill="none" stroke="#729fcf" stroke-width="2" stroke-linecap="round"/><g stroke-width="2"><path d="M45.172 22.153a8.994 8.993.02 1 1 13.662 11.7 8.994 8.993.02 1 1-13.662-11.7z" fill="none" stroke="#280000"/><path d="M-24.634 6.894A7 7 0 1 1-14 16a7 7 0 0 1-10.634-9.106z" fill="url(#e)" stroke="#ef2929" transform="translate(71.328 16.57)"/></g><g stroke-width="2"><path d="M21.172 27.153a8.994 8.993.02 1 1 13.662 11.7 8.994 8.993.02 1 1-13.662-11.7z" fill="none" stroke="#280000"/><path d="M-24.634 6.894A7 7 0 1 1-14 16a7 7 0 0 1-10.634-9.106z" fill="url(#f)" stroke="#ef2929" transform="translate(47.328 21.57)"/></g></svg>