<svg xmlns="http://www.w3.org/2000/svg" xmlns:xlink="http://www.w3.org/1999/xlink" width="64" height="64"><defs><linearGradient id="a"><stop offset="0" stop-color="#fff"/><stop offset="1" stop-color="#fff" stop-opacity="0"/></linearGradient><linearGradient id="c"><stop offset="0" stop-color="#fff"/><stop offset="1" stop-color="#fff" stop-opacity="0"/></linearGradient><linearGradient id="b"><stop offset="0" stop-color="#fff"/><stop offset="1" stop-color="#fff" stop-opacity="0"/></linearGradient><linearGradient id="e"><stop offset="0" stop-color="#a40000"/><stop offset="1" stop-color="#ef2929"/></linearGradient><linearGradient id="d"><stop offset="0" stop-color="#a40000"/><stop offset="1" stop-color="#ef2929"/></linearGradient><linearGradient xlink:href="#d" id="h" gradientUnits="userSpaceOnUse" x1="-24.89" y1="10.114" x2="-12.869" y2="13.65"/><linearGradient xlink:href="#e" id="i" gradientUnits="userSpaceOnUse" x1="-25.074" y1="8.516" x2="-11.639" y2="13.466" gradientTransform="translate(154.017 -25.343)"/><linearGradient xlink:href="#f" id="k" gradientUnits="userSpaceOnUse" x1="-25.074" y1="8.516" x2="-11.639" y2="13.466" gradientTransform="translate(175.23 -46.556)"/><linearGradient id="f"><stop offset="0" stop-color="#a40000"/><stop offset="1" stop-color="#ef2929"/></linearGradient><linearGradient xlink:href="#g" id="j" gradientUnits="userSpaceOnUse" x1="-24.89" y1="10.114" x2="-12.869" y2="13.65" gradientTransform="translate(202.107 -16.847)"/><linearGradient id="g"><stop offset="0" stop-color="#a40000"/><stop offset="1" stop-color="#ef2929"/></linearGradient></defs><g stroke-width="14.801"><path style="marker:none" d="M-567.547 546.613v40.937c141.808 1.027 245.622 96.978 245.622 231.976 0 .155 8.933-.46 8.932-.313l32 .313c.01-.969.004.969.004 0 0-152.194-127.267-272.913-286.558-272.913z" overflow="visible" fill="#d3d7cf" fill-rule="evenodd" stroke="#2e3436" transform="scale(-.14657 -.12458) rotate(45 766.756 308.511)"/><path d="M11 13c21 0 38 19 38 35" transform="scale(-1 -.85001) rotate(45 75.043 -100.616)" fill="none" stroke="#fff" stroke-width="2.169"/></g><g stroke-width="2"><path d="M50.695 20.96a8.993 8.994-44.98 1 1-1.388-17.933 8.993 8.994-44.98 1 1 1.388 17.934z" fill="none" stroke="#280000"/><path d="M-24.634 6.894A7 7 0 1 1-14 16a7 7 0 0 1-10.634-9.106z" fill="url(#h)" stroke="#ef2929" transform="rotate(-135 15.454 -2.645)"/></g><path d="M48.693 60.973a8.993 8.994-44.98 1 1-1.388-17.934 8.993 8.994-44.98 1 1 1.388 17.934z" fill="none" stroke="#280000" stroke-width="2"/><path d="M129.384-18.449a7 7 0 1 1 10.633 9.106 7 7 0 0 1-10.633-9.106z" fill="url(#i)" stroke="#ef2929" stroke-width="2" transform="rotate(-135 104.997 37.003)"/><path d="M20.58 58.133l4.243-3.606C10.233 41.944 9.418 24.346 23.41 12.453c.016-.013-.974-.746-.958-.759l-3.284-2.846c-.102.084.1-.086 0 0C3.392 22.254 4.071 44.1 20.58 58.132z" style="marker:none" overflow="visible" fill="#73d216" fill-rule="evenodd"/><path d="M20.58 55.729C5.731 43.107 7.145 21.469 18.46 11.852" fill="none" stroke="#8ae234" stroke-width="2"/><path d="M20.695 20.96a8.993 8.994-44.98 1 1-1.388-17.933 8.993 8.994-44.98 1 1 1.388 17.934z" fill="none"/><path d="M177.474-9.953a7 7 0 1 1 10.633 9.106 7 7 0 0 1-10.633-9.106z" fill="url(#j)" stroke="#ef2929" stroke-width="2" transform="rotate(-135 104.997 37.003)"/><path d="M18.693 60.973a8.993 8.994-44.98 1 1-1.388-17.934 8.993 8.994-44.98 1 1 1.388 17.934z" fill="none"/><path d="M150.597-39.662a7 7 0 1 1 10.633 9.106 7 7 0 0 1-10.633-9.106z" fill="url(#k)" stroke="#ef2929" stroke-width="2" transform="rotate(-135 104.997 37.003)"/></svg>