<svg xmlns="http://www.w3.org/2000/svg" xmlns:xlink="http://www.w3.org/1999/xlink" width="64" height="64"><defs><linearGradient id="a"><stop offset="0" stop-color="#fff"/><stop offset="1" stop-color="#fff" stop-opacity="0"/></linearGradient><linearGradient id="b"><stop offset="0" stop-color="#fff"/><stop offset="1" stop-color="#fff" stop-opacity="0"/></linearGradient><linearGradient xlink:href="#c" id="f" gradientUnits="userSpaceOnUse" x1="-18" y1="18" x2="-22" y2="5" gradientTransform="translate(-90 -6)"/><linearGradient id="c"><stop offset="0" stop-color="#a40000"/><stop offset="1" stop-color="#ef2929"/></linearGradient><linearGradient id="d"><stop offset="0" stop-color="#a40000"/><stop offset="1" stop-color="#ef2929"/></linearGradient><linearGradient y2="5" x2="-22" y1="18" x1="-18" gradientUnits="userSpaceOnUse" id="g" xlink:href="#e"/><linearGradient id="e"><stop offset="0" stop-color="#a40000"/><stop offset="1" stop-color="#ef2929"/></linearGradient></defs><g stroke-width="6.444"><path fill="#d3d7cf" stroke="#2e3436" stroke-width="2.0000942200000003" stroke-linecap="round" stroke-miterlimit="1.9" d="M39 51v4h-8v-4zM9 25h6v8H9z"/><path d="M61 55v-6l-10 .02c-20.784-.13-36-14.193-36-33.979V3H9v12c0 22.307 18.653 40 42 40h0z" fill="#d3d7cf" stroke="#2e3436" stroke-width="2"/><path d="M50 51c-22 0-37-17-37-35" fill="none" stroke="#fff" stroke-width="2.0000942200000003"/><path d="M11 4v12M60 51H49" fill="none" stroke="#fff" stroke-width="2"/><path fill="#d3d7cf" stroke="#2e3436" stroke-width="2.0000942200000003" stroke-linecap="round" stroke-miterlimit="1.9" d="M9 53h4v8H9zM9 39h4v8H9z"/><path fill="#d3d7cf" stroke="#2e3436" stroke-width="2.0000942200000003" stroke-linecap="round" stroke-miterlimit="1.9" d="M11 51v4H3v-4z"/><path fill="#d3d7cf" d="M10 54h2v6h-2z"/><path fill="#d3d7cf" stroke="#2e3436" stroke-width="2.0000942200000003" stroke-linecap="round" stroke-miterlimit="1.9" d="M25 51v4h-8v-4z"/><g><g stroke-width="2"><path d="M33.166 44.153a8.994 8.993.02 1 1 13.662 11.7 8.994 8.993.02 1 1-13.662-11.7z" fill="#ef2929" stroke="#280000"/><path d="M-114.634.894A7 7 0 1 1-104 10 7 7 0 0 1-114.634.894z" fill="url(#f)" stroke="#ef2929" transform="translate(149.322 44.57)"/></g></g><g stroke-width="2"><path d="M5.166 18.153a8.994 8.993.02 1 1 13.662 11.7 8.994 8.993.02 1 1-13.662-11.7z" fill="#ef2929" stroke="#280000"/><path d="M-24.634 6.894A7 7 0 1 1-14 16a7 7 0 0 1-10.634-9.106z" fill="url(#g)" stroke="#ef2929" transform="translate(31.322 12.57)"/></g></g></svg>