<svg xmlns="http://www.w3.org/2000/svg" xmlns:xlink="http://www.w3.org/1999/xlink" width="64" height="64"><defs><linearGradient id="a"><stop offset="0" stop-color="#fff"/><stop offset="1" stop-color="#fff" stop-opacity="0"/></linearGradient><linearGradient id="c"><stop offset="0" stop-color="#fff"/><stop offset="1" stop-color="#fff" stop-opacity="0"/></linearGradient><linearGradient id="b"><stop offset="0" stop-color="#fff"/><stop offset="1" stop-color="#fff" stop-opacity="0"/></linearGradient><linearGradient id="d"><stop offset="0" stop-color="#a40000"/><stop offset="1" stop-color="#ef2929"/></linearGradient><linearGradient id="e"><stop offset="0" stop-color="#a40000"/><stop offset="1" stop-color="#ef2929"/></linearGradient><linearGradient id="f"><stop offset="0" stop-color="#a40000"/><stop offset="1" stop-color="#ef2929"/></linearGradient><linearGradient id="g"><stop offset="0" stop-color="#a40000"/><stop offset="1" stop-color="#ef2929"/></linearGradient><linearGradient id="h"><stop offset="0" stop-color="#a40000"/><stop offset="1" stop-color="#ef2929"/></linearGradient><linearGradient id="i"><stop offset="0" stop-color="#a40000"/><stop offset="1" stop-color="#ef2929"/></linearGradient><linearGradient xlink:href="#g" id="l" gradientUnits="userSpaceOnUse" x1="-24.89" y1="10.114" x2="-12.869" y2="13.65"/><linearGradient xlink:href="#f" id="m" gradientUnits="userSpaceOnUse" x1="-25.074" y1="8.516" x2="-11.639" y2="13.466"/><linearGradient xlink:href="#i" id="n" gradientUnits="userSpaceOnUse" x1="-24.89" y1="10.114" x2="-12.869" y2="13.65"/><linearGradient xlink:href="#h" id="o" gradientUnits="userSpaceOnUse" x1="-25.074" y1="8.516" x2="-11.639" y2="13.466"/><linearGradient xlink:href="#e" id="j" gradientUnits="userSpaceOnUse" gradientTransform="matrix(.53559 0 0 .53557 -6.481 2.804)" x1="-18" y1="18" x2="-22" y2="5"/><linearGradient xlink:href="#d" id="k" gradientUnits="userSpaceOnUse" gradientTransform="matrix(.53559 0 0 .53557 -6.481 2.804)" x1="-18" y1="18" x2="-22" y2="5"/></defs><path d="M33 20v24" fill="none" stroke="#172a04" stroke-width="8"/><path d="M33 20v24" fill="none" stroke="#73d216" stroke-width="4"/><path d="M32 20v24" fill="none" stroke="#8ae234" stroke-width="2"/><g stroke-width="2.499"><path d="M-21.57 4.87a6.246 6.246.017 1 1 9.488 8.126A6.246 6.246.017 1 1-21.57 4.87z" fill="#ef2929" stroke="#280000" transform="matrix(.80023 0 0 .80022 46.464 12.851)"/><path d="M-19.675 6.496a3.75 3.749 0 1 1 5.695 4.877 3.75 3.749 0 0 1-5.695-4.877z" fill="url(#j)" stroke="#ef2929" transform="matrix(.80023 0 0 .80022 46.464 12.851)"/></g><g stroke-width="2.499"><path d="M-21.57 4.87a6.246 6.246.017 1 1 9.488 8.126A6.246 6.246.017 1 1-21.57 4.87z" fill="#ef2929" stroke="#280000" transform="matrix(.80023 0 0 .80022 46.464 36.851)"/><path d="M-19.675 6.496a3.75 3.749 0 1 1 5.695 4.877 3.75 3.749 0 0 1-5.695-4.877z" fill="url(#k)" stroke="#ef2929" transform="matrix(.80023 0 0 .80022 46.464 36.851)"/></g><g><path style="marker:none" d="M15.825 58.133l4.243-3.606C5.478 41.944 4.663 24.346 18.654 12.453c.016-.013-.974-.746-.958-.759l-3.284-2.846c-.102.084.1-.086 0 0C-1.363 22.254-.684 44.1 15.825 58.132z" fill="#73d216" fill-rule="evenodd" stroke="#172a04" stroke-width="2" overflow="visible"/><path d="M15.825 55.729C.976 43.107 2.39 21.469 13.705 11.852" fill="none" stroke="#8ae234" stroke-width="2"/><g stroke-width="2"><path d="M14.693 20.973a8.993 8.994-44.98 1 1-1.388-17.934 8.993 8.994-44.98 1 1 1.388 17.934z" fill="#ef2929" stroke="#280000"/><path d="M-24.634 6.894A7 7 0 1 1-14 16a7 7 0 0 1-10.634-9.106z" fill="url(#l)" stroke="#ef2929" transform="rotate(-135 -2.544 4.818)"/></g><g stroke-width="2"><path d="M12.693 60.973a8.993 8.994-44.98 1 1-1.388-17.934 8.993 8.994-44.98 1 1 1.388 17.934z" fill="#ef2929" stroke="#280000"/><path d="M-24.634 6.894A7 7 0 1 1-14 16a7 7 0 0 1-10.634-9.106z" fill="url(#m)" stroke="#ef2929" transform="rotate(-135 4.74 25.232)"/></g></g><g><path style="marker:none" d="M-567.547 546.613v40.937c141.808 1.027 245.622 96.978 245.622 231.976 0 .155 8.933-.46 8.932-.313l32 .313c.01-.969.004.969.004 0 0-152.194-127.267-272.913-286.558-272.913z" fill="#d3d7cf" fill-rule="evenodd" stroke="#2e3436" stroke-width="14.801" overflow="visible" transform="scale(.14657 -.12458) rotate(45 1095.68 1125.146)"/><path d="M11 13c21 0 38 19 38 35" transform="scale(1 -.85001) rotate(45 123.253 19.076)" fill="none" stroke="#fff" stroke-width="2.169"/><g stroke-width="2"><path d="M52.695 20.973a8.993 8.994-44.98 1 1-1.388-17.934 8.993 8.994-44.98 1 1 1.388 17.934z" fill="#ef2929" stroke="#280000"/><path d="M-24.634 6.894A7 7 0 1 1-14 16a7 7 0 0 1-10.634-9.106z" fill="url(#n)" stroke="#ef2929" transform="rotate(-135 16.457 -3.053)"/></g><g stroke-width="2"><path d="M52.695 60.973a8.993 8.994-44.98 1 1-1.388-17.934 8.993 8.994-44.98 1 1 1.388 17.934z" fill="#ef2929" stroke="#280000"/><path d="M-24.634 6.894A7 7 0 1 1-14 16a7 7 0 0 1-10.634-9.106z" fill="url(#o)" stroke="#ef2929" transform="rotate(-135 24.741 16.947)"/></g></g></svg>