<svg xmlns="http://www.w3.org/2000/svg" xmlns:xlink="http://www.w3.org/1999/xlink" width="64" height="64"><defs><linearGradient id="d"><stop offset="0" stop-color="#d3d7cf"/><stop offset="1" stop-color="#fff"/></linearGradient><linearGradient id="c"><stop offset="0" stop-color="#fff"/><stop offset="1" stop-color="#d3d7cf"/></linearGradient><linearGradient id="a"><stop offset="0" stop-color="#fff"/><stop offset="1" stop-color="#fff" stop-opacity="0"/></linearGradient><linearGradient id="b"><stop offset="0" stop-color="#fff"/><stop offset="1" stop-color="#fff" stop-opacity="0"/></linearGradient><linearGradient xlink:href="#c" id="h" x1="36" y1="1037.362" x2="32" y2="1005.362" gradientUnits="userSpaceOnUse"/><linearGradient xlink:href="#d" id="g" x1="36" y1="1039.362" x2="32" y2="1003.362" gradientUnits="userSpaceOnUse"/><linearGradient xlink:href="#e" id="i" gradientUnits="userSpaceOnUse" x1="-18" y1="18" x2="-22" y2="5"/><linearGradient id="e"><stop offset="0" stop-color="#a40000"/><stop offset="1" stop-color="#ef2929"/></linearGradient><linearGradient xlink:href="#f" id="j" gradientUnits="userSpaceOnUse" x1="-18" y1="18" x2="-22" y2="5"/><linearGradient id="f"><stop offset="0" stop-color="#a40000"/><stop offset="1" stop-color="#ef2929"/></linearGradient></defs><path transform="matrix(.85 0 0 .85 5.15 6.65)" d="M42.176 11c11.046 0 20 8.954 20 20s-8.954 20-20 20m0-40H21C9.954 11 1 19.954 1 31s8.954 20 20 20h21.176" fill="none" stroke="#2e3436" stroke-width="9.412" stroke-linecap="round" stroke-miterlimit="1.9"/><path d="M41 16c9.389 0 17 7.611 17 17s-7.611 17-17 17m0-34H23c-9.389 0-17 7.611-17 17s7.611 17 17 17h18" fill="none" stroke="#d3d7cf" stroke-width="4" stroke-linecap="round" stroke-miterlimit="1.9"/><path d="M41.346 1003.362c9.75 0 17.654 8.059 17.654 18s-7.904 18-17.654 18m0-36H22.654c-9.75 0-17.654 8.059-17.654 18s7.904 18 17.654 18h18.692" fill="none" stroke="url(#g)" stroke-width="2" stroke-linecap="round" stroke-miterlimit="1.9" transform="translate(0 -988.362)"/><path d="M40.654 1005.362c9.028 0 16.346 7.164 16.346 16 0 8.837-7.318 16-16.346 16m0-32H23.346c-9.028 0-16.346 7.164-16.346 16 0 8.837 7.318 16 16.346 16h17.308" fill="none" stroke="url(#h)" stroke-width="2" stroke-linecap="round" stroke-miterlimit="1.9" transform="translate(0 -988.362)"/><g stroke-width="2"><path d="M17.166 27.153a8.994 8.993.02 1 1 13.662 11.7 8.994 8.993.02 1 1-13.662-11.7z" fill="#ef2929" stroke="#280000"/><path d="M-24.634 6.894A7 7 0 1 1-14 16a7 7 0 0 1-10.634-9.106z" fill="url(#i)" stroke="#ef2929" transform="translate(43.322 21.57)"/></g><g stroke-width="2"><path d="M39.172 10.153a8.994 8.993.02 1 1 13.662 11.7 8.994 8.993.02 1 1-13.662-11.7z" fill="#ef2929" stroke="#280000"/><path d="M-24.634 6.894A7 7 0 1 1-14 16a7 7 0 0 1-10.634-9.106z" fill="url(#j)" stroke="#ef2929" transform="translate(65.328 4.57)"/></g></svg>