<svg xmlns="http://www.w3.org/2000/svg" xmlns:xlink="http://www.w3.org/1999/xlink" width="64" height="64"><defs><linearGradient id="c"><stop offset="0" stop-color="#a40000"/><stop offset="1" stop-color="#ef2929"/></linearGradient><linearGradient id="a"><stop offset="0" stop-color="#fff"/><stop offset="1" stop-color="#fff" stop-opacity="0"/></linearGradient><linearGradient id="b"><stop offset="0" stop-color="#4e9a06"/><stop offset="1" stop-color="#8ae234"/></linearGradient><linearGradient xlink:href="#b" id="f" gradientUnits="userSpaceOnUse" x1="-24.89" y1="10.114" x2="-12.869" y2="13.65"/><linearGradient xlink:href="#c" id="g" gradientUnits="userSpaceOnUse" x1="-25.074" y1="8.516" x2="-11.639" y2="13.466"/><linearGradient xlink:href="#d" id="h" gradientUnits="userSpaceOnUse" x1="-24.89" y1="10.114" x2="-12.869" y2="13.65"/><linearGradient id="d"><stop offset="0" stop-color="#4e9a06"/><stop offset="1" stop-color="#8ae234"/></linearGradient><linearGradient xlink:href="#e" id="i" gradientUnits="userSpaceOnUse" x1="-25.074" y1="8.516" x2="-11.639" y2="13.466"/><linearGradient id="e"><stop offset="0" stop-color="#a40000"/><stop offset="1" stop-color="#ef2929"/></linearGradient></defs><path style="marker:none" d="M-567.547 546.613v40.937c141.808 1.027 245.622 96.978 245.622 231.976 0 .155 8.933-.46 8.932-.313l32 .313c.01-.969.004.969.004 0 0-152.194-127.267-272.913-286.558-272.913z" fill="#d3d7cf" fill-rule="evenodd" stroke="#2e3436" stroke-width="14.801" overflow="visible" transform="scale(-.14657 -.12458) rotate(45 885.32 594.75)"/><path d="M11 13c21 0 38 19 38 35" transform="scale(-1 -.85001) rotate(45 92.42 -58.663)" fill="none" stroke="#fff" stroke-width="2.169"/><g stroke-width="2"><path d="M15.94 20.96a8.993 8.994-44.98 1 1-1.388-17.933 8.993 8.994-44.98 1 1 1.388 17.934z" fill="none" stroke="#172a04"/><path d="M-24.634 6.894A7 7 0 1 1-14 16a7 7 0 0 1-10.634-9.106z" fill="url(#f)" stroke="#8ae234" transform="rotate(-135 -1.923 4.553)"/></g><g stroke-width="2"><path d="M13.938 60.973a8.993 8.994-44.98 1 1-1.388-17.934 8.993 8.994-44.98 1 1 1.388 17.934z" fill="none" stroke="#280000"/><path d="M-24.634 6.894A7 7 0 1 1-14 16a7 7 0 0 1-10.634-9.106z" fill="url(#g)" stroke="#ef2929" transform="rotate(-135 5.362 24.974)"/></g><g><path d="M52 12v36" fill="none" stroke="#2e3436" stroke-width="8"/><path d="M52 10v34" fill="none" stroke="#d3d7cf" stroke-width="4"/><path d="M51 12v37" fill="none" stroke="#fff" stroke-width="2"/><g stroke-width="2"><path d="M52.695 20.973a8.993 8.994-44.98 1 1-1.388-17.934 8.993 8.994-44.98 1 1 1.388 17.934z" fill="none" stroke="#172a04"/><path d="M-24.634 6.894A7 7 0 1 1-14 16a7 7 0 0 1-10.634-9.106z" fill="url(#h)" stroke="#8ae234" transform="rotate(-135 16.457 -3.053)"/></g><g stroke-width="2"><path d="M52.695 50.973a8.993 8.994-44.98 1 1-1.388-17.934 8.993 8.994-44.98 1 1 1.388 17.934z" fill="none" stroke="#280000"/><path d="M-24.634 6.894A7 7 0 1 1-14 16a7 7 0 0 1-10.634-9.106z" fill="url(#i)" stroke="#ef2929" transform="rotate(-135 22.67 11.947)"/></g></g><g stroke-width="2"><path d="M23 26l8-7v4h12v6H31v4z" fill="#c00" stroke="#280000" stroke-linejoin="round"/><path d="M26 26l3-2.6V25h12" fill="none" stroke="#ef2929" stroke-linecap="round"/></g></svg>