<svg xmlns="http://www.w3.org/2000/svg" width="64" height="64"><g stroke-width="2"><path fill="#3465a4" stroke="#0b1521" stroke-linecap="round" stroke-linejoin="round" stroke-miterlimit="10" stroke-dashoffset="2.04" d="M69 3h6v12h-6z" transform="matrix(.66667 .66667 -.66667 .66667 7 -39)"/><path d="M71 4v10" fill="none" stroke="#729fcf" transform="matrix(.66667 .66667 -.66667 .66667 7 -39)"/><path fill="#3465a4" stroke="#0b1521" stroke-linecap="round" stroke-linejoin="round" stroke-miterlimit="10" stroke-dashoffset="2.04" d="M69 3h6v12h-6z" transform="matrix(.66667 .66667 -.66667 .66667 -5 -27)"/><path d="M71 4v10" fill="none" stroke="#729fcf" transform="matrix(.66667 .66667 -.66667 .66667 -5 -27)"/><g><path fill="#3465a4" stroke="#0b1521" stroke-linecap="round" stroke-linejoin="round" stroke-miterlimit="10" stroke-dashoffset="2.04" d="M69 3h6v12h-6z" transform="matrix(.66667 .66667 -.66667 .66667 -17 -15)"/><path d="M71 4v10" fill="none" stroke="#729fcf" transform="matrix(.66667 .66667 -.66667 .66667 -17 -15)"/></g><g><path fill="#3465a4" stroke="#0b1521" stroke-linecap="round" stroke-linejoin="round" stroke-miterlimit="10" stroke-dashoffset="2.04" d="M69 3h6v12h-6z" transform="matrix(.66667 .66667 -.66667 .66667 -29 -3)"/><path d="M71 4v10" fill="none" stroke="#729fcf" transform="matrix(.66667 .66667 -.66667 .66667 -29 -3)"/></g></g></svg>