<svg xmlns="http://www.w3.org/2000/svg" xmlns:xlink="http://www.w3.org/1999/xlink" width="64" height="64"><defs><linearGradient id="d"><stop offset="0" stop-color="#fce94f"/><stop offset="1" stop-color="#c4a000"/></linearGradient><linearGradient id="a"><stop offset="0" stop-color="#fff"/><stop offset="1" stop-color="#fff" stop-opacity="0"/></linearGradient><linearGradient id="b"><stop offset="0" stop-color="olive"/><stop offset="1" stop-color="olive" stop-opacity="0"/></linearGradient><linearGradient id="c"><stop offset="0" stop-color="#fff"/><stop offset="1" stop-color="#fff" stop-opacity="0"/></linearGradient><linearGradient xlink:href="#d" id="f" x1="28" y1="5" x2="37" y2="59" gradientUnits="userSpaceOnUse"/><linearGradient id="e"><stop offset="0" stop-color="#fce94f"/><stop offset="1" stop-color="#c4a000"/></linearGradient></defs><g stroke-width="2"><path d="M3 61V31C3-6 61-6 61 31v30H49V33c0-22-34-22-34 0v28z" fill="url(#f)" stroke="#302b00" stroke-linejoin="round"/><path d="M5 59h8V34c0-26 38-26 38 0v25h8V31C59-4 5-4 5 31z" fill="none" stroke="#fce94f"/></g><path d="M24 51V33c0-10 16-10 16 0v18" fill="none" stroke="#302b00" stroke-width="8.000038779999999"/><path d="M24 49V33c0-10 16-10 16 0v16" fill="none" stroke="#edd400" stroke-width="4.000019389999999"/><path d="M23 49V33c0-12 18-12 18 0v16" fill="none" stroke="#fce94f" stroke-width="2.0001065899999997"/></svg>