<svg xmlns="http://www.w3.org/2000/svg" xmlns:xlink="http://www.w3.org/1999/xlink" width="64" height="64"><defs><linearGradient id="a"><stop offset="0" stop-color="#fff"/><stop offset="1" stop-color="#fff" stop-opacity="0"/></linearGradient><linearGradient id="b"><stop offset="0" stop-color="#fff"/><stop offset="1" stop-color="#fff" stop-opacity="0"/></linearGradient><linearGradient id="c"><stop offset="0" stop-color="#a40000"/><stop offset="1" stop-color="#ef2929"/></linearGradient><linearGradient id="d"><stop offset="0" stop-color="#a40000"/><stop offset="1" stop-color="#ef2929"/></linearGradient><linearGradient id="e"><stop offset="0" stop-color="#a40000"/><stop offset="1" stop-color="#ef2929"/></linearGradient><linearGradient id="f"><stop offset="0" stop-color="#a40000"/><stop offset="1" stop-color="#ef2929"/></linearGradient><linearGradient y2="5" x2="-22" y1="18" x1="-18" gradientTransform="matrix(.93724 0 0 .93726 -1.223 .707)" gradientUnits="userSpaceOnUse" id="j" xlink:href="#f"/><linearGradient id="g"><stop offset="0" stop-color="#a40000"/><stop offset="1" stop-color="#ef2929"/></linearGradient><linearGradient y2="5" x2="-22" y1="18" x1="-18" gradientTransform="matrix(.93724 0 0 .93726 -1.223 .707)" gradientUnits="userSpaceOnUse" id="k" xlink:href="#g"/><linearGradient id="h"><stop offset="0" stop-color="#a40000"/><stop offset="1" stop-color="#ef2929"/></linearGradient><linearGradient y2="5" x2="-22" y1="18" x1="-18" gradientTransform="matrix(.93724 0 0 .93726 -1.223 .707)" gradientUnits="userSpaceOnUse" id="l" xlink:href="#h"/><linearGradient id="i"><stop offset="0" stop-color="#a40000"/><stop offset="1" stop-color="#ef2929"/></linearGradient><linearGradient y2="5" x2="-22" y1="18" x1="-18" gradientTransform="matrix(.93724 0 0 .93726 -1.223 .707)" gradientUnits="userSpaceOnUse" id="m" xlink:href="#i"/></defs><path d="M-26.156 5.583a8.994 8.993.02 1 1 13.662 11.7 8.994 8.993.02 1 1-13.662-11.7z" fill="#ef2929" stroke="#280000" stroke-width="2" transform="matrix(.80023 0 0 .80022 25.464 44.852)"/><path d="M-24.31 7.168a6.56 6.56 0 1 1 9.966 8.535 6.56 6.56 0 0 1-9.966-8.535z" fill="url(#j)" stroke="#ef2929" stroke-width="1.874" transform="matrix(.80023 0 0 .80022 25.464 44.852)"/><path d="M-26.156 5.583a8.994 8.993.02 1 1 13.662 11.7 8.994 8.993.02 1 1-13.662-11.7z" fill="#ef2929" stroke="#280000" stroke-width="2" transform="matrix(.80023 0 0 .80022 65.464 38.852)"/><path d="M-24.31 7.168a6.56 6.56 0 1 1 9.966 8.535 6.56 6.56 0 0 1-9.966-8.535z" fill="url(#k)" stroke="#ef2929" stroke-width="1.874" transform="matrix(.80023 0 0 .80022 65.464 38.852)"/><path d="M-26.156 5.583a8.994 8.993.02 1 1 13.662 11.7 8.994 8.993.02 1 1-13.662-11.7z" fill="#ef2929" stroke="#280000" stroke-width="2" transform="matrix(.80023 0 0 .80022 69.464 .852)"/><path d="M-24.31 7.168a6.56 6.56 0 1 1 9.966 8.535 6.56 6.56 0 0 1-9.966-8.535z" fill="url(#l)" stroke="#ef2929" stroke-width="1.874" transform="matrix(.80023 0 0 .80022 69.464 .852)"/><path d="M-26.156 5.583a8.994 8.993.02 1 1 13.662 11.7 8.994 8.993.02 1 1-13.662-11.7z" fill="#ef2929" stroke="#280000" stroke-width="2" transform="matrix(.80023 0 0 .80022 29.464 6.852)"/><path d="M-24.31 7.168a6.56 6.56 0 1 1 9.966 8.535 6.56 6.56 0 0 1-9.966-8.535z" fill="url(#m)" stroke="#ef2929" stroke-width="1.874" transform="matrix(.80023 0 0 .80022 29.464 6.852)"/><path d="M18.037 43.097c-10.76-10.204 2.537-10.721 8.096-16.486 5.559-5.766 14.149-19.103 17.517-8.833 3.368 10.271 9.172 10.775-3.091 19.137-12.263 8.361-11.763 16.387-22.522 6.182z" fill="none" stroke="#2e3436" stroke-width="8" stroke-linejoin="round"/><path d="M18.037 43.097c-10.76-10.204 2.537-10.721 8.096-16.486 5.559-5.766 14.149-19.103 17.517-8.833 3.368 10.271 9.172 10.775-3.091 19.137-12.263 8.361-11.763 16.387-22.522 6.182z" fill="none" stroke="#d3d7cf" stroke-width="4" stroke-linejoin="round"/><path d="M18.491 42.044c-11.357-10.188 1.99-10.677 7.39-16.433 5.4-5.756 14.293-19.22 18.36-8.554 4.067 10.665 8.057 10.742-3.6 18.686-11.658 7.943-10.792 16.49-22.15 6.3z" fill="none" stroke="#fff" stroke-width="2.053" stroke-linejoin="round"/></svg>