<svg width="54" height="53" xmlns="http://www.w3.org/2000/svg"><defs><linearGradient x1="59.388%" y1="96.829%" x2="30.817%" y2="3.973%" id="a"><stop stop-color="#A40000" offset="0%"/><stop stop-color="#EF2929" offset="100%"/></linearGradient></defs><g fill="none" fill-rule="evenodd"><path d="M10.46 43.03a4.002 4.002 0 0 1 .005-5.661l11.286-11.286a3.998 3.998 0 0 1 5.662-.005 4.002 4.002 0 0 1-.005 5.662L16.122 43.026a3.998 3.998 0 0 1-5.661.004z" fill="#2E3436"/><path d="M11.875 41.616c.786.787 2.05.779 2.833-.005l11.286-11.285a2.002 2.002 0 0 0 .004-2.833 1.998 1.998 0 0 0-2.833.004L11.88 38.783a2.002 2.002 0 0 0-.005 2.833z" fill="#FFF"/><path d="M25.998 27.493c.781.78.78 2.048-.004 2.833L14.708 41.61a1.998 1.998 0 0 1-2.833.005l14.123-14.123z" fill="#D3D7CF"/><path d="M29 24.192a3.995 3.995 0 0 1 0-5.656l4.243-4.243a3.995 3.995 0 0 1 5.656 0 3.995 3.995 0 0 1 0 5.656l-4.242 4.244a3.995 3.995 0 0 1-5.657 0z" fill="#2E3436"/><path d="M30.414 22.778a1.995 1.995 0 0 0 2.828 0l4.244-4.243a1.995 1.995 0 0 0 0-2.828 1.995 1.995 0 0 0-2.829 0l-4.243 4.243a1.995 1.995 0 0 0 0 2.828z" fill="#FFF"/><path d="M37.485 15.707a1.995 1.995 0 0 1 0 2.828l-4.243 4.243c-.78.781-2.041.787-2.828 0l7.071-7.07z" fill="#D3D7CF"/><g stroke-width="2"><path d="M2.904 42.31a8.994 8.994 0 1 1 17.934-1.388A8.994 8.994 0 1 1 2.904 42.31z" stroke="#280000"/><path d="M3.68 4.45a7 7 0 1 1 10.64 9.1 7 7 0 0 1-10.64-9.1h0z" stroke="#EF2929" fill="url(#a)" transform="rotate(-45 49.809 21.838)"/></g><g><path d="M47.805 1.197a4.098 4.098 0 0 0-.196-.005H32.007a4 4 0 1 0 0 8H44v11.61a4 4 0 1 0 8 0V5.198a4 4 0 0 0-4.195-4.002z" fill="#2E3436"/><path d="M47.805 3.202A2 2 0 0 1 50 5.2V20.8a2 2 0 0 1-4 0V7.192H32.007a2 2 0 0 1 0-4H47.61c.066 0 .131.004.196.01z" fill="#FFF"/><path d="M48 22.808a2 2 0 0 0 2-2.007V5.2a1.999 1.999 0 0 0-2-2.007v19.616zM46 7.192H32.01a2 2 0 0 1-2.01-2h16v2z" fill="#D3D7CF"/></g></g></svg>