<svg xmlns="http://www.w3.org/2000/svg" xmlns:xlink="http://www.w3.org/1999/xlink" width="64" height="64"><defs><linearGradient id="a"><stop offset="0" stop-color="#fff"/><stop offset="1" stop-color="#fff" stop-opacity="0"/></linearGradient><linearGradient xlink:href="#b" id="r" x1="37.429" y1="41.591" x2="24.483" y2="4.91" gradientUnits="userSpaceOnUse"/><linearGradient id="b"><stop offset="0" stop-color="#fff"/><stop offset="1" stop-color="#fff" stop-opacity="0"/></linearGradient><linearGradient xlink:href="#c" id="s" x1="22.843" y1="4.824" x2="30.784" y2="28.645" gradientUnits="userSpaceOnUse"/><linearGradient id="c"><stop offset="0" stop-color="#fff"/><stop offset="1" stop-color="#fff" stop-opacity="0"/></linearGradient><linearGradient id="d"><stop offset="0" stop-color="#c4a000"/><stop offset="1" stop-color="#fce94f"/></linearGradient><linearGradient id="e"><stop offset="0" stop-color="#a40000"/><stop offset="1" stop-color="#ef2929"/></linearGradient><linearGradient id="f"><stop offset="0" stop-color="#a40000"/><stop offset="1" stop-color="#ef2929"/></linearGradient><linearGradient id="g"><stop offset="0" stop-color="#a40000"/><stop offset="1" stop-color="#ef2929"/></linearGradient><linearGradient id="h"><stop offset="0" stop-color="#a40000"/><stop offset="1" stop-color="#ef2929"/></linearGradient><linearGradient id="i"><stop offset="0" stop-color="#a40000"/><stop offset="1" stop-color="#ef2929"/></linearGradient><linearGradient id="j"><stop offset="0" stop-color="#a40000"/><stop offset="1" stop-color="#ef2929"/></linearGradient><linearGradient id="k"><stop offset="0" stop-color="#a40000"/><stop offset="1" stop-color="#ef2929"/></linearGradient><linearGradient id="l"><stop offset="0" stop-color="#a40000"/><stop offset="1" stop-color="#ef2929"/></linearGradient><linearGradient y2="5" x2="-22" y1="18" x1="-18" gradientTransform="matrix(.71442 0 0 .71409 -5.531 3.26)" gradientUnits="userSpaceOnUse" id="t" xlink:href="#l"/><linearGradient id="m"><stop offset="0" stop-color="#a40000"/><stop offset="1" stop-color="#ef2929"/></linearGradient><linearGradient y2="5" x2="-22" y1="18" x1="-18" gradientTransform="matrix(.71442 0 0 .71409 -5.531 3.26)" gradientUnits="userSpaceOnUse" id="u" xlink:href="#m"/><linearGradient id="n"><stop offset="0" stop-color="#a40000"/><stop offset="1" stop-color="#ef2929"/></linearGradient><linearGradient y2="5" x2="-22" y1="18" x1="-18" gradientTransform="matrix(.71442 0 0 .71409 -5.531 3.26)" gradientUnits="userSpaceOnUse" id="v" xlink:href="#n"/><linearGradient id="o"><stop offset="0" stop-color="#a40000"/><stop offset="1" stop-color="#ef2929"/></linearGradient><linearGradient y2="5" x2="-22" y1="18" x1="-18" gradientTransform="matrix(.71442 0 0 .71409 -5.531 3.26)" gradientUnits="userSpaceOnUse" id="w" xlink:href="#o"/><linearGradient id="p"><stop offset="0" stop-color="#fff"/><stop offset="1" stop-color="#fff" stop-opacity="0"/></linearGradient><linearGradient id="q"><stop offset="0" stop-color="#fff"/><stop offset="1" stop-color="#fff" stop-opacity="0"/></linearGradient></defs><g fill="none" stroke-linecap="round" stroke-linejoin="round" stroke-dashoffset="8.274"><path d="M53.612 28.645c0 13.704-11.11 24.813-24.813 24.813-13.704 0-24.813-11.11-24.813-24.813 0-13.704 11.109-24.813 24.813-24.813 13.703 0 24.813 11.109 24.813 24.813z" transform="matrix(.96725 0 0 .96663 2.145 6.326)" stroke="#2e3436" stroke-width="8.274" stroke-dasharray="8.27354714,16.5470943"/><path d="M53.612 28.645c0 13.704-11.11 24.813-24.813 24.813-13.704 0-24.813-11.11-24.813-24.813 0-13.704 11.109-24.813 24.813-24.813 13.703 0 24.813 11.109 24.813 24.813z" transform="matrix(.96725 0 0 .96663 2.145 6.326)" stroke="#d3d7cf" stroke-width="4.137" stroke-dasharray="8.2735471399999998,16.54709430000000125"/><path d="M53.612 28.645c0 13.704-11.11 24.813-24.813 24.813-13.704 0-24.813-11.11-24.813-24.813 0-13.704 11.109-24.813 24.813-24.813 13.703 0 24.813 11.109 24.813 24.813z" transform="matrix(.96725 0 0 .96663 1.645 5.696)" stroke="#fff" stroke-width="2.068" stroke-dasharray="8.27354714,16.5470943"/></g><g fill="none" stroke-linecap="round" stroke-linejoin="round"><path d="M29.203 3.835c13.53.22 24.39 11.242 24.409 24.775" transform="matrix(.96725 0 0 .96663 2.145 6.296)" stroke="#2e3436" stroke-width="8.274"/><path d="M28.683 3.832c13.704-.064 24.865 10.994 24.928 24.697v.258" transform="matrix(.96725 0 0 .96663 2.145 6.296)" stroke="#d3d7cf" stroke-width="4.137"/><path d="M29.262 3.836c13.701.256 24.601 11.57 24.345 25.272l-.005.242" transform="matrix(.92693 0 0 .92693 3.306 7.448)" stroke="url(#r)" stroke-width="2.158"/><path d="M28.6 3.832c13.643-.11 24.816 10.818 25.01 24.46" transform="matrix(1.00754 0 0 1.00754 .984 5.14)" stroke="url(#s)" stroke-width="1.985"/></g><g stroke-width="3.333"><path d="M-25.659 6.016A8.332 8.328 0 1 1-13 16.85 8.332 8.328 0 1 1-25.66 6.016z" fill="#ef2929" stroke="#280000" transform="matrix(.59988 0 0 .60016 35.596 3.138)"/><path d="M-23.13 8.183a5 4.999 0 1 1 7.597 6.503 5 4.999 0 0 1-7.597-6.503z" fill="url(#t)" stroke="#ef2929" transform="matrix(.59988 0 0 .60016 35.596 3.138)"/></g><g stroke-width="3.333"><path d="M-25.659 6.016A8.332 8.328 0 1 1-13 16.85 8.332 8.328 0 1 1-25.66 6.016z" fill="#ef2929" stroke="#280000" transform="matrix(.59988 0 0 .60016 65.596 33.138)"/><path d="M-23.13 8.183a5 4.999 0 1 1 7.597 6.503 5 4.999 0 0 1-7.597-6.503z" fill="url(#u)" stroke="#ef2929" transform="matrix(.59988 0 0 .60016 65.596 33.138)"/></g><g stroke-width="3.333"><path d="M-25.659 6.016A8.332 8.328 0 1 1-13 16.85 8.332 8.328 0 1 1-25.66 6.016z" fill="#ef2929" stroke="#280000" transform="matrix(.59988 0 0 .60016 67.596 11.138)"/><path d="M-23.13 8.183a5 4.999 0 1 1 7.597 6.503 5 4.999 0 0 1-7.597-6.503z" fill="url(#v)" stroke="#ef2929" transform="matrix(.59988 0 0 .60016 67.596 11.138)"/></g><g stroke-width="3.333"><path d="M-25.659 6.016A8.332 8.328 0 1 1-13 16.85 8.332 8.328 0 1 1-25.66 6.016z" fill="#ef2929" stroke="#280000" transform="matrix(.59988 0 0 .60016 55.596 1.139)"/><path d="M-23.13 8.183a5 4.999 0 1 1 7.597 6.503 5 4.999 0 0 1-7.597-6.503z" fill="url(#w)" stroke="#ef2929" transform="matrix(.59988 0 0 .60016 55.596 1.139)"/></g></svg>