<svg xmlns="http://www.w3.org/2000/svg" xmlns:xlink="http://www.w3.org/1999/xlink" width="64" height="64"><defs><linearGradient id="a"><stop offset="0" stop-color="#fff"/><stop offset="1" stop-color="#fff" stop-opacity="0"/></linearGradient><linearGradient id="b"><stop offset="0" stop-color="#fff"/><stop offset="1" stop-color="#fff" stop-opacity="0"/></linearGradient><linearGradient id="c"><stop offset="0" stop-color="#a40000"/><stop offset="1" stop-color="#ef2929"/></linearGradient><linearGradient id="d"><stop offset="0" stop-color="#4e9a06"/><stop offset="1" stop-color="#8ae234"/></linearGradient><linearGradient xlink:href="#c" id="h" gradientUnits="userSpaceOnUse" x1="-18" y1="18" x2="-22" y2="5"/><linearGradient id="e"><stop offset="0" stop-color="#a40000"/><stop offset="1" stop-color="#ef2929"/></linearGradient><linearGradient y2="5" x2="-22" y1="18" x1="-18" gradientUnits="userSpaceOnUse" id="i" xlink:href="#e"/><linearGradient id="f"><stop offset="0" stop-color="#a40000"/><stop offset="1" stop-color="#ef2929"/></linearGradient><linearGradient y2="5" x2="-22" y1="18" x1="-18" gradientUnits="userSpaceOnUse" id="j" xlink:href="#f"/><linearGradient id="g"><stop offset="0" stop-color="#a40000"/><stop offset="1" stop-color="#ef2929"/></linearGradient><linearGradient y2="5" x2="-22" y1="18" x1="-18" gradientUnits="userSpaceOnUse" id="k" xlink:href="#g"/></defs><path d="M32.04 12S1.13 39.664 16.087 52.983C31.043 66.303 46 48.885 46 48.885" fill="none" stroke="#172a04" stroke-width="7.999815459999999"/><path d="M32.04 12S1.13 39.664 16.087 52.983C31.043 66.303 46 48.885 46 48.885" fill="none" stroke="#73d216" stroke-width="3.9999077299999994"/><path d="M31.04 11S.13 38.664 15.087 51.983C30.043 65.303 45 47.885 45 47.885" fill="none" stroke="#8ae234" stroke-width="1.99988085"/><g stroke-width="2"><path d="M25.166 6.153a8.994 8.993.02 1 1 13.662 11.7 8.994 8.993.02 1 1-13.662-11.7z" fill="#ef2929" stroke="#280000"/><path d="M-24.634 6.894A7 7 0 1 1-14 16a7 7 0 0 1-10.634-9.106z" fill="url(#h)" stroke="#ef2929" transform="translate(51.322 .57)"/></g><g stroke-width="2"><path d="M9.166 46.153a8.994 8.993.02 1 1 13.662 11.7 8.994 8.993.02 1 1-13.662-11.7z" fill="#ef2929" stroke="#280000"/><path d="M-24.634 6.894A7 7 0 1 1-14 16a7 7 0 0 1-10.634-9.106z" fill="url(#i)" stroke="#ef2929" transform="translate(35.322 40.57)"/></g><g stroke-width="2"><path d="M39.172 42.153a8.994 8.993.02 1 1 13.662 11.7 8.994 8.993.02 1 1-13.662-11.7z" fill="#ef2929" stroke="#280000"/><path d="M-24.634 6.894A7 7 0 1 1-14 16a7 7 0 0 1-10.634-9.106z" fill="url(#j)" stroke="#ef2929" transform="translate(65.328 36.57)"/></g><g stroke-width="2"><path d="M41.172 20.153a8.994 8.993.02 1 1 13.662 11.7 8.994 8.993.02 1 1-13.662-11.7z" fill="#ef2929" stroke="#280000"/><path d="M-24.634 6.894A7 7 0 1 1-14 16a7 7 0 0 1-10.634-9.106z" fill="url(#k)" stroke="#ef2929" transform="translate(67.328 14.57)"/></g></svg>