<svg xmlns="http://www.w3.org/2000/svg" xmlns:xlink="http://www.w3.org/1999/xlink" width="64" height="64"><defs><linearGradient id="a"><stop offset="0" stop-color="#71b2f8"/><stop offset="1" stop-color="#002795"/></linearGradient><linearGradient id="b"><stop offset="0" stop-color="#c8e0f9"/><stop offset="1" stop-color="#637dca"/></linearGradient><linearGradient id="c"><stop offset="0"/><stop offset="1" stop-opacity="0"/></linearGradient><linearGradient gradientTransform="translate(0 -9)" xlink:href="#d" id="i" x1="53.897" y1="51.18" x2="48" y2="32" gradientUnits="userSpaceOnUse"/><linearGradient id="d"><stop offset="0" stop-color="#204a87"/><stop offset="1" stop-color="#3465a4"/></linearGradient><linearGradient gradientTransform="translate(22 -17)" xlink:href="#e" id="g" x1="22.117" y1="55.718" x2="19" y2="33" gradientUnits="userSpaceOnUse"/><linearGradient id="e"><stop offset="0" stop-color="#3465a4"/><stop offset="1" stop-color="#729fcf"/></linearGradient><linearGradient id="f"><stop offset="0" stop-color="#204a87"/><stop offset="1" stop-color="#3465a4"/></linearGradient><linearGradient y2="32" x2="48" y1="51.18" x1="53.897" gradientTransform="translate(-24 -13)" gradientUnits="userSpaceOnUse" id="h" xlink:href="#f"/></defs><path d="M7 5v48.691l44 6.956V11.956z" fill="#729fcf" stroke="#0b1521" stroke-width="2" stroke-linejoin="round"/><path d="M35 12l22 4v26l-22-4z" style="marker:none" fill="url(#g)" fill-rule="evenodd" stroke="#0b1521" stroke-width="2" stroke-linejoin="round" overflow="visible"/><path d="M37 14.428l.009 21.919 18.008 3.269-.008-21.934z" fill="none" stroke="#729fcf" stroke-width="2"/><path d="M17 46l24 4 16-8-22-4z" fill="#729fcf" stroke="#0b1521" stroke-width="2" stroke-linejoin="round"/><path d="M35 12v26l-18 8V18z" fill="url(#h)" stroke="#0b1521" stroke-width="2" stroke-linejoin="round"/><path d="M19.012 19.434L19 42.969l14.001-6.3V14.8z" fill="none" stroke="#3465a4" stroke-width="2"/><path d="M17 18l24 4 16-6-22-4z" fill="#729fcf" stroke="#0b1521" stroke-width="2" stroke-linejoin="round"/><path d="M57 16v26l-16 8V22z" fill="url(#i)" stroke="#0b1521" stroke-width="2" stroke-linejoin="round"/><path d="M43.012 23.434L43 46.969l12.001-6.3V18.8z" fill="none" stroke="#3465a4" stroke-width="2"/><g fill="none" stroke-linejoin="round"><path d="M16.714 27.286v19L33 49V30z" stroke="#a40000" stroke-width="4.071"/><path d="M16.714 27.286v19L33 49V30z" stroke="#ef2929" stroke-width="1.357"/></g><path d="M8 6v47l42 6V13zm6 8.3L42 19s1.216.909 1.58 1.47c.363.561.42 1.53.42 1.53v32l-31-6z" opacity=".4" fill="#729fcf"/><path d="M9 7.3v44.726L49 58.4V13.677z" opacity=".4" fill="none" stroke="#729fcf" stroke-width="2"/><path d="M51 14v32" fill="none" stroke="#0b1521" stroke-width="2"/><g transform="scale(.5465) rotate(25.583 41.757 -1.698)" color="#000" fill="none" stroke-linecap="round" stroke-linejoin="round"><ellipse ry="16" rx="19" cy="40" cx="84" style="marker:none" overflow="visible" stroke="#a40000" stroke-width="6"/><ellipse ry="16" rx="19" cy="40" cx="84" style="marker:none" overflow="visible" stroke="#ef2929" stroke-width="2"/></g></svg>