<svg xmlns="http://www.w3.org/2000/svg" xmlns:xlink="http://www.w3.org/1999/xlink" width="64" height="64"><defs><linearGradient id="j"><stop offset="0" stop-color="#d3d7cf"/><stop offset="1" stop-color="#fff"/></linearGradient><linearGradient id="i"><stop offset="0" stop-color="#fff"/><stop offset="1" stop-color="#d3d7cf"/></linearGradient><linearGradient id="e"><stop offset="0" stop-color="#d3d7cf"/><stop offset="1" stop-color="#fff"/></linearGradient><linearGradient id="d"><stop offset="0" stop-color="#fff"/><stop offset="1" stop-color="#d3d7cf"/></linearGradient><linearGradient id="a"><stop offset="0" stop-color="#fff"/><stop offset="1" stop-color="#fff" stop-opacity="0"/></linearGradient><linearGradient id="b"><stop offset="0" stop-color="#fff"/><stop offset="1" stop-color="#fff" stop-opacity="0"/></linearGradient><linearGradient id="c"><stop offset="0" stop-color="#729fcf"/><stop offset="1" stop-color="#204a87"/></linearGradient><radialGradient r="22" fy="91.957" fx="225.938" cy="91.957" cx="225.938" gradientTransform="matrix(-1.70647 4.67317 -1.18156 -.43038 776.903 -933.083)" gradientUnits="userSpaceOnUse" id="n" xlink:href="#c"/><linearGradient id="f"><stop offset="0" stop-color="#a40000"/><stop offset="1" stop-color="#ef2929"/></linearGradient><linearGradient id="g"><stop offset="0" stop-color="#a40000"/><stop offset="1" stop-color="#ef2929"/></linearGradient><linearGradient id="h"><stop offset="0" stop-color="#a40000"/><stop offset="1" stop-color="#ef2929"/></linearGradient><linearGradient y2="5" x2="-22" y1="18" x1="-18" gradientTransform="matrix(.65313 0 0 .65305 258.318 72.408)" gradientUnits="userSpaceOnUse" id="q" xlink:href="#h"/><linearGradient xlink:href="#i" id="p" x1="-21.141" y1="17.49" x2="-24.734" y2="7.008" gradientUnits="userSpaceOnUse"/><linearGradient xlink:href="#j" id="o" x1="-21.32" y1="18.009" x2="-24.907" y2="6.938" gradientUnits="userSpaceOnUse"/><linearGradient id="k"><stop offset="0" stop-color="#a40000"/><stop offset="1" stop-color="#ef2929"/></linearGradient><linearGradient id="l"><stop offset="0" stop-color="#a40000"/><stop offset="1" stop-color="#ef2929"/></linearGradient><linearGradient y2="5" x2="-22" y1="18" x1="-18" gradientTransform="matrix(.65313 0 0 .65305 258.318 72.408)" gradientUnits="userSpaceOnUse" id="r" xlink:href="#l"/><linearGradient id="m"><stop offset="0" stop-color="#a40000"/><stop offset="1" stop-color="#ef2929"/></linearGradient><linearGradient y2="5" x2="-22" y1="18" x1="-18" gradientTransform="matrix(.65313 0 0 .65305 258.318 72.408)" gradientUnits="userSpaceOnUse" id="s" xlink:href="#m"/></defs><path d="M274.219 89.233l-13.321 31.448c0 9.676 50.863 9.676 50.863 0l-15.743-41.124z" fill="url(#n)" stroke="#0b1521" stroke-width="2" stroke-linejoin="round" transform="translate(-256.71 -66.887)"/><path d="M19.026 24.161L6.31 54.095c3.633 7.257 43.087 7.157 46.72-.1l-14.775-38.18z" fill="none" stroke="#729fcf" stroke-width="2"/><path d="M-12 12.5a11.5 5.5 0 1 1-23 0 11.5 5.5 0 1 1 23 0z" transform="matrix(1.17723 -1.0248 .64597 1.687 46.59 -19.17)" fill="#729fcf" stroke="#0b1521" stroke-width="1.229" stroke-linecap="round" stroke-linejoin="round" stroke-miterlimit="4.5"/><path d="M-12 12.5a11.5 5.5 0 1 1-23 0 11.5 5.5 0 1 1 23 0z" transform="matrix(1.26132 -1.09312 .69211 1.79946 47.99 -22.182)" fill="none" stroke="#2e3436" stroke-width="4.599" stroke-linecap="round" stroke-linejoin="round" stroke-miterlimit="4.5"/><path d="M-12 12.5a11.5 5.5 0 1 1-23 0 11.5 5.5 0 1 1 23 0z" transform="matrix(1.3454 -1.16144 .73825 1.91192 49.389 -25.193)" fill="none" stroke="url(#o)" stroke-width="1.08" stroke-linecap="round" stroke-linejoin="round" stroke-miterlimit="4.5"/><path d="M-11.568 12.5a11.932 5.226 0 1 1-23.864 0 11.932 5.226 0 1 1 23.864 0z" transform="matrix(1.17723 -1.0248 .64597 1.687 46.59 -19.17)" fill="none" stroke="url(#p)" stroke-width="1.229" stroke-linecap="round" stroke-linejoin="round" stroke-miterlimit="4.5"/><g stroke-width="2.286"><path d="M240.496 75.42a6.858 6.857 89.988 0 1 10.416 8.92 6.858 6.857 89.988 1 1-10.416-8.92z" fill="#ef2929" stroke="#280000" transform="matrix(.87496 0 0 .87495 -187.98 -42.891)"/><path d="M242.229 76.91a4.572 4.571 0 1 1 6.945 5.947 4.572 4.571 0 0 1-6.945-5.947z" fill="url(#q)" stroke="#ef2929" transform="matrix(.87496 0 0 .87495 -187.98 -42.891)"/></g><g stroke-width="2.286"><path d="M240.496 75.42a6.858 6.857 89.988 0 1 10.416 8.92 6.858 6.857 89.988 1 1-10.416-8.92z" fill="#ef2929" stroke="#280000" transform="matrix(.87496 0 0 .87495 -195.981 -52.891)"/><path d="M242.229 76.91a4.572 4.571 0 1 1 6.945 5.947 4.572 4.571 0 0 1-6.945-5.947z" fill="url(#r)" stroke="#ef2929" transform="matrix(.87496 0 0 .87495 -195.981 -52.891)"/></g><g stroke-width="2.286"><path d="M240.496 75.42a6.858 6.857 89.988 0 1 10.416 8.92 6.858 6.857 89.988 1 1-10.416-8.92z" fill="#ef2929" stroke="#280000" transform="matrix(.87496 0 0 .87495 -173.98 -58.891)"/><path d="M242.229 76.91a4.572 4.571 0 1 1 6.945 5.947 4.572 4.571 0 0 1-6.945-5.947z" fill="url(#s)" stroke="#ef2929" transform="matrix(.87496 0 0 .87495 -173.98 -58.891)"/></g></svg>