<svg xmlns="http://www.w3.org/2000/svg" xmlns:xlink="http://www.w3.org/1999/xlink" width="64" height="64"><defs><linearGradient id="a"><stop offset="0" stop-color="#fff"/><stop offset="1" stop-color="#fff" stop-opacity="0"/></linearGradient><linearGradient id="b"><stop offset="0" stop-color="#fff"/><stop offset="1" stop-color="#fff" stop-opacity="0"/></linearGradient><linearGradient xlink:href="#c" id="f" gradientUnits="userSpaceOnUse" x1="-18" y1="18" x2="-22" y2="5"/><linearGradient id="c"><stop offset="0" stop-color="#a40000"/><stop offset="1" stop-color="#ef2929"/></linearGradient><linearGradient xlink:href="#d" id="e" gradientUnits="userSpaceOnUse" x1="-18" y1="18" x2="-22" y2="5"/><linearGradient id="d"><stop offset="0" stop-color="#a40000"/><stop offset="1" stop-color="#ef2929"/></linearGradient></defs><path transform="matrix(-.02743 -1.17157 1.15356 -.02612 17.602 50.035)" d="M30 34L-7.054 11.447l38.02-20.768z" fill="none" stroke="#0b1521" stroke-width="6.88" stroke-linecap="round" stroke-linejoin="round"/><g stroke-width="2"><path d="M24.172 23.147a8.994 8.993.02 1 1 13.662 11.7 8.994 8.993.02 1 1-13.662-11.7z" fill="#ef2929" stroke="#280000"/><path d="M-24.634 6.894A7 7 0 1 1-14 16a7 7 0 0 1-10.634-9.106z" fill="url(#e)" stroke="#ef2929" transform="translate(50.328 17.565)"/></g><path d="M56 14L31 58 6 14z" fill="none" stroke="#3465a4" stroke-width="4" stroke-linecap="round" stroke-linejoin="round"/><path d="M6 13h50M53 17L31 56 9 17" fill="none" stroke="#729fcf" stroke-width="2" stroke-linecap="round" stroke-linejoin="round"/><g stroke-width="2"><path d="M45.172 10.153a8.994 8.993.02 1 1 13.662 11.7 8.994 8.993.02 1 1-13.662-11.7z" fill="#ef2929" stroke="#280000"/><path d="M-24.634 6.894A7 7 0 1 1-14 16a7 7 0 0 1-10.634-9.106z" fill="url(#f)" stroke="#ef2929" transform="translate(71.328 4.57)"/></g></svg>