<svg xmlns="http://www.w3.org/2000/svg" xmlns:xlink="http://www.w3.org/1999/xlink" width="64" height="64"><defs><linearGradient id="a"><stop offset="0" stop-color="#fff"/><stop offset="1" stop-color="#fff" stop-opacity="0"/></linearGradient><linearGradient xlink:href="#b" id="l" x1="37.429" y1="41.591" x2="24.483" y2="4.91" gradientUnits="userSpaceOnUse"/><linearGradient id="b"><stop offset="0" stop-color="#729fcf"/><stop offset="1" stop-color="#3465a4"/></linearGradient><linearGradient xlink:href="#c" id="m" x1="22.843" y1="4.824" x2="30.784" y2="28.645" gradientUnits="userSpaceOnUse"/><linearGradient id="c"><stop offset="0" stop-color="#729fcf"/><stop offset="1" stop-color="#3465a4"/></linearGradient><linearGradient id="d"><stop offset="0" stop-color="#c4a000"/><stop offset="1" stop-color="#fce94f"/></linearGradient><linearGradient id="e"><stop offset="0" stop-color="#a40000"/><stop offset="1" stop-color="#ef2929"/></linearGradient><linearGradient id="f"><stop offset="0" stop-color="#a40000"/><stop offset="1" stop-color="#ef2929"/></linearGradient><linearGradient id="g"><stop offset="0" stop-color="#a40000"/><stop offset="1" stop-color="#ef2929"/></linearGradient><linearGradient id="h"><stop offset="0" stop-color="#a40000"/><stop offset="1" stop-color="#ef2929"/></linearGradient><linearGradient id="i"><stop offset="0" stop-color="#a40000"/><stop offset="1" stop-color="#ef2929"/></linearGradient><linearGradient y2="5" x2="-22" y1="18" x1="-18" gradientTransform="matrix(.89263 0 0 .89258 72.894 1.218)" gradientUnits="userSpaceOnUse" id="n" xlink:href="#i"/><linearGradient id="j"><stop offset="0" stop-color="#a40000"/><stop offset="1" stop-color="#ef2929"/></linearGradient><linearGradient y2="5" x2="-22" y1="18" x1="-18" gradientTransform="matrix(.89263 0 0 .89258 72.894 1.218)" gradientUnits="userSpaceOnUse" id="o" xlink:href="#j"/><linearGradient id="k"><stop offset="0" stop-color="#a40000"/><stop offset="1" stop-color="#ef2929"/></linearGradient><linearGradient y2="5" x2="-22" y1="18" x1="-18" gradientTransform="matrix(.89263 0 0 .89258 72.894 1.218)" gradientUnits="userSpaceOnUse" id="p" xlink:href="#k"/></defs><g fill="none" stroke-linecap="round" stroke-linejoin="round"><path d="M53.612 28.645c0 13.704-11.11 24.813-24.813 24.813-13.704 0-24.813-11.11-24.813-24.813 0-13.704 11.109-24.813 24.813-24.813 13.703 0 24.813 11.109 24.813 24.813z" transform="matrix(.96725 0 0 .96663 2.145 6.296)" stroke="#0b1521" stroke-width="8.274"/><path d="M53.612 28.645c0 13.704-11.11 24.813-24.813 24.813-13.704 0-24.813-11.11-24.813-24.813 0-13.704 11.109-24.813 24.813-24.813 13.703 0 24.813 11.109 24.813 24.813z" transform="matrix(.96725 0 0 .96663 2.145 6.296)" stroke="#d3d7cf" stroke-width="4.137"/><path d="M53.612 28.645c0 13.704-11.11 24.813-24.813 24.813-13.704 0-24.813-11.11-24.813-24.813 0-13.704 11.109-24.813 24.813-24.813 13.703 0 24.813 11.109 24.813 24.813z" transform="matrix(.92693 0 0 .92693 3.306 7.448)" stroke="url(#l)" stroke-width="2.158"/><path d="M53.612 28.645c0 13.704-11.11 24.813-24.813 24.813-13.704 0-24.813-11.11-24.813-24.813 0-13.704 11.109-24.813 24.813-24.813 13.703 0 24.813 11.109 24.813 24.813z" transform="matrix(1.00754 0 0 1.00754 .984 5.14)" stroke="url(#m)" stroke-width="1.985"/></g><g stroke-width="2.499"><path d="M49.012 5.745A8.744 8.744.02 1 1 62.295 17.12 8.744 8.744.02 1 1 49.012 5.745z" fill="#ef2929" stroke="#280000" transform="matrix(.80023 0 0 .80022 9.464 24.852)"/><path d="M50.905 7.37a6.248 6.248 0 1 1 9.492 8.129 6.248 6.248 0 0 1-9.492-8.128z" fill="url(#n)" stroke="#ef2929" transform="matrix(.80023 0 0 .80022 9.464 24.852)"/></g><g stroke-width="2.499"><path d="M49.012 5.745A8.744 8.744.02 1 1 62.295 17.12 8.744 8.744.02 1 1 49.012 5.745z" fill="#ef2929" stroke="#280000" transform="matrix(.80023 0 0 .80022 2.464 7.852)"/><path d="M50.905 7.37a6.248 6.248 0 1 1 9.492 8.129 6.248 6.248 0 0 1-9.492-8.128z" fill="url(#o)" stroke="#ef2929" transform="matrix(.80023 0 0 .80022 2.464 7.852)"/></g><g stroke-width="2.499"><path d="M49.012 5.745A8.744 8.744.02 1 1 62.295 17.12 8.744 8.744.02 1 1 49.012 5.745z" fill="#ef2929" stroke="#280000" transform="matrix(.80023 0 0 .80022 -14.536 .852)"/><path d="M50.905 7.37a6.248 6.248 0 1 1 9.492 8.129 6.248 6.248 0 0 1-9.492-8.128z" fill="url(#p)" stroke="#ef2929" transform="matrix(.80023 0 0 .80022 -14.536 .852)"/></g></svg>