<svg xmlns="http://www.w3.org/2000/svg" xmlns:xlink="http://www.w3.org/1999/xlink" width="64" height="64"><defs><linearGradient id="d"><stop offset="0" stop-color="#3465a4"/><stop offset="1" stop-color="#729fcf"/></linearGradient><linearGradient id="c"><stop offset="0" stop-color="#204a87"/><stop offset="1" stop-color="#3465a4"/></linearGradient><linearGradient id="a"><stop offset="0" stop-color="#75507b"/><stop offset="1" stop-color="#ad7fa8"/></linearGradient><linearGradient id="b"><stop offset="0" stop-color="#75507b"/><stop offset="1" stop-color="#ad7fa8"/></linearGradient><linearGradient y2="1015.362" x2="40" y1="1025.362" x1="37" gradientUnits="userSpaceOnUse" id="h" xlink:href="#c"/><linearGradient xlink:href="#d" id="g" gradientUnits="userSpaceOnUse" x1="37" y1="1025.362" x2="36" y2="1012.362"/><linearGradient xlink:href="#e" id="i" gradientUnits="userSpaceOnUse" x1="2802.963" y1="538.362" x2="2859.726" y2="786.056"/><linearGradient id="e"><stop offset="0" stop-color="#d3d7cf"/><stop offset="1" stop-color="#888a85"/></linearGradient><linearGradient xlink:href="#f" id="j" gradientUnits="userSpaceOnUse" x1="2802.963" y1="626.087" x2="2849.406" y2="822.179" gradientTransform="translate(61.258)"/><linearGradient id="f"><stop offset="0" stop-color="#d3d7cf"/><stop offset="1" stop-color="#888a85"/></linearGradient></defs><path transform="matrix(.8 -.6 .8 .6 0 -988.362)" fill="#729fcf" stroke="#0b1521" stroke-width="2.041" stroke-linecap="round" stroke-linejoin="round" stroke-dashoffset="6" d="M-818.011 854.261h20v20h-20z"/><g stroke-width="2"><path d="M29 15v20l16 12V27z" fill="#729fcf" stroke="#0b1521" stroke-linejoin="round"/><path d="M31 1007.362v15l12 9v-15z" fill="url(#g)" stroke="#729fcf" transform="translate(0 -988.362)"/></g><g stroke-width="2"><path d="M61 15v20L45 47V27z" fill="#ad7fa8" stroke="#0b1521" stroke-linejoin="round"/><path d="M31 1007.362v15l12 9v-15z" fill="url(#h)" stroke="#3465a4" transform="matrix(-1 0 0 1 90 -988.362)"/></g><g font-size="54.215" font-weight="400" color="#000" stroke-linecap="round" font-family="Arial"><g style="marker:none;-inkscape-font-specification:Arial" transform="matrix(.1306 0 0 .13506 -361.425 -46.744)" fill="url(#i)" stroke="#042a2a" stroke-width="15.059" stroke-linejoin="round" overflow="visible"><path d="M2805.793 620.03v59.23h30.629v-59.23c.298-25.07 27.799-44.424 53.6-44.424 25.802 0 53.601 18.622 53.6 44.424v59.23h30.63v-59.23c0-41.283-32.627-74.04-84.23-74.04s-84.229 32.757-84.229 74.04z" style="marker:none" fill="#888a85" fill-rule="evenodd" stroke="#2e3436" overflow="visible"/><path style="marker:none" fill="url(#j)" fill-rule="evenodd" stroke="#2e3436" overflow="visible" d="M2790.479 649.645h199.088v148.078h-199.088z"/><path style="marker:none" fill="none" stroke="#d3d7cf" stroke-linejoin="miter" overflow="visible" d="M2805.793 664.453h168.459v118.462h-168.459z"/></g><path d="M9 47h14M9 51h14M9 55h14" style="marker:none;-inkscape-font-specification:Arial" fill="none" stroke="#888a85" stroke-width="2" overflow="visible"/></g></svg>