<svg xmlns="http://www.w3.org/2000/svg" xmlns:xlink="http://www.w3.org/1999/xlink" width="64" height="64"><defs><linearGradient id="c"><stop offset="0" stop-color="#5c3566"/><stop offset="1" stop-color="#75507b"/></linearGradient><linearGradient id="a"><stop offset="0" stop-color="#75507b"/><stop offset="1" stop-color="#ad7fa8"/></linearGradient><linearGradient id="b"><stop offset="0" stop-color="#75507b"/><stop offset="1" stop-color="#ad7fa8"/></linearGradient><linearGradient y2="1015.362" x2="40" y1="1025.362" x1="37" gradientUnits="userSpaceOnUse" id="e" xlink:href="#c"/><linearGradient xlink:href="#a" id="d" gradientUnits="userSpaceOnUse" x1="37" y1="1025.362" x2="36" y2="1012.362"/></defs><path transform="matrix(.8 -.6 .8 .6 0 -988.362)" fill="#ad7fa8" stroke="#171018" stroke-width="2.041" stroke-linecap="round" stroke-linejoin="round" stroke-dashoffset="6" d="M-818.011 854.261h20v20h-20z"/><g stroke-width="2"><path d="M29 15v20l16 12V27z" fill="#ad7fa8" stroke="#171018" stroke-linejoin="round"/><path d="M31 1007.362v15l12 9v-15z" fill="url(#d)" stroke="#ad7fa8" transform="translate(0 -988.362)"/></g><g stroke-width="2"><path d="M61 15v20L45 47V27z" fill="#ad7fa8" stroke="#171018" stroke-linejoin="round"/><path d="M31 1007.362v15l12 9v-15z" fill="url(#e)" stroke="#75507b" transform="matrix(-1 0 0 1 90 -988.362)"/></g><path d="M9 21h10" fill="none" stroke="#2e3436" stroke-width="6" stroke-linecap="round"/><path d="M9 21h10" fill="none" stroke="#d3d7cf" stroke-width="2" stroke-linecap="round"/><path d="M5 29h14" fill="none" stroke="#2e3436" stroke-width="6" stroke-linecap="round"/><path d="M5 29h14" fill="none" stroke="#d3d7cf" stroke-width="2" stroke-linecap="round"/><path d="M7 37h12" fill="none" stroke="#2e3436" stroke-width="6" stroke-linecap="round"/><path d="M7 37h12" fill="none" stroke="#d3d7cf" stroke-width="2" stroke-linecap="round"/></svg>