<svg xmlns="http://www.w3.org/2000/svg" xmlns:xlink="http://www.w3.org/1999/xlink" width="64" height="64"><defs><linearGradient id="f"><stop offset="0" stop-color="#c4a000"/><stop offset="1" stop-color="#fce94f"/></linearGradient><linearGradient id="e"><stop offset="0" stop-color="#3465a4"/><stop offset="1" stop-color="#729fcf"/></linearGradient><linearGradient id="d"><stop offset="0" stop-color="#d3d7cf"/><stop offset="1" stop-color="#fff"/></linearGradient><linearGradient id="a"><stop offset="0" stop-color="#0061e6"/><stop offset="1" stop-color="#0061e6" stop-opacity="0"/></linearGradient><linearGradient id="b"><stop offset="0" stop-color="#bf3995"/><stop offset="1" stop-color="#bf3995" stop-opacity="0"/></linearGradient><linearGradient id="c"><stop offset="0" stop-color="#c9a70a"/><stop offset="1" stop-color="#c9830a" stop-opacity="0"/></linearGradient><linearGradient xlink:href="#d" id="g" x1="-33" y1="1046.362" x2="-38" y2="1021.362" gradientUnits="userSpaceOnUse" gradientTransform="translate(60)"/><linearGradient xlink:href="#e" id="h" x1="-35" y1="1019.362" x2="-36" y2="1012.362" gradientUnits="userSpaceOnUse" gradientTransform="translate(60)"/><linearGradient xlink:href="#f" id="i" x1="50" y1="19" x2="42" y2="9" gradientUnits="userSpaceOnUse" gradientTransform="translate(-1.088 988.008)"/></defs><path d="M25.45 14.74l-2.538-2.094c-3-3 .58-4.729 5.347-2.687l1.982 1.042c-2.15 1.512-4.621 2.634-4.791 3.74z" fill="#fce94f" stroke="#302b00" stroke-width="2"/><path fill="#d3d7cf" stroke="#2e3436" stroke-width="2" stroke-linecap="round" stroke-linejoin="round" stroke-dashoffset="6" d="M3 21h46v40H3z"/><path fill="url(#g)" stroke="#fff" stroke-width="2" stroke-linecap="round" stroke-dashoffset="6" d="M5 1023.362h42v24H5z" transform="translate(0 -988.362)"/><path fill="#729fcf" stroke="#0b1521" stroke-width="2" stroke-linecap="round" stroke-linejoin="round" stroke-dashoffset="6" d="M3 21h46v12H3z"/><path fill="url(#h)" stroke="#729fcf" stroke-width="2" stroke-linecap="round" stroke-dashoffset="6" d="M5 1011.362h42v8H5z" transform="translate(0 -988.362)"/><path d="M9 45h4M9 53h4M24 45h17M24 53h17" fill="none" stroke="#204a87" stroke-width="6" stroke-linecap="round"/><path d="M9 45h4M9 53h4M24 45h17M24 53h17" fill="none" stroke="#729fcf" stroke-width="2" stroke-linecap="round"/><path d="M53.654 17.954l-9.768 7.58s-3.96 6.814-6.407 7.462c-2.448.65-4.533-.82-4.533-.82l6.799-8.83 1.64-.86-.39-.234-1.563.86-6.642 9.064-3.75-1.68 6.094-9.807 1.172-.547-.468-.235-1.173.782-5.782 9.768-4.376-1.641 4.22-10.393 1.25-.782-.39-.312-.939 1.015-7.736 19.302c-.664 2.117-5.96 1.336-5.236-1.172l7.268-20.24 10.159-6.486 7.189-3.047 8.674-1.876C54.904 5.822 61.076 8.575 61 16z" fill="#fce94f" stroke="#302b00" stroke-width="2" stroke-linejoin="round"/><path d="M48.924 994.846c5.314 2.061 8.587 2.025 10.08 8.01 0 0-4.413.917-6.329 2.031-4.585 2.667-10.198 7.893-10.198 7.893-3.565 7.228-19.565 9.228-15.12-8.713 5.413-3.51 10.464-7.032 21.567-9.221z" fill="url(#i)" stroke="#fce94f" stroke-width="2" transform="translate(0 -988.362)"/><path d="M53.654 17.954l-9.768 7.58s-3.96 6.814-6.407 7.462c-2.448.65-4.533-.82-4.533-.82l6.799-8.83 1.64-.86-.39-.234-1.563.86-6.642 9.064-3.75-1.68 6.094-9.807 1.172-.547-.468-.235-1.173.782-5.782 9.768-4.376-1.641 4.22-10.393 1.25-.782-.39-.312-.939 1.015-7.736 19.302c-.664 2.117-5.96 1.336-5.236-1.172l7.268-20.24 10.159-6.486 7.189-3.047 8.674-1.876C54.904 5.822 61.076 8.575 61 16z" fill="none" stroke="#302b00" stroke-width="2" stroke-linejoin="round"/></svg>