<svg xmlns="http://www.w3.org/2000/svg" xmlns:xlink="http://www.w3.org/1999/xlink" width="64" height="64"><defs><linearGradient id="i"><stop offset="0" stop-color="#204a87"/><stop offset="1" stop-color="#729fcf"/></linearGradient><linearGradient id="f"><stop offset="0" stop-color="#75507b"/><stop offset="1" stop-color="#ad7fa8"/></linearGradient><linearGradient id="e"><stop offset="0" stop-color="#f57900"/><stop offset="1" stop-color="#fcaf3e"/></linearGradient><linearGradient id="d"><stop offset="0" stop-color="#c9830a"/><stop offset="1" stop-color="#c9830a" stop-opacity="0"/></linearGradient><linearGradient id="a"><stop offset="0" stop-color="#bf3995"/><stop offset="1" stop-color="#bf3995" stop-opacity="0"/></linearGradient><linearGradient id="b"><stop offset="0" stop-color="#0061e6"/><stop offset="1" stop-color="#0061e6" stop-opacity="0"/></linearGradient><linearGradient id="c"><stop offset="0" stop-color="#bf3995"/><stop offset="1" stop-color="#bf3995" stop-opacity="0"/></linearGradient><linearGradient xlink:href="#e" id="j" gradientUnits="userSpaceOnUse" x1="12" y1="1044.362" x2="17.142" y2="1033.362"/><linearGradient xlink:href="#f" id="k" gradientUnits="userSpaceOnUse" x1="49.088" y1="1045.274" x2="58.191" y2="1032.838"/><linearGradient id="g"><stop offset="0" stop-color="#75507b"/><stop offset="1" stop-color="#ad7fa8"/></linearGradient><linearGradient id="h"><stop offset="0" stop-color="#75507b"/><stop offset="1" stop-color="#ad7fa8"/></linearGradient><linearGradient y2="1034.009" x2="57.02" y1="1047.279" x1="48.75" gradientUnits="userSpaceOnUse" id="l" xlink:href="#i"/></defs><path d="M22 24h20-10v26h14" fill="none" stroke="#2e3436" stroke-width="6"/><path d="M22 24h20-10v26h14" fill="none" stroke="#d3d7cf" stroke-width="2"/><g stroke-width="2" stroke-linecap="round" stroke-dashoffset="6"><path fill="#fcaf3e" stroke="#321900" stroke-linejoin="round" d="M3 25L26 2l11 11-23 23z"/><path fill="url(#j)" stroke="#fcaf3e" d="M3 1033.362h28.284v11.314H3z" transform="rotate(-45 -1212.7 525.56)"/></g><g stroke-width="2.35" stroke-linecap="round" stroke-dashoffset="6"><path transform="matrix(.6 -.60355 .6 .60355 -14.6 24.278)" fill="#ad7fa8" stroke="#171018" stroke-linejoin="round" d="M44 42h20v20H44z"/><path fill="url(#k)" stroke="#ad7fa8" d="M46 1032.362h16v16H46z" transform="matrix(.6 -.60355 .6 .60355 -607.617 -572.251)"/></g><g stroke-width="2.35" stroke-linecap="round" stroke-dashoffset="6"><path transform="matrix(.6 -.60355 .6 .60355 -14.6 49.864)" fill="#729fcf" stroke="#171018" stroke-linejoin="round" d="M44 42h20v20H44z"/><path fill="url(#l)" stroke="#729fcf" d="M46 1032.362h16v16H46z" transform="matrix(.6 -.60355 .6 .60355 -607.617 -546.666)"/></g></svg>