<svg xmlns="http://www.w3.org/2000/svg" xmlns:xlink="http://www.w3.org/1999/xlink" width="64" height="64"><defs><linearGradient id="d"><stop offset="0" stop-color="#d3d7cf"/><stop offset="1" stop-color="#fff"/></linearGradient><linearGradient id="a"><stop offset="0" stop-color="#0061e6"/><stop offset="1" stop-color="#0061e6" stop-opacity="0"/></linearGradient><linearGradient id="b"><stop offset="0" stop-color="#bf3995"/><stop offset="1" stop-color="#bf3995" stop-opacity="0"/></linearGradient><linearGradient id="c"><stop offset="0" stop-color="#c9a70a"/><stop offset="1" stop-color="#c9830a" stop-opacity="0"/></linearGradient><linearGradient xlink:href="#d" id="e" x1="40.601" y1="1043.916" x2="25.631" y2="992.97" gradientUnits="userSpaceOnUse"/></defs><path d="M9 1033.362v-42h36v14h14v44c-17.555 3.276-13.084-26.995-31.194-12.773-7.795 5.851-11.702 1.532-18.806-3.227z" fill="url(#e)" stroke="#2e3436" stroke-width="2" stroke-linejoin="round" transform="translate(0 -988.362)"/><path d="M11 5h32l14 14v40.234C43.781 60.938 46.781 31.453 26 47c-2.887 2.16-5.702 4.453-15-3z" fill="none" stroke="#fff" stroke-width="2"/><path d="M45 3v14h14z" fill="#babdb6" stroke="#2e3436" stroke-width="2" stroke-linejoin="round"/><path d="M47 7.883V15h7.117z" fill="none" stroke="#d3d7cf" stroke-width="2"/><path d="M17 13h18M17 25h27M17 37h22" fill="none" stroke="#204a87" stroke-width="6" stroke-linecap="round"/><path d="M17 13h18M17 25h27M17 37h22" fill="none" stroke="#729fcf" stroke-width="2" stroke-linecap="round"/></svg>