<svg xmlns="http://www.w3.org/2000/svg" xmlns:xlink="http://www.w3.org/1999/xlink" width="64" height="64" version="1.0"><defs><linearGradient id="f"><stop offset="0" stop-color="red"/><stop offset="1" stop-color="#8e0000"/></linearGradient><linearGradient id="g"><stop offset="0" stop-color="red" stop-opacity=".087"/><stop offset="1" stop-color="#d40000"/></linearGradient><linearGradient id="e"><stop offset="0"/><stop offset="1" stop-color="#fff" stop-opacity=".485"/></linearGradient><linearGradient id="b"><stop offset="0" stop-color="#babdb6"/><stop offset="1" stop-color="#555753"/></linearGradient><linearGradient id="a"><stop offset="0" stop-color="#f7f7f7"/><stop offset="1" stop-color="#ccd0c7"/></linearGradient><linearGradient id="c"><stop offset="0" stop-color="#fff"/><stop offset="1" stop-color="#fff" stop-opacity="0"/></linearGradient><linearGradient id="d"><stop offset="0"/><stop offset="1" stop-opacity="0"/></linearGradient><linearGradient id="h"><stop offset="0" stop-color="#ffc800"/><stop offset="1" stop-color="#d72600"/></linearGradient><linearGradient id="i"><stop offset="0" stop-color="#68ff00"/><stop offset="1" stop-color="#078b00"/></linearGradient><linearGradient y2="60" x2="16" y1="48" x1="12" gradientTransform="translate(3.1 -15)" gradientUnits="userSpaceOnUse" id="k" xlink:href="#j"/><linearGradient id="j"><stop offset="0" stop-color="#8ae234"/><stop offset="1" stop-color="#4e9a06"/></linearGradient></defs><path d="M37 19v36h24V27l-8-8z" fill="none"/><path d="M37 19v36h24V27l-8-8z" fill="#fff"/><path d="M53 19v8h8z" fill="#888a85"/><path d="M53 19v8h8" fill="none" stroke="#2e3436" stroke-width="2" stroke-linejoin="round"/><path d="M41 23h8M41 33h16M41 27h8" fill="none" stroke="#2e3436" stroke-width="2" stroke-linecap="round"/><path d="M37 19v36h24V27l-8-8z" fill="none" stroke="#2e3436" stroke-width="2" stroke-linecap="round" stroke-linejoin="round"/><path style="marker:none" d="M19.1 45l12-8-12-8v4h-12v8h12z" fill="url(#k)" overflow="visible" transform="translate(0 16)"/><path d="M21.1 57v-2h-12v-4" fill="none" stroke="#8ae234" stroke-width="2" stroke-linejoin="round"/><path d="M18.918 58.59l10.046-6.726" fill="none" stroke="#8ae234" stroke-width="2"/><path d="M19.1 55l2 2" fill="none" stroke="#8ae234"/><path style="marker:none" d="M19 61l12-8-12-8v4H7v8h12z" fill="none" stroke="#172a04" stroke-width="2.2" stroke-linecap="round" stroke-linejoin="round" overflow="visible"/><g stroke="#2e3436" stroke-width="1.464" stroke-linecap="round" stroke-linejoin="round"><path transform="matrix(1.25937 0 0 1.48162 29.7 16.647)" d="M13.737 14.412c0 .373-.356.675-.794.675-.439 0-.794-.302-.794-.675 0-.373.355-.675.794-.675.438 0 .794.302.794.675z"/><path transform="matrix(1.25937 0 0 1.48162 35.7 16.647)" d="M13.737 14.412c0 .373-.356.675-.794.675-.439 0-.794-.302-.794-.675 0-.373.355-.675.794-.675.438 0 .794.302.794.675z"/><path transform="matrix(1.25937 0 0 1.48162 25.7 22.647)" d="M13.737 14.412c0 .373-.356.675-.794.675-.439 0-.794-.302-.794-.675 0-.373.355-.675.794-.675.438 0 .794.302.794.675z"/><path transform="matrix(1.25937 0 0 1.48162 32.7 22.647)" d="M13.737 14.412c0 .373-.356.675-.794.675-.439 0-.794-.302-.794-.675 0-.373.355-.675.794-.675.438 0 .794.302.794.675z"/><path transform="matrix(1.25937 0 0 1.48162 39.7 22.647)" d="M13.737 14.412c0 .373-.356.675-.794.675-.439 0-.794-.302-.794-.675 0-.373.355-.675.794-.675.438 0 .794.302.794.675z"/><path transform="matrix(1.25937 0 0 1.48162 35.7 28.647)" d="M13.737 14.412c0 .373-.356.675-.794.675-.439 0-.794-.302-.794-.675 0-.373.355-.675.794-.675.438 0 .794.302.794.675z"/><path transform="matrix(1.25937 0 0 1.48162 29.7 28.647)" d="M13.737 14.412c0 .373-.356.675-.794.675-.439 0-.794-.302-.794-.675 0-.373.355-.675.794-.675.438 0 .794.302.794.675z"/></g><g fill="#d3d7cf" stroke="#2e3436" stroke-width=".732" stroke-linecap="round" stroke-linejoin="round"><path transform="matrix(2.51875 0 0 2.96324 -25.6 -33.706)" d="M13.737 14.412c0 .373-.356.675-.794.675-.439 0-.794-.302-.794-.675 0-.373.355-.675.794-.675.438 0 .794.302.794.675z"/><path transform="matrix(2.51875 0 0 2.96324 -17.6 -37.706)" d="M13.737 14.412c0 .373-.356.675-.794.675-.439 0-.794-.302-.794-.675 0-.373.355-.675.794-.675.438 0 .794.302.794.675z"/><path transform="matrix(2.51875 0 0 2.96324 -7.6 -33.706)" d="M13.737 14.412c0 .373-.356.675-.794.675-.439 0-.794-.302-.794-.675 0-.373.355-.675.794-.675.438 0 .794.302.794.675z"/><path transform="matrix(2.51875 0 0 2.96324 -21.6 -27.706)" d="M13.737 14.412c0 .373-.356.675-.794.675-.439 0-.794-.302-.794-.675 0-.373.355-.675.794-.675.438 0 .794.302.794.675z"/><path transform="matrix(2.51875 0 0 2.96324 -11.6 -27.706)" d="M13.737 14.412c0 .373-.356.675-.794.675-.439 0-.794-.302-.794-.675 0-.373.355-.675.794-.675.438 0 .794.302.794.675z"/><path transform="matrix(2.51875 0 0 2.96324 -27.6 -19.706)" d="M13.737 14.412c0 .373-.356.675-.794.675-.439 0-.794-.302-.794-.675 0-.373.355-.675.794-.675.438 0 .794.302.794.675z"/><path transform="matrix(2.51875 0 0 2.96324 -17.6 -13.706)" d="M13.737 14.412c0 .373-.356.675-.794.675-.439 0-.794-.302-.794-.675 0-.373.355-.675.794-.675.438 0 .794.302.794.675z"/><path transform="matrix(2.51875 0 0 2.96324 -7.6 -17.706)" d="M13.737 14.412c0 .373-.356.675-.794.675-.439 0-.794-.302-.794-.675 0-.373.355-.675.794-.675.438 0 .794.302.794.675z"/><path transform="matrix(2.51875 0 0 2.96324 -5.6 -7.706)" d="M13.737 14.412c0 .373-.356.675-.794.675-.439 0-.794-.302-.794-.675 0-.373.355-.675.794-.675.438 0 .794.302.794.675z"/></g></svg>