<svg xmlns="http://www.w3.org/2000/svg" version="1.0" viewBox="0 0 64 64"><path d="M11 11a4 4 0 1 1-8 0 4 4 0 1 1 8 0zM29 7a4 4 0 1 1-8 0 4 4 0 1 1 8 0zM55 7a4 4 0 1 1-8 0 4 4 0 1 1 8 0zM45 19a4 4 0 1 1-8 0 4 4 0 1 1 8 0zM57 31a4 4 0 1 1-8 0 4 4 0 1 1 8 0zM19 21a4 4 0 1 1-8 0 4 4 0 1 1 8 0zM25 35a4 4 0 1 1-8 0 4 4 0 1 1 8 0zM21 51a4 4 0 1 1-8 0 4 4 0 1 1 8 0zM45 51a4 4 0 1 1-8 0 4 4 0 1 1 8 0zM41 35a4 4 0 1 1-8 0 4 4 0 1 1 8 0zM59 55a4 4 0 1 1-8 0 4 4 0 1 1 8 0z" fill="#d3d7cf" stroke="#2e3436" stroke-width="2" stroke-linecap="round" stroke-dashoffset=".6"/></svg>