<svg xmlns="http://www.w3.org/2000/svg" xmlns:xlink="http://www.w3.org/1999/xlink" width="64" height="64" version="1.0"><defs><linearGradient id="f"><stop offset="0" stop-color="red"/><stop offset="1" stop-color="#8e0000"/></linearGradient><linearGradient id="g"><stop offset="0" stop-color="red" stop-opacity=".087"/><stop offset="1" stop-color="#d40000"/></linearGradient><linearGradient id="e"><stop offset="0"/><stop offset="1" stop-color="#fff" stop-opacity=".485"/></linearGradient><linearGradient id="b"><stop offset="0" stop-color="#babdb6"/><stop offset="1" stop-color="#555753"/></linearGradient><linearGradient id="a"><stop offset="0" stop-color="#f7f7f7"/><stop offset="1" stop-color="#ccd0c7"/></linearGradient><linearGradient id="c"><stop offset="0" stop-color="#fff"/><stop offset="1" stop-color="#fff" stop-opacity="0"/></linearGradient><linearGradient id="d"><stop offset="0"/><stop offset="1" stop-opacity="0"/></linearGradient><linearGradient id="h"><stop offset="0" stop-color="#ffc800"/><stop offset="1" stop-color="#d72600"/></linearGradient><linearGradient id="i"><stop offset="0" stop-color="#68ff00"/><stop offset="1" stop-color="#078b00"/></linearGradient><linearGradient id="j"><stop offset="0" stop-color="#8ae234"/><stop offset="1" stop-color="#4e9a06"/></linearGradient><linearGradient id="k"><stop offset="0" stop-color="#ef2929"/><stop offset="1" stop-color="#a40000"/></linearGradient><linearGradient y2="60" x2="12" y1="48" x1="16" gradientTransform="matrix(-1 0 0 1 35 -17)" gradientUnits="userSpaceOnUse" id="l" xlink:href="#k"/></defs><path d="M37 19v36h24V27l-8-8z" fill="none"/><path d="M37 19v36h24V27l-8-8z" fill="#fff"/><path d="M53 19v8h8z" fill="#888a85"/><path d="M53 19v8h8" fill="none" stroke="#2e3436" stroke-width="2" stroke-linejoin="round"/><path d="M41 23h8M41 33h16M41 27h8" fill="none" stroke="#2e3436" stroke-width="2" stroke-linecap="round"/><path d="M37 19v36h24V27l-8-8z" fill="none" stroke="#2e3436" stroke-width="2" stroke-linecap="round" stroke-linejoin="round"/><g stroke="#2e3436" stroke-width="1.464" stroke-linecap="round" stroke-linejoin="round"><path transform="matrix(1.25937 0 0 1.48162 29.7 16.647)" d="M13.737 14.412c0 .373-.356.675-.794.675-.439 0-.794-.302-.794-.675 0-.373.355-.675.794-.675.438 0 .794.302.794.675z"/><path transform="matrix(1.25937 0 0 1.48162 35.7 16.647)" d="M13.737 14.412c0 .373-.356.675-.794.675-.439 0-.794-.302-.794-.675 0-.373.355-.675.794-.675.438 0 .794.302.794.675z"/><path transform="matrix(1.25937 0 0 1.48162 25.7 22.647)" d="M13.737 14.412c0 .373-.356.675-.794.675-.439 0-.794-.302-.794-.675 0-.373.355-.675.794-.675.438 0 .794.302.794.675z"/><path transform="matrix(1.25937 0 0 1.48162 32.7 22.647)" d="M13.737 14.412c0 .373-.356.675-.794.675-.439 0-.794-.302-.794-.675 0-.373.355-.675.794-.675.438 0 .794.302.794.675z"/><path transform="matrix(1.25937 0 0 1.48162 39.7 22.647)" d="M13.737 14.412c0 .373-.356.675-.794.675-.439 0-.794-.302-.794-.675 0-.373.355-.675.794-.675.438 0 .794.302.794.675z"/><path transform="matrix(1.25937 0 0 1.48162 35.7 28.647)" d="M13.737 14.412c0 .373-.356.675-.794.675-.439 0-.794-.302-.794-.675 0-.373.355-.675.794-.675.438 0 .794.302.794.675z"/><path transform="matrix(1.25937 0 0 1.48162 29.7 28.647)" d="M13.737 14.412c0 .373-.356.675-.794.675-.439 0-.794-.302-.794-.675 0-.373.355-.675.794-.675.438 0 .794.302.794.675z"/></g><g fill="#d3d7cf" stroke="#2e3436" stroke-width=".732" stroke-linecap="round" stroke-linejoin="round"><path transform="matrix(2.51875 0 0 2.96324 -25.6 -33.706)" d="M13.737 14.412c0 .373-.356.675-.794.675-.439 0-.794-.302-.794-.675 0-.373.355-.675.794-.675.438 0 .794.302.794.675z"/><path transform="matrix(2.51875 0 0 2.96324 -17.6 -37.706)" d="M13.737 14.412c0 .373-.356.675-.794.675-.439 0-.794-.302-.794-.675 0-.373.355-.675.794-.675.438 0 .794.302.794.675z"/><path transform="matrix(2.51875 0 0 2.96324 -7.6 -33.706)" d="M13.737 14.412c0 .373-.356.675-.794.675-.439 0-.794-.302-.794-.675 0-.373.355-.675.794-.675.438 0 .794.302.794.675z"/><path transform="matrix(2.51875 0 0 2.96324 -21.6 -27.706)" d="M13.737 14.412c0 .373-.356.675-.794.675-.439 0-.794-.302-.794-.675 0-.373.355-.675.794-.675.438 0 .794.302.794.675z"/><path transform="matrix(2.51875 0 0 2.96324 -11.6 -27.706)" d="M13.737 14.412c0 .373-.356.675-.794.675-.439 0-.794-.302-.794-.675 0-.373.355-.675.794-.675.438 0 .794.302.794.675z"/><path transform="matrix(2.51875 0 0 2.96324 -27.6 -19.706)" d="M13.737 14.412c0 .373-.356.675-.794.675-.439 0-.794-.302-.794-.675 0-.373.355-.675.794-.675.438 0 .794.302.794.675z"/><path transform="matrix(2.51875 0 0 2.96324 -17.6 -13.706)" d="M13.737 14.412c0 .373-.356.675-.794.675-.439 0-.794-.302-.794-.675 0-.373.355-.675.794-.675.438 0 .794.302.794.675z"/><path transform="matrix(2.51875 0 0 2.96324 -7.6 -17.706)" d="M13.737 14.412c0 .373-.356.675-.794.675-.439 0-.794-.302-.794-.675 0-.373.355-.675.794-.675.438 0 .794.302.794.675z"/><path transform="matrix(2.51875 0 0 2.96324 -5.6 -7.706)" d="M13.737 14.412c0 .373-.356.675-.794.675-.439 0-.794-.302-.794-.675 0-.373.355-.675.794-.675.438 0 .794.302.794.675z"/></g><path style="marker:none" d="M19 43L7 35l12-8v4h12v8H19z" fill="url(#l)" overflow="visible" transform="translate(0 16)"/><path d="M17 55v-2h12v-6" fill="none" stroke="#ef2929" stroke-width="2" stroke-linejoin="round"/><path d="M19.182 56.59L9.136 49.865" fill="none" stroke="#ef2929" stroke-width="2"/><path d="M19 53l-2 2" fill="none" stroke="#ef2929"/><path style="marker:none" d="M19 59L7 51l12-8v4h12v8H19z" fill="none" stroke="#340404" stroke-width="2.2" stroke-linecap="round" stroke-linejoin="round" overflow="visible"/></svg>