<svg xmlns="http://www.w3.org/2000/svg" xmlns:xlink="http://www.w3.org/1999/xlink" width="64" height="64"><defs><linearGradient id="k"><stop offset="0" stop-color="#c00"/><stop offset="1" stop-color="#ef2929"/></linearGradient><linearGradient id="j"><stop offset="0" stop-color="#16d0d2"/><stop offset="1" stop-color="#34e0e2"/></linearGradient><linearGradient id="a"><stop offset="0"/><stop offset="1" stop-opacity="0"/></linearGradient><linearGradient id="b"><stop offset="0" stop-opacity="0"/><stop offset=".5"/><stop offset="1" stop-opacity="0"/></linearGradient><linearGradient id="c"><stop offset="0"/><stop offset="1" stop-opacity="0"/></linearGradient><linearGradient id="g"><stop offset="0" stop-color="#fff"/><stop offset="1" stop-color="#f8f8f8"/></linearGradient><radialGradient gradientUnits="userSpaceOnUse" fy="64.568" fx="20.892" r="5.257" cy="64.568" cx="20.892" id="i"><stop offset="0" stop-color="#f0f0f0"/><stop offset="1" stop-color="#9a9a9a"/></radialGradient><radialGradient gradientUnits="userSpaceOnUse" fy="114.568" fx="20.892" r="5.256" cy="114.568" cx="20.892" id="h"><stop offset="0" stop-color="#f0f0f0"/><stop offset="1" stop-color="#9a9a9a"/></radialGradient><linearGradient id="e"><stop offset="0" stop-color="#a3a3a3"/><stop offset="1" stop-color="#4c4c4c"/></linearGradient><linearGradient id="f"><stop offset="0" stop-color="#fafafa"/><stop offset="1" stop-color="#bbb"/></linearGradient><linearGradient id="d"><stop offset="0" stop-color="#fff"/><stop offset=".5" stop-color="#fff520" stop-opacity=".891"/><stop offset="1" stop-color="#fff300" stop-opacity="0"/></linearGradient><linearGradient xlink:href="#j" id="m" x1="25.819" y1="18.791" x2="25.072" y2="11.449" gradientUnits="userSpaceOnUse"/><linearGradient xlink:href="#k" id="l" x1="27.312" y1="18.169" x2="26.371" y2="13.087" gradientUnits="userSpaceOnUse"/></defs><path d="M43.31 15.12a15.998 4.066 0 1 1-31.996 0 15.998 4.066 0 1 1 31.996 0z" transform="matrix(1.43765 0 0 1.4757 -7.265 -3.312)" fill="url(#l)" stroke="#280000" stroke-width="1.373"/><path d="M31.998 6.071v51.893" fill="none" stroke="#2e3436" stroke-width="8" stroke-linecap="round"/><path d="M32 6.107V58" fill="none" stroke="#888a85" stroke-width="4" stroke-linecap="round"/><path d="M31 6.107V58" fill="#d3d7cf" stroke="#d3d7cf" stroke-width="2" stroke-linecap="round"/><path d="M43.31 15.12a15.998 4.066 0 1 1-31.996 0 15.998 4.066 0 1 1 31.996 0z" transform="matrix(1.81256 0 0 1.4757 -17.502 10.688)" fill="url(#m)" stroke="#042a2a" stroke-width="1.223"/></svg>