<svg xmlns="http://www.w3.org/2000/svg" xmlns:xlink="http://www.w3.org/1999/xlink" width="64" height="64"><defs><linearGradient id="a"><stop offset="0" stop-color="#316cab"/><stop offset="1" stop-color="#002ca8"/></linearGradient><radialGradient r="19.571" fy="29.149" fx="282.646" cy="29.149" cx="282.646" gradientTransform="matrix(.61866 .96665 -1.03325 .66128 -327.276 -255.841)" gradientUnits="userSpaceOnUse" id="d" xlink:href="#a"/><linearGradient id="b"><stop offset="0" stop-color="#ff390f"/><stop offset="1" stop-color="#ff1000"/></linearGradient><radialGradient r="19.571" fy="33.9" fx="270.583" cy="33.9" cx="270.583" gradientTransform="matrix(1.11492 .27223 -.75072 3.07456 -471.086 -148.329)" gradientUnits="userSpaceOnUse" id="c" xlink:href="#b"/></defs><g fill-rule="evenodd"><path style="marker:none" d="M-216.137 7.27v55.5h12.375V41.053h8.75V32.49h-8.75v-9.242h21.556V7.302l-33.93-.031z" overflow="visible" fill="url(#c)" transform="translate(187.827 -.56) scale(.85064)"/><path style="marker:none" d="M-161.05 23.812l-7.2 4.13-3.178-1.104-3.033-7.75-4.77.25-2.176 8.015-3.046 1.458-7.596-3.322-3.208 3.565 4.13 7.198-1.129 3.17-7.75 3.032.276 4.78 8.015 2.176 1.458 3.046-3.348 7.586 3.565 3.209 7.198-4.13 3.195 1.138L-176.64 68l4.806-.267 2.15-8.024 3.046-1.458 7.612 3.357 3.208-3.565-4.13-7.198 1.113-3.204 7.741-3.008-.241-4.796-8.024-2.15-1.459-3.046 3.332-7.621-3.565-3.208zm-10.782 11.804l1.478.857 1.28 1.16 1.025 1.386.737 1.54.434 1.66.072 1.702-.246 1.701-.56 1.615-.893 1.494-1.126 1.264-1.385 1.025-1.54.737-1.66.433-1.711.098-1.701-.246-1.615-.56-1.494-.893-1.255-1.151-1.034-1.36-.737-1.54-.424-1.686-.098-1.71.246-1.702.56-1.615.884-1.468 1.135-1.29 1.385-1.024 1.54-.738 1.686-.424 1.701-.072 1.701.246 1.615.56z" overflow="visible" fill="url(#d)" transform="translate(187.827 -.56) scale(.85064)"/></g></svg>