<svg xmlns="http://www.w3.org/2000/svg" width="64" height="64"><defs><linearGradient id="a"><stop offset="0" stop-color="#fff"/><stop offset="1" stop-color="#fff" stop-opacity="0"/></linearGradient><linearGradient id="b"><stop offset="0" stop-opacity="0"/><stop offset=".5"/><stop offset="1" stop-opacity="0"/></linearGradient><linearGradient id="c"><stop offset="0"/><stop offset="1" stop-opacity="0"/></linearGradient><linearGradient id="d"><stop offset="0" stop-color="#0619c0"/><stop offset="1" stop-color="#379cfb"/></linearGradient><radialGradient gradientUnits="userSpaceOnUse" fy="114.568" fx="20.892" r="5.256" cy="114.568" cx="20.892" id="e"><stop offset="0" stop-color="#f0f0f0"/><stop offset="1" stop-color="#9a9a9a"/></radialGradient><radialGradient gradientUnits="userSpaceOnUse" fy="64.568" fx="20.892" r="5.257" cy="64.568" cx="20.892" id="f"><stop offset="0" stop-color="#f0f0f0"/><stop offset="1" stop-color="#9a9a9a"/></radialGradient><linearGradient id="g"><stop offset="0" stop-color="#fff"/><stop offset="1" stop-color="#f8f8f8"/></linearGradient><linearGradient id="h"><stop offset="0" stop-color="#fafafa"/><stop offset="1" stop-color="#bbb"/></linearGradient><linearGradient id="i"><stop offset="0" stop-color="#a3a3a3"/><stop offset="1" stop-color="#4c4c4c"/></linearGradient><linearGradient id="j"><stop offset="0" stop-color="#005bff"/><stop offset="1" stop-color="#c1e3f7"/></linearGradient></defs><path d="M558.638 72.006l-28.496 14 17.675 8.133-15.64 31.867s16.46-5.206 23.152-7.353l17.645-5.66-11.869-9.849z" fill="#3465a4" stroke="#0b1521" stroke-width="3" stroke-linejoin="round" transform="matrix(.9826 0 0 1 -503.913 -68.006)"/><path d="M556.371 75.779L535.878 85.96l14.85 7.272-13.74 28.637 30.994-9.864-9.226-7.56z" fill="none" stroke="#729fcf" stroke-width="2.018" transform="matrix(.9826 0 0 1 -503.913 -68.006)"/><path d="M477.22 113.006l6.107 16-18.32-4-2.035-4 10.178-10z" fill="#fff" stroke="#0b1521" stroke-width="2.018" stroke-linejoin="round" transform="matrix(.9826 0 0 1 -431.913 -81.006)"/><path d="M17 12l-4 4 20 20c0-3 1-4 4-4z" fill="#729fcf"/><path d="M13 16l-4 4 20 20c0-3 1-4 4-4z" fill="#3465a4"/><path d="M9 20l-4 4 20 20c0-3 1-4 4-4z" fill="#204a87"/><path d="M447.707 103.006l18.319 18" fill="none" stroke="#3465a4" stroke-width="2.018" stroke-linecap="round" transform="matrix(.9826 0 0 1 -431.913 -81.006)"/><path d="M451.778 99.006l18.318 18" fill="none" stroke="#729fcf" stroke-width="2.018" stroke-linecap="round" transform="matrix(.9826 0 0 1 -431.913 -81.006)"/><path d="M456.866 93.006l-4.07 4 20.354 20c0-3 1.017-4 4.07-4zM452.795 97.006l-4.07 4 20.354 20c0-3 1.017-4 4.07-4zM448.724 101.006l-4.07 4 20.354 20c0-3 1.018-4 4.07-4z" fill="none" stroke="#0b1521" stroke-width="2.018" stroke-linejoin="round" transform="matrix(.9826 0 0 1 -431.913 -81.006)"/><path d="M479.256 122.006c-1.018 0-3.634 2.516-4.07 5l8.14 2-3.052-7h-1.018" fill="#0b1521" stroke="#0b1521" stroke-width="1.009" stroke-linejoin="round" transform="matrix(.9826 0 0 1 -431.913 -81.006)"/></svg>