<svg xmlns="http://www.w3.org/2000/svg" xmlns:xlink="http://www.w3.org/1999/xlink" width="64" height="64"><defs><linearGradient id="g"><stop offset="0" stop-color="#4e9a06"/><stop offset="1" stop-color="#8ae234"/></linearGradient><linearGradient id="b"><stop offset="0" stop-color="#007b09"/><stop offset="1" stop-color="#46ff00"/></linearGradient><linearGradient id="a"><stop offset="0" stop-color="#fff"/><stop offset="1" stop-color="#fff" stop-opacity="0"/></linearGradient><linearGradient id="c"><stop offset="0" stop-color="#007b09"/><stop offset="1" stop-color="#46ff00"/></linearGradient><linearGradient xlink:href="#d" id="i" gradientUnits="userSpaceOnUse" gradientTransform="matrix(.98354 .0181 .0181 .98917 -277.83 253.19)" x1="11.39" y1="453.55" x2="54.51" y2="485.54"/><linearGradient id="d"><stop offset="0" stop-color="#3465a4"/><stop offset="1" stop-color="#729fcf"/></linearGradient><linearGradient xlink:href="#e" id="j" gradientUnits="userSpaceOnUse" gradientTransform="matrix(.98354 .0181 .0181 .98917 -58.286 270.176)" x1="11.39" y1="453.55" x2="54.51" y2="485.54"/><linearGradient id="e"><stop offset="0" stop-color="#3465a4"/><stop offset="1" stop-color="#729fcf"/></linearGradient><linearGradient xlink:href="#f" id="k" gradientUnits="userSpaceOnUse" gradientTransform="matrix(.98354 .0181 .0181 .98917 -75.276 489.729)" x1="11.39" y1="453.55" x2="54.51" y2="485.54"/><linearGradient id="f"><stop offset="0" stop-color="#3465a4"/><stop offset="1" stop-color="#729fcf"/></linearGradient><linearGradient xlink:href="#g" id="l" gradientUnits="userSpaceOnUse" gradientTransform="matrix(-.2493 -.22163 .2135 -.2588 -46.293 159.74)" x1="10.387" y1="453.779" x2="56.319" y2="483.995"/><linearGradient id="h"><stop offset="0" stop-color="#c4a000"/><stop offset="1" stop-color="#fce94f"/></linearGradient></defs><path d="M53.999 32l-22 22-22-22 22-22" fill="none" stroke="#2e3436" stroke-width="6"/><path d="M53.999 32l-22 22-22-22 22-22" fill="none" stroke="#d3d7cf" stroke-width="2"/><g stroke-width="14.155" stroke="#3465a4"><path d="M-194.202 716a49.534 49.533 49.436 1 1-99.068-.002 49.534 49.533 49.436 1 1 99.068.001z" fill="#3465a4" stroke="#0b1521" transform="matrix(-.10732 -.0919 .0919 -.10732 -59.965 108.438)"/><path d="M-208.35 715.994a35.381 35.393 49.406 0 1-70.776.011 35.381 35.393 49.406 0 1 70.776-.011z" fill="url(#i)" stroke="#729fcf" transform="matrix(-.10732 -.0919 .0919 -.10732 -59.965 108.438)"/><path d="M25.342 732.985a49.534 49.533 49.486 1 1-99.067-.001 49.534 49.533 49.486 1 1 99.067 0z" fill="#3465a4" stroke="#0b1521" transform="matrix(-.10732 -.0919 .0919 -.10732 -59.965 108.438)"/><path d="M11.195 732.979a35.381 35.393 49.403 1 1-70.776.011 35.381 35.393 49.403 0 1 70.776-.011z" fill="url(#j)" stroke="#729fcf" transform="matrix(-.10732 -.0919 .0919 -.10732 -59.965 108.438)"/><path d="M8.353 952.538a49.534 49.533 49.486 1 1-99.068-.001 49.534 49.533 49.486 1 1 99.068 0z" fill="#3465a4" stroke="#0b1521" transform="matrix(-.10732 -.0919 .0919 -.10732 -59.965 108.438)"/><path d="M-5.795 952.532a35.381 35.393 49.403 1 1-70.776.012 35.381 35.393 49.403 0 1 70.776-.012z" fill="url(#k)" stroke="#729fcf" transform="matrix(-.10732 -.0919 .0919 -.10732 -59.965 108.438)"/></g><path d="M36.367 23.9A13.996 13.996 89.972 1 1 57.63 42.107 13.996 13.996 89.972 1 1 36.367 23.9z" fill="#3465a4" stroke="#172a04" stroke-width="2"/><path d="M37.883 25.195a12 12 89.926 0 1 18.23 15.61 12 12 89.926 1 1-18.23-15.61z" fill="url(#l)" stroke="#8ae234" stroke-width="2"/><path d="M41 31l4 4 8-8 3 3-11 11-7-7z" fill="#d3d7cf" stroke="#2e3436" stroke-width="2" stroke-linejoin="round"/></svg>