<svg xmlns="http://www.w3.org/2000/svg" xmlns:xlink="http://www.w3.org/1999/xlink" width="64" height="64"><defs><linearGradient id="c"><stop offset="0" stop-color="#888a85"/><stop offset="1" stop-color="#fff"/></linearGradient><linearGradient id="a"><stop offset="0" stop-color="#fff"/><stop offset="1" stop-color="#fff" stop-opacity="0"/></linearGradient><linearGradient id="b"><stop offset="0" stop-color="#fff"/><stop offset="1" stop-color="#fff" stop-opacity="0"/></linearGradient><linearGradient xlink:href="#c" id="d" x1="182.815" y1="734.658" x2="127.303" y2="469.436" gradientUnits="userSpaceOnUse"/><linearGradient xlink:href="#c" id="e" gradientUnits="userSpaceOnUse" x1="182.815" y1="734.658" x2="127.303" y2="469.436" gradientTransform="translate(.881 4.406)"/><linearGradient xlink:href="#c" id="f" gradientUnits="userSpaceOnUse" x1="182.815" y1="734.658" x2="127.303" y2="469.436" gradientTransform="translate(0 4.406)"/><linearGradient xlink:href="#c" id="g" gradientUnits="userSpaceOnUse" x1="182.815" y1="734.658" x2="127.303" y2="469.436" gradientTransform="translate(-.881 4.406)"/><linearGradient xlink:href="#c" id="h" gradientUnits="userSpaceOnUse" x1="182.815" y1="734.658" x2="127.303" y2="469.436"/><linearGradient xlink:href="#c" id="i" gradientUnits="userSpaceOnUse" x1="182.815" y1="734.658" x2="127.303" y2="469.436" gradientTransform="translate(0 5.287)"/><linearGradient xlink:href="#c" id="j" gradientUnits="userSpaceOnUse" x1="182.815" y1="734.658" x2="127.303" y2="469.436" gradientTransform="translate(0 4.406)"/></defs><path d="M14.857 8v48M32 8v48M49.143 8v48M56 14H8M56 31.964H8M56 49H8" fill="none" stroke="#2e3436" stroke-width="8.00014272" stroke-linecap="round" stroke-linejoin="round"/><g stroke="url(#d)" stroke-width="24.672" stroke-linecap="round" stroke-linejoin="round" transform="matrix(.16213 0 0 .16213 6.503 -66.823)" fill="#fad647"><path d="M52.406 461.506v296.062" fill="none" stroke="url(#e)"/><path d="M157.262 461.506v296.062" stroke="url(#f)"/><path d="M262.117 461.506v296.062" stroke="url(#g)"/><path d="M305.293 498.513H9.23" stroke="url(#h)"/><path d="M305.293 609.537H9.23" stroke="url(#i)"/><path d="M305.293 714.392H9.23" stroke="url(#j)"/></g><path d="M14 8v48.714M31 8v48.714M48 8v48.714M56 13H8M56 31H8M56 48H8" fill="none" stroke="#fff" stroke-width="2.00003568" stroke-linecap="round" stroke-linejoin="round"/></svg>