<svg xmlns="http://www.w3.org/2000/svg" xmlns:xlink="http://www.w3.org/1999/xlink" width="64" height="64"><defs><linearGradient id="h"><stop offset="0" stop-color="#8ae234"/><stop offset="1" stop-color="#4e9a06"/></linearGradient><linearGradient id="a"><stop offset="0" stop-color="#fff"/><stop offset="1" stop-color="#fff" stop-opacity="0"/></linearGradient><linearGradient id="b"><stop offset="0" stop-color="#0619c0"/><stop offset="1" stop-color="#379cfb"/></linearGradient><linearGradient id="c"><stop offset="0" stop-color="#fa0"/><stop offset="1" stop-color="#faff2b"/></linearGradient><linearGradient id="d"><stop offset="0" stop-color="#0619c0"/><stop offset="1" stop-color="#379cfb"/></linearGradient><linearGradient id="e"><stop offset="0" stop-color="#fafafa"/><stop offset="1" stop-color="#bbb"/></linearGradient><linearGradient id="f"><stop offset="0" stop-color="#a3a3a3"/><stop offset="1" stop-color="#4c4c4c"/></linearGradient><linearGradient id="g"><stop offset="0" stop-color="#729fcf"/><stop offset="1" stop-color="#204a87"/></linearGradient><linearGradient gradientTransform="translate(-17 5)" y2="31" x2="53" y1="37" x1="29" gradientUnits="userSpaceOnUse" id="j" xlink:href="#g"/><linearGradient xlink:href="#h" id="i" x1="26" y1="18" x2="36" y2="54" gradientUnits="userSpaceOnUse"/></defs><g stroke-width="2"><path style="marker:none" d="M19.578 8l-14.174.006c-.233 0-.422.205-.422.46l.004 7.905c0 .01-.004.02-.004.031L5 55.617C5 56.383 5.677 57 6.518 57l50.982-.018c.84 0 1.518-.618 1.518-1.384L59 16.383c0-.766-.677-1.383-1.518-1.383H25l-5-6.54c0-.254-.188-.46-.422-.46z" color="#000" display="block" overflow="visible" fill="url(#i)" stroke="#172a04" stroke-linecap="round" stroke-linejoin="round"/><path style="marker:none" d="M18.578 10H7.422c-.234 0-.422.206-.422.46l.004 5.509L7 16v38c0 1 0 1 1 1h48c1 0 1 0 1-1V18c0-1 0-1-1-1H24l-5-6.54c0-.254-.188-.46-.422-.46z" color="#000" display="block" overflow="visible" fill="none" stroke="#8ae234" stroke-linecap="round" stroke-linejoin="round"/><path d="M30 20v10H7v14h23v10l18-17z" fill="url(#j)" fill-rule="evenodd" stroke="#0b1521" stroke-linejoin="round" transform="rotate(90 38.5 36.5)"/><path d="M50.357 30.007L43 30V7H33v23l-7.357-.007L38 43z" fill="none" stroke="#729fcf"/></g></svg>