<svg xmlns="http://www.w3.org/2000/svg" xmlns:xlink="http://www.w3.org/1999/xlink" width="64" height="64"><defs><linearGradient id="b"><stop offset="0" stop-color="#204a87"/><stop offset="1" stop-color="#729fcf"/></linearGradient><linearGradient id="a"><stop offset="0" stop-color="#3465a4"/><stop offset="1" stop-color="#729fcf"/></linearGradient><linearGradient xlink:href="#b" id="c" gradientUnits="userSpaceOnUse" x1="18.702" y1="31.725" x2="45.765" y2="31.812"/></defs><path transform="matrix(1.19157 0 0 1.19157 -6.105 -6.106)" d="M46.863 19.417c1.664-7.416-2.468-8.905-8.583-8.366-4.116-2.664-8.273-3.77-12.555.024-9.093-1.41-9.657 2.767-7.924 8.256-2.735 1.39-5.868 2.529-4.076 6.744-7.68 2.334-5.78 8.943-4.12 15.266 5.562.01 4.405-7.13 8.505-11 .597 13.168 3.406 23.708 13.89 25.133 9.577-1.496 14.318-9.769 13.98-25.162 3.713 4.605 2.37 10.615 9.21 10.705-.522-5.95 3.024-12.794-3.914-15.178 1.683-4.071-1.667-5.112-4.413-6.422z" fill="url(#c)" fill-rule="evenodd"/><path d="M8.778 24.833c-2.288 2.165-3.982 4.45-4.087 5.046-2.792 4.375-.749 10.683.59 14.122 10.145-6.186 7.806-11.51 10.58-15.882M15.474 30.047c1.508 13.654 1.582 28.17 16.55 29.948 13.819-1.545 15.14-16.218 16.659-29.982M9.325 24.255a8.406 6.795 0 0 1 5.78-7.327M14.62 16.222a8.406 6.795 0 0 1 1.286-7.683 8.406 6.795 0 0 1 9.357-1.707M39.334 6.917a6.795 8.406 90 0 0-6.987-3.103 6.795 8.406 90 0 0-7.05 3.007M50.378 16.212a6.795 8.406 90 0 0-1.546-7.594 6.795 8.406 90 0 0-9.325-1.556M54.807 24.327a6.795 8.154 90 0 0-5.072-7.297" fill="none" stroke="#0b1521" stroke-width="2.3827778" stroke-linecap="round"/><path d="M11.645 24.06a7.506 4.662 0 0 1 4.44-4.962M17.01 15.482a6.202 4.459 0 0 1 .96-5.503 6.202 4.459 0 0 1 7.674-.573" fill="none" stroke="#729fcf" stroke-width="2.3450415" stroke-linecap="round"/><path d="M38.544 9.602a6.105 6.908 90 0 0-5.913-3.553 6.105 6.908 90 0 0-6.306 2.98" fill="none" stroke="#729fcf" stroke-width="2.04746382" stroke-linecap="round"/><path d="M47.968 15.522a4.666 5.874 90 0 0-1.437-5.487 4.666 5.874 90 0 0-7.033-.434M17.808 29.529c1.375 11.73 1.126 26.58 14.106 27.96 11.536-.877 13.09-14.996 14.387-27.823M12.799 29.456c1.631-2.466 4.138-2.031 4.934-.202M10.448 26.504c.812-.812 1.218-1.566 1.193-2.573M15.841 19.164c1.246-.353 2.14-1.908 1.353-3.314" fill="none" stroke="#729fcf" stroke-width="2.3450415" stroke-linecap="round"/><g fill="#0b1521"><path d="M32.025 53.22a1.6 3.209-61.324 0 1-2.767.78 1.6 3.209-61.324 0 1-3.062-2.83 1.6 3.209-61.324 0 1 2.739-.807 1.6 3.209-61.324 0 1 3.087 2.823M32.022 53.186a3.209 1.6-28.676 0 0 2.767.78 3.209 1.6-28.676 0 0 3.061-2.831 3.209 1.6-28.676 0 0-2.738-.807 3.209 1.6-28.676 0 0-3.087 2.823"/><path d="M32.297 59.995a1.427 3.597.166 0 1-1.719-2.617 1.427 3.597.166 0 1 1.041-4.36 1.427 3.597.166 0 1 1.729 2.576 1.427 3.597.166 0 1-1.025 4.384"/></g><path d="M10.448 26.504c-6.166 5.806-5.298 9.739-3.885 13.81 2.57-1.872 4.15-4.318 4.946-6.418.59-1.553.362-1.537 1.074-4.043" fill="none" stroke="#729fcf" stroke-width="2.3450415" stroke-linecap="round"/><path d="M32.012 31.581a6.589 7.253 0 0 1 6.061-7.752 6.589 7.253 0 0 1 7.077 6.628 6.589 7.253 0 0 1-5.98 7.827 6.589 7.253 0 0 1-7.145-6.54" fill="#fff"/><path d="M32.134 32.438a3.52 3.874 0 0 1 3.237-4.141 3.52 3.874 0 0 1 3.78 3.54 3.52 3.874 0 0 1-3.194 4.182 3.52 3.874 0 0 1-3.816-3.494" fill="#0b1521"/><path d="M26.907 26.931a5.537 5.002 5.73 0 0-6.04 4.358 5.537 5.002 5.73 0 0 4.904 5.582 5.537 5.002 5.73 0 0 6.095-4.295 5.537 5.002 5.73 0 0-4.834-5.63" fill="#fff"/><path d="M26.853 32.394a2.62 2.884 0 0 1 2.41-3.083 2.62 2.884 0 0 1 2.814 2.636A2.62 2.884 0 0 1 29.7 35.06a2.62 2.884 0 0 1-2.841-2.601" fill="#0b1521"/><path d="M55.274 24.776c2.288 2.165 3.982 4.45 4.087 5.046 2.792 4.376.749 10.684-.59 14.123-10.145-6.186-7.315-9.559-10.088-13.932" fill="none" stroke="#0b1521" stroke-width="2.3827778" stroke-linecap="round"/></svg>