<svg xmlns="http://www.w3.org/2000/svg" xmlns:xlink="http://www.w3.org/1999/xlink" width="64" height="64"><defs><linearGradient id="a"><stop offset="0" stop-color="#204a87"/><stop offset="1" stop-color="#729fcf"/></linearGradient><linearGradient xlink:href="#a" id="c" x1="1942.738" y1="1934.756" x2="1809.502" y2="1547.414" gradientUnits="userSpaceOnUse" gradientTransform="matrix(.98658 0 0 .99922 20.13 -2.681)"/><linearGradient id="b"><stop offset="0" stop-color="#003ddd"/><stop offset="1" stop-color="#639ef0"/></linearGradient></defs><g stroke-width="14.605" stroke-linecap="round"><path d="M1681.192 1792.577c29.752 101.921 135.567 160.182 236.198 130.049 100.632-30.133 158.155-137.304 128.404-239.225-15.68-53.712-52.48-95.29-98.515-118.201l22.491-51.703-179.753 9.383 95.668 159.222 33.287-51.866c28.917 15.135 51.944 41.707 61.895 75.798 19.374 66.37-18.08 136.149-83.61 155.771-65.53 19.623-134.456-18.302-153.83-84.672-5.544-18.99-6.415-38.247-3.324-56.542l-63.932-15.371c-4.85 28.251-3.545 58.012 5.021 87.357z" style="marker:none" fill="url(#c)" fill-rule="evenodd" stroke="#0b1521" stroke-linejoin="round" overflow="visible" transform="matrix(.13694 0 0 .13694 -222.218 -203.365)"/><path d="M10.174 42.164c3 10.38 13.164 16.686 23.755 16.873 15.357.272 23.197-15.474 23.248-23.747.087-14.293-10.41-21.232-15.244-23.588l2.265-5.284-17.748.71 9.562 15.986 3.72-6.138c9.486 5.824 11.976 11.25 12.082 18.46.108 7.376-5.842 18.346-18.272 18.847-10.703.431-16.845-7.246-18.879-14.07-.9-2.226-.9-4.57-.849-6.451l-4.883-1.183c-.146 2.95.332 6.434 1.243 9.585z" style="marker:none" fill="none" stroke="#729fcf" overflow="visible" stroke-width="2.0000087"/></g></svg>