<svg xmlns="http://www.w3.org/2000/svg" xmlns:xlink="http://www.w3.org/1999/xlink" width="64" height="64"><defs><linearGradient id="c"><stop offset="0" stop-color="#204a87"/><stop offset="1" stop-color="#729fcf"/></linearGradient><linearGradient id="a"><stop offset="0" stop-color="#fce94f"/><stop offset="1" stop-color="#c4a000"/></linearGradient><linearGradient xlink:href="#a" id="d" x1="499.985" y1="19.714" x2="540.147" y2="4.389" gradientUnits="userSpaceOnUse"/><linearGradient id="b"><stop offset="0" stop-color="#fce94f"/><stop offset="1" stop-color="#c4a000"/></linearGradient><linearGradient gradientTransform="matrix(0 .5907 .37332 0 17.504 -286.653)" y2="4.389" x2="540.147" y1="19.714" x1="499.985" gradientUnits="userSpaceOnUse" id="f" xlink:href="#b"/><linearGradient xlink:href="#c" id="e" x1="33.634" y1="60.706" x2="29.08" y2="38.658" gradientUnits="userSpaceOnUse"/></defs><path transform="matrix(0 .5907 -.37332 0 46.496 -286.653)" style="marker:none" d="M519.141-20.101l28.78 45.536h-57.56z" fill="url(#d)" fill-rule="evenodd" stroke="#302b00" stroke-width="4.259" stroke-linejoin="round" overflow="visible"/><path d="M59 37l-18 2 4 4s-2 5-13 5-19-14-19-14l-8 7s10 18 27 18 21-8 21-8l4 4z" fill="url(#e)" stroke="#0b1521" stroke-width="2" stroke-linecap="round" stroke-linejoin="round"/><path style="marker:none" d="M51.16 20L39 32.16V7.84z" fill="none" stroke="#fce94f" stroke-width="2" overflow="visible"/><path style="marker:none" d="M10 20l17 17V3z" fill="url(#f)" fill-rule="evenodd" stroke="#302b00" stroke-width="2" stroke-linejoin="round" overflow="visible"/><path style="marker:none" d="M12.84 20L25 32.16V7.84z" fill="none" stroke="#fce94f" stroke-width="2" overflow="visible"/><path d="M56.75 39.265l-11.468 1.277 2.345 2.425S43 50 32 50 12.568 37.023 12.568 37.023L7.58 41.398s8.549 15.791 25.352 15.698c16.804-.092 19.93-8.924 19.93-8.924l2.608 2.6z" fill="none" stroke="#729fcf" stroke-width="2" stroke-linecap="round"/></svg>