<svg xmlns="http://www.w3.org/2000/svg" xmlns:xlink="http://www.w3.org/1999/xlink" width="64" height="64"><defs><linearGradient id="e"><stop offset="0" stop-color="#4e9a06"/><stop offset="1" stop-color="#8ae234"/></linearGradient><linearGradient id="a"><stop offset="0" stop-color="#fff"/><stop offset="1" stop-color="#fff" stop-opacity="0"/></linearGradient><linearGradient id="b"><stop offset="0" stop-color="#fafafa"/><stop offset="1" stop-color="#bbb"/></linearGradient><linearGradient id="c"><stop offset="0" stop-color="#a3a3a3"/><stop offset="1" stop-color="#4c4c4c"/></linearGradient><linearGradient id="d"><stop offset="0" stop-color="#2e8207"/><stop offset="1" stop-color="#52ff00"/></linearGradient><linearGradient y2="140.564" x2="408.874" y1="187.257" x1="416.495" gradientTransform="matrix(.94232 0 0 .94232 23.728 8.826)" gradientUnits="userSpaceOnUse" id="g" xlink:href="#e"/><linearGradient id="f"><stop offset="0" stop-color="#4e9a06"/><stop offset="1" stop-color="#8ae234"/></linearGradient></defs><g stroke-width="2" stroke-linecap="round"><path d="M413.199 187.646c-2 0-2-3-2-6v-18c-3-1-7 0-10-4s-2.914-15.069-1-20c1.913-4.932 5-3 6 0s2 5 4 0 6-5 8 0 3 3 4 0 4-5 6 0 2 16-1 20-7 3-10 4v12c0 3 1.587 3.479 4.793-.26 3.207-3.74 10.207-10.74 16.156-15.637.05 5.897 2.05 11.897-.702 18.031-2.752 6.135-15.247 9.866-24.247 9.866zm-24-10c-2-6-1.26-12.806-.94-18.633 5.684 1.928 14.472 12.143 18.94 16.633.06 3.367 0 8 0 12-7.14.045-16-4-18-10z" fill="url(#g)" stroke="#154b00" stroke-linejoin="round" transform="translate(-384.199 -132.646)"/><path d="M30.386 52.977c-1.863.137-1.113.705-1.431-5.432 0-5 .022-12.369.022-18.022-3-1-8.886-1.068-10.568-3.932-1.682-2.864-2.822-11.523-.909-16.455 1.913-4.931 2.198-1.962 3.59.91 1.394 2.87 4.747 2.988 6.586-1.787 1.84-4.775 2.864-4.063 4.96.696 2.097 4.758 5.545 3.436 6.818.003 1.273-3.434 1.813-4.524 3.222.885 1.41 5.409.615 12.648-1.613 16.512-2.227 3.863-7.04 2.077-10.04 3.077 0 4 .008 11.721-.015 14.221s2.86 6.035 6.862 1.864c4.002-4.171 8.309-9.303 14.259-14.2.628 5.769 1.086 9.84-1.25 13.982-2.334 4.142-12.778 7.164-20.493 7.679zm-23.84-9.932c-1.5-6.341-.684-8.974-.591-13.409C9.82 31.792 16.532 39.283 21 43.773c.061 3.367.045 5.136.045 9.136-5.548-.636-13.09-3.704-14.5-9.864z" fill="none" stroke="#8ae234"/></g></svg>