<svg xmlns="http://www.w3.org/2000/svg" xmlns:xlink="http://www.w3.org/1999/xlink" width="64" height="64"><defs><linearGradient id="b"><stop offset="0" stop-color="#003b8c"/><stop offset="1" stop-color="#419ff7"/></linearGradient><linearGradient id="a"><stop offset="0" stop-color="#005bff"/><stop offset="1" stop-color="#c1e3f7"/></linearGradient><linearGradient id="c"><stop offset="0" stop-color="#06989a"/><stop offset="1" stop-color="#34e0e2"/></linearGradient><linearGradient gradientTransform="matrix(.09504 0 0 .09264 4.97 -73.062)" y2="598.963" x2="127.303" y1="728.49" x1="182.815" gradientUnits="userSpaceOnUse" id="e" xlink:href="#c"/><linearGradient xlink:href="#d" id="f" gradientUnits="userSpaceOnUse" gradientTransform="matrix(-.19425 .0114 -.0187 -.19481 52.139 96.13)" x1="18.784" y1="436.033" x2="43.604" y2="499.084"/><linearGradient id="d"><stop offset="0" stop-color="#204a87"/><stop offset="1" stop-color="#729fcf"/></linearGradient></defs><g stroke-width="2"><path style="marker:none" d="M15-29v16H3v8h34v-8H23v-16z" color="#000" fill="url(#e)" stroke="#042a2a" stroke-linejoin="round" overflow="visible" transform="translate(0 32)"/><path style="marker:none" d="M17 5v16H5v4h30v-4H21V5z" color="#000" fill="none" stroke="#34e0e2" stroke-linejoin="round" overflow="visible"/><path fill="#fff" stroke="#2e3436" stroke-linecap="round" stroke-linejoin="round" d="M15.745 55.77l41.012-41.013L61 19 19.988 60.012z"/><path d="M58.172 19L19.988 57.184" fill="none" stroke="#babdb6" stroke-linecap="square"/><path d="M29.355 38.061a8.993 8.994 45.02 1 1 17.934-1.388 8.993 8.994 45.02 1 1-17.934 1.388z" fill="#3465a4" stroke="#0b1521"/><path d="M31.359 5.911a7 7 0 1 1 13.958-1.08 7 7 0 0 1-13.958 1.08z" fill="url(#f)" stroke="#729fcf" transform="translate(0 32)"/></g></svg>