<svg xmlns="http://www.w3.org/2000/svg" xmlns:xlink="http://www.w3.org/1999/xlink" width="64" height="64"><defs><linearGradient id="a"><stop offset="0" stop-color="#c4a000"/><stop offset="1" stop-color="#fce94f"/></linearGradient><linearGradient xlink:href="#a" id="b" gradientUnits="userSpaceOnUse" gradientTransform="matrix(.5059 .87623 -.86694 .50053 472.14 -77.962)" x1="-69.189" y1="218.916" x2="-80.687" y2="213.655"/></defs><g transform="rotate(-60 -19.885 211.419)"><path style="isolation:auto;mix-blend-mode:normal;marker:none" d="M181.187 156.586l-14.384-24.539-22.325 13.052 14.403 24.84 11.158 4.511-.777 7.771-10.125 5.846a6.045 6.045 0 0 0-5.635.509 6.045 6.045 0 0 0-1.76 8.364l.003.007a6.045 6.045 0 0 0 11.088-3.74c4.819-2.764 12.957-7.546 12.957-7.546l1.338-15 2.551-1.526z" color="#000" overflow="visible" fill="#f6efd1" stroke="#353535" stroke-width="4" stroke-linecap="round" stroke-linejoin="round"/><path d="M162.04 142.067l8.553 14.59m-15.114-10.663l8.553 14.59" fill="none" stroke="#2d2d2d" stroke-width="4" stroke-linecap="round"/><ellipse cy="-169.337" cx="167.16" transform="rotate(89.358)" style="marker:none" rx="1.541" ry="1.525" overflow="visible" fill="#302b00" fill-rule="evenodd" stroke="#242421" stroke-width="3.047" stroke-linejoin="bevel"/><path d="M176.813 167.268l-6.561 3.927-9.136-3.49-12.526-21.642 17.144-9.791 12.44 21.222z" fill="none" stroke="#cacaca" stroke-width="3.047"/><path style="isolation:auto;mix-blend-mode:normal;marker:none" transform="rotate(60)" d="M246.319-31.69a6.65 6.65 0 0 1-7-6.277 6.65 6.65 0 0 1 6.275-7.002 6.65 6.65 0 0 1 7.003 6.272 6.65 6.65 0 0 1-6.27 7.006" color="#000" overflow="visible" fill="url(#b)" stroke="#302b00" stroke-width="4" stroke-linecap="round" stroke-linejoin="round"/></g></svg>