<svg xmlns="http://www.w3.org/2000/svg" xmlns:xlink="http://www.w3.org/1999/xlink" width="64" height="64"><defs><linearGradient id="a"><stop offset="0" stop-color="#fff"/><stop offset="1" stop-color="#fff" stop-opacity="0"/></linearGradient><linearGradient id="b"><stop offset="0" stop-color="#fff"/><stop offset="1" stop-color="#fff" stop-opacity="0"/></linearGradient><linearGradient id="c"><stop offset="0" stop-color="#fff"/><stop offset="1" stop-color="#fff" stop-opacity="0"/></linearGradient><linearGradient id="d"><stop offset="0" stop-color="#fff"/><stop offset="1" stop-color="#fff" stop-opacity="0"/></linearGradient><linearGradient id="e"><stop offset="0" stop-color="#fff"/><stop offset="1" stop-color="#fff" stop-opacity="0"/></linearGradient><linearGradient id="f"><stop offset="0" stop-color="#fff"/><stop offset="1" stop-color="#fff" stop-opacity="0"/></linearGradient><linearGradient id="g"><stop offset="0" stop-color="#fff"/><stop offset="1" stop-color="#fff" stop-opacity="0"/></linearGradient><linearGradient id="h"><stop offset="0" stop-color="#c4a000"/><stop offset="1" stop-color="#fce94f"/></linearGradient><linearGradient xlink:href="#i" id="m" x1="37.429" y1="41.591" x2="24.483" y2="4.91" gradientUnits="userSpaceOnUse"/><linearGradient id="i"><stop offset="0" stop-color="#fff"/><stop offset="1" stop-color="#fff" stop-opacity="0"/></linearGradient><linearGradient xlink:href="#j" id="n" x1="22.843" y1="4.824" x2="30.784" y2="28.645" gradientUnits="userSpaceOnUse"/><linearGradient id="j"><stop offset="0" stop-color="#fff"/><stop offset="1" stop-color="#fff" stop-opacity="0"/></linearGradient><linearGradient xlink:href="#k" id="o" gradientUnits="userSpaceOnUse" x1="-18" y1="18" x2="-22" y2="5"/><linearGradient id="k"><stop offset="0" stop-color="#c4a000"/><stop offset="1" stop-color="#fce94f"/></linearGradient><linearGradient xlink:href="#l" id="p" gradientUnits="userSpaceOnUse" x1="-18" y1="18" x2="-22" y2="5"/><linearGradient id="l"><stop offset="0" stop-color="#c4a000"/><stop offset="1" stop-color="#fce94f"/></linearGradient></defs><path d="M53.612 28.645a24.813 24.813 0 1 1-49.626 0 24.813 24.813 0 1 1 49.626 0z" transform="matrix(.96725 0 0 .40301 4.208 20.456)" fill="none" stroke="#2e3436" stroke-width="12.813" stroke-linecap="round" stroke-linejoin="round"/><path d="M53.612 28.645a24.813 24.813 0 1 1-49.626 0 24.813 24.813 0 1 1 49.626 0z" transform="matrix(.96725 0 0 .41418 4.208 20.1)" fill="none" stroke="#d3d7cf" stroke-width="6.32" stroke-linecap="round" stroke-linejoin="round"/><path d="M53.612 28.645a24.813 24.813 0 1 1-49.626 0 24.813 24.813 0 1 1 49.626 0z" transform="matrix(.92693 0 0 .37345 5.369 21.421)" fill="none" stroke="url(#m)" stroke-width="3.399" stroke-linecap="round" stroke-linejoin="round"/><path d="M53.612 28.645a24.813 24.813 0 1 1-49.626 0 24.813 24.813 0 1 1 49.626 0z" transform="matrix(1.00754 0 0 .45419 3.047 18.965)" fill="none" stroke="url(#n)" stroke-width="2.957" stroke-linecap="round" stroke-linejoin="round"/><g stroke-width="2"><path d="M45.235 6.436a8.994 8.993.02 1 1 13.662 11.7 8.994 8.993.02 1 1-13.662-11.7z" fill="none" stroke="#2e2900"/><path d="M-24.634 6.894A7 7 0 1 1-14 16a7 7 0 0 1-10.634-9.106z" fill="url(#o)" stroke="#fce94f" transform="translate(71.39 .854)"/></g><g stroke-width="2"><path d="M5.235 46.436a8.994 8.993.02 1 1 13.662 11.7 8.994 8.993.02 1 1-13.662-11.7z" fill="none" stroke="#2e2900"/><path d="M-24.634 6.894A7 7 0 1 1-14 16a7 7 0 0 1-10.634-9.106z" fill="url(#p)" stroke="#fce94f" transform="translate(31.39 40.854)"/></g></svg>