<svg xmlns="http://www.w3.org/2000/svg" xmlns:xlink="http://www.w3.org/1999/xlink" width="64" height="64"><defs><linearGradient id="a"><stop offset="0" stop-color="#fff"/><stop offset="1" stop-color="#fff" stop-opacity="0"/></linearGradient><linearGradient id="b"><stop offset="0" stop-color="#fafafa"/><stop offset="1" stop-color="#bbb"/></linearGradient><linearGradient id="c"><stop offset="0" stop-color="#a3a3a3"/><stop offset="1" stop-color="#4c4c4c"/></linearGradient><linearGradient id="d"><stop offset="0" stop-color="#2e8207"/><stop offset="1" stop-color="#52ff00"/></linearGradient><linearGradient id="e"><stop offset="0" stop-color="#fff"/><stop offset="1" stop-color="#fff" stop-opacity="0"/></linearGradient><linearGradient id="f"><stop offset="0" stop-color="#3465a4"/><stop offset="1" stop-color="#729fcf"/></linearGradient><linearGradient y2="485.54" x2="54.51" y1="453.55" x1="11.39" gradientTransform="matrix(-.14542 -.12929 .12454 -.15097 -72.432 101.901)" gradientUnits="userSpaceOnUse" id="i" xlink:href="#f"/><linearGradient id="g"><stop offset="0" stop-color="#3465a4"/><stop offset="1" stop-color="#729fcf"/></linearGradient><linearGradient y2="475.681" x2="43.487" y1="453.55" x1="11.39" gradientTransform="matrix(-.09187 -.08169 .07868 -.09539 -52.403 74.667)" gradientUnits="userSpaceOnUse" id="j" xlink:href="#g"/><linearGradient id="h"><stop offset="0" stop-color="#3465a4"/><stop offset="1" stop-color="#729fcf"/></linearGradient><linearGradient y2="475.681" x2="43.487" y1="453.55" x1="11.39" gradientTransform="matrix(-.09187 -.08169 .07868 -.09539 -52.403 74.667)" gradientUnits="userSpaceOnUse" id="k" xlink:href="#h"/></defs><path d="M6 6c8.182 14.182 8.575 43.122 25 43 16.425-.122 18.818-28.697 27-43" fill="none" stroke="#2e3436" stroke-width="8" stroke-linecap="round" stroke-linejoin="round"/><path d="M7 51h48" fill="none" stroke="#2e3436" stroke-width="6" stroke-linecap="round"/><path d="M6 6c8.182 14.182 8.575 43.122 25 43 16.425-.122 18.818-28.697 27-43" fill="none" stroke="#eeeeec" stroke-width="4" stroke-linecap="round" stroke-linejoin="round"/><path d="M7 6c8 14 8.575 42 24 42 15.424 0 18.39-28.519 26-42" fill="none" stroke="#fff" stroke-width="2" stroke-linecap="round" stroke-linejoin="round"/><path d="M7 51h48" fill="none" stroke="#eeeeec" stroke-width="2" stroke-linecap="round"/><g stroke-width="2"><path d="M24.172 44.153a8.994 8.993.02 1 1 13.662 11.7 8.994 8.993.02 1 1-13.662-11.7z" fill="#3465a4" stroke="#0b1521"/><path d="M-23.332 23.413a7 7 0 1 1 10.634 9.106 7 7 0 0 1-10.634-9.106z" fill="url(#i)" stroke="#729fcf" transform="translate(49.026 22.05)"/></g><g stroke-width="4.422"><path d="M51.963 48.4a3.999 3.998.015 1 1 6.074 5.2 3.999 3.998.015 1 1-6.074-5.2z" fill="#3465a4" stroke="#0b1521" stroke-width="1.9998052799999997"/><path d="M-21.384 25.078a4.422 4.423 0 1 1 6.718 5.753 4.422 4.423 0 0 1-6.718-5.753z" fill="url(#j)" stroke="#729fcf" transform="matrix(.45224 0 0 .45224 63.15 38.359)"/></g><g stroke-width="4.422"><path d="M3.963 48.4a3.999 3.998.015 1 1 6.074 5.2 3.999 3.998.015 1 1-6.074-5.2z" fill="#3465a4" stroke="#0b1521" stroke-width="1.9998052799999997"/><path d="M-21.384 25.078a4.422 4.423 0 1 1 6.718 5.753 4.422 4.423 0 0 1-6.718-5.753z" fill="url(#k)" stroke="#729fcf" transform="matrix(.45224 0 0 .45224 15.15 38.359)"/></g></svg>