<svg xmlns="http://www.w3.org/2000/svg" xmlns:xlink="http://www.w3.org/1999/xlink" width="64" height="64"><defs><linearGradient id="a"><stop offset="0" stop-color="#fff"/><stop offset="1" stop-color="#fff" stop-opacity="0"/></linearGradient><radialGradient xlink:href="#b" id="f" gradientUnits="userSpaceOnUse" gradientTransform="matrix(1 0 0 .69853 0 202.829)" cx="225.264" cy="672.797" fx="225.264" fy="672.797" r="34.345"/><linearGradient id="b"><stop offset="0" stop-color="#fff"/><stop offset="1" stop-color="#fff" stop-opacity="0"/></linearGradient><radialGradient xlink:href="#b" id="g" gradientUnits="userSpaceOnUse" gradientTransform="matrix(1 0 0 .69853 0 202.829)" cx="225.264" cy="672.797" fx="225.264" fy="672.797" r="34.345"/><radialGradient r="34.345" fy="672.797" fx="225.264" cy="672.797" cx="225.264" gradientTransform="matrix(1 0 0 .69853 0 202.829)" gradientUnits="userSpaceOnUse" id="h" xlink:href="#b"/><linearGradient xlink:href="#c" id="k" gradientUnits="userSpaceOnUse" x1="-18" y1="18" x2="-22" y2="5"/><linearGradient id="c"><stop offset="0" stop-color="#c4a000"/><stop offset="1" stop-color="#fce94f"/></linearGradient><linearGradient xlink:href="#d" id="i" gradientUnits="userSpaceOnUse" x1="-18" y1="18" x2="-22" y2="5"/><linearGradient id="d"><stop offset="0" stop-color="#c4a000"/><stop offset="1" stop-color="#fce94f"/></linearGradient><linearGradient xlink:href="#e" id="j" gradientUnits="userSpaceOnUse" x1="-18" y1="18" x2="-22" y2="5"/><linearGradient id="e"><stop offset="0" stop-color="#c4a000"/><stop offset="1" stop-color="#fce94f"/></linearGradient></defs><path transform="matrix(-.15378 .00136 -.00133 -.15627 46.246 144.17)" d="M259.61 672.797a34.345 23.991 0 1 1-68.691 0 34.345 23.991 0 1 1 68.69 0z" fill="url(#f)"/><path transform="matrix(-.15378 -.00107 .00106 -.15627 64.856 118.29)" d="M259.61 672.797a34.345 23.991 0 1 1-68.691 0 34.345 23.991 0 1 1 68.69 0z" fill="url(#g)"/><path transform="matrix(-.15322 -.01346 .01324 -.1557 75.577 150.832)" d="M259.61 672.797a34.345 23.991 0 1 1-68.691 0 34.345 23.991 0 1 1 68.69 0z" fill="url(#h)"/><path d="M11 42c0-31 39-42 39 4" fill="none" stroke="#2e3436" stroke-width="8"/><path d="M79.883 181.058c-14.645-25.641 12.94-53.461 34.67-15.413" fill="none" stroke="#d3d7cf" stroke-width="3.841" transform="matrix(.89711 .52065 -.51236 .91163 32.103 -164.65)"/><path d="M79.042 181.538c-15.117-26.468 13.676-56.076 36.351-16.373" fill="none" stroke="#fff" stroke-width="1.92" transform="matrix(.89711 .52065 -.51236 .91163 32.103 -164.65)"/><g stroke-width="2"><path d="M-26.156 5.583a8.994 8.993.02 1 1 13.662 11.7 8.994 8.993.02 1 1-13.662-11.7z" fill="none" stroke="#2e2900" transform="matrix(1 0 0 1 51.322 2.57)"/><path d="M-24.634 6.894A7 7 0 1 1-14 16a7 7 0 0 1-10.634-9.106z" fill="url(#i)" stroke="#fce94f" transform="matrix(1 0 0 1 51.322 2.57)"/></g><g stroke-width="2"><path d="M-26.156 5.583a8.994 8.993.02 1 1 13.662 11.7 8.994 8.993.02 1 1-13.662-11.7z" fill="none" stroke="#2e2900" transform="matrix(1 0 0 1 69.322 36.57)"/><path d="M-24.634 6.894A7 7 0 1 1-14 16a7 7 0 0 1-10.634-9.106z" fill="url(#j)" stroke="#fce94f" transform="matrix(1 0 0 1 69.322 36.57)"/></g><g><g stroke-width="2"><path d="M5.166 36.147a8.994 8.993.02 1 1 13.662 11.7 8.994 8.993.02 1 1-13.662-11.7z" fill="none" stroke="#2e2900"/><path d="M-24.634 6.894A7 7 0 1 1-14 16a7 7 0 0 1-10.634-9.106z" fill="url(#k)" stroke="#fce94f" transform="translate(31.322 30.565)"/></g></g></svg>