<svg xmlns="http://www.w3.org/2000/svg" xmlns:xlink="http://www.w3.org/1999/xlink" width="64" height="64"><defs><linearGradient id="e"><stop offset="0" stop-color="#a40000"/><stop offset="1" stop-color="#ef2929"/></linearGradient><linearGradient id="c"><stop offset="0" stop-color="#fff"/><stop offset="1" stop-color="#a9a9a9"/></linearGradient><linearGradient id="b"><stop offset="0"/><stop offset="1" stop-opacity="0"/></linearGradient><linearGradient id="a"><stop offset="0" stop-color="#0019a3"/><stop offset="1" stop-color="#0069ff"/></linearGradient><linearGradient id="d"><stop offset="0" stop-color="#fff"/><stop offset="1" stop-color="#708cff"/></linearGradient><linearGradient xlink:href="#c" id="g" gradientUnits="userSpaceOnUse" x1="12.933" y1="14.796" x2="49.987" y2="48.776"/><linearGradient xlink:href="#e" id="h" x1="1119.668" y1="1322.279" x2="1090.425" y2="1088.337" gradientUnits="userSpaceOnUse" gradientTransform="translate(0 14.621)"/><linearGradient id="f"><stop offset="0" stop-color="#fff"/><stop offset="1" stop-color="#a9a9a9"/></linearGradient></defs><g color="#000"><path style="marker:none" d="M52.727 30c0 11.447-9.28 20.727-20.727 20.727-11.447 0-20.727-9.28-20.727-20.727 0-11.447 9.28-20.727 20.727-20.727 11.447 0 20.727 9.28 20.727 20.727z" transform="translate(-9.684 -7.079) scale(1.30263)" fill="url(#g)" fill-rule="evenodd" stroke="#2e3436" stroke-width="1.535" stroke-linejoin="round" overflow="visible"/><path style="marker:none" d="M27 13l-.124 14H13v10h14v14h10V37h14V27H37V13z" fill="#c00" fill-rule="evenodd" stroke="#280000" stroke-width="2.00000659" stroke-linejoin="round" overflow="visible"/><path style="marker:none" d="M1083.114 1095.648v102.35h-102.35v43.863h102.35v102.35h43.864v-102.35h102.35v-43.864h-102.35v-102.35z" fill="url(#h)" fill-rule="evenodd" stroke="#ef2929" stroke-width="14.621" overflow="visible" transform="matrix(.13679 0 0 .13679 -119.155 -134.87)"/><path style="marker:none" d="M57 32c0 13.807-11.193 25-25 25S7 45.807 7 32 18.193 7 32 7s25 11.193 25 25z" fill="none" stroke="#fff" stroke-width="1.9997801199999998" stroke-linejoin="round" overflow="visible"/></g></svg>