<svg xmlns="http://www.w3.org/2000/svg" xmlns:xlink="http://www.w3.org/1999/xlink" width="64" height="64"><defs><linearGradient id="a"><stop offset="0" stop-color="#fff"/><stop offset="1" stop-color="#fff" stop-opacity="0"/></linearGradient><linearGradient id="b"><stop offset="0" stop-color="#fafafa"/><stop offset="1" stop-color="#bbb"/></linearGradient><linearGradient id="c"><stop offset="0" stop-color="#a3a3a3"/><stop offset="1" stop-color="#4c4c4c"/></linearGradient><linearGradient id="d"><stop offset="0" stop-color="#2e8207"/><stop offset="1" stop-color="#52ff00"/></linearGradient><linearGradient y2="39.514" x2="45.615" y1="24.379" x1="50.121" gradientTransform="matrix(3.3934 -2.90602 -2.99635 -3.49888 49.496 888.95)" gradientUnits="userSpaceOnUse" id="g" xlink:href="#e"/><linearGradient id="e"><stop offset="0" stop-color="#729fcf"/><stop offset="1" stop-color="#204a87"/></linearGradient><linearGradient y2="39.514" x2="45.615" y1="23.527" x1="42.758" gradientTransform="matrix(-3.3934 2.90602 -2.99635 -3.49888 455.033 541.587)" gradientUnits="userSpaceOnUse" id="f" xlink:href="#e"/></defs><g stroke-width="2"><path fill="#fff" stroke="#2e3436" stroke-linecap="round" stroke-linejoin="round" d="M3 29.015h58v6H3z"/><path d="M59 33.015H5" fill="none" stroke="#babdb6" stroke-linecap="square"/></g><g stroke-width="10.801" stroke="#3465a4"><path d="M260.518 617.192l-28.104-32.817 32.816-28.102-35.13-41.022-32.816 28.103-28.103-32.817-3.555 95.48z" fill="url(#f)" fill-rule="evenodd" stroke="#0b1521" stroke-linejoin="round" transform="matrix(-.14064 -.12044 .12044 -.14064 -18.714 137.181)"/><path d="M232.871 601.852l-15.687-18.656L250 555.094l-21.078-24.613-32.816 28.103-18.093-20.987-1.32 58.772z" fill="none" stroke="#729fcf" transform="matrix(-.14064 -.12044 .12044 -.14064 -18.714 137.181)"/><path d="M154.12 708.38l-28.103-32.818-32.816 28.103-35.13-41.021 32.816-28.103-28.103-32.817 94.892 11.174z" fill="url(#g)" fill-rule="evenodd" stroke="#0b1521" stroke-linejoin="round" transform="matrix(-.14064 -.12044 .12044 -.14064 -18.714 137.181)"/><path d="M143.216 678.702l-16.021-18.37-32.816 28.103-21.077-24.613 32.815-28.102-17.954-21.107 58.276 7.737z" fill="none" stroke="#729fcf" transform="matrix(-.14064 -.12044 .12044 -.14064 -18.714 137.181)"/></g></svg>