<svg xmlns="http://www.w3.org/2000/svg" xmlns:xlink="http://www.w3.org/1999/xlink" width="64" height="64"><defs><linearGradient id="a"><stop offset="0" stop-color="#729fcf"/><stop offset="1" stop-color="#204a87"/></linearGradient><linearGradient id="b"><stop offset="0" stop-color="#729fcf"/><stop offset="1" stop-color="#204a87"/></linearGradient><linearGradient id="c"><stop offset="0" stop-color="#729fcf"/><stop offset="1" stop-color="#204a87"/></linearGradient><linearGradient id="d"><stop offset="0" stop-color="#729fcf"/><stop offset="1" stop-color="#204a87"/></linearGradient><linearGradient xlink:href="#a" id="g" gradientUnits="userSpaceOnUse" gradientTransform="matrix(0 -.58 .58824 0 13.176 38.38)" x1="45.483" y1="11.6" x2="-23.483" y2="52.4"/><linearGradient xlink:href="#c" id="i" gradientUnits="userSpaceOnUse" gradientTransform="matrix(-.58 0 0 .58824 38.38 13.176)" x1="31.69" y1="-2" x2="-9.69" y2="66"/><linearGradient xlink:href="#b" id="h" gradientUnits="userSpaceOnUse" gradientTransform="matrix(.58 0 0 .58824 25.62 13.176)" x1="-9.69" y1="-2" x2="31.69" y2="66"/><linearGradient xlink:href="#d" id="j" gradientUnits="userSpaceOnUse" gradientTransform="matrix(0 .58 .58824 0 13.176 25.62)" x1="-23.483" y1="11.6" x2="45.483" y2="52.4"/><linearGradient xlink:href="#d" id="e" x1="20" y1="12" x2="44" y2="52" gradientUnits="userSpaceOnUse"/><linearGradient xlink:href="#d" id="f" x1="20" y1="12" x2="44" y2="52" gradientUnits="userSpaceOnUse"/></defs><path fill="url(#e)" d="M26 29h12v6H26z"/><path fill="url(#f)" d="M29 26h6v12h-6z"/><path d="M37 28V13h6L32 3 21 13h6v15" fill="url(#g)" fill-rule="evenodd" stroke="#0b1521" stroke-width="2" stroke-linejoin="round"/><path d="M35 29V11h2.831L32 5.703 26.169 11H29v18" fill="none" stroke="#729fcf" stroke-width="2"/><path d="M37 37h14v6l10-11-10-11v6H37" fill="url(#h)" fill-rule="evenodd" stroke="#0b1521" stroke-width="2" stroke-linejoin="round"/><path d="M35 35h18v2.831L58.297 32 53 26.169V29H34" fill="none" stroke="#729fcf" stroke-width="2"/><path d="M27 37H13v6L3 32l10-11v6h14" fill="url(#i)" fill-rule="evenodd" stroke="#0b1521" stroke-width="2" stroke-linejoin="round"/><path d="M29 35H11v2.831L5.703 32 11 26.169V29h19" fill="none" stroke="#729fcf" stroke-width="2"/><path d="M37 36v15h6L32 61 21 51h6V36" fill="url(#j)" fill-rule="evenodd" stroke="#0b1521" stroke-width="2" stroke-linejoin="round"/><path d="M35 34v19h2.831L32 58.297 26.169 53H29V34" fill="none" stroke="#729fcf" stroke-width="2"/></svg>