<svg xmlns="http://www.w3.org/2000/svg" xmlns:xlink="http://www.w3.org/1999/xlink" width="64" height="64"><defs><linearGradient id="e"><stop offset="0" stop-color="#3465a4"/><stop offset="1" stop-color="#729fcf"/></linearGradient><linearGradient id="a"><stop offset="0" stop-color="#fff"/><stop offset="1" stop-color="#fff" stop-opacity="0"/></linearGradient><linearGradient id="b"><stop offset="0" stop-color="#fafafa"/><stop offset="1" stop-color="#bbb"/></linearGradient><linearGradient id="c"><stop offset="0" stop-color="#a3a3a3"/><stop offset="1" stop-color="#4c4c4c"/></linearGradient><linearGradient id="d"><stop offset="0" stop-color="#2e8207"/><stop offset="1" stop-color="#52ff00"/></linearGradient><linearGradient xlink:href="#e" id="f" x1="164.444" y1="161.22" x2="154.444" y2="131.22" gradientUnits="userSpaceOnUse"/><linearGradient xlink:href="#e" id="g" gradientUnits="userSpaceOnUse" gradientTransform="matrix(1.0507 .01953 .01953 1.05678 61.906 41.416)" x1="11.39" y1="453.55" x2="54.51" y2="485.54"/></defs><path style="marker:none" d="M154.444 131.22v10h-10v10h10v10h10v-10h10v-10h-10v-10z" color="#000" fill="url(#f)" fill-rule="evenodd" stroke="#0b1521" stroke-width="2" stroke-linejoin="round" overflow="visible" transform="translate(-127.444 -128.22)"/><g stroke-width="2"><path fill="#fff" stroke="#2e3436" stroke-linecap="round" stroke-linejoin="round" d="M3 47h58v6H3z"/><path d="M59 51H5" fill="none" stroke="#babdb6" stroke-linecap="square"/></g><g stroke-width="10.801" stroke="#3465a4"><path d="M147.075 535.895a48.571 48.571 0 1 1-97.143 0 48.571 48.571 0 1 1 97.143 0z" fill="#3465a4" stroke="#0b1521" transform="matrix(-.14064 -.12044 .12044 -.14064 -18.714 137.181)"/><path d="M136.224 535.866a37.805 37.804 49.467 1 1-75.61-.002 37.805 37.804 49.467 0 1 75.61.002z" fill="url(#g)" stroke="#729fcf" transform="matrix(-.14064 -.12044 .12044 -.14064 -18.714 137.181)"/></g><path d="M19 15h10V5h6v10h10v6H35v10h-6V21H19z" fill="none" stroke="#729fcf" stroke-width="2"/></svg>