<svg xmlns="http://www.w3.org/2000/svg" xmlns:xlink="http://www.w3.org/1999/xlink" width="64" height="64"><defs><linearGradient id="a"><stop offset="0" stop-color="#fff"/><stop offset="1" stop-color="#fff" stop-opacity="0"/></linearGradient><linearGradient id="b"><stop offset="0" stop-color="#c4a000"/><stop offset="1" stop-color="#fce94f"/></linearGradient><linearGradient xlink:href="#b" id="e" gradientUnits="userSpaceOnUse" x1="-18" y1="18" x2="-22" y2="5"/><linearGradient xlink:href="#c" id="f" gradientUnits="userSpaceOnUse" x1="-18" y1="18" x2="-22" y2="5"/><linearGradient id="c"><stop offset="0" stop-color="#c4a000"/><stop offset="1" stop-color="#fce94f"/></linearGradient><linearGradient xlink:href="#d" id="g" gradientUnits="userSpaceOnUse" x1="-18" y1="18" x2="-22" y2="5"/><linearGradient id="d"><stop offset="0" stop-color="#c4a000"/><stop offset="1" stop-color="#fce94f"/></linearGradient></defs><path style="marker:none" d="M13 9v6c20.784.15 36 14.214 36 34 0 .023 1.31-.067 1.31-.046L55 49c0-.142 0 .142 0 0C55 26.693 36.347 9 13 9z" fill="#d3d7cf" fill-rule="evenodd" stroke="#2e3436" stroke-width="2.0000942200000003" overflow="visible"/><path d="M15 11c21 0 38 19 38 35" fill="none" stroke="#fff" stroke-width="2"/><g stroke-width="2"><path d="M34.477 16.689a8.994 8.993.02 1 1 13.663 11.7 8.994 8.993.02 1 1-13.663-11.7z" fill="none" stroke="#2e2900"/><path d="M-24.634 6.894A7 7 0 1 1-14 16a7 7 0 0 1-10.634-9.106z" fill="url(#e)" stroke="#fce94f" transform="translate(60.634 11.106)"/></g><g stroke-width="2"><path d="M45.166 44.153a8.994 8.993.02 1 1 13.662 11.7 8.994 8.993.02 1 1-13.662-11.7z" fill="none" stroke="#2e2900"/><path d="M-24.634 6.894A7 7 0 1 1-14 16a7 7 0 0 1-10.634-9.106z" fill="url(#f)" stroke="#fce94f" transform="translate(71.322 38.57)"/></g><g><g stroke-width="2"><path d="M7.172 6.153a8.994 8.993.02 1 1 13.662 11.7 8.994 8.993.02 1 1-13.662-11.7z" fill="none" stroke="#2e2900"/><path d="M-24.634 6.894A7 7 0 1 1-14 16a7 7 0 0 1-10.634-9.106z" fill="url(#g)" stroke="#fce94f" transform="translate(33.328 .57)"/></g></g></svg>
