<svg xmlns="http://www.w3.org/2000/svg" xmlns:xlink="http://www.w3.org/1999/xlink" width="64" height="64"><defs><linearGradient id="g"><stop offset="0" stop-color="#204a87"/><stop offset="1" stop-color="#729fcf"/></linearGradient><linearGradient id="a"><stop offset="0" stop-color="#fff"/><stop offset="1" stop-color="#fff" stop-opacity="0"/></linearGradient><linearGradient id="b"><stop offset="0" stop-color="#fafafa"/><stop offset="1" stop-color="#bbb"/></linearGradient><linearGradient id="c"><stop offset="0" stop-color="#a3a3a3"/><stop offset="1" stop-color="#4c4c4c"/></linearGradient><linearGradient id="d"><stop offset="0" stop-color="#2e8207"/><stop offset="1" stop-color="#52ff00"/></linearGradient><linearGradient id="e"><stop offset="0" stop-color="#fff"/><stop offset="1" stop-color="#fff" stop-opacity="0"/></linearGradient><linearGradient id="f"><stop offset="0" stop-color="#0619c0"/><stop offset="1" stop-color="#379cfb"/></linearGradient><linearGradient xlink:href="#g" id="h" x1="353.047" y1="175.244" x2="348.047" y2="164.244" gradientUnits="userSpaceOnUse"/></defs><path d="M6 58s6-12 14-12 10 12 20 12 17-13 17-13" fill="none" stroke="#2e3436" stroke-width="8" stroke-linecap="round" stroke-linejoin="round"/><path d="M6 58s6-12 14-12 10 12 20 12 17-13 17-13" fill="none" stroke="#d3d7cf" stroke-width="4" stroke-linecap="round" stroke-linejoin="round"/><path d="M5 58s6.164-13.197 15-13c8.836.197 10.59 12 20 12s16.123-12.557 16.123-12.557" fill="none" stroke="#fff" stroke-width="2" stroke-linecap="round" stroke-linejoin="round"/><path d="M6 25L21 7l20 16L58 6" fill="none" stroke="#2e3436" stroke-width="8" stroke-linecap="round"/><path d="M6 25L21 7l20 16L58 6" fill="none" stroke="#d3d7cf" stroke-width="4" stroke-linecap="round"/><path d="M5.194 24.464L20.896 5.652l20 16L57.304 5.313" fill="none" stroke="#fff" stroke-width="2" stroke-linecap="round"/><path d="M337.047 162.244h30l-15 14z" fill="url(#h)" stroke="#0b1521" stroke-width="2" stroke-linejoin="round" transform="translate(-320.047 -131.244)"/><path d="M22 33h20l-10.05 9.295z" fill="none" stroke="#729fcf" stroke-width="2"/></svg>