<svg xmlns="http://www.w3.org/2000/svg" xmlns:xlink="http://www.w3.org/1999/xlink" width="64" height="64"><defs><linearGradient id="f"><stop offset="0" stop-color="#888a85"/><stop offset="1" stop-color="#2e3436"/></linearGradient><linearGradient id="a"><stop offset="0" stop-color="#c4a000"/><stop offset="1" stop-color="#fce94f"/></linearGradient><linearGradient xlink:href="#a" id="j" gradientUnits="userSpaceOnUse" gradientTransform="matrix(.8331 0 0 .8331 -2.41 2.732)" x1="-18" y1="18" x2="-22" y2="5"/><linearGradient id="b"><stop offset="0" stop-color="#c4a000"/><stop offset="1" stop-color="#fce94f"/></linearGradient><linearGradient id="c"><stop offset="0" stop-color="#c4a000"/><stop offset="1" stop-color="#fce94f"/></linearGradient><linearGradient id="d"><stop offset="0" stop-color="#c4a000"/><stop offset="1" stop-color="#fce94f"/></linearGradient><linearGradient y2="5" x2="-22" y1="18" x1="-18" gradientTransform="matrix(.8331 0 0 .8331 -2.41 2.732)" gradientUnits="userSpaceOnUse" id="k" xlink:href="#d"/><linearGradient id="e"><stop offset="0" stop-color="#c4a000"/><stop offset="1" stop-color="#fce94f"/></linearGradient><linearGradient y2="5" x2="-22" y1="18" x1="-18" gradientTransform="matrix(.8331 0 0 .8331 -2.41 2.732)" gradientUnits="userSpaceOnUse" id="l" xlink:href="#e"/><linearGradient xlink:href="#f" id="m" x1="458.214" y1="34.614" x2="459.694" y2="30.175" gradientUnits="userSpaceOnUse"/><linearGradient id="g"><stop offset="0" stop-color="#888a85"/><stop offset="1" stop-color="#2e3436"/></linearGradient><linearGradient id="h"><stop offset="0" stop-color="#888a85"/><stop offset="1" stop-color="#2e3436"/></linearGradient><linearGradient xlink:href="#h" id="n" x1="230.032" y1="675.04" x2="155.019" y2="643.283" gradientUnits="userSpaceOnUse"/><linearGradient id="i"><stop offset="0" stop-color="#888a85"/><stop offset="1" stop-color="#2e3436"/></linearGradient><linearGradient y2="643.283" x2="155.019" y1="675.04" x1="230.032" gradientUnits="userSpaceOnUse" id="o" xlink:href="#i"/></defs><g font-size="22.515" font-weight="700" fill="#fff" stroke="#2e3436" stroke-width="2.113" font-family="Arial Black"><path d="M512.207 16.907h3.541v-9.46h-2.36V5.553l2.36-1.892h4.721v13.245h2.361v3.784h-9.443v-3.784M526.371 16.907h5.902v3.784h-4.722v-3.784M544.565 12.15c0-2.053-.194-3.497-.583-4.333-.381-.842-1.026-1.264-1.935-1.264s-1.557.422-1.946 1.264c-.388.836-.582 2.28-.582 4.332 0 2.074.194 3.536.582 4.387.389.85 1.037 1.275 1.946 1.275.902 0 1.547-.425 1.935-1.275.389-.85.583-2.313.583-4.387m4.232.033c0 2.72-.586 4.819-1.759 6.3-1.172 1.473-2.836 2.21-4.99 2.21-2.163 0-3.83-.737-5.003-2.21-1.173-1.481-1.759-3.58-1.759-6.3 0-2.726.586-4.826 1.76-6.3 1.172-1.48 2.84-2.22 5.001-2.22 2.155 0 3.819.74 4.991 2.22 1.173 1.474 1.76 3.574 1.76 6.3M562.798 12.15c0-2.053-.195-3.497-.583-4.333-.381-.842-1.026-1.264-1.935-1.264s-1.557.422-1.946 1.264c-.388.836-.583 2.28-.583 4.332 0 2.074.195 3.536.583 4.387.389.85 1.037 1.275 1.946 1.275.901 0 1.546-.425 1.935-1.275.388-.85.583-2.313.583-4.387m4.232.033c0 2.72-.586 4.819-1.759 6.3-1.172 1.473-2.836 2.21-4.991 2.21-2.162 0-3.83-.737-5.002-2.21-1.173-1.481-1.76-3.58-1.76-6.3 0-2.726.587-4.826 1.76-6.3 1.172-1.48 2.84-2.22 5.002-2.22 2.155 0 3.819.74 4.991 2.22 1.173 1.474 1.76 3.574 1.76 6.3" style="-inkscape-font-specification:'Arial Black, Bold'" transform="matrix(.84722 0 0 1.057 -423.95 -.87)"/></g><path fill="#fff" stroke="#2e3436" stroke-width="1.99955303" d="M7 33h4v22H7zM53 33h4v22h-4zM8 29h48v4H8z"/><g stroke-width="3.049"><path d="M4.426 51.101a6.01 6.009.02 1 1 9.128 7.818A6.01 6.009.02 1 1 4.426 51.1z" fill="#fce94f" stroke="#2e2900" stroke-width="1.99999155"/><path d="M-22.933 8.475a5.832 5.832 0 1 1 8.859 7.586 5.832 5.832 0 0 1-8.859-7.586z" fill="url(#j)" stroke="#fce94f" transform="matrix(.65595 0 0 .65595 21.126 46.964)"/></g><g stroke-width="3.045"><path d="M50.43 51.086a6.018 6.017.02 1 1 9.14 7.828 6.018 6.017.02 1 1-9.14-7.828z" fill="#fce94f" stroke="#2e2900" stroke-width="2.00023005"/><path d="M-22.933 8.475a5.832 5.832 0 1 1 8.859 7.586 5.832 5.832 0 0 1-8.859-7.586z" fill="url(#k)" stroke="#fce94f" transform="matrix(.65689 0 0 .65689 67.153 46.943)"/></g><g stroke-width="3.049"><path d="M27.424 27.08a6.01 6.009.02 1 1 9.129 7.817 6.01 6.009.02 1 1-9.129-7.817z" fill="#fce94f" stroke="#2e2900" stroke-width="1.99999155"/><path d="M-22.933 8.475a5.832 5.832 0 1 1 8.859 7.586 5.832 5.832 0 0 1-8.859-7.586z" fill="url(#l)" stroke="#fce94f" transform="matrix(.65595 0 0 .65595 44.125 22.943)"/></g><g transform="matrix(.67578 0 0 .67578 -308.654 7.609)" fill="url(#m)" stroke="#000" stroke-width="24.286"><path transform="rotate(-139.511 238.697 -25.02) scale(.12186)" d="M245.714 655.22c0 26.825-21.746 48.57-48.571 48.57s-48.572-21.745-48.572-48.57c0-26.826 21.747-48.572 48.572-48.572 26.825 0 48.571 21.746 48.571 48.571z" fill="url(#n)"/><path transform="rotate(-139.511 272.731 -37.573) scale(.12186)" d="M245.714 655.22c0 26.825-21.746 48.57-48.571 48.57s-48.572-21.745-48.572-48.57c0-26.826 21.747-48.572 48.572-48.572 26.825 0 48.571 21.746 48.571 48.571z" fill="url(#o)"/></g></svg>