<svg xmlns="http://www.w3.org/2000/svg" xmlns:xlink="http://www.w3.org/1999/xlink" width="64" height="64"><defs><linearGradient id="b"><stop offset="0"/><stop offset="1" stop-opacity="0"/></linearGradient><linearGradient id="a"><stop offset="0" stop-color="#0019a3"/><stop offset="1" stop-color="#0069ff"/></linearGradient><linearGradient id="c"><stop offset="0" stop-color="#729fcf"/><stop offset="1" stop-color="#204a87"/></linearGradient><linearGradient gradientTransform="matrix(0 -4.76854 5.11489 0 860.203 1428.554)" y2="33.576" x2="30.199" y1="30.717" x1="53.195" gradientUnits="userSpaceOnUse" id="f" xlink:href="#c"/><linearGradient id="d"><stop offset="0" stop-color="#729fcf"/><stop offset="1" stop-color="#204a87"/></linearGradient><linearGradient id="e"><stop offset="0" stop-color="#729fcf"/><stop offset="1" stop-color="#204a87"/></linearGradient><linearGradient y2="29.288" x2="50.129" y1="35.005" x1="27.132" gradientTransform="matrix(0 4.76854 -5.11489 0 1357.2 1038.198)" gradientUnits="userSpaceOnUse" id="g" xlink:href="#e"/></defs><path d="M5 47l21-14 22 12-22 14z" fill="none" stroke="#a40000" stroke-width="6.00015656" stroke-linecap="round" stroke-linejoin="round"/><path d="M102 18c0 5.523-7.611 10-17 10s-17-4.477-17-10S75.611 8 85 8s17 4.477 17 10z" transform="matrix(.88235 0 0 .9 -31 29.8)" fill="none" stroke="#a40000" stroke-width="6.733" stroke-linecap="round" stroke-linejoin="round"/><path d="M102 18c0 5.523-7.611 10-17 10s-17-4.477-17-10S75.611 8 85 8s17 4.477 17 10z" transform="matrix(.88235 0 0 .9 -31 29.8)" fill="none" stroke="#ef2929" stroke-width="2.244" stroke-linecap="round" stroke-linejoin="round"/><path d="M5 47l21-14 22 12-22 14z" fill="none" stroke="#ef2929" stroke-width="2.00000659" stroke-linecap="round" stroke-linejoin="round"/><path d="M5 19L26 5l22 12-22 14z" fill="none" stroke="#204a87" stroke-width="6.00015656" stroke-linecap="round" stroke-linejoin="round"/><path d="M102 18c0 5.523-7.611 10-17 10s-17-4.477-17-10S75.611 8 85 8s17 4.477 17 10z" transform="matrix(.88235 0 0 .9 -31 1.8)" fill="none" stroke="#204a87" stroke-width="6.733" stroke-linecap="round" stroke-linejoin="round"/><path d="M102 18c0 5.523-7.611 10-17 10s-17-4.477-17-10S75.611 8 85 8s17 4.477 17 10z" transform="matrix(.88235 0 0 .9 -31 1.8)" fill="none" stroke="#729fcf" stroke-width="2.244" stroke-linecap="round" stroke-linejoin="round"/><path d="M5 19L26 5l22 12-22 14z" fill="none" stroke="#729fcf" stroke-width="2.00000659" stroke-linecap="round" stroke-linejoin="round"/><path d="M936.9 1226.065h51.175v87.728h73.107v-87.728h51.175l-87.728-87.728z" fill="url(#f)" fill-rule="evenodd" stroke="#0b1521" stroke-width="14.621" stroke-linejoin="round" transform="matrix(.13679 0 0 .13679 -119.155 -134.87)"/><path d="M13.964 30.807L18 30.84v12h6v-12h4.129L21 23.68z" fill="none" stroke="#729fcf" stroke-width="2.00000659"/><path d="M1280.502 1240.686h-51.174v-87.728h-73.107v87.728h-51.175l87.728 87.729z" fill="url(#g)" fill-rule="evenodd" stroke="#0b1521" stroke-width="14.621" stroke-linejoin="round" transform="matrix(.13679 0 0 .13679 -119.155 -134.87)"/><path d="M51.036 36.871L47 36.84v-12h-6v12h-4.129L44 44z" fill="none" stroke="#729fcf" stroke-width="2.00000659"/></svg>