<svg xmlns="http://www.w3.org/2000/svg" xmlns:xlink="http://www.w3.org/1999/xlink" width="64" height="64"><defs><linearGradient id="a"><stop offset="0" stop-color="#fce94f"/><stop offset="1" stop-color="#c4a000"/></linearGradient><linearGradient xlink:href="#a" id="b" x1="4115.423" y1="1473.526" x2="4157.868" y2="1734.258" gradientUnits="userSpaceOnUse"/></defs><g font-size="40" font-weight="700" stroke-width="12.127" stroke-linecap="round" stroke-linejoin="round" font-family="Copperplate Gothic Bold"><path d="M4151.804 1655.432H4042.66l-33.475 40.747c-3.515 5.209-2.385 4.766-2.906 7.761 0 6.064 3.924 9.914 12.127 12.127v12.127h-97.016v-12.127c5.468-1.042 14.935-3.46 18.19-6.064 3.255-2.604 6.064-6.063 12.127-12.127l139.462-200.096c4.427-6.51 5.282-8.22 6.063-12.127 1.302-5.99.968-9.523-6.063-12.127v-12.127h97.016v12.127c-12.127 0-17.15.595-18.19 6.063-.782 3.777-.654 6.304.91 11.121l60.35 205.47c2.604 8.723 2.834 10.568 5.438 13.823 2.604 3.126 6.919 5.022 12.127 6.064v12.127h-97.016v-12.127c8.984-1.432 10.825-5.486 12.127-12.127.52-2.734 1.562-6.788 0-12.127l-12.127-36.381m0-36.381l-24.254-97.017-72.763 97.016h97.017" style="-inkscape-font-specification:'Copperplate Gothic Bold, Bold'" fill="url(#b)" stroke="#302b00" transform="translate(-643.717 -232.014) scale(.16492)"/><path d="M42.277 39H22.148l-5.964 7.216c-1.48 1.914-1.084 2.915-1.253 3.125 0 .932 1.519 1.41 2.747 1.75l.204-.023L5 51l-.614.477c.819-.16 3.85-.895 4.336-1.295.487-.4 1.226-1.387 2.02-2.546L30.066 19.91c.663-1 2.61-3.695 3.135-4.704.559-.92 1.509-3.714.456-4.114L31.976 11h14.04l-2.158-.114c-1.815 0-1.771.865-1.904 1.523-.117.58.107 1.287.34 2.027l9.168 31.19c.39 1.34.402 1.601.632 2.465.594 1.64.217 2.044.997 2.204L56 51H42l2.068-1.023c.822-1.47.852-1.07 1.046-2.09.078-.42-.425-2.09-.659-2.91l-2.133-5.84m.736-3.037l-5.502-20.214-14.812 20.191 20.125.004" style="-inkscape-font-specification:'Copperplate Gothic Bold, Bold'" fill="none" stroke="#fce94f" stroke-width="1.9999848400000002"/><path d="M41 41H23l-5.52 6.72c-.58.86-.394.786-.48 1.28 0 1 .647 1.635 2 2v2H3v-2c.902-.172 2.463-.57 3-1 .537-.43 1-1 2-2l23-33c.73-1.074.871-1.356 1-2 .215-.988.16-1.57-1-2V9h16v2c-2 0-2.828.098-3 1-.129.623-.108 1.04.15 1.834l9.953 33.886c.43 1.439.467 1.743.897 2.28.43.515 1.141.828 2 1v2H41v-2c1.482-.236 1.785-.905 2-2 .086-.451.258-1.12 0-2l-2-6m0-6l-4-16-12 16h16" style="-inkscape-font-specification:'Copperplate Gothic Bold, Bold'" fill="none" stroke="#302b00" stroke-width="1.9999848400000002"/></g></svg>