<svg xmlns="http://www.w3.org/2000/svg" xmlns:xlink="http://www.w3.org/1999/xlink" width="64" height="64"><defs><linearGradient id="e"><stop offset="0" stop-color="#34e0e2"/><stop offset="1" stop-color="#34e0e2" stop-opacity="0"/></linearGradient><linearGradient id="d"><stop offset="0" stop-color="#06989a"/><stop offset="1" stop-color="#06989a" stop-opacity="0"/></linearGradient><linearGradient id="a"><stop offset="0" stop-color="#62d9c5"/><stop offset="1" stop-color="#fff"/></linearGradient><linearGradient id="b"><stop offset="0" stop-color="#dd4100"/><stop offset="1" stop-color="#a80101"/></linearGradient><linearGradient id="c"><stop offset="0" stop-color="#62d9c5"/><stop offset="1" stop-color="#fff"/></linearGradient><linearGradient xlink:href="#d" id="g" x1="17" y1="37" x2="15" y2="32" gradientUnits="userSpaceOnUse"/><linearGradient xlink:href="#e" id="f" x1="40" y1="21" x2="47" y2="38" gradientUnits="userSpaceOnUse"/></defs><g stroke-width="2"><path d="M59.662 17.124C54.202 10.619 19 23 19 23l20 22s27.921-19.227 20.662-27.876z" fill="#06989a" stroke="#042a2a" stroke-linejoin="round"/><path d="M58 18c-3.566-4.246-35.413 5.948-35.413 5.948l16.7 18.387S63.532 24.587 58 18z" fill="url(#f)" stroke="#34e0e2"/><path style="marker:none" color="#000" fill="#16d0d2" stroke="#042a2a" stroke-linejoin="round" overflow="visible" d="M30 25h3v8h-3z"/><path d="M33 25c-3-1-20 4-24 6s-6 5-6 8 4 4 10 2 20-11 20-16z" fill="#34e0e2" stroke="#042a2a" stroke-linejoin="round"/><path d="M29.986 26.883c-4.89.055-16.075 4.17-19.314 5.537-3.239 1.368-5.72 4.182-5.72 6.234 0 2.052 3.252 1.924 7.89.285 4.637-1.638 15.312-8.882 17.144-12.056z" fill="url(#g)" stroke="#34e0e2"/></g></svg>