<svg xmlns="http://www.w3.org/2000/svg" xmlns:xlink="http://www.w3.org/1999/xlink" width="64" height="64"><defs><linearGradient id="c"><stop offset="0" stop-color="#204a87"/><stop offset="1" stop-color="#729fcf"/></linearGradient><linearGradient id="b"><stop offset="0"/><stop offset="1" stop-opacity="0"/></linearGradient><linearGradient id="a"><stop offset="0" stop-color="#0019a3"/><stop offset="1" stop-color="#0069ff"/></linearGradient><linearGradient xlink:href="#c" id="h" x1="939.988" y1="1097.512" x2="893.257" y2="989.777" gradientUnits="userSpaceOnUse"/><linearGradient id="d"><stop offset="0" stop-color="#204a87"/><stop offset="1" stop-color="#729fcf"/></linearGradient><linearGradient xlink:href="#e" id="i" x1="939.988" y1="1097.512" x2="893.257" y2="989.777" gradientUnits="userSpaceOnUse"/><linearGradient id="e"><stop offset="0" stop-color="#204a87"/><stop offset="1" stop-color="#729fcf"/></linearGradient><linearGradient y2="989.777" x2="893.257" y1="1097.512" x1="939.988" gradientUnits="userSpaceOnUse" id="j" xlink:href="#e"/><linearGradient id="f"><stop offset="0" stop-color="#204a87"/><stop offset="1" stop-color="#729fcf"/></linearGradient><linearGradient xlink:href="#g" id="k" x1="939.988" y1="1097.512" x2="893.257" y2="989.777" gradientUnits="userSpaceOnUse"/><linearGradient id="g"><stop offset="0" stop-color="#204a87"/><stop offset="1" stop-color="#729fcf"/></linearGradient><linearGradient y2="989.777" x2="893.257" y1="1097.512" x1="939.988" gradientUnits="userSpaceOnUse" id="l" xlink:href="#g"/></defs><path stroke-linecap="round" stroke-linejoin="round" d="M887.416 983.792h58.413v119.706h-58.413z" transform="matrix(.23967 0 0 .2005 -207.689 -192.242)" fill="#3465a4" stroke="#0b1521" stroke-width="9.124"/><path d="M887.416 983.792h58.413v119.706h-58.413z" transform="matrix(.1712 0 0 .16708 -144.92 -157.369)" fill="url(#h)" stroke="#729fcf" stroke-width="11.826" stroke-linecap="square"/><path stroke-linecap="round" stroke-linejoin="round" d="M887.416 983.792h58.413v119.706h-58.413z" transform="matrix(.23967 0 0 .2005 -187.689 -162.242)" fill="#3465a4" stroke="#0b1521" stroke-width="9.124"/><path fill="url(#j)" d="M887.416 983.792h58.413v119.706h-58.413z" transform="matrix(.1712 0 0 .16708 -124.92 -127.369)" stroke="#729fcf" stroke-width="11.826" stroke-linecap="square"/><g><path stroke-linecap="round" stroke-linejoin="round" d="M887.416 983.792h58.413v119.706h-58.413z" transform="matrix(.23967 0 0 .2005 -167.689 -192.242)" fill="#3465a4" stroke="#0b1521" stroke-width="9.124"/><path fill="url(#l)" d="M887.416 983.792h58.413v119.706h-58.413z" transform="matrix(.1712 0 0 .16708 -104.92 -157.369)" stroke="#729fcf" stroke-width="11.826" stroke-linecap="square"/></g></svg>