<svg xmlns="http://www.w3.org/2000/svg" xmlns:xlink="http://www.w3.org/1999/xlink" width="64" height="64"><defs><linearGradient id="c"><stop offset="0" stop-color="#3465a4"/><stop offset="1" stop-color="#729fcf"/></linearGradient><linearGradient id="b"><stop offset="0" stop-color="#729fcf"/><stop offset="1" stop-color="#204a87"/></linearGradient><linearGradient id="a"><stop offset="0" stop-color="#729fcf"/><stop offset="1" stop-color="#204a87"/></linearGradient><linearGradient xlink:href="#b" id="e" x1="591.591" y1="103.195" x2="599.127" y2="128.195" gradientUnits="userSpaceOnUse" gradientTransform="matrix(1.14001 0 0 2.33118 -82.18 -167.499)"/><linearGradient xlink:href="#c" id="d" x1="48" y1="88" x2="52" y2="6" gradientUnits="userSpaceOnUse" gradientTransform="matrix(.95385 0 0 1.02801 576.74 67.975)"/></defs><g stroke-linejoin="round"><path style="text-indent:0;text-align:start;line-height:normal;text-transform:none;block-progression:tb;marker:none" d="M609.868 74.195l-5.088 1.851 3.456 7.284 4.53-3.03zm4.242 8.943l-4.53 3.028 2.663 5.611 4.53-3.028zm4.008 8.446l-4.53 3.03 2.778 5.855 4.53-3.028zm4.122 8.692l-4.53 3.03 2.767 5.833 4.53-3.028zm4.114 8.67l-4.532 3.028 2.844 5.448 4.43-2.593-4.463 2.55 4.5-2.572zm4.123 8.696l-4.53 3.03.768 2.6-2.117.856v6.067h7.314c2.897 0 3.863-2.318 2.606-4.968zm-23.214 6.486l.343 6.067h4.71v-6.067zm8.821.067v6h5.653v-6z" font-weight="400" color="#000" fill="url(#d)" stroke="#204a87" stroke-width="1.941" overflow="visible" font-family="sans-serif" transform="matrix(1.0615 0 0 1 -612.97 -69.195)"/><path d="M617.027 126.195h3.768M607.608 126.191h3.809" fill="none" stroke="#729fcf" stroke-width="1.941" transform="matrix(1.0615 0 0 1 -612.97 -69.195)"/><path d="M583.112 75.195v52h24.494v-52z" fill="none" stroke="#0b1521" stroke-width="7.765" stroke-linecap="round" transform="matrix(1.0615 0 0 1 -612.97 -69.195)"/><path d="M583.112 75.195v52h24.494v-52z" fill="none" stroke="url(#e)" stroke-width="3.882" stroke-linecap="round" transform="matrix(1.0615 0 0 1 -612.97 -69.195)"/><path d="M585.938 126.195h20.726v-48m.942-4H582.17v53" fill="none" stroke="#729fcf" stroke-width="1.941" stroke-linecap="round" transform="matrix(1.0615 0 0 1 -612.97 -69.195)"/><path d="M625.105 110.992l2.054 3.81M621.007 102.235l2.104 3.916M616.9 93.53l2.054 4.022M612.814 85.23l1.922 3.728M625.686 125.53s1.918-.4 2.47-.866c.275-.233.823-.845.701-1.828-.121-.983-.866-2.386-.866-2.386" fill="none" stroke="#729fcf" stroke-width="1.941" transform="matrix(1.0615 0 0 1 -612.97 -69.195)"/></g></svg>