<svg xmlns="http://www.w3.org/2000/svg" xmlns:xlink="http://www.w3.org/1999/xlink" width="64" height="64"><defs><linearGradient id="a"><stop offset="0" stop-color="#fff"/><stop offset="1" stop-color="#fff" stop-opacity="0"/></linearGradient><linearGradient id="b"><stop offset="0" stop-color="#fafafa"/><stop offset="1" stop-color="#bbb"/></linearGradient><linearGradient id="c"><stop offset="0" stop-color="#a3a3a3"/><stop offset="1" stop-color="#4c4c4c"/></linearGradient><linearGradient id="d"><stop offset="0" stop-color="#2e8207"/><stop offset="1" stop-color="#52ff00"/></linearGradient><linearGradient id="e"><stop offset="0" stop-color="#729fcf"/><stop offset="1" stop-color="#204a87"/></linearGradient><linearGradient gradientTransform="matrix(-4.10195 3.5128 -3.51297 -4.10213 429.59 607.189)" xlink:href="#e" id="f" x1="30" y1="6" x2="34" y2="57" gradientUnits="userSpaceOnUse"/><linearGradient gradientTransform="matrix(-4.10195 3.5128 -3.51297 -4.10213 380.373 649.407)" xlink:href="#e" id="g" x1="30" y1="6" x2="34" y2="57" gradientUnits="userSpaceOnUse"/></defs><g stroke-width="2"><path fill="#fff" stroke="#2e3436" stroke-linecap="round" stroke-linejoin="round" d="M3 29.015h58v6H3z"/><path d="M59 33.015H5" fill="none" stroke="#babdb6" stroke-linecap="square"/></g><g fill="none" stroke-linecap="round" stroke="#3465a4" stroke-width=".81"><path d="M101.602 489.879L270.224 686.78" stroke="#0b1521" stroke-width="43.205" transform="matrix(-.14064 -.12044 .12044 -.14064 -18.714 137.181)"/><path d="M101.602 489.879L270.224 686.78" stroke="url(#f)" stroke-width="21.603" transform="matrix(-.14064 -.12044 .12044 -.14064 -18.714 137.181)"/><path d="M105.704 486.366l168.622 196.902" stroke="#729fcf" stroke-width="10.801" transform="matrix(-.14064 -.12044 .12044 -.14064 -18.714 137.181)"/><path d="M52.385 532.097L221.007 729" stroke="#0b1521" stroke-width="43.205" transform="matrix(-.14064 -.12044 .12044 -.14064 -18.714 137.181)"/><path d="M52.385 532.097L221.007 729" stroke="url(#g)" stroke-width="21.603" transform="matrix(-.14064 -.12044 .12044 -.14064 -18.714 137.181)"/><path d="M56.486 528.585L225.11 725.487" stroke="#729fcf" stroke-width="10.801" transform="matrix(-.14064 -.12044 .12044 -.14064 -18.714 137.181)"/></g></svg>