<svg xmlns="http://www.w3.org/2000/svg" xmlns:xlink="http://www.w3.org/1999/xlink" width="64" height="64"><defs><linearGradient id="b"><stop offset="0" stop-color="#c4a000"/><stop offset="1" stop-color="#fce94f"/></linearGradient><linearGradient id="a"><stop offset="0" stop-color="#c4a000"/><stop offset="1" stop-color="#fce94f"/></linearGradient><linearGradient xlink:href="#b" id="c" x1="43.087" y1="57.876" x2="31.328" y2="11.34" gradientUnits="userSpaceOnUse"/></defs><g style="text-align:start;line-height:125%;marker:none;-inkscape-font-specification:'Times New Roman, Italic'" fill="#fce94f" stroke="#302b00" stroke-width="1.805"><path d="M-32.303 38.622l4.379-19.665h1.33c-.183 1.903-.275 3.48-.275 4.73 0 3.571 1.14 6.478 3.421 8.719 2.28 2.241 5.259 3.362 8.934 3.362 3.414 0 6.007-1.049 7.78-3.147 1.772-2.098 2.658-4.515 2.658-7.252 0-1.772-.404-3.388-1.212-4.848-1.225-2.163-4.496-5.968-9.813-11.416-2.58-2.606-4.235-4.548-4.965-5.825-1.199-2.111-1.798-4.326-1.798-6.646 0-3.701 1.381-6.868 4.144-9.5 2.762-2.633 6.307-3.949 10.634-3.949 1.46 0 2.84.143 4.144.43.808.157 2.28.678 4.418 1.564 1.511.6 2.345.925 2.502.977.364.079.768.118 1.212.118.755 0 1.407-.196 1.954-.587.548-.39 1.186-1.225 1.916-2.502h1.486L6.48.778H5.15c.105-1.564.157-2.828.157-3.792 0-3.154-1.043-5.734-3.128-7.741-2.085-2.007-4.835-3.01-8.249-3.01-2.71 0-4.913.794-6.607 2.384-1.694 1.59-2.541 3.428-2.541 5.513 0 1.824.54 3.564 1.622 5.219 1.082 1.655 3.571 4.353 7.467 8.093 3.897 3.74 6.419 6.659 7.565 8.757a13.77 13.77 0 0 1 1.72 6.705c0 2.684-.71 5.284-2.13 7.8-1.42 2.514-3.46 4.463-6.119 5.844-2.658 1.381-5.564 2.072-8.718 2.072-1.564 0-3.023-.143-4.378-.43-1.356-.287-3.519-.99-6.49-2.111-1.017-.391-1.864-.586-2.541-.586-1.538 0-2.737 1.042-3.597 3.127z" style="marker:none" transform="matrix(1.26026 0 0 .97408 45.71 21.38)" font-size="80.067" font-style="italic" font-weight="400" letter-spacing="0" word-spacing="0" color="#000" overflow="visible" font-family="Times New Roman"/></g><text style="line-height:125%" x="15.685" y="19.774" font-size="40" font-weight="400" letter-spacing="0" word-spacing="0" fill="#edd400" stroke="#302b00" font-family="Sans" stroke-width="2"/><path style="text-align:start;line-height:125%;marker:none;-inkscape-font-specification:'Times New Roman, Italic'" d="M29.352 8.135c-6.563 1.41-12.047 9.524-7.125 15.344 6.102 7.122 16.73 11.103 20.25 20.375 1.126 4.464-1.197 9.158-4.844 11.718 7.16-1.697 13.38-10.628 8.406-17.25-5.881-7.936-17.468-10.974-21.125-20.625-1.114-3.968 1.53-7.906 4.907-9.718zm26.07 1.311c-1.455 1.571-6.613-.695-3.34 1.766 1.949 2.86 1.686 5.783 2.487.447.28-.771 1.352-2.275.852-2.213zM8.476 54.729c1.684-1.547 6.58.097 5.937-.688-1.897-1.616-3.316-3.756-3.968-6.156l-1.97 6.844z" font-size="80.067" font-style="italic" font-weight="400" letter-spacing="0" word-spacing="0" color="#000" fill="url(#c)" stroke="#fce94f" stroke-width="2" overflow="visible" font-family="Times New Roman"/></svg>