<svg xmlns="http://www.w3.org/2000/svg" xmlns:xlink="http://www.w3.org/1999/xlink" width="64" height="64"><defs><linearGradient id="c"><stop offset="0" stop-color="#3465a4"/><stop offset="1" stop-color="#729fcf"/></linearGradient><linearGradient id="b"><stop offset="0" stop-color="#729fcf"/><stop offset="1" stop-color="#204a87"/></linearGradient><linearGradient id="a"><stop offset="0" stop-color="#729fcf"/><stop offset="1" stop-color="#204a87"/></linearGradient><linearGradient y2="43.94" x2="32.329" y1="18.866" x1="44.058" gradientTransform="rotate(-45 36.28 -2.22) scale(.54258 .59221)" gradientUnits="userSpaceOnUse" id="f" xlink:href="#a"/><linearGradient xlink:href="#b" id="e" x1="591.591" y1="103.195" x2="599.127" y2="128.195" gradientUnits="userSpaceOnUse" gradientTransform="translate(-.942 1)"/><linearGradient xlink:href="#c" id="d" x1="613.258" y1="135.195" x2="595.359" y2="68.195" gradientUnits="userSpaceOnUse"/></defs><path d="M580.286 72.195v14h5.652v-8h1.884v-6zm11.305 0v6h7.536v-6zm11.304 0v6h7.537v-6zm11.305 0v6h7.537v-6zm11.305 0v6h3.768v4h5.653v-10zm3.768 14v8h5.653v-8zm-48.987 4v8h5.652v-8zm48.987 8v8h5.653v-8zm0 12v8h5.653v-8zm0 12v2h-3.768v6h9.42v-8zm-18.84 2v6h11.304v-6z" style="marker:none" fill="url(#d)" stroke="#204a87" stroke-width="1.941" stroke-linejoin="round" overflow="visible" transform="matrix(1.0615 0 0 1 -612.97 -69.195)"/><path d="M583.112 105.195v22h20.726v-22z" fill="none" stroke="#0b1521" stroke-width="7.765" stroke-linecap="round" stroke-linejoin="round" transform="matrix(1.0615 0 0 1 -612.97 -69.195)"/><path d="M583.112 105.195v22h20.726v-22z" fill="none" stroke="url(#e)" stroke-width="3.882" stroke-linecap="round" stroke-linejoin="round" transform="matrix(1.0615 0 0 1 -612.97 -69.195)"/><path d="M586.88 126.195h16.015v-17m1.885-5h-22.61v24" fill="none" stroke="#729fcf" stroke-width="1.941" stroke-linecap="round" stroke-linejoin="round" transform="matrix(1.0615 0 0 1 -612.97 -69.195)"/><path d="M36 57h10" fill="none" stroke="#729fcf" stroke-width="2"/><path d="M52 57h5v-2h3" fill="none" stroke="#729fcf" stroke-width="2" stroke-linejoin="round"/><path d="M57 48v-6M57 36v-6M57 24v-6M53 8V5h7M46 5h-6M34 5h-6M22 5h-6M10 5H5v11M5 22v6M57 12V9" fill="none" stroke="#729fcf" stroke-width="2"/><path d="M35 15l4.063 4.378L31 27l6 6 7.72-7.965 4.242 4.243L49 15z" fill="url(#f)" fill-rule="evenodd" stroke="#0b1521" stroke-width="2" stroke-linejoin="round"/><path d="M39.55 17l2.325 2.378-7.987 7.654 3.08 3.113 7.752-7.938 2.221 2.24L47 17z" fill="none" stroke="#729fcf" stroke-width="2"/></svg>