<svg xmlns="http://www.w3.org/2000/svg" xmlns:xlink="http://www.w3.org/1999/xlink" width="64" height="64"><defs><linearGradient id="a"><stop offset="0" stop-color="#fff"/><stop offset="1" stop-color="#fff" stop-opacity="0"/></linearGradient><linearGradient id="b"><stop offset="0" stop-color="#fff"/><stop offset="1" stop-color="#fff" stop-opacity="0"/></linearGradient><linearGradient id="c"><stop offset="0" stop-color="#fff"/><stop offset="1" stop-color="#fff" stop-opacity="0"/></linearGradient><linearGradient id="d"><stop offset="0" stop-color="#fff"/><stop offset="1" stop-color="#fff" stop-opacity="0"/></linearGradient><linearGradient id="e"><stop offset="0" stop-color="#fff"/><stop offset="1" stop-color="#fff" stop-opacity="0"/></linearGradient><linearGradient xlink:href="#f" id="h" gradientUnits="userSpaceOnUse" x1="-18" y1="18" x2="-22" y2="5"/><linearGradient id="f"><stop offset="0" stop-color="#c4a000"/><stop offset="1" stop-color="#fce94f"/></linearGradient><linearGradient xlink:href="#g" id="i" gradientUnits="userSpaceOnUse" x1="-18" y1="18" x2="-22" y2="5"/><linearGradient id="g"><stop offset="0" stop-color="#c4a000"/><stop offset="1" stop-color="#fce94f"/></linearGradient></defs><path d="M55 50l-2-35M9 50l2-35" fill="none" stroke="#2e3436" stroke-width="6"/><path d="M9 49l2-34" fill="none" stroke="#fff" stroke-width="2"/><path style="marker:none" color="#000" fill="#edd400" stroke="#2e2900" stroke-width="2" overflow="visible" d="M7 5h10v10H7z"/><path d="M55 49l-2-34" fill="none" stroke="#fff" stroke-width="2"/><path d="M9 49h6c0-30 34-30 34 0h6c0-38-46-38-46 0z" style="text-indent:0;text-align:start;line-height:normal;text-transform:none;block-progression:tb;marker:none;-inkscape-font-specification:Bitstream Vera Sans" font-weight="400" color="#000" overflow="visible" font-family="Bitstream Vera Sans" stroke="#2e3436" stroke-width="2" fill="#d3d7cf"/><path style="marker:none" color="#000" fill="#edd400" stroke="#fce94f" stroke-width="2" overflow="visible" d="M9 7h6v6H9z"/><path style="marker:none" color="#000" fill="#edd400" stroke="#2e2900" stroke-width="2" overflow="visible" d="M47 5h10v10H47z"/><path style="marker:none" color="#000" fill="#edd400" stroke="#fce94f" stroke-width="2" overflow="visible" d="M49 7h6v6h-6z"/><path d="M11 49c0-35 42-35 42 0" fill="none" stroke="#fff" stroke-width="2"/><g><g stroke-width="2"><path d="M5.172 46.153a8.994 8.993.02 1 1 13.662 11.7 8.994 8.993.02 1 1-13.662-11.7z" fill="none" stroke="#2e2900"/><path d="M-24.634 6.894A7 7 0 1 1-14 16a7 7 0 0 1-10.634-9.106z" fill="url(#h)" stroke="#fce94f" transform="translate(31.328 40.57)"/></g></g><g><g stroke-width="2"><path d="M45.172 46.153a8.994 8.993.02 1 1 13.662 11.7 8.994 8.993.02 1 1-13.662-11.7z" fill="none" stroke="#2e2900"/><path d="M-24.634 6.894A7 7 0 1 1-14 16a7 7 0 0 1-10.634-9.106z" fill="url(#i)" stroke="#fce94f" transform="translate(71.328 40.57)"/></g></g></svg>