<svg xmlns="http://www.w3.org/2000/svg" xmlns:xlink="http://www.w3.org/1999/xlink" width="64" height="64"><defs><linearGradient id="e"><stop offset="0" stop-color="#06989a"/><stop offset="1" stop-color="#34e0e2"/></linearGradient><linearGradient id="a"><stop offset="0" stop-color="#fff"/><stop offset="1" stop-color="#fff" stop-opacity="0"/></linearGradient><linearGradient id="b"><stop offset="0" stop-color="#0619c0"/><stop offset="1" stop-color="#379cfb"/></linearGradient><linearGradient id="c"><stop offset="0" stop-color="#fa0"/><stop offset="1" stop-color="#faff2b"/></linearGradient><linearGradient id="d"><stop offset="0" stop-color="#0619c0"/><stop offset="1" stop-color="#379cfb"/></linearGradient><linearGradient xlink:href="#e" id="f" x1="34" y1="52" x2="22" y2="10" gradientUnits="userSpaceOnUse"/></defs><g stroke="#042a2a" stroke-width="2" fill="#16d0d2" stroke-linecap="round"><path d="M35 3L9 16v45h4l38.02-20.595L51 3z" fill="url(#f)" stroke-linejoin="round"/><path d="M3 19L35 3" stroke-linejoin="round"/><path d="M35.5 5L11 17.2V59h1.5L49 39.2V5z" fill="none" stroke="#34e0e2"/><path d="M3 43l58-32M13 61l48-26M51 61l10-6M9 3v58M31 3v58" stroke-linejoin="round"/><path transform="matrix(.8783 -.4781 0 1 0 0)" style="marker:none" d="M21.633 35.342l27.325 1.065v20l-27.325-1.065z" color="#000" fill="#fff" fill-rule="evenodd" stroke="#2e3436" stroke-width="2.134" stroke-linejoin="round" overflow="visible"/><path d="M51 3v58" stroke-linejoin="round"/></g></svg>