<svg xmlns="http://www.w3.org/2000/svg" xmlns:xlink="http://www.w3.org/1999/xlink" width="64" height="64"><defs><linearGradient xlink:href="#a" id="c" gradientUnits="userSpaceOnUse" x1="-18" y1="18" x2="-22" y2="5"/><linearGradient id="a"><stop offset="0" stop-color="#c4a000"/><stop offset="1" stop-color="#fce94f"/></linearGradient><linearGradient xlink:href="#b" id="d" gradientUnits="userSpaceOnUse" x1="-18" y1="18" x2="-22" y2="5"/><linearGradient id="b"><stop offset="0" stop-color="#c4a000"/><stop offset="1" stop-color="#fce94f"/></linearGradient></defs><path d="M15.908 53.335l-4.243-4.243L54.092 6.665l4.243 4.243z" fill="#d3d7cf" stroke="#2e3436" stroke-width="2"/><path d="M14.002 49.584L54.584 9.002" fill="none" stroke="#fff" stroke-width="2"/><g stroke-width="2"><path d="M45.172 6.147a8.994 8.993.02 1 1 13.662 11.7 8.994 8.993.02 1 1-13.662-11.7z" fill="none" stroke="#2e2900"/><path d="M-24.634 6.894A7 7 0 1 1-14 16a7 7 0 0 1-10.634-9.106z" fill="url(#c)" stroke="#fce94f" transform="translate(71.328 .565)"/></g><g stroke-width="2"><path d="M5.172 46.147a8.994 8.993.02 1 1 13.662 11.7 8.994 8.993.02 1 1-13.662-11.7z" fill="none" stroke="#2e2900"/><path d="M-24.634 6.894A7 7 0 1 1-14 16a7 7 0 0 1-10.634-9.106z" fill="url(#d)" stroke="#fce94f" transform="translate(31.328 40.565)"/></g></svg>