<svg xmlns="http://www.w3.org/2000/svg" xmlns:xlink="http://www.w3.org/1999/xlink" width="64" height="64"><defs><linearGradient id="c"><stop offset="0" stop-color="#729fcf"/><stop offset="1" stop-color="#204a87"/></linearGradient><linearGradient id="a"><stop offset="0" stop-color="#2157c7"/><stop offset="1" stop-color="#6daaff"/></linearGradient><linearGradient id="b"><stop offset="0" stop-color="#2157c7"/><stop offset="1" stop-color="#6daaff"/></linearGradient><linearGradient xlink:href="#c" id="d" x1="43" y1="22" x2="48" y2="44" gradientUnits="userSpaceOnUse"/></defs><path style="marker:none" fill="#eeeeec" fill-rule="evenodd" stroke="#000" stroke-width="2.081" stroke-linejoin="round" overflow="visible" d="M3 3h28v58H3z"/><path style="marker:none" fill="none" stroke="#172a04" stroke-width="2" stroke-linejoin="round" overflow="visible" d="M7 49h20v8H7z"/><path style="marker:none" fill="#73d216" stroke="#8ae234" stroke-width="2" overflow="visible" d="M9 51h16v4H9z"/><path style="marker:none" fill="none" stroke="#0b1521" stroke-width="2" stroke-linejoin="round" overflow="visible" d="M7 35h20v8H7z"/><path style="marker:none" fill="#3465a4" stroke="#729fcf" stroke-width="2" overflow="visible" d="M9 37h16v4H9z"/><path style="marker:none" fill="none" stroke="#302b00" stroke-width="2" stroke-linejoin="round" overflow="visible" d="M7 21h20v8H7z"/><path style="marker:none" fill="#edd400" stroke="#fce94f" stroke-width="2" overflow="visible" d="M9 23h16v4H9z"/><path style="marker:none" fill="none" stroke="#280000" stroke-width="2" stroke-linejoin="round" overflow="visible" d="M7 7h20v8H7z"/><path style="marker:none" fill="#c00" stroke="#ef2929" stroke-width="2" overflow="visible" d="M9 9h16v4H9z"/><path d="M43 15v10H21v14h22v10l18-17z" fill="url(#d)" fill-rule="evenodd" stroke="#0b1521" stroke-width="2" stroke-linejoin="round"/><path d="M45.007 19.643L45 27H23v10h22l-.007 7.357L58 32z" fill="none" stroke="#729fcf" stroke-width="2"/></svg>