<svg xmlns="http://www.w3.org/2000/svg" width="64" height="64"><defs><linearGradient id="a"><stop offset="0" stop-color="#fff"/><stop offset="1" stop-color="#fff" stop-opacity="0"/></linearGradient><linearGradient id="b"><stop offset="0" stop-color="#fafafa"/><stop offset="1" stop-color="#bbb"/></linearGradient><linearGradient id="c"><stop offset="0" stop-color="#a3a3a3"/><stop offset="1" stop-color="#4c4c4c"/></linearGradient><linearGradient id="d"><stop offset="0" stop-color="#2e8207"/><stop offset="1" stop-color="#52ff00"/></linearGradient></defs><path d="M9 13v32h14" fill="none" stroke="#2e3436" stroke-width="6" stroke-linejoin="round"/><path d="M23 29H9" fill="none" stroke="#2e3436" stroke-width="6"/><path d="M9 13v32h14" fill="none" stroke="#d3d7cf" stroke-width="2" stroke-linejoin="round"/><path d="M23 29H9" fill="none" stroke="#d3d7cf" stroke-width="2"/><rect ry="0" rx="0" y="3" x="3" height="10" width="38" style="marker:none" color="#000" fill="#eeeeec" stroke="#2e3436" stroke-width="2" stroke-linejoin="round" overflow="visible"/><rect ry="0" rx="0" y="25" x="23" height="10" width="28" style="marker:none" color="#000" fill="#3465a4" stroke="#0b1521" stroke-width="2" stroke-linejoin="round" overflow="visible"/><path fill="#3465a4" stroke="#729fcf" stroke-width="2" d="M24.806 27h24.387v6H24.806z"/><path fill="#d3d7cf" stroke="#fff" stroke-width="2" d="M5 5h34v6H5z"/><rect ry="0" rx="0" y="41" x="23" height="10" width="28" style="marker:none" color="#000" fill="#3465a4" stroke="#0b1521" stroke-width="2" stroke-linejoin="round" overflow="visible"/><path fill="#3465a4" stroke="#729fcf" stroke-width="2" d="M24.806 43h24.387v6H24.806z"/><path d="M21 19h4M53 19h4" fill="none" stroke="#204a87" stroke-width="6" stroke-linecap="round"/><path d="M21 19h4M53 19h4" fill="none" stroke="#729fcf" stroke-width="2" stroke-linecap="round"/><path d="M37 19h4" fill="none" stroke="#204a87" stroke-width="6" stroke-linecap="round"/><path d="M37 19h4" fill="none" stroke="#729fcf" stroke-width="2" stroke-linecap="round"/><path d="M19 57h4M51 57h4" fill="none" stroke="#204a87" stroke-width="6" stroke-linecap="round"/><path d="M19 57h4M51 57h4" fill="none" stroke="#729fcf" stroke-width="2" stroke-linecap="round"/><path d="M35 57h4" fill="none" stroke="#204a87" stroke-width="6" stroke-linecap="round"/><path d="M35 57h4" fill="none" stroke="#729fcf" stroke-width="2" stroke-linecap="round"/><path d="M17 27v4" fill="none" stroke="#204a87" stroke-width="6" stroke-linecap="round"/><path d="M17 27v4" fill="none" stroke="#729fcf" stroke-width="2" stroke-linecap="round"/><path d="M17 43v4" fill="none" stroke="#204a87" stroke-width="6" stroke-linecap="round"/><path d="M17 43v4" fill="none" stroke="#729fcf" stroke-width="2" stroke-linecap="round"/><path d="M57 29v4" fill="none" stroke="#204a87" stroke-width="6" stroke-linecap="round"/><path d="M57 29v4" fill="none" stroke="#729fcf" stroke-width="2" stroke-linecap="round"/><path d="M57 45v4" fill="none" stroke="#204a87" stroke-width="6" stroke-linecap="round"/><path d="M57 45v4" fill="none" stroke="#729fcf" stroke-width="2" stroke-linecap="round"/></svg>