<svg xmlns="http://www.w3.org/2000/svg" xmlns:xlink="http://www.w3.org/1999/xlink" width="64" height="64"><defs><linearGradient id="a"><stop offset="0" stop-color="#a40000"/><stop offset="1" stop-color="#ef2929"/></linearGradient><linearGradient xlink:href="#a" id="b" x1="29" y1="47" x2="15" y2="17" gradientUnits="userSpaceOnUse"/></defs><g stroke-width="2" stroke-linecap="round"><path fill="#3465a4" stroke="#0b1521" stroke-linejoin="round" d="M25 27h36v8H25z"/><path style="marker:none" color="#000" fill="#d3d7cf" fill-rule="evenodd" stroke="#2e3436" stroke-linejoin="round" overflow="visible" d="M3 27h22v8H3z"/><path fill="#3465a4" stroke="#729fcf" d="M23 29h36v4H23z"/><path style="marker:none" color="#000" fill="none" stroke="#fff" overflow="visible" d="M5 29h19v4H5z"/><path style="marker:none" d="M15 15l-6 6 10 10L9 41l6 6 10-10 10 10 6-6-10-10 10-10-6-6-10 10z" color="#000" fill="url(#b)" fill-rule="evenodd" stroke="#280000" stroke-linejoin="round" overflow="visible"/><path style="marker:none" d="M15 18l-3 3 10 10-10 10 3 3 10-10 10 10 3-3-10-10 10-10-3-3-10 10z" color="#000" fill="none" stroke="#ef2929" overflow="visible"/></g></svg>