<svg xmlns="http://www.w3.org/2000/svg" xmlns:xlink="http://www.w3.org/1999/xlink" width="64" height="64"><defs><linearGradient id="c"><stop offset="0" stop-color="#d3d7cf"/><stop offset="1" stop-color="#fff"/></linearGradient><linearGradient id="b"><stop offset="0" stop-color="#d3d7cf"/><stop offset="1" stop-color="#fff"/></linearGradient><linearGradient id="a"><stop offset="0" stop-color="#d3d7cf"/><stop offset="1" stop-color="#fff"/></linearGradient><linearGradient xlink:href="#a" id="f" x1="53.257" y1="19.086" x2="25.929" y2="-1.382" gradientUnits="userSpaceOnUse" gradientTransform="translate(-.022 -.918)"/><linearGradient xlink:href="#b" id="e" x1="61.719" y1="27.953" x2="36.844" y2="12.023" gradientUnits="userSpaceOnUse" gradientTransform="translate(.756 .041)"/><linearGradient xlink:href="#c" id="d" x1="74.313" y1="43.42" x2="48.389" y2="23.543" gradientUnits="userSpaceOnUse" gradientTransform="translate(-.189 -1.124)"/></defs><g color="#000"><path style="marker:none" transform="matrix(.92408 .3822 -.75246 .65864 0 0)" fill="url(#d)" fill-rule="evenodd" stroke="#2e3436" stroke-width="2.113" stroke-linejoin="round" overflow="visible" d="M40.36 16.492h39.045v27.017H40.36z"/><path style="marker:none" d="M25.33 28.68l31.843 13.187-16.939 14.786L8.321 43.466z" fill="none" stroke="#fff" stroke-width="2" overflow="visible"/><path style="marker:none" transform="matrix(.92408 .3822 -.75246 .65864 0 0)" fill="url(#e)" fill-rule="evenodd" stroke="#2e3436" stroke-width="2.113" stroke-linejoin="round" overflow="visible" d="M31.989 6.217h39.045v27.017H31.989z"/><path style="marker:none" d="M25.308 18.774L57.152 31.96l-16.94 14.786L8.3 33.56z" fill="none" stroke="#fff" stroke-width="2" overflow="visible"/><path style="marker:none" transform="matrix(.92408 .3822 -.75246 .65864 0 0)" fill="url(#f)" fill-rule="evenodd" stroke="#2e3436" stroke-width="2.113" stroke-linejoin="round" overflow="visible" d="M21.897-6.182h39.045v27.017H21.897z"/><path style="marker:none" d="M25.281 6.656l31.844 13.188-16.94 14.786L8.273 21.443z" fill="none" stroke="#fff" stroke-width="2" overflow="visible"/></g></svg>