<svg xmlns="http://www.w3.org/2000/svg" width="64" height="64"><defs><linearGradient id="a"><stop offset="0" stop-color="#fff"/><stop offset="1" stop-color="#fff" stop-opacity="0"/></linearGradient><linearGradient id="b"><stop offset="0" stop-color="#fafafa"/><stop offset="1" stop-color="#bbb"/></linearGradient><linearGradient id="c"><stop offset="0" stop-color="#a3a3a3"/><stop offset="1" stop-color="#4c4c4c"/></linearGradient><linearGradient id="d"><stop offset="0" stop-color="#2e8207"/><stop offset="1" stop-color="#52ff00"/></linearGradient></defs><g transform="translate(-259.852 -132.783)" fill="none" stroke="#2e3436"><path d="M270.852 145.783v42h12" stroke-width="6" stroke-linejoin="round"/><path d="M282.852 155.783h-12" stroke-width="6"/><path d="M270.852 145.783v42h12" stroke="#d3d7cf" stroke-width="2" stroke-linejoin="round"/><path d="M282.852 155.783h-12" stroke="#d3d7cf" stroke-width="2"/><rect ry="0" rx="0" y="135.783" x="262.852" height="10" width="38" style="marker:none" color="#000" fill="#eeeeec" stroke-width="2" stroke-linejoin="round" overflow="visible"/><rect ry="0" rx="0" y="183.783" x="282.852" height="10" width="38" style="marker:none" color="#000" fill="#eeeeec" stroke-width="2" stroke-linejoin="round" overflow="visible"/><rect ry="0" rx="0" y="151.783" x="282.852" height="10" width="38" style="marker:none" color="#000" fill="#eeeeec" stroke-width="2" stroke-linejoin="round" overflow="visible"/><rect ry="0" rx="0" y="167.783" x="276.852" height="10" width="38" style="marker:none" color="#000" fill="#3465a4" stroke="#0b1521" stroke-width="2" stroke-linejoin="round" overflow="visible"/><path fill="#3465a4" stroke="#729fcf" stroke-width="2" d="M278.852 169.783h34v6h-34z"/><path fill="#d3d7cf" stroke="#fff" stroke-width="2" d="M284.852 153.783h34v6h-34zM264.852 137.783h34v6h-34zM284.852 185.783h34v6h-34z"/></g></svg>