<svg xmlns="http://www.w3.org/2000/svg" xmlns:xlink="http://www.w3.org/1999/xlink" width="64" height="64"><defs><linearGradient xlink:href="#a" id="c" gradientUnits="userSpaceOnUse" x1="-18" y1="18" x2="-22" y2="5"/><linearGradient id="a"><stop offset="0" stop-color="#c4a000"/><stop offset="1" stop-color="#fce94f"/></linearGradient><linearGradient xlink:href="#b" id="d" gradientUnits="userSpaceOnUse" x1="-18" y1="18" x2="-22" y2="5"/><linearGradient id="b"><stop offset="0" stop-color="#c4a000"/><stop offset="1" stop-color="#fce94f"/></linearGradient></defs><path d="M30 34L.785 30.211-4.639 1.255l25.862-14.107L42.631 7.386z" transform="matrix(1.03014 .03861 -.03909 1.01767 10.684 19.6)" fill="none" stroke="#2e3436" stroke-width="7.808" stroke-linecap="round" stroke-linejoin="round"/><path d="M30 34L.785 30.211-4.639 1.255l25.862-14.107L42.631 7.386z" transform="matrix(1.03014 .03861 -.03909 1.01767 10.684 19.6)" fill="none" stroke="#d3d7cf" stroke-width="3.904" stroke-linecap="round" stroke-linejoin="round"/><path d="M5 20L33.24 6.106l22.179 22.369" fill="none" stroke="#fff" stroke-width="2" stroke-linecap="round" stroke-linejoin="round" stroke-miterlimit="18.9"/><path d="M7.215 22.99l3.976 26.521 28.523 4.743 12.598-23.88" fill="none" stroke="#fff" stroke-width="2" stroke-linecap="round"/><g stroke-width="2"><path d="M45.172 22.153a8.994 8.993.02 1 1 13.662 11.7 8.994 8.993.02 1 1-13.662-11.7z" fill="none" stroke="#2e2900"/><path d="M-24.634 6.894A7 7 0 1 1-14 16a7 7 0 0 1-10.634-9.106z" fill="url(#c)" stroke="#fce94f" transform="translate(71.328 16.57)"/></g><g stroke-width="2"><path d="M21.172 27.153a8.994 8.993.02 1 1 13.662 11.7 8.994 8.993.02 1 1-13.662-11.7z" fill="none" stroke="#2e2900"/><path d="M-24.634 6.894A7 7 0 1 1-14 16a7 7 0 0 1-10.634-9.106z" fill="url(#d)" stroke="#fce94f" transform="translate(47.328 21.57)"/></g></svg>