<svg xmlns="http://www.w3.org/2000/svg" xmlns:xlink="http://www.w3.org/1999/xlink" width="64" height="64"><defs><linearGradient id="a"><stop offset="0" stop-color="#fff"/><stop offset="1" stop-color="#fff" stop-opacity="0"/></linearGradient><linearGradient id="b"><stop offset="0" stop-color="#0619c0"/><stop offset="1" stop-color="#379cfb"/></linearGradient><linearGradient id="c"><stop offset="0" stop-color="#fa0"/><stop offset="1" stop-color="#faff2b"/></linearGradient><linearGradient id="d"><stop offset="0" stop-color="#0619c0"/><stop offset="1" stop-color="#379cfb"/></linearGradient><linearGradient id="k"><stop offset="0" stop-opacity="0"/><stop offset=".5"/><stop offset="1" stop-opacity="0"/></linearGradient><linearGradient id="l"><stop offset="0"/><stop offset="1" stop-opacity="0"/></linearGradient><radialGradient xlink:href="#e" id="p" gradientUnits="userSpaceOnUse" gradientTransform="matrix(.2297 0 0 .2297 4.614 3.98)" cx="20.892" cy="114.568" fx="20.892" fy="114.568" r="5.256"/><radialGradient gradientUnits="userSpaceOnUse" fy="114.568" fx="20.892" r="5.256" cy="114.568" cx="20.892" id="e"><stop offset="0" stop-color="#f0f0f0"/><stop offset="1" stop-color="#9a9a9a"/></radialGradient><radialGradient xlink:href="#f" id="q" gradientUnits="userSpaceOnUse" gradientTransform="matrix(.2297 0 0 .2297 4.614 3.98)" cx="20.892" cy="64.568" fx="20.892" fy="64.568" r="5.257"/><radialGradient gradientUnits="userSpaceOnUse" fy="64.568" fx="20.892" r="5.257" cy="64.568" cx="20.892" id="f"><stop offset="0" stop-color="#f0f0f0"/><stop offset="1" stop-color="#9a9a9a"/></radialGradient><radialGradient r="38.159" fy="7.268" fx="8.144" cy="7.268" cx="8.144" gradientTransform="matrix(.93579 0 0 .95695 14.882 -58.63)" gradientUnits="userSpaceOnUse" id="o" xlink:href="#g"/><linearGradient id="g"><stop offset="0" stop-color="#fff"/><stop offset="1" stop-color="#f8f8f8"/></linearGradient><linearGradient id="h"><stop offset="0" stop-color="#fafafa"/><stop offset="1" stop-color="#bbb"/></linearGradient><linearGradient id="i"><stop offset="0" stop-color="#a3a3a3"/><stop offset="1" stop-color="#4c4c4c"/></linearGradient><radialGradient r="86.708" fy="43.718" fx="3.775" cy="43.718" cx="3.775" gradientTransform="matrix(.98398 0 0 1.01797 10.292 -60.498)" gradientUnits="userSpaceOnUse" id="m" xlink:href="#h"/><radialGradient r="37.752" fy="43.446" fx=".281" cy="43.446" cx=".281" gradientTransform="matrix(.99195 0 0 1.0098 13.728 -59.866)" gradientUnits="userSpaceOnUse" id="n" xlink:href="#i"/><linearGradient id="j"><stop offset="0" stop-color="#729fcf"/><stop offset="1" stop-color="#204a87"/></linearGradient><linearGradient gradientTransform="translate(-27 -6)" y2="44" x2="48" y1="22" x1="43" gradientUnits="userSpaceOnUse" id="u" xlink:href="#j"/><linearGradient xlink:href="#k" id="r" gradientUnits="userSpaceOnUse" gradientTransform="matrix(2.77439 0 0 1.9697 -1892.179 -872.885)" x1="302.857" y1="366.648" x2="302.857" y2="609.505"/><radialGradient xlink:href="#l" id="s" gradientUnits="userSpaceOnUse" gradientTransform="matrix(2.77439 0 0 1.9697 -1891.633 -872.885)" cx="605.714" cy="486.648" fx="605.714" fy="486.648" r="117.143"/><radialGradient xlink:href="#l" id="t" gradientUnits="userSpaceOnUse" gradientTransform="matrix(-2.77439 0 0 1.9697 112.762 -872.885)" cx="605.714" cy="486.648" fx="605.714" fy="486.648" r="117.143"/></defs><rect ry="1.123" y="-56.932" x="17.057" height="40.01" width="35.728" style="marker:none" rx="1.177" transform="rotate(89.98) skewX(.002)" color="#000" fill="url(#m)" stroke="url(#n)" stroke-width="2" stroke-linecap="round" stroke-linejoin="round" display="block" overflow="visible"/><rect rx=".144" ry=".138" y="-54.982" x="19.05" height="36.087" width="31.676" style="marker:none" transform="rotate(89.979) skewX(.002)" color="#000" fill="none" stroke="url(#o)" stroke-width="2" stroke-linecap="round" display="block" overflow="visible"/><g stroke-width="2.02"><g fill="#fff" stroke="none" stroke-width="8.7"><path d="M30.998 21.544c-.443 0-.803-.376-.803-.84 0-.465.36-.842.802-.842.444 0 .803.376.803.84 0 .465-.36.842-.802.842zM42.227 21.54c-.443 0-.802-.377-.802-.841 0-.465.359-.841.802-.841.443 0 .802.376.803.84 0 .465-.36.841-.803.841z"/></g><path d="M9.995 29.952a.82.82 0 1 1-1.641 0 .82.82 0 0 1 1.641 0z" fill="url(#p)" transform="matrix(.00037 1.02445 -.97775 .00038 60.54 10.93)"/><path d="M9.995 18.467a.82.82 0 1 1-1.642 0 .82.82 0 0 1 1.642 0z" fill="url(#q)" transform="matrix(.00037 1.02445 -.97775 .00038 60.54 10.93)"/></g><path d="M55.134 22.058l-37.063.014" fill="none" stroke="#000" stroke-width="2" stroke-opacity=".018"/><path d="M52.524 25.482V45.28H35.502l8.209-9.548 8.813-10.25z" fill="none" stroke="#2e3436" stroke-width="2" stroke-linejoin="round"/><path d="M55.598 23.076l-37.172.015" fill="none" stroke="#fff" stroke-width="2" stroke-opacity=".205"/><path style="marker:none" d="M47.861 35.294a6.026 6.026 0 1 1-12.051 0 6.026 6.026 0 1 1 12.051 0z" color="#000" fill="none" stroke="#204a87" stroke-width="2.00013714" stroke-linejoin="round" overflow="visible"/><g stroke-width="112.626" color="#000"><path style="marker:none" opacity=".402" fill="url(#r)" overflow="visible" d="M-1559.252-150.697h1339.633V327.66h-1339.633z" transform="matrix(.02117 0 0 .01522 55.65 54.013)"/><path d="M-219.619-150.68v478.33c142.874.9 345.4-107.17 345.4-239.196S-33.655-150.68-219.619-150.68z" style="marker:none" opacity=".402" fill="url(#s)" overflow="visible" transform="matrix(.02117 0 0 .01522 55.65 54.013)"/><path style="marker:none" d="M-1559.252-150.68v478.33c-142.875.9-345.4-107.17-345.4-239.196s159.436-239.134 345.4-239.134z" opacity=".402" fill="url(#t)" overflow="visible" transform="matrix(.02117 0 0 .01522 55.65 54.013)"/></g><path d="M20 9v10H3v14h17v10l18-17z" fill="url(#u)" fill-rule="evenodd" stroke="#0b1521" stroke-width="2" stroke-linejoin="round"/><path d="M22.007 13.643L22 21H5v10h17l-.007 7.357L35 26z" fill="none" stroke="#729fcf" stroke-width="2"/></svg>