<svg xmlns="http://www.w3.org/2000/svg" xmlns:xlink="http://www.w3.org/1999/xlink" width="64" height="64"><defs><linearGradient id="a"><stop offset="0" stop-color="#0619c0"/><stop offset="1" stop-color="#379cfb"/></linearGradient><linearGradient id="b"><stop offset="0" stop-color="#729fcf"/><stop offset="1" stop-color="#204a87"/></linearGradient><linearGradient y2="39.514" x2="45.615" y1="23.527" x1="42.758" gradientTransform="matrix(.82727 0 0 .85294 12.537 6.206)" gradientUnits="userSpaceOnUse" id="d" xlink:href="#b"/><linearGradient id="c"><stop offset="0" stop-color="#729fcf"/><stop offset="1" stop-color="#204a87"/></linearGradient><linearGradient y2="39.514" x2="45.615" y1="24.379" x1="50.121" gradientTransform="matrix(-.82727 0 0 .85294 51.463 6.206)" gradientUnits="userSpaceOnUse" id="e" xlink:href="#c"/><linearGradient xlink:href="#c" id="f" x1="30" y1="6" x2="34" y2="57" gradientUnits="userSpaceOnUse"/></defs><path d="M49 19v8h-8v10h8v8l12-13z" fill="url(#d)" fill-rule="evenodd" stroke="#0b1521" stroke-width="2" stroke-linejoin="round"/><path d="M51.04 24.487L51 29h-8v6h8l.017 5.13 7.264-8.106z" fill="none" stroke="#729fcf" stroke-width="2"/><path d="M15 19v8h8v10h-8v8L3 32z" fill="url(#e)" fill-rule="evenodd" stroke="#0b1521" stroke-width="2" stroke-linejoin="round"/><path d="M12.96 24.487L13 29h8v6h-8l-.017 5.13-7.264-8.106z" fill="none" stroke="#729fcf" stroke-width="2"/><path d="M32 56V8" fill="none" stroke="#0b1521" stroke-width="8" stroke-linecap="round"/><path d="M32 56V8" fill="none" stroke="url(#f)" stroke-width="4" stroke-linecap="round"/><path d="M31 56V8" fill="none" stroke="#729fcf" stroke-width="2" stroke-linecap="round"/></svg>