<svg xmlns="http://www.w3.org/2000/svg" xmlns:xlink="http://www.w3.org/1999/xlink" width="64" height="64"><defs><linearGradient id="f"><stop offset="0" stop-color="#c4a000"/><stop offset="1" stop-color="#fce94f"/></linearGradient><linearGradient id="d"><stop offset="0" stop-color="#8f5902"/><stop offset="1" stop-color="#e9b96e"/></linearGradient><linearGradient id="c"><stop offset="0" stop-color="#d3d7cf"/><stop offset="1" stop-color="#eeeeec"/></linearGradient><linearGradient id="a"><stop offset="0" stop-color="#e9b96e"/><stop offset="1" stop-color="#8f5902"/></linearGradient><linearGradient xlink:href="#a" id="h" x1="5.175" y1="28.664" x2="9.377" y2="63.578" gradientUnits="userSpaceOnUse" gradientTransform="matrix(.95199 0 0 .91652 .073 1.73)"/><linearGradient id="b"><stop offset="0" stop-color="#d07200"/><stop offset="1" stop-color="#fcb200"/></linearGradient><linearGradient xlink:href="#c" id="g" x1="40" y1="59" x2="26" y2="5" gradientUnits="userSpaceOnUse"/><linearGradient xlink:href="#d" id="j" x1="21" y1="52" x2="19" y2="41" gradientUnits="userSpaceOnUse"/><linearGradient id="e"><stop offset="0" stop-color="#e9b96e"/><stop offset="1" stop-color="#8f5902"/></linearGradient><linearGradient xlink:href="#f" id="i" x1="37" y1="38" x2="32" y2="14" gradientUnits="userSpaceOnUse"/></defs><g stroke-width="2" stroke-linecap="round"><path fill="url(#g)" stroke="#2e3436" stroke-linejoin="round" d="M13 3h48v58H13z"/><path d="M7 27l-4 4v24l4 4h4V27z" fill="url(#h)" stroke="#271903" stroke-linejoin="round"/><path fill="none" stroke="#fff" d="M15 5h44v54H15z"/><path d="M27 5v32h24zm6 18l6 8h-6z" fill="url(#i)" stroke="#302b00" stroke-linejoin="round"/><path d="M8 29l-3 2.853v22.319L7.816 57H9V29z" fill="none" stroke="#e9b96e"/><path d="M57 39l-2 6-50 5V39z" fill="url(#j)" stroke="#271903" stroke-linejoin="round"/><path d="M54.22 41l-.754 2.178-46.478 4.638L7 41z" fill="none" stroke="#e9b96e"/><path d="M29 11v24h18z" fill="none" stroke="#fce94f"/></g></svg>