<svg xmlns="http://www.w3.org/2000/svg" width="64" height="64"><defs><linearGradient id="a"><stop offset="0" stop-color="#fff"/><stop offset="1" stop-color="#fff" stop-opacity="0"/></linearGradient><linearGradient id="b"><stop offset="0" stop-color="#fff"/><stop offset="1" stop-color="#fff" stop-opacity="0"/></linearGradient></defs><g stroke-linecap="round" stroke-linejoin="round"><path d="M23 14h2V6h-2V4l2-1h3v11h1v3h-6v-3M32 14h3v3h-3v-3M43.577 10.479c0-1.567-.122-3.669-.365-4.307-.239-.643-.643-.965-1.212-.965-.57 0-.975.322-1.219.965-.243.638-.365 2.74-.365 4.307 0 1.583.122 2.7.365 3.349.244.649.65.973 1.219.973.565 0 .969-.324 1.212-.973.243-.65.365-1.766.365-3.349m2.65.025c0 2.076-.367 3.679-1.101 4.81C44.392 16.437 43.35 17 42 17c-1.354 0-2.398-.562-3.133-1.687-.734-1.13-1.101-2.733-1.101-4.809 0-2.081.367-4.684 1.101-5.809C39.602 3.565 40.646 3 42 3c1.35 0 2.392.565 3.126 1.695.734 1.125 1.102 3.728 1.102 5.81M54.577 10.479c0-1.567-.122-3.669-.365-4.307-.239-.643-.643-.965-1.212-.965-.57 0-.975.322-1.219.965-.243.638-.365 2.74-.365 4.307 0 1.583.122 2.7.365 3.349.244.649.65.973 1.219.973.565 0 .969-.324 1.212-.973.243-.65.365-1.766.365-3.349m2.65.025c0 2.076-.367 3.679-1.101 4.81C55.392 16.437 54.35 17 53 17c-1.354 0-2.398-.562-3.133-1.687-.734-1.13-1.101-2.733-1.101-4.809 0-2.081.367-4.684 1.101-5.809C50.602 3.565 51.646 3 53 3c1.35 0 2.392.565 3.126 1.695.734 1.125 1.102 3.728 1.102 5.81M14 55v-2H6v2H4l-1-2v-3h11v-1h3v6h-3M14 46v-3h3v3h-3M10.479 34.423c-1.567 0-3.669.122-4.307.365-.643.239-.965.643-.965 1.212 0 .57.322.975.965 1.219.638.243 2.74.365 4.307.365 1.583 0 2.7-.122 3.349-.365.649-.244.973-.65.973-1.219 0-.565-.324-.969-.973-1.212-.65-.243-1.766-.365-3.349-.365m.025-2.65c2.076 0 3.679.367 4.81 1.101C16.437 33.61 17 34.65 17 36c0 1.354-.562 2.398-1.687 3.133-1.13.734-2.733 1.101-4.809 1.101-2.081 0-4.684-.367-5.809-1.101C3.565 38.398 3 37.354 3 36c0-1.35.565-2.391 1.695-3.126 1.125-.734 3.728-1.102 5.81-1.102M10.479 23.423c-1.567 0-3.669.122-4.307.365-.643.239-.965.643-.965 1.212 0 .57.322.975.965 1.219.638.243 2.74.365 4.307.365 1.583 0 2.7-.122 3.349-.365.649-.244.973-.65.973-1.219 0-.565-.324-.969-.973-1.212-.65-.243-1.766-.365-3.349-.365m.025-2.65c2.076 0 3.679.367 4.81 1.101C16.437 22.608 17 23.65 17 25c0 1.354-.562 2.398-1.687 3.133-1.13.734-2.733 1.101-4.809 1.101-2.081 0-4.684-.367-5.809-1.101C3.565 27.398 3 26.354 3 25c0-1.35.565-2.392 1.695-3.126 1.125-.734 3.728-1.102 5.81-1.102" style="-inkscape-font-specification:'Arial Black, Bold'" font-size="22.515" font-weight="700" fill="#34e0e2" stroke="#042a2a" stroke-width="2.00003568" font-family="Arial Black"/><path d="M35 51H25V25h28v10" fill="none" stroke="#042a2a" stroke-width="6.0001070400000005"/><path d="M30 25.5a4.5 4.5 0 1 1-9 0 4.5 4.5 0 0 1 9 0zM30 50.5a4.5 4.5 0 1 1-9 0 4.5 4.5 0 0 1 9 0zM57 25.5a4.5 4.5 0 1 1-9 0 4.5 4.5 0 0 1 9 0z" fill="#16d0d2" stroke="#042a2a" stroke-width="1.9999374600000002"/><path d="M35 51H25V25h28v10" fill="none" stroke="#34e0e2" stroke-width="2.00003568"/><path d="M28 25.5a2.5 2.5 0 1 1-5 0 2.5 2.5 0 0 1 5 0zM55 25.5a2.5 2.5 0 1 1-5 0 2.5 2.5 0 0 1 5 0zM28 50.5a2.5 2.5 0 1 1-5 0 2.5 2.5 0 0 1 5 0z" fill="#16d0d2" stroke="#34e0e2" stroke-width="1.999984"/></g></svg>