<svg xmlns="http://www.w3.org/2000/svg" xmlns:xlink="http://www.w3.org/1999/xlink" width="64" height="64"><defs><linearGradient id="d"><stop offset="0" stop-color="#06989a"/><stop offset="1" stop-color="#34e0e2"/></linearGradient><linearGradient id="c"><stop offset="0" stop-color="#06989a"/><stop offset="1" stop-color="#34e0e2"/></linearGradient><linearGradient id="a"><stop offset="0" stop-color="#fff"/><stop offset="1" stop-color="#fff" stop-opacity="0"/></linearGradient><linearGradient id="b"><stop offset="0" stop-color="#fff"/><stop offset="1" stop-color="#fff" stop-opacity="0"/></linearGradient><linearGradient xlink:href="#c" id="e" x1="207.486" y1="802.506" x2="133.471" y2="457.1" gradientUnits="userSpaceOnUse"/><linearGradient xlink:href="#d" id="f" x1="25.818" y1="49.273" x2="22.545" y2="35.091" gradientUnits="userSpaceOnUse"/></defs><g transform="matrix(.16213 0 0 .16213 6.36 -66.109)" color="#000"><rect style="marker:none" width="357.742" height="357.742" x="-20.728" y="426.26" ry="26.556" fill="url(#e)" stroke="#042a2a" stroke-width="12.336" overflow="visible"/><path style="marker:none" d="M32.364 41.636a7.636 7.636 0 1 1-15.273 0 7.636 7.636 0 0 1 15.273 0z" transform="matrix(7.26938 0 0 7.26938 -83.289 351.804)" fill="#34e0e2" stroke="#042a2a" stroke-width="1.697" overflow="visible"/><rect style="marker:none" width="333.07" height="333.07" x="-8.392" y="438.596" ry="12.81" fill="none" stroke="#34e0e2" stroke-width="12.336" overflow="visible"/><path style="marker:none" d="M32.364 41.636a7.636 7.636 0 1 1-15.273 0 7.636 7.636 0 0 1 15.273 0z" transform="translate(-43.344 419.064) scale(5.65396)" fill="url(#f)" stroke="#34e0e2" stroke-width="2.182" overflow="visible"/></g></svg>