<svg xmlns="http://www.w3.org/2000/svg" xmlns:xlink="http://www.w3.org/1999/xlink" width="64" height="64"><defs><linearGradient id="k"><stop offset="0" stop-color="#06989a"/><stop offset="1" stop-color="#34e0e2"/></linearGradient><linearGradient id="a"><stop offset="0" stop-color="#fff"/><stop offset="1" stop-color="#fff" stop-opacity="0"/></linearGradient><linearGradient id="b"><stop offset="0" stop-color="#fff"/><stop offset="1" stop-color="#fff" stop-opacity="0"/></linearGradient><linearGradient id="c"><stop offset="0" stop-color="#fff"/><stop offset="1" stop-color="#fff" stop-opacity="0"/></linearGradient><linearGradient id="d"><stop offset="0" stop-color="#fff"/><stop offset="1" stop-color="#fff" stop-opacity="0"/></linearGradient><linearGradient id="e"><stop offset="0" stop-color="#fff"/><stop offset="1" stop-color="#fff" stop-opacity="0"/></linearGradient><linearGradient id="f"><stop offset="0" stop-color="#fff"/><stop offset="1" stop-color="#fff" stop-opacity="0"/></linearGradient><linearGradient id="g"><stop offset="0" stop-color="#fff"/><stop offset="1" stop-color="#fff" stop-opacity="0"/></linearGradient><linearGradient id="h"><stop offset="0" stop-color="#fff"/><stop offset="1" stop-color="#fff" stop-opacity="0"/></linearGradient><linearGradient id="i"><stop offset="0" stop-color="#fff"/><stop offset="1" stop-color="#fff" stop-opacity="0"/></linearGradient><linearGradient id="j"><stop offset="0" stop-color="#fff"/><stop offset="1" stop-color="#fff" stop-opacity="0"/></linearGradient><linearGradient xlink:href="#k" id="r" x1="252.19" y1="655.128" x2="152.685" y2="657.41" gradientUnits="userSpaceOnUse"/><linearGradient id="l"><stop offset="0" stop-color="#06989a"/><stop offset="1" stop-color="#34e0e2"/></linearGradient><linearGradient id="m"><stop offset="0" stop-color="#06989a"/><stop offset="1" stop-color="#34e0e2"/></linearGradient><linearGradient id="n"><stop offset="0" stop-color="#06989a"/><stop offset="1" stop-color="#34e0e2"/></linearGradient><linearGradient id="o"><stop offset="0" stop-color="#06989a"/><stop offset="1" stop-color="#34e0e2"/></linearGradient><linearGradient y2="657.41" x2="152.685" y1="655.128" x1="252.19" gradientUnits="userSpaceOnUse" id="s" xlink:href="#o"/><linearGradient id="p"><stop offset="0" stop-color="#06989a"/><stop offset="1" stop-color="#34e0e2"/></linearGradient><linearGradient y2="657.41" x2="152.685" y1="655.128" x1="252.19" gradientUnits="userSpaceOnUse" id="t" xlink:href="#p"/><linearGradient id="q"><stop offset="0" stop-color="#06989a"/><stop offset="1" stop-color="#34e0e2"/></linearGradient><linearGradient y2="657.41" x2="152.685" y1="655.128" x1="252.19" gradientUnits="userSpaceOnUse" id="u" xlink:href="#q"/></defs><g color="#000" stroke-linejoin="round"><path style="marker:none" d="M50.912 31.859c0 10.508-8.52 19.027-19.028 19.027-10.509 0-19.028-8.519-19.028-19.027 0-10.509 8.52-19.028 19.028-19.028 10.509 0 19.028 8.52 19.028 19.028z" transform="matrix(1.07252 0 0 1.07252 -2.196 -2.169)" fill="none" stroke="#042a2a" stroke-width="5.594" overflow="visible"/><path style="marker:none" d="M50.912 31.859c0 10.508-8.52 19.027-19.028 19.027-10.509 0-19.028-8.519-19.028-19.027 0-10.509 8.52-19.028 19.028-19.028 10.509 0 19.028 8.52 19.028 19.028z" transform="matrix(1.07252 0 0 1.07252 -2.196 -2.169)" fill="none" stroke="#34e0e2" stroke-width="1.865" overflow="visible"/><path d="M245.714 655.22c0 26.825-21.746 48.57-48.571 48.57s-48.572-21.745-48.572-48.57c0-26.826 21.747-48.572 48.572-48.572 26.825 0 48.571 21.746 48.571 48.571z" style="marker:none" transform="matrix(.03603 .18172 -.18172 .03603 143.964 -7.433)" fill="url(#r)" stroke="#042a2a" stroke-width="10.796" overflow="visible"/><path d="M245.714 655.22c0 26.825-21.746 48.57-48.571 48.57s-48.572-21.745-48.572-48.57c0-26.826 21.747-48.572 48.572-48.572 26.825 0 48.571 21.746 48.571 48.571z" style="marker:none" transform="matrix(.02802 .14134 -.14134 .02802 119.083 5.774)" fill="none" stroke="#34e0e2" stroke-width="13.88" overflow="visible"/><path d="M245.714 655.22c0 26.825-21.746 48.57-48.571 48.57s-48.572-21.745-48.572-48.57c0-26.826 21.747-48.572 48.572-48.572 26.825 0 48.571 21.746 48.571 48.571z" style="marker:none" transform="matrix(.03603 .18172 -.18172 .03603 163.964 -27.433)" fill="url(#s)" stroke="#042a2a" stroke-width="10.796" overflow="visible"/><path d="M245.714 655.22c0 26.825-21.746 48.57-48.571 48.57s-48.572-21.745-48.572-48.57c0-26.826 21.747-48.572 48.572-48.572 26.825 0 48.571 21.746 48.571 48.571z" style="marker:none" transform="matrix(.02802 .14134 -.14134 .02802 139.083 -14.226)" fill="none" stroke="#34e0e2" stroke-width="13.88" overflow="visible"/><path d="M245.714 655.22c0 26.825-21.746 48.57-48.571 48.57s-48.572-21.745-48.572-48.57c0-26.826 21.747-48.572 48.572-48.572 26.825 0 48.571 21.746 48.571 48.571z" style="marker:none" transform="matrix(.03603 .18172 -.18172 .03603 143.964 -47.433)" fill="url(#t)" stroke="#042a2a" stroke-width="10.796" overflow="visible"/><path d="M245.714 655.22c0 26.825-21.746 48.57-48.571 48.57s-48.572-21.745-48.572-48.57c0-26.826 21.747-48.572 48.572-48.572 26.825 0 48.571 21.746 48.571 48.571z" style="marker:none" transform="matrix(.02802 .14134 -.14134 .02802 119.083 -34.226)" fill="none" stroke="#34e0e2" stroke-width="13.88" overflow="visible"/><path d="M245.714 655.22c0 26.825-21.746 48.57-48.571 48.57s-48.572-21.745-48.572-48.57c0-26.826 21.747-48.572 48.572-48.572 26.825 0 48.571 21.746 48.571 48.571z" style="marker:none" transform="matrix(.03603 .18172 -.18172 .03603 123.964 -27.433)" fill="url(#u)" stroke="#042a2a" stroke-width="10.796" overflow="visible"/><path d="M245.714 655.22c0 26.825-21.746 48.57-48.571 48.57s-48.572-21.745-48.572-48.57c0-26.826 21.747-48.572 48.572-48.572 26.825 0 48.571 21.746 48.571 48.571z" style="marker:none" transform="matrix(.02802 .14134 -.14134 .02802 99.083 -14.226)" fill="none" stroke="#34e0e2" stroke-width="13.88" overflow="visible"/></g></svg>