<svg xmlns="http://www.w3.org/2000/svg" xmlns:xlink="http://www.w3.org/1999/xlink" width="64" height="64"><defs><linearGradient id="b"><stop offset="0" stop-color="#06989a"/><stop offset="1" stop-color="#34e0e2"/></linearGradient><linearGradient id="a"><stop offset="0" stop-color="#fff"/><stop offset="1" stop-color="#fff" stop-opacity="0"/></linearGradient><linearGradient xlink:href="#b" id="c" x1="170.205" y1="728.836" x2="146.081" y2="508.387" gradientUnits="userSpaceOnUse"/></defs><g color="#000" stroke-width="12.336" stroke-linejoin="round"><path style="marker:none" d="M277.834 450.932L91.251 618.757a72.395 72.395 0 0 0-28.857-5.14c-40.207 1.077-71.836 34.51-70.76 74.722 1.077 40.21 34.506 72.041 74.713 70.964 40.207-1.076 72.033-34.707 70.957-74.918-.106-3.94-.68-7.71-1.384-11.465l188.758-169.802-46.844-52.186z" fill="url(#c)" stroke="#042a2a" overflow="visible" transform="matrix(.16213 0 0 .16213 6.36 -66.109)"/><path style="marker:none" d="M51.229 9.871L21.614 36.45c-1.446-.577-4.096-1.167-5.839-.936C9.952 36.287 7.042 40.446 7 46c-.04 5.3 5.9 8.936 9 9 4.32.09 10.191-2.226 10.55-10.096.04-.889-.147-1.845-.486-2.518l30.113-27.08z" fill="none" stroke="#34e0e2" overflow="visible" stroke-width="2.00003568"/></g></svg>