<svg xmlns="http://www.w3.org/2000/svg" xmlns:xlink="http://www.w3.org/1999/xlink" width="64" height="64"><defs><linearGradient id="c"><stop offset="0" stop-color="#06989a"/><stop offset="1" stop-color="#34e0e2"/></linearGradient><linearGradient id="b"><stop offset="0" stop-color="#06989a"/><stop offset="1" stop-color="#34e0e2"/></linearGradient><linearGradient id="a"><stop offset="0" stop-color="#fff"/><stop offset="1" stop-color="#fff" stop-opacity="0"/></linearGradient><linearGradient xlink:href="#b" id="e" x1="93.348" y1="767.216" x2="46.826" y2="639.281" gradientUnits="userSpaceOnUse"/><linearGradient xlink:href="#c" id="d" x1="182.815" y1="691.482" x2="121.135" y2="531.116" gradientUnits="userSpaceOnUse"/></defs><g transform="matrix(.16213 0 0 .16213 6.36 -66.109)"><path d="M324.678 438.596l-74.016 74.016v197.374l74.016-74.015z" fill="#06989a" stroke="#042a2a" stroke-width="12.336" stroke-linecap="round" stroke-linejoin="round"/><path d="M77.96 512.612v197.374h172.702V512.612z" fill="url(#d)" stroke="#042a2a" stroke-width="12.336" stroke-linecap="round" stroke-linejoin="round"/><path d="M77.96 512.612l74.015-74.016h172.703l-74.016 74.016z" fill="#34e0e2" stroke="#042a2a" stroke-width="12.336" stroke-linejoin="round"/><path d="M90.295 524.948V697.65h148.031V524.948z" fill="none" stroke="#34e0e2" stroke-width="12.336" stroke-linecap="round"/><path d="M312.342 468.202l-49.344 49.344V680.38l49.344-49.344z" fill="none" stroke="#16d0d2" stroke-width="12.336" stroke-linecap="round"/><circle style="marker:none" cx="70.087" cy="697.433" r="69.782" transform="translate(-8.715 -42.09) scale(1.06066)" color="#000" fill="url(#e)" stroke="#042a2a" stroke-width="11.63" stroke-linejoin="round" overflow="visible"/><circle style="marker:none" cx="70.087" cy="697.433" r="69.782" transform="matrix(.88388 0 0 .88388 3.675 81.2)" color="#000" fill="none" stroke="#34e0e2" stroke-width="13.956" stroke-linejoin="round" overflow="visible"/></g></svg>