<svg xmlns="http://www.w3.org/2000/svg" xmlns:xlink="http://www.w3.org/1999/xlink" width="64" height="64"><defs><linearGradient id="c"><stop offset="0" stop-color="#06989a"/><stop offset="1" stop-color="#34e0e2"/></linearGradient><linearGradient id="a"><stop offset="0" stop-color="#fff"/><stop offset="1" stop-color="#fff" stop-opacity="0"/></linearGradient><linearGradient id="b"><stop offset="0" stop-color="#fff"/><stop offset="1" stop-color="#fff" stop-opacity="0"/></linearGradient><linearGradient xlink:href="#c" id="d" x1="170.479" y1="740.826" x2="145.807" y2="481.772" gradientUnits="userSpaceOnUse"/></defs><g color="#000" stroke-width="12.336" stroke-linejoin="round"><path style="marker:none" d="M286.056 438.596l-97.264 89.496c-9.474-4.026-19.86-6.455-30.735-6.707-46.964-1.092-85.89 37.062-86.956 85.088-.207 9.303 1.102 18.172 3.56 26.637l-95.389 87.771 44.603 50.785 93.515-86.046c11.085 5.824 23.435 9.464 36.732 9.773 46.964 1.091 86.077-37.062 87.144-85.088.26-11.727-1.921-22.85-5.81-33.153l95.39-87.771-44.79-50.785z" fill="url(#d)" stroke="#042a2a" overflow="visible" transform="matrix(.16213 0 0 .16213 6.36 -66.109)"/><path style="marker:none" d="M52.618 7.896l-15.24 13.919c-1.293-.556-3.893-1.346-5.378-1.381-6.412-.15-11.94 5.085-12.086 11.717-.028 1.285.426 3.932.762 5.101L5.86 50.928l4.494 5.233 14.734-13.595c1.513.804 4.196 1.994 6.011 2.036 6.412.151 12.161-4.8 12.353-11.978.043-1.62-.763-4.292-1.294-5.715l15.024-13.804z" fill="none" stroke="#34e0e2" overflow="visible" stroke-width="2.00003568"/></g></svg>