<svg xmlns="http://www.w3.org/2000/svg" xmlns:xlink="http://www.w3.org/1999/xlink" width="64" height="64"><defs><linearGradient id="a"><stop offset="0" stop-color="#fff"/><stop offset="1" stop-color="#fff" stop-opacity="0"/></linearGradient><linearGradient id="b"><stop offset="0" stop-color="#fff"/><stop offset="1" stop-color="#fff" stop-opacity="0"/></linearGradient><linearGradient id="c"><stop offset="0" stop-color="#fff"/><stop offset="1" stop-color="#fff" stop-opacity="0"/></linearGradient><linearGradient id="d"><stop offset="0" stop-color="#fff"/><stop offset="1" stop-color="#fff" stop-opacity="0"/></linearGradient><linearGradient id="e"><stop offset="0" stop-color="#fff"/><stop offset="1" stop-color="#fff" stop-opacity="0"/></linearGradient><linearGradient id="f"><stop offset="0" stop-color="#fff"/><stop offset="1" stop-color="#fff" stop-opacity="0"/></linearGradient><linearGradient id="g"><stop offset="0" stop-color="#fff"/><stop offset="1" stop-color="#fff" stop-opacity="0"/></linearGradient><linearGradient id="h"><stop offset="0" stop-color="#06989a"/><stop offset="1" stop-color="#34e0e2"/></linearGradient><linearGradient id="i"><stop offset="0" stop-color="#06989a"/><stop offset="1" stop-color="#34e0e2"/></linearGradient><linearGradient id="j"><stop offset="0" stop-color="#06989a"/><stop offset="1" stop-color="#34e0e2"/></linearGradient><linearGradient y2="18.702" x2="29.056" y1="34.473" x1="34.97" gradientUnits="userSpaceOnUse" id="m" xlink:href="#j"/><linearGradient id="k"><stop offset="0" stop-color="#06989a"/><stop offset="1" stop-color="#34e0e2"/></linearGradient><linearGradient y2="18.702" x2="29.056" y1="34.473" x1="34.97" gradientUnits="userSpaceOnUse" id="n" xlink:href="#k"/><linearGradient id="l"><stop offset="0" stop-color="#06989a"/><stop offset="1" stop-color="#34e0e2"/></linearGradient><linearGradient y2="18.702" x2="29.056" y1="34.473" x1="34.97" gradientUnits="userSpaceOnUse" id="o" xlink:href="#l"/></defs><g color="#000" stroke-linejoin="round"><path style="marker:none" d="M40.884 26.588a8.871 8.871 0 1 1-17.742 0 8.871 8.871 0 0 1 17.742 0z" transform="translate(26.628 11.02) scale(.78909)" fill="url(#m)" stroke="#042a2a" stroke-width="2.535" overflow="visible"/><path style="marker:none" d="M40.884 26.588a8.871 8.871 0 1 1-17.742 0 8.871 8.871 0 0 1 17.742 0z" transform="matrix(.55737 0 0 .55737 34.101 17.236)" fill="none" stroke="#34e0e2" stroke-width="3.588" overflow="visible"/><path style="marker:none" d="M40.884 26.588a8.871 8.871 0 1 1-17.742 0 8.871 8.871 0 0 1 17.742 0z" transform="translate(6.74 11.02) scale(.78909)" fill="url(#n)" stroke="#042a2a" stroke-width="2.535" overflow="visible"/><path style="marker:none" d="M40.884 26.588a8.871 8.871 0 1 1-17.742 0 8.871 8.871 0 0 1 17.742 0z" transform="matrix(.55737 0 0 .55737 14.213 17.236)" fill="none" stroke="#34e0e2" stroke-width="3.588" overflow="visible"/><path style="marker:none" d="M40.884 26.588a8.871 8.871 0 1 1-17.742 0 8.871 8.871 0 0 1 17.742 0z" transform="translate(-13.26 11.02) scale(.78909)" fill="url(#o)" stroke="#042a2a" stroke-width="2.535" overflow="visible"/><path style="marker:none" d="M40.884 26.588a8.871 8.871 0 1 1-17.742 0 8.871 8.871 0 0 1 17.742 0z" transform="matrix(.55737 0 0 .55737 -5.787 17.236)" fill="none" stroke="#34e0e2" stroke-width="3.588" overflow="visible"/></g></svg>