<svg xmlns="http://www.w3.org/2000/svg" xmlns:xlink="http://www.w3.org/1999/xlink" width="64" height="64"><defs><linearGradient id="a"><stop offset="0" stop-color="#fff"/><stop offset="1" stop-color="#fff" stop-opacity="0"/></linearGradient><linearGradient id="b"><stop offset="0" stop-color="#06989a"/><stop offset="1" stop-color="#34e0e2"/></linearGradient><linearGradient gradientTransform="translate(1.366 13.421)" y2="-461.801" x2="-385.552" y1="-559.675" x1="-506.277" gradientUnits="userSpaceOnUse" id="d" xlink:href="#b"/><linearGradient xlink:href="#b" id="c" x1="34.97" y1="34.473" x2="29.056" y2="18.702" gradientUnits="userSpaceOnUse"/></defs><path style="marker:none" d="M40.884 26.588a8.871 8.871 0 1 1-17.742 0 8.871 8.871 0 0 1 17.742 0z" transform="matrix(1.01454 0 0 1.01454 9.522 -10.974)" color="#000" fill="url(#c)" stroke="#042a2a" stroke-width="1.971" stroke-linejoin="round" overflow="visible"/><path style="marker:none" transform="matrix(-.1364 -.08763 .08651 -.13712 6.36 -66.109)" color="#000" fill="url(#d)" stroke="#042a2a" stroke-width="12.336" stroke-linejoin="round" overflow="visible" d="M-598.252-508.477h285.733v62.081h-285.733z"/><path d="M10.99 25.233l35.621 22.91-3.227 5.147L7.746 30.397z" fill="none" stroke="#34e0e2" stroke-width="2.00003568"/><path style="marker:none" d="M40.884 26.588a8.871 8.871 0 1 1-17.742 0 8.871 8.871 0 0 1 17.742 0z" transform="translate(16.74 -4.98) scale(.78909)" color="#000" fill="none" stroke="#34e0e2" stroke-width="2.535" stroke-linejoin="round" overflow="visible"/></svg>