<svg xmlns="http://www.w3.org/2000/svg" xmlns:xlink="http://www.w3.org/1999/xlink" width="64" height="64"><defs><linearGradient id="d"><stop offset="0" stop-color="#06989a"/><stop offset="1" stop-color="#34e0e2"/></linearGradient><linearGradient id="c"><stop offset="0" stop-color="#06989a"/><stop offset="1" stop-color="#34e0e2"/></linearGradient><linearGradient id="a"><stop offset="0" stop-color="#fff"/><stop offset="1" stop-color="#fff" stop-opacity="0"/></linearGradient><linearGradient id="b"><stop offset="0" stop-color="#fff"/><stop offset="1" stop-color="#fff" stop-opacity="0"/></linearGradient><linearGradient xlink:href="#c" id="f" x1="188.607" y1="615.006" x2="206.728" y2="690.137" gradientUnits="userSpaceOnUse"/><linearGradient xlink:href="#d" id="e" x1="213.654" y1="771.666" x2="102.631" y2="450.932" gradientUnits="userSpaceOnUse"/></defs><g color="#000" stroke-linejoin="round"><path style="marker:none" d="M158.046 438.596c-92.004 0-166.438 74.628-166.438 166.632s74.434 166.438 166.438 166.438c92.004 0 166.632-74.434 166.632-166.438 0-92.004-74.628-166.632-166.632-166.632zm.097 61.68c60.623 0 104.855 44.232 104.855 104.855 0 60.623-44.232 104.855-104.855 104.855-60.624 0-104.856-44.232-104.856-104.855 0-60.623 44.232-104.855 104.856-104.855z" fill="url(#e)" stroke="#042a2a" stroke-width="12.336" overflow="visible" transform="matrix(.16213 0 0 .16213 6.36 -66.109)"/><path d="M245.714 655.22c0 26.825-21.746 48.57-48.571 48.57s-48.572-21.745-48.572-48.57c0-26.826 21.747-48.572 48.572-48.572 26.825 0 48.571 21.746 48.571 48.571z" style="marker:none" transform="matrix(-.18172 .03603 -.03603 -.18172 91.433 143.964)" fill="url(#f)" stroke="#042a2a" stroke-width="10.796" overflow="visible"/><path d="M245.714 655.22c0 26.825-21.746 48.57-48.571 48.57s-48.572-21.745-48.572-48.57c0-26.826 21.747-48.572 48.572-48.572 26.825 0 48.571 21.746 48.571 48.571z" style="marker:none" transform="matrix(-.50478 .10008 -.10008 -.50478 197.091 343.011)" fill="none" stroke="#34e0e2" stroke-width="3.886" overflow="visible"/><path d="M245.714 655.22c0 26.825-21.746 48.57-48.571 48.57s-48.572-21.745-48.572-48.57c0-26.826 21.747-48.572 48.572-48.572 26.825 0 48.571 21.746 48.571 48.571z" style="marker:none" transform="matrix(-.38363 .07606 -.07606 -.38363 157.47 268.369)" fill="none" stroke="#34e0e2" stroke-width="5.114" overflow="visible"/><path d="M245.714 655.22c0 26.825-21.746 48.57-48.571 48.57s-48.572-21.745-48.572-48.57c0-26.826 21.747-48.572 48.572-48.572 26.825 0 48.571 21.746 48.571 48.571z" style="marker:none" transform="matrix(-.14134 .02802 -.02802 -.14134 78.226 119.083)" fill="none" stroke="#34e0e2" stroke-width="13.88" overflow="visible"/></g></svg>