<svg xmlns="http://www.w3.org/2000/svg" xmlns:xlink="http://www.w3.org/1999/xlink" width="64" height="64"><defs><linearGradient id="b"><stop offset="0" stop-color="#34e0e2"/><stop offset="1" stop-color="#06989a"/></linearGradient><linearGradient id="a"><stop offset="0" stop-color="#002a2d"/><stop offset="1" stop-color="#008059" stop-opacity="0"/></linearGradient><linearGradient xlink:href="#b" id="d" x1="2802.963" y1="538.362" x2="2859.726" y2="786.056" gradientUnits="userSpaceOnUse"/><linearGradient id="c"><stop offset="0" stop-color="#34e0e2"/><stop offset="1" stop-color="#06989a"/></linearGradient><linearGradient xlink:href="#b" id="e" gradientUnits="userSpaceOnUse" x1="2802.963" y1="626.087" x2="2849.406" y2="822.179"/></defs><g transform="matrix(.19379 0 0 .19379 -516.18 -95.328)" stroke-width="10.321" stroke="#042a2a" fill="url(#d)" stroke-linejoin="round" stroke-linecap="round"><path style="marker:none" d="M2751.36 595.126v46.442h30.962l-.248-47.174h-.05c.298-25.07 20.94-45.71 46.74-45.71 25.802 0 46.443 20.64 46.443 46.442v46.442h30.962v-46.442c0-41.283-25.801-77.405-77.404-77.405-51.603 0-77.405 36.122-77.405 77.405z" fill-rule="evenodd" overflow="visible"/><path style="marker:none" fill="url(#e)" fill-rule="evenodd" overflow="visible" d="M2730.719 641.568h196.091v154.809h-196.091z"/><path style="marker:none" fill="none" stroke="#34e0e2" stroke-linejoin="miter" overflow="visible" d="M2741.04 651.889h175.45v134.168h-175.45z"/></g><path d="M19 36h26M19 44h26M19 52h26" fill="none" stroke="#06989a" stroke-width="4.000019389999999" stroke-linecap="round"/><path d="M19 28v-9c0-5 4-12 13-12s13 7 13 12v9" fill="none" stroke="#34e0e2" stroke-width="2"/></svg>