<svg xmlns="http://www.w3.org/2000/svg" xmlns:xlink="http://www.w3.org/1999/xlink" width="64" height="64"><defs><linearGradient id="a" x1="292.972" y1="4.759" x2="296.94" gradientUnits="userSpaceOnUse" y2="10.711"><stop offset="0" stop-color="#eeeeec"/><stop offset="1" stop-color="#fff"/></linearGradient><linearGradient id="b" x1="292.972" y1="4.759" x2="296.94" gradientUnits="userSpaceOnUse" y2="10.711"><stop offset="0" stop-color="#eeeeec"/><stop offset="1" stop-color="#fff"/></linearGradient><linearGradient id="c" x1="292.972" y1="4.759" x2="296.94" gradientUnits="userSpaceOnUse" y2="10.711"><stop offset="0" stop-color="#eeeeec"/><stop offset="1" stop-color="#fff"/></linearGradient><linearGradient id="k" x1="294.595" y1="12.188" x2="297.185" gradientUnits="userSpaceOnUse" xlink:href="#d" y2="13.34"/><radialGradient id="d" r="7.285" gradientTransform="matrix(1 0 0 1.0103 0 -.16)" cx="165.061" cy="23.333" gradientUnits="userSpaceOnUse"><stop offset="0" stop-color="#ef3535"/><stop offset="0" stop-color="#c91a1a"/><stop offset="1" stop-color="#ff4c4c"/></radialGradient><linearGradient id="y" x1="20.288" y1="6.46" gradientTransform="matrix(0 -1.30168 1.30168 0 .737 64.26)" x2="24.326" gradientUnits="userSpaceOnUse" xlink:href="#e" y2="23.943"/><linearGradient id="e"><stop offset="0" stop-color="#e2e2e2"/><stop offset="1" stop-color="#d8d8d8"/></linearGradient><linearGradient id="l" x1="296.486" y1="15.507" gradientTransform="matrix(0 -4.73537 4.51731 0 -20.1 1438.984)" x2="296.529" gradientUnits="userSpaceOnUse" xlink:href="#d" y2="9.877"/><linearGradient id="m" x1="292.972" y1="4.759" gradientTransform="matrix(0 -5.27626 5.38452 0 -14.76 1594.429)" x2="296.94" gradientUnits="userSpaceOnUse" xlink:href="#c" y2="10.711"/><linearGradient id="n" x1="20.288" y1="6.46" gradientTransform="matrix(0 -1.30168 1.30168 0 .737 64.26)" x2="24.326" gradientUnits="userSpaceOnUse" xlink:href="#e" y2="23.943"/><linearGradient id="o" x1="22.225" y1="23.843" x2="24.19" gradientUnits="userSpaceOnUse" xlink:href="#f" y2="22.861"/><linearGradient id="f" x1="68.175" y1="21.425" x2="74.587" gradientUnits="userSpaceOnUse" y2="27.837"><stop offset="0" stop-color="#babdb6"/><stop offset="1" stop-color="#eeeeec"/></linearGradient><radialGradient id="p" r="18.063" gradientTransform="matrix(1 0 0 .32526 0 28.086)" cx="25.188" cy="41.625" gradientUnits="userSpaceOnUse" xlink:href="#g" fy="41.625" fx="25.188"/><linearGradient id="g"><stop offset="0"/><stop offset="1" stop-opacity="0"/></linearGradient><linearGradient id="q" x1="7.185" y1="31.057" gradientTransform="matrix(0 -1.5124 1.29191 0 1.083 67.424)" x2="25.152" gradientUnits="userSpaceOnUse" xlink:href="#d" y2="50.775"/><linearGradient id="r" x1="13.825" y1="40.069" gradientTransform="matrix(0 -1.5124 1.29191 0 .82 67.732)" x2="7.67" gradientUnits="userSpaceOnUse" xlink:href="#d" y2="2.326"/><radialGradient id="s" r="8.389" gradientTransform="matrix(0 -1.30168 1.38027 0 -2.256 64.26)" cx="34.376" cy="37.5" gradientUnits="userSpaceOnUse" xlink:href="#d" fy="37.5" fx="34.376"/><linearGradient id="t" x1="298.479" y1="13.6" x2="298.869" gradientUnits="userSpaceOnUse" xlink:href="#h" y2="13.803"/><linearGradient id="h"><stop offset="0" stop-color="#df2a2a"/><stop offset="1" stop-color="#df2a2a" stop-opacity="0"/></linearGradient><linearGradient id="u" x1="298.479" y1="13.6" x2="298.869" gradientUnits="userSpaceOnUse" xlink:href="#i" y2="13.803"/><linearGradient id="i"><stop offset="0" stop-color="#9a0c00"/><stop offset="1" stop-color="#9a0c00" stop-opacity="0"/></linearGradient><linearGradient id="v" x1="296.762" y1="12.012" gradientTransform="rotate(-90 706.984 728.176) scale(4.71785)" x2="297.798" gradientUnits="userSpaceOnUse" xlink:href="#d" y2="10.947"/><linearGradient id="w" x1="39.62" y1="44.541" gradientTransform="matrix(0 -1.5124 1.29191 0 .82 70.915)" x2="-3.533" gradientUnits="userSpaceOnUse" xlink:href="#j" y2="-11.889"/><radialGradient id="j" r="7.285" gradientTransform="matrix(1 0 0 1.0103 0 -.16)" cx="165.061" cy="23.333" gradientUnits="userSpaceOnUse"><stop offset="0" stop-color="#ef3535"/><stop offset="1" stop-color="#a40000" stop-opacity="0"/></radialGradient><linearGradient y2="10.711" x2="296.94" y1="4.759" x1="292.972" gradientTransform="matrix(0 5.37302 5.38452 0 -14.76 -1555.633)" gradientUnits="userSpaceOnUse" id="x" xlink:href="#c"/></defs><path transform="matrix(0 -4.73537 4.51731 0 -20.1 1438.984)" fill="url(#k)" stroke="#9a0c00" stroke-width=".281" stroke-linecap="round" stroke-linejoin="round" d="M295.747 11.96l1.297.34h0l-.645 1.085-1.266 1.334-.4-1.046z"/><path d="M35.842 37.698c.633 1.591 2.649 1.58 3.858 2.506.932.445 1.752 1.228 2.731 1.562.671.012 1.77-.583 1.18-1.343a18.85 18.85 0 0 0-5.372-4.483c-.638-.302-1.164-1.036-1.828-1.13-.743.7-.694 1.97-.57 2.888z" fill="url(#l)"/><path d="M2.852 47.39c.09.271.189.534.283.798 2.86.833 5.752 4.693 8.6 3.225 8.305-4.89 16.72-9.746 25.091-14.6.192-.953.296-1.914.319-2.878.052-2.027-.253-4.11-.956-6.034-11.13 6.457-22.286 12.916-33.337 19.49z" fill="url(#m)" stroke="#888a85" stroke-width="1.302" stroke-linecap="round" stroke-linejoin="round"/><path d="M6.27 47.703c1.466.499 2.545 1.887 4.108 2.233 8.323-4.828 16.62-9.725 24.935-14.55.336-1.559.121-3.16-.204-4.703-.963.246-1.732.961-2.641 1.341-8.553 5.07-17.096 10.184-25.67 15.201-.197.02-.63.282-.529.478z" fill="url(#n)"/><path transform="matrix(0 -1.2755 1.30168 0 .964 63.855)" d="M24.19 23.843a.983.983 0 1 1-1.965 0 .983.983 0 1 1 1.965 0z" style="marker:none" color="#000" fill="url(#o)" overflow="visible"/><path transform="matrix(1.63498 0 0 1.06627 -9.181 11.88)" d="M43.25 41.625a18.063 5.875 0 1 1-36.125 0 18.063 5.875 0 1 1 36.125 0z" style="marker:none" opacity=".267" color="#000" fill="url(#p)" fill-rule="evenodd" overflow="visible"/><path d="M40.16 41.22c2.248-4.21 8.609-4.55 14.208-.752 5.602 3.798 8.324 10.289 6.087 14.502-2.248 4.213-8.605 4.55-14.204.752-5.6-3.796-8.321-10.289-6.09-14.502zm3.57 2.415c-.994 1.87.704 5.867 4.47 8.417 3.767 2.555 7.698 2.373 8.689.505 1-1.868-.704-5.87-4.47-8.42-3.767-2.556-7.695-2.372-8.689-.502z" fill="url(#q)" stroke="#a40000" stroke-width="1.302"/><path d="M40.547 45.613c.504 2.506 1.892 4.731 3.23 6.57.904.978 1.887 1.618 2.934 2.493 3.061 2.224 7.085 3.156 10.504 1.397 1.891-.807 2.665-3.44 2.185-5.686-.323-1.89-1.51-3.49-2.341-4.963-1.03-1.199-2.117-2.023-3.373-3.037-3.221-2.355-7.483-3.634-11.08-1.69-1.487.943-2.274 2.91-2.06 4.916zM41.798 45c.326-2.625 2.646-4.37 4.845-4.065 2.977-.027 5.785 1.492 8.115 3.545 1.825 1.845 3.55 4.359 3.431 7.373-.004 1.769-1.187 3.166-2.552 3.665-3.295.803-6.853-.253-9.551-2.56-1.983-1.767-3.758-4.158-4.22-7.116-.02-.281-.055-.561-.068-.842z" fill="url(#r)"/><path d="M40.16 24.778c2.248 4.211 8.609 4.55 14.208.752 5.602-3.798 8.324-10.289 6.087-14.501-2.248-4.213-8.605-4.55-14.204-.753-5.6 3.796-8.321 10.29-6.09 14.502zm3.57-2.415c-.994-1.87.704-5.867 4.47-8.417 3.767-2.555 7.698-2.373 8.689-.504 1 1.868-.704 5.869-4.47 8.418-3.767 2.557-7.695 2.373-8.689.503z" fill="url(#s)" stroke="#a40000" stroke-width="1.302"/><path transform="rotate(-90 706.984 728.176) scale(4.71785)" fill="url(#t)" stroke="url(#u)" stroke-width=".276" stroke-linecap="round" stroke-linejoin="round" d="M298.254 11.96l-1.298.34h0l.644 1.085 1.267 1.334.401-1.046z"/><path d="M37.103 30.213c.258.556.262 1.324.65 1.75 1.825-1.237 3.794-2.46 5.484-3.711.982-.87 1.953-1.765 2.815-2.757-1.812-.957-3.985-.176-5.451 1.057-1.171.785-2.75 1.08-3.376 2.4-.154.396-.232.847-.122 1.261z" fill="url(#v)"/><path d="M40.372 22.242c.299 1.98 1.413 3.768 3.108 4.218 3.118 1.472 6.656.28 9.407-1.666 1.751-1.434 3.814-2.525 4.913-4.737 1.202-1.915 2.46-4.35 1.693-6.792-.564-1.97-2.187-3.086-3.868-3.489-3.007-.787-6.087.385-8.639 2.222-1.19.858-2.451 1.735-3.507 2.751-1.176 1.555-2.15 3.434-2.906 5.322-.144.696-.303 1.452-.201 2.171zm1.574-.567c-.087-2.288.963-4.21 2.303-5.697 1.262-1.343 2.35-2.631 3.904-3.465 2.37-1.403 5.18-1.807 7.762-1.094 1.724.688 2.567 2.898 2.104 4.935-.298 2.58-2.175 4.188-3.655 5.892-1.863 1.96-4.528 3.177-7.137 3.268-1.324-.018-2.835.034-3.948-.909-.707-.536-1.373-1.796-1.333-2.93z" fill="url(#w)"/><path d="M15 7L3 51h16L31 7z" fill="#73d216" stroke="#172a04" stroke-width="2" stroke-linecap="round" stroke-linejoin="round"/><path d="M5.614 49L16.5 9H29L17.472 49.017z" fill="none" stroke="#8ae234" stroke-width="2"/><path d="M31 7L3 51" fill="none" stroke="#172a04" stroke-width="2"/><path d="M2.852 19.776c.09-.275.189-.543.283-.812 2.86-.848 5.752-4.779 8.6-3.284C20.04 20.66 27 25 34 29l-4 2c-4 3-4 2-4 2-11.131-6.575-12.097-6.529-23.148-13.224z" fill="url(#x)" stroke="#888a85" stroke-width="1.302" stroke-linecap="round" stroke-linejoin="round"/><path d="M6.27 19.627c.4.301 1.133.586 1.504.893C16.564 25.788 19.247 26.713 28 32l1-1c2-1 .675-.514 2.675-1.514-8.093-4.893-12.529-7.13-20.625-12.012-.504-.446-1.204-.532-1.707-.064-1.063.69-2.18 1.389-3.196 2.096l.092.091.03.03z" fill="url(#y)"/><path d="M33.888 28.936l-6.843 4.132" fill="none" stroke="#888a85" stroke-width="1.5"/></svg>