<svg xmlns="http://www.w3.org/2000/svg" xmlns:xlink="http://www.w3.org/1999/xlink" width="64" height="64"><defs><linearGradient id="b"><stop offset="0" stop-color="#babdb6"/><stop offset="1" stop-color="#eeeeec"/></linearGradient><linearGradient id="a"><stop offset="0" stop-color="#555753"/><stop offset="1"/></linearGradient><linearGradient xlink:href="#b" id="e" gradientUnits="userSpaceOnUse" x1="49" y1="1040.362" x2="39" y2="1042.362" gradientTransform="rotate(45 36.157 1003.87)"/><linearGradient xlink:href="#a" id="f" x1="40" y1="1005.362" x2="51" y2="1025.362" gradientUnits="userSpaceOnUse"/><linearGradient id="c"><stop offset="0"/><stop offset="1" stop-opacity="0"/></linearGradient><radialGradient r="18.063" fy="41.625" fx="25.188" cy="41.625" cx="25.188" gradientTransform="matrix(1 0 0 .32526 0 28.086)" gradientUnits="userSpaceOnUse" id="d" xlink:href="#c"/></defs><path transform="matrix(1.25605 0 0 .81915 -3.637 23.09)" d="M43.25 41.625c0 3.245-8.087 5.875-18.063 5.875-9.975 0-18.062-2.63-18.062-5.875s8.087-5.875 18.063-5.875c9.975 0 18.062 2.63 18.062 5.875z" style="marker:none" opacity=".267" color="#000" fill="url(#d)" fill-rule="evenodd" overflow="visible"/><path d="M26.506 1014.714l-19.799 19.799c-2.828 2.828 0 5.657 0 5.657l-3.535 6.364L6 1049.362l6.364-3.535s2.828 2.828 5.657 0l19.799-19.8z" fill="url(#e)" transform="translate(0 -988.362)"/><path d="M27.213 28.473l-19.799 19.8c-.707.706 1.337 2.905 1.337 2.905l-4.165 8.408" fill="none" stroke="#fff" stroke-width="2"/><path d="M26.506 26.352L6.707 46.15c-2.828 2.828 0 5.657 0 5.657l-3.535 6.364L6 61l6.364-3.535s2.828 2.828 5.657 0l19.799-19.8z" fill="none" stroke="#555753" stroke-width="2" stroke-linecap="round" stroke-linejoin="round"/><path d="M24.385 1011.178c1.414-1.414 4.242 0 5.657 0 1.414 0 1.414 0 2.828-2.828s-2.828-8.485 1.414-12.728c4.243-4.243 12.728-7.071 21.213 1.414 8.486 8.486 5.657 16.97 1.415 21.214-4.243 4.242-9.9 0-12.728 1.414-2.829 1.414-2.829 1.414-2.829 2.828s1.415 4.243 0 5.657c-1.414 1.414-2.121 2.121-4.242 1.414-2.122-.707 0-2.828-5.657-8.485s-7.778-3.536-8.485-5.657c-.708-2.121 0-2.828 1.414-4.243z" fill="url(#f)" transform="translate(0 -988.362)"/><path d="M25.799 24.23c1.414-1.414 4.462.036 5.657 0 1.195-.034.707.708 2.828-2.828 2.122-3.535-2.828-8.485 1.414-12.728 4.243-4.243 11.427-5.544 18.385 1.414 6.958 6.958 5.657 14.143 1.414 18.385-4.242 4.243-9.192-.707-12.727 1.414-3.536 2.122-2.829 1.415-2.829 2.829 0 1.414 1.414 4.242 0 5.657-1.414 1.414-1.414 1.414-2.121.707-.707-.707-.637-3.097-5.275-7.736-4.639-4.638-6.746-4.285-7.453-4.992-.707-.707-.707-.707.707-2.121z" fill="none" stroke="#888a85" stroke-width="2"/><path d="M24.385 22.816c1.414-1.414 4.242 0 5.657 0 1.414 0 1.414 0 2.828-2.828 1.414-2.829-2.828-8.485 1.414-12.728C38.527 3.017 47.012.189 55.497 8.674c8.486 8.485 5.657 16.97 1.415 21.213-4.243 4.243-9.9 0-12.728 1.415-2.829 1.414-2.829 1.414-2.829 2.828s1.415 4.243 0 5.657c-1.414 1.414-2.121 2.121-4.242 1.414-2.122-.707 0-2.828-5.657-8.485s-7.778-3.536-8.485-5.657c-.708-2.121 0-2.828 1.414-4.243z" fill="none" stroke="#000" stroke-width="2"/></svg>