<svg xmlns="http://www.w3.org/2000/svg" xmlns:xlink="http://www.w3.org/1999/xlink" width="64" height="64"><defs><linearGradient id="a"><stop offset="0" stop-color="#71f873"/><stop offset="1" stop-color="#009520"/></linearGradient><linearGradient id="b"><stop offset="0" stop-color="#c8f9d7"/><stop offset="1" stop-color="#63ca72"/></linearGradient><linearGradient id="c"><stop offset="0"/><stop offset="1" stop-opacity="0"/></linearGradient><radialGradient r="18.063" fy="41.625" fx="25.188" cy="41.625" cx="25.188" gradientTransform="matrix(1 0 0 .32526 0 28.086)" gradientUnits="userSpaceOnUse" id="d" xlink:href="#c"/></defs><path transform="matrix(1.63498 0 0 1.06627 -9.181 12.352)" d="M43.25 41.625a18.063 5.875 0 1 1-36.125 0 18.063 5.875 0 1 1 36.125 0z" style="marker:none" opacity=".267" color="#000" fill="url(#d)" fill-rule="evenodd" overflow="visible"/><path d="M33 5l18 8-32-4 14-4" fill="#8ae234"/><path d="M19 9L9 19l42-6z" fill="#8ae234"/><path d="M51 13l6 20L9 19l42-6" fill="#73d216"/><path d="M12 18l44 13" fill="none" stroke="#8ae234" stroke-width="2"/><path d="M57 33H7l2-14z" fill="#73d216"/><path d="M55 32l-6-19M8 31h42M16 20l35-5" fill="none" stroke="#8ae234" stroke-width="2"/><path d="M7 33l42 16 8-16z" fill="#4e9a06"/><path d="M49 33L9 21" fill="none" stroke="#8ae234" stroke-width="2"/><path d="M48 47l7-14" fill="none" stroke="#73d216" stroke-width="2"/><path d="M11 20L9 33" fill="none" stroke="#8ae234" stroke-width="2"/><path d="M49 49l-36-2-6-14z" fill="#4e9a06"/><path d="M56 35H13M43 47l-31-2M13 34l36 13" fill="none" stroke="#73d216" stroke-width="2"/><path d="M49 49l-16 6-20-8z" fill="#4e9a06"/><path d="M15 47L9 34M19 48l16 6M8 35l33 13" fill="none" stroke="#73d216" stroke-width="2"/><path d="M33 5l18 8-32-4 14-4" fill="none" stroke="#172a04" stroke-width="2" stroke-linecap="round" stroke-linejoin="round"/><path d="M19 9L9 19l42-6z" fill="none" stroke="#172a04" stroke-width="2" stroke-linecap="round" stroke-linejoin="round"/><path d="M51 13l6 20L9 19l42-6" fill="none" stroke="#172a04" stroke-width="2" stroke-linecap="round" stroke-linejoin="round"/><path d="M57 33H7l2-14zM7 33l42 16 8-16z" fill="none" stroke="#172a04" stroke-width="2" stroke-linecap="round" stroke-linejoin="round"/><path d="M31 54l14-5" fill="none" stroke="#73d216" stroke-width="2"/><path d="M49 49l-36-2-6-14z" fill="none" stroke="#172a04" stroke-width="2" stroke-linecap="round" stroke-linejoin="round"/><path d="M19 49l26 1" fill="none" stroke="#73d216" stroke-width="2"/><path d="M49 49l-16 6-20-8z" fill="none" stroke="#172a04" stroke-width="2" stroke-linecap="round" stroke-linejoin="round"/></svg>