<svg xmlns="http://www.w3.org/2000/svg" xmlns:xlink="http://www.w3.org/1999/xlink" width="64" height="64"><defs><linearGradient id="a"><stop offset="0" stop-color="#68ff00"/><stop offset="1" stop-color="#078b00"/></linearGradient><linearGradient id="b"><stop offset="0" stop-color="#8ae234"/><stop offset="1" stop-color="#4e9a06"/></linearGradient><linearGradient id="c"><stop offset="0" stop-color="#8ae234"/><stop offset="1" stop-color="#4e9a06"/></linearGradient><linearGradient id="d"><stop offset="0" stop-color="#ef2929"/><stop offset="1" stop-color="#a40000"/></linearGradient><linearGradient y2="60" x2="12" y1="48" x1="16" gradientTransform="translate(-28.145 -19.781)" gradientUnits="userSpaceOnUse" id="e" xlink:href="#d"/></defs><path d="M19 21l12-4v16l-12 4z" fill="#4e9a06"/><path d="M19 35l14-6" fill="none" stroke="#73d216" stroke-width="2"/><path d="M5 14l14 7v16L5 29z" fill="#73d216"/><path d="M21 21v14" fill="none" stroke="#73d216" stroke-width="2"/><path d="M33 15L19 9 5 15l14 6z" fill="#8ae234" stroke="#172a04" stroke-width="2" stroke-linecap="round" stroke-linejoin="round"/><path d="M31 17v14" fill="none" stroke="#73d216" stroke-width="2"/><path d="M32 15H5" fill="none" stroke="#172a04" stroke-width="2" stroke-linecap="round" stroke-linejoin="round"/><path d="M33 17l-14 6" fill="none" stroke="#73d216" stroke-width="2"/><path d="M33 15L19 37" fill="none" stroke="#172a04" stroke-width="2" stroke-linecap="round" stroke-linejoin="round"/><path d="M19 21l14-6v16l-14 6z" fill="none" stroke="#172a04" stroke-width="2" stroke-linejoin="round"/><path d="M19 35L5 28M7 28V17M5 17l14 6M17 35V21" fill="none" stroke="#8ae234" stroke-width="2"/><path d="M5 15l14 6v16L5 29z" fill="none" stroke="#172a04" stroke-width="2" stroke-linejoin="round"/><path d="M19 21L5 29" fill="none" stroke="#172a04" stroke-width="2" stroke-linecap="round" stroke-linejoin="round"/><path d="M37 17v36h24V25l-8-8z" fill="none"/><path d="M37 17v36h24V25l-8-8z" fill="#fff"/><path d="M53 17v8h8z" fill="#888a85"/><path d="M53 17v8h8" fill="none" stroke="#2e3436" stroke-width="2" stroke-linejoin="round"/><path d="M41 21h8M41 31h16" fill="none" stroke="#2e3436" stroke-width="2" stroke-linecap="round"/><path fill="#73d216" stroke="#172a04" stroke-width="2" stroke-linecap="round" stroke-linejoin="round" d="M45 37h12v12H45z"/><path d="M45 37l12 12" fill="none" stroke="#172a04" stroke-width="2"/><path d="M41 25h8" fill="none" stroke="#2e3436" stroke-width="2" stroke-linecap="round"/><path d="M37 17v36h24V25l-8-8z" fill="none" stroke="#2e3436" stroke-width="2" stroke-linecap="round" stroke-linejoin="round"/><path style="marker:none" d="M-12.145 40.219l12-8-12-8v4h-12v8h12z" fill="url(#e)" overflow="visible" transform="matrix(-1 0 0 1 6.855 18.781)"/><path d="M17 55v-2h12v-6" fill="none" stroke="#ef2929" stroke-width="2" stroke-linejoin="round"/><path d="M19.182 56.59L9.136 49.865" fill="none" stroke="#ef2929" stroke-width="2"/><path d="M19 53l-2 2" fill="none" stroke="#ef2929"/><path style="marker:none" d="M19 59L7 51l12-8v4h12v8H19z" fill="none" stroke="#340404" stroke-width="2.2" stroke-linecap="round" stroke-linejoin="round" overflow="visible"/></svg>