<svg xmlns="http://www.w3.org/2000/svg" width="64" height="64"><defs><linearGradient id="a"><stop offset="0" stop-color="#71b2f8"/><stop offset="1" stop-color="#002795"/></linearGradient><linearGradient id="b"><stop offset="0" stop-color="#faff2b"/><stop offset="1" stop-color="#fa0"/></linearGradient><linearGradient id="c"><stop offset="0" stop-color="#faff2b"/><stop offset="1" stop-color="#fa0"/></linearGradient><linearGradient id="d"><stop offset="0" stop-color="#faff2b"/><stop offset="1" stop-color="#fa0"/></linearGradient></defs><path d="M19 55l24-22 18 22z" fill="#4e9a06"/><path d="M22 53h36M58.436 55.044L42 34.89" fill="none" stroke="#73d216" stroke-width="2"/><path d="M7 7l34-2-14 22z" fill="#73d216"/><path d="M7 7L5 39l22-12L7 7" fill="#73d216"/><path d="M43.967 34.837l-22.141 20.25" fill="none" stroke="#73d216" stroke-width="2"/><path d="M7 38L9 9l31-2" fill="none" stroke="#8ae234" stroke-width="2"/><path d="M38 6L26 26 5 37" fill="none" stroke="#8ae234" stroke-width="2"/><path d="M7 9l1 1 17.154 18.062M27.877 25.139L9.63 6.83" fill="none" stroke="#8ae234" stroke-width="2"/><path d="M7 7l34-2-14 22z" fill="none" stroke="#172a04" stroke-width="2" stroke-linecap="round" stroke-linejoin="round"/><path d="M7 7L5 39l22-12L7 7M19 55l24-22 18 22z" fill="none" stroke="#172a04" stroke-width="2" stroke-linecap="round" stroke-linejoin="round"/><g transform="translate(-39.243 -31.757)" fill="#c00" stroke-width="2" stroke-linecap="round" stroke-linejoin="round"><rect transform="scale(-1 1) rotate(45)" ry="2" y="110.137" x="-19.971" height="6" width="36.77" stroke="#280000"/><rect transform="rotate(45)" ry="2" y="-4.586" x="94.752" height="6" width="36.77" stroke="#280000"/><rect transform="rotate(-45)" ry="0" y="112.147" x="-4.893" height="2" width="13" stroke="#c00"/></g><path d="M39.13 48.436l-9.498 9.542M52.72 34.878l-9.564 9.608M31.03 34.813l-1.477 1.476" fill="none" stroke="#ef2929" stroke-width="2" stroke-linecap="round"/></svg>