<svg xmlns="http://www.w3.org/2000/svg" xmlns:xlink="http://www.w3.org/1999/xlink" width="64" height="64"><defs><linearGradient id="b"><stop offset="0" stop-color="#3465a4"/><stop offset="1" stop-color="#3465a4" stop-opacity="0"/></linearGradient><linearGradient id="a"><stop offset="0" stop-color="#00fd00"/><stop offset="1" stop-color="#00fd00" stop-opacity="0"/></linearGradient><linearGradient xlink:href="#b" id="c" x1="17.662" y1="12.138" x2="18.212" y2="15.856" gradientUnits="userSpaceOnUse" gradientTransform="matrix(2.07692 0 0 2.07692 -.322 -32.3)"/></defs><path d="M5 35L51 5l8 54z" fill="#73d216"/><path d="M9.361 36.288L50.375 9.936M47.04 8.299l7.249 47.223M58.082 53.834L8 32" fill="none" stroke="#8ae234" stroke-width="4.154"/><path d="M5 35L51 5l8 54z" fill="none" stroke="#172a04" stroke-width="4.154" stroke-linecap="round" stroke-linejoin="round"/><path d="M25.196 14.792c0 2.006-2.262 3.631-5.052 3.631-2.79 0-5.052-1.625-5.052-3.63 0-2.006 2.262-3.631 5.052-3.631 2.79 0 5.052 1.625 5.052 3.63z" transform="matrix(1.86072 0 0 2.00202 .565 2.277)" fill="#204a87" stroke="#0b1521" stroke-width="2.152"/><path d="M32.909.735C32.199-3.224 40.337-4.836 43-1" fill="none" stroke="url(#c)" stroke-width="4.154" transform="translate(0 32)"/></svg>