<svg xmlns="http://www.w3.org/2000/svg" xmlns:xlink="http://www.w3.org/1999/xlink" width="64" height="64"><defs><linearGradient id="f"><stop offset="0" stop-color="#729fcf"/><stop offset="1" stop-color="#729fcf" stop-opacity="0"/></linearGradient><linearGradient id="e"><stop offset="0" stop-color="#729fcf"/><stop offset="1" stop-color="#729fcf" stop-opacity="0"/></linearGradient><linearGradient id="a"><stop offset="0" stop-color="#71b2f8"/><stop offset="1" stop-color="#002795"/></linearGradient><linearGradient id="b"><stop offset="0" stop-color="#faff2b"/><stop offset="1" stop-color="#fa0"/></linearGradient><linearGradient id="c"><stop offset="0" stop-color="#faff2b"/><stop offset="1" stop-color="#fa0"/></linearGradient><linearGradient id="d"><stop offset="0" stop-color="#faff2b"/><stop offset="1" stop-color="#fa0"/></linearGradient><linearGradient xlink:href="#e" id="h" x1="43" y1="13" x2="58" y2="34" gradientUnits="userSpaceOnUse"/><linearGradient xlink:href="#f" id="g" x1="43" y1="49" x2="55" y2="34" gradientUnits="userSpaceOnUse"/></defs><path d="M33 15L43 5v6s17 0 17 24c0 20-17 20-17 20v6L33 51l10-10v6s10 0 10-12c0-16-10-16-10-16v6z" fill="#3465a4"/><path d="M11 19l30 16L7 47z" fill="#73d216"/><path d="M11.142 21.345l24.873 13.279L9.43 44.038l3.277-22.559" fill="none" stroke="#8ae234" stroke-width="2"/><path d="M11 19l30 16L7 47z" fill="none" stroke="#172a04" stroke-width="2" stroke-linecap="round" stroke-linejoin="round"/><g fill="#888a85"><path d="M16.413 13.315h5v20h-5zM12.413 13.315h12.992L18.91 5.213z"/><path stroke="#000" stroke-width="2" stroke-linecap="round" stroke-linejoin="round" d="M16.405 13.315h4v20h-4z"/><path transform="matrix(-.82554 0 0 .64358 94.355 3.535)" d="M99.268 15.196H84.732L92 2.608z" stroke="#000" stroke-width="2.744" stroke-linecap="round" stroke-linejoin="round"/><path d="M17.405 11.815h2v2.7h-2z"/></g><path d="M42.867 7.95l-8.24 8.258M42.849 44.007l-8.19 8.15M44 13c-3 0-3-1-3-3" fill="none" stroke="#729fcf" stroke-width="2"/><path d="M33 15L43 5v6s17 0 17 24c0 20-17 20-17 20v6L33 51l10-10v6s10 0 10-12c0-16-10-16-10-16v6z" fill="none" stroke="#0b1521" stroke-width="2" stroke-linecap="round" stroke-linejoin="round"/><path d="M43 49s12 0 12-15" fill="none" stroke="url(#g)" stroke-width="2"/><path d="M43 13s15 0 15 21" fill="none" stroke="url(#h)" stroke-width="2"/><path d="M44 49c-3 0-3-1-3-3" fill="none" stroke="#729fcf" stroke-width="2"/></svg>