<svg xmlns="http://www.w3.org/2000/svg" width="64" height="64"><defs><linearGradient id="a"><stop offset="0" stop-color="#010cf9"/><stop offset=".154" stop-color="#229bb7"/><stop offset=".308" stop-color="#44cb75"/><stop offset=".5" stop-color="#36fa0c"/><stop offset=".654" stop-color="#f7f501"/><stop offset=".885" stop-color="#f57f01"/><stop offset="1" stop-color="#f90b01"/></linearGradient></defs><g stroke-width="1.932"><path d="M19.573 49.217l4-29.857 16-3.732z" fill="#c00" stroke="#280000" stroke-linecap="round" stroke-linejoin="round" transform="matrix(1 0 0 1.07176 13.427 6.25)"/><path d="M24 56l18-32" transform="translate(9 -1)" fill="none" stroke="#ef2929" stroke-width="2" stroke-linecap="round"/><path d="M19.573-3.033l20 18.66-16 3.733z" fill="#fce94f" stroke="#2c2700" stroke-linecap="round" stroke-linejoin="round" transform="matrix(1 0 0 1.07176 13.427 6.25)"/><path d="M23.573 21.226l14-3.732" fill="none" stroke="#ef2929" stroke-linecap="round" transform="matrix(1 0 0 1.07176 13.427 6.25)"/><path d="M25.573 19.36l-3.164 23.68" fill="none" stroke="#ef2929" transform="matrix(1 0 0 1.07176 13.427 6.25)"/><path d="M19.573 49.217l4-29.857 16-3.732z" fill="none" stroke="#280000" stroke-linecap="round" stroke-linejoin="round" transform="matrix(1 0 0 1.07176 13.427 6.25)"/></g><path d="M33 59L13 19l24 8z" fill="#3465a4" stroke="#0b1521" stroke-width="2" stroke-linecap="round" stroke-linejoin="round"/><path d="M15 21l22 8" fill="none" stroke="#729fcf" stroke-width="2"/><path d="M33 55L15 19" fill="none" stroke="#729fcf" stroke-width="2" stroke-linecap="round"/><path d="M35 27l-3.55 27.95" fill="none" stroke="#729fcf" stroke-width="2"/><path d="M33 59L13 19l24 8z" fill="none" stroke="#0b1521" stroke-width="2" stroke-linecap="round" stroke-linejoin="round"/><path d="M13 19L33 3l4 24z" fill="#8ae234" stroke="#172a04" stroke-width="2" stroke-linecap="round" stroke-linejoin="round"/></svg>