<svg xmlns="http://www.w3.org/2000/svg" xmlns:xlink="http://www.w3.org/1999/xlink" width="64" height="64"><defs><linearGradient id="g"><stop offset="0" stop-color="#8ae234"/><stop offset="1" stop-color="#73d216"/></linearGradient><linearGradient id="e"><stop offset="0" stop-color="#8ae234"/><stop offset="1" stop-color="#4e9a06"/></linearGradient><linearGradient id="a"><stop offset="0" stop-color="#faff2b"/><stop offset="1" stop-color="#fa0"/></linearGradient><linearGradient id="b"><stop offset="0" stop-color="#c8ff43"/><stop offset="1" stop-color="#04aa00"/></linearGradient><linearGradient id="c"><stop offset="0" stop-color="#71b2f8"/><stop offset="1" stop-color="#002795"/></linearGradient><linearGradient id="d"><stop offset="0" stop-color="#faff2b"/><stop offset="1" stop-color="#fa0"/></linearGradient><linearGradient xlink:href="#e" id="k" x1="34" y1="18" x2="57" y2="24" gradientUnits="userSpaceOnUse" gradientTransform="translate(2 2)"/><linearGradient id="f"><stop offset="0" stop-color="#8ae234"/><stop offset="1" stop-color="#4e9a06"/></linearGradient><linearGradient xlink:href="#g" id="l" x1="99.075" y1="16.47" x2="117.815" y2="15.977" gradientUnits="userSpaceOnUse"/><linearGradient xlink:href="#g" id="m" x1="36.719" y1="35.689" x2="56" y2="35.689" gradientUnits="userSpaceOnUse" gradientTransform="translate(2 2)"/><linearGradient id="h"><stop offset="0"/><stop offset="1" stop-opacity="0"/></linearGradient><radialGradient r="18.063" fy="41.625" fx="25.188" cy="41.625" cx="25.188" gradientTransform="matrix(1 0 0 .32526 0 28.086)" gradientUnits="userSpaceOnUse" id="j" xlink:href="#h"/><linearGradient id="i"><stop offset="0"/><stop offset="1" stop-opacity="0"/></linearGradient><radialGradient r="18.063" fy="41.625" fx="25.188" cy="41.625" cx="25.188" gradientTransform="matrix(1 0 0 .32526 0 28.086)" gradientUnits="userSpaceOnUse" id="n" xlink:href="#i"/></defs><path transform="matrix(1.25605 0 0 .81915 -7.637 17.09)" d="M43.25 41.625a18.063 5.875 0 1 1-36.125 0 18.063 5.875 0 1 1 36.125 0z" style="marker:none" opacity=".267" color="#000" fill="url(#j)" fill-rule="evenodd" overflow="visible"/><path d="M59 9v30c-8.066 3.211-12.47 2.315-23 0V9z" fill="url(#k)" stroke="#172a04" stroke-width="2" stroke-linecap="round" stroke-linejoin="round"/><path d="M57 12v26" fill="none" stroke="#73d216" stroke-width="2"/><path d="M119.569 12.5a11.569 5.272 0 1 1 0-.008" transform="matrix(1.01026 .01793 -.13756 .68071 -59.826 .012)" fill="#73d216" stroke="url(#l)" stroke-width="1.91" stroke-linecap="round" stroke-linejoin="round"/><path d="M59 37c-8.669 3.398-15.28 2.207-22 0" fill="none" stroke="url(#m)" stroke-width="2"/><path d="M36 39V9h23v30" fill="none" stroke="#172a04" stroke-width="2" stroke-linecap="round" stroke-linejoin="round"/><path d="M5 23v24l20 8V29L5 23" fill="#73d216"/><path d="M5 45l20 8" fill="none" stroke="#8ae234" stroke-width="2"/><path d="M25 55V29l16-6v24l-16 8" fill="#4e9a06"/><path d="M7 48V24" fill="none" stroke="#8ae234" stroke-width="2"/><path d="M25 53l16-8" fill="none" stroke="#73d216" stroke-width="2"/><path d="M5 25l20 6" fill="none" stroke="#8ae234" stroke-width="2"/><path d="M51 41L39 11" fill="none" stroke="#172a04" stroke-width="2"/><path d="M41 23l-22-6-14 6 20 6z" fill="#8ae234"/><path d="M23 29v24" fill="none" stroke="#8ae234" stroke-width="2"/><path d="M39 47V25" fill="none" stroke="#73d216" stroke-width="2"/><path d="M5 23v24l20 8V29L5 23" fill="none" stroke="#172a04" stroke-width="2" stroke-linecap="round" stroke-linejoin="round"/><path d="M41 25l-16 6" fill="none" stroke="#73d216" stroke-width="2"/><path d="M25 55V29l16-6v24l-16 8" fill="none" stroke="#172a04" stroke-width="2" stroke-linecap="round" stroke-linejoin="round"/><path d="M27 30v22" fill="none" stroke="#73d216" stroke-width="2"/><path d="M41 23l-22-6-14 6 20 6z" fill="none" stroke="#172a04" stroke-width="2" stroke-linecap="round" stroke-linejoin="round"/><path d="M5 23l20 32M5 23h36M25 55l16-32" fill="none" stroke="#172a04" stroke-width="2"/><path d="M119.569 12.5a11.569 5.272 0 1 1 0-.008" transform="matrix(1.01026 .01793 -.13756 .68071 -59.888 -1.653)" fill="#8ae234" stroke="#172a04" stroke-width="1.91" stroke-linecap="round" stroke-linejoin="round"/><path d="M51 41V12M59 31l-8-19" fill="none" stroke="#172a04" stroke-width="2"/><path transform="matrix(.84948 0 0 .61702 26.604 15.691)" d="M43.25 41.625a18.063 5.875 0 1 1-36.125 0 18.063 5.875 0 1 1 36.125 0z" style="marker:none" opacity=".267" color="#000" fill="url(#n)" fill-rule="evenodd" overflow="visible"/><path d="M46 6l-7 5" fill="none" stroke="#172a04" stroke-width="2" stroke-linecap="round"/><path d="M51 13l-4-8M51 13l5-7" fill="none" stroke="#172a04" stroke-width="2"/></svg>