<svg xmlns="http://www.w3.org/2000/svg" width="64" height="64"><defs><linearGradient id="a"><stop offset="0" stop-color="#71b2f8"/><stop offset="1" stop-color="#002795"/></linearGradient><linearGradient id="b"><stop offset="0" stop-color="#faff2b"/><stop offset="1" stop-color="#fa0"/></linearGradient><linearGradient id="c"><stop offset="0" stop-color="#faff2b"/><stop offset="1" stop-color="#fa0"/></linearGradient><linearGradient id="d"><stop offset="0" stop-color="#faff2b"/><stop offset="1" stop-color="#fa0"/></linearGradient></defs><path d="M34.008 50l-6-27" fill="none" stroke="#8ae234" stroke-width="4"/><path d="M4.008 35l24-12 6 28z" fill="#73d216"/><path d="M34.008 50l19-22" fill="none" stroke="#8ae234" stroke-width="4"/><path d="M34.008 51l24 8-4-32z" fill="#73d216"/><path d="M54.008 27l-26-4 6 28z" fill="#73d216"/><path d="M6.64 35.898l21.696-10.843 23.883 3.687 3.43 27.36-21.032-6.993L6.351 33.992" fill="none" stroke="#8ae234" stroke-width="2"/><path d="M4.008 35l24-12 6 28zM34.008 51l24 8-4-32z" fill="none" stroke="#172a04" stroke-width="2" stroke-linecap="round" stroke-linejoin="round"/><path d="M54.008 27l-26-4 6 28z" fill="none" stroke="#172a04" stroke-width="2" stroke-linecap="round" stroke-linejoin="round"/><path d="M26.601 26.031l4.586 21.43M30.656 25.766l4.492 20.843L50.39 28.195M52.555 31.867L37.422 50.055" fill="none" stroke="#8ae234" stroke-width="2"/><g fill="#888a85"><path d="M20.015 17h5v20h-5zM16.015 17h12.993L22.51 8.898z"/><path stroke="#000" stroke-width="2" stroke-linecap="round" stroke-linejoin="round" d="M20.007 17h4v20h-4z"/><path transform="matrix(-.82554 0 0 .64358 97.958 7.22)" d="M99.268 15.196H84.732L92 2.608z" stroke="#000" stroke-width="2.744" stroke-linecap="round" stroke-linejoin="round"/><path d="M21.007 16h2v2h-2z"/></g><g fill="#888a85"><path d="M36.015 13h5v20h-5zM32.015 13h12.993L38.51 4.898z"/><path stroke="#000" stroke-width="2" stroke-linecap="round" stroke-linejoin="round" d="M36.007 13h4v20h-4z"/><path transform="matrix(-.82554 0 0 .64358 113.958 3.22)" d="M99.268 15.196H84.732L92 2.608z" stroke="#000" stroke-width="2.744" stroke-linecap="round" stroke-linejoin="round"/><path d="M37.007 12h2v2h-2z"/></g><g fill="#888a85"><path d="M46.008 26h5v20h-5zM42.008 26H55l-6.496-8.102z"/><path stroke="#000" stroke-width="2" stroke-linecap="round" stroke-linejoin="round" d="M46 26h4v20h-4z"/><path transform="matrix(-.82554 0 0 .64358 123.95 16.22)" d="M99.268 15.196H84.732L92 2.608z" stroke="#000" stroke-width="2.744" stroke-linecap="round" stroke-linejoin="round"/><path d="M47 25h2v2h-2z"/></g></svg>