<svg xmlns="http://www.w3.org/2000/svg" xmlns:xlink="http://www.w3.org/1999/xlink" width="64" height="64"><defs><linearGradient id="a"><stop offset="0" stop-color="#faff2b"/><stop offset="1" stop-color="#fa0"/></linearGradient><linearGradient id="b"><stop offset="0" stop-color="#ef2929"/><stop offset="1" stop-color="#a40000"/></linearGradient><linearGradient y2="56" x2="20.94" y1="50.469" x1="14.824" gradientTransform="rotate(33.834 20.28 56.144)" gradientUnits="userSpaceOnUse" id="c" xlink:href="#b"/></defs><g stroke-width="3.5"><path d="M31 11v20l-12 8V19z" fill="#204a87"/><path d="M163.876 121.795l17.892-14.532M178.786 114.529V78.197M181.768 78.197L163.876 92.73M166.858 85.464v36.331" fill="none" stroke="#3465a4" stroke-width="3.292" transform="matrix(.67067 0 0 .55048 -90.907 -30.046)"/><path d="M19 39L3 31V11l16 8z" fill="#3465a4"/><path d="M160.894 89.097v32.698M140.02 107.263l23.856 14.532M143.001 110.896V78.197" fill="none" stroke="#729fcf" stroke-width="3.292" transform="matrix(.67067 0 0 .55048 -90.907 -30.046)"/><path d="M181.768 74.564v36.332l-17.892 14.532V89.097z" fill="none" stroke="#0b1521" stroke-width="3.292" stroke-linecap="round" stroke-linejoin="round" transform="matrix(.67067 0 0 .55048 -90.907 -30.046)"/><path d="M163.876 92.73l-23.857-14.533" fill="none" stroke="#729fcf" stroke-width="3.292" transform="matrix(.67067 0 0 .55048 -90.907 -30.046)"/><path d="M163.876 125.428l-23.857-14.532V74.564l23.857 14.533z" fill="none" stroke="#0b1521" stroke-width="3.292" stroke-linecap="round" stroke-linejoin="round" transform="matrix(.67067 0 0 .55048 -90.907 -30.046)"/><path d="M181.768 74.564l-17.892 14.533-23.857-14.533 17.893-14.533 23.856 14.533" fill="#729fcf" stroke="#0b1521" stroke-width="3.292" stroke-linecap="round" stroke-linejoin="round" transform="matrix(.67067 0 0 .55048 -90.907 -30.046)"/><path d="M61 33v20l-12 8V41z" fill="#4e9a06"/><path d="M208.607 161.76l17.893-14.533M223.518 154.494v-36.332M226.5 118.162l-17.893 14.533M211.59 125.428v36.332" fill="none" stroke="#73d216" stroke-width="3.292" transform="matrix(.67067 0 0 .55048 -90.907 -30.046)"/><path d="M49 61l-16-8V33l16 8z" fill="#73d216"/><path d="M205.625 129.062v32.698M184.75 147.227l23.857 14.533M187.733 150.86v-32.698" fill="none" stroke="#8ae234" stroke-width="3.292" transform="matrix(.67067 0 0 .55048 -90.907 -30.046)"/><path d="M226.5 114.529v36.332l-17.893 14.532v-36.331z" fill="none" stroke="#172a04" stroke-width="3.292" stroke-linecap="round" stroke-linejoin="round" transform="matrix(.67067 0 0 .55048 -90.907 -30.046)"/><path d="M208.607 132.695l-23.856-14.533" fill="none" stroke="#8ae234" stroke-width="3.292" transform="matrix(.67067 0 0 .55048 -90.907 -30.046)"/><path d="M208.607 165.393l-23.856-14.532v-36.332l23.856 14.533z" fill="none" stroke="#172a04" stroke-width="3.292" stroke-linecap="round" stroke-linejoin="round" transform="matrix(.67067 0 0 .55048 -90.907 -30.046)"/><path d="M226.5 114.529l-17.893 14.533-23.856-14.533 17.892-14.533L226.5 114.53" fill="#8ae234" stroke="#172a04" stroke-width="3.292" stroke-linecap="round" stroke-linejoin="round" transform="matrix(.67067 0 0 .55048 -90.907 -30.046)"/><path d="M184.75 114.529h41.75M184.75 150.86l23.857-21.798M208.607 165.393L226.5 114.53" fill="none" stroke="#172a04" stroke-width="3.292" stroke-linecap="round" stroke-linejoin="round" transform="matrix(.67067 0 0 .55048 -90.907 -30.046)"/></g><path style="marker:none" d="M14.578 56.964L29 57l-5.513-13.327-2.228 3.323-9.967-6.682-4.455 6.646 9.968 6.681z" fill="url(#c)" overflow="visible"/><path d="M18.466 54.755l1.114-1.662-9.968-6.681 3.34-4.984" fill="none" stroke="#ef2929" stroke-width="2" stroke-linejoin="round"/><path d="M15.768 54.861l12.09.006" fill="none" stroke="#ef2929" stroke-width="2"/><path d="M17.919 51.98l.547 2.775" fill="none" stroke="#ef2929"/><path d="M27.041 56.357l-4.285-10.36" fill="none" stroke="#ef2929" stroke-width="2"/><path style="marker:none" d="M15.059 56.727l14.422.037-5.513-13.327-2.228 3.323-9.967-6.682-4.455 6.645 9.968 6.682z" fill="none" stroke="#340404" stroke-width="2.2" stroke-linecap="round" stroke-linejoin="round" overflow="visible"/></svg>