<svg xmlns="http://www.w3.org/2000/svg" xmlns:xlink="http://www.w3.org/1999/xlink" width="64" height="64"><defs><linearGradient id="a"><stop offset="0"/><stop offset="1" stop-opacity="0"/></linearGradient><radialGradient r="18.063" fy="41.625" fx="25.188" cy="41.625" cx="25.188" gradientTransform="matrix(1 0 0 .32526 0 28.086)" gradientUnits="userSpaceOnUse" id="b" xlink:href="#a"/></defs><path transform="matrix(1.63498 0 0 1.06627 -9.181 9.352)" d="M43.25 41.625c0 3.245-8.087 5.875-18.063 5.875-9.975 0-18.062-2.63-18.062-5.875s8.087-5.875 18.063-5.875c9.975 0 18.062 2.63 18.062 5.875z" style="marker:none" opacity=".267" color="#000" fill="url(#b)" fill-rule="evenodd" overflow="visible"/><path d="M139.574 149.874l12.306-10.64 33.657 5.77-14.683 12.335z" fill="#8ae234" stroke="#172a04" stroke-width="2.103" stroke-linecap="round" stroke-linejoin="round" transform="matrix(-.21096 .9775 .88385 .19075 -82.022 -158.02)"/><path d="M21 7l12 4v30l-12-2z" fill="#73d216"/><path d="M33 11l10 16v28L33 41z" fill="#4e9a06"/><path d="M181.852 184.856l-11.195 15.43-24.993-8.228 8.819-13.735z" fill="#73d216" stroke="#172a04" stroke-width="2.103" stroke-linecap="round" stroke-linejoin="round" transform="matrix(-.21096 .9775 .88385 .19075 -82.022 -158.02)"/><path d="M59 47L49 35 47 7l10 14z" fill="#4e9a06"/><path d="M141.529 150.34l1.378 13.906M141.374 161.618l28.348 6.765M168.322 170.312l.577-13.44M170.432 159.502l-30.303-7.233" fill="none" stroke="#8ae234" stroke-width="2.103" transform="matrix(-.21096 .9775 .88385 .19075 -82.022 -158.02)"/><path d="M139.574 149.874l1.378 13.906 29.325 6.999.577-13.44z" fill="none" stroke="#172a04" stroke-width="2.103" stroke-linecap="round" stroke-linejoin="round" transform="matrix(-.21096 .9775 .88385 .19075 -82.022 -158.02)"/><path d="M147.373 167.575l24.437 5.833M178.92 184.156l-11.575-14.077M176.41 181.294l-23.46-5.6M157.415 179.023l-12.85-14.458" fill="none" stroke="#73d216" stroke-width="2.103" transform="matrix(-.21096 .9775 .88385 .19075 -82.022 -158.02)"/><path d="M140.952 163.78l13.53 14.543 27.37 6.533-11.575-14.077z" fill="none" stroke="#172a04" stroke-width="2.103" stroke-linecap="round" stroke-linejoin="round" transform="matrix(-.21096 .9775 .88385 .19075 -82.022 -158.02)"/><path d="M136.6 180.843l25.97 8.462M158.519 186.566l8.61 12.35M168.147 197.424l-24.016-7.995M148.749 192.576l-11.121-13.724" fill="none" stroke="#73d216" stroke-width="2.103" transform="matrix(-.21096 .9775 .88385 .19075 -82.022 -158.02)"/><path d="M170.657 200.286l-9.62-13.61-26.948-8.695 11.575 14.077z" fill="none" stroke="#172a04" stroke-width="2.103" stroke-linecap="round" stroke-linejoin="round" transform="matrix(-.21096 .9775 .88385 .19075 -82.022 -158.02)"/></svg>