<svg xmlns="http://www.w3.org/2000/svg" xmlns:xlink="http://www.w3.org/1999/xlink" width="182mm" height="773.541" viewBox="0 0 182 204.666"><defs><linearGradient id="a"><stop offset="0"/><stop offset="1" stop-opacity="0"/></linearGradient><radialGradient xlink:href="#a" id="b" gradientUnits="userSpaceOnUse" gradientTransform="matrix(-1.43728 .66148 -1.25855 -2.59747 449.843 441.831)" cx="110" cy="155.53" fx="110" fy="155.53" r="35.066"/></defs><path d="M105 25.924v42.298H75.6l42 40.933h16.8l42-40.933h-28v-61.4c-16.8 23.196-32.2 2.73-43.4 19.102z" fill="none" stroke="#c8c8c8" stroke-width="3"/><path d="M75.6 68.222h100.8l-42 40.933h-16.8z" fill="#c8c8c8" stroke="#c8c8c8" stroke-width="4.146"/><path d="M12 95.6h84l24 21.4v100" fill="url(#b)" stroke="#000" stroke-width="3" transform="translate(-12 -13.734)"/><path d="M84 81.866v-48.6M109 103.266v-70M58 43.266h81M108 103.266h60M158 83.266v50" fill="none" stroke="#000"/><path d="M74 40.266l9 3-9 3zM120 46.266l-9-3 9-3zM160.844 93.188l-2.8 8.187-2.8-8.187zM160.844 121.188l-2.8-8.187-2.8 8.187z" fill-opacity=".987" stroke="#000" stroke-width="1.382"/><path d="M126 111.266h42" fill="none" stroke="#000"/><path d="M126 0v129.622" fill="none" stroke="#000" stroke-dasharray="8,2,1,2"/><text style="line-height:1.25;-inkscape-font-specification:'URW Bookman L, Normal';font-variant-ligatures:normal;font-variant-caps:normal;font-variant-numeric:normal;font-feature-settings:normal;text-align:start" x="30.719" y="67.321" transform="matrix(1.01295 0 0 .98722 -12 -13.734)" font-weight="400" font-size="34.925" font-family="URW Bookman L" letter-spacing="0" word-spacing="0" stroke-width=".366"><tspan x="30.719" y="67.321" style="-inkscape-font-specification:'URW Bookman L, Normal';font-variant-ligatures:normal;font-variant-caps:normal;font-variant-numeric:normal;font-feature-settings:normal;text-align:start">W</tspan></text><text style="line-height:1.25;-inkscape-font-specification:'URW Bookman L, Normal';font-variant-ligatures:normal;font-variant-caps:normal;font-variant-numeric:normal;font-feature-settings:normal;text-align:start" x="154.067" y="177.718" transform="matrix(1.01295 0 0 .98722 -12 -13.734)" font-weight="400" font-size="34.925" font-family="URW Bookman L" letter-spacing="0" word-spacing="0" stroke-width=".366"><tspan x="154.067" y="177.718" style="-inkscape-font-specification:'URW Bookman L, Normal';font-variant-ligatures:normal;font-variant-caps:normal;font-variant-numeric:normal;font-feature-settings:normal;text-align:start">h</tspan></text></svg>