<svg xmlns="http://www.w3.org/2000/svg" xmlns:xlink="http://www.w3.org/1999/xlink" width="64" height="64"><defs><linearGradient id="a"><stop offset="0" stop-color="#71b2f8"/><stop offset="1" stop-color="#002795"/></linearGradient><linearGradient id="b"><stop offset="0" stop-color="#faff2b"/><stop offset="1" stop-color="#fa0"/></linearGradient><linearGradient id="c"><stop offset="0" stop-color="#faff2b"/><stop offset="1" stop-color="#fa0"/></linearGradient><linearGradient id="d"><stop offset="0" stop-color="#faff2b"/><stop offset="1" stop-color="#fa0"/></linearGradient><linearGradient id="e"><stop offset="0"/><stop offset="1" stop-opacity="0"/></linearGradient><radialGradient r="18.063" fy="41.625" fx="25.188" cy="41.625" cx="25.188" gradientTransform="matrix(1 0 0 .32526 0 28.086)" gradientUnits="userSpaceOnUse" id="f" xlink:href="#e"/></defs><path transform="matrix(1.65225 0 0 1.12766 -9.616 8.436)" d="M43.25 41.625a18.063 5.875 0 1 1-36.125 0 18.063 5.875 0 1 1 36.125 0z" style="marker:none" opacity=".267" color="#000" fill="url(#f)" fill-rule="evenodd" overflow="visible"/><path d="M5 11v36l30 12V20L5 11" fill="#73d216"/><path d="M5 45l30 12" fill="none" stroke="#8ae234" stroke-width="2"/><path d="M35 59V20l24-9v36L35 59" fill="#4e9a06"/><path d="M7 48V12" fill="none" stroke="#8ae234" stroke-width="2"/><path d="M35 57l24-12" fill="none" stroke="#73d216" stroke-width="2"/><path d="M5 13l30 9" fill="none" stroke="#8ae234" stroke-width="2"/><path d="M59 11L33 3 5 11l30 9z" fill="#8ae234"/><path d="M33 20v36" fill="none" stroke="#8ae234" stroke-width="2"/><path d="M57 47V14" fill="none" stroke="#73d216" stroke-width="2"/><path d="M5 11v36l30 12V20L5 11" fill="none" stroke="#172a04" stroke-width="2" stroke-linecap="round" stroke-linejoin="round"/><path d="M59 13l-24 9" fill="none" stroke="#73d216" stroke-width="2"/><path d="M35 59V20l24-9v36L35 59" fill="none" stroke="#172a04" stroke-width="2" stroke-linecap="round" stroke-linejoin="round"/><path d="M37 20v36" fill="none" stroke="#73d216" stroke-width="2"/><path d="M59 11L33 3 5 11l30 9z" fill="none" stroke="#172a04" stroke-width="2" stroke-linecap="round" stroke-linejoin="round"/><path d="M5 11l30 48M6 11h52M35 59l24-48" fill="none" stroke="#172a04" stroke-width="2"/></svg>