<svg xmlns="http://www.w3.org/2000/svg" xmlns:xlink="http://www.w3.org/1999/xlink" width="64" height="64"><defs><linearGradient id="b"><stop offset="0" stop-color="#faff2b"/><stop offset="1" stop-color="#fa0"/></linearGradient><linearGradient id="c"><stop offset="0" stop-color="#faff2b"/><stop offset="1" stop-color="#fa0"/></linearGradient><linearGradient id="a"><stop offset="0" stop-color="#8ae234"/><stop offset="1" stop-color="#4e9a06"/></linearGradient><linearGradient id="d"><stop offset="0"/><stop offset="1" stop-opacity="0"/></linearGradient><radialGradient r="18.063" fy="41.625" fx="25.188" cy="41.625" cx="25.188" gradientTransform="matrix(1 0 0 .32526 0 28.086)" gradientUnits="userSpaceOnUse" id="e" xlink:href="#d"/><radialGradient xlink:href="#d" id="g" cx="15.918" cy="53.56" fx="15.918" fy="53.56" r="29" gradientTransform="matrix(.00126 .6425 -1.39905 .00274 105.935 63.44)" gradientUnits="userSpaceOnUse"/><radialGradient xlink:href="#a" id="f" cx="15.95" cy="53.318" fx="15.95" fy="53.318" r="29.5" gradientTransform="matrix(.00123 .6316 -1.37534 .00269 104.332 63.596)" gradientUnits="userSpaceOnUse"/></defs><path transform="matrix(1.65225 0 0 1.12766 -7.742 -.146)" d="M43.25 41.625a18.063 5.875 0 1 1-36.125 0 18.063 5.875 0 1 1 36.125 0z" style="marker:none" opacity=".267" color="#000" fill="url(#e)" fill-rule="evenodd" overflow="visible"/><path d="M61 86a29 15 0 1 1-58 0 29 15 0 1 1 58 0z" transform="rotate(-31.13 -75.66 57.895)" fill="url(#f)" stroke="url(#g)"/><path transform="matrix(.79696 -.48132 .44805 .74187 -33.008 -22.104)" d="M61 86a29 15 0 1 1-58 0 29 15 0 1 1 58 0z" fill="none" stroke="#8ae234" stroke-width="2.226" stroke-miterlimit="3.984"/><path d="M55.85 11.302A29 15-31.13 1 1 6.202 41.287 29 15-31.13 1 1 55.85 11.302zM20.45 45.533c5.974-9.45 19.67-17.721 32.527-19.645" fill="none" stroke="#172a04" stroke-width="2" stroke-miterlimit="3.984"/><path d="M6.202 41.287L55.85 11.302" fill="none" stroke="#172a04" stroke-width="2"/><path d="M9.076 26.701c11.145-.89 24.84-9.161 32.528-19.645" fill="none" stroke="#172a04" stroke-width="2" stroke-miterlimit="3.984"/><path d="M9.076 26.701C7.042 34.94 12.21 43.5 20.449 45.533M18.992 16.04c-3.051 12.356 3.152 22.628 15.51 25.68M23.272 13.455l15.51 25.68M41.604 7.056C49.842 9.09 55.01 17.65 52.977 25.888M27.552 10.87c12.357 3.05 18.56 13.323 15.51 25.68" fill="none" stroke="#172a04" stroke-width="2"/></svg>