<svg xmlns="http://www.w3.org/2000/svg" xmlns:xlink="http://www.w3.org/1999/xlink" width="64" height="64"><defs><linearGradient id="c"><stop offset="0" stop-color="#8ae234"/><stop offset="1" stop-color="#4e9a06"/></linearGradient><linearGradient id="a"><stop offset="0" stop-color="#0f0"/><stop offset="1" stop-color="#0f7d0f"/></linearGradient><linearGradient id="b"><stop offset="0"/><stop offset="1" stop-opacity="0"/></linearGradient><radialGradient r="18.063" fy="41.625" fx="25.188" cy="41.625" cx="25.188" gradientTransform="matrix(1 0 0 .32526 0 28.086)" gradientUnits="userSpaceOnUse" id="d" xlink:href="#b"/><radialGradient xlink:href="#c" id="e" cx="43.68" cy="27.062" fx="43.68" fy="27.062" r="30.115" gradientUnits="userSpaceOnUse" gradientTransform="matrix(-1.05892 .76636 -.6949 -.96296 87.205 1.858)"/></defs><path transform="matrix(1.65225 0 0 1.12766 -7.616 8.436)" d="M43.25 41.625a18.063 5.875 0 1 1-36.125 0 18.063 5.875 0 1 1 36.125 0z" style="marker:none" opacity=".267" color="#000" fill="url(#d)" fill-rule="evenodd" overflow="visible"/><path d="M64 33a29 29 0 1 1-58 0 29 29 0 1 1 58 0z" transform="matrix(.7931 0 0 .7931 4.241 2.828)" fill="url(#e)" stroke="#8ae234" stroke-width="2.626"/><path d="M64 33a29 29 0 1 1-58 0 29 29 0 1 1 58 0z" transform="matrix(.86207 0 0 .86207 1.828 .552)" fill="none" stroke="#172a04" stroke-width="2.417"/><path d="M32 4v50M32 54C16.483 49.69 16.483 8.31 32 4" fill="none" stroke="#172a04" stroke-width="2.083"/><path d="M25.966 4.862c-19.828 10.345-18.104 37.931 0 48.276" fill="none" stroke="#172a04" stroke-width="2.083" stroke-linecap="round" stroke-linejoin="round"/><path d="M32 54c15.517-4.31 15.517-45.69 0-50" fill="none" stroke="#172a04" stroke-width="2.083"/><path d="M38.034 4.862c19.828 10.345 18.104 37.931 0 48.276" fill="none" stroke="#172a04" stroke-width="2.083" stroke-linecap="round" stroke-linejoin="round"/><g stroke-width="2.417" fill="none" stroke="#172a04"><path d="M57 28.138H7M9.586 40.207h44.828M10.448 16.069h43.104M7 28.138c15.517 0 35.345-8.62 40.517-18.966M9.586 40.207c15.517 0 41.38-6.897 46.552-17.241M10.448 16.069c15.518 0 26.724-6.897 29.31-10.345M20.793 51.414c15.517 0 29.31-7.759 33.62-11.207" stroke-width="2.08362319"/></g></svg>