<svg xmlns="http://www.w3.org/2000/svg" xmlns:xlink="http://www.w3.org/1999/xlink" width="64" height="64"><defs><linearGradient id="b"><stop offset="0" stop-color="#8ae234"/><stop offset="1" stop-color="#4e9a06"/></linearGradient><linearGradient id="a"><stop offset="0" stop-color="#0f0"/><stop offset="1" stop-color="#0f7d0f"/></linearGradient><linearGradient id="c"><stop offset="0" stop-color="#8ae234"/><stop offset="1" stop-color="#4e9a06"/></linearGradient><linearGradient id="d"><stop offset="0"/><stop offset="1" stop-opacity="0"/></linearGradient><radialGradient r="18.063" fy="41.625" fx="25.188" cy="41.625" cx="25.188" gradientTransform="matrix(1 0 0 .32526 0 28.086)" gradientUnits="userSpaceOnUse" id="f" xlink:href="#d"/><linearGradient id="e"><stop offset="0"/><stop offset="1" stop-opacity="0"/></linearGradient><radialGradient xlink:href="#b" id="g" gradientUnits="userSpaceOnUse" gradientTransform="matrix(.17241 .31034 -.84977 .4721 32.866 23.864)" spreadMethod="reflect" cx="-42.161" cy="8.94" fx="-42.161" fy="8.94" r="29"/></defs><path transform="matrix(1.65225 0 0 1.12766 -7.616 -.648)" d="M43.25 41.625a18.063 5.875 0 1 1-36.125 0 18.063 5.875 0 1 1 36.125 0z" style="marker:none" opacity=".267" color="#000" fill="url(#f)" fill-rule="evenodd" overflow="visible"/><path d="M32 9C15.984 9 3 16.611 3 26s12.984 17 29 17 29-7.611 29-17S48.016 9 32 9zm.156 12.063c5.998-.05 9.217 1.68 10.563 3.093-.68 1.477-4.635 3.973-10.625 3.907-6.262-.07-9.642-2.127-10.782-3.875.978-1.358 4.541-3.073 10.844-3.125z" fill="url(#g)" stroke="#172a04" stroke-width="2.035" stroke-linecap="round" stroke-linejoin="round" stroke-miterlimit="3.984"/><path d="M62 31a28 17 0 1 1-56 0 28 17 0 1 1 56 0z" transform="matrix(.96429 0 0 .88235 -.786 -1.353)" fill="none" stroke="#8ae234" stroke-width="2.207" stroke-linecap="round" stroke-linejoin="round" stroke-miterlimit="3.984"/><path d="M32 17c-6.627 0-12 2.686-12 6s5.373 6 12 6 12-2.686 12-6-5.373-6-12-6zm.188 4c5.997-.05 9.216 1.681 10.562 3.094-.68 1.476-4.634 3.973-10.625 3.906-6.261-.07-9.642-2.127-10.781-3.875.978-1.357 4.54-3.073 10.843-3.125z" fill="none" stroke="#172a04" stroke-width="2" stroke-linecap="round" stroke-linejoin="round" stroke-miterlimit="3.984"/><path d="M44 23c5-7 15-4 17 2M38.952 27.871C43.952 24.871 47 35 45 41" fill="none" stroke="#172a04" stroke-width="2"/><g fill="none" stroke="#172a04" stroke-width="2"><path d="M20 23c-5-7-15-4-17 2M25.048 27.871C20.048 24.871 17 35 19 41M23 22c5-8-1-11-2-12M41 22c-5-8 1-11 2-12"/></g><path d="M62 31a28 17 0 1 1-56 0 28 17 0 1 1 56 0z" transform="matrix(.625 0 0 .60345 10.75 3.034)" fill="none" stroke="#172a04" stroke-width="3.314" stroke-linecap="round" stroke-linejoin="round" stroke-miterlimit="3.984"/><path d="M60.5 24.145c-2.963 9.227-18.125 15.298-33.865 13.562C14.43 36.36 5.042 30.607 3.29 23.398" fill="none" stroke="#172a04" stroke-width="2.035" stroke-linecap="round" stroke-linejoin="round" stroke-miterlimit="3.984"/><path d="M31.094 20.094a28.53 28.53 0 0 0-1.219.062c-4.61.346-8.325 1.799-9.5 3.688H21c-.008-.012-.024-.02-.031-.032.978-1.357 4.54-3.072 10.843-3.125 5.998-.05 9.217 1.682 10.563 3.094-.056.123-.15.24-.25.375l1.688.032c-1.101-2.548-6.655-4.289-12.72-4.094z" fill="none" stroke="#172a04" stroke-width="2" stroke-linecap="round" stroke-linejoin="round" stroke-miterlimit="3.984"/></svg>