<svg xmlns="http://www.w3.org/2000/svg" xmlns:xlink="http://www.w3.org/1999/xlink" width="64" height="64"><defs><linearGradient id="a"><stop offset="0" stop-color="#0f0"/><stop offset="1" stop-color="#0f7d0f"/></linearGradient><radialGradient r="18.063" fy="41.625" fx="25.188" cy="41.625" cx="25.188" gradientTransform="matrix(1 0 0 .32526 0 28.086)" gradientUnits="userSpaceOnUse" id="h" xlink:href="#b"/><linearGradient id="b"><stop offset="0"/><stop offset="1" stop-opacity="0"/></linearGradient><linearGradient xlink:href="#c" id="g" x1="36.719" y1="35.689" x2="56" y2="35.689" gradientUnits="userSpaceOnUse" gradientTransform="matrix(1.5601 0 0 1.5601 -40.044 .08)"/><linearGradient id="c"><stop offset="0" stop-color="#8ae234"/><stop offset="1" stop-color="#73d216"/></linearGradient><linearGradient xlink:href="#c" id="f" x1="99.075" y1="16.47" x2="117.815" y2="15.977" gradientUnits="userSpaceOnUse"/><linearGradient id="d"><stop offset="0" stop-color="#8ae234"/><stop offset="1" stop-color="#4e9a06"/></linearGradient><linearGradient y2="24" x2="57" y1="18" x1="34" gradientTransform="matrix(1.5601 0 0 1.5601 -40.044 -1.92)" gradientUnits="userSpaceOnUse" id="e" xlink:href="#d"/></defs><path d="M48.882 9v46.803c-6.882 3-11.882 4-17.882 4-6 0-11-1-18-4V9z" fill="url(#e)" stroke="#172a04" stroke-width="2" stroke-linecap="round" stroke-linejoin="round"/><path d="M47 13.803v41" fill="none" stroke="#73d216" stroke-width="2"/><path d="M119.569 12.5a11.569 5.272 0 1 1 0-.008" transform="matrix(1.53068 .02805 -.20843 1.065 -131.518 -5.322)" fill="#73d216" stroke="url(#f)" stroke-width="1.543" stroke-linecap="round" stroke-linejoin="round"/><path d="M49 53.803c-7 3-12 4-18 4-5.657 0-11-1-18-4" fill="none" stroke="url(#g)" stroke-width="2"/><path d="M13 55.803v-47h36l-.118 47" fill="none" stroke="#172a04" stroke-width="2" stroke-linecap="round" stroke-linejoin="round"/><path d="M35 59.803l-16-48" fill="none" stroke="#172a04" stroke-width="2"/><path d="M119.327 12.5a11.327 5.53 0 1 1 0-.009" transform="matrix(1.58594 .02796 -.21595 1.06137 -137.532 -7.61)" fill="#8ae234" stroke="#172a04" stroke-width="1.543" stroke-linecap="round" stroke-linejoin="round"/><path d="M35 58.803v-45M48.882 43.322L35 13.803" fill="none" stroke="#172a04" stroke-width="2"/><path transform="matrix(1.03607 0 0 .75255 4.148 28.061)" d="M43.25 41.625a18.063 5.875 0 1 1-36.125 0 18.063 5.875 0 1 1 36.125 0z" style="marker:none" opacity=".267" color="#000" fill="url(#h)" fill-rule="evenodd" overflow="visible"/><path d="M29 3.803l-10 8" fill="none" stroke="#172a04" stroke-width="2" stroke-linecap="round"/><path d="M35 13.803l-6-10M35 13.803l9.202-9.483M19 57.803v-45M19 57.803l-6-18" fill="none" stroke="#172a04" stroke-width="2"/></svg>