<svg xmlns:osb="http://www.openswatchbook.org/uri/2009/osb" xmlns="http://www.w3.org/2000/svg" xmlns:xlink="http://www.w3.org/1999/xlink" width="64" height="64"><defs><linearGradient id="b"><stop offset="0" stop-color="#8ae234"/><stop offset="1" stop-color="#4e9a06"/></linearGradient><linearGradient id="a" osb:paint="gradient"><stop offset="0" stop-color="#0f0"/><stop offset="1" stop-color="#0f7d0f"/></linearGradient><linearGradient xlink:href="#b" id="e" x1="29" y1="22" x2="36" y2="23" gradientUnits="userSpaceOnUse"/><linearGradient id="c"><stop offset="0"/><stop offset="1" stop-opacity="0"/></linearGradient><radialGradient r="18.063" fy="41.625" fx="25.188" cy="41.625" cx="25.188" gradientTransform="matrix(1 0 0 .32526 0 28.086)" gradientUnits="userSpaceOnUse" id="d" xlink:href="#c"/></defs><path transform="matrix(1.65225 0 0 1.12766 -9.616 10.436)" d="M43.25 41.625a18.063 5.875 0 1 1-36.125 0 18.063 5.875 0 1 1 36.125 0z" style="marker:none" opacity=".267" color="#000" fill="url(#d)" fill-rule="evenodd" overflow="visible"/><path d="M32 3L7 48s3 9 25 9 25-9 25-9L32 3" fill="url(#e)"/><path d="M56 46s-2 9-24 9-24-9-24-9M56 50L32 7" fill="none" stroke="#8ae234" stroke-width="2"/><path d="M32 3L7 48s3 9 25 9 25-9 25-9L32 3" fill="none" stroke="#172a04" stroke-width="2" stroke-linecap="round" stroke-linejoin="round"/><path d="M49 54L32 4l7 52M25 56l7-52-17 50" fill="none" stroke="#172a04" stroke-width="2"/></svg>