<svg xmlns="http://www.w3.org/2000/svg" xmlns:xlink="http://www.w3.org/1999/xlink" width="64" height="64"><defs><linearGradient id="a"><stop offset="0" stop-color="#06989a"/><stop offset="1" stop-color="#34e0e2"/></linearGradient><linearGradient xlink:href="#a" id="c" x1="1699.697" y1="1840.596" x2="2044.969" y2="1629.285" gradientUnits="userSpaceOnUse" gradientTransform="matrix(.25535 -.95296 .96517 .25862 -283.464 3042.73)"/><linearGradient id="b"><stop offset="0" stop-color="#003ddd"/><stop offset="1" stop-color="#639ef0"/></linearGradient></defs><g stroke-width="14.605" stroke-linecap="round"><path d="M1880.537 1902.914c106.149-2.36 189.811-89.49 186.75-194.491-3.06-105.002-91.692-188.303-197.84-185.944-55.94 1.243-105.626 26.028-139.67 64.565l-44.12-35.106-37.46 176.056 178.556-51.198-41.483-45.577c22.104-24.014 53.73-39.38 89.234-40.168 69.123-1.536 126.831 52.701 128.824 121.078 1.993 68.376-52.478 125.137-121.601 126.673-19.778.44-38.604-3.703-55.475-11.423l-31.395 57.775c26.034 11.996 55.118 18.439 85.68 17.76z" style="marker:none" fill="url(#c)" fill-rule="evenodd" stroke="#042a2a" stroke-linejoin="round" overflow="visible" transform="matrix(.13694 0 0 .13694 -222.218 -203.365)"/><path d="M35.917 55.128c10.804-.21 19.023-7.52 22.134-17.827 4.437-14.704-7.627-26.913-16.609-29.354C27.65 4.2 18.24 12.508 14.713 16.567l-4.518-3.555-3.907 17.327 17.916-5.1-4.966-5.181c8.081-7.655 13.966-8.656 20.957-6.893C47.35 14.97 56.392 23.92 53.672 35.692c-2.365 10.232-11.36 14.396-18.478 14.595-2.383.293-4.647-.313-6.45-.85l-2.407 4.41c2.812.905 6.301 1.345 9.58 1.281z" style="marker:none" fill="none" stroke="#34e0e2" overflow="visible" stroke-width="2.0000087"/></g></svg>