<svg xmlns="http://www.w3.org/2000/svg" xmlns:xlink="http://www.w3.org/1999/xlink" height="64" width="64"><defs><linearGradient id="f"><stop offset="0" stop-color="#73d216"/><stop offset="1" stop-color="#8ae234"/></linearGradient><linearGradient id="d"><stop offset="0" stop-color="#4e9a06"/><stop offset="1" stop-color="#73d216"/></linearGradient><linearGradient id="c"><stop offset="0" stop-color="#204a87"/><stop offset="1" stop-color="#3465a4"/></linearGradient><linearGradient id="b"><stop offset="0" stop-color="#204a87"/><stop offset="1" stop-color="#3465a4"/></linearGradient><linearGradient id="a"><stop offset="0" stop-color="#3465a4"/><stop offset="1" stop-color="#729fcf"/></linearGradient><linearGradient xlink:href="#a" id="l" x1="20.542" y1="59.068" x2="16.271" y2="32.627" gradientUnits="userSpaceOnUse" gradientTransform="translate(2 -4)"/><linearGradient xlink:href="#b" id="i" x1="22.19" y1="32.75" x2="19.919" y2="22.827" gradientUnits="userSpaceOnUse" gradientTransform="translate(2 -4)"/><linearGradient xlink:href="#c" id="k" x1="52.622" y1="44.595" x2="48.399" y2="31.844" gradientUnits="userSpaceOnUse" gradientTransform="translate(2 -4)"/><linearGradient xlink:href="#d" id="h" x1="32.066" y1="49.814" x2="30.51" y2="26.323" gradientUnits="userSpaceOnUse" gradientTransform="translate(2 -4)"/><linearGradient id="e"><stop offset="0" stop-color="#4e9a06"/><stop offset="1" stop-color="#73d216"/></linearGradient><linearGradient xlink:href="#f" id="j" gradientUnits="userSpaceOnUse" gradientTransform="translate(25.95 -44.873)" x1="29" y1="41" x2="28" y2="27"/><linearGradient id="g"><stop offset="0" stop-color="#4e9a06"/><stop offset="1" stop-color="#73d216"/></linearGradient></defs><path d="M11 43l22 6 22-24-22-5z" fill="url(#h)" stroke="#172a04" stroke-width="2" stroke-linejoin="round"/><path d="M33.676 22.216L14.547 41.887l17.8 4.861L51.204 26.17z" fill="none" stroke="#73d216" stroke-width="2"/><path d="M11 42.68L33 20V7L11 29z" fill="url(#i)" fill-rule="evenodd" stroke="#0b1521" stroke-width="2" stroke-linejoin="round"/><path d="M12.955 29.839L32 10.33l-.511 9.073-18.524 18.418z" fill="none" stroke="#3465a4" stroke-width="2"/><g stroke-width="2"><path d="M34.95 2.127l22 6L69.216-9.737 51.34-15.312z" fill="url(#j)" stroke="#172a04" stroke-linejoin="round" transform="translate(-15.95 26.873)"/><path d="M36.02 13.92L22.763 27.984l17.585 4.765 11.904-13.771z" fill="none" stroke="#8ae234"/></g><path d="M41 37l20-22v20L41 59z" fill="url(#k)" fill-rule="evenodd" stroke="#0b1521" stroke-width="2" stroke-linejoin="round"/><path d="M33 35l8 2v22L3 49V27l8 2v14l22 6z" fill="url(#l)" fill-rule="evenodd" stroke="#0b1521" stroke-width="2" stroke-linejoin="round"/><path d="M5 29.576v17.865l34 8.932V38.559l-4-.991.017 14.025L9 44.543V30.575z" fill="none" stroke="#729fcf" stroke-width="2"/><path d="M42.983 37.847l16.045-17.65L59 34.22 42.966 53.593z" fill="none" stroke="#3465a4" stroke-width="2"/><path d="M3 27l8 2 14.763-14.763L33 7l-8-2zM41 37l-8-2 21-22 7 2z" fill="#729fcf" fill-rule="evenodd" stroke="#0b1521" stroke-width="2" stroke-linejoin="round"/><path d="M23.542 16.56l21.526 5.694L54 13 33 7z" fill="#8ae234" stroke="#172a04" stroke-width="2" stroke-linejoin="round"/></svg>