<svg xmlns="http://www.w3.org/2000/svg" xmlns:xlink="http://www.w3.org/1999/xlink" width="64" height="64"><defs><linearGradient id="t"><stop offset="0" stop-color="#8ae234"/><stop offset="1" stop-color="#4e9a06"/></linearGradient><linearGradient id="p"><stop offset="0" stop-opacity=".5"/><stop offset="1" stop-color="#fff" stop-opacity="0"/></linearGradient><linearGradient id="s"><stop offset="0" stop-color="#fff"/><stop offset="1" stop-color="#999"/></linearGradient><linearGradient id="f"><stop offset="0" stop-color="#fff110"/><stop offset="1" stop-color="#cf7008"/></linearGradient><pattern id="a" patternTransform="matrix(.66773 -1.0037 2.42619 2.31145 3.476 3.535)" height="1" width="2" patternUnits="userSpaceOnUse"><path d="M0-.5h1v2H0z"/></pattern><pattern id="b" patternTransform="matrix(.66773 -1.0037 2.42619 2.31145 3.476 3.535)" height="1" width="2" patternUnits="userSpaceOnUse"><path d="M0-.5h1v2H0z"/></pattern><pattern patternTransform="matrix(.66773 -1.0037 2.42619 2.31145 -26.336 10.887)" id="c" xlink:href="#d"/><pattern id="d" patternTransform="matrix(.66773 -1.0037 2.42619 2.31145 3.476 3.535)" height="1" width="2" patternUnits="userSpaceOnUse"><path d="M0-.5h1v2H0z"/></pattern><pattern id="e" patternTransform="matrix(.66773 -1.0037 2.42619 2.31145 3.476 3.535)" height="1" width="2" patternUnits="userSpaceOnUse"><path d="M0-.5h1v2H0z"/></pattern><linearGradient id="g"><stop offset="0" stop-color="#fff110"/><stop offset="1" stop-color="#cf7008"/></linearGradient><linearGradient id="h"><stop offset="0" stop-color="#fff"/><stop offset="1" stop-color="#999"/></linearGradient><linearGradient id="i"><stop offset="0" stop-color="#fff"/><stop offset="1" stop-color="#999"/></linearGradient><linearGradient id="j"><stop offset="0" stop-color="#fff"/><stop offset="1" stop-color="#999"/></linearGradient><linearGradient id="k"><stop offset="0" stop-color="#fff"/><stop offset="1" stop-color="#999"/></linearGradient><radialGradient r="16.529" fy="37.968" fx="24.13" cy="37.968" cx="24.13" gradientTransform="matrix(1 0 0 .23797 0 28.933)" gradientUnits="userSpaceOnUse" id="B" xlink:href="#l"/><linearGradient id="l"><stop offset="0"/><stop offset="1" stop-opacity="0"/></linearGradient><linearGradient gradientUnits="userSpaceOnUse" y2="31.494" x2="24.092" y1="2.166" x1="14.999" id="C" xlink:href="#m" gradientTransform="matrix(.98972 0 0 1.0229 .202 .025)"/><linearGradient id="m"><stop offset="0" stop-color="#8a8a8a"/><stop offset="1" stop-color="#484848"/></linearGradient><linearGradient xlink:href="#n" id="D" x1="30.656" y1="34" x2="33.219" y2="31.063" gradientUnits="userSpaceOnUse" gradientTransform="matrix(1.32087 0 0 1.32085 -6.7 -7.607)"/><linearGradient id="n"><stop offset="0" stop-color="#7d7d7d"/><stop offset=".5" stop-color="#b1b1b1"/><stop offset="1" stop-color="#686868"/></linearGradient><linearGradient gradientUnits="userSpaceOnUse" y2="25.743" x2="17.501" y1="13.602" x1="18.293" id="E" xlink:href="#o"/><linearGradient id="o"><stop offset="0" stop-color="#fff"/><stop offset=".5" stop-color="#fff" stop-opacity=".219"/><stop offset="1" stop-color="#fff"/></linearGradient><linearGradient id="r"><stop offset="0" stop-color="#fff"/><stop offset="1" stop-color="#fff" stop-opacity="0"/></linearGradient><radialGradient xlink:href="#q" id="F" cx="18.241" cy="21.818" fx="18.241" fy="21.818" r="8.309" gradientUnits="userSpaceOnUse"/><linearGradient id="q"><stop offset="0" stop-color="#729fcf" stop-opacity=".208"/><stop offset="1" stop-color="#729fcf" stop-opacity=".676"/></linearGradient><radialGradient xlink:href="#r" id="G" cx="15.414" cy="13.078" fx="15.414" fy="13.078" r="6.656" gradientTransform="matrix(2.5663 0 0 2.30366 -24.6 -19.35)" gradientUnits="userSpaceOnUse"/><linearGradient xlink:href="#t" id="x" x1="28" y1="17" x2="34" y2="53" gradientUnits="userSpaceOnUse"/><linearGradient id="u"><stop offset="0" stop-color="#8ae234"/><stop offset="1" stop-color="#4e9a06"/></linearGradient><linearGradient id="v"><stop offset="0" stop-color="#d3d7cf"/><stop offset="1" stop-color="#888a85"/></linearGradient><linearGradient xlink:href="#w" id="y" gradientUnits="userSpaceOnUse" x1="35.06" y1="53.009" x2="27.286" y2="7.312"/><linearGradient id="w"><stop offset="0" stop-color="#888a85"/><stop offset="1" stop-color="#d3d7cf"/></linearGradient><linearGradient xlink:href="#w" id="z" gradientUnits="userSpaceOnUse" x1="35.06" y1="53.009" x2="27.286" y2="7.312"/><linearGradient xlink:href="#w" id="A" gradientUnits="userSpaceOnUse" x1="35.06" y1="53.009" x2="27.286" y2="7.312"/></defs><path d="M6 52V31c0-9 8-17 17-8 4.844 5.448 5 22 17 16s18-11 18-11" fill="none" stroke="#172a04" stroke-width="8" stroke-linecap="round" stroke-linejoin="round"/><path d="M6 52V31c0-9 8-17 17-8 4.844 5.448 5 22 17 16s18-11 18-11" fill="none" stroke="url(#x)" stroke-width="4" stroke-linecap="round" stroke-linejoin="round"/><path d="M5.164 50.959V30.023c0-9 9.607-16.486 18.607-7.486C28.615 27.985 28.9 43.637 40 38.023 51.1 32.408 57.55 27.15 57.55 27.15" fill="none" stroke="#8ae234" stroke-width="2" stroke-linecap="round" stroke-linejoin="round"/><g stroke-width="2.027"><g fill="url(#y)" stroke="#2e3436" stroke-linejoin="round" transform="matrix(.97351 0 0 1 20.848 -9)"><path style="marker:none" d="M22.755 28v9l18.49-8v-9zm18.49 3l-18.49 8v9l18.49-8zm0 11l-18.49 8L32 56l9.245-6z" color="#000" fill="url(#z)" overflow="visible"/><path d="M22.755 26V12h18.49v6z" fill="url(#A)"/></g><path d="M24.827 29.3l.028 4.491 14.32-6.093.024-4.645zm14.361 4.788l-14.374 6.23.015 4.59 14.39-6.225zm-.02 11L27.01 50.323l4.974 3.278 7.175-4.66z" style="marker:none" color="#000" fill="none" stroke="#d3d7cf" overflow="visible" transform="matrix(.97351 0 0 1 20.848 -9)"/></g><path d="M68.272 17l.014 8.948 11.29-6.185.001-2.763z" fill="none" stroke="#d3d7cf" stroke-width="1.797" transform="matrix(1.23837 0 0 1 -39.546 -12)"/><g transform="translate(8.953 15.76)" color="#000"><ellipse ry="3.933" rx="16.529" cy="37.968" cx="24.13" style="marker:none" transform="matrix(1.44643 0 0 1.51999 -10.975 -17.752)" overflow="visible" opacity=".27" fill="url(#B)" fill-rule="evenodd"/><path d="M18.639 3.24c-8.056 0-14.594 6.757-14.594 15.082 0 8.326 6.538 15.083 14.594 15.083 3.443 0 6.483-1.416 8.98-3.48-.203 1.03-.077 2.081.748 2.822l10.852 9.746c1.22 1.096 3.055.952 4.116-.31a3.08 3.08 0 0 0-.3-4.253l-10.851-9.746c-.665-.597-1.478-.773-2.283-.657 1.967-2.57 3.33-5.676 3.33-9.205 0-8.325-6.537-15.082-14.592-15.082zm-.075 1.254c7.56 0 13.155 4.899 13.155 13.596 0 8.874-5.757 13.597-13.155 13.597-7.228 0-13.155-5.604-13.155-13.597 0-8.166 5.764-13.596 13.155-13.596z" style="marker:none" fill="#dcdcdc" fill-rule="evenodd" stroke="url(#C)" stroke-width="2" stroke-linecap="round" stroke-miterlimit="10" overflow="visible"/><path style="marker:none" d="M18.614 3.175c-8.081 0-14.64 6.78-14.64 15.132s6.559 15.13 14.64 15.13c3.455 0 6.505-1.42 9.01-3.491-.204 1.033-.078 2.089.75 2.832l10.887 9.777c1.225 1.1 3.065.956 4.13-.31a3.09 3.09 0 0 0-.301-4.268L32.203 28.2c-.666-.599-1.482-.776-2.29-.66 1.973-2.578 3.342-5.694 3.342-9.233 0-8.353-6.56-15.132-14.64-15.132zm-.075 3.26c6.217 0 11.262 5.214 11.262 11.639 0 6.425-5.045 11.64-11.262 11.64-6.217 0-11.262-5.215-11.262-11.64 0-6.425 5.045-11.64 11.262-11.64z" fill="#dcdcdc" fill-rule="evenodd" overflow="visible"/><path style="marker:none" d="M39.303 42.554c-.473-2.325 1.383-4.921 3.548-4.898l-10.65-9.47c-2.915-.058-4.226 2.325-3.738 4.705l10.84 9.663z" fill="url(#D)" fill-rule="evenodd" overflow="visible"/><circle r="11.049" cy="18.92" cx="17.501" style="marker:none" transform="matrix(1.23293 0 0 1.27426 -3.188 -6.294)" fill="none" stroke="url(#E)" stroke-width=".798" stroke-linecap="round" stroke-miterlimit="10" overflow="visible"/><rect style="marker:none" width="19.129" height="4.481" x="40.716" y=".025" rx="2.146" ry="1.905" transform="matrix(.74211 .67027 -.63647 .7713 0 0)" opacity=".433" fill="none" stroke="#fff" stroke-linecap="round" stroke-miterlimit="10" overflow="visible"/><circle r="8.309" cy="18.478" cx="17.589" style="marker:none" transform="matrix(1.38423 0 0 1.43063 -5.958 -8.464)" fill="url(#F)" fill-rule="evenodd" stroke="#204a87" stroke-width=".711" stroke-linecap="round" stroke-miterlimit="10"/><path style="marker:none" d="M18.173 7.59c-5.154 0-9.328 4.314-9.328 9.64 0 1.54.416 2.955 1.036 4.246 1.24.472 2.557.793 3.954.793 6.108 0 10.985-4.973 11.362-11.187-1.713-2.093-4.167-3.491-7.024-3.491z" opacity=".834" fill="url(#G)" fill-rule="evenodd" overflow="visible"/></g></svg>