<svg xmlns="http://www.w3.org/2000/svg" xmlns:xlink="http://www.w3.org/1999/xlink" width="64" height="64"><defs><linearGradient id="i"><stop offset="0"/><stop offset="1" stop-color="#555753"/></linearGradient><linearGradient id="a"><stop offset="0"/><stop offset="1" stop-opacity="0"/></linearGradient><linearGradient xlink:href="#b" id="k" gradientUnits="userSpaceOnUse" gradientTransform="matrix(2.77439 0 0 1.9697 -1892.179 -872.885)" x1="302.857" y1="366.648" x2="302.857" y2="609.505"/><linearGradient id="b"><stop offset="0" stop-opacity="0"/><stop offset=".5"/><stop offset="1" stop-opacity="0"/></linearGradient><radialGradient xlink:href="#c" id="l" gradientUnits="userSpaceOnUse" gradientTransform="matrix(2.77439 0 0 1.9697 -1891.633 -872.885)" cx="605.714" cy="486.648" fx="605.714" fy="486.648" r="117.143"/><linearGradient id="c"><stop offset="0"/><stop offset="1" stop-opacity="0"/></linearGradient><linearGradient gradientTransform="translate(-.212 -3.622) scale(1.331)" xlink:href="#d" id="r" x1="33.396" y1="36.921" x2="34.17" y2="38.07" gradientUnits="userSpaceOnUse"/><linearGradient id="d"><stop offset="0" stop-color="#fff"/><stop offset="1" stop-color="#fff" stop-opacity="0"/></linearGradient><linearGradient gradientTransform="matrix(1.39262 0 0 1.2838 -2.064 -2.03)" xlink:href="#e" id="q" x1="35.997" y1="40.458" x2="33.665" y2="37.771" gradientUnits="userSpaceOnUse"/><linearGradient id="e"><stop offset="0" stop-color="#7c7c7c"/><stop offset="1" stop-color="#b8b8b8"/></linearGradient><linearGradient gradientTransform="matrix(1.41176 0 0 1.27817 -3.147 -1.707)" xlink:href="#f" id="p" x1="36.813" y1="39.156" x2="39.063" y2="42.063" gradientUnits="userSpaceOnUse"/><linearGradient id="f"><stop offset="0"/><stop offset="1" stop-opacity="0"/></linearGradient><linearGradient gradientTransform="matrix(1.3097 0 0 1.29257 .535 -2.651)" xlink:href="#g" id="o" x1="26.076" y1="26.697" x2="30.811" y2="42.007" gradientUnits="userSpaceOnUse"/><linearGradient id="g"><stop offset="0" stop-color="#fff"/><stop offset="1" stop-color="#fff" stop-opacity="0"/></linearGradient><linearGradient xlink:href="#h" id="n" x1="22.308" y1="18.992" x2="35.785" y2="39.498" gradientUnits="userSpaceOnUse" gradientTransform="matrix(1.4461 0 0 1.31765 -2.7 -3.612)"/><linearGradient id="h"><stop offset="0" stop-color="#f0f0ef"/><stop offset=".599" stop-color="#e8e8e8"/><stop offset=".828" stop-color="#fff"/><stop offset="1" stop-color="#d8d8d3"/></linearGradient><radialGradient r="117.143" fy="486.648" fx="605.714" cy="486.648" cx="605.714" gradientTransform="matrix(-2.77439 0 0 1.9697 112.762 -872.885)" gradientUnits="userSpaceOnUse" id="m" xlink:href="#c"/><linearGradient xlink:href="#i" id="s" x1="-60.744" y1="25.8" x2="-62.744" y2="2.8" gradientUnits="userSpaceOnUse"/><linearGradient id="j"><stop offset="0"/><stop offset="1" stop-color="#555753"/></linearGradient><linearGradient y2="2.8" x2="-62.744" y1="25.8" x1="-60.744" gradientUnits="userSpaceOnUse" id="v" xlink:href="#j"/><linearGradient y2="2.8" x2="-62.744" y1="25.8" x1="-60.744" gradientUnits="userSpaceOnUse" id="u" xlink:href="#j"/><linearGradient xlink:href="#i" id="t" gradientUnits="userSpaceOnUse" x1="-60.744" y1="25.8" x2="-62.744" y2="2.8"/></defs><g color="#000"><path style="marker:none" opacity=".402" fill="url(#k)" overflow="visible" d="M-1559.252-150.697h1339.633V327.66h-1339.633z" transform="matrix(.03095 0 0 .01978 59.425 53.692)"/><path d="M-219.619-150.68v478.33c142.874.9 345.4-107.17 345.4-239.196S-33.655-150.68-219.619-150.68z" style="marker:none" opacity=".402" fill="url(#l)" overflow="visible" transform="matrix(.03095 0 0 .01978 59.425 53.692)"/><path style="marker:none" d="M-1559.252-150.68v478.33c-142.875.9-345.4-107.17-345.4-239.196s159.436-239.134 345.4-239.134z" opacity=".402" fill="url(#m)" overflow="visible" transform="matrix(.03095 0 0 .01978 59.425 53.692)"/></g><rect width="42" height="48" x="11" y="5" rx=".769" ry=".756" fill="url(#n)" fill-rule="evenodd" stroke="#888a85" stroke-width="2"/><rect width="38" height="44" x="13" y="7" rx="0" ry="0" fill="none" stroke="url(#o)" stroke-width="2"/><path style="marker:none" d="M52.002 43.984L52 52.056 40 52z" opacity=".489" color="#000" fill="url(#p)" fill-rule="evenodd" overflow="visible"/><path style="marker:none" d="M39.797 52c2.494.215 12.52-5.61 13.203-10.768-2.177 3.11-6.9 2.527-12.622 2.73 0 0 .55 7.396-.581 8.038z" color="#000" fill="url(#q)" fill-rule="evenodd" stroke="#868a84" stroke-width="1.331" overflow="visible"/><path d="M41.727 50.533c1.824-.91 6.142-3.258 7.872-5.761-2.386.5-4.184.326-7.826.467 0 0 .204 4.262-.046 5.294z" style="marker:none" opacity=".369" color="#000" fill="none" stroke="url(#r)" stroke-width="1.331" overflow="visible"/><path style="marker:none" color="#000" fill="#888a85" fill-rule="evenodd" stroke="#888a85" overflow="visible" d="M20.5 18.5h21.296v3H20.5zM20.5 24.5h25v3h-25zM20.5 30.5h15.741v3H20.5z"/><path d="M-61.744 25.8h-2c2.356-3.781 4-8.21 4-12 0-1.48-.169-2.95-.508-4.407a18.526 18.526 0 0 0-1.122-3.403c-.308-.71-1.409-2.535-2.37-4.19h2c1.481 1.978 2.568 4.607 3.277 6.6.606 1.717.723 3.525.723 5.4 0 2.127-.221 4.171-1.037 6.157-.815 1.985-1.797 4.362-2.963 5.843z" fill="url(#t)" stroke-width="1.184" transform="matrix(.82959 0 0 .95723 97.378 12.776)" font-size="24.2" font-weight="400" letter-spacing="0" word-spacing="0" stroke="#000" stroke-linejoin="round" font-family="Sans"/><path d="M-61.744 25.8h-2c2.356-3.781 4-8.21 4-12 0-1.48-.169-2.95-.508-4.407a18.526 18.526 0 0 0-1.122-3.403c-.308-.71-1.409-2.535-2.37-4.19h2c1.481 1.978 2.568 4.607 3.277 6.6.606 1.717.723 3.525.723 5.4 0 2.127-.221 4.171-1.037 6.157-.815 1.985-1.797 4.362-2.963 5.843z" fill="url(#v)" transform="matrix(-.83333 0 0 .95833 -33.62 12.775)" font-size="24.2" font-weight="400" letter-spacing="0" word-spacing="0" stroke="#000" stroke-width="1.119" stroke-linejoin="round" font-family="Sans"/></svg>