<svg xmlns="http://www.w3.org/2000/svg" xmlns:xlink="http://www.w3.org/1999/xlink" width="64" height="64"><defs><linearGradient id="k"><stop offset="0" stop-color="#888a85"/><stop offset="1" stop-color="#d3d7cf"/></linearGradient><linearGradient id="j"><stop offset="0" stop-color="#fff"/><stop offset="1" stop-color="#999"/></linearGradient><linearGradient id="f"><stop offset="0" stop-color="#fff110"/><stop offset="1" stop-color="#cf7008"/></linearGradient><pattern id="a" patternTransform="matrix(.66773 -1.0037 2.42619 2.31145 3.476 3.535)" height="1" width="2" patternUnits="userSpaceOnUse"><path d="M0-.5h1v2H0z"/></pattern><pattern id="b" patternTransform="matrix(.66773 -1.0037 2.42619 2.31145 3.476 3.535)" height="1" width="2" patternUnits="userSpaceOnUse"><path d="M0-.5h1v2H0z"/></pattern><pattern patternTransform="matrix(.66773 -1.0037 2.42619 2.31145 -26.336 10.887)" id="c" xlink:href="#d"/><pattern id="d" patternTransform="matrix(.66773 -1.0037 2.42619 2.31145 3.476 3.535)" height="1" width="2" patternUnits="userSpaceOnUse"><path d="M0-.5h1v2H0z"/></pattern><pattern id="e" patternTransform="matrix(.66773 -1.0037 2.42619 2.31145 3.476 3.535)" height="1" width="2" patternUnits="userSpaceOnUse"><path d="M0-.5h1v2H0z"/></pattern><linearGradient id="g"><stop offset="0" stop-color="#fff110"/><stop offset="1" stop-color="#cf7008"/></linearGradient><linearGradient id="h"><stop offset="0" stop-color="#fff"/><stop offset="1" stop-color="#999"/></linearGradient><linearGradient id="i"><stop offset="0" stop-color="#fff"/><stop offset="1" stop-color="#999"/></linearGradient><linearGradient xlink:href="#k" id="o" x1="18" y1="46" x2="11" y2="6" gradientUnits="userSpaceOnUse"/><linearGradient id="l"><stop offset="0" stop-color="#888a85"/><stop offset="1" stop-color="#d3d7cf"/></linearGradient><linearGradient gradientTransform="matrix(4.5 0 0 .09524 -26.5 50.524)" y2="15.5" x2="13" y1="36.5" x1="13.222" gradientUnits="userSpaceOnUse" id="p" xlink:href="#l"/><linearGradient id="m"><stop offset="0" stop-color="#888a85"/><stop offset="1" stop-color="#d3d7cf"/></linearGradient><linearGradient gradientTransform="matrix(.5 0 0 .19048 19.5 8.048)" y2="6" x2="11" y1="41.75" x1="15" gradientUnits="userSpaceOnUse" id="q" xlink:href="#m"/><linearGradient id="n"><stop offset="0" stop-color="#888a85"/><stop offset="1" stop-color="#d3d7cf"/></linearGradient><linearGradient gradientTransform="translate(29 -13)" y2="18" x2="10" y1="32" x1="15" gradientUnits="userSpaceOnUse" id="r" xlink:href="#n"/></defs><path fill="#d3d7cf" stroke="#2e3436" stroke-width="2" stroke-linejoin="round" d="M5 3h16v46H5z"/><path fill="#d3d7cf" stroke="#2e3436" stroke-width="2" stroke-linecap="round" stroke-linejoin="round" stroke-dashoffset="2.04" d="M3 49h58v8H3z"/><path fill="#2e3436" stroke="#2e3436" stroke-width="2" stroke-linecap="round" stroke-linejoin="round" stroke-dashoffset="2.04" d="M15 57h34v4H15z"/><path fill="#d3d7cf" stroke="#2e3436" stroke-width="2" stroke-linecap="round" stroke-linejoin="round" stroke-dashoffset="2.04" d="M21 7h11v12H21z"/><path fill="#d3d7cf" stroke="#2e3436" stroke-width="2" stroke-linecap="round" stroke-linejoin="round" stroke-dashoffset="2.04" d="M31 3h20v18H31z"/><g color="#000" fill="#d3d7cf" stroke="#2e3436" stroke-width="3.217" stroke-linejoin="round"><path d="M37.996 39.574l-8.016 3.227v6.453l12.826-4.84v-4.84zm4.81 8.066L29.98 52.48l6.413 8.066 6.413-6.453z" style="marker:none" overflow="visible" transform="matrix(.6237 0 0 .61986 18.301 5.47)"/><path style="marker:none" overflow="visible" d="M26.773 33.121h19.24v6.453h-19.24zM23.566 25.154h25.653v7.967H23.566z" transform="matrix(.6237 0 0 .61986 18.301 5.47)"/></g><path fill="url(#o)" stroke="#d3d7cf" stroke-width="2" d="M7 5h12v42H7z"/><path fill="url(#p)" stroke="#d3d7cf" stroke-width="2" d="M5 51h54v4H5z"/><path fill="url(#q)" stroke="#d3d7cf" stroke-width="2" d="M23 9h6v8h-6z"/><path fill="url(#r)" stroke="#d3d7cf" stroke-width="2" d="M33 5h16v14H33z"/></svg>