<svg xmlns="http://www.w3.org/2000/svg" xmlns:xlink="http://www.w3.org/1999/xlink" width="64" height="64"><defs><linearGradient id="m"><stop offset="0" stop-color="#3465a4"/><stop offset="1" stop-color="#729fcf"/></linearGradient><linearGradient id="l"><stop offset="0" stop-color="#204a87"/><stop offset="1" stop-color="#3465a4"/></linearGradient><linearGradient id="f"><stop offset="0" stop-color="#fff110"/><stop offset="1" stop-color="#cf7008"/></linearGradient><pattern id="a" patternTransform="matrix(.66773 -1.0037 2.42619 2.31145 3.476 3.535)" height="1" width="2" patternUnits="userSpaceOnUse"><path d="M0-.5h1v2H0z"/></pattern><pattern id="b" patternTransform="matrix(.66773 -1.0037 2.42619 2.31145 3.476 3.535)" height="1" width="2" patternUnits="userSpaceOnUse"><path d="M0-.5h1v2H0z"/></pattern><pattern patternTransform="matrix(.66773 -1.0037 2.42619 2.31145 -26.336 10.887)" id="c" xlink:href="#d"/><pattern id="d" patternTransform="matrix(.66773 -1.0037 2.42619 2.31145 3.476 3.535)" height="1" width="2" patternUnits="userSpaceOnUse"><path d="M0-.5h1v2H0z"/></pattern><pattern id="e" patternTransform="matrix(.66773 -1.0037 2.42619 2.31145 3.476 3.535)" height="1" width="2" patternUnits="userSpaceOnUse"><path d="M0-.5h1v2H0z"/></pattern><linearGradient id="g"><stop offset="0" stop-color="#fff110"/><stop offset="1" stop-color="#cf7008"/></linearGradient><linearGradient id="h"><stop offset="0" stop-color="#fff"/><stop offset="1" stop-color="#999"/></linearGradient><linearGradient id="i"><stop offset="0" stop-color="#fff"/><stop offset="1" stop-color="#999"/></linearGradient><linearGradient id="j"><stop offset="0" stop-color="#fff"/><stop offset="1" stop-color="#999"/></linearGradient><linearGradient id="k"><stop offset="0" stop-color="#fff"/><stop offset="1" stop-color="#999"/></linearGradient><linearGradient xlink:href="#l" id="q" x1="18.25" y1="46.875" x2="13.875" y2="30.25" gradientUnits="userSpaceOnUse"/><linearGradient xlink:href="#m" id="r" x1="42.125" y1="39.25" x2="39.25" y2="21.125" gradientUnits="userSpaceOnUse"/><linearGradient id="n"><stop offset="0" stop-color="#d3d7cf"/><stop offset="1" stop-color="#888a85"/></linearGradient><linearGradient id="o"><stop offset="0" stop-color="#d3d7cf"/><stop offset="1" stop-color="#888a85"/></linearGradient><linearGradient xlink:href="#p" id="s" gradientUnits="userSpaceOnUse" x1="35.06" y1="53.009" x2="27.286" y2="7.312"/><linearGradient id="p"><stop offset="0" stop-color="#888a85"/><stop offset="1" stop-color="#d3d7cf"/></linearGradient><linearGradient xlink:href="#p" id="t" gradientUnits="userSpaceOnUse" x1="35.06" y1="53.009" x2="27.286" y2="7.312"/><linearGradient xlink:href="#p" id="u" gradientUnits="userSpaceOnUse" x1="35.06" y1="53.009" x2="27.286" y2="7.312"/></defs><path style="marker:none" d="M3 39v22h22V15z" color="#000" fill="url(#q)" stroke="#0b1521" stroke-width="2" stroke-linejoin="round" overflow="visible"/><path style="marker:none" d="M25 15l36 8v38H25z" color="#000" fill="url(#r)" stroke="#0b1521" stroke-width="2" stroke-linejoin="round" overflow="visible"/><path d="M5.004 40.523l18.008-20.27-.004 33.932-4.823 4.799L5 59z" fill="none" stroke="#3465a4" stroke-width="2"/><path d="M27 17.48l32 7.126V58.64L27 53.3z" fill="none" stroke="#729fcf" stroke-width="2"/><path style="marker:none" d="M58 44c-.771 0-31-6-31-6L10 58" color="#000" fill="none" stroke="#172a04" stroke-width="8" stroke-linecap="round" stroke-linejoin="round" overflow="visible"/><path style="marker:none" d="M3 7v32.79L25 15l36 8V7zM61 61l-36-6-6 6z" color="#000" fill="#729fcf" stroke="#0b1521" stroke-width="2" stroke-linejoin="round" overflow="visible"/><path style="marker:none" d="M58 44c-.771 0-31-6-31-6L10 58" color="#000" fill="none" stroke="#73d216" stroke-width="4" stroke-linecap="round" stroke-linejoin="round" overflow="visible"/><path style="marker:none" d="M58.182 43.026c-.772 0-31.536-6.133-31.536-6.133L9.114 57.48" color="#000" fill="none" stroke="#8ae234" stroke-width="2" stroke-linecap="round" stroke-linejoin="round" overflow="visible"/><path style="marker:none" d="M58 29c-.771 0-30-6-30-6L8 45l28.346 5.142L40 46" color="#000" fill="none" stroke="#172a04" stroke-width="8" stroke-linecap="round" stroke-linejoin="round" overflow="visible"/><path style="marker:none" d="M58 29c-.771 0-30-6-30-6L8 45l28.346 5.142L40 46" color="#000" fill="none" stroke="#73d216" stroke-width="4" stroke-linecap="round" stroke-linejoin="round" overflow="visible"/><path style="marker:none" d="M58.28 28.057c-.772 0-30.637-6.155-30.637-6.155L7.779 43.762l28.187 5.278 3.404-3.801" color="#000" fill="none" stroke="#8ae234" stroke-width="2" stroke-linecap="round" stroke-linejoin="round" overflow="visible"/><g stroke-width="2.027"><g fill="url(#s)" stroke="#2e3436" stroke-linejoin="round" transform="matrix(.97351 0 0 1 8.848 -7)"><path style="marker:none" d="M22.755 28v9l18.49-8v-9zm18.49 3l-18.49 8v9l18.49-8zm0 11l-18.49 8L32 56l9.245-6z" color="#000" fill="url(#t)" overflow="visible"/><path d="M22.755 26V10h18.49v8z" fill="url(#u)"/></g><path d="M24.827 29.3l.028 4.491 14.32-6.093.024-4.645zm14.361 4.788l-14.374 6.23.015 4.59 14.39-6.225zm-.02 11L27.01 50.323l4.974 3.278 7.175-4.66z" style="marker:none" color="#000" fill="none" stroke="#d3d7cf" overflow="visible" transform="matrix(.97351 0 0 1 8.848 -7)"/></g><path d="M68.272 15l.014 10.948 11.29-6.185.001-4.763z" fill="none" stroke="#d3d7cf" stroke-width="1.797" transform="matrix(1.23837 0 0 1 -51.546 -10)"/></svg>