<svg xmlns="http://www.w3.org/2000/svg" xmlns:xlink="http://www.w3.org/1999/xlink" width="64" height="64"><defs><linearGradient id="g"><stop offset="0" stop-color="#888a85"/><stop offset="1" stop-color="#d3d7cf"/></linearGradient><linearGradient id="e"><stop offset="0" stop-color="#d3d7cf"/><stop offset="1" stop-color="#888a85"/></linearGradient><linearGradient id="a"><stop offset="0" stop-color="#fff"/><stop offset="1" stop-color="#999"/></linearGradient><linearGradient id="b"><stop offset="0" stop-color="#fff"/><stop offset="1" stop-color="#999"/></linearGradient><linearGradient id="c"><stop offset="0" stop-color="#fff"/><stop offset="1" stop-color="#999"/></linearGradient><linearGradient id="d"><stop offset="0" stop-color="#fff"/><stop offset="1" stop-color="#999"/></linearGradient><linearGradient xlink:href="#e" id="j" x1="22" y1="10" x2="38" y2="52" gradientUnits="userSpaceOnUse"/><linearGradient id="f"><stop offset="0" stop-color="#fff"/><stop offset="1" stop-color="#999"/></linearGradient><linearGradient xlink:href="#g" id="k" x1="34" y1="18" x2="30" y2="6" gradientUnits="userSpaceOnUse"/><linearGradient xlink:href="#h" id="l" x1="28.414" y1="10.071" x2="34.071" y2="12.899" gradientUnits="userSpaceOnUse"/><linearGradient id="h"><stop offset="0" stop-color="#888a85"/><stop offset="1" stop-color="#d3d7cf"/></linearGradient><linearGradient xlink:href="#i" id="m" x1="29.828" y1="5.828" x2="34.071" y2="15.728" gradientUnits="userSpaceOnUse"/><linearGradient id="i"><stop offset="0" stop-color="#888a85"/><stop offset="1" stop-color="#d3d7cf"/></linearGradient></defs><g stroke-width="2"><path d="M32 5c-7.069 0-14.094 2.91-19.092 7.908C7.91 17.906 5 24.931 5 32c0 7.069 2.91 14.094 7.908 19.092C17.906 56.09 24.931 59 32 59c7.069 0 14.094-2.91 19.092-7.908C56.09 46.094 59 39.069 59 32c0-7.069-2.91-14.094-7.908-19.092C46.094 7.91 39.069 5 32 5zm0 20c4 0 7 3 7 7s-3 7-7 7-7-3-7-7 3-7 7-7z" style="marker:none" color="#000" fill="url(#j)" fill-rule="evenodd" stroke="#2e3436" stroke-linejoin="bevel" overflow="visible"/><path d="M32 7c-6.545 0-13.05 2.694-17.678 7.322S7 25.455 7 32c0 6.545 2.694 13.05 7.322 17.678S25.455 57 32 57c6.545 0 13.05-2.694 17.678-7.322S57 38.545 57 32c0-6.545-2.694-13.05-7.322-17.678S38.545 7 32 7zm0 16c5 0 9 4 9 9s-4 9-9 9-9-5.19-9-9c0-5 4-9 9-9z" style="marker:none" color="#000" fill="none" stroke="#d3d7cf" stroke-linejoin="bevel" overflow="visible"/><path d="M27 3h10v14l-2 4h-6l-2-4z" fill="url(#k)" fill-rule="evenodd" stroke="#2e3436" stroke-linejoin="bevel"/><path d="M29 4.661h6V17l-1.2 2h-3.6L29 17z" fill="none" stroke="#d3d7cf"/><path d="M27 3h10v14l-2 4h-6l-2-4z" fill="url(#l)" fill-rule="evenodd" stroke="#2e3436" stroke-linejoin="bevel" transform="rotate(-135 31.477 32.192)"/><path d="M13.76 53.411L9.518 49.17l8.725-8.725 2.262-.566 2.546 2.546-.566 2.262z" fill="none" stroke="#d3d7cf"/><g><path d="M27 3h10v14l-2 4h-6l-2-4z" fill="url(#m)" fill-rule="evenodd" stroke="#2e3436" stroke-linejoin="bevel" transform="scale(1 -1) rotate(45 109.72 1.263)"/><path d="M50.24 53.411l4.242-4.242-8.725-8.725-2.262-.566-2.546 2.546.566 2.262z" fill="none" stroke="#d3d7cf"/></g></g></svg>