<svg xmlns="http://www.w3.org/2000/svg" xmlns:xlink="http://www.w3.org/1999/xlink" width="64" height="64"><defs><linearGradient id="D"><stop offset="0" stop-color="#8ae234"/><stop offset="1" stop-color="#73d216"/></linearGradient><linearGradient id="E"><stop offset="0" stop-color="#73d216"/><stop offset="1" stop-color="#4e9a06"/></linearGradient><linearGradient id="F"><stop offset="0" stop-color="#8ae234"/><stop offset="1" stop-color="#73d216"/></linearGradient><linearGradient id="A"><stop offset="0" stop-color="#4e9a06"/><stop offset="1" stop-color="#73d216"/></linearGradient><linearGradient id="z"><stop offset="0" stop-color="#73d216"/><stop offset="1" stop-color="#8ae234"/></linearGradient><linearGradient id="u"><stop offset="0" stop-color="#babdb6"/><stop offset="1" stop-color="#d3d7cf"/></linearGradient><linearGradient id="q"><stop offset="0" stop-color="#8ae234"/><stop offset="1" stop-color="#8ae234" stop-opacity="0"/></linearGradient><linearGradient id="p"><stop offset="0" stop-color="#8ae234"/><stop offset="1" stop-color="#8ae234" stop-opacity="0"/></linearGradient><linearGradient id="f"><stop offset="0" stop-color="#fff110"/><stop offset="1" stop-color="#cf7008"/></linearGradient><pattern id="a" patternTransform="matrix(.66773 -1.0037 2.42619 2.31145 3.476 3.535)" height="1" width="2" patternUnits="userSpaceOnUse"><path d="M0-.5h1v2H0z"/></pattern><pattern id="b" patternTransform="matrix(.66773 -1.0037 2.42619 2.31145 3.476 3.535)" height="1" width="2" patternUnits="userSpaceOnUse"><path d="M0-.5h1v2H0z"/></pattern><pattern patternTransform="matrix(.66773 -1.0037 2.42619 2.31145 -26.336 10.887)" id="c" xlink:href="#d"/><pattern id="d" patternTransform="matrix(.66773 -1.0037 2.42619 2.31145 3.476 3.535)" height="1" width="2" patternUnits="userSpaceOnUse"><path d="M0-.5h1v2H0z"/></pattern><pattern id="e" patternTransform="matrix(.66773 -1.0037 2.42619 2.31145 3.476 3.535)" height="1" width="2" patternUnits="userSpaceOnUse"><path d="M0-.5h1v2H0z"/></pattern><linearGradient id="g"><stop offset="0" stop-color="#fff110"/><stop offset="1" stop-color="#cf7008"/></linearGradient><linearGradient id="h"><stop offset="0" stop-color="#fff"/><stop offset="1" stop-color="#999"/></linearGradient><linearGradient id="i"><stop offset="0" stop-color="#fff"/><stop offset="1" stop-color="#999"/></linearGradient><linearGradient id="j"><stop offset="0" stop-color="#fff"/><stop offset="1" stop-color="#999"/></linearGradient><linearGradient id="k"><stop offset="0" stop-color="#fff"/><stop offset="1" stop-color="#999"/></linearGradient><linearGradient id="l"><stop offset="0" stop-color="#888a85"/><stop offset="1" stop-color="#d3d7cf"/></linearGradient><linearGradient id="m"><stop offset="0" stop-color="#888a85"/><stop offset="1" stop-color="#d3d7cf"/></linearGradient><linearGradient id="n"><stop offset="0" stop-color="#888a85"/><stop offset="1" stop-color="#d3d7cf"/></linearGradient><linearGradient id="o"><stop offset="0" stop-color="#888a85"/><stop offset="1" stop-color="#d3d7cf"/></linearGradient><linearGradient id="r"><stop offset="0" stop-color="#8ae234"/><stop offset="1" stop-color="#8ae234" stop-opacity="0"/></linearGradient><linearGradient id="s"><stop offset="0" stop-color="#8ae234"/><stop offset="1" stop-color="#8ae234" stop-opacity="0"/></linearGradient><linearGradient id="t"><stop offset="0" stop-color="#8ae234"/><stop offset="1" stop-color="#8ae234" stop-opacity="0"/></linearGradient><linearGradient id="v"><stop offset="0" stop-color="#888a85"/><stop offset="1" stop-color="#d3d7cf"/></linearGradient><linearGradient xlink:href="#v" id="x" gradientUnits="userSpaceOnUse" x1="35.06" y1="53.009" x2="27.286" y2="7.312"/><linearGradient xlink:href="#v" id="y" gradientUnits="userSpaceOnUse" x1="35.06" y1="53.009" x2="27.286" y2="7.312"/><linearGradient xlink:href="#v" id="w" gradientUnits="userSpaceOnUse" x1="35.06" y1="53.009" x2="27.286" y2="7.312"/><linearGradient xlink:href="#n" id="K" gradientUnits="userSpaceOnUse" x1="35.06" y1="53.009" x2="27.286" y2="7.312"/><linearGradient xlink:href="#n" id="L" gradientUnits="userSpaceOnUse" x1="35.06" y1="53.009" x2="27.286" y2="7.312"/><linearGradient xlink:href="#n" id="J" gradientUnits="userSpaceOnUse" x1="35.06" y1="53.009" x2="27.286" y2="7.312"/><linearGradient id="B"><stop offset="0" stop-color="#73d216"/><stop offset="1" stop-color="#4e9a06"/></linearGradient><linearGradient id="C"><stop offset="0" stop-color="#73d216"/><stop offset="1" stop-color="#8ae234"/></linearGradient><linearGradient xlink:href="#E" id="H" gradientUnits="userSpaceOnUse" spreadMethod="reflect" x1="108" y1="32" x2="108" y2="8"/><linearGradient xlink:href="#F" id="I" gradientUnits="userSpaceOnUse" spreadMethod="reflect" x1="108" y1="32" x2="106" y2="7"/><linearGradient id="G"><stop offset="0" stop-color="#888a85"/><stop offset="1" stop-color="#d3d7cf"/></linearGradient><linearGradient xlink:href="#B" id="M" gradientUnits="userSpaceOnUse" spreadMethod="reflect" x1="108" y1="32" x2="108" y2="8" gradientTransform="translate(60)"/><linearGradient xlink:href="#D" id="N" gradientUnits="userSpaceOnUse" spreadMethod="reflect" x1="108" y1="32" x2="106" y2="7" gradientTransform="translate(60)"/></defs><g fill="none" stroke-linecap="round" stroke-linejoin="round"><path d="M6 6c30 0 52 13 52 20 2 9-52 10-52 20 0 4 10 10 38 10" stroke="#172a04" stroke-width="8"/><path d="M86 6c30 0 52 13 52 20 2 9-52 10-52 20 0 4 10 10 38 10" stroke="url(#H)" stroke-width="4" transform="translate(-80)"/><path d="M86 5c30 0 53 13 53 20 2 8-53 10-53 20 0 4 10 10 38 10" stroke="url(#I)" stroke-width="2" transform="translate(-80)"/></g><g stroke-width="2.027"><g fill="url(#J)" stroke="#2e3436" stroke-linejoin="round" transform="matrix(.97351 0 0 1 12.848 -1)"><path d="M22.755 28v9l18.49-8v-9zm18.49 3l-18.49 8v9l18.49-8zm0 11l-18.49 8v6h7.19l11.3-5z" style="marker:none" color="#000" fill="url(#K)" overflow="visible"/><path d="M22.755 26V10h18.49v8z" fill="url(#L)"/></g><path style="marker:none" d="M24.827 29.3l.028 4.491 14.32-6.093.024-4.645zm14.361 4.788l-14.374 6.23.015 4.59 14.39-6.225zm-.02 11L24.81 51v3h4.727l9.653-4.324z" color="#000" fill="none" stroke="#d3d7cf" overflow="visible" transform="matrix(.97351 0 0 1 12.848 -1)"/></g><path d="M68.272 15l.014 10.948 11.29-6.185.001-4.763z" fill="none" stroke="#d3d7cf" stroke-width="1.797" transform="matrix(1.23837 0 0 1 -47.546 -4)"/><path d="M45 55l8-3v3z" fill="#d3d7cf" stroke="#2e3436" stroke-width="2" stroke-linejoin="round"/><g fill="none" stroke-linecap="round" stroke-linejoin="round"><path d="M58 26c2 9-52 10-52 20" stroke="#172a04" stroke-width="8"/><path d="M196.345 22.223c14.92 13.693-61.53 13.263-48.417 26.991" stroke="url(#M)" stroke-width="4" transform="translate(-140)"/><path d="M195.593 19.407c19.345 16.79-70.37 15.71-44.9 30.478" stroke="url(#N)" stroke-width="2" transform="translate(-140)"/></g></svg>