<svg xmlns="http://www.w3.org/2000/svg" width="64" height="64"><path d="M46 20.845c1.887 2.855 1 7.457-1 8.39-2 .932-4.113.871-6-1.984-1.887-2.855-2.557-6.511-1-8.27 1.557-1.76 6.113-.991 8 1.864z" fill="#8ae234" stroke="#172a04" stroke-width="2" stroke-linecap="round" stroke-linejoin="round" stroke-miterlimit="32.2"/><path d="M10 18.98l4 20.509" fill="none" stroke="#0b1521" stroke-width="8" stroke-linecap="round"/><path d="M10 18.98l4 20.509" fill="none" stroke="#3465a4" stroke-width="4" stroke-linecap="round"/><path d="M9 18.98l4 20.509" fill="none" stroke="#729fcf" stroke-width="2" stroke-linecap="round"/><path d="M46 28.302c2-2.796 0-10.254-6-10.254h12z" fill="#73d216" stroke="#172a04" stroke-width="2" stroke-linecap="round" stroke-linejoin="round" stroke-miterlimit="32.2"/><path d="M44 19.913l6.955-.022" fill="none" stroke="#8ae234" stroke-width="2"/><path d="M45.977 28.324c2-2.797 0-10.255-6-10.255h12z" fill="none" stroke="#172a04" stroke-width="2" stroke-linecap="round" stroke-linejoin="round" stroke-miterlimit="32.2"/><path d="M40.9 24.963L58 39.49M32 54.404l26-14.915" fill="none" stroke="#2e3436" stroke-width="8" stroke-linecap="round"/><path d="M32 54.404l26-14.915" fill="none" stroke="#d3d7cf" stroke-width="4" stroke-linecap="round"/><path d="M31.59 53.514L56 39.489" fill="none" stroke="#fff" stroke-width="2" stroke-linecap="round"/><path d="M38 6l2.675 18.91" fill="none" stroke="#2e3436" stroke-width="8" stroke-linecap="round"/><path d="M40.45 24.334L58 39.489" fill="none" stroke="#d3d7cf" stroke-width="4" stroke-linecap="round"/><path d="M11.227 20.107L38 6" fill="none" stroke="#2e3436" stroke-width="8" stroke-linecap="round"/><path d="M11.545 19.87L38 6M38 6l2.675 18.94" fill="none" stroke="#d3d7cf" stroke-width="4" stroke-linecap="round"/><path d="M37.57 9.665l2.201 15.724M9.59 19.955L36.865 5.591M39.61 25.086L56 39.49" fill="none" stroke="#fff" stroke-width="2" stroke-linecap="round"/><path d="M14 39.489l26-14.915" fill="none" stroke="#172a04" stroke-width="8" stroke-linecap="round"/><path d="M14 39.489l26-14.915" fill="none" stroke="#73d216" stroke-width="4" stroke-linecap="round"/><path d="M13.59 38.599l26-14.915" fill="none" stroke="#8ae234" stroke-width="2" stroke-linecap="round"/><path d="M14 39.489l18 14.915" fill="none" stroke="#280000" stroke-width="8" stroke-linecap="round"/><path d="M10 18.98l18 14.915" fill="none" stroke="#2e3436" stroke-width="8" stroke-linecap="round"/><path d="M14 39.489l18 14.915" fill="none" stroke="#c00" stroke-width="4" stroke-linecap="round"/><path d="M28 33.895l4 20.509" fill="none" stroke="#2e3436" stroke-width="8" stroke-linecap="round"/><path d="M13.16 40.061l18 14.915" fill="none" stroke="#ef2929" stroke-width="2" stroke-linecap="round"/><path d="M28 33.895l4 20.509" fill="none" stroke="#d3d7cf" stroke-width="4" stroke-linecap="round"/><path d="M27 34.828l4 19.576" fill="none" stroke="#fff" stroke-width="2" stroke-linecap="round"/><path d="M10 18.98l18 14.915" fill="none" stroke="#d3d7cf" stroke-width="4" stroke-linecap="round"/><path d="M9.16 19.553L27 34.828" fill="none" stroke="#fff" stroke-width="2" stroke-linecap="round"/><path d="M16 15.252c-2.067 3.773-10 4.66-13 2.796L7 6.862z" fill="#3465a4" stroke="#0b1521" stroke-width="2" stroke-linecap="round" stroke-linejoin="round" stroke-miterlimit="32.2"/><path d="M13.321 15.372c-1.354 1.32-5.313 2.103-7.82 1.538l2.306-6.619z" fill="none" stroke="#729fcf" stroke-width="2" stroke-linecap="round" stroke-miterlimit="32.2"/><path d="M26.706 57.858c-.234-4.231 6.16-8.697 9.758-8.481L39 60.929z" fill="#c00" stroke="#280000" stroke-width="2" stroke-linecap="round" stroke-linejoin="round" stroke-miterlimit="32.2"/><path d="M28.936 56.506c.463-1.776 3.47-4.3 5.943-4.982l1.56 6.806z" fill="none" stroke="#ef2929" stroke-width="2" stroke-linecap="round" stroke-miterlimit="32.2"/></svg>