<svg xmlns="http://www.w3.org/2000/svg" xmlns:xlink="http://www.w3.org/1999/xlink" width="64" height="64"><defs><linearGradient id="o"><stop offset="0" stop-color="#888a85"/><stop offset="1" stop-color="#d3d7cf"/></linearGradient><linearGradient id="m"><stop offset="0" stop-color="#888a85"/><stop offset="1" stop-color="#d3d7cf"/></linearGradient><linearGradient id="k"><stop offset="0" stop-color="#888a85"/><stop offset="1" stop-color="#d3d7cf"/></linearGradient><linearGradient id="a"><stop offset="0" stop-color="#fff"/><stop offset="1" stop-color="#fff" stop-opacity="0"/></linearGradient><linearGradient id="b"><stop offset="0" stop-color="#fff"/><stop offset="1" stop-color="#fff" stop-opacity="0"/></linearGradient><linearGradient id="c"><stop offset="0" stop-color="#fff"/><stop offset="1" stop-color="#fff" stop-opacity="0"/></linearGradient><linearGradient id="d"><stop offset="0" stop-color="#fff"/><stop offset="1" stop-color="#fff" stop-opacity="0"/></linearGradient><linearGradient id="e"><stop offset="0" stop-color="#fff"/><stop offset="1" stop-color="#fff" stop-opacity="0"/></linearGradient><linearGradient id="f"><stop offset="0" stop-color="#fff"/><stop offset="1" stop-color="#fff" stop-opacity="0"/></linearGradient><linearGradient id="g"><stop offset="0" stop-color="#fff"/><stop offset="1" stop-color="#fff" stop-opacity="0"/></linearGradient><linearGradient id="h"><stop offset="0" stop-color="#06989a"/><stop offset="1" stop-color="#34e0e2"/></linearGradient><linearGradient id="i"><stop offset="0" stop-color="#06989a"/><stop offset="1" stop-color="#34e0e2"/></linearGradient><linearGradient id="j"><stop offset="0" stop-color="#06989a"/><stop offset="1" stop-color="#34e0e2"/></linearGradient><linearGradient y2="18.702" x2="29.056" y1="34.473" x1="34.97" gradientUnits="userSpaceOnUse" id="p" xlink:href="#k"/><linearGradient id="l"><stop offset="0" stop-color="#06989a"/><stop offset="1" stop-color="#34e0e2"/></linearGradient><linearGradient y2="18.702" x2="29.056" y1="34.473" x1="34.97" gradientUnits="userSpaceOnUse" id="q" xlink:href="#m"/><linearGradient id="n"><stop offset="0" stop-color="#06989a"/><stop offset="1" stop-color="#34e0e2"/></linearGradient><linearGradient y2="18.702" x2="29.056" y1="34.473" x1="34.97" gradientUnits="userSpaceOnUse" id="r" xlink:href="#o"/></defs><g color="#000" stroke-linejoin="round"><path style="marker:none" d="M40.884 26.588a8.871 8.871 0 1 1-17.742 0 8.871 8.871 0 1 1 17.742 0z" transform="translate(26.628 25.02) scale(.78909)" fill="url(#p)" stroke="#2e3436" stroke-width="2.535" overflow="visible"/><path style="marker:none" d="M40.884 26.588a8.871 8.871 0 1 1-17.742 0 8.871 8.871 0 1 1 17.742 0z" transform="matrix(.55737 0 0 .55737 34.101 31.236)" fill="none" stroke="#d3d7cf" stroke-width="3.588" overflow="visible"/><path style="marker:none" d="M40.884 26.588a8.871 8.871 0 1 1-17.742 0 8.871 8.871 0 1 1 17.742 0z" transform="translate(6.74 25.02) scale(.78909)" fill="url(#q)" stroke="#2e3436" stroke-width="2.535" overflow="visible"/><path style="marker:none" d="M40.884 26.588a8.871 8.871 0 1 1-17.742 0 8.871 8.871 0 1 1 17.742 0z" transform="matrix(.55737 0 0 .55737 14.213 31.236)" fill="none" stroke="#d3d7cf" stroke-width="3.588" overflow="visible"/><path style="marker:none" d="M40.884 26.588a8.871 8.871 0 1 1-17.742 0 8.871 8.871 0 1 1 17.742 0z" transform="translate(-13.26 25.02) scale(.78909)" fill="url(#r)" stroke="#2e3436" stroke-width="2.535" overflow="visible"/><path style="marker:none" d="M40.884 26.588a8.871 8.871 0 1 1-17.742 0 8.871 8.871 0 1 1 17.742 0z" transform="matrix(.55737 0 0 .55737 -5.787 31.236)" fill="none" stroke="#d3d7cf" stroke-width="3.588" overflow="visible"/></g></svg>