<svg xmlns="http://www.w3.org/2000/svg" xmlns:xlink="http://www.w3.org/1999/xlink" width="64" height="64"><defs><linearGradient id="f"><stop offset="0" stop-color="#fff110"/><stop offset="1" stop-color="#cf7008"/></linearGradient><pattern id="a" patternTransform="matrix(.66773 -1.0037 2.42619 2.31145 3.476 3.535)" height="1" width="2" patternUnits="userSpaceOnUse"><path d="M0-.5h1v2H0z"/></pattern><pattern id="b" patternTransform="matrix(.66773 -1.0037 2.42619 2.31145 3.476 3.535)" height="1" width="2" patternUnits="userSpaceOnUse"><path d="M0-.5h1v2H0z"/></pattern><pattern patternTransform="matrix(.66773 -1.0037 2.42619 2.31145 -26.336 10.887)" id="c" xlink:href="#d"/><pattern id="d" patternTransform="matrix(.66773 -1.0037 2.42619 2.31145 3.476 3.535)" height="1" width="2" patternUnits="userSpaceOnUse"><path d="M0-.5h1v2H0z"/></pattern><pattern id="e" patternTransform="matrix(.66773 -1.0037 2.42619 2.31145 3.476 3.535)" height="1" width="2" patternUnits="userSpaceOnUse"><path d="M0-.5h1v2H0z"/></pattern><linearGradient id="g"><stop offset="0" stop-color="#fff110"/><stop offset="1" stop-color="#cf7008"/></linearGradient><linearGradient id="h"><stop offset="0" stop-color="#fff"/><stop offset="1" stop-color="#999"/></linearGradient><linearGradient id="i"><stop offset="0" stop-color="#fff"/><stop offset="1" stop-color="#999"/></linearGradient><linearGradient id="j"><stop offset="0" stop-color="#fff"/><stop offset="1" stop-color="#999"/></linearGradient><linearGradient id="k"><stop offset="0" stop-color="#fff"/><stop offset="1" stop-color="#999"/></linearGradient><radialGradient xlink:href="#l" id="p" cx="19.429" cy="35.423" fx="19.429" fy="35.423" r="22.545" gradientTransform="matrix(.34168 .53525 -.43296 .47008 46.638 4.27)" gradientUnits="userSpaceOnUse"/><linearGradient id="l"><stop offset="0" stop-color="#73d216"/><stop offset="1" stop-color="#8ae234"/></linearGradient><linearGradient id="o"><stop offset="0" stop-color="#73d216"/><stop offset="1" stop-color="#8ae234"/></linearGradient><linearGradient id="m"><stop offset="0" stop-color="#73d216"/><stop offset="1" stop-color="#8ae234"/></linearGradient><linearGradient id="n"><stop offset="0" stop-color="#73d216"/><stop offset="1" stop-color="#8ae234"/></linearGradient></defs><g fill="none" stroke-linecap="round"><path d="M58.001 47.854s-14.554.053-20.98.053c-6.135 0-9.288-8-5.14-13.409 3.467-4.108 15.44-5.314 10.349-15.783-5.09-10.47-6.494-12.712-6.494-12.712" stroke="#172a04" stroke-width="8"/><path d="M58.001 47.854s-14.554.053-20.98.053c-6.135 0-9.288-8-5.14-13.409 3.467-4.108 15.44-5.314 10.349-15.783-5.09-10.47-6.494-12.712-6.494-12.712" stroke="#73d216" stroke-width="4"/><path d="M58.328 46.98s-14.931.133-21.357.087c-5.317-.038-8.444-6.872-4.676-11.919 3.467-4.108 15.82-5.314 10.349-17.078C37.174 6.305 36.15 5.358 36.15 5.358" stroke="url(#p)" stroke-width="2"/><path d="M34 57.903s-14.93.133-21.357.087c-5.317-.038-8.444-6.87-4.676-11.918 3.468-4.108 15.82-5.314 10.35-17.079-5.471-11.764-6.494-12.711-6.494-12.711" stroke="#172a04" stroke-width="8" stroke-dashoffset="2.4"/><path d="M34.033 57.832s-14.93.133-21.357.087C7.36 57.88 4.232 51.048 8 46c3.468-4.108 15.82-5.314 10.35-17.078-5.47-11.765-6.494-12.712-6.494-12.712" stroke="#73d216" stroke-width="4" stroke-dasharray="8,8" stroke-dashoffset="6.8"/></g></svg>