<svg xmlns="http://www.w3.org/2000/svg" xmlns:xlink="http://www.w3.org/1999/xlink" width="64" height="64"><defs><linearGradient id="l"><stop offset="0" stop-color="#8ae234"/><stop offset="1" stop-color="#73d216"/></linearGradient><linearGradient id="f"><stop offset="0" stop-color="#fff110"/><stop offset="1" stop-color="#cf7008"/></linearGradient><pattern id="a" patternTransform="matrix(.66773 -1.0037 2.42619 2.31145 3.476 3.535)" height="1" width="2" patternUnits="userSpaceOnUse"><path d="M0-.5h1v2H0z"/></pattern><pattern id="b" patternTransform="matrix(.66773 -1.0037 2.42619 2.31145 3.476 3.535)" height="1" width="2" patternUnits="userSpaceOnUse"><path d="M0-.5h1v2H0z"/></pattern><pattern patternTransform="matrix(.66773 -1.0037 2.42619 2.31145 -26.336 10.887)" id="c" xlink:href="#d"/><pattern id="d" patternTransform="matrix(.66773 -1.0037 2.42619 2.31145 3.476 3.535)" height="1" width="2" patternUnits="userSpaceOnUse"><path d="M0-.5h1v2H0z"/></pattern><pattern id="e" patternTransform="matrix(.66773 -1.0037 2.42619 2.31145 3.476 3.535)" height="1" width="2" patternUnits="userSpaceOnUse"><path d="M0-.5h1v2H0z"/></pattern><linearGradient id="g"><stop offset="0" stop-color="#fff110"/><stop offset="1" stop-color="#cf7008"/></linearGradient><linearGradient id="h"><stop offset="0" stop-color="#fff"/><stop offset="1" stop-color="#999"/></linearGradient><linearGradient id="i"><stop offset="0" stop-color="#fff"/><stop offset="1" stop-color="#999"/></linearGradient><linearGradient id="j"><stop offset="0" stop-color="#fff"/><stop offset="1" stop-color="#999"/></linearGradient><linearGradient id="k"><stop offset="0" stop-color="#fff"/><stop offset="1" stop-color="#999"/></linearGradient><linearGradient xlink:href="#l" id="q" x1="16.166" y1="5.127" x2="16.849" y2="12.905" gradientUnits="userSpaceOnUse" spreadMethod="reflect"/><linearGradient id="m"><stop offset="0" stop-color="#8ae234"/><stop offset="1" stop-color="#73d216"/></linearGradient><linearGradient y2="12.905" x2="16.849" y1="5.127" x1="16.166" spreadMethod="reflect" gradientUnits="userSpaceOnUse" id="p" xlink:href="#m"/><linearGradient id="n"><stop offset="0" stop-color="#8ae234"/><stop offset="1" stop-color="#73d216"/></linearGradient><linearGradient y2="12.905" x2="16.849" y1="5.127" x1="16.166" spreadMethod="reflect" gradientUnits="userSpaceOnUse" id="o" xlink:href="#n"/></defs><g color="#000" fill="none" stroke-linecap="round"><path d="M14.995 38l-8.192 8c-2.047 2 0 6 4.096 7l28.67 5c4.096 1 8.192-2 11.263-5L58 44" style="marker:none" stroke="#172a04" stroke-width="8" overflow="visible"/><path d="M14.995 37.804l-8.192 8c-2.047 2 0 6 4.096 7l28.67 5c4.096 1 8.192-2 11.263-5l7.168-9" style="marker:none" stroke="#73d216" stroke-width="4" overflow="visible"/><path d="M14.563 4.895l-8.191 8c-2.048 2 .159 5.863 4.254 6.863L39.62 24.83c4.095 1 7.709-1.935 10.78-4.935l7.168-9" style="marker:none" stroke="url(#o)" stroke-width="2" overflow="visible" transform="translate(0 32)"/><g><path d="M14.995 22l-8.192 8c-2.047 2 0 6 4.096 7l28.67 5c4.096 1 8.192-2 11.263-5L58 28" style="marker:none" stroke="#172a04" stroke-width="8" overflow="visible"/><path d="M14.995 21.804l-8.192 8c-2.047 2 0 6 4.096 7l28.67 5c4.096 1 8.192-2 11.263-5l7.168-9" style="marker:none" stroke="#73d216" stroke-width="4" overflow="visible"/><path d="M14.563 4.895l-8.191 8c-2.048 2 .159 5.863 4.254 6.863L39.62 24.83c4.095 1 7.709-1.935 10.78-4.935l7.168-9" style="marker:none" stroke="url(#p)" stroke-width="2" overflow="visible" transform="translate(0 16)"/></g><g><path d="M14.995 6l-8.192 8c-2.047 2 0 6 4.096 7l28.67 5c4.096 1 8.192-2 11.263-5L58 12" style="marker:none" stroke="#172a04" stroke-width="8" overflow="visible"/><path d="M14.995 5.804l-8.192 8c-2.047 2 0 6 4.096 7l28.67 5c4.096 1 8.192-2 11.263-5l7.168-9" style="marker:none" stroke="#73d216" stroke-width="4" overflow="visible"/><path d="M14.563 4.895l-8.191 8c-2.048 2 .159 5.863 4.254 6.863L39.62 24.83c4.095 1 7.709-1.935 10.78-4.935l7.168-9" style="marker:none" stroke="url(#q)" stroke-width="2" overflow="visible"/></g></g></svg>