<svg xmlns="http://www.w3.org/2000/svg" xmlns:xlink="http://www.w3.org/1999/xlink" width="64" height="64"><defs><linearGradient id="t"><stop offset="0" stop-color="#888a85"/><stop offset="1" stop-color="#d3d7cf"/></linearGradient><linearGradient id="f"><stop offset="0" stop-color="#fff110"/><stop offset="1" stop-color="#cf7008"/></linearGradient><pattern id="a" patternTransform="matrix(.66773 -1.0037 2.42619 2.31145 3.476 3.535)" height="1" width="2" patternUnits="userSpaceOnUse"><path d="M0-.5h1v2H0z"/></pattern><pattern id="b" patternTransform="matrix(.66773 -1.0037 2.42619 2.31145 3.476 3.535)" height="1" width="2" patternUnits="userSpaceOnUse"><path d="M0-.5h1v2H0z"/></pattern><pattern patternTransform="matrix(.66773 -1.0037 2.42619 2.31145 -26.336 10.887)" id="c" xlink:href="#d"/><pattern id="d" patternTransform="matrix(.66773 -1.0037 2.42619 2.31145 3.476 3.535)" height="1" width="2" patternUnits="userSpaceOnUse"><path d="M0-.5h1v2H0z"/></pattern><pattern id="e" patternTransform="matrix(.66773 -1.0037 2.42619 2.31145 3.476 3.535)" height="1" width="2" patternUnits="userSpaceOnUse"><path d="M0-.5h1v2H0z"/></pattern><linearGradient id="g"><stop offset="0" stop-color="#fff110"/><stop offset="1" stop-color="#cf7008"/></linearGradient><linearGradient id="h"><stop offset="0" stop-color="#fff"/><stop offset="1" stop-color="#999"/></linearGradient><linearGradient id="i"><stop offset="0" stop-color="#fff"/><stop offset="1" stop-color="#999"/></linearGradient><linearGradient id="j"><stop offset="0" stop-color="#fff"/><stop offset="1" stop-color="#999"/></linearGradient><linearGradient id="k"><stop offset="0" stop-color="#fff"/><stop offset="1" stop-color="#999"/></linearGradient><linearGradient id="l"><stop offset="0" stop-color="#fff"/><stop offset="1" stop-color="#999"/></linearGradient><linearGradient id="m"><stop offset="0" stop-color="#fff"/><stop offset="1" stop-color="#999"/></linearGradient><linearGradient id="n"><stop offset="0" stop-color="#d3d7cf"/><stop offset="1" stop-color="#888a85"/></linearGradient><linearGradient id="o"><stop offset="0" stop-color="#d3d7cf"/><stop offset="1" stop-color="#888a85"/></linearGradient><linearGradient id="p"><stop offset="0" stop-color="#d3d7cf"/><stop offset="1" stop-color="#888a85"/></linearGradient><linearGradient id="q"><stop offset="0" stop-color="#d3d7cf"/><stop offset="1" stop-color="#888a85"/></linearGradient><linearGradient id="r"><stop offset="0" stop-color="#d3d7cf"/><stop offset="1" stop-color="#888a85"/></linearGradient><linearGradient id="s"><stop offset="0" stop-color="#d3d7cf"/><stop offset="1" stop-color="#888a85"/></linearGradient><linearGradient xlink:href="#t" id="y" gradientUnits="userSpaceOnUse" x1="35.06" y1="53.009" x2="27.286" y2="7.312"/><linearGradient xlink:href="#t" id="z" gradientUnits="userSpaceOnUse" x1="35.06" y1="53.009" x2="27.286" y2="7.312"/><linearGradient xlink:href="#t" id="x" gradientUnits="userSpaceOnUse" x1="35.06" y1="53.009" x2="27.286" y2="7.312"/><linearGradient xlink:href="#u" id="A" gradientUnits="userSpaceOnUse" x1="35.06" y1="53.009" x2="27.286" y2="7.312"/><linearGradient id="u"><stop offset="0" stop-color="#888a85"/><stop offset="1" stop-color="#d3d7cf"/></linearGradient><linearGradient xlink:href="#u" id="B" gradientUnits="userSpaceOnUse" x1="35.06" y1="53.009" x2="27.286" y2="7.312"/><linearGradient xlink:href="#u" id="C" gradientUnits="userSpaceOnUse" x1="35.06" y1="53.009" x2="27.286" y2="7.312"/><linearGradient xlink:href="#v" id="D" gradientUnits="userSpaceOnUse" x1="35.06" y1="53.009" x2="27.286" y2="7.312"/><linearGradient id="v"><stop offset="0" stop-color="#888a85"/><stop offset="1" stop-color="#d3d7cf"/></linearGradient><linearGradient xlink:href="#v" id="E" gradientUnits="userSpaceOnUse" x1="35.06" y1="53.009" x2="27.286" y2="7.312"/><linearGradient xlink:href="#v" id="F" gradientUnits="userSpaceOnUse" x1="35.06" y1="53.009" x2="27.286" y2="7.312"/><linearGradient id="w"><stop offset="0" stop-color="#888a85"/><stop offset="1" stop-color="#d3d7cf"/></linearGradient></defs><g stroke-width="2.256"><g fill="url(#x)" stroke="#2e3436" stroke-linejoin="round" transform="matrix(.78613 0 0 1 28.769 5)"><path d="M23 28v9l18-8v-9zm18 3l-18 8v9l18-8zm0 11l-18 8 9 6 9-6z" style="marker:none" color="#000" fill="url(#y)" overflow="visible"/><path d="M23.191 26V6H41v12z" fill="url(#z)"/></g><path style="marker:none" d="M25.537 29.219l.028 4.267 12.851-5.611.04-4.469zm12.925 5.175l-13.004 5.795.048 4.413 13.036-5.775zM38.4 45.442l-10.97 4.881 4.538 3.002L38.456 49z" color="#000" fill="none" stroke="#d3d7cf" overflow="visible" transform="matrix(.78613 0 0 1 28.769 5)"/></g><path d="M49 13v14.53l10.044-5.751L59 13z" fill="none" stroke="#d3d7cf" stroke-width="2"/><g stroke-width="2.256"><g fill="url(#A)" stroke="#2e3436" stroke-linejoin="round" transform="matrix(.78613 0 0 1 -15.231 5)"><path d="M23 28v9l18-8v-9zm18 3l-18 8v9l18-8zm0 11l-18 8 9 6 9-6z" style="marker:none" color="#000" fill="url(#B)" overflow="visible"/><path d="M23.191 26V6H41v12z" fill="url(#C)"/></g><path style="marker:none" d="M25.537 29.219l.028 4.267 12.851-5.611.04-4.469zm12.925 5.175l-13.004 5.795.048 4.413 13.036-5.775zM38.4 45.442l-10.97 4.881 4.538 3.002L38.456 49z" color="#000" fill="none" stroke="#d3d7cf" overflow="visible" transform="matrix(.78613 0 0 1 -15.231 5)"/></g><path d="M5 13v14.53l10.044-5.751L15 13z" fill="none" stroke="#d3d7cf" stroke-width="2"/><g><g stroke-width="2.256"><g fill="url(#D)" stroke="#2e3436" stroke-linejoin="round" transform="matrix(.78613 0 0 1 6.92 -1)"><path d="M23 28v9l18-8v-9zm18 3l-18 8v9l18-8zm0 11l-18 8 9 6 9-6z" style="marker:none" color="#000" fill="url(#E)" overflow="visible"/><path d="M23.191 26V6H41v12z" fill="url(#F)"/></g><path style="marker:none" d="M25.537 29.219l.028 4.267 12.851-5.611.04-4.469zm12.925 5.175l-13.004 5.795.048 4.413 13.036-5.775zM38.4 45.442l-10.97 4.881 4.538 3.002L38.456 49z" color="#000" fill="none" stroke="#d3d7cf" overflow="visible" transform="matrix(.78613 0 0 1 6.92 -1)"/></g><path d="M27.15 7v14.53l10.044-5.751L37.15 7z" fill="none" stroke="#d3d7cf" stroke-width="2"/></g></svg>