<svg xmlns="http://www.w3.org/2000/svg" xmlns:xlink="http://www.w3.org/1999/xlink" width="64" height="64"><defs><linearGradient id="m"><stop offset="0" stop-color="#4e9a06"/><stop offset="1" stop-color="#8ae234"/></linearGradient><linearGradient id="l"><stop offset="0" stop-color="#204a87"/><stop offset="1" stop-color="#729fcf"/></linearGradient><linearGradient id="f"><stop offset="0" stop-color="#fff110"/><stop offset="1" stop-color="#cf7008"/></linearGradient><pattern id="a" patternTransform="matrix(.66773 -1.0037 2.42619 2.31145 3.476 3.535)" height="1" width="2" patternUnits="userSpaceOnUse"><path d="M0-.5h1v2H0z"/></pattern><pattern id="b" patternTransform="matrix(.66773 -1.0037 2.42619 2.31145 3.476 3.535)" height="1" width="2" patternUnits="userSpaceOnUse"><path d="M0-.5h1v2H0z"/></pattern><pattern patternTransform="matrix(.66773 -1.0037 2.42619 2.31145 -26.336 10.887)" id="c" xlink:href="#d"/><pattern id="d" patternTransform="matrix(.66773 -1.0037 2.42619 2.31145 3.476 3.535)" height="1" width="2" patternUnits="userSpaceOnUse"><path d="M0-.5h1v2H0z"/></pattern><pattern id="e" patternTransform="matrix(.66773 -1.0037 2.42619 2.31145 3.476 3.535)" height="1" width="2" patternUnits="userSpaceOnUse"><path d="M0-.5h1v2H0z"/></pattern><linearGradient id="g"><stop offset="0" stop-color="#fff110"/><stop offset="1" stop-color="#cf7008"/></linearGradient><linearGradient id="h"><stop offset="0" stop-color="#fff"/><stop offset="1" stop-color="#999"/></linearGradient><linearGradient id="i"><stop offset="0" stop-color="#fff"/><stop offset="1" stop-color="#999"/></linearGradient><linearGradient id="j"><stop offset="0" stop-color="#fff"/><stop offset="1" stop-color="#999"/></linearGradient><linearGradient id="k"><stop offset="0" stop-color="#fff"/><stop offset="1" stop-color="#999"/></linearGradient><linearGradient xlink:href="#l" id="o" x1="36.538" y1="45.928" x2="36.804" y2="23.333" gradientUnits="userSpaceOnUse"/><linearGradient xlink:href="#m" id="p" x1="41.611" y1="59.854" x2="32.101" y2="10.999" gradientUnits="userSpaceOnUse"/><linearGradient id="n"><stop offset="0" stop-color="#d3d7cf"/><stop offset="1" stop-color="#888a85"/></linearGradient><linearGradient xlink:href="#l" id="q" gradientUnits="userSpaceOnUse" x1="36.538" y1="45.928" x2="36.804" y2="23.333"/><linearGradient xlink:href="#m" id="r" gradientUnits="userSpaceOnUse" x1="41.611" y1="59.854" x2="32.101" y2="10.999"/></defs><g color="#000"><path d="M33 21L17 45l24 4 12-16-4-10z" style="marker:none" overflow="visible" fill="url(#o)" stroke="#0b1521" stroke-width="2" stroke-linejoin="round" transform="matrix(.82245 0 0 .8182 1.86 -3.182)"/><path d="M50 13l-11-2c-4-1-5.172-1.414-8 0-2 1-3 2-5 5L7 46c-3 4-1 7 3 8l28 4c5 1 9-2 12-6l4-5" style="marker:none" overflow="visible" fill="none" stroke="#172a04" stroke-width="8" stroke-linecap="round" transform="matrix(.82245 0 0 .8182 1.86 -3.182)"/><path d="M33.966 23.114L20.35 43.57l19.79 3.268 10.57-14.148-3.137-7.848z" style="marker:none" overflow="visible" fill="none" stroke="#729fcf" stroke-width="2" transform="matrix(.82245 0 0 .8182 1.86 -3.182)"/><path d="M50 13l-11-2c-4-1-5.172-1.414-8 0-2 1-3 2-5 5L7 46c-3 4-1 7 3 8l28 4c5 1 9-2 12-6l4-5" style="marker:none" overflow="visible" fill="none" stroke="url(#p)" stroke-width="4" stroke-linecap="round" transform="matrix(.82245 0 0 .8182 1.86 -3.182)"/><path d="M50.064 12L38.518 9.92c-4-1-5.172-1.415-8 0-2 1-3 2-5 5l-19 30c-3 4-1 7 3 8l28 4c5 1 9-2 12-6L53 46" style="marker:none" overflow="visible" fill="none" stroke="#8ae234" stroke-width="2" stroke-linecap="round" transform="matrix(.82245 0 0 .8182 1.86 -3.182)"/><g><path style="marker:none" d="M33 21L17 45l24 4 12-16-4-10z" overflow="visible" fill="url(#q)" stroke="#0b1521" stroke-width="2" stroke-linejoin="round" transform="matrix(.82245 0 0 .8182 14.477 11.122)"/><path style="marker:none" d="M50 13l-11-2c-4-1-5.172-1.414-8 0-2 1-3 2-5 5L7 46c-3 4-1 7 3 8l28 4c5 1 9-2 12-6l4-5" overflow="visible" fill="none" stroke="#172a04" stroke-width="8" stroke-linecap="round" transform="matrix(.82245 0 0 .8182 14.477 11.122)"/><path style="marker:none" d="M33.966 23.114L20.35 43.57l19.79 3.268 10.57-14.148-3.137-7.848z" overflow="visible" fill="none" stroke="#729fcf" stroke-width="2" transform="matrix(.82245 0 0 .8182 14.477 11.122)"/><path style="marker:none" d="M50 13l-11-2c-4-1-5.172-1.414-8 0-2 1-3 2-5 5L7 46c-3 4-1 7 3 8l28 4c5 1 9-2 12-6l4-5" overflow="visible" fill="none" stroke="url(#r)" stroke-width="4" stroke-linecap="round" transform="matrix(.82245 0 0 .8182 14.477 11.122)"/><path style="marker:none" d="M50.064 12L38.518 9.92c-4-1-5.172-1.415-8 0-2 1-3 2-5 5l-19 30c-3 4-1 7 3 8l28 4c5 1 9-2 12-6L53 46" overflow="visible" fill="none" stroke="#8ae234" stroke-width="2" stroke-linecap="round" transform="matrix(.82245 0 0 .8182 14.477 11.122)"/></g></g></svg>