<svg xmlns="http://www.w3.org/2000/svg" xmlns:xlink="http://www.w3.org/1999/xlink" width="64" height="64"><defs><linearGradient id="m"><stop offset="0" stop-color="#4e9a06"/><stop offset="1" stop-color="#8ae234"/></linearGradient><linearGradient id="l"><stop offset="0" stop-color="#204a87"/><stop offset="1" stop-color="#729fcf"/></linearGradient><linearGradient id="f"><stop offset="0" stop-color="#fff110"/><stop offset="1" stop-color="#cf7008"/></linearGradient><pattern id="a" patternTransform="matrix(.66773 -1.0037 2.42619 2.31145 3.476 3.535)" height="1" width="2" patternUnits="userSpaceOnUse"><path d="M0-.5h1v2H0z"/></pattern><pattern id="b" patternTransform="matrix(.66773 -1.0037 2.42619 2.31145 3.476 3.535)" height="1" width="2" patternUnits="userSpaceOnUse"><path d="M0-.5h1v2H0z"/></pattern><pattern patternTransform="matrix(.66773 -1.0037 2.42619 2.31145 -26.336 10.887)" id="c" xlink:href="#d"/><pattern id="d" patternTransform="matrix(.66773 -1.0037 2.42619 2.31145 3.476 3.535)" height="1" width="2" patternUnits="userSpaceOnUse"><path d="M0-.5h1v2H0z"/></pattern><pattern id="e" patternTransform="matrix(.66773 -1.0037 2.42619 2.31145 3.476 3.535)" height="1" width="2" patternUnits="userSpaceOnUse"><path d="M0-.5h1v2H0z"/></pattern><linearGradient id="g"><stop offset="0" stop-color="#fff110"/><stop offset="1" stop-color="#cf7008"/></linearGradient><linearGradient id="h"><stop offset="0" stop-color="#fff"/><stop offset="1" stop-color="#999"/></linearGradient><linearGradient id="i"><stop offset="0" stop-color="#fff"/><stop offset="1" stop-color="#999"/></linearGradient><linearGradient id="j"><stop offset="0" stop-color="#fff"/><stop offset="1" stop-color="#999"/></linearGradient><linearGradient id="k"><stop offset="0" stop-color="#fff"/><stop offset="1" stop-color="#999"/></linearGradient><linearGradient xlink:href="#l" id="p" x1="36.538" y1="45.928" x2="36.804" y2="23.333" gradientUnits="userSpaceOnUse"/><linearGradient xlink:href="#m" id="q" x1="41.611" y1="59.854" x2="32.101" y2="10.999" gradientUnits="userSpaceOnUse"/><linearGradient id="n"><stop offset="0" stop-color="#d3d7cf"/><stop offset="1" stop-color="#888a85"/></linearGradient><linearGradient xlink:href="#o" id="r" gradientUnits="userSpaceOnUse" x1="35.06" y1="53.009" x2="27.286" y2="7.312"/><linearGradient id="o"><stop offset="0" stop-color="#888a85"/><stop offset="1" stop-color="#d3d7cf"/></linearGradient><linearGradient xlink:href="#o" id="s" gradientUnits="userSpaceOnUse" x1="35.06" y1="53.009" x2="27.286" y2="7.312"/><linearGradient xlink:href="#o" id="t" gradientUnits="userSpaceOnUse" x1="35.06" y1="53.009" x2="27.286" y2="7.312"/></defs><path style="marker:none" d="M33 21L17 45l24 4 12-16-4-10z" color="#000" fill="url(#p)" stroke="#0b1521" stroke-width="2" stroke-linejoin="round" overflow="visible"/><path style="marker:none" d="M50 13l-11-2c-4-1-5.172-1.414-8 0-2 1-3 2-5 5L7 46c-3 4-1 7 3 8l28 4c5 1 9-2 12-6l4-5" color="#000" fill="none" stroke="#172a04" stroke-width="8" stroke-linecap="round" overflow="visible"/><path style="marker:none" d="M33.966 23.114L20.35 43.57l19.79 3.268 10.57-14.148-3.137-7.848z" color="#000" fill="none" stroke="#729fcf" stroke-width="2" overflow="visible"/><path style="marker:none" d="M50 13l-11-2c-4-1-5.172-1.414-8 0-2 1-3 2-5 5L7 46c-3 4-1 7 3 8l28 4c5 1 9-2 12-6l4-5" color="#000" fill="none" stroke="url(#q)" stroke-width="4" stroke-linecap="round" overflow="visible"/><path style="marker:none" d="M50.064 12L38.518 9.92c-4-1-5.172-1.415-8 0-2 1-3 2-5 5l-19 30c-3 4-1 7 3 8l28 4c5 1 9-2 12-6L53 46" color="#000" fill="none" stroke="#8ae234" stroke-width="2" stroke-linecap="round" overflow="visible"/><g stroke-width="2.027"><g fill="url(#r)" stroke="#2e3436" stroke-linejoin="round" transform="matrix(.97351 0 0 1 20.848 -9)"><path style="marker:none" d="M22.755 28v9l18.49-8v-9zm18.49 3l-18.49 8v9l18.49-8zm0 11l-18.49 8L32 56l9.245-6z" color="#000" fill="url(#s)" overflow="visible"/><path d="M22.755 26V12h18.49v6z" fill="url(#t)"/></g><path d="M24.827 29.3l.028 4.491 14.32-6.093.024-4.645zm14.361 4.788l-14.374 6.23.015 4.59 14.39-6.225zm-.02 11L27.01 50.323l4.974 3.278 7.175-4.66z" style="marker:none" color="#000" fill="none" stroke="#d3d7cf" overflow="visible" transform="matrix(.97351 0 0 1 20.848 -9)"/></g><path d="M68.272 17l.014 8.948 11.29-6.185.001-2.763z" fill="none" stroke="#d3d7cf" stroke-width="1.797" transform="matrix(1.23837 0 0 1 -39.546 -12)"/></svg>