<svg xmlns="http://www.w3.org/2000/svg" xmlns:xlink="http://www.w3.org/1999/xlink" width="64" height="64"><defs><linearGradient id="p"><stop offset="0" stop-color="#8ae234"/><stop offset="1" stop-color="#73d216"/></linearGradient><linearGradient id="o"><stop offset="0" stop-color="#204a87"/><stop offset="1" stop-color="#729fcf"/></linearGradient><linearGradient id="n"><stop offset="0" stop-color="#204a87"/><stop offset="1" stop-color="#3465a4"/></linearGradient><linearGradient id="m"><stop offset="0" stop-color="#729fcf"/><stop offset="1" stop-color="#729fcf"/></linearGradient><linearGradient id="f"><stop offset="0" stop-color="#fff110"/><stop offset="1" stop-color="#cf7008"/></linearGradient><pattern id="a" patternTransform="matrix(.66773 -1.0037 2.42619 2.31145 3.476 3.535)" height="1" width="2" patternUnits="userSpaceOnUse"><path d="M0-.5h1v2H0z"/></pattern><pattern id="b" patternTransform="matrix(.66773 -1.0037 2.42619 2.31145 3.476 3.535)" height="1" width="2" patternUnits="userSpaceOnUse"><path d="M0-.5h1v2H0z"/></pattern><pattern patternTransform="matrix(.66773 -1.0037 2.42619 2.31145 -26.336 10.887)" id="c" xlink:href="#d"/><pattern id="d" patternTransform="matrix(.66773 -1.0037 2.42619 2.31145 3.476 3.535)" height="1" width="2" patternUnits="userSpaceOnUse"><path d="M0-.5h1v2H0z"/></pattern><pattern id="e" patternTransform="matrix(.66773 -1.0037 2.42619 2.31145 3.476 3.535)" height="1" width="2" patternUnits="userSpaceOnUse"><path d="M0-.5h1v2H0z"/></pattern><linearGradient id="g"><stop offset="0" stop-color="#fff110"/><stop offset="1" stop-color="#cf7008"/></linearGradient><linearGradient id="h"><stop offset="0" stop-color="#fff"/><stop offset="1" stop-color="#999"/></linearGradient><linearGradient id="i"><stop offset="0" stop-color="#fff"/><stop offset="1" stop-color="#999"/></linearGradient><linearGradient id="j"><stop offset="0" stop-color="#fff"/><stop offset="1" stop-color="#999"/></linearGradient><linearGradient id="k"><stop offset="0" stop-color="#fff"/><stop offset="1" stop-color="#999"/></linearGradient><linearGradient id="l"><stop offset="0" stop-color="#d3d7cf"/><stop offset="1" stop-color="#888a85"/></linearGradient><linearGradient xlink:href="#m" id="w" x1="39.36" y1="31.254" x2="37.837" y2="10.812" gradientUnits="userSpaceOnUse" gradientTransform="translate(-2)"/><linearGradient xlink:href="#n" id="v" x1="52.735" y1="42.685" x2="49.322" y2="28.929" gradientUnits="userSpaceOnUse" gradientTransform="translate(-2)"/><linearGradient xlink:href="#o" id="u" x1="33.636" y1="59.682" x2="30.727" y2="34.818" gradientUnits="userSpaceOnUse" gradientTransform="translate(-2)"/><linearGradient xlink:href="#p" id="x" x1="20" y1="9" x2="33" y2="24" gradientUnits="userSpaceOnUse" spreadMethod="reflect"/><linearGradient gradientTransform="translate(0 12.343)" xlink:href="#q" id="t" x1="20" y1="9" x2="33" y2="24" gradientUnits="userSpaceOnUse" spreadMethod="reflect"/><linearGradient id="q"><stop offset="0" stop-color="#8ae234"/><stop offset="1" stop-color="#73d216"/></linearGradient><linearGradient gradientTransform="translate(-.448 12.343)" xlink:href="#r" id="y" x1="20" y1="9" x2="33" y2="24" gradientUnits="userSpaceOnUse" spreadMethod="reflect"/><linearGradient id="r"><stop offset="0" stop-color="#8ae234"/><stop offset="1" stop-color="#73d216"/></linearGradient><linearGradient xlink:href="#s" id="z" gradientUnits="userSpaceOnUse" x1="35.06" y1="53.009" x2="27.286" y2="7.312"/><linearGradient id="s"><stop offset="0" stop-color="#888a85"/><stop offset="1" stop-color="#d3d7cf"/></linearGradient><linearGradient xlink:href="#s" id="A" gradientUnits="userSpaceOnUse" x1="35.06" y1="53.009" x2="27.286" y2="7.312"/><linearGradient xlink:href="#s" id="B" gradientUnits="userSpaceOnUse" x1="35.06" y1="53.009" x2="27.286" y2="7.312"/></defs><path style="marker:none" d="M23 20.343l-16 25c-2 3-1 5 2 6l30 6c3 1 5 1 7-2l11-17" color="#000" fill="none" stroke="#172a04" stroke-width="8" stroke-linecap="round" overflow="visible"/><path style="marker:none" d="M23.04 20.544l-16 25c-2 3-1 5 2 6l30 6c3 1 5 1 7-2l11-17" color="#000" fill="none" stroke="#73d216" stroke-width="4" stroke-linecap="round" overflow="visible"/><path style="marker:none" d="M22 20.343l-16 25c-2 3 2 5 3 5l29 6c3 1 5 1 7-1l11-17" color="#000" fill="none" stroke="url(#t)" stroke-width="2" stroke-linecap="round" overflow="visible"/><path d="M17 29v32h24V35z" fill="url(#u)" stroke="#0b1521" stroke-width="2" stroke-linejoin="round"/><path d="M41 35v26l14-22V13z" fill="url(#v)" stroke="#0b1521" stroke-width="2" stroke-linejoin="round"/><path d="M18.96 31.608l.042 27.393 20.011.193-.019-22.639z" fill="none" stroke="#729fcf" stroke-width="2"/><path d="M43.011 35.547v18.555L53 38.417V20z" fill="none" stroke="#3465a4" stroke-width="2"/><path d="M17 29L31 7l24 6-14 22z" fill="#edd400" stroke="#0b1521" stroke-width="2" stroke-linejoin="round"/><path d="M20.168 27.754l11.79-18.552 19.978 5.12-11.904 18.414z" fill="url(#w)" stroke="#729fcf" stroke-width="2"/><path style="marker:none" d="M23 8L7 33c-2 3-1 5 2 6l30 6c3 1 5 1 7-2l11-17" color="#000" fill="none" stroke="#172a04" stroke-width="8" stroke-linecap="round" overflow="visible"/><path style="marker:none" d="M23.04 8.201l-16 25c-2 3-1 5 2 6l30 6c3 1 5 1 7-2l11-17" color="#000" fill="none" stroke="#73d216" stroke-width="4" stroke-linecap="round" overflow="visible"/><path style="marker:none" d="M22 8L6 33c-2 3 2 5 3 5l29 6c3 1 5 1 7-1l11-17" color="#000" fill="none" stroke="url(#x)" stroke-width="2" stroke-linecap="round" overflow="visible"/><path style="marker:none" d="M8.552 51.343l30 6c3 1 5 1 7-2l11-17" color="#000" fill="none" stroke="#172a04" stroke-width="8" stroke-linecap="round" overflow="visible"/><path style="marker:none" d="M6.609 46.283c-2 3-1.016 4.261 1.984 5.261l30 6c3 1 5 1 7-2l11-17" color="#000" fill="none" stroke="#73d216" stroke-width="4" stroke-linecap="round" overflow="visible"/><path style="marker:none" d="M6.854 43.993c-3.43 4.607.698 6.35 1.698 6.35l29 6c3 1 5 1 7-1l11-17" color="#000" fill="none" stroke="url(#y)" stroke-width="2" stroke-linecap="round" overflow="visible"/><g stroke-width="2.027"><g fill="url(#z)" stroke="#2e3436" stroke-linejoin="round" transform="matrix(.97351 0 0 1 20.848 -7)"><path style="marker:none" d="M22.755 28v9l18.49-8v-9zm18.49 3l-18.49 8v9l18.49-8zm0 11l-18.49 8L32 56l9.245-6z" color="#000" fill="url(#A)" overflow="visible"/><path d="M22.755 26V10h18.49v8z" fill="url(#B)"/></g><path d="M24.827 29.3l.028 4.491 14.32-6.093.024-4.645zm14.361 4.788l-14.374 6.23.015 4.59 14.39-6.225zm-.02 11L27.01 50.323l4.974 3.278 7.175-4.66z" style="marker:none" color="#000" fill="none" stroke="#d3d7cf" overflow="visible" transform="matrix(.97351 0 0 1 20.848 -7)"/></g><path d="M68.272 15l.014 10.948 11.29-6.185.001-4.763z" fill="none" stroke="#d3d7cf" stroke-width="1.797" transform="matrix(1.23837 0 0 1 -39.546 -10)"/></svg>