<svg xmlns="http://www.w3.org/2000/svg" xmlns:xlink="http://www.w3.org/1999/xlink" width="64" height="64"><defs><linearGradient id="s"><stop offset="0" stop-color="#3465a4"/><stop offset="1" stop-color="#729fcf"/></linearGradient><linearGradient id="q"><stop offset="0" stop-color="#fff"/><stop offset="1" stop-color="#999"/></linearGradient><linearGradient id="f"><stop offset="0" stop-color="#fff110"/><stop offset="1" stop-color="#cf7008"/></linearGradient><pattern id="a" patternTransform="matrix(.66773 -1.0037 2.42619 2.31145 3.476 3.535)" height="1" width="2" patternUnits="userSpaceOnUse"><path d="M0-.5h1v2H0z"/></pattern><pattern id="b" patternTransform="matrix(.66773 -1.0037 2.42619 2.31145 3.476 3.535)" height="1" width="2" patternUnits="userSpaceOnUse"><path d="M0-.5h1v2H0z"/></pattern><pattern patternTransform="matrix(.66773 -1.0037 2.42619 2.31145 -26.336 10.887)" id="c" xlink:href="#d"/><pattern id="d" patternTransform="matrix(.66773 -1.0037 2.42619 2.31145 3.476 3.535)" height="1" width="2" patternUnits="userSpaceOnUse"><path d="M0-.5h1v2H0z"/></pattern><pattern id="e" patternTransform="matrix(.66773 -1.0037 2.42619 2.31145 3.476 3.535)" height="1" width="2" patternUnits="userSpaceOnUse"><path d="M0-.5h1v2H0z"/></pattern><linearGradient id="g"><stop offset="0" stop-color="#fff110"/><stop offset="1" stop-color="#cf7008"/></linearGradient><linearGradient id="h"><stop offset="0" stop-color="#fff"/><stop offset="1" stop-color="#999"/></linearGradient><linearGradient id="i"><stop offset="0" stop-color="#fff"/><stop offset="1" stop-color="#999"/></linearGradient><linearGradient id="j"><stop offset="0" stop-color="#fff"/><stop offset="1" stop-color="#999"/></linearGradient><linearGradient id="k"><stop offset="0" stop-color="#fff"/><stop offset="1" stop-color="#999"/></linearGradient><pattern patternUnits="userSpaceOnUse" width="2" height="1" patternTransform="matrix(.66773 -1.0037 2.42619 2.31145 3.476 3.535)" id="l"><path d="M0-.5h1v2H0z"/></pattern><pattern patternUnits="userSpaceOnUse" width="2" height="1" patternTransform="matrix(.66773 -1.0037 2.42619 2.31145 3.476 3.535)" id="m"><path d="M0-.5h1v2H0z"/></pattern><pattern xlink:href="#o" id="n" patternTransform="matrix(.66773 -1.0037 2.42619 2.31145 -26.336 10.887)"/><pattern patternUnits="userSpaceOnUse" width="2" height="1" patternTransform="matrix(.66773 -1.0037 2.42619 2.31145 3.476 3.535)" id="o"><path d="M0-.5h1v2H0z"/></pattern><pattern patternUnits="userSpaceOnUse" width="2" height="1" patternTransform="matrix(.66773 -1.0037 2.42619 2.31145 3.476 3.535)" id="p"><path d="M0-.5h1v2H0z"/></pattern><linearGradient id="r"><stop offset="0" stop-color="#d3d7cf"/><stop offset="1" stop-color="#888a85"/></linearGradient><linearGradient xlink:href="#s" id="u" x1="37" y1="59" x2="28" y2="7" gradientUnits="userSpaceOnUse"/><linearGradient xlink:href="#t" id="v" gradientUnits="userSpaceOnUse" x1="35.06" y1="53.009" x2="27.286" y2="7.312"/><linearGradient id="t"><stop offset="0" stop-color="#888a85"/><stop offset="1" stop-color="#d3d7cf"/></linearGradient><linearGradient xlink:href="#t" id="w" gradientUnits="userSpaceOnUse" x1="35.06" y1="53.009" x2="27.286" y2="7.312"/><linearGradient xlink:href="#t" id="x" gradientUnits="userSpaceOnUse" x1="35.06" y1="53.009" x2="27.286" y2="7.312"/></defs><path style="marker:none" d="M3 7l.312 53.93L61 61l.092-54z" color="#000" fill="url(#u)" stroke="#0b1521" stroke-width="2" stroke-linejoin="round" overflow="visible"/><path d="M12 52h40V40H11V28h42V16.042H11" fill="none" stroke="#172a04" stroke-width="8" stroke-linecap="round" stroke-linejoin="round"/><path d="M12 52h40V40H11V28h42V16l-42 .042" fill="none" stroke="#73d216" stroke-width="4" stroke-linecap="round" stroke-linejoin="round"/><path style="marker:none" d="M5 9l.29 49.936L58.914 59 59 9z" color="#000" fill="none" stroke="#729fcf" stroke-width="2" overflow="visible"/><path d="M12 51h39V39H10V27h42V15.017H11" fill="none" stroke="#8ae234" stroke-width="2" stroke-linecap="round" stroke-linejoin="round"/><g stroke-width="2.027"><g fill="url(#v)" stroke="#2e3436" stroke-linejoin="round" transform="matrix(.97351 0 0 1 18.848 -7)"><path style="marker:none" d="M22.755 28v9l18.49-8v-9zm18.49 3l-18.49 8v9l18.49-8zm0 11l-18.49 8v6h7.19l11.3-5z" color="#000" fill="url(#w)" overflow="visible"/><path d="M22.755 26V10h18.49v8z" fill="url(#x)"/></g><path d="M24.827 29.3l.028 4.491 14.32-6.093.024-4.645zm14.361 4.788l-14.374 6.23.015 4.59 14.39-6.225zm-.02 11L24.81 51v3h4.727l9.653-4.324z" style="marker:none" color="#000" fill="none" stroke="#d3d7cf" overflow="visible" transform="matrix(.97351 0 0 1 18.848 -7)"/></g><path d="M68.272 15l.014 10.948 11.29-6.185.001-4.763z" fill="none" stroke="#d3d7cf" stroke-width="1.797" transform="matrix(1.23837 0 0 1 -41.546 -10)"/><path d="M51 49l8-3v3z" fill="#d3d7cf" stroke="#2e3436" stroke-width="2" stroke-linejoin="round"/></svg>