<svg xmlns="http://www.w3.org/2000/svg" xmlns:xlink="http://www.w3.org/1999/xlink" width="48" height="48" viewBox="0 0 12.7 12.7"><defs><linearGradient id="a"><stop offset="0" stop-color="gray"/><stop offset="1" stop-color="#999" stop-opacity="0"/></linearGradient><linearGradient xlink:href="#a" id="b" gradientUnits="userSpaceOnUse" x1="5.601" y1="287.266" x2="3.061" y2="291.399" gradientTransform="matrix(.60227 0 0 1 5.236 0)"/><linearGradient xlink:href="#a" id="c" gradientUnits="userSpaceOnUse" x1="5.601" y1="287.266" x2="3.061" y2="291.399" gradientTransform="matrix(.60227 0 0 1 1.704 -.363)"/></defs><g transform="translate(0 -284.3)"><path d="M5.817 295.817v-10.428l5.479 5z" fill-rule="evenodd" stroke="#000" stroke-width=".83" stroke-linejoin="round"/><path d="M5.873 290.2l.01-3.628s.03-.612.17-.726c.188-.151.599.3.599.3s2.847 2.661 3.649 3.376c.532.673-.371.71-.371.71z" fill="url(#b)" fill-rule="evenodd"/><rect width="2.019" height="11.454" x="1.704" y="284.947" ry="1.104"/><path d="M2.34 289.837l.01-3.628s-.072-.673.17-.726c.45-.099.91.179.852 1.089-.068 1.37.24 2.772-.288 3.297z" fill="url(#c)" fill-rule="evenodd"/></g></svg>