<svg xmlns="http://www.w3.org/2000/svg" xmlns:xlink="http://www.w3.org/1999/xlink" width="64" height="64"><defs><linearGradient id="n"><stop offset="0" stop-color="#fce94f"/><stop offset="1" stop-color="#fce94f" stop-opacity="0"/></linearGradient><linearGradient id="m"><stop offset="0" stop-color="#c4a000"/><stop offset="1" stop-color="#fce94f"/></linearGradient><linearGradient id="l"><stop offset="0" stop-color="#204a87"/><stop offset="1" stop-color="#729fcf"/></linearGradient><linearGradient id="f"><stop offset="0" stop-color="#fff110"/><stop offset="1" stop-color="#cf7008"/></linearGradient><pattern id="a" patternTransform="matrix(.66773 -1.0037 2.42619 2.31145 3.476 3.535)" height="1" width="2" patternUnits="userSpaceOnUse"><path d="M0-.5h1v2H0z"/></pattern><pattern id="b" patternTransform="matrix(.66773 -1.0037 2.42619 2.31145 3.476 3.535)" height="1" width="2" patternUnits="userSpaceOnUse"><path d="M0-.5h1v2H0z"/></pattern><pattern patternTransform="matrix(.66773 -1.0037 2.42619 2.31145 -26.336 10.887)" id="c" xlink:href="#d"/><pattern id="d" patternTransform="matrix(.66773 -1.0037 2.42619 2.31145 3.476 3.535)" height="1" width="2" patternUnits="userSpaceOnUse"><path d="M0-.5h1v2H0z"/></pattern><pattern id="e" patternTransform="matrix(.66773 -1.0037 2.42619 2.31145 3.476 3.535)" height="1" width="2" patternUnits="userSpaceOnUse"><path d="M0-.5h1v2H0z"/></pattern><linearGradient id="g"><stop offset="0" stop-color="#fff110"/><stop offset="1" stop-color="#cf7008"/></linearGradient><linearGradient id="h"><stop offset="0" stop-color="#fff"/><stop offset="1" stop-color="#999"/></linearGradient><linearGradient id="i"><stop offset="0" stop-color="#fff"/><stop offset="1" stop-color="#999"/></linearGradient><linearGradient id="j"><stop offset="0" stop-color="#fff"/><stop offset="1" stop-color="#999"/></linearGradient><linearGradient id="k"><stop offset="0" stop-color="#fff"/><stop offset="1" stop-color="#999"/></linearGradient><linearGradient xlink:href="#l" id="p" x1="33" y1="51" x2="30" y2="13" gradientUnits="userSpaceOnUse"/><linearGradient xlink:href="#m" id="o" x1="36" y1="58" x2="28" y2="6" gradientUnits="userSpaceOnUse"/><linearGradient xlink:href="#n" id="q" x1="58" y1="55" x2="50" y2="55" gradientUnits="userSpaceOnUse"/></defs><path fill="none" stroke="#302b00" stroke-width="8" stroke-linecap="round" stroke-linejoin="round" stroke-miterlimit="32.2" d="M6 6h52v52H6z"/><path fill="none" stroke="#fce94f" stroke-width="2" stroke-linecap="round" stroke-linejoin="round" stroke-miterlimit="32.2" d="M5 5h54v54H5z"/><path fill="none" stroke="url(#o)" stroke-width="4" stroke-linecap="round" stroke-miterlimit="32.2" d="M8 8h48v48H8z"/><path fill="none" stroke="#0b1521" stroke-width="2" stroke-linecap="round" stroke-miterlimit="32.2" d="M11 11h42v42H11z"/><path fill="url(#p)" stroke="#729fcf" stroke-width="2" stroke-linecap="round" stroke-miterlimit="32.2" d="M13 13h38v38H13z"/><path fill="#555753" stroke="#2e3436" stroke-width="2" stroke-linecap="round" stroke-miterlimit="32.2" d="M53 41h8v12h-8zM53 13h8v12h-8z"/><g fill="#555753" stroke="#2e3436" stroke-width="2" stroke-linecap="round" stroke-miterlimit="32.2"><path d="M11 11V3h12v8zM39 11V3h12v8z"/></g><path d="M58.75 55h-7.5" fill="none" stroke="url(#q)" stroke-width="2" stroke-linecap="round"/><path d="M59 39h-5M59 27h-5M59 11h-5M37 10V5M25 10V5" fill="none" stroke="#fce94f" stroke-width="2"/></svg>