<svg xmlns="http://www.w3.org/2000/svg" xmlns:xlink="http://www.w3.org/1999/xlink" width="64" height="64"><defs><linearGradient id="b"><stop offset="0" stop-color="#d3d7cf"/><stop offset="1" stop-color="#fff"/></linearGradient><linearGradient id="a"><stop offset="0" stop-color="#2e3436"/><stop offset="1"/></linearGradient><linearGradient xlink:href="#c" id="j" x1="80.906" y1="35.406" x2="108.094" y2="33.594" gradientUnits="userSpaceOnUse"/><linearGradient id="c"><stop offset="0" stop-color="#2e3436"/><stop offset="1"/></linearGradient><linearGradient xlink:href="#c" id="i" x1="108.094" y1="33.594" x2="80.906" y2="35.406" gradientUnits="userSpaceOnUse"/><linearGradient xlink:href="#d" id="h" x1="93.464" y1="18.964" x2="95.536" y2="50.036" gradientUnits="userSpaceOnUse"/><linearGradient id="d"><stop offset="0" stop-color="#d3d7cf"/><stop offset="1" stop-color="#fff"/></linearGradient><linearGradient xlink:href="#d" id="g" x1="95.536" y1="50.036" x2="93.464" y2="18.964" gradientUnits="userSpaceOnUse"/><linearGradient xlink:href="#e" id="n" x1="80.906" y1="35.406" x2="108.094" y2="33.594" gradientUnits="userSpaceOnUse"/><linearGradient id="e"><stop offset="0" stop-color="#2e3436"/><stop offset="1"/></linearGradient><linearGradient xlink:href="#e" id="m" x1="108.094" y1="33.594" x2="80.906" y2="35.406" gradientUnits="userSpaceOnUse"/><linearGradient xlink:href="#f" id="l" x1="93.464" y1="18.964" x2="95.536" y2="50.036" gradientUnits="userSpaceOnUse"/><linearGradient id="f"><stop offset="0" stop-color="#d3d7cf"/><stop offset="1" stop-color="#fff"/></linearGradient><linearGradient xlink:href="#f" id="k" x1="95.536" y1="50.036" x2="93.464" y2="18.964" gradientUnits="userSpaceOnUse"/></defs><path d="M109 34.5a14.5 14.5 0 1 1-29 0 14.5 14.5 0 1 1 29 0z" transform="matrix(.96552 0 0 .96552 -72.241 -14.31)" fill="#2e3436" stroke="#2e3436" stroke-width="2.071" stroke-linecap="round" stroke-dashoffset="2.04"/><path d="M80 34.5A14.5 14.5 0 0 1 94.5 20v14.5z" transform="matrix(.84483 0 0 .84483 -60.836 -10.147)" fill="url(#g)" stroke="#fff" stroke-width="2.367"/><path d="M80 34.5A14.5 14.5 0 0 1 94.5 20v14.5z" transform="matrix(-.84483 0 0 -.84483 98.836 48.147)" fill="url(#h)" stroke="#fff" stroke-width="2.367"/><path d="M80 34.5A14.5 14.5 0 0 1 94.5 20v14.5z" transform="matrix(0 -.96552 .96552 0 -14.31 110.241)" fill="url(#i)" stroke="#2e3436" stroke-width="2.071"/><path d="M80 34.5A14.5 14.5 0 0 1 94.5 20v14.5z" transform="matrix(0 .96552 -.96552 0 52.31 -72.241)" fill="url(#j)" stroke="#2e3436" stroke-width="2.071"/><path d="M19 3v32M35 19H3" fill="none" stroke="#2e3436" stroke-width="1.9997999999999998" stroke-linecap="round"/><path d="M109 34.5a14.5 14.5 0 1 1-29 0 14.5 14.5 0 1 1 29 0z" transform="matrix(.96552 0 0 .96552 -46.241 11.69)" fill="#2e3436" stroke="#2e3436" stroke-width="2.071" stroke-linecap="round" stroke-dashoffset="2.04"/><path d="M80 34.5A14.5 14.5 0 0 1 94.5 20v14.5z" transform="matrix(.84483 0 0 .84483 -34.836 15.853)" fill="url(#k)" stroke="#fff" stroke-width="2.367"/><path d="M80 34.5A14.5 14.5 0 0 1 94.5 20v14.5z" transform="matrix(-.84483 0 0 -.84483 124.836 74.146)" fill="url(#l)" stroke="#fff" stroke-width="2.367"/><path d="M80 34.5A14.5 14.5 0 0 1 94.5 20v14.5z" transform="matrix(0 -.96552 .96552 0 11.69 136.241)" fill="url(#m)" stroke="#2e3436" stroke-width="2.071"/><path d="M80 34.5A14.5 14.5 0 0 1 94.5 20v14.5z" transform="matrix(0 .96552 -.96552 0 78.31 -46.241)" fill="url(#n)" stroke="#2e3436" stroke-width="2.071"/><path d="M45 29v32M61 45H29" fill="none" stroke="#2e3436" stroke-width="1.9997999999999998" stroke-linecap="round"/></svg>