<svg xmlns="http://www.w3.org/2000/svg" xmlns:xlink="http://www.w3.org/1999/xlink" width="64" height="64"><defs><linearGradient id="l"><stop offset="0" stop-color="#73d216"/><stop offset="1" stop-color="#8ae234"/></linearGradient><linearGradient id="f"><stop offset="0" stop-color="#fff110"/><stop offset="1" stop-color="#cf7008"/></linearGradient><pattern id="a" patternTransform="matrix(.66773 -1.0037 2.42619 2.31145 3.476 3.535)" height="1" width="2" patternUnits="userSpaceOnUse"><path d="M0-.5h1v2H0z"/></pattern><pattern id="b" patternTransform="matrix(.66773 -1.0037 2.42619 2.31145 3.476 3.535)" height="1" width="2" patternUnits="userSpaceOnUse"><path d="M0-.5h1v2H0z"/></pattern><pattern patternTransform="matrix(.66773 -1.0037 2.42619 2.31145 -26.336 10.887)" id="c" xlink:href="#d"/><pattern id="d" patternTransform="matrix(.66773 -1.0037 2.42619 2.31145 3.476 3.535)" height="1" width="2" patternUnits="userSpaceOnUse"><path d="M0-.5h1v2H0z"/></pattern><pattern id="e" patternTransform="matrix(.66773 -1.0037 2.42619 2.31145 3.476 3.535)" height="1" width="2" patternUnits="userSpaceOnUse"><path d="M0-.5h1v2H0z"/></pattern><linearGradient id="g"><stop offset="0" stop-color="#fff110"/><stop offset="1" stop-color="#cf7008"/></linearGradient><linearGradient id="h"><stop offset="0" stop-color="#fff"/><stop offset="1" stop-color="#999"/></linearGradient><linearGradient id="i"><stop offset="0" stop-color="#fff"/><stop offset="1" stop-color="#999"/></linearGradient><linearGradient id="j"><stop offset="0" stop-color="#fff"/><stop offset="1" stop-color="#999"/></linearGradient><linearGradient id="k"><stop offset="0" stop-color="#fff"/><stop offset="1" stop-color="#999"/></linearGradient><radialGradient xlink:href="#l" id="o" cx="19.429" cy="35.423" fx="19.429" fy="35.423" r="22.545" gradientTransform="matrix(.5317 .63867 -.67375 .5609 32.965 3.932)" gradientUnits="userSpaceOnUse"/><linearGradient id="m"><stop offset="0" stop-color="#d3d7cf"/><stop offset="1" stop-color="#888a85"/></linearGradient><linearGradient id="n"><stop offset="0" stop-color="#888a85"/><stop offset="1" stop-color="#d3d7cf"/></linearGradient><linearGradient xlink:href="#n" id="q" gradientUnits="userSpaceOnUse" x1="35.06" y1="53.009" x2="27.286" y2="7.312"/><linearGradient xlink:href="#n" id="r" gradientUnits="userSpaceOnUse" x1="35.06" y1="53.009" x2="27.286" y2="7.312"/><linearGradient xlink:href="#n" id="p" gradientUnits="userSpaceOnUse" x1="35.06" y1="53.009" x2="27.286" y2="7.312"/></defs><path d="M50.648 55.936S28 56 18 56c-9.547 0-14.455-9.545-8-16 5.396-4.901 24.027-6.34 16.105-18.832C18.184 8.676 16 6 16 6" fill="none" stroke="#172a04" stroke-width="8" stroke-linecap="round"/><path d="M50.648 55.936S28 56 18 56c-9.547 0-14.455-9.545-8-16 5.396-4.901 24.027-6.34 16.105-18.832C18.184 8.676 16 6 16 6" fill="none" stroke="#73d216" stroke-width="4" stroke-linecap="round"/><path d="M51.156 54.893s-23.234.159-33.234.104c-8.275-.045-13.14-8.199-7.277-14.221 5.396-4.902 24.618-6.341 16.105-20.378C18.237 6.36 16.645 5.23 16.645 5.23" fill="none" stroke="url(#o)" stroke-width="2" stroke-linecap="round"/><g stroke-width="2.027"><g fill="url(#p)" stroke="#2e3436" stroke-linejoin="round" transform="matrix(.97351 0 0 1 20.848 -1)"><path style="marker:none" d="M22.755 28v9l18.49-8v-9zm18.49 3l-18.49 8v9l18.49-8zm0 11l-18.49 8L32 56l9.245-6z" color="#000" fill="url(#q)" overflow="visible"/><path d="M22.755 26V6h18.49v12z" fill="url(#r)"/></g><path d="M24.827 29.3l.028 4.491 14.32-6.093.024-4.645zm14.361 4.788l-14.374 6.23.015 4.59 14.39-6.225zm-.02 11L27.01 50.323l4.974 3.278 7.175-4.66z" style="marker:none" color="#000" fill="none" stroke="#d3d7cf" overflow="visible" transform="matrix(.97351 0 0 1 20.848 -1)"/></g><path d="M68.272 11l.014 14.948 11.29-6.185.001-8.763z" fill="none" stroke="#d3d7cf" stroke-width="1.797" transform="matrix(1.23837 0 0 1 -39.546 -4)"/></svg>