<svg xmlns="http://www.w3.org/2000/svg" xmlns:xlink="http://www.w3.org/1999/xlink" width="64" height="64"><defs><linearGradient id="o"><stop offset="0" stop-color="#888a85"/><stop offset="1" stop-color="#d3d7cf"/></linearGradient><linearGradient id="k"><stop offset="0" stop-color="#888a85"/><stop offset="1" stop-color="#888a85" stop-opacity="0"/></linearGradient><linearGradient id="h"><stop offset="0" stop-color="#fff"/><stop offset="1" stop-color="#999"/></linearGradient><linearGradient id="f"><stop offset="0" stop-color="#fff110"/><stop offset="1" stop-color="#cf7008"/></linearGradient><pattern id="a" patternTransform="matrix(.66773 -1.0037 2.42619 2.31145 3.476 3.535)" height="1" width="2" patternUnits="userSpaceOnUse"><path d="M0-.5h1v2H0z"/></pattern><pattern id="b" patternTransform="matrix(.66773 -1.0037 2.42619 2.31145 3.476 3.535)" height="1" width="2" patternUnits="userSpaceOnUse"><path d="M0-.5h1v2H0z"/></pattern><pattern patternTransform="matrix(.66773 -1.0037 2.42619 2.31145 -26.336 10.887)" id="c" xlink:href="#d"/><pattern id="d" patternTransform="matrix(.66773 -1.0037 2.42619 2.31145 3.476 3.535)" height="1" width="2" patternUnits="userSpaceOnUse"><path d="M0-.5h1v2H0z"/></pattern><pattern id="e" patternTransform="matrix(.66773 -1.0037 2.42619 2.31145 3.476 3.535)" height="1" width="2" patternUnits="userSpaceOnUse"><path d="M0-.5h1v2H0z"/></pattern><linearGradient id="g"><stop offset="0" stop-color="#fff110"/><stop offset="1" stop-color="#cf7008"/></linearGradient><linearGradient id="i"><stop offset="0" stop-color="#fff"/><stop offset="1" stop-color="#999"/></linearGradient><linearGradient id="j"><stop offset="0" stop-color="#fff"/><stop offset="1" stop-color="#999"/></linearGradient><linearGradient id="n"><stop offset="0" stop-color="#d3d7cf"/><stop offset="1" stop-color="#888a85"/></linearGradient><linearGradient id="m"><stop offset="0" stop-color="#d3d7cf"/><stop offset="1" stop-color="#888a85"/></linearGradient><linearGradient id="l"><stop offset="0" stop-color="#d3d7cf"/><stop offset="1" stop-color="#888a85"/></linearGradient><linearGradient xlink:href="#m" id="q" gradientUnits="userSpaceOnUse" gradientTransform="matrix(.63953 0 0 .6415 43.535 25.66)" x1="31" y1="15" x2="33" y2="23"/><linearGradient xlink:href="#n" id="r" gradientUnits="userSpaceOnUse" gradientTransform="matrix(.63953 0 0 .6415 43.535 25.66)" x1="32" y1="5" x2="33" y2="11"/><linearGradient xlink:href="#o" id="p" gradientUnits="userSpaceOnUse" x1="65" y1="26" x2="63" y2="15"/></defs><g stroke-width="1.996"><path d="M55 26.906h18L65 5h-2z" fill="url(#p)" stroke="#2e3436" stroke-linejoin="round" transform="matrix(1 0 0 1.0041 -34 -2.016)"/><path d="M57 26.906h14L64 7.984z" fill="none" stroke="#d3d7cf" stroke-miterlimit="2" transform="matrix(1 0 0 1.0041 -34 -2.016)"/><g color="#000"><path d="M63 41.84l-4 1.992v5.976l10-5.976v-1.991zm6 3.96l-10 6v5.975L69 51.8zm0 7.992l-9 4.98 4 2.983L69 58z" style="marker:none" fill="#d3d7cf" stroke="#2e3436" stroke-linejoin="round" overflow="visible" transform="matrix(1 0 0 1.0041 -34 -1.012)"/><path style="marker:none" fill="url(#q)" stroke="#2e3436" stroke-linejoin="round" overflow="visible" d="M55 33.873h18v7.967H55z" transform="matrix(1 0 0 1.0041 -34 -1.012)"/><path style="marker:none" fill="url(#r)" stroke="#2e3436" stroke-linejoin="round" overflow="visible" d="M49 25.906h30v7.967H49z" transform="matrix(1 0 0 1.0041 -34 -1.012)"/><path style="marker:none" fill="none" stroke="#d3d7cf" overflow="visible" d="M51 27.898h26v3.984H51zM57 36h14v3.849H57z" transform="matrix(1 0 0 1.0041 -34 -1.012)"/></g></g></svg>