<svg xmlns="http://www.w3.org/2000/svg" xmlns:xlink="http://www.w3.org/1999/xlink" width="64" height="64"><defs><linearGradient id="m"><stop offset="0" stop-color="#4e9a06"/><stop offset="1" stop-color="#8ae234"/></linearGradient><linearGradient id="l"><stop offset="0" stop-color="#204a87"/><stop offset="1" stop-color="#729fcf"/></linearGradient><linearGradient id="f"><stop offset="0" stop-color="#fff110"/><stop offset="1" stop-color="#cf7008"/></linearGradient><pattern id="a" patternTransform="matrix(.66773 -1.0037 2.42619 2.31145 3.476 3.535)" height="1" width="2" patternUnits="userSpaceOnUse"><path d="M0-.5h1v2H0z"/></pattern><pattern id="b" patternTransform="matrix(.66773 -1.0037 2.42619 2.31145 3.476 3.535)" height="1" width="2" patternUnits="userSpaceOnUse"><path d="M0-.5h1v2H0z"/></pattern><pattern patternTransform="matrix(.66773 -1.0037 2.42619 2.31145 -26.336 10.887)" id="c" xlink:href="#d"/><pattern id="d" patternTransform="matrix(.66773 -1.0037 2.42619 2.31145 3.476 3.535)" height="1" width="2" patternUnits="userSpaceOnUse"><path d="M0-.5h1v2H0z"/></pattern><pattern id="e" patternTransform="matrix(.66773 -1.0037 2.42619 2.31145 3.476 3.535)" height="1" width="2" patternUnits="userSpaceOnUse"><path d="M0-.5h1v2H0z"/></pattern><linearGradient id="g"><stop offset="0" stop-color="#fff110"/><stop offset="1" stop-color="#cf7008"/></linearGradient><linearGradient id="h"><stop offset="0" stop-color="#fff"/><stop offset="1" stop-color="#999"/></linearGradient><linearGradient id="i"><stop offset="0" stop-color="#fff"/><stop offset="1" stop-color="#999"/></linearGradient><linearGradient id="j"><stop offset="0" stop-color="#fff"/><stop offset="1" stop-color="#999"/></linearGradient><linearGradient id="k"><stop offset="0" stop-color="#fff"/><stop offset="1" stop-color="#999"/></linearGradient><linearGradient xlink:href="#l" id="o" x1="36.538" y1="45.928" x2="36.804" y2="23.333" gradientUnits="userSpaceOnUse"/><linearGradient xlink:href="#m" id="p" x1="41.611" y1="59.854" x2="32.101" y2="10.999" gradientUnits="userSpaceOnUse"/><linearGradient id="n"><stop offset="0" stop-color="#d3d7cf"/><stop offset="1" stop-color="#888a85"/></linearGradient></defs><path style="marker:none" d="M33 21L17 45l24 4 12-16-4-10z" color="#000" fill="url(#o)" stroke="#0b1521" stroke-width="2" stroke-linejoin="round" overflow="visible"/><path style="marker:none" d="M50 13l-11-2c-4-1-5.172-1.414-8 0-2 1-3 2-5 5L7 46c-3 4-1 7 3 8l28 4c5 1 9-2 12-6l4-5" color="#000" fill="none" stroke="#172a04" stroke-width="8" stroke-linecap="round" overflow="visible"/><path style="marker:none" d="M33.966 23.114L20.35 43.57l19.79 3.268 10.57-14.148-3.137-7.848z" color="#000" fill="none" stroke="#729fcf" stroke-width="2" overflow="visible"/><path style="marker:none" d="M50 13l-11-2c-4-1-5.172-1.414-8 0-2 1-3 2-5 5L7 46c-3 4-1 7 3 8l28 4c5 1 9-2 12-6l4-5" color="#000" fill="none" stroke="url(#p)" stroke-width="4" stroke-linecap="round" overflow="visible"/><path style="marker:none" d="M50.064 12L38.518 9.92c-4-1-5.172-1.415-8 0-2 1-3 2-5 5l-19 30c-3 4-1 7 3 8l28 4c5 1 9-2 12-6L53 46" color="#000" fill="none" stroke="#8ae234" stroke-width="2" stroke-linecap="round" overflow="visible"/><path d="M26.203 1.681c-9.674 0-20.96 6.24-25.797 18.72C5.243 29.76 14.916 36 26.203 36 37.489 36 47.163 29.76 52 20.4 47.163 7.922 35.877 1.682 26.203 1.682zm0 31.2c-9.674 0-17.736-6.24-19.348-12.48C8.467 14.16 16.53 7.92 26.203 7.92s17.735 6.24 19.348 12.48c-1.613 6.24-9.674 12.48-19.348 12.48zm0-21.84c-1.008 0-1.915.195-2.822.439 1.663.73 2.822 2.34 2.822 4.24 0 2.584-2.167 4.68-4.837 4.68-1.965 0-3.628-1.12-4.384-2.73-.251.878-.453 1.756-.453 2.73 0 5.168 4.333 9.36 9.674 9.36 5.34 0 9.674-4.192 9.674-9.36 0-5.167-4.333-9.359-9.674-9.359z"/><path d="M24.513 32.744c-4.354-.464-8.192-1.87-11.411-4.179-2.537-1.82-5.046-4.92-5.862-7.24-.309-.88-.308-.914.05-1.928 1.392-3.957 5.894-8.026 10.977-9.922 2.388-.89 4.189-1.243 6.954-1.361 3.7-.158 6.748.395 10.068 1.827 4.51 1.945 8.541 5.827 9.86 9.497l.344.954-.407 1.088c-1.903 5.089-8.046 9.656-14.649 10.893-1.533.287-4.794.49-5.924.37zm3.945-3.17c3.269-.752 6.041-3.25 7.01-6.314.741-2.347.61-4.448-.424-6.725-1.727-3.808-5.799-6-10.098-5.435-.713.093-1.36.238-1.438.322-.078.084.206.373.63.643 2.401 1.53 2.62 4.93.448 6.952-2.087 1.942-5.736 1.529-7.162-.81-.19-.313-.397-.568-.46-.568-.185-.001-.49 1.808-.486 2.874.01 2.228.762 4.124 2.376 5.983 2.345 2.702 6.064 3.894 9.604 3.079z" opacity=".848" fill="#fff" stroke="#ed1521" stroke-width=".18"/></svg>