<svg xmlns="http://www.w3.org/2000/svg" width="64" height="64"><g fill="none" stroke-linecap="round" stroke-linejoin="round"><path d="M118.17 160.413V73.82h73.66v86.594" stroke="#000" stroke-width="17.291" transform="matrix(.32583 0 0 .36954 -18.503 -12.28)"/><path d="M81.341 182.062c3.07 0 18.415 0 18.415-29.767V73.819c0-8.118 9.207-16.236 18.415-16.236h73.658c9.208 0 18.415 8.118 18.415 16.236v78.476c0 29.767 15.346 29.767 18.415 29.767" stroke="#4e9a06" stroke-width="17.291" transform="matrix(.32583 0 0 .36954 -18.503 -12.28)"/><path d="M118.17 160.413V73.82h73.66v86.594" stroke="#d3d7cf" stroke-width="5.764" transform="matrix(.32583 0 0 .36954 -18.503 -12.28)"/><path d="M81.341 182.062c3.07 0 18.415 0 18.415-29.767V73.819c0-8.118 9.207-16.236 18.415-16.236h73.658c9.208 0 18.415 8.118 18.415 16.236v78.476c0 29.767 15.346 29.767 18.415 29.767" stroke="#8ae234" stroke-width="5.764" transform="matrix(.32583 0 0 .36954 -18.503 -12.28)"/></g></svg>