<svg xmlns="http://www.w3.org/2000/svg" xmlns:xlink="http://www.w3.org/1999/xlink" width="64" height="64"><defs><linearGradient id="l"><stop offset="0" stop-color="#4e9a06"/><stop offset="1" stop-color="#8ae234"/></linearGradient><linearGradient id="n"><stop offset="0" stop-color="#fff"/><stop offset="1" stop-color="#999"/></linearGradient><linearGradient id="f"><stop offset="0" stop-color="#fff110"/><stop offset="1" stop-color="#cf7008"/></linearGradient><pattern id="a" patternTransform="matrix(.66773 -1.0037 2.42619 2.31145 3.476 3.535)" height="1" width="2" patternUnits="userSpaceOnUse"><path d="M0-.5h1v2H0z"/></pattern><pattern id="b" patternTransform="matrix(.66773 -1.0037 2.42619 2.31145 3.476 3.535)" height="1" width="2" patternUnits="userSpaceOnUse"><path d="M0-.5h1v2H0z"/></pattern><pattern patternTransform="matrix(.66773 -1.0037 2.42619 2.31145 -26.336 10.887)" id="c" xlink:href="#d"/><pattern id="d" patternTransform="matrix(.66773 -1.0037 2.42619 2.31145 3.476 3.535)" height="1" width="2" patternUnits="userSpaceOnUse"><path d="M0-.5h1v2H0z"/></pattern><pattern id="e" patternTransform="matrix(.66773 -1.0037 2.42619 2.31145 3.476 3.535)" height="1" width="2" patternUnits="userSpaceOnUse"><path d="M0-.5h1v2H0z"/></pattern><linearGradient id="g"><stop offset="0" stop-color="#fff110"/><stop offset="1" stop-color="#cf7008"/></linearGradient><linearGradient id="h"><stop offset="0" stop-color="#fff"/><stop offset="1" stop-color="#999"/></linearGradient><linearGradient id="i"><stop offset="0" stop-color="#fff"/><stop offset="1" stop-color="#999"/></linearGradient><linearGradient id="j"><stop offset="0" stop-color="#fff"/><stop offset="1" stop-color="#999"/></linearGradient><linearGradient id="k"><stop offset="0" stop-color="#fff"/><stop offset="1" stop-color="#999"/></linearGradient><linearGradient xlink:href="#l" id="o" x1="41.611" y1="59.854" x2="32.101" y2="10.999" gradientUnits="userSpaceOnUse"/><linearGradient id="m"><stop offset="0" stop-color="#d3d7cf"/><stop offset="1" stop-color="#888a85"/></linearGradient><linearGradient xlink:href="#n" id="p" x1="19" y1="33" x2="49.566" y2="33" gradientUnits="userSpaceOnUse"/></defs><path style="marker:none" d="M50 13l-11-2c-4-1-5.172-1.414-8 0-2 1-3 2-5 5L7 46c-3 4-1 7 3 8l28 4c5 1 9-2 12-6l4-5" color="#000" fill="none" stroke="#172a04" stroke-width="8" stroke-linecap="round" overflow="visible"/><path style="marker:none" d="M50 13l-11-2c-4-1-5.172-1.414-8 0-2 1-3 2-5 5L7 46c-3 4-1 7 3 8l28 4c5 1 9-2 12-6l4-5" color="#000" fill="none" stroke="url(#o)" stroke-width="4" stroke-linecap="round" overflow="visible"/><path style="marker:none" d="M50.064 12L38.518 9.92c-4-1-5.172-1.415-8 0-2 1-3 2-5 5l-19 30c-3 4-1 7 3 8l28 4c5 1 9-2 12-6L53 46" color="#000" fill="none" stroke="#8ae234" stroke-width="2" stroke-linecap="round" overflow="visible"/><text style="line-height:125%;-inkscape-font-specification:'sans-serif Bold'" x="18.805" y="47.58" font-weight="700" font-size="40" font-family="sans-serif" letter-spacing="0" word-spacing="0" fill="url(#p)" stroke="#000" stroke-width="2.5"><tspan x="18.805" y="47.58">A</tspan></text></svg>