<svg xmlns="http://www.w3.org/2000/svg" xmlns:xlink="http://www.w3.org/1999/xlink" width="64" height="64"><defs><linearGradient id="k"><stop offset="0" stop-color="#888a85"/><stop offset="1" stop-color="#d3d7cf"/></linearGradient><linearGradient id="j"><stop offset="0" stop-color="#fff"/><stop offset="1" stop-color="#999"/></linearGradient><linearGradient id="f"><stop offset="0" stop-color="#fff110"/><stop offset="1" stop-color="#cf7008"/></linearGradient><pattern id="a" patternTransform="matrix(.66773 -1.0037 2.42619 2.31145 3.476 3.535)" height="1" width="2" patternUnits="userSpaceOnUse"><path d="M0-.5h1v2H0z"/></pattern><pattern id="b" patternTransform="matrix(.66773 -1.0037 2.42619 2.31145 3.476 3.535)" height="1" width="2" patternUnits="userSpaceOnUse"><path d="M0-.5h1v2H0z"/></pattern><pattern patternTransform="matrix(.66773 -1.0037 2.42619 2.31145 -26.336 10.887)" id="c" xlink:href="#d"/><pattern id="d" patternTransform="matrix(.66773 -1.0037 2.42619 2.31145 3.476 3.535)" height="1" width="2" patternUnits="userSpaceOnUse"><path d="M0-.5h1v2H0z"/></pattern><pattern id="e" patternTransform="matrix(.66773 -1.0037 2.42619 2.31145 3.476 3.535)" height="1" width="2" patternUnits="userSpaceOnUse"><path d="M0-.5h1v2H0z"/></pattern><linearGradient id="g"><stop offset="0" stop-color="#fff110"/><stop offset="1" stop-color="#cf7008"/></linearGradient><linearGradient id="h"><stop offset="0" stop-color="#fff"/><stop offset="1" stop-color="#999"/></linearGradient><linearGradient id="i"><stop offset="0" stop-color="#fff"/><stop offset="1" stop-color="#999"/></linearGradient><linearGradient id="A"><stop offset="0" stop-color="#d3d7cf"/><stop offset="1" stop-color="#888a85"/></linearGradient><linearGradient xlink:href="#k" id="B" x1="18" y1="46" x2="11" y2="6" gradientUnits="userSpaceOnUse"/><linearGradient id="l"><stop offset="0" stop-color="#888a85"/><stop offset="1" stop-color="#d3d7cf"/></linearGradient><linearGradient gradientTransform="matrix(4.5 0 0 .09524 -26.5 50.524)" y2="15.5" x2="13" y1="36.5" x1="13.222" gradientUnits="userSpaceOnUse" id="C" xlink:href="#l"/><linearGradient id="m"><stop offset="0" stop-color="#888a85"/><stop offset="1" stop-color="#d3d7cf"/></linearGradient><linearGradient gradientTransform="matrix(.5 0 0 .19048 19.5 8.048)" y2="6" x2="11" y1="41.75" x1="15" gradientUnits="userSpaceOnUse" id="D" xlink:href="#m"/><linearGradient id="n"><stop offset="0" stop-color="#888a85"/><stop offset="1" stop-color="#d3d7cf"/></linearGradient><linearGradient gradientTransform="translate(29 -13)" y2="18" x2="10" y1="32" x1="15" gradientUnits="userSpaceOnUse" id="E" xlink:href="#n"/><linearGradient id="x"><stop offset="0" stop-opacity=".5"/><stop offset="1" stop-color="#fff" stop-opacity="0"/></linearGradient><pattern patternUnits="userSpaceOnUse" width="2" height="1" patternTransform="matrix(.66773 -1.0037 2.42619 2.31145 3.476 3.535)" id="o"><path d="M0-.5h1v2H0z"/></pattern><pattern patternUnits="userSpaceOnUse" width="2" height="1" patternTransform="matrix(.66773 -1.0037 2.42619 2.31145 3.476 3.535)" id="p"><path d="M0-.5h1v2H0z"/></pattern><pattern xlink:href="#r" id="q" patternTransform="matrix(.66773 -1.0037 2.42619 2.31145 -26.336 10.887)"/><pattern patternUnits="userSpaceOnUse" width="2" height="1" patternTransform="matrix(.66773 -1.0037 2.42619 2.31145 3.476 3.535)" id="r"><path d="M0-.5h1v2H0z"/></pattern><pattern patternUnits="userSpaceOnUse" width="2" height="1" patternTransform="matrix(.66773 -1.0037 2.42619 2.31145 3.476 3.535)" id="s"><path d="M0-.5h1v2H0z"/></pattern><radialGradient xlink:href="#t" id="F" gradientUnits="userSpaceOnUse" gradientTransform="matrix(1 0 0 .23797 0 28.933)" cx="24.13" cy="37.968" fx="24.13" fy="37.968" r="16.529"/><linearGradient id="t"><stop offset="0"/><stop offset="1" stop-opacity="0"/></linearGradient><linearGradient gradientTransform="matrix(.98972 0 0 1.0229 .202 .025)" xlink:href="#u" id="G" x1="14.999" y1="2.166" x2="24.092" y2="31.494" gradientUnits="userSpaceOnUse"/><linearGradient id="u"><stop offset="0" stop-color="#8a8a8a"/><stop offset="1" stop-color="#484848"/></linearGradient><linearGradient gradientTransform="matrix(1.32087 0 0 1.32085 -6.7 -7.607)" gradientUnits="userSpaceOnUse" y2="31.063" x2="33.219" y1="34" x1="30.656" id="H" xlink:href="#v"/><linearGradient id="v"><stop offset="0" stop-color="#7d7d7d"/><stop offset=".5" stop-color="#b1b1b1"/><stop offset="1" stop-color="#686868"/></linearGradient><linearGradient xlink:href="#w" id="I" x1="18.293" y1="13.602" x2="17.501" y2="25.743" gradientUnits="userSpaceOnUse"/><linearGradient id="w"><stop offset="0" stop-color="#fff"/><stop offset=".5" stop-color="#fff" stop-opacity=".219"/><stop offset="1" stop-color="#fff"/></linearGradient><linearGradient id="z"><stop offset="0" stop-color="#fff"/><stop offset="1" stop-color="#fff" stop-opacity="0"/></linearGradient><radialGradient gradientUnits="userSpaceOnUse" r="8.309" fy="21.818" fx="18.241" cy="21.818" cx="18.241" id="J" xlink:href="#y"/><linearGradient id="y"><stop offset="0" stop-color="#729fcf" stop-opacity=".208"/><stop offset="1" stop-color="#729fcf" stop-opacity=".676"/></linearGradient><radialGradient gradientUnits="userSpaceOnUse" gradientTransform="matrix(2.5663 0 0 2.30366 -24.6 -19.35)" r="6.656" fy="13.078" fx="15.414" cy="13.078" cx="15.414" id="K" xlink:href="#z"/></defs><path fill="#d3d7cf" stroke="#2e3436" stroke-width="2" stroke-linejoin="round" d="M5 3h16v46H5z"/><path fill="#d3d7cf" stroke="#2e3436" stroke-width="2" stroke-linecap="round" stroke-linejoin="round" stroke-dashoffset="2.04" d="M3 49h58v8H3z"/><path fill="#2e3436" stroke="#2e3436" stroke-width="2" stroke-linecap="round" stroke-linejoin="round" stroke-dashoffset="2.04" d="M15 57h34v4H15z"/><path fill="#d3d7cf" stroke="#2e3436" stroke-width="2" stroke-linecap="round" stroke-linejoin="round" stroke-dashoffset="2.04" d="M21 7h11v12H21z"/><path fill="#d3d7cf" stroke="#2e3436" stroke-width="2" stroke-linecap="round" stroke-linejoin="round" stroke-dashoffset="2.04" d="M31 3h20v18H31z"/><g color="#000" fill="#d3d7cf" stroke="#2e3436" stroke-width="3.217" stroke-linejoin="round"><path d="M37.996 39.574l-8.016 3.227v6.453l12.826-4.84v-4.84zm4.81 8.066L29.98 52.48l6.413 8.066 6.413-6.453z" style="marker:none" overflow="visible" transform="matrix(.6237 0 0 .61986 18.301 5.47)"/><path style="marker:none" overflow="visible" d="M26.773 33.121h19.24v6.453h-19.24zM23.566 25.154h25.653v7.967H23.566z" transform="matrix(.6237 0 0 .61986 18.301 5.47)"/></g><path fill="url(#B)" stroke="#d3d7cf" stroke-width="2" d="M7 5h12v42H7z"/><path fill="url(#C)" stroke="#d3d7cf" stroke-width="2" d="M5 51h54v4H5z"/><path fill="url(#D)" stroke="#d3d7cf" stroke-width="2" d="M23 9h6v8h-6z"/><path fill="url(#E)" stroke="#d3d7cf" stroke-width="2" d="M33 5h16v14H33z"/><g transform="translate(-1.463 19.109)" color="#000"><ellipse ry="3.933" rx="16.529" cy="37.968" cx="24.13" style="marker:none" transform="matrix(1.44643 0 0 1.51999 -10.975 -17.752)" overflow="visible" opacity=".27" fill="url(#F)" fill-rule="evenodd"/><path d="M18.639 3.24c-8.056 0-14.594 6.757-14.594 15.082 0 8.326 6.538 15.083 14.594 15.083 3.443 0 6.483-1.416 8.98-3.48-.203 1.03-.077 2.081.748 2.822l10.852 9.746c1.22 1.096 3.055.952 4.116-.31a3.08 3.08 0 0 0-.3-4.253l-10.851-9.746c-.665-.597-1.478-.773-2.283-.657 1.967-2.57 3.33-5.676 3.33-9.205 0-8.325-6.537-15.082-14.592-15.082zm-.075 1.254c7.56 0 13.155 4.899 13.155 13.596 0 8.874-5.757 13.597-13.155 13.597-7.228 0-13.155-5.604-13.155-13.597 0-8.166 5.764-13.596 13.155-13.596z" style="marker:none" overflow="visible" fill="#dcdcdc" fill-rule="evenodd" stroke="url(#G)" stroke-width="2" stroke-linecap="round" stroke-miterlimit="10"/><path style="marker:none" d="M18.614 3.175c-8.081 0-14.64 6.78-14.64 15.132s6.559 15.13 14.64 15.13c3.455 0 6.505-1.42 9.01-3.491-.204 1.033-.078 2.089.75 2.832l10.887 9.777c1.225 1.1 3.065.956 4.13-.31a3.09 3.09 0 0 0-.301-4.268L32.203 28.2c-.666-.599-1.482-.776-2.29-.66 1.973-2.578 3.342-5.694 3.342-9.233 0-8.353-6.56-15.132-14.64-15.132zm-.075 3.26c6.217 0 11.262 5.214 11.262 11.639 0 6.425-5.045 11.64-11.262 11.64-6.217 0-11.262-5.215-11.262-11.64 0-6.425 5.045-11.64 11.262-11.64z" overflow="visible" fill="#dcdcdc" fill-rule="evenodd"/><path style="marker:none" d="M39.303 42.554c-.473-2.325 1.383-4.921 3.548-4.898l-10.65-9.47c-2.915-.058-4.226 2.325-3.738 4.705z" overflow="visible" fill="url(#H)" fill-rule="evenodd"/><circle r="11.049" cy="18.92" cx="17.501" style="marker:none" transform="matrix(1.23293 0 0 1.27426 -3.188 -6.294)" overflow="visible" fill="none" stroke="url(#I)" stroke-width=".798" stroke-linecap="round" stroke-miterlimit="10"/><rect style="marker:none" width="19.129" height="4.481" x="40.716" y=".025" rx="2.146" ry="1.905" transform="matrix(.74211 .67027 -.63647 .7713 0 0)" overflow="visible" opacity=".433" fill="none" stroke="#fff" stroke-linecap="round" stroke-miterlimit="10"/><circle r="8.309" cy="18.478" cx="17.589" style="marker:none" transform="matrix(1.38423 0 0 1.43063 -5.958 -8.464)" fill="url(#J)" fill-rule="evenodd" stroke="#204a87" stroke-width=".711" stroke-linecap="round" stroke-miterlimit="10"/><path style="marker:none" d="M18.173 7.59c-5.154 0-9.328 4.314-9.328 9.64 0 1.54.416 2.955 1.036 4.246 1.24.472 2.557.793 3.954.793 6.108 0 10.985-4.973 11.362-11.187-1.713-2.093-4.167-3.491-7.024-3.491z" overflow="visible" opacity=".834" fill="url(#K)" fill-rule="evenodd"/></g></svg>