<svg xmlns="http://www.w3.org/2000/svg" width="64" height="64"><path d="M46 20.845c1.887 2.855 1 7.457-1 8.39-2 .932-4.113.871-6-1.984-1.887-2.855-2.557-6.511-1-8.27 1.557-1.76 6.113-.991 8 1.864z" fill="#8ae234" stroke="#172a04" stroke-width="2" stroke-linecap="round" stroke-linejoin="round" stroke-miterlimit="32.2"/><path d="M10 18.98l4 20.509" fill="none" stroke="#0b1521" stroke-width="8" stroke-linecap="round"/><path d="M10 18.98l4 20.509" fill="none" stroke="#3465a4" stroke-width="4" stroke-linecap="round"/><path d="M9 18.98l4 20.509" fill="none" stroke="#729fcf" stroke-width="2" stroke-linecap="round"/><path d="M46 28.302c2-2.796 0-10.254-6-10.254h12z" fill="#73d216" stroke="#172a04" stroke-width="2" stroke-linecap="round" stroke-linejoin="round" stroke-miterlimit="32.2"/><path d="M44 19.913l6.955-.022" fill="none" stroke="#8ae234" stroke-width="2"/><path d="M45.977 28.324c2-2.797 0-10.255-6-10.255h12z" fill="none" stroke="#172a04" stroke-width="2" stroke-linecap="round" stroke-linejoin="round" stroke-miterlimit="32.2"/><path d="M14 39.489l26-14.915" fill="none" stroke="#172a04" stroke-width="8" stroke-linecap="round"/><path d="M14 39.489l26-14.915" fill="none" stroke="#73d216" stroke-width="4" stroke-linecap="round"/><path d="M13.59 38.599l26-14.915" fill="none" stroke="#8ae234" stroke-width="2" stroke-linecap="round"/><path d="M14 39.489l18 14.915" fill="none" stroke="#280000" stroke-width="8" stroke-linecap="round"/><path d="M14 39.489l18 14.915" fill="none" stroke="#c00" stroke-width="4" stroke-linecap="round"/><path d="M13.16 40.061l18 14.915" fill="none" stroke="#ef2929" stroke-width="2" stroke-linecap="round"/><path d="M16 15.252c-2.067 3.773-10 4.66-13 2.796L7 6.862z" fill="#3465a4" stroke="#0b1521" stroke-width="2" stroke-linecap="round" stroke-linejoin="round" stroke-miterlimit="32.2"/><path d="M13.321 15.372c-1.354 1.32-5.313 2.103-7.82 1.538l2.306-6.619z" fill="none" stroke="#729fcf" stroke-width="2" stroke-linecap="round" stroke-miterlimit="32.2"/><path d="M26.706 57.858c-.234-4.231 6.16-8.697 9.758-8.481L39 60.929z" fill="#c00" stroke="#280000" stroke-width="2" stroke-linecap="round" stroke-linejoin="round" stroke-miterlimit="32.2"/><path d="M28.936 56.506c.463-1.776 3.47-4.3 5.943-4.982l1.56 6.806z" fill="none" stroke="#ef2929" stroke-width="2" stroke-linecap="round" stroke-miterlimit="32.2"/><g><path d="M53.734 47.155L43.57 37.719" fill="none" stroke="#4e9a06" stroke-width="4.0000415" stroke-linecap="round"/><path d="M53.734 47.155l4.115-10.003" fill="none" stroke="#c00" stroke-width="4.0000415" stroke-linecap="round"/><path d="M41.098 35.58c1.002-1.226 3.157-1.467 3.844-.711.687.755.95 1.697-.051 2.923-1.002 1.226-2.525 2.025-3.517 1.58-.991-.447-1.278-2.566-.276-3.792z" fill="#8ae234" stroke="#4e9a06" stroke-width="1.9997894" stroke-linecap="round" stroke-linejoin="round" stroke-miterlimit="32.2"/><path d="M45.224 51.742l8.51-4.587" fill="none" stroke="#204a87" stroke-width="4.0000415" stroke-linecap="round"/><path d="M44.393 34.555c-1.51-.499-4.53 1.41-3.706 4.06l-1.65-5.301z" fill="#73d216" stroke="#172a04" stroke-width="1.9997894" stroke-linecap="round" stroke-linejoin="round" stroke-miterlimit="32.2"/><path d="M40.961 36.592l-.965-3.07" fill="none" stroke="#8ae234" stroke-width="1.9997894"/><path d="M44.405 34.562c-1.51-.499-4.53 1.41-3.705 4.06l-1.65-5.3z" fill="none" stroke="#4e9a06" stroke-width="1.9997894" stroke-linecap="round" stroke-linejoin="round" stroke-miterlimit="32.2"/><path d="M53.164 46.436L43 37" fill="none" stroke="#8ae234" stroke-width="1.9997894" stroke-linecap="round"/><path d="M45 52l8.51-4.587" fill="none" stroke="#729fcf" stroke-width="1.9997894" stroke-linecap="round"/><path d="M42.752 49.603c1.95.395 3.434 3.778 3.022 5.36l-5.492-.23z" fill="#729fcf" stroke="#204a87" stroke-width="1.9997894" stroke-linecap="round" stroke-linejoin="round" stroke-miterlimit="32.2"/><path d="M53.734 47.155l4.115-10.003" fill="none" stroke="#ef2929" stroke-width="1.9997894" stroke-linecap="round"/><path d="M60.103 39.016c-1.837.685-4.69-1.526-5.088-3.145l4.755-2.709z" fill="#ef2929" stroke="#a40000" stroke-width="1.9997894" stroke-linecap="round" stroke-linejoin="round" stroke-miterlimit="32.2"/><g><path d="M26.055 9.075l7.24 4.727" fill="none" stroke="#4e9a06" stroke-width="3.99992502" stroke-linecap="round"/><path d="M26.055 9.075l-1.473 6.581" fill="none" stroke="#c00" stroke-width="3.99992502" stroke-linecap="round"/><path d="M35.04 14.855c-.486.859-1.785 1.234-2.287.842-.501-.391-.763-.942-.276-1.801.486-.86 1.338-1.511 1.994-1.341.656.17 1.056 1.44.57 2.3z" fill="#8ae234" stroke="#4e9a06" stroke-width="1.99996251" stroke-linecap="round" stroke-linejoin="round" stroke-miterlimit="32.2"/><path d="M30.8 5.36l-4.745 3.715" fill="none" stroke="#204a87" stroke-width="3.99992502" stroke-linecap="round"/><path d="M33.124 15.832c.98.148 2.635-1.344 1.849-2.886l1.572 3.084z" fill="#73d216" stroke="#172a04" stroke-width="1.99996251" stroke-linecap="round" stroke-linejoin="round" stroke-miterlimit="32.2"/><path d="M35.018 14.219l.917 1.784" fill="none" stroke="#8ae234" stroke-width="1.99996251"/><path d="M33.116 15.83c.98.146 2.635-1.345 1.848-2.887l1.573 3.084z" fill="none" stroke="#4e9a06" stroke-width="1.99996251" stroke-linecap="round" stroke-linejoin="round" stroke-miterlimit="32.2"/><path d="M26.481 9.457l7.241 4.726" fill="none" stroke="#8ae234" stroke-width="1.99996251" stroke-linecap="round"/><path d="M30.91 5.177l-4.745 3.716" fill="none" stroke="#729fcf" stroke-width="1.99996251" stroke-linecap="round"/><path d="M32.545 6.412c-1.24-.036-2.508-1.958-2.422-2.974L33.52 3z" fill="#729fcf" stroke="#204a87" stroke-width="1.99996251" stroke-linecap="round" stroke-linejoin="round" stroke-miterlimit="32.2"/><path d="M26.055 9.075l-1.473 6.581" fill="none" stroke="#ef2929" stroke-width="1.99996251" stroke-linecap="round"/><path d="M23 14.748c1.057-.614 3.042.443 3.459 1.396l-2.637 2.166z" fill="#ef2929" stroke="#a40000" stroke-width="1.99996251" stroke-linecap="round" stroke-linejoin="round" stroke-miterlimit="32.2"/></g></g></svg>