<svg xmlns="http://www.w3.org/2000/svg" xmlns:xlink="http://www.w3.org/1999/xlink" width="48" height="48" viewBox="0 0 12.7 12.7"><defs><linearGradient id="a"><stop offset="0" stop-color="gray"/><stop offset="1" stop-color="#999" stop-opacity="0"/></linearGradient><linearGradient xlink:href="#a" id="b" gradientUnits="userSpaceOnUse" x1="5.601" y1="287.266" x2="3.061" y2="291.399" gradientTransform="matrix(.60227 0 0 1 2.997 -.466)"/><linearGradient xlink:href="#a" id="c" gradientUnits="userSpaceOnUse" x1="5.601" y1="287.266" x2="3.061" y2="291.399" gradientTransform="matrix(.60227 0 0 1 7.005 -.466)"/></defs><g transform="translate(0 -284.3)"><rect width="2.019" height="11.454" x="2.998" y="284.844" ry="1.104"/><path d="M3.634 289.735l.01-3.629s-.072-.672.17-.726c.45-.098.909.18.852 1.089-.068 1.37.24 2.772-.288 3.297z" fill="url(#b)" fill-rule="evenodd"/><rect width="2.019" height="11.454" x="7.005" y="284.844" ry="1.104"/><path d="M7.641 289.735l.01-3.629s-.072-.672.17-.726c.45-.098.909.18.852 1.089-.068 1.37.24 2.772-.288 3.297z" fill="url(#c)" fill-rule="evenodd"/></g></svg>