<svg xmlns="http://www.w3.org/2000/svg" xmlns:xlink="http://www.w3.org/1999/xlink" width="64" height="64"><defs><linearGradient id="f"><stop offset="0" stop-color="#888a85"/><stop offset="1" stop-color="#d3d7cf"/></linearGradient><linearGradient id="d"><stop offset="0" stop-color="#888a85"/><stop offset="1" stop-color="#d3d7cf"/></linearGradient><linearGradient id="c"><stop offset="0" stop-color="#888a85"/><stop offset="1" stop-color="#d3d7cf"/></linearGradient><linearGradient id="a"><stop offset="0" stop-color="#fff"/><stop offset="1" stop-color="#999"/></linearGradient><linearGradient id="b"><stop offset="0" stop-color="#fff"/><stop offset="1" stop-color="#999"/></linearGradient><linearGradient xlink:href="#c" id="i" x1="31" y1="54" x2="30" y2="44" gradientUnits="userSpaceOnUse"/><linearGradient xlink:href="#d" id="h" x1="32" y1="36" x2="31" y2="26" gradientUnits="userSpaceOnUse"/><linearGradient id="e"><stop offset="0" stop-color="#fff"/><stop offset="1" stop-color="#999"/></linearGradient><linearGradient xlink:href="#f" id="g" x1="34" y1="18" x2="31" y2="8" gradientUnits="userSpaceOnUse"/></defs><g stroke-width="2"><path d="M19 21v-2l6-4v-4l-6-4V5h26v2l-6 4v4l6 4v2z" fill="url(#g)" stroke="#2e3436" stroke-linejoin="round"/><path d="M20 19l4-1 3-2v-6l-3-2-4-1h24l-4 1-3 2v6l3 2 4 1z" fill="none" stroke="#d3d7cf" stroke-linejoin="round"/><path d="M53 37l-6-4v-4l6-4v-1.918H11V25l6 4v4l-6 4v2.082h42z" fill="url(#h)" stroke="#2e3436" stroke-linejoin="round"/><path d="M48 36l-3-2v-6l3-2 4-1H12l4 1 3 2v6l-3 2-4 1h40z" fill="none" stroke="#d3d7cf" stroke-linejoin="round"/><path d="M3 57v-2l6-4v-4l-6-4v-2h58v2l-6 4v4l6 4v2z" fill="url(#i)" stroke="#2e3436" stroke-linejoin="round"/><path d="M4 55l4-1 3-2v-6l-3-2-4.322-1H60l-4 1-3 2v6l3 2 4 1z" fill="none" stroke="#d3d7cf" stroke-linecap="round" stroke-linejoin="round"/><path d="M53 36.918l-6-4v-4l6-4V23H11v1.918l6 4v4l-6 4V39h42zM19 21v-2l6-4v-4l-6-4V5h26v2l-6 4v4l6 4v2zM3 57v-2l6-4v-4l-6-4v-2h58v2l-6 4v4l6 4v2z" fill="none" stroke="#2e3436" stroke-linejoin="round"/><path d="M11 49h42M27 13h10M19 31h26" fill="none" stroke="#d3d7cf"/></g></svg>