<svg xmlns="http://www.w3.org/2000/svg" xmlns:xlink="http://www.w3.org/1999/xlink" width="64" height="64"><defs><linearGradient id="n"><stop offset="0" stop-color="#4e9a06"/><stop offset="1" stop-color="#8ae234"/></linearGradient><linearGradient id="m"><stop offset="0" stop-color="#204a87"/><stop offset="1" stop-color="#729fcf"/></linearGradient><linearGradient id="g"><stop offset="0" stop-color="#fff"/><stop offset="1" stop-color="#999"/></linearGradient><linearGradient id="f"><stop offset="0" stop-color="#fff110"/><stop offset="1" stop-color="#cf7008"/></linearGradient><pattern patternUnits="userSpaceOnUse" width="2" height="1" patternTransform="matrix(.66773 -1.0037 2.42619 2.31145 3.476 3.535)" id="a"><path d="M0-.5h1v2H0z"/></pattern><pattern patternUnits="userSpaceOnUse" width="2" height="1" patternTransform="matrix(.66773 -1.0037 2.42619 2.31145 3.476 3.535)" id="b"><path d="M0-.5h1v2H0z"/></pattern><pattern xlink:href="#d" id="c" patternTransform="matrix(.66773 -1.0037 2.42619 2.31145 -26.336 10.887)"/><pattern patternUnits="userSpaceOnUse" width="2" height="1" patternTransform="matrix(.66773 -1.0037 2.42619 2.31145 3.476 3.535)" id="d"><path d="M0-.5h1v2H0z"/></pattern><pattern patternUnits="userSpaceOnUse" width="2" height="1" patternTransform="matrix(.66773 -1.0037 2.42619 2.31145 3.476 3.535)" id="e"><path d="M0-.5h1v2H0z"/></pattern><pattern patternUnits="userSpaceOnUse" width="2" height="1" patternTransform="matrix(.66773 -1.0037 2.42619 2.31145 3.476 3.535)" id="h"><path d="M0-.5h1v2H0z"/></pattern><pattern patternUnits="userSpaceOnUse" width="2" height="1" patternTransform="matrix(.66773 -1.0037 2.42619 2.31145 3.476 3.535)" id="i"><path d="M0-.5h1v2H0z"/></pattern><pattern xlink:href="#k" id="j" patternTransform="matrix(.66773 -1.0037 2.42619 2.31145 -26.336 10.887)"/><pattern patternUnits="userSpaceOnUse" width="2" height="1" patternTransform="matrix(.66773 -1.0037 2.42619 2.31145 3.476 3.535)" id="k"><path d="M0-.5h1v2H0z"/></pattern><pattern patternUnits="userSpaceOnUse" width="2" height="1" patternTransform="matrix(.66773 -1.0037 2.42619 2.31145 3.476 3.535)" id="l"><path d="M0-.5h1v2H0z"/></pattern><linearGradient xlink:href="#m" id="o" x1="15.86" y1="58.906" x2="13.501" y2="35.595" gradientUnits="userSpaceOnUse"/><linearGradient xlink:href="#n" id="p" x1="23.809" y1="47.998" x2="18.028" y2="38.68" gradientUnits="userSpaceOnUse"/></defs><g stroke-width="1.066" stroke="#0b1521" fill="#3465a4"><path d="M28.938 37.704c-1.664-2.048-8.556-3.07-16.141-2.216-6.766.762-7.433 2.656-7.371 10.369l-3.417 5.598c-.121.239-.653 1.079-.846 1.3.958.252.892.353 1.447.353l1.53.178c0 7.54 5.376 12.053 9.837 8.32 2.774-5.63 5.703-4.39 11.45-5.926 6.583-4.593 7.255-14.23 3.511-17.976z" fill="url(#o)" stroke="#729fcf" transform="matrix(1.80232 0 0 1.9535 3.22 -63.581)"/><path d="M29.839 37.155c-1.665-2.048-9.903-3.674-17.755-2.56-7.213 1.024-7.768 3.583-7.768 11.262L.432 52c-.121.238-.555.512-.555 1.024.555.511 1.665 1.023 2.22 1.023h1.11c0 7.167 6.103 12.798 11.651 8.19 2.774-5.63 5.548-4.094 11.097-5.63 6.658-5.12 8.322-14.333 3.884-19.452z" fill="none" stroke-linejoin="round" transform="matrix(1.80232 0 0 1.9535 3.22 -63.581)"/><path d="M25.07 49.695c-1.374.965-1.545.356-2.35.382-.861.031-2.402 2.626-2.883 3.07l.026-.032-.438.113c.842-.022-.035.558-.035.113-.71-.888 1.572-3.348 2.568-3.382.724-.025 2.814-2.078 2.814-2.078s-6.622-.43-6.465-.632c.398-.513.869-1.105 1.392-1.954-6.326.252-10.915 2.267-10.94-2-.02-3.553 5.278-5.113 11.06-5.113 4.82 0 7.773 2.892 7.785 6.058.005 1.332.012-.05.012-.046 0 1.333.18 3.59-2.545 5.501z" fill="url(#p)" stroke="#8ae234" stroke-linejoin="round" transform="matrix(1.80232 0 0 1.9535 3.22 -63.581)"/><path d="M25.641 50.543c-1.583 1.112-1.871.48-2.797.51-.992.036-2.438 2.482-2.992 2.994h0-.555c.97-.025-.555.512-.555 0-.819-1.023 1.072-4.568 2.22-4.607.832-.029 2.219-1.024 2.219-1.024s-9.987 0-4.44-2.047c-3.883 0-11.096 2.56-11.096-3.072 0-4.095 5.549-6.142 12.207-6.142 5.548 0 8.877 3.583 8.877 7.166 0 1.536 0-.004 0 0 0 1.536.049 4.018-3.088 6.222z" fill="none" stroke="#172a04" stroke-linejoin="round" transform="matrix(1.80232 0 0 1.9535 3.22 -63.581)"/></g></svg>