<svg xmlns="http://www.w3.org/2000/svg" xmlns:xlink="http://www.w3.org/1999/xlink" width="64" height="64"><defs><linearGradient id="c"><stop offset="0" stop-color="#8ae234"/><stop offset="1" stop-color="#4e9a06"/></linearGradient><linearGradient id="b"><stop offset="0" stop-color="#729fcf"/><stop offset="1" stop-color="#204a87"/></linearGradient><linearGradient id="a"><stop offset="0" stop-color="#fff"/><stop offset="1" stop-color="#999"/></linearGradient><radialGradient xlink:href="#b" id="e" cx="16.463" cy="23.896" fx="16.463" fy="23.896" r="18.501" gradientTransform="matrix(.8048 .96646 -1.46211 1.06215 39.041 -19.52)" gradientUnits="userSpaceOnUse"/><linearGradient xlink:href="#c" id="f" x1="20.881" y1="21.481" x2="43.661" y2="44.871" gradientUnits="userSpaceOnUse"/><linearGradient xlink:href="#d" id="g" gradientUnits="userSpaceOnUse" gradientTransform="translate(71.495 -3.198)" x1="30" y1="10" x2="36" y2="54.227"/><linearGradient id="d"><stop offset="0" stop-color="#d3d7cf"/><stop offset="1" stop-color="#888a85"/></linearGradient></defs><ellipse cx="26.369" cy="31.13" rx="17.533" ry="16.376" transform="matrix(.99813 0 0 1.06866 2.68 -2.267)" opacity=".97" fill="url(#e)" stroke="#0b1521" stroke-width="1.936" stroke-linecap="round"/><ellipse cx="26.369" cy="31.13" rx="17.533" ry="16.376" transform="matrix(.88406 0 0 .94653 5.688 1.535)" opacity=".97" fill="none" stroke="#729fcf" stroke-width="2.186" stroke-linecap="round"/><path d="M6 56l16-5s0-15 10-17 12 9 12 9l14-5-5-10-4 2s-3-12-19-10-17 22-17 22l-7 2" fill="none" stroke="#172a04" stroke-width="8" stroke-linecap="round" stroke-linejoin="round"/><path d="M6 56l16-5s0-15 10-17 12 9 12 9l14-5-5-10-4 2s-3-12-19-10-17 22-17 22l-7 2" fill="none" stroke="url(#f)" stroke-width="4" stroke-linecap="round" stroke-linejoin="round"/><path d="M6 55l15-5s.525-15 11-17 12.61 8.797 12.61 8.797l12.068-4.322-3.24-6.404m-.603-4.054l-3.314 1.504S46 17 30 19 12 41 12 41l-6 2" fill="none" stroke="#8ae234" stroke-width="2" stroke-linecap="round" stroke-linejoin="round"/><g color="#000" stroke-width="3.034"><path d="M94.495 6.802l-.011 27.596 18.022-7.66-.011-19.936zm18 23l-18.011 7.66.01 8.34 18-8zm.01 10.724l-16.52 7.66 7.51 4.616 9-5z" style="marker:none" fill="url(#g)" stroke="#2e3436" stroke-linejoin="round" overflow="visible" transform="matrix(.66585 0 0 .65272 -25.912 -1.452)"/><path d="M97.487 9.885v19.869l11.992-5.099.023-14.77zm12.015 24.565l-11.99 5.014v1.711l11.965-5.4zm.045 10.83l-7.195 3.327 1.205.808 5.99-3.408z" style="marker:none" fill="none" stroke="#d3d7cf" overflow="visible" transform="matrix(.66585 0 0 .65272 -25.912 -1.452)"/></g></svg>