<svg xmlns="http://www.w3.org/2000/svg" xmlns:xlink="http://www.w3.org/1999/xlink" height="64" width="64"><defs><linearGradient id="c"><stop offset="0" stop-color="#a40000"/><stop offset="1" stop-color="#ef2929"/></linearGradient><linearGradient id="b"><stop offset="0" stop-color="#204a87"/><stop offset="1" stop-color="#3465a4"/></linearGradient><linearGradient id="a"><stop offset="0" stop-color="#3465a4"/><stop offset="1" stop-color="#729fcf"/></linearGradient><linearGradient xlink:href="#a" id="g" x1="21.39" y1="54.203" x2="19.119" y2="38" gradientUnits="userSpaceOnUse" gradientTransform="translate(0 2)"/><linearGradient xlink:href="#b" id="f" x1="54.407" y1="40.632" x2="47.966" y2="32.768" gradientUnits="userSpaceOnUse" gradientTransform="translate(0 2)"/><linearGradient xlink:href="#c" id="h" x1="35.558" y1="28.314" x2="29.114" y2="5.59" gradientUnits="userSpaceOnUse"/><linearGradient xlink:href="#d" id="e" x1="35.558" y1="28.314" x2="29.114" y2="5.59" gradientUnits="userSpaceOnUse"/><linearGradient id="d"><stop offset="0" stop-color="#a40000"/><stop offset="1" stop-color="#ef2929"/></linearGradient></defs><g stroke-width="2"><path d="M27 3l34 6h0L39 31 3 25z" fill="url(#e)" fill-rule="evenodd" stroke="#280000" stroke-linejoin="round"/><path d="M27.61 5.144l29.258 5.144-18.546 18.568-30.95-5.144z" fill="none" stroke="#ef2929"/></g><path d="M27 13l34 6h0L39 41 3 35z" fill="#729fcf" fill-rule="evenodd" stroke="#0b1521" stroke-width="2" stroke-linejoin="round"/><path d="M39 41.237l21.966-21.99L61 39 39 61z" fill="url(#f)" fill-rule="evenodd" stroke="#0b1521" stroke-width="2" stroke-linejoin="round"/><path d="M3 55l36 6V41L3 35z" fill="url(#g)" fill-rule="evenodd" stroke="#0b1521" stroke-width="2" stroke-linejoin="round"/><path d="M5 53.324l31.983 5.286.009-15.944-31.984-5.322z" fill="none" stroke="#729fcf" stroke-width="2"/><path d="M41 42l18-18-.012 14.18L41 56z" fill="none" stroke="#3465a4" stroke-width="2"/><g opacity=".8" stroke-width="2"><path d="M27 3l34 6h0L39 31 3 25z" fill="url(#h)" fill-rule="evenodd" stroke="#280000" stroke-linejoin="round"/><path d="M27.61 5.144l29.258 5.144-18.546 18.568-30.95-5.144z" fill="none" stroke="#ef2929"/></g><path d="M27 3l34 6h0L39 31 3 25z" stroke="#280000" stroke-width="2" stroke-linejoin="round" opacity=".8" fill="none"/></svg>