<svg xmlns="http://www.w3.org/2000/svg" xmlns:xlink="http://www.w3.org/1999/xlink" width="48" height="48" viewBox="0 0 12.7 12.7"><defs><linearGradient id="a"><stop offset="0" stop-color="gray"/><stop offset="1" stop-color="#999" stop-opacity="0"/></linearGradient><linearGradient xlink:href="#a" id="b" gradientUnits="userSpaceOnUse" x1="5.601" y1="287.266" x2="3.061" y2="291.399" gradientTransform="matrix(.37685 0 0 1 7.102 .327)"/><linearGradient xlink:href="#a" id="c" gradientUnits="userSpaceOnUse" gradientTransform="matrix(.37685 0 0 1 1.604 .327)" x1="5.601" y1="287.266" x2="3.061" y2="291.399"/></defs><g fill-rule="evenodd"><path d="M7.466 11.084V1.671l3.448 4.672z" stroke="#000" stroke-width="1.323" stroke-linejoin="round"/><path d="M7.5 290.528l-.02-2.998s-.066-.792.287-.883c.24-.062.709.71.709.71s1.293 1.777 1.795 2.492c.333.673-.232.71-.232.71z" fill="url(#b)" transform="translate(0 -284.3)"/><path d="M1.967 11.084V1.671l3.449 4.672z" stroke="#000" stroke-width="1.323" stroke-linejoin="round"/><path d="M2.002 290.528l-.02-2.998s-.067-.792.287-.883c.24-.062.708.71.708.71s1.294 1.777 1.795 2.492c.334.673-.231.71-.231.71z" fill="url(#c)" transform="translate(0 -284.3)"/></g></svg>