<svg xmlns="http://www.w3.org/2000/svg" xmlns:xlink="http://www.w3.org/1999/xlink" width="64" height="64"><defs><linearGradient id="c"><stop offset="0" stop-color="#8ae234"/><stop offset="1" stop-color="#4e9a06"/></linearGradient><linearGradient id="b"><stop offset="0" stop-color="#729fcf"/><stop offset="1" stop-color="#204a87"/></linearGradient><linearGradient id="a"><stop offset="0" stop-color="#fff"/><stop offset="1" stop-color="#999"/></linearGradient><radialGradient xlink:href="#b" id="e" cx="16.463" cy="23.896" fx="16.463" fy="23.896" r="18.501" gradientTransform="matrix(.8033 1.03282 -1.45938 1.13507 43.669 -14.468)" gradientUnits="userSpaceOnUse"/><linearGradient xlink:href="#c" id="f" x1="20.881" y1="21.481" x2="43.661" y2="44.871" gradientUnits="userSpaceOnUse" gradientTransform="rotate(-163.44 30.812 39.487)"/><linearGradient xlink:href="#d" id="g" gradientUnits="userSpaceOnUse" gradientTransform="translate(71.495 -3.198)" x1="30" y1="10" x2="36" y2="54.227"/><linearGradient id="d"><stop offset="0" stop-color="#d3d7cf"/><stop offset="1" stop-color="#888a85"/></linearGradient></defs><circle cx="31.021" cy="39.66" r="17.5" opacity=".97" fill="url(#e)" stroke="#0b1521" stroke-width="2" stroke-linecap="round"/><circle cx="31.117" cy="39.756" r="15.5" opacity=".97" fill="none" stroke="#729fcf" stroke-width="2" stroke-linecap="round"/><path d="M59.295 31.031l-16.762.13S38.17 45.512 28.02 44.517c-10.149-.995-8.863-12.101-8.863-12.101l-14.849.711L6.183 44.15l4.409-.75s-.62 12.354 15.27 15.095c15.89 2.74 22.664-16.104 22.664-16.104l7.279.122" fill="none" stroke="#172a04" stroke-width="8" stroke-linecap="round" stroke-linejoin="round"/><path d="M59.302 30.73l-16.762.232S38.265 45.34 28.11 44.407c-10.156-.933-8.937-12.047-8.937-12.047l-14.845.802 1.942 11.01 4.405-.777s-.545 12.358 15.361 15.001c15.906 2.644 22.566-16.242 22.566-16.242l7.28.079" fill="none" stroke="url(#f)" stroke-width="4" stroke-linecap="round" stroke-linejoin="round"/><path d="M59.438 31.58l-15.807.35s-4.929 14.177-15.527 12.997C17.505 43.747 18.65 32.8 18.65 32.8l-12.806.568 1.206 7.074m-.62 4.052l3.61-.459s-.035 12.047 15.842 14.858c15.878 2.81 23.69-15.709 23.69-15.709l6.324-.14" fill="none" stroke="#8ae234" stroke-width="2" stroke-linecap="round" stroke-linejoin="round"/><g color="#000" stroke-width="3.034"><path d="M94.495 6.802l-.011 27.596 18.022-7.66-.011-19.936zm18 23l-18.011 7.66.01 8.34 18-8zm.01 10.724l-16.52 7.66 7.51 4.616 9-5z" style="marker:none" overflow="visible" fill="url(#g)" stroke="#2e3436" stroke-linejoin="round" transform="matrix(.66585 0 0 .65272 -13.019 -2.414)"/><path d="M97.487 9.885v19.869l11.992-5.099.023-14.77zm12.015 24.565l-11.99 5.014v1.711l11.965-5.4zm.045 10.83l-7.195 3.327 1.205.808 5.99-3.408z" style="marker:none" overflow="visible" fill="none" stroke="#d3d7cf" transform="matrix(.66585 0 0 .65272 -13.019 -2.414)"/></g></svg>