<svg xmlns="http://www.w3.org/2000/svg" xmlns:xlink="http://www.w3.org/1999/xlink" width="64" height="64"><defs><linearGradient id="a"><stop offset="0" stop-color="#a40000"/><stop offset="1" stop-color="#ef2929" stop-opacity="0"/></linearGradient><linearGradient xlink:href="#a" id="b" x1="117.287" y1="85.444" x2="103.231" y2="40.385" gradientUnits="userSpaceOnUse"/></defs><path d="M77.09 22.273a29.545 28.09 0 1 1-59.09 0 29.545 28.09 0 1 1 59.09 0z" transform="matrix(.98154 0 0 1.03236 -14.668 9.006)" fill="#ef2929" fill-opacity=".86" stroke="#280000" stroke-width="1.987"/><path d="M135.09 62.455a24.364 23.91 0 1 1-48.726 0 24.364 23.91 0 1 1 48.727 0z" transform="matrix(1.06716 0 0 1.08745 -86.164 -35.916)" fill="url(#b)"/><path d="M26 10h12v16.12l-1.7 11.758h-8.6L26 26.12V10m0 31.985h12V52H26V41.985" font-size="40" font-weight="700" letter-spacing="0" word-spacing="0" fill="#eeeeec" font-family="Sans"/></svg>