<svg xmlns="http://www.w3.org/2000/svg" xmlns:xlink="http://www.w3.org/1999/xlink" width="64" height="64"><defs><linearGradient id="e"><stop offset="0" stop-color="#2e3436"/><stop offset="1" stop-color="#888a85"/></linearGradient><linearGradient id="d"><stop offset="0" stop-color="#888a85"/><stop offset="1" stop-color="#d3d7cf"/></linearGradient><linearGradient id="a"><stop offset="0" stop-color="#fff"/><stop offset="1" stop-color="#999"/></linearGradient><linearGradient spreadMethod="reflect" gradientUnits="userSpaceOnUse" y2="745.186" x2="770.077" y1="753.752" x1="775.598" id="f" xlink:href="#b" gradientTransform="matrix(.3413 0 0 .3413 -302.719 762.904)"/><linearGradient id="b"><stop offset="0" stop-color="#888a85"/><stop offset="1" stop-color="#d3d7cf"/></linearGradient><linearGradient id="c"><stop offset="0" stop-color="#888a85"/><stop offset="1" stop-color="#d3d7cf"/></linearGradient><linearGradient gradientTransform="translate(0 -38)" y2="44" x2="30" y1="54" x1="31" gradientUnits="userSpaceOnUse" id="h" xlink:href="#c"/><linearGradient xlink:href="#d" id="i" x1="97" y1="25" x2="96" y2="21" gradientUnits="userSpaceOnUse" gradientTransform="translate(-64)"/><linearGradient xlink:href="#e" id="g" x1="-36.129" y1="1025.026" x2="-38.013" y2="1021.128" gradientUnits="userSpaceOnUse" spreadMethod="reflect"/></defs><path d="M-34.1 1040.972s-2.228 1.623-3.282 2.51c-1.323 1.113-2.302 1.244-3.493 3.374 0 .263.043 2.292.043 2.292.85-1.49 5.736-4.162 6.19-4.293 1.758-.504 2.831-1.29 1.645-3.076-.211-.319-.64-.607-.922-.729l-.182-.079zm0-8.874c-1.98 1.749-5.507 2.034-6.741 5.703-.013.056.005.187.009.216.092.71.761 1.605 1.452 1.941.24.117.319.107.53-.07 2.975-2.097 4.998-2.9 6.452-4.582 0 0 .017-.114.02-.24-.006-.48-.016-.872-.031-.967-.056-.338-.317-.868-.588-1.193-.244-.294-.64-.607-.922-.73l-.182-.078zm0-8.874c-2.01 1.227-5.086 3.115-6.741 5.703-.03.049.005.188.009.217.092.71.761 1.604 1.452 1.94.24.118.319.107.53-.07 1.71-1.333 6.587-2.973 6.452-4.582a1.13 1.13 0 0 0 .02-.24c-.006-.48-.016-.872-.031-.966-.056-.338-.317-.868-.588-1.194-.244-.294-.64-.607-.922-.729l-.182-.079zm1.667-15.543l-8.386.015v11.867c0 .889.991 2.196 1.434 2.48.144.12.22.238.43.06 1.616-1.283 4.94-2.177 6.522-4.545v-9.877z" fill="url(#f)" transform="matrix(1.06153 0 0 1.02618 70.352 -1014.865)"/><path d="M-41.414 1007.047l-.074 12.534c-.007 1.24.696 2.35 1.602 2.949.12.078.238.106.303.153a3.296 3.296 0 0 0-.772.54c-.44.412-.844 1.08-.934 1.547-.023.116-.04.487-.053.924l-.002.093c-.007.24-.013.473-.016.748-.019 1.084-.019 2.376.018 2.711.08.735.38 1.347.931 1.9.188.188.417.358.662.499a3.352 3.352 0 0 0-.606.452c-.44.412-.844 1.08-.934 1.547-.023.116-.04.487-.053.924l-.002.093c-.007.24-.013.473-.016.748-.019 1.084-.019 2.376.018 2.711.08.735.38 1.347.931 1.9.232.233.529.44.838.595-.03.02-.031.025-.07.047a4.484 4.484 0 0 0-.962.787 3.454 3.454 0 0 0-.693 1.313c-.18 2.373.025 6.373.017 6.884H-32.85c.01-.914-.644-.78-1.083-1.458-.046-.1-2.66.87-2.66.87-.011-.133 2.551-1.511 2.693-1.422.214-.172 1.077-2.079 1.455-2.777.363-.814.753-1.512.44-2.324-.325-.839-1.032-1.36-1.645-1.907l-.024-.046c.733-.766 1.365-1.031 1.678-1.88l.111-.307.015-2.173.015-2.172-.004-.01.002-.224-.164-.419c-.307-.78-.806-1.358-1.464-1.74a3.66 3.66 0 0 0 1.489-1.83l.111-.307.015-2.172.015-2.173-.004-.01.002-.224-.164-.418c-.31-.79-.818-1.395-1.489-1.772-.062-.035-.113.093-.169.062.892-.537 1.394-1.17 1.695-2.139.097-.312.113-3.112.113-3.112l-.005-10.513zm8.98.635v9.877c-1.581 2.497-4.905 3.439-6.52 4.792-.211.187-.287-.188-.431-.308-.443-.284-1.433-1.592-1.433-2.48v-11.866zm-1.667 15.543l.182.079c.282.121.678.434.922.728.271.326.532.856.588 1.194.015.095.025.486.031.967-.004.125-.01.222-.02.24.135 1.608-4.741 3.249-6.453 4.581-.21.178-.385.42-.529.071-.691-.336-1.36-1.23-1.452-1.941-.004-.03-.038-.166-.01-.217 1.656-2.693 4.731-4.657 6.741-5.934zm0 8.873l.182.08c.282.12.678.434.922.728.271.325.532.856.588 1.194.015.095.025.486.031.966-.004.126-.02.24-.02.24-1.454 1.774-3.477 2.62-6.453 4.83-.21.187-.289-.06-.529-.177-.691-.337-1.36-1.231-1.452-1.942-.004-.029-.022-.16-.01-.216 1.235-3.67 4.763-3.954 6.741-5.703zm0 8.874l.182.079c.282.121.71.41.922.728 1.186 1.787.113 2.572-1.645 3.077-.545.015-5.068 3.558-6.19 4.292 0 0-.043-2.029-.043-2.292 1.19-2.13 2.17-2.26 3.493-3.374 1.054-.887 3.281-2.51 3.281-2.51z" fill="url(#g)" stroke="#000" stroke-width=".958" stroke-linecap="round" transform="matrix(1.06153 0 0 1.02618 70.352 -1014.865)"/><path d="M3 19v-2l6-4V9L3 5V3h58v2l-6 4v4l6 4v2z" fill="url(#h)" stroke="#2e3436" stroke-width="2" stroke-linejoin="round"/><path d="M4 17l4-1 3-2V8L8 6 3.678 5H60l-4 1-3 2v6l3 2 4 1z" fill="none" stroke="#d3d7cf" stroke-width="2" stroke-linecap="round" stroke-linejoin="round"/><path d="M3 19v-2l6-4V9L3 5V3h58v2l-6 4v4l6 4v2z" fill="none" stroke="#2e3436" stroke-width="2" stroke-linejoin="round"/><path d="M11 11h42" fill="none" stroke="#d3d7cf" stroke-width="2"/><path fill="#d3d7cf" stroke="#2e3436" stroke-width="2" stroke-linecap="round" stroke-linejoin="round" stroke-dashoffset="2.04" d="M19 19h26v8H19z"/><path d="M22 23h20" fill="none" stroke="url(#i)" stroke-width="2"/></svg>