<svg xmlns="http://www.w3.org/2000/svg" xmlns:xlink="http://www.w3.org/1999/xlink" width="64" height="64"><defs><linearGradient id="f"><stop offset="0" stop-color="#fff110"/><stop offset="1" stop-color="#cf7008"/></linearGradient><pattern id="a" patternTransform="matrix(.66773 -1.0037 2.42619 2.31145 3.476 3.535)" height="1" width="2" patternUnits="userSpaceOnUse"><path d="M0-.5h1v2H0z"/></pattern><pattern id="b" patternTransform="matrix(.66773 -1.0037 2.42619 2.31145 3.476 3.535)" height="1" width="2" patternUnits="userSpaceOnUse"><path d="M0-.5h1v2H0z"/></pattern><pattern patternTransform="matrix(.66773 -1.0037 2.42619 2.31145 -26.336 10.887)" id="c" xlink:href="#d"/><pattern id="d" patternTransform="matrix(.66773 -1.0037 2.42619 2.31145 3.476 3.535)" height="1" width="2" patternUnits="userSpaceOnUse"><path d="M0-.5h1v2H0z"/></pattern><pattern id="e" patternTransform="matrix(.66773 -1.0037 2.42619 2.31145 3.476 3.535)" height="1" width="2" patternUnits="userSpaceOnUse"><path d="M0-.5h1v2H0z"/></pattern><linearGradient id="g"><stop offset="0" stop-color="#fff110"/><stop offset="1" stop-color="#cf7008"/></linearGradient><linearGradient id="h"><stop offset="0" stop-color="#fff"/><stop offset="1" stop-color="#999"/></linearGradient><linearGradient id="i"><stop offset="0" stop-color="#fff"/><stop offset="1" stop-color="#999"/></linearGradient><linearGradient id="j"><stop offset="0" stop-color="#fff"/><stop offset="1" stop-color="#999"/></linearGradient><linearGradient id="k"><stop offset="0" stop-color="#fff"/><stop offset="1" stop-color="#999"/></linearGradient></defs><g stroke-linecap="round"><path style="marker:none" d="M9.648 48.5l-1 2c-2 4 1 7 4 7h28c6 0 9.295-3.545 12.295-6.545L56 48" color="#000" fill="none" stroke="#172a04" stroke-width="8" overflow="visible"/><path style="marker:none" d="M9.648 48.5l-1 2c-2 4 1 7 4 7h28C46.648 57.5 50 54 53 51l3-3" color="#000" fill="none" stroke="#73d216" stroke-width="4" overflow="visible"/><path style="marker:none" d="M8.966 47.59l-1 2c-2 4 1 7 4 7h28c6 0 8.966-2.84 11.966-5.84l3.432-3.477" color="#000" fill="none" stroke="#8ae234" stroke-width="2" overflow="visible"/><g fill="#fff" font-size="19.568" letter-spacing="0" word-spacing="0" stroke="#2e3436" stroke-linejoin="round"><path style="line-height:125%;-inkscape-font-specification:sans-serif" d="M17.05 16.715c-1.136.88-1.136.88-2.854 1.442-.944.308-2.006.318-3.057.318-2.376 0-4.258-.63-5.646-1.89-1.389-1.267-2.083-2.981-2.083-5.144 0-2.187.707-3.907 2.12-5.161 1.415-1.254 3.351-1.881 5.81-1.881h2.3c3.41.88 2.64.546 3.41.88v2.639c-1.136 0-2.112-.454-2.902-.666a8.996 8.996 0 0 0-2.36-.318c-1.464 0-2.595.39-3.391 1.172-.79.776-1.185 1.887-1.185 3.335 0 1.436.382 2.545 1.147 3.326.764.782 1.871 1.068 1.871 1.068h1.137l1.137-.88v-.879H10.23v-2.64h6.82zM48.878 11.437l4.546 7.038h-4.546l-2.274-4.4-2.273 4.4h-4.547l4.547-7.038-4.547-7.038h4.547l2.273 4.398L48.878 4.4h4.546zM65.065 11.414q0-2.544-.588-3.58-.577-1.045-1.953-1.045-1.377 0-1.965 1.045-.588 1.036-.588 3.58 0 2.572.588 3.626.588 1.054 1.965 1.054 1.365 0 1.953-1.054.588-1.054.588-3.626zm4.273.027q0 3.372-1.776 5.207-1.775 1.827-5.038 1.827-3.275 0-5.05-1.827-1.776-1.835-1.776-5.207 0-3.38 1.776-5.207Q59.249 4.4 62.524 4.4q3.263 0 5.038 1.835 1.776 1.827 1.776 5.207zM17.05 34.31c-1.136.88-1.136.88-2.854 1.442-.944.308-2.006.318-3.057.318-2.376 0-4.258-.63-5.646-1.89-1.389-1.267-2.083-2.981-2.083-5.144 0-2.187.707-3.907 2.12-5.161 1.415-1.254 3.351-1.881 5.81-1.881h2.3c3.41.88 2.64.546 3.41.88v2.639c-1.136 0-2.112-.454-2.902-.666a8.996 8.996 0 0 0-2.36-.318c-1.464 0-2.595.39-3.391 1.172-.79.776-1.185 1.887-1.185 3.335 0 1.436.382 2.545 1.147 3.326.764.782 1.871 1.068 1.871 1.068h1.137l1.137-.88v-.88H10.23v-2.638h6.82zM48.878 29.032l4.546 7.038h-4.546l-2.274-4.4-2.273 4.4h-4.547l4.547-7.038-4.547-7.038h4.547l2.273 4.398 2.274-4.398h4.546zM28.691 11.414q0-2.544-.588-3.58-.577-1.045-1.954-1.045-1.376 0-1.964 1.045-.588 1.036-.588 3.58 0 2.572.588 3.626.588 1.054 1.964 1.054 1.366 0 1.954-1.054.588-1.054.588-3.626zm4.273.027q0 3.372-1.776 5.207-1.776 1.827-5.039 1.827-3.274 0-5.05-1.827-1.775-1.835-1.775-5.207 0-3.38 1.776-5.207Q22.875 4.4 26.15 4.4q3.262 0 5.038 1.835 1.776 1.827 1.776 5.207z" transform="scale(.87975 1.1367)" font-weight="700" font-family="sans-serif" stroke-width="2"/><g style="line-height:125%;-inkscape-font-specification:Walkway Oblique Bold"><path style="-inkscape-font-specification:sans-serif" d="M57.971 32.55h2.274v-7.037H57.97v-1.76l2.274-1.76h4.546v10.558h2.274v3.519H57.97z" font-weight="700" stroke-width="2" font-family="sans-serif" transform="scale(.87975 1.1367)"/></g><g style="line-height:125%;-inkscape-font-specification:Walkway Oblique Bold"><path style="-inkscape-font-specification:sans-serif" d="M57.971 32.55h2.274v-7.037H57.97v-1.76l2.274-1.76h4.546v10.558h2.274v3.519H57.97z" font-weight="700" stroke-width="2" font-family="sans-serif" transform="matrix(.87975 0 0 1.1367 -32 0)"/></g></g></g></svg>