<svg xmlns="http://www.w3.org/2000/svg" xmlns:xlink="http://www.w3.org/1999/xlink" width="64" height="64"><defs><linearGradient id="l"><stop offset="0" stop-color="#ef2929"/><stop offset="1" stop-color="#a40000"/></linearGradient><linearGradient id="f"><stop offset="0" stop-color="#fff110"/><stop offset="1" stop-color="#cf7008"/></linearGradient><pattern id="a" patternTransform="matrix(.66773 -1.0037 2.42619 2.31145 3.476 3.535)" height="1" width="2" patternUnits="userSpaceOnUse"><path d="M0-.5h1v2H0z"/></pattern><pattern id="b" patternTransform="matrix(.66773 -1.0037 2.42619 2.31145 3.476 3.535)" height="1" width="2" patternUnits="userSpaceOnUse"><path d="M0-.5h1v2H0z"/></pattern><pattern patternTransform="matrix(.66773 -1.0037 2.42619 2.31145 -26.336 10.887)" id="c" xlink:href="#d"/><pattern id="d" patternTransform="matrix(.66773 -1.0037 2.42619 2.31145 3.476 3.535)" height="1" width="2" patternUnits="userSpaceOnUse"><path d="M0-.5h1v2H0z"/></pattern><pattern id="e" patternTransform="matrix(.66773 -1.0037 2.42619 2.31145 3.476 3.535)" height="1" width="2" patternUnits="userSpaceOnUse"><path d="M0-.5h1v2H0z"/></pattern><linearGradient id="g"><stop offset="0" stop-color="#fff110"/><stop offset="1" stop-color="#cf7008"/></linearGradient><linearGradient id="h"><stop offset="0" stop-color="#fff"/><stop offset="1" stop-color="#999"/></linearGradient><linearGradient id="i"><stop offset="0" stop-color="#fff"/><stop offset="1" stop-color="#999"/></linearGradient><linearGradient id="j"><stop offset="0" stop-color="#fff"/><stop offset="1" stop-color="#999"/></linearGradient><linearGradient id="k"><stop offset="0" stop-color="#fff"/><stop offset="1" stop-color="#999"/></linearGradient><linearGradient xlink:href="#l" id="p" x1="30.728" y1="11.544" x2="41.336" y2="57.506" gradientUnits="userSpaceOnUse"/><linearGradient id="m"><stop offset="0" stop-color="#d3d7cf"/><stop offset="1" stop-color="#888a85"/></linearGradient><linearGradient id="n"><stop offset="0" stop-color="#d3d7cf"/><stop offset="1" stop-color="#888a85"/></linearGradient><linearGradient xlink:href="#o" id="q" gradientUnits="userSpaceOnUse" x1="35.06" y1="53.009" x2="27.286" y2="7.312"/><linearGradient id="o"><stop offset="0" stop-color="#888a85"/><stop offset="1" stop-color="#d3d7cf"/></linearGradient><linearGradient xlink:href="#o" id="r" gradientUnits="userSpaceOnUse" x1="35.06" y1="53.009" x2="27.286" y2="7.312"/><linearGradient xlink:href="#o" id="s" gradientUnits="userSpaceOnUse" x1="35.06" y1="53.009" x2="27.286" y2="7.312"/></defs><path style="marker:none" d="M20 56V9l32 12v35" color="#000" fill="none" stroke="#280000" stroke-width="8" stroke-linecap="round" stroke-linejoin="round" overflow="visible"/><path style="marker:none" d="M20 56V9l32 12v35" color="#000" fill="none" stroke="url(#p)" stroke-width="4" stroke-linecap="round" stroke-linejoin="round" overflow="visible"/><path style="marker:none" d="M19 55l-.004-45.993s-.034-.547.468-.865c.501-.318 1.19.019 1.19.019L51.02 19.564l-.032 36.575" color="#000" fill="none" stroke="#ef2929" stroke-width="2" stroke-linecap="round" stroke-linejoin="round" overflow="visible"/><path style="marker:none" d="M6 56h14" color="#000" fill="none" stroke="#172a04" stroke-width="8" stroke-linecap="round" overflow="visible"/><path style="marker:none" d="M6 56h14" color="#000" fill="none" stroke="#73d216" stroke-width="4" stroke-linecap="round" overflow="visible"/><path style="marker:none" d="M6 55h14" color="#000" fill="none" stroke="#8ae234" stroke-width="2" stroke-linecap="round" overflow="visible"/><g stroke-width="2.027"><g fill="url(#q)" stroke="#2e3436" stroke-linejoin="round" transform="matrix(.97351 0 0 1 20.83 -.948)"><path style="marker:none" d="M22.755 28v9l18.49-8v-9zm18.49 3l-18.49 8v9l18.49-8zm0 11l-18.49 8L32 56l9.245-6z" color="#000" fill="url(#r)" overflow="visible"/><path d="M22.755 26V10h18.49v8z" fill="url(#s)"/></g><path d="M24.827 29.3l.028 4.491 14.32-6.093.024-4.645zm14.361 4.788l-14.374 6.23.015 4.59 14.39-6.225zm-.02 11L27.01 50.323l4.974 3.278 7.175-4.66z" style="marker:none" color="#000" fill="none" stroke="#d3d7cf" overflow="visible" transform="matrix(.97351 0 0 1 20.83 -.948)"/></g><path d="M68.272 15l.014 10.948 11.29-6.185.001-4.763z" fill="none" stroke="#d3d7cf" stroke-width="1.797" transform="matrix(1.23837 0 0 1 -39.564 -3.948)"/></svg>