<svg xmlns="http://www.w3.org/2000/svg" xmlns:xlink="http://www.w3.org/1999/xlink" width="64" height="64"><defs><linearGradient id="f"><stop offset="0" stop-color="#fff110"/><stop offset="1" stop-color="#cf7008"/></linearGradient><pattern id="a" patternTransform="matrix(.66773 -1.0037 2.42619 2.31145 3.476 3.535)" height="1" width="2" patternUnits="userSpaceOnUse"><path d="M0-.5h1v2H0z"/></pattern><pattern id="b" patternTransform="matrix(.66773 -1.0037 2.42619 2.31145 3.476 3.535)" height="1" width="2" patternUnits="userSpaceOnUse"><path d="M0-.5h1v2H0z"/></pattern><pattern patternTransform="matrix(.66773 -1.0037 2.42619 2.31145 -26.336 10.887)" id="c" xlink:href="#d"/><pattern id="d" patternTransform="matrix(.66773 -1.0037 2.42619 2.31145 3.476 3.535)" height="1" width="2" patternUnits="userSpaceOnUse"><path d="M0-.5h1v2H0z"/></pattern><pattern id="e" patternTransform="matrix(.66773 -1.0037 2.42619 2.31145 3.476 3.535)" height="1" width="2" patternUnits="userSpaceOnUse"><path d="M0-.5h1v2H0z"/></pattern><linearGradient id="g"><stop offset="0" stop-color="#fff110"/><stop offset="1" stop-color="#cf7008"/></linearGradient><linearGradient id="h"><stop offset="0" stop-color="#fff"/><stop offset="1" stop-color="#999"/></linearGradient><linearGradient id="i"><stop offset="0" stop-color="#fff"/><stop offset="1" stop-color="#999"/></linearGradient><linearGradient id="j"><stop offset="0" stop-color="#fff"/><stop offset="1" stop-color="#999"/></linearGradient><linearGradient id="k"><stop offset="0" stop-color="#fff"/><stop offset="1" stop-color="#999"/></linearGradient><linearGradient id="o"><stop offset="0" stop-color="#fafafa"/><stop offset="1" stop-color="#bbb"/></linearGradient><linearGradient id="p"><stop offset="0" stop-color="#a3a3a3"/><stop offset="1" stop-color="#4c4c4c"/></linearGradient><radialGradient id="m" cx="20.892" cy="114.568" r="5.256" fx="20.892" fy="114.568" gradientUnits="userSpaceOnUse"><stop offset="0" stop-color="#f0f0f0"/><stop offset="1" stop-color="#9a9a9a"/></radialGradient><radialGradient id="l" cx="20.892" cy="64.568" r="5.257" fx="20.892" fy="64.568" gradientUnits="userSpaceOnUse"><stop offset="0" stop-color="#f0f0f0"/><stop offset="1" stop-color="#9a9a9a"/></radialGradient><linearGradient id="n"><stop offset="0" stop-color="#fff"/><stop offset="1" stop-color="#f8f8f8"/></linearGradient><linearGradient id="q"><stop offset="0"/><stop offset="1" stop-opacity="0"/></linearGradient><linearGradient id="r"><stop offset="0" stop-opacity="0"/><stop offset=".5"/><stop offset="1" stop-opacity="0"/></linearGradient><linearGradient id="s"><stop offset="0"/><stop offset="1" stop-opacity="0"/></linearGradient><linearGradient id="t"><stop offset="0" stop-color="#d3d7cf"/><stop offset="1" stop-color="#888a85"/></linearGradient><linearGradient xlink:href="#u" id="v" gradientUnits="userSpaceOnUse" x1="35.06" y1="53.009" x2="27.286" y2="7.312"/><linearGradient id="u"><stop offset="0" stop-color="#888a85"/><stop offset="1" stop-color="#d3d7cf"/></linearGradient><linearGradient xlink:href="#u" id="w" gradientUnits="userSpaceOnUse" x1="35.06" y1="53.009" x2="27.286" y2="7.312"/><linearGradient xlink:href="#u" id="x" gradientUnits="userSpaceOnUse" x1="35.06" y1="53.009" x2="27.286" y2="7.312"/></defs><g color="#000" fill="none" stroke="#172a04" stroke-width="8" stroke-linecap="round" stroke-linejoin="round"><path d="M6 6v33c0 11 8 19 18 19h34" style="marker:none" overflow="visible"/><path d="M22 6v22c0 8 5.998 14 14 14h22" style="marker:none" overflow="visible"/><path d="M38 6v12c0 6 2 8 8 8h12M6.23 37.615C6.52 36.336 21 29 21 29M22 19l16-8" style="marker:none" overflow="visible"/></g><g fill="none" stroke="#73d216" stroke-width="4" color="#000" stroke-linecap="round" stroke-linejoin="round"><path d="M6 6v33c0 11 8 19 18 19h34" style="marker:none" overflow="visible"/><path d="M22 6v22c0 8 5.998 14 14 14h22" style="marker:none" overflow="visible"/><path d="M38 6v12c0 6 2 8 8 8h12M6.23 37.615C6.52 36.336 21 29 21 29M22 19l16-8" style="marker:none" overflow="visible"/></g><g fill="none" stroke="#8ae234" stroke-width="2" color="#000" stroke-linecap="round" stroke-linejoin="round"><path d="M5 6v32c0 11 8 19 18 19h34" style="marker:none" overflow="visible"/><path d="M21 6v21c0 8 5.998 14 14 14h22" style="marker:none" overflow="visible"/><path d="M37 6v11c0 6 2 8 8 8h12M5.23 36.615C5.52 35.336 20 28 20 28M21 18l16-8" style="marker:none" overflow="visible"/></g><g stroke-width="2.027"><g fill="url(#v)" stroke="#2e3436" stroke-linejoin="round" transform="matrix(.97351 0 0 1 20.848 1)"><path style="marker:none" d="M22.755 28v9l18.49-8v-9zm18.49 3l-18.49 8v9l18.49-8zm0 11l-18.49 8L32 56l9.245-6z" color="#000" fill="url(#w)" overflow="visible"/><path d="M22.755 26V6h18.49v12z" fill="url(#x)"/></g><path d="M24.827 29.3l.028 4.491 14.32-6.093.024-4.645zm14.361 4.788l-14.374 6.23.015 4.59 14.39-6.225zm-.02 11L27.01 50.323l4.974 3.278 7.175-4.66z" style="marker:none" color="#000" fill="none" stroke="#d3d7cf" overflow="visible" transform="matrix(.97351 0 0 1 20.848 1)"/></g><path d="M68.272 11l.014 14.948 11.29-6.185.001-8.763z" fill="none" stroke="#d3d7cf" stroke-width="1.797" transform="matrix(1.23837 0 0 1 -39.546 -2)"/></svg>