<svg xmlns="http://www.w3.org/2000/svg" xmlns:xlink="http://www.w3.org/1999/xlink" width="64" height="64"><defs><linearGradient id="q"><stop offset="0" stop-color="#d3d7cf"/><stop offset="1" stop-color="#888a85"/></linearGradient><linearGradient id="o"><stop offset="0" stop-color="#d3d7cf"/><stop offset="1" stop-color="#888a85"/></linearGradient><linearGradient id="m"><stop offset="0" stop-color="#8f5902"/><stop offset="1" stop-color="#e9b96e"/></linearGradient><linearGradient id="l"><stop offset="0" stop-color="#8f5902"/><stop offset="1" stop-color="#e9b96e"/></linearGradient><linearGradient id="k"><stop offset="0" stop-color="#d3d7cf"/><stop offset="1" stop-color="#888a85"/></linearGradient><linearGradient id="f"><stop offset="0" stop-color="#fff110"/><stop offset="1" stop-color="#cf7008"/></linearGradient><pattern id="a" patternTransform="matrix(.66773 -1.0037 2.42619 2.31145 3.476 3.535)" height="1" width="2" patternUnits="userSpaceOnUse"><path d="M0-.5h1v2H0z"/></pattern><pattern id="b" patternTransform="matrix(.66773 -1.0037 2.42619 2.31145 3.476 3.535)" height="1" width="2" patternUnits="userSpaceOnUse"><path d="M0-.5h1v2H0z"/></pattern><pattern patternTransform="matrix(.66773 -1.0037 2.42619 2.31145 -26.336 10.887)" id="c" xlink:href="#d"/><pattern id="d" patternTransform="matrix(.66773 -1.0037 2.42619 2.31145 3.476 3.535)" height="1" width="2" patternUnits="userSpaceOnUse"><path d="M0-.5h1v2H0z"/></pattern><pattern id="e" patternTransform="matrix(.66773 -1.0037 2.42619 2.31145 3.476 3.535)" height="1" width="2" patternUnits="userSpaceOnUse"><path d="M0-.5h1v2H0z"/></pattern><linearGradient id="g"><stop offset="0" stop-color="#fff110"/><stop offset="1" stop-color="#cf7008"/></linearGradient><linearGradient id="h"><stop offset="0" stop-color="#fff"/><stop offset="1" stop-color="#999"/></linearGradient><linearGradient id="i"><stop offset="0" stop-color="#fff"/><stop offset="1" stop-color="#999"/></linearGradient><linearGradient id="j"><stop offset="0" stop-color="#fff"/><stop offset="1" stop-color="#999"/></linearGradient><linearGradient xlink:href="#k" id="v" x1="32" y1="5" x2="33" y2="11" gradientUnits="userSpaceOnUse"/><linearGradient xlink:href="#l" id="s" x1="14" y1="59" x2="11" y2="49" gradientUnits="userSpaceOnUse"/><linearGradient xlink:href="#m" id="r" x1="54" y1="59" x2="51" y2="49" gradientUnits="userSpaceOnUse"/><linearGradient id="n"><stop offset="0" stop-color="#fff"/><stop offset="1" stop-color="#999"/></linearGradient><linearGradient xlink:href="#o" id="u" x1="31" y1="15" x2="33" y2="23" gradientUnits="userSpaceOnUse"/><linearGradient id="p"><stop offset="0" stop-color="#fff"/><stop offset="1" stop-color="#999"/></linearGradient><linearGradient xlink:href="#q" id="t" x1="27.909" y1="27.909" x2="36" y2="54.227" gradientUnits="userSpaceOnUse"/></defs><g stroke-width="2"><path style="marker:none" d="M61 47v14H32l13-8s.052-3.283 0-6z" color="#000" fill="url(#r)" stroke="#271903" stroke-linejoin="round" overflow="visible"/><path style="marker:none" d="M3 47v14h29l-13-8s-.052-3.283 0-6z" color="#000" fill="url(#s)" stroke="#271903" stroke-linejoin="round" overflow="visible"/><path style="marker:none" d="M32 25l-9 4v8l18-8v-4zm9 6l-18 8v9l18-7zm0 12l-18 7 9 6 9-6z" color="#000" fill="url(#t)" stroke="#2e3436" stroke-linejoin="round" overflow="visible"/><path style="marker:none" color="#000" fill="url(#u)" stroke="#2e3436" stroke-linejoin="round" overflow="visible" d="M17 12.573h30V25H17z"/><path style="marker:none" color="#000" fill="url(#v)" stroke="#2e3436" stroke-linejoin="round" overflow="visible" d="M9 3h46v10H9z"/><path style="marker:none" d="M5 49v10h20l-8-5v-5zM59 49v10H39l8-5v-5z" color="#000" fill="none" stroke="#e9b96e" stroke-miterlimit="11.6" overflow="visible"/><path style="marker:none" color="#000" fill="none" stroke="#d3d7cf" overflow="visible" d="M11 5h42v6H11zM19 15h26v8H19zM32.37 26.993L25.01 30.17 25 34l14-6v-1zm6.598 7.136L25.064 40.32 25 45l13.936-5.421zm.013 11.85L27.318 50.5l4.762 3.179 6.904-4.675z"/><path d="M23 27v-2h8z" fill="#d3d7cf" stroke="#2e3436" stroke-linejoin="round"/></g></svg>